<svg xmlns="http://www.w3.org/2000/svg" xmlns:xlink="http://www.w3.org/1999/xlink" width="243" height="107" viewBox="0 0 243 107">
  <defs>
    <clipPath id="clip-Footer_BID">
      <rect width="243" height="107"/>
    </clipPath>
  </defs>
  <g id="Footer_BID" data-name="Footer BID" clip-path="url(#clip-Footer_BID)">
    <rect width="243" height="107" fill="transparent"/>
    <g id="Grupo_322" data-name="Grupo 322" transform="translate(3.954 3.044)">
      <path id="Trazado_864" data-name="Trazado 864" d="M1840.655,1250.253a.343.343,0,0,1,.068.367,1.882,1.882,0,0,0,0,1.122,1.33,1.33,0,0,1,.01.367,14.5,14.5,0,0,0,.349,2.747,16.184,16.184,0,0,0,.871,2.9,14.115,14.115,0,0,0,.828,1.681,15.353,15.353,0,0,0,1.047,1.656c.321.445.652.88,1.007,1.3.386.454.77.914,1.189,1.335a28.375,28.375,0,0,0,2.224,1.983,29.147,29.147,0,0,0,2.769,2.011c.868.559,1.736,1.122,2.648,1.61,1.139.612,2.264,1.261,3.444,1.789,1.242.56,2.459,1.18,3.738,1.663.494.188.973.423,1.464.63.738.309,1.48.618,2.221.92.856.343,1.715.679,2.574,1.016s1.749.68,2.617,1.035c.714.293,1.424.6,2.126.921.719.327,1.436.664,2.14,1.022a17.2,17.2,0,0,1,2.648,1.606,5.186,5.186,0,0,1,1.684,1.959,2.506,2.506,0,0,1,.29,1.273,3.946,3.946,0,0,1-.541,1.669,10.763,10.763,0,0,0-1.041,2.119,5.957,5.957,0,0,0-.346,2.512,5.441,5.441,0,0,0,.331,1.4,10.3,10.3,0,0,0,1.668,2.759c.361.454.751.883,1.128,1.325.512.608,1.047,1.193,1.564,1.8.534.63,1.031,1.282,1.538,1.934a14.6,14.6,0,0,1,2.123,4.251,14.117,14.117,0,0,1,.522,3.955c-.049.754-.124,1.508-.247,2.259a21.833,21.833,0,0,1-.945,3.627c-.269.772-.578,1.529-.911,2.274-.155.349-.3.7-.473,1.038a.526.526,0,0,1-.458.315c-.537.065-1.069.217-1.607.247-.4.025-.788.1-1.18.127-.55.043-1.109.018-1.647.1a23.02,23.02,0,0,1-2.484.071c-.507.015-1.02-.019-1.526.01-.3.012-.565-.121-.862-.1a3.426,3.426,0,0,1-.831-.01c-.571-.1-1.152-.074-1.718-.182-.519-.1-1.047-.133-1.566-.238-.411-.083-.834-.132-1.251-.216-.516-.1-1.032-.219-1.548-.318-.936-.179-1.848-.445-2.756-.714s-1.811-.584-2.7-.914c-.865-.324-1.715-.689-2.564-1.041-.253-.105-.5-.241-.741-.365-.7-.355-1.418-.7-2.111-1.075s-1.341-.778-2.008-1.171c-.76-.445-1.5-.933-2.212-1.443-.609-.432-1.189-.9-1.783-1.35-.386-.3-.775-.593-1.155-.9-.285-.228-.541-.494-.825-.732a28.518,28.518,0,0,1-2.685-2.6c-.506-.553-1.047-1.075-1.507-1.672-.591-.757-1.193-1.5-1.777-2.268-.627-.818-1.2-1.683-1.749-2.554-.371-.591-.7-1.211-1.075-1.8-.386-.606-.683-1.258-1.013-1.891-.47-.9-.865-1.838-1.258-2.774-.337-.809-.643-1.631-.93-2.459a40.722,40.722,0,0,1-1.18-4.078c-.164-.7-.3-1.418-.423-2.132-.115-.636-.208-1.279-.322-1.915-.068-.38-.077-.794-.139-1.177a7.062,7.062,0,0,0-.158-1.4.393.393,0,0,1,0-.135c-.022-1.43-.179-2.858-.08-4.288.043-.6.025-1.2.1-1.783.043-.353.021-.7.086-1.047.109-.594.133-1.2.239-1.795.083-.473.163-.955.213-1.437.04-.361.126-.717.2-1.069q.236-1.1.516-2.2c.182-.717.4-1.421.605-2.132a36.082,36.082,0,0,1,1.5-4.078,33.61,33.61,0,0,1,1.594-3.287c.729-1.331,1.5-2.638,2.357-3.9a.474.474,0,0,1,.1-.071" transform="translate(-1833.118 -1238.807)" fill="#fff"/>
      <path id="Trazado_865" data-name="Trazado 865" d="M1877.285,1270.847a.573.573,0,0,0,.086.019q1.872,0,3.748.006c1.233,0,2.469.018,3.7-.006a36.555,36.555,0,0,0,3.729-.071,10.718,10.718,0,0,0,1.526-.232,6.321,6.321,0,0,0,2.419-1.091,3.419,3.419,0,0,0,1.053-1.365,5.083,5.083,0,0,0,.2-2.919,3.258,3.258,0,0,0-.677-1.421,4.436,4.436,0,0,0-1.91-1.307,9.042,9.042,0,0,0-3.157-.556c-3.454-.028-6.908-.01-10.365-.006-.118,0-.245-.047-.352.052Zm.006,20.4h.254q6.437,0,12.874-.007a11.651,11.651,0,0,0,1.18-.111,4.751,4.751,0,0,0,.72-.089,11.432,11.432,0,0,0,1.73-.519,4.665,4.665,0,0,0,1.752-1.257,4.6,4.6,0,0,0,.911-2.8.305.305,0,0,0-.028-.176.683.683,0,0,1-.059-.4,3.243,3.243,0,0,0-.772-2,4.859,4.859,0,0,0-2.651-1.607,10.548,10.548,0,0,0-1.557-.3,15.089,15.089,0,0,0-1.628-.161q-6.177-.014-12.361,0a.61.61,0,0,0-.355.034c-.034.389-.047,8.725-.01,9.4m-12.5-40.754h.438q12.619,0,25.238.009a9.74,9.74,0,0,1,1.813.167c.266.049.541.052.813.086.769.09,1.511.281,2.264.438a16.141,16.141,0,0,1,2.546.794,12.574,12.574,0,0,1,2.363,1.177c.436.281.871.556,1.288.859a7.687,7.687,0,0,1,.838.714,14.422,14.422,0,0,1,1.52,1.61,18.9,18.9,0,0,1,1.069,1.581,11.331,11.331,0,0,1,.946,2.114,13.9,13.9,0,0,1,.423,1.662,16.679,16.679,0,0,1,.167,4.313,10.3,10.3,0,0,1-.75,3.342,12.044,12.044,0,0,1-1.662,2.978,15.516,15.516,0,0,1-1.875,1.947,5.827,5.827,0,0,1-1.05.8,1.065,1.065,0,0,0-.191.179c.333.17.645.343.967.494a15.515,15.515,0,0,1,2.922,1.854,10.921,10.921,0,0,1,1.425,1.307,11.6,11.6,0,0,1,2.521,4.5,13.792,13.792,0,0,1,.42,2.082,18.426,18.426,0,0,1,.164,2.972c-.022.559-.1,1.118-.161,1.674a12.376,12.376,0,0,1-.3,1.65,12.027,12.027,0,0,1-1.335,3.269,15.463,15.463,0,0,1-1.131,1.653c-.207.266-.479.479-.71.729a11.561,11.561,0,0,1-2.558,2.07,15,15,0,0,1-2.521,1.273c-.538.2-1.073.408-1.619.581-.819.256-1.653.46-2.493.642-.636.139-1.279.229-1.916.331a3.783,3.783,0,0,1-1.18.117c-.562.192-1.161-.006-1.721.176a.933.933,0,0,1-.278.006q-13.175,0-26.347,0h-.312c-.071-.392-.1-51.153-.031-52.154" transform="translate(-1767.029 -1238.303)" fill="#fff"/>
      <path id="Trazado_866" data-name="Trazado 866" d="M1873.736,1277.643a1.692,1.692,0,0,0-1.008.173c-.235.142-.278.315-.1.519a1.5,1.5,0,0,0,.59.407,9.642,9.642,0,0,0,1.338.4c.263.055.534.083.8.141a1.224,1.224,0,0,0,.853-.061c.253-.136.271-.232.092-.455a3.02,3.02,0,0,0-1.158-.794,2.571,2.571,0,0,0-1.405-.328m-4.273-1.483a2.061,2.061,0,0,0,1-.2.677.677,0,0,0,.38-.961,1.517,1.517,0,0,0-.291-.408,3.986,3.986,0,0,0-1-.711,11,11,0,0,0-2.518-.871,3.69,3.69,0,0,0-1.136-.1c-.4.028-.5.154-.5.55a1.32,1.32,0,0,0,.46.865,5.988,5.988,0,0,0,1.439,1.2,4.109,4.109,0,0,0,2.169.631m-13.98-7.6a4.5,4.5,0,0,0-1.465.111,6.65,6.65,0,0,0-1.834.621.8.8,0,0,0-.5.837,1.361,1.361,0,0,0,.217.593,4.355,4.355,0,0,0,1.4,1.356,9.27,9.27,0,0,0,1.869.939,11.5,11.5,0,0,0,2.209.63c.448.071.893.154,1.344.21.544.062,1.087.092,1.628.154a5.745,5.745,0,0,0,.832,0,4.439,4.439,0,0,0,1.415-.281.988.988,0,0,0,.593-.995,1.812,1.812,0,0,0-.506-1.1,6.589,6.589,0,0,0-1.588-1.381,9.979,9.979,0,0,0-2.283-1.112,9.575,9.575,0,0,0-3.327-.591m10.538,54.548a7.735,7.735,0,0,1,.578-1.116c.587-.961,1.189-1.909,1.841-2.827.38-.532.754-1.066,1.146-1.588.287-.374.541-.772.844-1.137.426-.513.822-1.056,1.229-1.585.519-.677,1.038-1.354,1.566-2.021.321-.408.67-.794,1-1.2.346-.427.658-.881,1.029-1.283.383-.417.7-.887,1.088-1.3a11.478,11.478,0,0,0,.961-1.161c.232-.331.528-.593.766-.912.4-.535.865-1.022,1.276-1.557.223-.29.485-.55.723-.831s.476-.593.723-.884.5-.537.726-.831c.427-.556.924-1.057,1.344-1.618.191-.253.424-.485.634-.723a25.164,25.164,0,0,0,2.441-3.192,11.052,11.052,0,0,0,1.2-2.638,4.2,4.2,0,0,0,.2-1.294,4.583,4.583,0,0,0-1.039-2.988,9.536,9.536,0,0,0-3.018-2.32,23.144,23.144,0,0,0-2.885-1.224c-1.174-.436-2.379-.766-3.584-1.109-1.116-.318-2.243-.58-3.367-.868-.772-.2-1.56-.34-2.34-.51-.441-.1-.88-.207-1.322-.306-.528-.115-1.06-.225-1.588-.34-.441-.1-.887-.179-1.325-.287-.689-.17-1.378-.322-2.073-.46-.68-.139-1.356-.29-2.024-.476-.594-.166-1.2-.293-1.795-.444-.525-.133-1.054-.257-1.576-.409-1.041-.306-2.079-.614-3.114-.939-.967-.306-1.909-.668-2.857-1.017a26.183,26.183,0,0,1-2.786-1.23,18.285,18.285,0,0,1-3.272-2.064,12.551,12.551,0,0,1-1.313-1.143,12.97,12.97,0,0,1-1.5-1.959,8.948,8.948,0,0,1-.791-1.737,4.212,4.212,0,0,1-.325-1.637c.012-.232-.126-.436-.092-.677a8.676,8.676,0,0,1,1.958-5.048c.337-.436.717-.838,1.066-1.26a15.153,15.153,0,0,1,1.381-1.338c.507-.479,1.075-.9,1.628-1.325.59-.457,1.208-.874,1.826-1.291a17.13,17.13,0,0,1,1.653-1.044c.38-.195.732-.438,1.1-.652s.745-.408,1.112-.624c.593-.343,1.2-.658,1.814-.968,1.109-.562,2.215-1.136,3.34-1.665.936-.436,1.869-.877,2.814-1.288.652-.284,1.3-.584,1.953-.874.6-.266,1.2-.5,1.8-.757.5-.217,1-.436,1.5-.649.643-.275,1.282-.553,1.924-.822.445-.189.893-.371,1.342-.553.7-.281,1.4-.569,2.1-.865.529-.226,1.07-.433,1.588-.683.6-.287,1.223-.525,1.844-.769a1.778,1.778,0,0,0,.334-.145.581.581,0,0,1,.7.031c.878.574,1.724,1.2,2.549,1.844.658.519,1.307,1.051,1.934,1.613.473.42.911.868,1.375,1.294a5.665,5.665,0,0,1,.686.608c.432.544.96,1,1.418,1.514.664.757,1.325,1.52,1.94,2.317a42.6,42.6,0,0,1,2.456,3.51c.473.76.946,1.523,1.356,2.323.253.5.547.979.779,1.486.71,1.538,1.408,3.083,1.968,4.69.476,1.368.862,2.762,1.251,4.152.182.652.271,1.329.4,2,.123.652.278,1.3.352,1.956.037.334.074.67.13.995a6.361,6.361,0,0,0,.157,1.307.213.213,0,0,1,.006.089c-.04.754.124,1.5.105,2.249-.031,1.143-.021,2.286-.006,3.426.009.615-.1,1.22-.117,1.832a13.907,13.907,0,0,1-.183,1.672c-.12.834-.272,1.665-.417,2.5-.12.686-.284,1.359-.423,2.039-.176.868-.46,1.714-.72,2.564-.362,1.184-.766,2.357-1.236,3.5-.59,1.433-1.276,2.829-2,4.2a45.065,45.065,0,0,1-2.8,4.48c-.424.609-.881,1.2-1.356,1.779q-.774.936-1.57,1.851c-.942,1.084-1.99,2.064-3.009,3.067a25.313,25.313,0,0,1-1.977,1.706c-.655.519-1.325,1.016-2.008,1.5-.7.5-1.427.982-2.154,1.458-.568.374-1.165.71-1.764,1.041-.72.4-1.443.794-2.184,1.143-1.18.553-2.37,1.084-3.593,1.539-.906.337-1.826.63-2.74.939a2.4,2.4,0,0,0-.714.247" transform="translate(-1811.75 -1246.548)" fill="#fff"/>
      <path id="Trazado_867" data-name="Trazado 867" d="M1898.83,1290.973h.327c2.469,0,4.937-.01,7.409.009.63,0,1.248-.111,1.875-.12a3.6,3.6,0,0,0,.813-.086c.627-.167,1.266-.263,1.894-.43a14.131,14.131,0,0,0,3.85-1.715,13.6,13.6,0,0,0,1.2-.905,11.31,11.31,0,0,0,2.228-2.425,12.371,12.371,0,0,0,1.285-2.3,14.474,14.474,0,0,0,.686-2.015c.157-.63.284-1.263.386-1.906a5.31,5.31,0,0,1,.157-1.307,23.22,23.22,0,0,0-.16-3.618c-.071-.448-.136-.9-.229-1.344a13.522,13.522,0,0,0-3.488-6.6c-.2-.213-.439-.383-.652-.578a13.3,13.3,0,0,0-2.667-1.829,12.358,12.358,0,0,0-1.375-.6,12.88,12.88,0,0,0-2.347-.661c-.433-.086-.865-.142-1.3-.21a11.462,11.462,0,0,0-1.582-.139c-2.669-.037-5.342-.019-8.011-.019-.1,0-.217-.04-.3.053Zm-12.787,11.678v-52.1c.124-.09.25-.05.371-.05q10.858,0,21.716-.009c.312,0,.6.111.908.105a3.009,3.009,0,0,1,.909.068,5.794,5.794,0,0,0,.906.1c.9.106,1.786.294,2.675.464a25.577,25.577,0,0,1,2.926.778,27.091,27.091,0,0,1,3.411,1.366,23.908,23.908,0,0,1,3.284,1.854,25.085,25.085,0,0,1,2.188,1.643,22.308,22.308,0,0,1,2.095,1.937c.491.541.973,1.094,1.43,1.668a22.155,22.155,0,0,1,1.545,2.2,23.452,23.452,0,0,1,1.619,3.009,30.255,30.255,0,0,1,1.183,3.238c.179.587.306,1.2.445,1.8s.2,1.22.343,1.823a7.011,7.011,0,0,1,.093.859,11.182,11.182,0,0,1,.108,2.107c-.028.355.151.689.09,1.047-.117.7-.031,1.412-.108,2.107a13.1,13.1,0,0,1-.172,1.674c-.143.6-.223,1.214-.34,1.82a24.7,24.7,0,0,1-1.029,3.608c-.179.5-.368,1-.59,1.474-.238.512-.46,1.028-.726,1.523a28.521,28.521,0,0,1-1.776,2.867c-.458.651-.948,1.266-1.453,1.878a16.982,16.982,0,0,1-1.483,1.575,26.739,26.739,0,0,1-4.18,3.253,15.7,15.7,0,0,1-1.461.84c-.59.281-1.158.606-1.751.875a27.318,27.318,0,0,1-3.222,1.217,29.086,29.086,0,0,1-2.979.76c-.605.117-1.217.225-1.823.327-.368.062-.763.074-1.131.136a12.03,12.03,0,0,0-1.632.154,1.131,1.131,0,0,1-.324.01l-21.716,0Z" transform="translate(-1722.534 -1238.309)" fill="#fff"/>
      <path id="Trazado_868" data-name="Trazado 868" d="M1880.317,1302.692V1250.5a1.305,1.305,0,0,1,.473-.031c1.928,0,3.858.01,5.786-.009a7.738,7.738,0,0,1,1.672.2,6.032,6.032,0,0,1,2.138.982,6.115,6.115,0,0,1,1.686,1.792,6.183,6.183,0,0,1,.906,2.354,8.755,8.755,0,0,1,.114,1.365q-.014,22.527-.006,45.048v.454c-.386.078-11.641.111-12.769.037" transform="translate(-1734.498 -1238.372)" fill="#fff"/>
      <path id="Trazado_869" data-name="Trazado 869" d="M1866.523,1275.529c.924,0,1.8.016,2.682-.006a1.436,1.436,0,0,0,1.094-.485,1.131,1.131,0,0,0-.022-1.526,1.3,1.3,0,0,0-.945-.386c-.834-.006-1.669,0-2.5,0-.1,0-.219-.043-.309.056Zm0,4.075c1.137,0,2.228.009,3.322,0a1.269,1.269,0,0,0,1.18-.738,1.091,1.091,0,0,0-.55-1.532,2.1,2.1,0,0,0-.918-.223q-1.363,0-2.725,0c-.1,0-.216-.043-.309.055Zm-1.767,1.672v-9.76c.114-.1.244-.058.362-.058,1.375,0,2.746-.01,4.121,0a3.844,3.844,0,0,1,2,.519,2.023,2.023,0,0,1,1.106,1.826,2.809,2.809,0,0,1-.161,1.214,3.007,3.007,0,0,1-1.016,1.094c.012.111.1.127.182.161a2.247,2.247,0,0,1,1.5,1.607,2.433,2.433,0,0,1-1.566,3.025,5.729,5.729,0,0,1-2.138.376c-1.294-.009-2.592,0-3.886,0Z" transform="translate(-1767.013 -1194.52)" fill="#fff"/>
      <path id="Trazado_870" data-name="Trazado 870" d="M1873.128,1284.224c.655,0,1.285,0,1.915,0a2.973,2.973,0,0,0,.906-.1,2.878,2.878,0,0,0,2.1-1.909,3.357,3.357,0,0,0,.179-1.687,3.921,3.921,0,0,0-.5-1.4,2.758,2.758,0,0,0-.844-.838,3.423,3.423,0,0,0-1.621-.534c-.7-.056-1.412-.013-2.135-.013Zm-1.869,1.656v-9.361c0-.424.019-.442.439-.442,1.065,0,2.132-.034,3.2.006a5.621,5.621,0,0,1,3.3,1.01,4.584,4.584,0,0,1,1.628,2.107,4.811,4.811,0,0,1,.324,2.144,4.953,4.953,0,0,1-1.053,2.712,5.116,5.116,0,0,1-2.87,1.718,3.8,3.8,0,0,1-.856.114c-1.279.013-2.561.006-3.843.006-.074,0-.148-.009-.263-.015" transform="translate(-1753.424 -1184.876)" fill="#fff"/>
      <path id="Trazado_871" data-name="Trazado 871" d="M1897.485,1279.754h-1.705c-.105-.105-.059-.235-.059-.352q0-2.034,0-4.072a1.615,1.615,0,0,0-.3-.979,1.153,1.153,0,0,0-.976-.513,1.626,1.626,0,0,0-1,.241,1.531,1.531,0,0,0-.578.9,3.394,3.394,0,0,0-.114,1c.019,1.094.006,2.19.006,3.284v.5c-.305.028-.6.009-.883.013s-.55,0-.822,0c-.077-.378-.105-6.368-.037-7.406.559-.015,1.122,0,1.727-.009.034.333,0,.655.025,1.029a2.518,2.518,0,0,1,1.359-1.051,2.132,2.132,0,0,1,1.291-.1,3.794,3.794,0,0,1,.933.322,2.5,2.5,0,0,1,.788.871,3.271,3.271,0,0,1,1.918-1.18,3.026,3.026,0,0,1,1.814.207,1.641,1.641,0,0,1,.837.689,3.01,3.01,0,0,1,.5,1.634c-.021,1.511-.009,3.022-.009,4.532v.436h-1.718c-.083-.114-.043-.241-.043-.361q-.005-2.035,0-4.072a1.612,1.612,0,0,0-.457-1.149.97.97,0,0,0-.729-.322,1.69,1.69,0,0,0-.98.158,1.5,1.5,0,0,0-.71,1.01,5.627,5.627,0,0,0-.08,1.183v3.562" transform="translate(-1712.217 -1193.014)" fill="#fff"/>
      <path id="Trazado_872" data-name="Trazado 872" d="M1870.5,1282.414a1.363,1.363,0,0,0-.1-.677,2.107,2.107,0,0,0-.637-1.085,1.913,1.913,0,0,0-1.9-.439,1.759,1.759,0,0,0-1.041.7,2.645,2.645,0,0,0-.405,2.03,2.226,2.226,0,0,0,.955,1.477,1.834,1.834,0,0,0,2.453-.284,2.246,2.246,0,0,0,.679-1.727m0-2.719v-3.742c.581-.015,1.143,0,1.693-.006.111.124.068.253.068.37q0,4.671,0,9.342v.139c-.012.29-.052.337-.358.34-.448,0-.9,0-1.366,0-.093-.361,0-.732-.08-1.208-.09.142-.127.21-.173.272a2.719,2.719,0,0,1-1.792,1.041,2.979,2.979,0,0,1-1.885-.284,3.192,3.192,0,0,1-1.23-.976,4.27,4.27,0,0,1-.8-2.969,3.623,3.623,0,0,1,.936-2.314,2.986,2.986,0,0,1,2.333-1.069,3.4,3.4,0,0,1,1,.058,3.156,3.156,0,0,1,1.357.81c.071.08.13.173.195.26l.093-.065" transform="translate(-1767.396 -1185.12)" fill="#fff"/>
      <path id="Trazado_873" data-name="Trazado 873" d="M1893.37,1276.616a3.712,3.712,0,0,0-.926-.223c-.371-.013-.739-.016-1.106,0a1.224,1.224,0,0,0-1.02.516.887.887,0,0,0,.021,1.131,1.524,1.524,0,0,0,1.09.476,2.6,2.6,0,0,0,.671-.09,1.485,1.485,0,0,0,1.27-1.43v-.377m-3.877-2.379c-.161-.479-.318-.933-.479-1.411a6.988,6.988,0,0,1,1.492-.519,6.493,6.493,0,0,1,1.968-.077,2.607,2.607,0,0,1,2.175,1.223,3.377,3.377,0,0,1,.4,1.1,13.558,13.558,0,0,1,.077,2.206c.015.939,0,1.881,0,2.824a.9.9,0,0,1-.028.13c-.275.031-.565.009-.853.012s-.553,0-.847,0a7.174,7.174,0,0,1-.056-.831,3.255,3.255,0,0,1-.883.649,2.651,2.651,0,0,1-1.23.281,4.076,4.076,0,0,1-1.4-.176,2.325,2.325,0,0,1,.525-4.455,5.04,5.04,0,0,1,2.49.059c.155.04.315.065.476.1a1.293,1.293,0,0,0-.995-1.462,4.008,4.008,0,0,0-2.067.1c-.247.073-.488.16-.775.256" transform="translate(-1717.648 -1192.969)" fill="#fff"/>
      <path id="Trazado_874" data-name="Trazado 874" d="M1882.49,1281c-.241,0-.427-.006-.612,0a2.988,2.988,0,0,0-.392.1.988.988,0,0,0-.761.847c-.019.621.161.908.7,1.081a2.152,2.152,0,0,0,1.8-.192,1.425,1.425,0,0,0,.742-1.372c-.006-.139-.04-.254-.185-.275a4.108,4.108,0,0,0-1.288-.192m1.39-.985a3.045,3.045,0,0,0-.068-.72,1.241,1.241,0,0,0-.806-.757,2.812,2.812,0,0,0-1.486-.077,10.427,10.427,0,0,0-1.5.414,10.811,10.811,0,0,1-.417-1.449,8.88,8.88,0,0,1,1.61-.516,5.969,5.969,0,0,1,1.6-.075,2.979,2.979,0,0,1,2.216,1.01,3.091,3.091,0,0,1,.51,1.06,2.758,2.758,0,0,1,.1.858c0,1.36,0,2.716,0,4.076a1.205,1.205,0,0,1-.04.491c-.485,0-.974,0-1.465,0a.23.23,0,0,1-.257-.257c0-.151,0-.3,0-.519a2.489,2.489,0,0,1-.868.605,3.011,3.011,0,0,1-1.841.284,3.164,3.164,0,0,1-1.353-.479,1.848,1.848,0,0,1-.85-1.578,2.776,2.776,0,0,1,.167-1.258,2.29,2.29,0,0,1,1.208-1.137,4.146,4.146,0,0,1,2.154-.278,3.781,3.781,0,0,1,1.39.3" transform="translate(-1737.33 -1183.312)" fill="#fff"/>
      <path id="Trazado_875" data-name="Trazado 875" d="M1871.151,1276.391a2.817,2.817,0,0,0-1.063.09.953.953,0,0,0-.692.6,2.046,2.046,0,0,0-.025.55.648.648,0,0,0,.352.6,1.909,1.909,0,0,0,1.038.287,2.625,2.625,0,0,0,1.078-.306,1.48,1.48,0,0,0,.763-1.353c.012-.161-.062-.241-.226-.291a3.119,3.119,0,0,0-1.226-.173m1.341-1.057a1.3,1.3,0,0,0-1.273-1.529,4.29,4.29,0,0,0-2.481.442,4.959,4.959,0,0,1-.51-1.421,6.552,6.552,0,0,1,1.615-.535,6.442,6.442,0,0,1,1.832-.062,2.647,2.647,0,0,1,2.515,2.086,3.252,3.252,0,0,1,.089.859v4.532c-.3.028-.586.009-.874.013s-.553,0-.84,0c-.106-.232-.013-.466-.077-.729-.161.118-.306.229-.457.334a2.609,2.609,0,0,1-1.35.485,6.813,6.813,0,0,1-.788,0,2.367,2.367,0,0,1-2.258-1.61c-.006-.015-.022-.028-.022-.043a5.781,5.781,0,0,1,.047-1.328,2.183,2.183,0,0,1,1.526-1.551,3.524,3.524,0,0,1,1.112-.2,7.117,7.117,0,0,1,2.193.253" transform="translate(-1761.075 -1192.966)" fill="#fff"/>
      <path id="Trazado_876" data-name="Trazado 876" d="M1907.586,1276.6a1.883,1.883,0,0,1-.473-.127,7.555,7.555,0,0,0-1.372-.093,2.166,2.166,0,0,0-.88.2,1.03,1.03,0,0,0-.463,1.254,1.2,1.2,0,0,0,.726.578,2.163,2.163,0,0,0,1.421-.071,1.512,1.512,0,0,0,1.02-1.072,2.553,2.553,0,0,0,.021-.674m.04-1.2c-.077-.3-.117-.5-.185-.7a1.366,1.366,0,0,0-1.267-.9,4.734,4.734,0,0,0-2.465.436,12.848,12.848,0,0,1-.488-1.4,4.943,4.943,0,0,1,1.511-.531,6.474,6.474,0,0,1,1.968-.08,2.887,2.887,0,0,1,1.548.587,2.534,2.534,0,0,1,1.016,2.132c.012,1.48,0,2.96,0,4.439v.312a6.451,6.451,0,0,1-.877.022c-.275.006-.553,0-.844,0a4.539,4.539,0,0,1-.064-.729c-.173.108-.306.247-.463.346a2.618,2.618,0,0,1-1.539.482c-.154-.006-.308,0-.463,0a2.447,2.447,0,0,1-2.06-.995,1.681,1.681,0,0,1-.368-1.01,2.857,2.857,0,0,1,.16-1.26,2.467,2.467,0,0,1,1.78-1.372,5.362,5.362,0,0,1,1.69-.081,4.779,4.779,0,0,1,1.409.3" transform="translate(-1687.972 -1192.965)" fill="#fff"/>
      <path id="Trazado_877" data-name="Trazado 877" d="M1900.312,1275.494a1.8,1.8,0,0,0-1.925-1.838,1.934,1.934,0,0,0-1.613,1.838Zm1.767,1.224h-5.348a2.479,2.479,0,0,0,.407.985,1.8,1.8,0,0,0,1.057.674,2.486,2.486,0,0,0,2.32-.6,2.624,2.624,0,0,0,.241-.226c.305.371.744.569,1.038.973a3.5,3.5,0,0,1-2.558,1.344.52.52,0,0,0-.312.055.355.355,0,0,1-.269.031,7.219,7.219,0,0,1-1.069-.192,3.605,3.605,0,0,1-1.816-1.224,3.9,3.9,0,0,1-.785-1.813,4.112,4.112,0,0,1,.065-1.643,3.883,3.883,0,0,1,1.656-2.376,2.979,2.979,0,0,1,1.183-.439,3.308,3.308,0,0,1,.674-.1,3.632,3.632,0,0,1,1.981.581,3.468,3.468,0,0,1,1.278,1.693,5.27,5.27,0,0,1,.257,2.274" transform="translate(-1703.959 -1193.014)" fill="#fff"/>
      <path id="Trazado_878" data-name="Trazado 878" d="M1886.079,1275.467a30.739,30.739,0,0,0,3.624-.034,1.867,1.867,0,0,0-.633-1.36,1.509,1.509,0,0,0-1.517-.368,2.014,2.014,0,0,0-1.474,1.761m5.379,1.233h-5.314a1.794,1.794,0,0,0,.547,1.174,1.754,1.754,0,0,0,.816.485,2.543,2.543,0,0,0,2.366-.578c.223-.228.229-.2.494-.012a5.164,5.164,0,0,1,.8.729,3.63,3.63,0,0,1-1.928,1.27,8.567,8.567,0,0,0-.982.167c-.148.062-.3-.084-.441-.071a2.937,2.937,0,0,1-1.279-.29,3.228,3.228,0,0,1-1.354-.983,3.532,3.532,0,0,1-.7-1.412,4.218,4.218,0,0,1-.077-1.847,3.918,3.918,0,0,1,.426-1.286,3.578,3.578,0,0,1,5.027-1.334,3.236,3.236,0,0,1,.97.961,3.747,3.747,0,0,1,.624,1.637,10.381,10.381,0,0,1,.012,1.391" transform="translate(-1726.114 -1193.002)" fill="#fff"/>
      <path id="Trazado_879" data-name="Trazado 879" d="M1890.81,1280.559a1.843,1.843,0,0,0-.454-1.325,2.082,2.082,0,0,0-2.253-.822,2.034,2.034,0,0,0-1.279.955,2.241,2.241,0,0,0-.266,1.922,2.113,2.113,0,0,0,1.6,1.588,2.022,2.022,0,0,0,1.974-.5,2.312,2.312,0,0,0,.68-1.814m-2.129-3.72a2.938,2.938,0,0,1,1.69.3,3.719,3.719,0,0,1,1.431,1.125,3.515,3.515,0,0,1,.748,1.73,4.027,4.027,0,0,1-.161,1.9,3.764,3.764,0,0,1-2.4,2.388,3.654,3.654,0,0,1-1.563.244,3.874,3.874,0,0,1-3.3-2.1,3.527,3.527,0,0,1-.421-2.024,3.778,3.778,0,0,1,1.069-2.394,4.088,4.088,0,0,1,1.95-1.115,5.534,5.534,0,0,1,.957-.05" transform="translate(-1725.366 -1183.322)" fill="#fff"/>
      <path id="Trazado_880" data-name="Trazado 880" d="M1881.072,1276.073a1.716,1.716,0,0,0-.006-.5,2.421,2.421,0,0,0-1.631-1.745,2.325,2.325,0,0,0-2.259.794,2.985,2.985,0,0,0-.442,1.594c0,.16.1.284.1.442a1.44,1.44,0,0,0,.387.856,2.127,2.127,0,0,0,2.32.772,1.857,1.857,0,0,0,1.054-.679,2.2,2.2,0,0,0,.475-1.529m1.78-.105a3.659,3.659,0,0,1-1.137,2.84,3.554,3.554,0,0,1-2.357,1.06c-.421.194-.838-.025-1.258-.016a1.693,1.693,0,0,1-.6-.176,3.863,3.863,0,0,1-1.517-.992,3.614,3.614,0,0,1-.927-1.894,3.785,3.785,0,0,1-.074-.813,4.231,4.231,0,0,1,.593-1.977,3.784,3.784,0,0,1,1.575-1.412,2.3,2.3,0,0,1,1.122-.322c.176.006.312-.1.492-.1a4.172,4.172,0,0,1,2.564.782,3.731,3.731,0,0,1,1.437,2.166,2.829,2.829,0,0,1,.09.852" transform="translate(-1745.658 -1193.016)" fill="#fff"/>
      <path id="Trazado_881" data-name="Trazado 881" d="M1869.145,1280.038h3.6a1.941,1.941,0,0,0-.333-1.032,1.668,1.668,0,0,0-2.221-.572,2.251,2.251,0,0,0-1.047,1.6m5.391,1.242h-5.375a2.177,2.177,0,0,0,.957,1.455,2.245,2.245,0,0,0,1.669.225,2.4,2.4,0,0,0,1.217-.673.22.22,0,0,1,.359-.012,6.4,6.4,0,0,0,.689.605c.17.121.161.225.013.386a3.544,3.544,0,0,1-2.212,1.162,4.229,4.229,0,0,1-.677.083,3.763,3.763,0,0,1-2.9-1.316,3.716,3.716,0,0,1-.8-1.665,4.468,4.468,0,0,1-.065-1.369,4,4,0,0,1,.7-1.893,3.656,3.656,0,0,1,1.551-1.242,2.122,2.122,0,0,1,.923-.211c.232,0,.463,0,.7,0a2.965,2.965,0,0,1,2.453,1.264,4,4,0,0,1,.8,2.462c0,.228,0,.457,0,.739" transform="translate(-1761.515 -1183.306)" fill="#fff"/>
      <path id="Trazado_882" data-name="Trazado 882" d="M1913.774,1276.005a1.794,1.794,0,0,0-.235-1.029,1.739,1.739,0,0,0-.655-.794,2.739,2.739,0,0,0-.822-.364,1.931,1.931,0,0,0-2.023.609,2.28,2.28,0,0,0-.538,2.113,2.15,2.15,0,0,0,1.715,1.771,2,2,0,0,0,1.81-.448,2.225,2.225,0,0,0,.748-1.856m1.755-.013a3.548,3.548,0,0,1-.772,2.444,3.587,3.587,0,0,1-1.777,1.245,2.047,2.047,0,0,1-.93.186c-.173-.022-.309.111-.488.092a4.635,4.635,0,0,1-2.626-1.01,3.422,3.422,0,0,1-.973-1.369,3.591,3.591,0,0,1-.3-1.64,4.142,4.142,0,0,1,.806-2.225,4.044,4.044,0,0,1,5.583-.738,3.8,3.8,0,0,1,1.473,2.345,3.233,3.233,0,0,1,.007.671" transform="translate(-1677.385 -1193.016)" fill="#fff"/>
      <path id="Trazado_883" data-name="Trazado 883" d="M1891.446,1280.605a2.259,2.259,0,0,0,1.035,2.008,2.109,2.109,0,0,0,2.178.086,2.149,2.149,0,0,0,1.125-1.826,2.249,2.249,0,0,0-1.069-2.221,2.181,2.181,0,0,0-1.118-.331,2.073,2.073,0,0,0-1.159.343,1.519,1.519,0,0,0-.488.408,2.521,2.521,0,0,0-.5,1.532m-1.764.093a3.638,3.638,0,0,1,1.106-2.787,3.536,3.536,0,0,1,2.62-1.1,4.82,4.82,0,0,1,1.582.179,3.724,3.724,0,0,1,2.107,1.783,3.679,3.679,0,0,1,.458,2.2,3.876,3.876,0,0,1-3.284,3.454,3.832,3.832,0,0,1-3.018-.673,3.408,3.408,0,0,1-1.344-1.706,2.746,2.746,0,0,1-.226-1.353" transform="translate(-1714.985 -1183.309)" fill="#fff"/>
      <path id="Trazado_884" data-name="Trazado 884" d="M1876.2,1280.018a31.2,31.2,0,0,0,3.562,0c-.154-1.264-.871-1.764-1.745-1.776a1.832,1.832,0,0,0-1.817,1.779m5.333,1.264h-5.345a2.027,2.027,0,0,0,.976,1.5,1.614,1.614,0,0,0,.726.237,2.472,2.472,0,0,0,2.027-.627l.034-.031c.25-.229.266-.229.523.019.132.127.256.269.4.386.386.331.393.331.043.67a3.391,3.391,0,0,1-2.048,1,4.247,4.247,0,0,1-.72.083,3.758,3.758,0,0,1-3.157-1.708,3.376,3.376,0,0,1-.581-1.839,4.939,4.939,0,0,1,.185-1.672,3.684,3.684,0,0,1,2.271-2.348,1.683,1.683,0,0,1,.757-.133,6.58,6.58,0,0,1,1.369.089,3.185,3.185,0,0,1,1.922,1.421,4.831,4.831,0,0,1,.621,2.953" transform="translate(-1746.852 -1183.311)" fill="#fff"/>
      <path id="Trazado_885" data-name="Trazado 885" d="M1886.883,1279.741h-1.737c-.1-.09-.055-.222-.055-.34q-.005-2.08,0-4.164a1.285,1.285,0,0,0-.911-1.335,1.5,1.5,0,0,0-1.928.7,1.893,1.893,0,0,0-.219.921c.012,1.252.006,2.5,0,3.751a1.253,1.253,0,0,1-.034.473h-1.711v-7.375h1.739v.939c.17-.164.291-.275.4-.392a2.532,2.532,0,0,1,1.31-.68,2.927,2.927,0,0,1,2.088.4,1.5,1.5,0,0,1,.553.544,3.455,3.455,0,0,1,.488,1.535c.145,1.616.022,3.228.071,4.841a.217.217,0,0,1-.059.192" transform="translate(-1734.561 -1193.004)" fill="#fff"/>
      <path id="Trazado_886" data-name="Trazado 886" d="M1911.869,1279.751h-1.708c-.1-.121-.052-.251-.056-.368,0-1.217-.009-2.438,0-3.655a4.589,4.589,0,0,0-.121-.9,1.331,1.331,0,0,0-1.319-.989,1.97,1.97,0,0,0-.72.084,1.287,1.287,0,0,0-.72.6,1.916,1.916,0,0,0-.269,1c.009,1.251,0,2.5,0,3.751v.476h-1.721c-.055-.38-.068-6.815-.012-7.368h1.721v.911c.346-.238.544-.556.868-.735a2.559,2.559,0,0,1,1.875-.315,2.973,2.973,0,0,1,1.051.39,2.531,2.531,0,0,1,1.035,1.656,7.238,7.238,0,0,1,.09,1.508v3.964Z" transform="translate(-1682.52 -1193.01)" fill="#fff"/>
      <path id="Trazado_887" data-name="Trazado 887" d="M1875.03,1279.744v-.581c0-1.31,0-2.62,0-3.932a1.388,1.388,0,0,0-.92-1.338,1.628,1.628,0,0,0-1.844.566,1.591,1.591,0,0,0-.291.936c.01,1.3,0,2.592,0,3.887v.47h-1.724c-.055-.411-.058-6.905-.006-7.375h1.724v.946c.213-.21.38-.361.534-.525a1.711,1.711,0,0,1,1.088-.522,3.184,3.184,0,0,1,.489-.105,3.106,3.106,0,0,1,1.9.64,2.446,2.446,0,0,1,.717,1.2,2.6,2.6,0,0,1,.1.859c-.006,1.48,0,2.96,0,4.439v.439Z" transform="translate(-1755.623 -1193.016)" fill="#fff"/>
      <path id="Trazado_888" data-name="Trazado 888" d="M1876.857,1283.36c.278-.439.519-.825.782-1.239a8.993,8.993,0,0,0,.963.568,3.254,3.254,0,0,0,1.678.343,1.357,1.357,0,0,0,.6-.194.635.635,0,0,0-.105-1.094,4.528,4.528,0,0,0-1.017-.377,5.481,5.481,0,0,1-1.752-.729,1.688,1.688,0,0,1-.754-1.384,2.154,2.154,0,0,1,.031-.732,2.237,2.237,0,0,1,1.715-1.6,4.256,4.256,0,0,1,2.632.234c.228.09.442.2.664.294a.885.885,0,0,1,.309.244,8.9,8.9,0,0,1-.531.973c-.133.238-.158.244-.433.114-.179-.083-.353-.179-.535-.262a3.34,3.34,0,0,0-1.362-.3.929.929,0,0,0-.7.288c-.349.361-.216.677.135.9a3.228,3.228,0,0,0,.621.284c.522.195,1.06.358,1.576.562a2.277,2.277,0,0,1,1.257,1.141,2.249,2.249,0,0,1-.85,2.629,3.264,3.264,0,0,1-1.606.4,4.789,4.789,0,0,1-1.579-.179,5.732,5.732,0,0,1-1.155-.51c-.195-.12-.383-.247-.59-.383" transform="translate(-1741.728 -1183.313)" fill="#fff"/>
      <path id="Trazado_889" data-name="Trazado 889" d="M1907.036,1273.51c-.405.355-.648.818-1.057,1.125-.256-.185-.5-.386-.772-.553a1.98,1.98,0,0,0-2.9.782,2.574,2.574,0,0,0,.1,2.571,2.15,2.15,0,0,0,2.147.886,2.493,2.493,0,0,0,1.251-.71c.059-.065.108-.151.179-.158.374.374.729.735,1.09,1.1a4.038,4.038,0,0,1-1.711,1.159,2.191,2.191,0,0,1-.662.145.663.663,0,0,0-.4.065.286.286,0,0,1-.179.019,4.554,4.554,0,0,1-2.444-.841,3.532,3.532,0,0,1-1.378-2.333,3.827,3.827,0,0,1,.806-3.182,3.94,3.94,0,0,1,2.342-1.347,4.28,4.28,0,0,1,2.471.343,3.379,3.379,0,0,1,1.122.93" transform="translate(-1692.875 -1193.004)" fill="#fff"/>
      <path id="Trazado_890" data-name="Trazado 890" d="M1878.361,1274.668a3.614,3.614,0,0,0-.677-.581,2.085,2.085,0,0,0-3.158,1.251,2.616,2.616,0,0,0,.5,2.36,1.842,1.842,0,0,0,.961.587,2.358,2.358,0,0,0,2.262-.633,1.133,1.133,0,0,0,.173-.228c.386.392.732.744,1.081,1.093a3.8,3.8,0,0,1-2.036,1.313,1.851,1.851,0,0,1-.315.034c-.152.015-.306-.028-.451.062a.345.345,0,0,1-.226.025,4.482,4.482,0,0,1-2.215-.729,3.843,3.843,0,0,1-1.511-2.358,3.907,3.907,0,0,1,.105-2.024,3.725,3.725,0,0,1,2.759-2.552,3.285,3.285,0,0,1,1.535-.053,5.057,5.057,0,0,1,1.369.458,3.424,3.424,0,0,1,.831.642.225.225,0,0,1,0,.358c-.322.315-.637.63-.986.974" transform="translate(-1750.486 -1193.016)" fill="#fff"/>
      <path id="Trazado_891" data-name="Trazado 891" d="M1883.59,1275.074h-.9V1273.6h.9v-2.024h1.755v1.977a4.994,4.994,0,0,0,.974.034c.309.009.615,0,.97,0,.034.482.006.955.019,1.449a4.393,4.393,0,0,1-.964.04c-.309.009-.615,0-.912,0-.111.1-.071.213-.071.315,0,1.066,0,2.128,0,3.195,0,.061,0,.123,0,.185a.707.707,0,0,0,.754.741,2.324,2.324,0,0,0,1.189-.265c0,.444,0,.874,0,1.3,0,.145-.077.213-.2.275a2.294,2.294,0,0,1-.865.253,3.245,3.245,0,0,1-1.492-.133,1.7,1.7,0,0,1-1.072-1.307,5.294,5.294,0,0,1-.084-1.23c0-.942,0-1.884,0-2.823Z" transform="translate(-1729.544 -1194.251)" fill="#fff"/>
      <path id="Trazado_892" data-name="Trazado 892" d="M1897.615,1272.354h1.813v1.239a2.814,2.814,0,0,1,2.5-1.418v1.881a.454.454,0,0,1-.325.046,2.157,2.157,0,0,0-1.964,1.394,3.058,3.058,0,0,0-.2,1.159c.019.846.006,1.7.006,2.542,0,.093,0,.189,0,.278-.015.214-.068.275-.279.279-.509.006-1.016,0-1.516,0-.071-.383-.1-6.513-.031-7.4" transform="translate(-1698.435 -1193.001)" fill="#fff"/>
      <path id="Trazado_893" data-name="Trazado 893" d="M1885.073,1278.248a2.512,2.512,0,0,1,2.5-1.421c.021.6.006,1.2.009,1.767-.1.108-.194.077-.284.077a2.21,2.21,0,0,0-2.128,1.73,3.641,3.641,0,0,0-.1.859c.01.847,0,1.7,0,2.546,0,.093,0,.186,0,.278a.219.219,0,0,1-.228.235q-.7.009-1.39,0a.219.219,0,0,1-.232-.232c-.006-.092,0-.185,0-.278v-6.388c0-.077,0-.155,0-.232.016-.21.068-.272.278-.278q.649-.009,1.3,0c.207.006.266.068.272.284.01.322,0,.646,0,1.054" transform="translate(-1728.433 -1183.303)" fill="#fff"/>
      <path id="Trazado_894" data-name="Trazado 894" d="M1880.959,1271.451v9.8a8.868,8.868,0,0,1-.911.018c-.294,0-.584,0-.856,0-.111-.111-.074-.225-.074-.327q0-4.509,0-9.024c0-.062-.006-.124,0-.185.015-.213.065-.278.275-.281.507-.01,1.014,0,1.566,0" transform="translate(-1737.016 -1194.517)" fill="#fff"/>
      <path id="Trazado_895" data-name="Trazado 895" d="M1888.744,1279.751H1887v-7.384c.559-.034,1.122-.01,1.727-.018.028.429,0,.843.019,1.27a2.548,2.548,0,0,0,.405-.526,2.667,2.667,0,0,1,1.171-.778,3.192,3.192,0,0,1,.751-.142c.16-.018.257.077.259.25.007.479.007.955,0,1.434-.006.189-.083.263-.3.253a1.922,1.922,0,0,0-1.1.247,2.321,2.321,0,0,0-.924,1.038,3.178,3.178,0,0,0-.272,1.415c.012.819,0,1.634,0,2.453Z" transform="translate(-1720.523 -1193.011)" fill="#fff"/>
      <path id="Trazado_896" data-name="Trazado 896" d="M1881.607,1276.916h1.73c.021.461,0,.9.015,1.446a2.913,2.913,0,0,1,1.06-1.239,2.122,2.122,0,0,1,1.526-.275c0,.531.007,1.054,0,1.576,0,.189-.081.254-.3.254a2.282,2.282,0,0,0-.843.157,2.223,2.223,0,0,0-1.344,1.622,3.151,3.151,0,0,0-.1.906c.01.939,0,1.881,0,2.823a.835.835,0,0,1-.024.118c-.553.059-1.118.006-1.678.031-.077-.371-.1-6.481-.034-7.418" transform="translate(-1731.89 -1183.312)" fill="#fff"/>
      <path id="Trazado_897" data-name="Trazado 897" d="M1887.661,1275.95h1.684a.619.619,0,0,1,.056.411v9.259c0,.078.007.155,0,.229-.015.213-.068.278-.278.281-.475.006-.954,0-1.424,0-.08-.374-.108-9.176-.037-10.183" transform="translate(-1719.237 -1185.113)" fill="#fff"/>
      <path id="Trazado_898" data-name="Trazado 898" d="M1888.723,1275.95h1.693c.071.362.1,9.312.028,10.177-.5,0-1,.006-1.5,0a.221.221,0,0,1-.229-.235c-.006-.062,0-.123,0-.185v-9.537c0-.058.009-.121.015-.223" transform="translate(-1716.968 -1185.113)" fill="#fff"/>
      <path id="Trazado_899" data-name="Trazado 899" d="M1899.324,1272.233h1.684c.074.358.1,6.447.034,7.375h-1.69c-.071-.343-.1-6.4-.028-7.375" transform="translate(-1694.868 -1192.88)" fill="#fff"/>
      <path id="Trazado_900" data-name="Trazado 900" d="M1899.263,1273.034v-1.659c.325-.028.646-.012.964-.015s.611,0,.945,0c.056.556.012,1.087.028,1.662-.337.025-.658.009-.977.012s-.612,0-.961,0" transform="translate(-1694.911 -1194.707)" fill="#fff"/>
    </g>
  </g>
</svg>
