<svg xmlns="http://www.w3.org/2000/svg" xmlns:xlink="http://www.w3.org/1999/xlink" width="332" height="120" viewBox="0 0 332 120">
  <defs>
    <clipPath id="clip-IIP-logo-Footer">
      <rect width="332" height="120"/>
    </clipPath>
  </defs>
  <g id="IIP-logo-Footer" clip-path="url(#clip-IIP-logo-Footer)">
    <rect width="332" height="120" fill="transparent"/>
    <g id="Grupo_49" data-name="Grupo 49" transform="translate(-154 -436)">
      <g id="Grupo_31" data-name="Grupo 31" transform="translate(159 442)">
        <path id="Trazado_96" data-name="Trazado 96" d="M-766.574,2632.518a6.8,6.8,0,0,0-5.594,2.582h-.431l-.43-1.722-.43-.43h-3.012l-.43.43v29.26l.43.431h3.442l.43-.431v-10.327h.431a6.8,6.8,0,0,0,5.594,2.582c6.024,0,9.467-4.733,9.467-11.188S-760.55,2632.518-766.574,2632.518Zm-.43,18.5c-3.443,0-5.594-2.152-5.594-7.316s2.152-7.314,5.594-7.314,5.594,2.582,5.594,7.314S-763.561,2651.021-767,2651.021Z" transform="translate(904.561 -2551.771)" fill="#fff"/>
        <path id="Trazado_97" data-name="Trazado 97" d="M-655.482,2634.5l-.43.43v10.328c0,5.163-2.152,7.315-5.164,7.315-3.443,0-4.3-2.582-4.3-5.163v-12.48l-.43-.43h-3.443l-.43.43v12.48c0,4.733,2.151,9.036,8.175,9.036a6.454,6.454,0,0,0,5.164-2.582h.431l.43,1.721.43.431h3.013l.43-.431v-20.655l-.43-.43Z" transform="translate(820.575 -2553.326)" fill="#fff"/>
        <path id="Trazado_98" data-name="Trazado 98" d="M-637.314,2600.812l.861-.43,4.733-4.3v-.861l-.43-.431h-3.012l-.861.431-3.873,4.3v.861l.43.43Z" transform="translate(797.243 -2522.216)" fill="#fff"/>
        <path id="Trazado_99" data-name="Trazado 99" d="M-552.133,2602.963a6.8,6.8,0,0,0-5.594,2.582h-.43v-10.327l-.431-.43h-3.443l-.43.43v29.26l.43.431h3.013l.43-.431.431-1.721h.43a6.8,6.8,0,0,0,5.594,2.582c5.594,0,9.467-4.734,9.467-11.188C-542.666,2607.266-546.539,2602.963-552.133,2602.963Zm-.43,18.5c-3.442,0-5.594-2.151-5.594-7.315s2.151-7.315,5.594-7.315,5.594,2.582,5.594,7.315S-549.121,2621.466-552.563,2621.466Z" transform="translate(736.587 -2522.216)" fill="#fff"/>
        <path id="Trazado_100" data-name="Trazado 100" d="M-452.823,2594.787l-.43.431v29.26l.43.43h3.442l.431-.43v-29.26l-.431-.431Z" transform="translate(651.045 -2522.216)" fill="#fff"/>
        <path id="Trazado_101" data-name="Trazado 101" d="M-409.144,2634.5l-.43.43v20.655l.43.431h3.443l.43-.431v-20.655l-.43-.43Z" transform="translate(616.83 -2553.326)" fill="#fff"/>
        <path id="Trazado_102" data-name="Trazado 102" d="M-409.144,2598.759l-.43.43v3.442l.43.431h3.443l.43-.431v-3.442l-.43-.43Z" transform="translate(616.83 -2525.327)" fill="#fff"/>
        <path id="Trazado_103" data-name="Trazado 103" d="M-361.524,2636.39c3.442,0,4.733,1.72,5.163,3.442l.431.43h3.442l.431-.43c-.431-3.873-3.443-7.315-9.467-7.315-6.454,0-10.327,4.3-10.327,11.187s3.873,11.188,10.327,11.188c6.024,0,9.036-3.442,9.467-7.315l-.431-.43h-3.442l-.431.43c-.43,1.722-1.721,3.443-5.163,3.443-3.873,0-6.024-2.583-6.024-7.316S-365.4,2636.39-361.524,2636.39Z" transform="translate(587.282 -2551.771)" fill="#fff"/>
        <path id="Trazado_104" data-name="Trazado 104" d="M-263.778,2636.488l-.269.43v3.443l.269.43h8.87v3.518l-.355.355a17.765,17.765,0,0,0-3.873-.43c-5.594,0-9.467,2.152-9.467,6.885,0,4.3,2.582,6.885,7.315,6.885,4.3,0,6.024-2.582,6.024-2.582h.355v2.151l.43.43h3.443l.43-.43v-17.212h0v-3.443l-.269-.43Zm3.352,17.642c-2.582,0-3.873-.86-3.873-3.012s1.722-3.442,5.594-3.442a11.913,11.913,0,0,1,3.443.43l.355.356v2.166C-255.311,2652.758-257.354,2654.13-260.426,2654.13Z" transform="translate(506.406 -2554.881)" fill="#fff"/>
        <path id="Trazado_105" data-name="Trazado 105" d="M-773.028,2490.552l.43-.43v-20.655l-.43-.43h-3.442l-.43.43v20.655l.43.43Z" transform="translate(904.561 -2423.715)" fill="#fff"/>
        <path id="Trazado_106" data-name="Trazado 106" d="M-773.028,2437.6l.43-.43v-3.442l-.43-.431h-3.442l-.43.431v3.442l.43.43Z" transform="translate(904.561 -2395.716)" fill="#fff"/>
        <path id="Trazado_107" data-name="Trazado 107" d="M-514.408,2467.051c-6.454,0-10.327,4.3-10.327,11.188s3.873,11.188,10.327,11.188,10.328-4.3,10.328-11.188S-507.953,2467.051-514.408,2467.051Zm0,18.5c-3.873,0-6.024-2.582-6.024-7.315s2.152-7.316,6.024-7.316,6.024,2.583,6.024,7.316S-510.535,2485.553-514.408,2485.553Z" transform="translate(707.037 -2422.159)" fill="#fff"/>
        <path id="Trazado_108" data-name="Trazado 108" d="M-405.464,2490.121l7.315-17.642v-3.012l-.431-.43h-2.582l-.43.43-6.024,15.061h-.43l-6.024-15.061-.431-.43h-2.582l-.43.43v3.012l7.315,17.642.43.43h3.873Z" transform="translate(623.049 -2423.715)" fill="#fff"/>
        <path id="Trazado_109" data-name="Trazado 109" d="M-206.642,2470.923c3.443,0,4.733,1.721,5.164,3.443l.431.43h3.442l.431-.43c-.431-3.873-3.442-7.315-9.467-7.315-6.454,0-10.327,4.3-10.327,11.188s3.873,11.188,10.327,11.188c6.024,0,9.036-3.443,9.467-7.315l-.431-.431h-3.442l-.431.431c-.43,1.721-1.721,3.442-5.164,3.442-3.873,0-6.024-2.582-6.024-7.315S-210.515,2470.923-206.642,2470.923Z" transform="translate(465.962 -2422.159)" fill="#fff"/>
        <path id="Trazado_110" data-name="Trazado 110" d="M-107.333,2469.037l-.43.43v20.655l.43.43h3.443l.431-.43v-20.655l-.431-.43Z" transform="translate(380.42 -2423.715)" fill="#fff"/>
        <path id="Trazado_111" data-name="Trazado 111" d="M-107.333,2433.292l-.43.431v3.442l.43.43h3.443l.431-.43v-3.442l-.431-.431Z" transform="translate(380.42 -2395.716)" fill="#fff"/>
        <path id="Trazado_112" data-name="Trazado 112" d="M-59.713,2467.051c-6.454,0-10.327,4.3-10.327,11.188s3.873,11.188,10.327,11.188,10.328-4.3,10.328-11.188S-53.258,2467.051-59.713,2467.051Zm0,18.5c-3.873,0-6.024-2.582-6.024-7.315s2.152-7.316,6.024-7.316,6.024,2.583,6.024,7.316S-55.84,2485.553-59.713,2485.553Z" transform="translate(350.871 -2422.159)" fill="#fff"/>
        <path id="Trazado_113" data-name="Trazado 113" d="M-36.281,2434.915l.43.43H-33.7l.861-.43,4.733-4.3v-.861l-.43-.431h-3.012l-.861.431-3.873,4.3Z" transform="translate(324.428 -2392.605)" fill="#fff"/>
        <path id="Trazado_114" data-name="Trazado 114" d="M-730.1,2490.552l.43-.43V2473.34h10.224v16.782l.43.43h3.442l.43-.43V2472.91h0v-3.443l-.376-.43H-733.6l-.376.43h0v20.654l.43.43Z" transform="translate(870.936 -2423.715)" fill="#fff"/>
        <path id="Trazado_115" data-name="Trazado 115" d="M-611.8,2489.559h3.443l.43-.43v-17.212h0v-3.442l-.376-.43h-18.076l-.377.43h0v20.655l.43.43h3.442l.43-.43v-16.782h10.224v16.782Z" transform="translate(786.948 -2422.938)" fill="#fff"/>
        <path id="Trazado_116" data-name="Trazado 116" d="M61.215,2468.474l-.376-.43H42.762l-.377.43h0v20.655l.43.43h3.443l.43-.43v-16.782H56.912v16.782l.43.43h3.443l.43-.43v-17.212h0Z" transform="translate(262.807 -2422.938)" fill="#fff"/>
        <path id="Trazado_117" data-name="Trazado 117" d="M-311.521,2469.466v3.443l.269.43h8.87v3.518l-.355.355a17.775,17.775,0,0,0-3.873-.43c-5.594,0-9.467,2.151-9.467,6.885,0,4.3,2.582,6.885,7.315,6.885,4.3,0,6.024-2.582,6.024-2.582h.355v2.151l.43.431h3.442l.43-.431v-17.212h0v-3.443l-.269-.43h-12.9Zm3.62,17.212c-2.582,0-3.873-.861-3.873-3.012s1.722-3.443,5.594-3.443a11.9,11.9,0,0,1,3.443.431l.355.356v2.166C-302.786,2485.307-304.828,2486.679-307.9,2486.679Z" transform="translate(543.594 -2423.715)" fill="#fff"/>
        <path id="Trazado_118" data-name="Trazado 118" d="M-773.028,2325.086l.43-.43V2304l-.43-.43h-3.442l-.43.43v20.654l.43.43Z" transform="translate(904.561 -2294.104)" fill="#fff"/>
        <path id="Trazado_119" data-name="Trazado 119" d="M-622.49,2294.406a6.8,6.8,0,0,0,5.594-2.582h.43l.431,1.721.43.431h3.013l.43-.431v-29.26l-.43-.43h-3.442l-.431.43v10.328h-.43a6.8,6.8,0,0,0-5.594-2.582c-6.024,0-9.467,4.734-9.467,11.188S-628.514,2294.406-622.49,2294.406Zm.43-18.5c3.443,0,5.594,2.151,5.594,7.315s-2.151,7.315-5.594,7.315-5.594-2.582-5.594-7.315S-625.5,2275.9-622.06,2275.9Z" transform="translate(791.025 -2262.994)" fill="#fff"/>
        <path id="Trazado_120" data-name="Trazado 120" d="M-512.923,2272.129l.431-.431v-3.442l-.431-.43h-3.443l-.43.43v3.442l.43.431Z" transform="translate(700.818 -2266.105)" fill="#fff"/>
        <path id="Trazado_121" data-name="Trazado 121" d="M-512.923,2325.086l.431-.43V2304l-.431-.43h-3.443l-.43.43v20.654l.43.43Z" transform="translate(700.818 -2294.104)" fill="#fff"/>
        <path id="Trazado_122" data-name="Trazado 122" d="M-468.746,2323.961c6.024,0,9.037-3.442,9.467-7.315l-.43-.43h-3.443l-.431.43c-.43,1.721-1.721,3.443-5.164,3.443-3.873,0-6.024-2.582-6.024-7.315s2.152-7.315,6.024-7.315c3.443,0,4.733,1.722,5.164,3.443l.431.43h3.443l.43-.43c-.43-3.872-3.443-7.314-9.467-7.314-6.454,0-10.327,4.3-10.327,11.187S-475.2,2323.961-468.746,2323.961Z" transform="translate(671.27 -2292.549)" fill="#fff"/>
        <path id="Trazado_123" data-name="Trazado 123" d="M-365.5,2323.961c5.164,0,8.176-3.012,8.606-6.455l-.43-.43h-3.443l-.43.43c-.861,2.152-2.582,2.582-4.3,2.582-5.164,0-5.593-4.3-5.593-5.164l.43-.43h14.2l.43-.43v-1.291c0-6.024-3.012-11.187-9.9-11.187s-9.9,5.163-9.9,11.187C-375.823,2319.227-372.381,2323.961-365.5,2323.961Zm-.43-18.5c4.733,0,5.164,3.873,5.164,5.164l-.43.43h-9.467l-.43-.43C-371.09,2309.33-370.66,2305.458-365.926,2305.458Z" transform="translate(590.393 -2292.549)" fill="#fff"/>
        <path id="Trazado_124" data-name="Trazado 124" d="M-211.483,2294.406a6.8,6.8,0,0,0,5.594-2.582h.43l.431,1.721.43.431h3.012l.431-.431v-29.26l-.431-.43h-3.442l-.431.43v10.328h-.43a6.8,6.8,0,0,0-5.594-2.582c-6.024,0-9.467,4.734-9.467,11.188S-217.507,2294.406-211.483,2294.406Zm.43-18.5c3.443,0,5.594,2.151,5.594,7.315s-2.151,7.315-5.594,7.315-5.594-2.582-5.594-7.315S-214.5,2275.9-211.053,2275.9Z" transform="translate(469.08 -2262.994)" fill="#fff"/>
        <path id="Trazado_125" data-name="Trazado 125" d="M-101.416,2323.961c5.163,0,8.176-3.012,8.606-6.455l-.43-.43h-3.443l-.43.43c-.861,2.152-2.582,2.582-4.3,2.582-5.164,0-5.594-4.3-5.594-5.164l.43-.43h14.2l.431-.43v-1.291c0-6.024-3.012-11.187-9.9-11.187s-9.9,5.163-9.9,11.187C-111.743,2319.227-108.3,2323.961-101.416,2323.961Zm-.43-18.5c4.733,0,5.164,3.873,5.164,5.164l-.43.43h-9.467l-.43-.43C-107.01,2309.33-106.579,2305.458-101.846,2305.458Z" transform="translate(383.537 -2292.549)" fill="#fff"/>
        <path id="Trazado_126" data-name="Trazado 126" d="M-730.1,2325.086l.43-.43v-16.782h10.224v16.782l.43.43h3.442l.43-.43v-17.212h0V2304l-.376-.43H-733.6l-.376.43h0v20.655l.43.43Z" transform="translate(870.936 -2294.104)" fill="#fff"/>
        <path id="Trazado_127" data-name="Trazado 127" d="M-773.326,2265.908l.861-.43,4.733-4.3v-.861l-.43-.43h-3.012l-.861.43-3.873,4.3v.861l.43.43Z" transform="translate(903.783 -2259.885)" fill="#fff"/>
        <path id="Trazado_128" data-name="Trazado 128" d="M-1142.69,2483.592v-3.41h-1.569l-4.956,3.41Z" transform="translate(1196.198 -2432.445)" fill="#fff"/>
        <path id="Trazado_129" data-name="Trazado 129" d="M-1193.689,2514.194h16.162v-3.41h-11.206Z" transform="translate(1231.033 -2456.416)" fill="#fff"/>
        <g id="Grupo_29" data-name="Grupo 29" transform="translate(0 1.456)">
          <path id="Trazado_130" data-name="Trazado 130" d="M-1366.028,2266.6v3.273h8.721Z" transform="translate(1366.028 -2266.602)" fill="#fff"/>
          <path id="Trazado_131" data-name="Trazado 131" d="M-1348.726,2296.571h-17.3v3.41h26.39Z" transform="translate(1366.028 -2290.077)" fill="#fff"/>
          <path id="Trazado_132" data-name="Trazado 132" d="M-1326.464,2328.9l-4.592-1.723h-34.972v3.41h43.1A22.841,22.841,0,0,0-1326.464,2328.9Z" transform="translate(1366.028 -2314.047)" fill="#fff"/>
          <path id="Trazado_133" data-name="Trazado 133" d="M-1318.7,2357.774h-47.327v3.41h50.16A21.094,21.094,0,0,0-1318.7,2357.774Z" transform="translate(1366.028 -2338.017)" fill="#fff"/>
          <path id="Trazado_134" data-name="Trazado 134" d="M-1314.124,2388.376h-51.9v3.41h53.015A19.763,19.763,0,0,0-1314.124,2388.376Z" transform="translate(1366.028 -2361.989)" fill="#fff"/>
          <path id="Trazado_135" data-name="Trazado 135" d="M-1312.521,2420.091c0-.374-.015-.744-.035-1.113h-53.471v1.146a18.352,18.352,0,0,0,.142,2.264h53.365Z" transform="translate(1366.028 -2385.96)" fill="#fff"/>
          <path id="Trazado_136" data-name="Trazado 136" d="M-1309.474,2451.319v-1.739h-52.664a18.858,18.858,0,0,0,1.444,3.41h48.792Z" transform="translate(1362.981 -2409.93)" fill="#fff"/>
          <path id="Trazado_137" data-name="Trazado 137" d="M-1303.367,2480.182h-41.9a20.329,20.329,0,0,0,3.691,3.411h33.252Z" transform="translate(1349.765 -2433.901)" fill="#fff"/>
          <path id="Trazado_138" data-name="Trazado 138" d="M-1282.818,2510.784h-23.912l4.956,3.41h14Z" transform="translate(1319.579 -2457.872)" fill="#fff"/>
          <path id="Trazado_139" data-name="Trazado 139" d="M-1257.619,2541.386h-4.638l2.319,1.6Z" transform="translate(1284.744 -2481.843)" fill="#fff"/>
        </g>
        <path id="Trazado_140" data-name="Trazado 140" d="M-1212.362,2541.386H-1233.2l-4.956,3.41h25.8Z" transform="translate(1265.869 -2480.387)" fill="#fff"/>
        <path id="Trazado_141" data-name="Trazado 141" d="M-1247.2,2571.989h-30.48l-4.956,3.41h35.436Z" transform="translate(1300.704 -2504.358)" fill="#fff"/>
        <path id="Trazado_142" data-name="Trazado 142" d="M-991.351,2575.4l-4.956-3.41h-3.564l-4.956,3.41Z" transform="translate(1083.097 -2504.358)" fill="#fff"/>
        <path id="Trazado_143" data-name="Trazado 143" d="M-1267.718,2602.59h-39a15.318,15.318,0,0,0-2.117,3.41h41.113Z" transform="translate(1321.225 -2528.329)" fill="#fff"/>
        <path id="Trazado_144" data-name="Trazado 144" d="M-1049.3,2606h28.789a15.341,15.341,0,0,0-2.117-3.41h-21.716Z" transform="translate(1117.933 -2528.329)" fill="#fff"/>
        <path id="Trazado_145" data-name="Trazado 145" d="M-1272.477,2633.192h-42.106a14.529,14.529,0,0,0-.275,2.806v.6h42.4c.007-.192.022-.383.022-.577v-2.833Z" transform="translate(1325.947 -2552.299)" fill="#fff"/>
        <path id="Trazado_146" data-name="Trazado 146" d="M-1093.772,2636.6h39.732v-.6a14.539,14.539,0,0,0-.275-2.806h-34.5Z" transform="translate(1152.768 -2552.299)" fill="#fff"/>
        <g id="Grupo_30" data-name="Grupo 30" transform="translate(56.309 1.456)">
          <path id="Trazado_147" data-name="Trazado 147" d="M-899.491,2269.875h8.721V2266.6Z" transform="translate(944.276 -2266.602)" fill="#fff"/>
          <path id="Trazado_148" data-name="Trazado 148" d="M-981.029,2299.98h26.39v-3.41h-17.3Z" transform="translate(1008.146 -2290.077)" fill="#fff"/>
          <path id="Trazado_149" data-name="Trazado 149" d="M-1054.609,2328.9a22.868,22.868,0,0,0-3.537,1.687h43.1v-3.41h-34.972Z" transform="translate(1068.552 -2314.047)" fill="#fff"/>
          <path id="Trazado_150" data-name="Trazado 150" d="M-1090.726,2361.184h50.161v-3.41h-47.327A21.068,21.068,0,0,0-1090.726,2361.184Z" transform="translate(1094.073 -2338.017)" fill="#fff"/>
          <path id="Trazado_151" data-name="Trazado 151" d="M-1103.9,2391.786h53.016v-3.41h-51.9A19.775,19.775,0,0,0-1103.9,2391.786Z" transform="translate(1104.394 -2361.989)" fill="#fff"/>
          <path id="Trazado_152" data-name="Trazado 152" d="M-1106.17,2420.091v2.3h53.365a18.328,18.328,0,0,0,.142-2.264v-1.146h-53.471C-1106.156,2419.347-1106.17,2419.718-1106.17,2420.091Z" transform="translate(1106.17 -2385.96)" fill="#fff"/>
          <path id="Trazado_153" data-name="Trazado 153" d="M-1106.17,2451.324v1.666h51.221a18.857,18.857,0,0,0,1.443-3.41h-52.664Z" transform="translate(1106.17 -2409.93)" fill="#fff"/>
          <path id="Trazado_154" data-name="Trazado 154" d="M-1106.17,2483.593h45.317a20.3,20.3,0,0,0,3.692-3.411h-49.008Z" transform="translate(1106.17 -2433.901)" fill="#fff"/>
          <path id="Trazado_155" data-name="Trazado 155" d="M-1106.17,2514.194h35.7l4.956-3.41h-40.657Z" transform="translate(1106.17 -2457.872)" fill="#fff"/>
          <path id="Trazado_156" data-name="Trazado 156" d="M-1106.17,2544.8h26.064l2.634-1.813,2.322-1.6h-31.02Z" transform="translate(1106.17 -2481.843)" fill="#fff"/>
          <path id="Trazado_157" data-name="Trazado 157" d="M-1106.17,2575.4h16.427l4.956-3.41h-21.384Z" transform="translate(1106.17 -2505.813)" fill="#fff"/>
          <path id="Trazado_158" data-name="Trazado 158" d="M-1099.379,2606l4.956-3.41h-11.747V2606Z" transform="translate(1106.17 -2529.784)" fill="#fff"/>
          <path id="Trazado_159" data-name="Trazado 159" d="M-1105.858,2634.523l1.934-1.332H-1106C-1105.966,2633.64-1105.924,2634.083-1105.858,2634.523Z" transform="translate(1106.033 -2553.755)" fill="#fff"/>
        </g>
        <path id="Trazado_160" data-name="Trazado 160" d="M-1272.926,2663.794h-41.933v3.41h40.633A15.76,15.76,0,0,0-1272.926,2663.794Z" transform="translate(1325.947 -2576.27)" fill="#fff"/>
        <path id="Trazado_161" data-name="Trazado 161" d="M-1102.627,2667.2h40.633v-3.41h-41.933A15.754,15.754,0,0,0-1102.627,2667.2Z" transform="translate(1160.723 -2576.27)" fill="#fff"/>
        <path id="Trazado_162" data-name="Trazado 162" d="M-1276.433,2694.4h-38.426v3.41h34.348A17.241,17.241,0,0,0-1276.433,2694.4Z" transform="translate(1325.947 -2600.241)" fill="#fff"/>
        <path id="Trazado_163" data-name="Trazado 163" d="M-1083.664,2697.807h34.348v-3.41h-38.425A17.242,17.242,0,0,0-1083.664,2697.807Z" transform="translate(1148.044 -2600.241)" fill="#fff"/>
        <path id="Trazado_164" data-name="Trazado 164" d="M-1288.222,2725h-26.637v3.41h17.551Z" transform="translate(1325.947 -2624.212)" fill="#fff"/>
        <path id="Trazado_165" data-name="Trazado 165" d="M-1024.255,2728.409h17.551V2725h-26.638Z" transform="translate(1105.433 -2624.212)" fill="#fff"/>
        <path id="Trazado_166" data-name="Trazado 166" d="M-1305.89,2755.6h-8.969v3.365Z" transform="translate(1325.947 -2648.183)" fill="#fff"/>
        <path id="Trazado_167" data-name="Trazado 167" d="M-942.834,2758.966V2755.6H-951.8Z" transform="translate(1041.563 -2648.183)" fill="#fff"/>
      </g>
    </g>
  </g>
</svg>
