<svg xmlns="http://www.w3.org/2000/svg" width="494.891" height="169.99" viewBox="0 0 494.891 169.99">
<style type="text/css">
</style>
  <g id="Grupo_31" data-name="Grupo 31" transform="translate(0 0)">
    <path id="Trazado_96" data-name="Trazado 96" d="M-761.128,2632.517a10.387,10.387,0,0,0-8.543,3.943h-.658l-.657-2.63-.657-.657h-4.6l-.657.657v44.69l.657.658h5.258l.657-.658v-15.772h.658a10.387,10.387,0,0,0,8.543,3.943c9.2,0,14.459-7.229,14.459-17.087S-751.927,2632.517-761.128,2632.517Zm-.657,28.26c-5.258,0-8.544-3.287-8.544-11.173s3.286-11.173,8.544-11.173,8.543,3.943,8.543,11.173S-756.527,2660.778-761.785,2660.778Z" transform="translate(971.88 -2509.189)" fill="#fb7043"/>
    <path id="Trazado_97" data-name="Trazado 97" d="M-647.994,2634.5l-.657.657v15.774c0,7.887-3.286,11.173-7.886,11.173-5.258,0-6.573-3.944-6.573-7.887v-19.06l-.657-.657h-5.258l-.657.657v19.06c0,7.23,3.285,13.8,12.486,13.8a9.857,9.857,0,0,0,7.887-3.943h.658l.657,2.628.657.658h4.6l.657-.658v-31.547l-.657-.657Z" transform="translate(900.146 -2510.518)" fill="#fb7043"/>
    <path id="Trazado_98" data-name="Trazado 98" d="M-635.952,2603.988l1.315-.656,7.228-6.572v-1.314l-.657-.658h-4.6l-1.315.658-5.915,6.571v1.315l.657.656Z" transform="translate(880.218 -2483.947)" fill="#fb7043"/>
    <path id="Trazado_99" data-name="Trazado 99" d="M-546.687,2607.274a10.388,10.388,0,0,0-8.544,3.943h-.657v-15.773l-.658-.657H-561.8l-.657.657v44.69l.657.658h4.6l.657-.658.658-2.628h.657a10.387,10.387,0,0,0,8.544,3.944c8.544,0,14.459-7.23,14.459-17.088C-532.228,2613.845-538.143,2607.274-546.687,2607.274Zm-.657,28.259c-5.258,0-8.543-3.285-8.543-11.172s3.286-11.173,8.543-11.173,8.543,3.943,8.543,11.173S-542.086,2635.533-547.344,2635.533Z" transform="translate(828.411 -2483.947)" fill="#fb7043"/>
    <path id="Trazado_100" data-name="Trazado 100" d="M-452.6,2594.787l-.657.658v44.69l.657.657h5.258l.658-.657v-44.69l-.658-.658Z" transform="translate(755.348 -2483.947)" fill="#fb7043"/>
    <path id="Trazado_101" data-name="Trazado 101" d="M-408.917,2634.5l-.657.657v31.547l.657.658h5.258l.657-.658v-31.547l-.657-.657Z" transform="translate(726.124 -2510.518)" fill="#fb7043"/>
    <path id="Trazado_102" data-name="Trazado 102" d="M-408.917,2598.758l-.657.657v5.257l.657.658h5.258l.657-.658v-5.257l-.657-.657Z" transform="translate(726.124 -2486.604)" fill="#fb7043"/>
    <path id="Trazado_103" data-name="Trazado 103" d="M-356.078,2638.432c5.258,0,7.229,2.628,7.886,5.257l.658.657h5.257l.658-.657c-.658-5.915-5.258-11.172-14.459-11.172-9.858,0-15.773,6.571-15.773,17.087s5.915,17.087,15.773,17.087c9.2,0,13.8-5.257,14.459-11.173l-.658-.657h-5.257l-.658.657c-.657,2.629-2.628,5.259-7.886,5.259-5.915,0-9.2-3.944-9.2-11.173S-361.993,2638.432-356.078,2638.432Z" transform="translate(700.886 -2509.189)" fill="#fb7043"/>
    <path id="Trazado_104" data-name="Trazado 104" d="M-261.233,2636.488l-.411.657v5.258l.411.656h13.548v5.374l-.542.542a27.125,27.125,0,0,0-5.915-.657c-8.544,0-14.459,3.285-14.459,10.515,0,6.572,3.943,10.516,11.173,10.516,6.572,0,9.2-3.943,9.2-3.943h.542v3.286l.657.657h5.258l.657-.657V2642.4h0v-5.258l-.41-.657Zm5.119,26.945c-3.943,0-5.916-1.314-5.916-4.6s2.63-5.258,8.544-5.258a18.2,18.2,0,0,1,5.258.657l.542.543v3.308C-248.3,2661.338-251.422,2663.433-256.114,2663.433Z" transform="translate(631.809 -2511.847)" fill="#fb7043"/>
    <path id="Trazado_105" data-name="Trazado 105" d="M-770.986,2501.9l.657-.657v-31.547l-.657-.657h-5.258l-.657.657v31.547l.657.657Z" transform="translate(971.88 -2399.815)" fill="#fb7043"/>
    <path id="Trazado_106" data-name="Trazado 106" d="M-770.986,2439.864l.657-.657v-5.258l-.657-.657h-5.258l-.657.657v5.258l.657.657Z" transform="translate(971.88 -2375.901)" fill="#fb7043"/>
    <path id="Trazado_107" data-name="Trazado 107" d="M-508.962,2467.051c-9.858,0-15.773,6.573-15.773,17.088s5.915,17.087,15.773,17.087,15.774-6.572,15.774-17.087S-499.1,2467.051-508.962,2467.051Zm0,28.26c-5.915,0-9.2-3.944-9.2-11.172s3.286-11.174,9.2-11.174,9.2,3.944,9.2,11.174S-503.047,2495.31-508.962,2495.31Z" transform="translate(803.171 -2398.486)" fill="#fb7043"/>
    <path id="Trazado_108" data-name="Trazado 108" d="M-399.111,2501.24l11.173-26.946v-4.6l-.658-.657h-3.943l-.657.657-9.2,23h-.657l-9.2-23-.658-.657h-3.943l-.657.657v4.6l11.173,26.946.657.657h5.915Z" transform="translate(731.436 -2399.815)" fill="#fb7043"/>
    <path id="Trazado_109" data-name="Trazado 109" d="M-201.2,2472.965c5.258,0,7.23,2.63,7.886,5.259l.658.656h5.257l.658-.656c-.658-5.916-5.258-11.173-14.459-11.173-9.858,0-15.773,6.573-15.773,17.088s5.915,17.087,15.773,17.087c9.2,0,13.8-5.257,14.459-11.171l-.658-.659h-5.257l-.658.659c-.657,2.628-2.628,5.256-7.886,5.256-5.915,0-9.2-3.944-9.2-11.172S-207.111,2472.965-201.2,2472.965Z" transform="translate(597.264 -2398.486)" fill="#fb7043"/>
    <path id="Trazado_110" data-name="Trazado 110" d="M-107.106,2469.037l-.657.657v31.547l.657.657h5.258l.658-.657v-31.547l-.658-.657Z" transform="translate(524.201 -2399.815)" fill="#fb7043"/>
    <path id="Trazado_111" data-name="Trazado 111" d="M-107.106,2433.292l-.657.657v5.258l.657.657h5.258l.658-.657v-5.258l-.658-.657Z" transform="translate(524.201 -2375.901)" fill="#fb7043"/>
    <path id="Trazado_112" data-name="Trazado 112" d="M-54.267,2467.051c-9.858,0-15.773,6.573-15.773,17.088s5.915,17.087,15.773,17.087,15.774-6.572,15.774-17.087S-44.409,2467.051-54.267,2467.051Zm0,28.26c-5.915,0-9.2-3.944-9.2-11.172s3.286-11.174,9.2-11.174,9.2,3.944,9.2,11.174S-48.352,2495.31-54.267,2495.31Z" transform="translate(498.963 -2398.486)" fill="#fb7043"/>
    <path id="Trazado_113" data-name="Trazado 113" d="M-36.281,2437.864l.657.657h3.286l1.315-.657,7.229-6.571v-1.314l-.657-.658h-4.6l-1.315.658-5.915,6.572Z" transform="translate(476.377 -2373.243)" fill="#fb7043"/>
    <path id="Trazado_114" data-name="Trazado 114" d="M-728.059,2501.9l.657-.657v-25.632h15.615v25.632l.657.657h5.258l.657-.657v-26.288h0v-5.258l-.575-.657H-733.4l-.575.657h0v31.547l.657.657Z" transform="translate(943.16 -2399.815)" fill="#fb7043"/>
    <path id="Trazado_115" data-name="Trazado 115" d="M-603.908,2500.9h5.258l.657-.657v-26.288h0V2468.7l-.575-.657h-27.609l-.575.657h0v31.546l.657.657h5.258l.657-.657v-25.631h15.615v25.631Z" transform="translate(871.425 -2399.15)" fill="#fb7043"/>
    <path id="Trazado_116" data-name="Trazado 116" d="M71.145,2468.7l-.575-.657H42.961l-.575.657h0v31.546l.657.657H48.3l.657-.657v-25.631H64.573v25.631l.657.657h5.258l.657-.657v-26.288h0Z" transform="translate(423.746 -2399.15)" fill="#fb7043"/>
    <path id="Trazado_117" data-name="Trazado 117" d="M-309.119,2469.693v5.258l.411.657h13.548v5.373l-.543.542a27.164,27.164,0,0,0-5.915-.656c-8.544,0-14.459,3.285-14.459,10.516,0,6.571,3.943,10.515,11.173,10.515,6.572,0,9.2-3.944,9.2-3.944h.543v3.286l.657.658h5.258l.657-.658v-26.289h0v-5.258l-.41-.657h-19.71Zm5.529,26.289c-3.943,0-5.916-1.315-5.916-4.6s2.63-5.259,8.544-5.259a18.175,18.175,0,0,1,5.258.658l.543.543v3.307C-295.776,2493.886-298.9,2495.982-303.589,2495.982Z" transform="translate(663.571 -2399.815)" fill="#fb7043"/>
    <path id="Trazado_118" data-name="Trazado 118" d="M-770.986,2336.431l.657-.658v-31.546l-.657-.657h-5.258l-.657.657v31.546l.657.658Z" transform="translate(971.88 -2289.112)" fill="#fb7043"/>
    <path id="Trazado_119" data-name="Trazado 119" d="M-617.5,2310.516a10.387,10.387,0,0,0,8.544-3.943h.657l.658,2.628.657.659h4.6l.657-.659v-44.69l-.657-.656h-5.258l-.658.656v15.774h-.657a10.387,10.387,0,0,0-8.544-3.944c-9.2,0-14.459,7.23-14.459,17.088S-626.7,2310.516-617.5,2310.516Zm.657-28.26c5.258,0,8.544,3.286,8.544,11.173s-3.286,11.172-8.544,11.172-8.544-3.944-8.544-11.172S-622.1,2282.256-616.841,2282.256Z" transform="translate(874.907 -2262.54)" fill="#fb7043"/>
    <path id="Trazado_120" data-name="Trazado 120" d="M-510.881,2274.4l.658-.658v-5.257l-.658-.658h-5.258l-.657.658v5.257l.657.658Z" transform="translate(797.859 -2265.198)" fill="#fb7043"/>
    <path id="Trazado_121" data-name="Trazado 121" d="M-510.881,2336.431l.658-.658v-31.546l-.658-.657h-5.258l-.657.657v31.546l.657.658Z" transform="translate(797.859 -2289.112)" fill="#fb7043"/>
    <path id="Trazado_122" data-name="Trazado 122" d="M-463.3,2335.76c9.2,0,13.8-5.257,14.459-11.173l-.657-.657h-5.258l-.658.657c-.657,2.629-2.628,5.258-7.886,5.258-5.915,0-9.2-3.944-9.2-11.172s3.286-11.173,9.2-11.173c5.258,0,7.23,2.63,7.886,5.258l.658.657h5.258l.657-.657c-.657-5.914-5.258-11.172-14.459-11.172-9.858,0-15.773,6.572-15.773,17.087S-473.158,2335.76-463.3,2335.76Z" transform="translate(772.622 -2287.783)" fill="#fb7043"/>
    <path id="Trazado_123" data-name="Trazado 123" d="M-360.05,2335.76c7.886,0,12.487-4.6,13.144-9.858l-.657-.657h-5.258l-.657.657c-1.315,3.287-3.943,3.944-6.573,3.944-7.887,0-8.543-6.573-8.543-7.887l.657-.656h21.689l.657-.658v-1.971c0-9.2-4.6-17.087-15.116-17.087s-15.116,7.886-15.116,17.087C-375.823,2328.53-370.565,2335.76-360.05,2335.76Zm-.657-28.26c7.229,0,7.886,5.915,7.886,7.887l-.657.657h-14.459l-.657-.657C-368.593,2313.414-367.937,2307.5-360.707,2307.5Z" transform="translate(703.543 -2287.783)" fill="#fb7043"/>
    <path id="Trazado_124" data-name="Trazado 124" d="M-206.491,2310.516a10.387,10.387,0,0,0,8.543-3.943h.657l.658,2.628.657.659h4.6l.658-.659v-44.69l-.658-.656h-5.257l-.658.656v15.774h-.657a10.386,10.386,0,0,0-8.543-3.944c-9.2,0-14.459,7.23-14.459,17.088S-215.692,2310.516-206.491,2310.516Zm.657-28.26c5.258,0,8.543,3.286,8.543,11.173s-3.285,11.172-8.543,11.172-8.544-3.944-8.544-11.172S-211.092,2282.256-205.834,2282.256Z" transform="translate(599.928 -2262.54)" fill="#fb7043"/>
    <path id="Trazado_125" data-name="Trazado 125" d="M-95.97,2335.76c7.886,0,12.488-4.6,13.144-9.858l-.657-.657H-88.74l-.657.657c-1.315,3.287-3.943,3.944-6.573,3.944-7.886,0-8.543-6.573-8.543-7.887l.657-.656h21.688l.658-.658v-1.971c0-9.2-4.6-17.087-15.116-17.087s-15.116,7.886-15.116,17.087C-111.743,2328.53-106.485,2335.76-95.97,2335.76Zm-.657-28.26c7.23,0,7.886,5.915,7.886,7.887l-.657.657h-14.459l-.657-.657C-104.513,2313.414-103.856,2307.5-96.627,2307.5Z" transform="translate(526.864 -2287.783)" fill="#fb7043"/>
    <path id="Trazado_126" data-name="Trazado 126" d="M-728.059,2336.432l.657-.658v-25.632h15.615v25.632l.657.658h5.258l.657-.658v-26.288h0v-5.258l-.575-.657H-733.4l-.575.657h0v31.546l.657.658Z" transform="translate(943.16 -2289.112)" fill="#fb7043"/>
    <path id="Trazado_127" data-name="Trazado 127" d="M-771.965,2269.085l1.315-.657,7.229-6.572v-1.314l-.657-.658h-4.6l-1.314.658-5.915,6.571v1.315l.657.657Z" transform="translate(971.216 -2259.884)" fill="#fb7043"/>
    <path id="Trazado_128" data-name="Trazado 128" d="M-1139.249,2485.391v-5.208h-2.4l-7.57,5.208Z" transform="translate(1220.972 -2407.272)" fill="#fb7043"/>
    <path id="Trazado_129" data-name="Trazado 129" d="M-1193.688,2515.993H-1169v-5.209h-17.115Z" transform="translate(1250.726 -2427.745)" fill="#fb7043"/>
    <g id="Grupo_29" data-name="Grupo 29" transform="translate(0 2.223)">
      <path id="Trazado_130" data-name="Trazado 130" d="M-1366.028,2266.6v5h13.32Z" transform="translate(1366.028 -2266.601)" fill="#fb7043"/>
      <path id="Trazado_131" data-name="Trazado 131" d="M-1339.6,2296.571h-26.427v5.208h40.306Z" transform="translate(1366.028 -2286.652)" fill="#fb7043"/>
      <path id="Trazado_132" data-name="Trazado 132" d="M-1305.6,2329.8l-7.013-2.632h-53.414v5.208h65.829A34.848,34.848,0,0,0-1305.6,2329.8Z" transform="translate(1366.028 -2307.125)" fill="#fb7043"/>
      <path id="Trazado_133" data-name="Trazado 133" d="M-1293.744,2357.774h-72.284v5.208h76.612A32.224,32.224,0,0,0-1293.744,2357.774Z" transform="translate(1366.028 -2327.599)" fill="#fb7043"/>
      <path id="Trazado_134" data-name="Trazado 134" d="M-1286.753,2388.376h-79.275v5.208h80.972A30.18,30.18,0,0,0-1286.753,2388.376Z" transform="translate(1366.028 -2348.073)" fill="#fb7043"/>
      <path id="Trazado_135" data-name="Trazado 135" d="M-1284.3,2420.678c0-.57-.022-1.136-.054-1.7h-81.669v1.75a27.967,27.967,0,0,0,.217,3.458h81.506Z" transform="translate(1366.028 -2368.547)" fill="#fb7043"/>
      <path id="Trazado_136" data-name="Trazado 136" d="M-1281.7,2452.236v-2.656h-80.436a28.773,28.773,0,0,0,2.205,5.208h74.522Z" transform="translate(1363.425 -2389.021)" fill="#fb7043"/>
      <path id="Trazado_137" data-name="Trazado 137" d="M-1281.272,2480.181h-63.994a30.981,30.981,0,0,0,5.638,5.209h50.786Z" transform="translate(1352.138 -2409.494)" fill="#fb7043"/>
      <path id="Trazado_138" data-name="Trazado 138" d="M-1270.208,2510.784h-36.521l7.57,5.209h21.382Z" transform="translate(1326.355 -2429.969)" fill="#fb7043"/>
      <path id="Trazado_139" data-name="Trazado 139" d="M-1255.173,2541.386h-7.084l3.542,2.437Z" transform="translate(1296.601 -2450.442)" fill="#fb7043"/>
    </g>
    <path id="Trazado_140" data-name="Trazado 140" d="M-1198.757,2541.386h-31.834l-7.57,5.209h39.4Z" transform="translate(1280.48 -2448.219)" fill="#fb7043"/>
    <path id="Trazado_141" data-name="Trazado 141" d="M-1228.51,2571.988h-46.553l-7.569,5.208h54.122Z" transform="translate(1310.233 -2468.694)" fill="#fb7043"/>
    <path id="Trazado_142" data-name="Trazado 142" d="M-984.245,2577.2l-7.57-5.208h-5.443l-7.57,5.208Z" transform="translate(1124.371 -2468.694)" fill="#fb7043"/>
    <path id="Trazado_143" data-name="Trazado 143" d="M-1246.037,2602.59H-1305.6a23.422,23.422,0,0,0-3.234,5.208h62.792Z" transform="translate(1327.76 -2489.168)" fill="#fb7043"/>
    <path id="Trazado_144" data-name="Trazado 144" d="M-1049.3,2607.8h43.971a23.43,23.43,0,0,0-3.234-5.208h-33.167Z" transform="translate(1154.125 -2489.168)" fill="#fb7043"/>
    <path id="Trazado_145" data-name="Trazado 145" d="M-1250.128,2633.192h-64.31a22.182,22.182,0,0,0-.421,4.286v.922h64.754c.011-.294.034-.586.034-.882v-4.327Z" transform="translate(1331.794 -2509.642)" fill="#fb7043"/>
    <path id="Trazado_146" data-name="Trazado 146" d="M-1093.772,2638.4h60.685v-.922a22.24,22.24,0,0,0-.42-4.286H-1086.2Z" transform="translate(1183.878 -2509.642)" fill="#fb7043"/>
    <g id="Grupo_30" data-name="Grupo 30" transform="translate(86.003 2.223)">
      <path id="Trazado_147" data-name="Trazado 147" d="M-899.491,2271.6h13.32v-5Z" transform="translate(967.894 -2266.601)" fill="#fb7043"/>
      <path id="Trazado_148" data-name="Trazado 148" d="M-981.029,2301.778h40.307v-5.208h-26.428Z" transform="translate(1022.446 -2286.652)" fill="#fb7043"/>
      <path id="Trazado_149" data-name="Trazado 149" d="M-1052.744,2329.8a34.882,34.882,0,0,0-5.4,2.576h65.829v-5.208h-53.414Z" transform="translate(1074.04 -2307.125)" fill="#fb7043"/>
      <path id="Trazado_150" data-name="Trazado 150" d="M-1090.726,2362.982h76.612v-5.208H-1086.4A32.172,32.172,0,0,0-1090.726,2362.982Z" transform="translate(1095.838 -2327.599)" fill="#fb7043"/>
      <path id="Trazado_151" data-name="Trazado 151" d="M-1103.9,2393.584h80.973v-5.208h-79.276A30.18,30.18,0,0,0-1103.9,2393.584Z" transform="translate(1104.653 -2348.073)" fill="#fb7043"/>
      <path id="Trazado_152" data-name="Trazado 152" d="M-1106.17,2420.678v3.509h81.507a27.92,27.92,0,0,0,.217-3.458v-1.75h-81.669C-1106.148,2419.542-1106.17,2420.108-1106.17,2420.678Z" transform="translate(1106.17 -2368.547)" fill="#fb7043"/>
      <path id="Trazado_153" data-name="Trazado 153" d="M-1106.17,2452.244v2.545h78.231a28.856,28.856,0,0,0,2.2-5.208h-80.436Z" transform="translate(1106.17 -2389.021)" fill="#fb7043"/>
      <path id="Trazado_154" data-name="Trazado 154" d="M-1106.17,2485.391h69.213a30.952,30.952,0,0,0,5.639-5.209h-74.852Z" transform="translate(1106.17 -2409.494)" fill="#fb7043"/>
      <path id="Trazado_155" data-name="Trazado 155" d="M-1106.169,2515.993h54.527l7.57-5.209h-62.1Z" transform="translate(1106.17 -2429.969)" fill="#fb7043"/>
      <path id="Trazado_156" data-name="Trazado 156" d="M-1106.169,2546.595h39.809l4.023-2.769,3.547-2.44h-47.378Z" transform="translate(1106.17 -2450.442)" fill="#fb7043"/>
      <path id="Trazado_157" data-name="Trazado 157" d="M-1106.169,2577.2h25.09l7.57-5.208h-32.66Z" transform="translate(1106.17 -2470.917)" fill="#fb7043"/>
      <path id="Trazado_158" data-name="Trazado 158" d="M-1095.8,2607.8l7.569-5.208h-17.941v5.208Z" transform="translate(1106.17 -2491.39)" fill="#fb7043"/>
      <path id="Trazado_159" data-name="Trazado 159" d="M-1105.785,2635.226l2.954-2.034H-1106C-1105.951,2633.876-1105.886,2634.554-1105.785,2635.226Z" transform="translate(1106.053 -2511.865)" fill="#fb7043"/>
    </g>
    <path id="Trazado_160" data-name="Trazado 160" d="M-1250.813,2663.794h-64.046V2669h62.061A24.068,24.068,0,0,0-1250.813,2663.794Z" transform="translate(1331.794 -2530.115)" fill="#fb7043"/>
    <path id="Trazado_161" data-name="Trazado 161" d="M-1101.941,2669h62.06v-5.208h-64.045A24.082,24.082,0,0,0-1101.941,2669Z" transform="translate(1190.673 -2530.115)" fill="#fb7043"/>
    <path id="Trazado_162" data-name="Trazado 162" d="M-1256.17,2694.4h-58.689v5.209h52.461A26.339,26.339,0,0,0-1256.17,2694.4Z" transform="translate(1331.794 -2550.589)" fill="#fb7043"/>
    <path id="Trazado_163" data-name="Trazado 163" d="M-1081.513,2699.605h52.461V2694.4h-58.688A26.34,26.34,0,0,0-1081.513,2699.605Z" transform="translate(1179.843 -2550.589)" fill="#fb7043"/>
    <path id="Trazado_164" data-name="Trazado 164" d="M-1274.175,2725h-40.684v5.208h26.805Z" transform="translate(1331.794 -2571.063)" fill="#fb7043"/>
    <path id="Trazado_165" data-name="Trazado 165" d="M-1019.462,2730.207h26.805V2725h-40.685Z" transform="translate(1143.448 -2571.063)" fill="#fb7043"/>
    <path id="Trazado_166" data-name="Trazado 166" d="M-1301.161,2755.6h-13.7v5.141Z" transform="translate(1331.794 -2591.537)" fill="#fb7043"/>
    <path id="Trazado_167" data-name="Trazado 167" d="M-938.1,2760.741V2755.6h-13.7Z" transform="translate(1088.896 -2591.537)" fill="#fb7043"/>
  </g>
</svg>
