<svg xmlns="http://www.w3.org/2000/svg" xmlns:xlink="http://www.w3.org/1999/xlink" width="239" height="87" viewBox="0 0 239 87">
  <defs>
    <clipPath id="clip-IIP-logo-Header">
      <rect width="239" height="87"/>
    </clipPath>
  </defs>
  <g id="IIP-logo-Header" clip-path="url(#clip-IIP-logo-Header)">
    <rect width="239" height="87" fill="transparent"/>
    <g id="Grupo_1474" data-name="Grupo 1474" transform="translate(3.11 3.339)">
      <g id="Grupo_31" data-name="Grupo 31" transform="translate(0 0)">
        <path id="Trazado_96" data-name="Trazado 96" d="M-769.509,2632.517a4.867,4.867,0,0,0-4,1.848h-.308l-.308-1.232-.308-.308h-2.156l-.308.308v20.943l.308.308h2.464l.308-.308v-7.391h.308a4.867,4.867,0,0,0,4,1.848c4.312,0,6.776-3.388,6.776-8.007S-765.2,2632.517-769.509,2632.517Zm-.308,13.243c-2.464,0-4-1.54-4-5.236s1.54-5.236,4-5.236,4,1.848,4,5.236S-767.353,2645.761-769.817,2645.761Z" transform="translate(868.272 -2574.723)" fill="#767373"/>
        <path id="Trazado_97" data-name="Trazado 97" d="M-659.519,2634.5l-.308.308v7.392c0,3.7-1.54,5.236-3.7,5.236-2.464,0-3.08-1.848-3.08-3.7v-8.932l-.308-.308h-2.464l-.308.308v8.932c0,3.388,1.54,6.468,5.851,6.468a4.62,4.62,0,0,0,3.7-1.848h.308l.308,1.231.308.308h2.156l.308-.308v-14.784l-.308-.308Z" transform="translate(777.683 -2576.401)" fill="#767373"/>
        <path id="Trazado_98" data-name="Trazado 98" d="M-638.048,2599.1l.616-.308,3.387-3.08v-.616l-.308-.308h-2.156l-.616.308-2.772,3.079v.616l.308.308Z" transform="translate(752.516 -2542.845)" fill="#767373"/>
        <path id="Trazado_99" data-name="Trazado 99" d="M-555.068,2600.639a4.868,4.868,0,0,0-4,1.848h-.308V2595.1l-.308-.308h-2.464l-.308.308v20.943l.308.308H-560l.308-.308.308-1.232h.308a4.867,4.867,0,0,0,4,1.848c4,0,6.776-3.388,6.776-8.008C-548.293,2603.718-551.064,2600.639-555.068,2600.639Zm-.308,13.243c-2.464,0-4-1.539-4-5.235s1.54-5.236,4-5.236,4,1.848,4,5.236S-552.912,2613.882-555.376,2613.882Z" transform="translate(687.09 -2542.845)" fill="#767373"/>
        <path id="Trazado_100" data-name="Trazado 100" d="M-452.946,2594.787l-.308.308v20.943l.308.308h2.464l.308-.308V2595.1l-.308-.308Z" transform="translate(594.822 -2542.845)" fill="#767373"/>
        <path id="Trazado_101" data-name="Trazado 101" d="M-409.266,2634.5l-.308.308v14.784l.308.308h2.464l.308-.308v-14.784l-.308-.308Z" transform="translate(557.916 -2576.401)" fill="#767373"/>
        <path id="Trazado_102" data-name="Trazado 102" d="M-409.266,2598.758l-.308.308v2.464l.308.308h2.464l.308-.308v-2.464l-.308-.308Z" transform="translate(557.916 -2546.2)" fill="#767373"/>
        <path id="Trazado_103" data-name="Trazado 103" d="M-364.459,2635.289c2.464,0,3.388,1.231,3.7,2.464l.308.308h2.464l.308-.308c-.308-2.772-2.464-5.235-6.776-5.235-4.62,0-7.392,3.08-7.392,8.008s2.772,8.007,7.392,8.007c4.312,0,6.468-2.464,6.776-5.236l-.308-.308h-2.464l-.308.308c-.308,1.232-1.232,2.464-3.7,2.464-2.772,0-4.312-1.848-4.312-5.236S-367.231,2635.289-364.459,2635.289Z" transform="translate(526.044 -2574.723)" fill="#767373"/>
        <path id="Trazado_104" data-name="Trazado 104" d="M-265.149,2636.488l-.192.308v2.464l.192.308h6.349v2.518l-.254.254a12.716,12.716,0,0,0-2.772-.308c-4,0-6.776,1.54-6.776,4.927,0,3.08,1.848,4.928,5.236,4.928a5.147,5.147,0,0,0,4.312-1.848h.254v1.54l.308.308h2.464l.308-.308V2639.26h0V2636.8l-.192-.308Zm2.4,12.627c-1.848,0-2.772-.616-2.772-2.156s1.232-2.464,4-2.464a8.527,8.527,0,0,1,2.464.308l.254.255v1.55C-259.089,2648.133-260.551,2649.115-262.75,2649.115Z" transform="translate(438.809 -2578.079)" fill="#767373"/>
        <path id="Trazado_105" data-name="Trazado 105" d="M-774.129,2484.436l.308-.308v-14.783l-.308-.308h-2.464l-.308.308v14.783l.308.308Z" transform="translate(868.272 -2436.598)" fill="#767373"/>
        <path id="Trazado_106" data-name="Trazado 106" d="M-774.129,2436.372l.308-.308V2433.6l-.308-.308h-2.464l-.308.308v2.464l.308.308Z" transform="translate(868.272 -2406.397)" fill="#767373"/>
        <path id="Trazado_107" data-name="Trazado 107" d="M-517.343,2467.051c-4.62,0-7.392,3.08-7.392,8.008s2.772,8.007,7.392,8.007,7.392-3.08,7.392-8.007S-512.724,2467.051-517.343,2467.051Zm0,13.243c-2.772,0-4.312-1.848-4.312-5.235s1.54-5.236,4.312-5.236,4.312,1.848,4.312,5.236S-514.572,2480.294-517.343,2480.294Z" transform="translate(655.216 -2434.92)" fill="#767373"/>
        <path id="Trazado_108" data-name="Trazado 108" d="M-408.889,2484.128l5.236-12.627v-2.156l-.308-.308h-1.848l-.308.308-4.312,10.78h-.308l-4.312-10.78-.308-.308h-1.848l-.308.308v2.156l5.236,12.627.308.308h2.772Z" transform="translate(564.624 -2436.598)" fill="#767373"/>
        <path id="Trazado_109" data-name="Trazado 109" d="M-209.578,2469.822c2.464,0,3.388,1.232,3.7,2.464l.308.308h2.464l.308-.308c-.308-2.772-2.464-5.236-6.776-5.236-4.62,0-7.391,3.08-7.391,8.008s2.772,8.007,7.391,8.007c4.312,0,6.468-2.464,6.776-5.235l-.308-.309h-2.464l-.308.309c-.308,1.232-1.232,2.463-3.7,2.463-2.772,0-4.312-1.848-4.312-5.235S-212.349,2469.822-209.578,2469.822Z" transform="translate(395.184 -2434.92)" fill="#767373"/>
        <path id="Trazado_110" data-name="Trazado 110" d="M-107.455,2469.037l-.308.308v14.783l.308.308h2.464l.308-.308v-14.783l-.308-.308Z" transform="translate(302.915 -2436.598)" fill="#767373"/>
        <path id="Trazado_111" data-name="Trazado 111" d="M-107.455,2433.292l-.308.308v2.464l.308.308h2.464l.308-.308V2433.6l-.308-.308Z" transform="translate(302.915 -2406.397)" fill="#767373"/>
        <path id="Trazado_112" data-name="Trazado 112" d="M-62.648,2467.051c-4.62,0-7.392,3.08-7.392,8.008s2.772,8.007,7.392,8.007,7.392-3.08,7.392-8.007S-58.029,2467.051-62.648,2467.051Zm0,13.243c-2.772,0-4.312-1.848-4.312-5.235s1.54-5.236,4.312-5.236,4.312,1.848,4.312,5.236S-59.877,2480.294-62.648,2480.294Z" transform="translate(271.043 -2434.92)" fill="#767373"/>
        <path id="Trazado_113" data-name="Trazado 113" d="M-36.281,2433.325l.308.308h1.54l.616-.308,3.388-3.08v-.616l-.308-.308h-2.156l-.616.308-2.772,3.08Z" transform="translate(242.52 -2403.042)" fill="#767373"/>
        <path id="Trazado_114" data-name="Trazado 114" d="M-731.2,2484.436l.308-.308v-12.011h7.318v12.011l.308.308h2.464l.308-.308v-12.319h0v-2.464l-.269-.308H-733.7l-.27.308h0v14.783l.308.308Z" transform="translate(832.003 -2436.598)" fill="#767373"/>
        <path id="Trazado_115" data-name="Trazado 115" d="M-616.047,2483.443h2.464l.308-.308v-12.319h0v-2.464l-.269-.308h-12.938l-.27.308h0v14.783l.308.308h2.464l.308-.308v-12.011h7.318v12.011Z" transform="translate(741.411 -2435.759)" fill="#767373"/>
        <path id="Trazado_116" data-name="Trazado 116" d="M55.863,2468.351l-.269-.308H42.655l-.27.308h0v14.783l.308.308h2.464l.308-.308v-12.011h7.318v12.011l.308.308h2.464l.308-.308v-12.319h0Z" transform="translate(176.054 -2435.759)" fill="#767373"/>
        <path id="Trazado_117" data-name="Trazado 117" d="M-312.816,2469.344v2.464l.192.308h6.349v2.518l-.254.254a12.726,12.726,0,0,0-2.772-.308c-4,0-6.776,1.539-6.776,4.928,0,3.08,1.848,4.928,5.236,4.928a5.146,5.146,0,0,0,4.312-1.848h.254v1.54l.308.308h2.464l.308-.308v-12.319h0v-2.464l-.192-.308h-9.236Zm2.591,12.32c-1.848,0-2.772-.616-2.772-2.156s1.232-2.465,4-2.465a8.513,8.513,0,0,1,2.464.308l.254.255v1.55C-306.564,2480.681-308.026,2481.664-310.225,2481.664Z" transform="translate(478.92 -2436.598)" fill="#767373"/>
        <path id="Trazado_118" data-name="Trazado 118" d="M-774.129,2318.97l.308-.308v-14.783l-.308-.308h-2.464l-.308.308v14.783l.308.308Z" transform="translate(868.272 -2296.795)" fill="#767373"/>
        <path id="Trazado_119" data-name="Trazado 119" d="M-625.181,2285.722a4.868,4.868,0,0,0,4-1.848h.308l.308,1.232.308.309h2.156l.308-.309v-20.943l-.308-.308h-2.464l-.308.308v7.392h-.308a4.867,4.867,0,0,0-4-1.848c-4.312,0-6.776,3.388-6.776,8.008S-629.493,2285.722-625.181,2285.722Zm.308-13.243c2.464,0,4,1.54,4,5.236s-1.54,5.236-4,5.236-4-1.848-4-5.236S-627.337,2272.478-624.873,2272.478Z" transform="translate(745.809 -2263.239)" fill="#767373"/>
        <path id="Trazado_120" data-name="Trazado 120" d="M-514.024,2270.906l.308-.308v-2.464l-.308-.308h-2.464l-.308.308v2.464l.308.308Z" transform="translate(648.508 -2266.594)" fill="#767373"/>
        <path id="Trazado_121" data-name="Trazado 121" d="M-514.024,2318.97l.308-.308v-14.783l-.308-.308h-2.464l-.308.308v14.783l.308.308Z" transform="translate(648.508 -2296.795)" fill="#767373"/>
        <path id="Trazado_122" data-name="Trazado 122" d="M-471.681,2317.6c4.312,0,6.468-2.464,6.776-5.236l-.308-.308h-2.464l-.308.308c-.308,1.232-1.232,2.464-3.7,2.464-2.772,0-4.312-1.848-4.312-5.236s1.54-5.236,4.312-5.236c2.464,0,3.388,1.232,3.7,2.464l.308.308h2.464l.308-.308c-.308-2.771-2.464-5.235-6.776-5.235-4.62,0-7.392,3.08-7.392,8.008S-476.3,2317.6-471.681,2317.6Z" transform="translate(616.636 -2295.117)" fill="#767373"/>
        <path id="Trazado_123" data-name="Trazado 123" d="M-368.432,2317.6c3.7,0,5.852-2.156,6.16-4.62l-.308-.308h-2.464l-.308.308a2.927,2.927,0,0,1-3.08,1.848,3.667,3.667,0,0,1-4-3.7l.308-.308h10.164l.308-.308v-.924c0-4.312-2.156-8.008-7.084-8.008s-7.084,3.7-7.084,8.008C-375.823,2314.212-373.359,2317.6-368.432,2317.6Zm-.308-13.243a3.434,3.434,0,0,1,3.7,3.7l-.308.308h-6.776l-.308-.308A3.434,3.434,0,0,1-368.739,2304.357Z" transform="translate(529.4 -2295.117)" fill="#767373"/>
        <path id="Trazado_124" data-name="Trazado 124" d="M-214.174,2285.722a4.867,4.867,0,0,0,4-1.848h.308l.308,1.232.308.309h2.156l.308-.309v-20.943l-.308-.308h-2.464l-.308.308v7.392h-.308a4.867,4.867,0,0,0-4-1.848c-4.312,0-6.776,3.388-6.776,8.008S-218.486,2285.722-214.174,2285.722Zm.308-13.243c2.464,0,4,1.54,4,5.236s-1.54,5.236-4,5.236-4-1.848-4-5.236S-216.33,2272.478-213.866,2272.478Z" transform="translate(398.547 -2263.239)" fill="#767373"/>
        <path id="Trazado_125" data-name="Trazado 125" d="M-104.351,2317.6c3.7,0,5.852-2.156,6.16-4.62l-.308-.308h-2.464l-.308.308a2.927,2.927,0,0,1-3.08,1.848,3.667,3.667,0,0,1-4-3.7l.308-.308h10.163l.308-.308v-.924c0-4.312-2.156-8.008-7.084-8.008s-7.084,3.7-7.084,8.008C-111.743,2314.212-109.279,2317.6-104.351,2317.6Zm-.308-13.243a3.434,3.434,0,0,1,3.7,3.7l-.308.308h-6.776l-.308-.308A3.434,3.434,0,0,1-104.659,2304.357Z" transform="translate(306.278 -2295.117)" fill="#767373"/>
        <path id="Trazado_126" data-name="Trazado 126" d="M-731.2,2318.97l.308-.308V2306.65h7.318v12.012l.308.308h2.464l.308-.308v-12.319h0v-2.464l-.269-.308H-733.7l-.27.308h0v14.783l.308.308Z" transform="translate(832.003 -2296.795)" fill="#767373"/>
        <path id="Trazado_127" data-name="Trazado 127" d="M-774.06,2264.2l.616-.308,3.388-3.08v-.616l-.308-.308h-2.156l-.616.308-2.772,3.079v.616l.308.308Z" transform="translate(867.434 -2259.885)" fill="#767373"/>
        <path id="Trazado_128" data-name="Trazado 128" d="M-1144.545,2482.623v-2.441h-1.123l-3.547,2.441Z" transform="translate(1182.842 -2446.015)" fill="#767373"/>
        <path id="Trazado_129" data-name="Trazado 129" d="M-1193.689,2513.225h11.568v-2.441h-8.02Z" transform="translate(1220.418 -2471.871)" fill="#767373"/>
        <g id="Grupo_29" data-name="Grupo 29" transform="translate(0 1.042)">
          <path id="Trazado_130" data-name="Trazado 130" d="M-1366.028,2266.6v2.343h6.242Z" transform="translate(1366.028 -2266.602)" fill="#767373"/>
          <path id="Trazado_131" data-name="Trazado 131" d="M-1353.644,2296.571h-12.385v2.44h18.888Z" transform="translate(1366.028 -2291.922)" fill="#767373"/>
          <path id="Trazado_132" data-name="Trazado 132" d="M-1337.711,2328.406l-3.286-1.233h-25.031v2.441h30.849A16.348,16.348,0,0,0-1337.711,2328.406Z" transform="translate(1366.028 -2317.778)" fill="#767373"/>
          <path id="Trazado_133" data-name="Trazado 133" d="M-1332.154,2357.774h-33.874v2.441h35.9A15.1,15.1,0,0,0-1332.154,2357.774Z" transform="translate(1366.028 -2343.633)" fill="#767373"/>
          <path id="Trazado_134" data-name="Trazado 134" d="M-1328.878,2388.376h-37.15v2.441h37.945A14.147,14.147,0,0,0-1328.878,2388.376Z" transform="translate(1366.028 -2369.49)" fill="#767373"/>
          <path id="Trazado_135" data-name="Trazado 135" d="M-1327.731,2419.775c0-.267-.01-.532-.025-.8h-38.272v.82a13.12,13.12,0,0,0,.1,1.621h38.2Z" transform="translate(1366.028 -2395.345)" fill="#767373"/>
          <path id="Trazado_136" data-name="Trazado 136" d="M-1324.444,2450.825v-1.245h-37.694a13.49,13.49,0,0,0,1.033,2.441h34.923Z" transform="translate(1362.741 -2421.201)" fill="#767373"/>
          <path id="Trazado_137" data-name="Trazado 137" d="M-1315.277,2480.182h-29.989a14.528,14.528,0,0,0,2.642,2.441h23.8Z" transform="translate(1348.486 -2447.056)" fill="#767373"/>
          <path id="Trazado_138" data-name="Trazado 138" d="M-1289.615,2510.784h-17.115l3.547,2.441h10.02Z" transform="translate(1315.926 -2472.913)" fill="#767373"/>
          <path id="Trazado_139" data-name="Trazado 139" d="M-1258.937,2541.386h-3.32l1.66,1.142Z" transform="translate(1278.352 -2498.768)" fill="#767373"/>
        </g>
        <path id="Trazado_140" data-name="Trazado 140" d="M-1219.7,2541.386h-14.918l-3.547,2.441h18.465Z" transform="translate(1257.992 -2497.726)" fill="#767373"/>
        <path id="Trazado_141" data-name="Trazado 141" d="M-1257.27,2571.989h-21.816l-3.547,2.441h25.363Z" transform="translate(1295.567 -2523.583)" fill="#767373"/>
        <path id="Trazado_142" data-name="Trazado 142" d="M-995.182,2574.429l-3.547-2.441h-2.551l-3.547,2.441Z" transform="translate(1060.848 -2523.583)" fill="#767373"/>
        <path id="Trazado_143" data-name="Trazado 143" d="M-1279.4,2602.59h-27.91a10.973,10.973,0,0,0-1.516,2.441h29.426Z" transform="translate(1317.701 -2549.438)" fill="#767373"/>
        <path id="Trazado_144" data-name="Trazado 144" d="M-1049.3,2605.031h20.606a10.977,10.977,0,0,0-1.515-2.441h-15.543Z" transform="translate(1098.423 -2549.438)" fill="#767373"/>
        <path id="Trazado_145" data-name="Trazado 145" d="M-1284.525,2633.192h-30.137a10.4,10.4,0,0,0-.2,2.009v.432h30.345c.005-.138.016-.275.016-.413v-2.028Z" transform="translate(1322.795 -2575.293)" fill="#767373"/>
        <path id="Trazado_146" data-name="Trazado 146" d="M-1093.772,2635.633h28.438v-.432a10.416,10.416,0,0,0-.2-2.009h-24.694Z" transform="translate(1135.998 -2575.293)" fill="#767373"/>
        <g id="Grupo_30" data-name="Grupo 30" transform="translate(40.303 1.042)">
          <path id="Trazado_147" data-name="Trazado 147" d="M-899.491,2268.944h6.242V2266.6Z" transform="translate(931.546 -2266.602)" fill="#767373"/>
          <path id="Trazado_148" data-name="Trazado 148" d="M-981.029,2299.011h18.889v-2.44h-12.385Z" transform="translate(1000.438 -2291.922)" fill="#767373"/>
          <path id="Trazado_149" data-name="Trazado 149" d="M-1055.615,2328.406a16.364,16.364,0,0,0-2.531,1.207h30.849v-2.441h-25.031Z" transform="translate(1065.594 -2317.778)" fill="#767373"/>
          <path id="Trazado_150" data-name="Trazado 150" d="M-1090.726,2360.215h35.9v-2.441H-1088.7A15.077,15.077,0,0,0-1090.726,2360.215Z" transform="translate(1093.121 -2343.633)" fill="#767373"/>
          <path id="Trazado_151" data-name="Trazado 151" d="M-1103.9,2390.817h37.946v-2.441h-37.15A14.137,14.137,0,0,0-1103.9,2390.817Z" transform="translate(1104.255 -2369.49)" fill="#767373"/>
          <path id="Trazado_152" data-name="Trazado 152" d="M-1106.17,2419.775v1.644h38.2a13.1,13.1,0,0,0,.1-1.621v-.82h-38.272C-1106.16,2419.242-1106.17,2419.508-1106.17,2419.775Z" transform="translate(1106.17 -2395.345)" fill="#767373"/>
          <path id="Trazado_153" data-name="Trazado 153" d="M-1106.17,2450.828v1.193h36.661a13.524,13.524,0,0,0,1.033-2.441h-37.694Z" transform="translate(1106.17 -2421.201)" fill="#767373"/>
          <path id="Trazado_154" data-name="Trazado 154" d="M-1106.17,2482.623h32.435a14.513,14.513,0,0,0,2.642-2.441h-35.077Z" transform="translate(1106.17 -2447.056)" fill="#767373"/>
          <path id="Trazado_155" data-name="Trazado 155" d="M-1106.17,2513.225h25.553l3.547-2.441h-29.1Z" transform="translate(1106.17 -2472.913)" fill="#767373"/>
          <path id="Trazado_156" data-name="Trazado 156" d="M-1106.17,2543.827h18.655l1.885-1.3,1.662-1.143h-22.2Z" transform="translate(1106.17 -2498.768)" fill="#767373"/>
          <path id="Trazado_157" data-name="Trazado 157" d="M-1106.17,2574.429h11.758l3.547-2.441h-15.305Z" transform="translate(1106.17 -2524.624)" fill="#767373"/>
          <path id="Trazado_158" data-name="Trazado 158" d="M-1101.309,2605.031l3.547-2.441h-8.407v2.441Z" transform="translate(1106.17 -2550.479)" fill="#767373"/>
          <path id="Trazado_159" data-name="Trazado 159" d="M-1105.9,2634.145l1.384-.953H-1106C-1105.974,2633.512-1105.944,2633.83-1105.9,2634.145Z" transform="translate(1106.022 -2576.335)" fill="#767373"/>
        </g>
        <path id="Trazado_160" data-name="Trazado 160" d="M-1284.846,2663.794h-30.013v2.441h29.083A11.277,11.277,0,0,0-1284.846,2663.794Z" transform="translate(1322.795 -2601.149)" fill="#767373"/>
        <path id="Trazado_161" data-name="Trazado 161" d="M-1103,2666.235h29.083v-2.441h-30.013A11.284,11.284,0,0,0-1103,2666.235Z" transform="translate(1144.578 -2601.149)" fill="#767373"/>
        <path id="Trazado_162" data-name="Trazado 162" d="M-1287.356,2694.4h-27.5v2.441h24.584A12.343,12.343,0,0,0-1287.356,2694.4Z" transform="translate(1322.795 -2627.005)" fill="#767373"/>
        <path id="Trazado_163" data-name="Trazado 163" d="M-1084.823,2696.837h24.584V2694.4h-27.5A12.343,12.343,0,0,0-1084.823,2696.837Z" transform="translate(1130.902 -2627.005)" fill="#767373"/>
        <path id="Trazado_164" data-name="Trazado 164" d="M-1295.794,2725h-19.065v2.441h12.562Z" transform="translate(1322.795 -2652.861)" fill="#767373"/>
        <path id="Trazado_165" data-name="Trazado 165" d="M-1026.838,2727.439h12.562V2725h-19.066Z" transform="translate(1084.94 -2652.861)" fill="#767373"/>
        <path id="Trazado_166" data-name="Trazado 166" d="M-1308.44,2755.6h-6.419v2.409Z" transform="translate(1322.795 -2678.717)" fill="#767373"/>
        <path id="Trazado_167" data-name="Trazado 167" d="M-945.384,2758.009V2755.6H-951.8Z" transform="translate(1016.048 -2678.717)" fill="#767373"/>
      </g>
    </g>
  </g>
</svg>
