<svg xmlns="http://www.w3.org/2000/svg" xmlns:xlink="http://www.w3.org/1999/xlink" width="186" height="71" viewBox="0 0 186 71">
  <defs>
    <clipPath id="clip-IIP-logoLAB-Header">
      <rect width="186" height="71"/>
    </clipPath>
  </defs>
  <g id="IIP-logoLAB-Header" clip-path="url(#clip-IIP-logoLAB-Header)">
    <rect width="186" height="71" fill="#fff"/>
    <g id="Grupo_1475" data-name="Grupo 1475" transform="translate(2 2.296)">
      <path id="Trazado_168" data-name="Trazado 168" d="M-1091.047,795.065h-1.895l-.237.238v7.643l-.115.12-.121-.12a4.235,4.235,0,0,0-2.959-1.191,5.572,5.572,0,0,0-5.568,5.853,5.57,5.57,0,0,0,5.568,5.852,4.178,4.178,0,0,0,2.959-1.194l.121-.118.115.118.237.718.242.237h1.653l.239-.237V795.3Zm-5.21,16.247c-2.25,0-3.315-1.673-3.315-3.7s1.064-3.7,3.315-3.7a3.418,3.418,0,0,1,3.315,3.7,3.418,3.418,0,0,1-3.315,3.7" transform="translate(1101.944 -759.971)" fill="#6d6a6a"/>
      <path id="Trazado_169" data-name="Trazado 169" d="M-1081.184,802.948a5.576,5.576,0,0,0-5.57,5.856,5.74,5.74,0,0,0,5.688,5.851,5.473,5.473,0,0,0,4.712-2.626v-.239l-1.634-1.078h-.239a2.965,2.965,0,0,1-2.839,1.8,3.134,3.134,0,0,1-3.318-3.108h8.292l.238-.716a5.357,5.357,0,0,0-5.331-5.735m-3.078,4.349a2.923,2.923,0,0,1,3.078-2.2,2.659,2.659,0,0,1,2.84,2.2Z" transform="translate(1099.645 -761.164)" fill="#6d6a6a"/>
      <path id="Trazado_170" data-name="Trazado 170" d="M-1098.824,754.879h-2.789l-.33.33V778.73l.33.33h13.792l.331-.33v-2.651l-.331-.33h-10.672V755.209Z" transform="translate(1101.943 -753.889)" fill="#6d6a6a"/>
      <path id="Trazado_171" data-name="Trazado 171" d="M-1074.781,764.641c-3.942,0-6.569,2.317-6.9,4.968l.328.329h2.627l.33-.329c.164-1.158,1.642-2.152,3.612-2.152s3.746.825,3.746,2.812v.332s-.1.066-5.225.5c-3.513.3-5.747,1.821-5.747,4.8,0,3.315,2.6,4.968,5.747,4.968a7.775,7.775,0,0,0,4.929-1.82l.161-.168.165.168.166,1.16.329.33h2.295l.33-.33V770.6c0-4.14-3.609-5.959-6.9-5.959m-1.314,13.347c-1.575,0-2.759-.761-2.759-2.089s.985-1.949,2.925-2.151c4.825-.467,5.09-.531,5.09-.531v1.028c-.33,2.316-2.792,3.743-5.256,3.743" transform="translate(1098.926 -755.366)" fill="#6d6a6a"/>
      <path id="Trazado_172" data-name="Trazado 172" d="M-1059.5,753.712h-2.628l-.326.329v24.511l.326.332h2.3l.33-.332.33-1,.167-.165.158.165a5.815,5.815,0,0,0,4.11,1.658c4.267,0,7.719-3.311,7.719-8.117s-3.452-8.115-7.719-8.115a5.889,5.889,0,0,0-4.11,1.657l-.158.167-.167-.167v-10.6Zm4.6,22.52c-2.79,0-4.6-2.318-4.6-5.135s1.81-5.132,4.6-5.132c3.119,0,4.6,2.318,4.6,5.132s-1.476,5.135-4.6,5.135" transform="translate(1095.967 -753.712)" fill="#6d6a6a"/>
      <path id="Trazado_173" data-name="Trazado 173" d="M-1033.3,764.637a7.989,7.989,0,0,0-8.049,8.117,7.987,7.987,0,0,0,8.049,8.114,7.989,7.989,0,0,0,8.049-8.114,7.991,7.991,0,0,0-8.049-8.117m0,13.252c-3.119,0-4.8-2.32-4.8-5.135s1.679-5.135,4.8-5.135,4.763,2.32,4.763,5.135-1.644,5.135-4.763,5.135" transform="translate(1092.773 -755.366)" fill="#6d6a6a"/>
      <path id="Trazado_174" data-name="Trazado 174" d="M-1012.086,764.636a5.342,5.342,0,0,0-3.779,1.656l-.16.166-.163-.166-.33-.993-.332-.329h-2.3l-.329.329v14.9l.329.332h2.627l.33-.332v-9.075a3.654,3.654,0,0,1,3.609-3.51,2.961,2.961,0,0,1,3.287,3.314l.325.327,2.632-.327.33-.333c0-3.643-2.14-5.964-6.081-5.964" transform="translate(1089.461 -755.365)" fill="#6d6a6a"/>
      <path id="Trazado_175" data-name="Trazado 175" d="M-993.471,764.641c-3.942,0-6.569,2.317-6.9,4.968l.329.329h2.627l.33-.329c.164-1.158,1.643-2.152,3.612-2.152s3.746.825,3.746,2.812v.332s-.1.066-5.225.5c-3.512.3-5.745,1.821-5.745,4.8,0,3.315,2.6,4.968,5.745,4.968a7.773,7.773,0,0,0,4.93-1.82l.166-.168.159.168.167,1.16.329.33h2.3l.326-.33V770.6c0-4.14-3.609-5.959-6.9-5.959m-1.314,13.347c-1.575,0-2.758-.761-2.758-2.089s.985-1.949,2.919-2.151c4.831-.467,5.095-.531,5.095-.531v1.028c-.326,2.316-2.792,3.743-5.256,3.743" transform="translate(1086.619 -755.366)" fill="#6d6a6a"/>
      <path id="Trazado_176" data-name="Trazado 176" d="M-977.862,754.878h-.659l-2.627,3.314v15.9c0,2.984,1.807,4.972,5.091,4.972l1.808-.328.328-.333v-2.321l-.328-.33-1.973.33a1.556,1.556,0,0,1-1.639-1.656V766.47h5.255l.323-.329v-2.319l-.323-.332h-5.255Z" transform="translate(1083.66 -753.889)" fill="#6d6a6a"/>
      <path id="Trazado_177" data-name="Trazado 177" d="M-959.739,764.637a7.99,7.99,0,0,0-8.049,8.117,7.989,7.989,0,0,0,8.049,8.114,7.985,7.985,0,0,0,8.044-8.114,7.987,7.987,0,0,0-8.044-8.117m0,13.252c-3.12,0-4.793-2.32-4.793-5.135s1.674-5.135,4.793-5.135,4.764,2.32,4.764,5.135-1.645,5.135-4.764,5.135" transform="translate(1081.638 -755.366)" fill="#6d6a6a"/>
      <path id="Trazado_178" data-name="Trazado 178" d="M-938.52,764.636a5.335,5.335,0,0,0-3.778,1.656l-.16.166-.164-.166-.332-.993-.33-.329h-2.3l-.327.329v14.9l.327.332h2.628l.332-.332v-9.075a3.654,3.654,0,0,1,3.612-3.51,2.961,2.961,0,0,1,3.284,3.314l.328.327,2.628-.327.33-.333c0-3.643-2.134-5.964-6.079-5.964" transform="translate(1078.327 -755.365)" fill="#6d6a6a"/>
      <path id="Trazado_179" data-name="Trazado 179" d="M-918.269,756.44h-3.612l-.33.332v3.974l.33.334h3.612l.33-.334v-3.974Zm-.655,7.289h-6.568l-.33.329v2.319l.33.334h3.612v9.6h-4.926l-.33.333v2.32l.33.328H-914l.328-.328v-2.32l-.328-.333h-4.6V764.058Z" transform="translate(1075.485 -754.125)" fill="#6d6a6a"/>
      <path id="Trazado_180" data-name="Trazado 180" d="M-900.309,764.637a7.987,7.987,0,0,0-8.044,8.117,7.985,7.985,0,0,0,8.044,8.114,7.989,7.989,0,0,0,8.049-8.114,7.99,7.99,0,0,0-8.049-8.117m0,13.252c-3.119,0-4.795-2.32-4.795-5.135s1.676-5.135,4.795-5.135,4.764,2.32,4.764,5.135-1.645,5.135-4.764,5.135" transform="translate(1072.642 -755.366)" fill="#6d6a6a"/>
      <path id="Trazado_181" data-name="Trazado 181" d="M-1021.1,805.608a7.988,7.988,0,0,0-8.049,8.113,7.991,7.991,0,0,0,8.049,8.118,7.988,7.988,0,0,0,8.044-8.118,7.984,7.984,0,0,0-8.044-8.113m0,13.248c-3.119,0-4.8-2.32-4.8-5.135s1.677-5.133,4.8-5.133,4.764,2.318,4.764,5.133-1.646,5.135-4.764,5.135" transform="translate(1090.926 -761.567)" fill="#6d6a6a"/>
      <path id="Trazado_182" data-name="Trazado 182" d="M-1004.311,794.673h-2.631l-.325.336v24.51l.325.332h2.3l.332-.332.33-.994.165-.166.159.166a5.82,5.82,0,0,0,4.109,1.656c4.267,0,7.718-3.31,7.718-8.116s-3.451-8.113-7.718-8.113a5.881,5.881,0,0,0-4.109,1.655l-.159.166-.165-.166v-10.6Zm4.6,22.528c-2.79,0-4.6-2.32-4.6-5.135s1.808-5.133,4.6-5.133c3.119,0,4.6,2.32,4.6,5.133s-1.479,5.135-4.6,5.135" transform="translate(1087.614 -759.912)" fill="#6d6a6a"/>
      <path id="Trazado_183" data-name="Trazado 183" d="M-977.323,797.407h-3.609l-.327.334v3.972l.327.331h3.609l.33-.331v-3.972Zm-.652,7.291h-6.57l-.329.332v2.317l.329.328h3.613v9.611h-4.931l-.325.33v2.319l.325.33h12.812l.332-.33v-2.319l-.332-.33h-4.6V805.029Z" transform="translate(1084.423 -760.326)" fill="#6d6a6a"/>
      <path id="Trazado_184" data-name="Trazado 184" d="M-959.691,805.607c-4.271,0-7.72,3.311-7.72,8.115a7.954,7.954,0,0,0,7.881,8.115A7.574,7.574,0,0,0-953,818.195v-.334l-2.263-1.488h-.329a4.122,4.122,0,0,1-3.942,2.484,4.342,4.342,0,0,1-4.6-4.308h11.5l.326-.993a7.42,7.42,0,0,0-7.387-7.949m-4.271,6.027a4.06,4.06,0,0,1,4.271-3.048,3.685,3.685,0,0,1,3.939,3.048Z" transform="translate(1081.581 -761.567)" fill="#6d6a6a"/>
      <path id="Trazado_185" data-name="Trazado 185" d="M-939.3,805.606a5.317,5.317,0,0,0-3.775,1.657l-.163.166-.165-.166-.332-.995-.329-.329h-2.3l-.326.329v14.9l.326.335h2.628l.332-.335V812.1a3.653,3.653,0,0,1,3.613-3.51A2.96,2.96,0,0,1-936.5,811.9l.327.33,2.628-.33.329-.33c0-3.643-2.139-5.962-6.079-5.962" transform="translate(1078.444 -761.567)" fill="#6d6a6a"/>
      <path id="Trazado_186" data-name="Trazado 186" d="M-920.345,805.608a5.415,5.415,0,0,0-3.94,1.653l-.165.167-.166-.167-.165-.994-.326-.33h-2.463l-.327.33v14.907l.327.331h2.625l.33-.331V812.1a3.854,3.854,0,0,1,3.944-3.511c2.3,0,3.609,1.327,3.609,3.974v8.613l.332.331h2.628l.325-.331v-8.947c0-4.467-2.625-6.62-6.568-6.62" transform="translate(1075.6 -761.567)" fill="#6d6a6a"/>
      <path id="Trazado_187" data-name="Trazado 187" d="M-900.309,805.608a7.984,7.984,0,0,0-8.044,8.113,7.987,7.987,0,0,0,8.044,8.118,7.991,7.991,0,0,0,8.049-8.118,7.988,7.988,0,0,0-8.049-8.113m0,13.248c-3.119,0-4.795-2.32-4.795-5.135s1.676-5.133,4.795-5.133,4.764,2.318,4.764,5.133-1.645,5.135-4.764,5.135" transform="translate(1072.642 -761.567)" fill="#6d6a6a"/>
      <path id="Trazado_188" data-name="Trazado 188" d="M-1078.484,822.194h-23.129l-.314.323-.016.013v1.815l.33.334h23.129l.326-.334v-1.821Z" transform="translate(1101.944 -764.077)" fill="#6d6a6a"/>
      <path id="Trazado_189" data-name="Trazado 189" d="M-1048.4,795.067c-7.225,0-12.479,5.63-12.479,12.753s5.254,12.752,12.314,12.752a12.1,12.1,0,0,0,12.139-10.885l-.2-.426-2.9-2.934-12.147,0-.329.33V809.3l.329.331,11.883.008c-.329,4.472-3.977,7.616-8.771,7.616-5.419,0-8.833-3.973-8.833-9.406,0-5.5,3.414-9.474,8.833-9.474a8.657,8.657,0,0,1,7.142,3.376l.479.036,1.862-1.875.006-.525a12.12,12.12,0,0,0-9.323-4.325" transform="translate(1095.728 -759.971)" fill="#6d6a6a"/>
    </g>
  </g>
</svg>
