<svg xmlns="http://www.w3.org/2000/svg" xmlns:xlink="http://www.w3.org/1999/xlink" width="255" height="94" viewBox="0 0 255 94">
  <defs>
    <clipPath id="clip-Footer_Lab">
      <rect width="255" height="94"/>
    </clipPath>
  </defs>
  <g id="Footer_Lab" data-name="Footer Lab" clip-path="url(#clip-Footer_Lab)">
    <rect width="255" height="94" fill="transparent"/>
    <g id="Grupo_327" data-name="Grupo 327" transform="translate(1.92 1.962)">
      <g id="Grupo_323" data-name="Grupo 323" transform="translate(0.001 50.603)">
        <path id="Trazado_901" data-name="Trazado 901" d="M1937.4,1277.913c-3.118,0-4.6,2.413-4.6,5.336s1.48,5.342,4.6,5.342c2.79,0,4.594-2.41,4.594-5.342s-1.8-5.336-4.594-5.336m7.551,13.087-.327.343h-2.3l-.333-.343-.328-1.032-.164-.173-.164.173a5.688,5.688,0,0,1-4.1,1.718c-4.27,0-7.711-3.439-7.711-8.437s3.441-8.435,7.711-8.435a5.759,5.759,0,0,1,4.1,1.718l.164.176.164-.176v-11.017l.328-.349h2.629l.327.349Z" transform="translate(-1929.523 -1265.166)" fill="#fff"/>
        <path id="Trazado_902" data-name="Trazado 902" d="M1938.753,1274.556h8.2a3.726,3.726,0,0,0-3.936-3.173,4.083,4.083,0,0,0-4.266,3.173m-.165,3.031a4.419,4.419,0,0,0,4.594,4.476,4.11,4.11,0,0,0,3.936-2.585h.328l2.267,1.554v.343a7.517,7.517,0,0,1-6.531,3.791,8.123,8.123,0,0,1-7.878-8.44c0-4.993,3.448-8.438,7.715-8.438,3.936,0,7.544,3.272,7.384,8.268l-.328,1.032Z" transform="translate(-1917.444 -1258.642)" fill="#fff"/>
      </g>
      <path id="Trazado_903" data-name="Trazado 903" d="M1929.523,1249.73l.451-.479h3.871l.454.479v29.606h14.79l.457.479v3.825l-.457.473h-19.114l-.451-.473Z" transform="translate(-1929.523 -1247.816)" fill="#fff"/>
      <g id="Grupo_324" data-name="Grupo 324" transform="translate(23.438)">
        <path id="Trazado_904" data-name="Trazado 904" d="M1952.584,1265.488s-.365.093-7.053.76c-2.685.29-4.05,1.2-4.05,3.107s1.637,3.006,3.825,3.006c3.414,0,6.828-2.051,7.279-5.4Zm-14.564-4.73-.451-.479c.451-3.819,4.1-7.165,9.555-7.165,4.551,0,9.556,2.629,9.556,8.6v13.85l-.457.479h-3.182l-.457-.479-.226-1.671-.225-.238-.232.238a10.507,10.507,0,0,1-6.828,2.629c-4.365,0-7.964-2.392-7.964-7.165,0-4.3,3.1-6.5,7.964-6.926,7.1-.621,7.236-.717,7.236-.717v-.476c0-2.864-2.453-4.059-5.184-4.059s-4.782,1.434-5.008,3.1l-.451.479Z" transform="translate(-1937.109 -1239.743)" fill="#fff"/>
        <path id="Trazado_905" data-name="Trazado 905" d="M1955.017,1281.263c4.323,0,6.37-3.342,6.37-7.4s-2.048-7.4-6.37-7.4c-3.865,0-6.37,3.34-6.37,7.4s2.506,7.4,6.37,7.4m-10.467-32,.457-.479h3.639l.454.479v15.284l.229.238.229-.238a7.957,7.957,0,0,1,5.685-2.388c5.917,0,10.693,4.774,10.693,11.7s-4.776,11.7-10.693,11.7a7.876,7.876,0,0,1-5.685-2.382l-.229-.241-.229.241-.454,1.433-.457.473h-3.182l-.457-.473Z" transform="translate(-1921.561 -1248.787)" fill="#fff"/>
        <path id="Trazado_906" data-name="Trazado 906" d="M1963.735,1272.218c4.322,0,6.6-3.346,6.6-7.4s-2.274-7.4-6.6-7.4-6.646,3.346-6.646,7.4,2.323,7.4,6.646,7.4m0-19.1a11.713,11.713,0,1,1-11.15,11.7,11.3,11.3,0,0,1,11.15-11.7" transform="translate(-1904.772 -1239.742)" fill="#fff"/>
        <path id="Trazado_907" data-name="Trazado 907" d="M1960.91,1254.072l.458-.479h3.182l.458.479.454,1.427.225.245.232-.245a7.265,7.265,0,0,1,5.233-2.382c5.459,0,8.416,3.343,8.416,8.6l-.454.476-3.64.479-.457-.479c0-3.34-1.82-4.773-4.551-4.773a5.16,5.16,0,0,0-5,5.057v13.09l-.454.473h-3.64l-.458-.473Z" transform="translate(-1887.375 -1239.739)" fill="#fff"/>
        <path id="Trazado_908" data-name="Trazado 908" d="M1983.532,1265.488s-.367.093-7.053.76c-2.688.29-4.051,1.2-4.051,3.107s1.637,3.006,3.822,3.006c3.414,0,6.827-2.051,7.282-5.4Zm-14.561-4.73-.458-.479c.458-3.819,4.1-7.165,9.556-7.165,4.551,0,9.559,2.629,9.559,8.6v13.85l-.457.479h-3.183l-.457-.479-.229-1.671-.225-.238-.232.238a10.5,10.5,0,0,1-6.827,2.629c-4.366,0-7.962-2.392-7.962-7.165,0-4.3,3.1-6.5,7.962-6.926,7.1-.621,7.238-.717,7.238-.717v-.476c0-2.864-2.456-4.059-5.187-4.059s-4.776,1.434-5,3.1l-.454.479Z" transform="translate(-1872.444 -1239.743)" fill="#fff"/>
        <path id="Trazado_909" data-name="Trazado 909" d="M1975.5,1254.03l3.639-4.779h.912v12.423h7.282l.454.476v3.343l-.454.476h-7.282v11.462a2.2,2.2,0,0,0,2.277,2.388l2.728-.476.455.476v3.343l-.455.475-2.5.479c-4.551,0-7.053-2.867-7.053-7.165Z" transform="translate(-1856.896 -1247.818)" fill="#fff"/>
        <path id="Trazado_910" data-name="Trazado 910" d="M1991.734,1272.218c4.322,0,6.6-3.346,6.6-7.4s-2.274-7.4-6.6-7.4-6.646,3.346-6.646,7.4,2.323,7.4,6.646,7.4m0-19.1a11.713,11.713,0,1,1-11.15,11.7,11.3,11.3,0,0,1,11.15-11.7" transform="translate(-1846.268 -1239.742)" fill="#fff"/>
        <path id="Trazado_911" data-name="Trazado 911" d="M1988.91,1254.072l.451-.479h3.188l.457.479.455,1.427.228.245.229-.245a7.256,7.256,0,0,1,5.228-2.382c5.465,0,8.422,3.343,8.422,8.6l-.454.476-3.639.479-.457-.479c0-3.34-1.82-4.773-4.551-4.773a5.16,5.16,0,0,0-5,5.057v13.09l-.455.473h-3.645l-.451-.473Z" transform="translate(-1828.872 -1239.739)" fill="#fff"/>
      </g>
      <path id="Trazado_912" data-name="Trazado 912" d="M2002.883,1256.08l.451.479h5.008l.458-.479v-5.731l-.458-.479h-5.008l-.451.479Zm-6.828,22.92.458-.478h6.821v-13.845h-5l-.458-.479v-3.346l.458-.476h9.1l.46.476v17.669h6.367l.457.478v3.346l-.457.473h-17.746l-.458-.473Z" transform="translate(-1790.502 -1246.524)" fill="#fff"/>
      <g id="Grupo_325" data-name="Grupo 325" transform="translate(85.598 13.374)">
        <path id="Trazado_913" data-name="Trazado 913" d="M2014.353,1272.218c4.323,0,6.6-3.346,6.6-7.4s-2.28-7.4-6.6-7.4-6.646,3.346-6.646,7.4,2.324,7.4,6.646,7.4m0-19.1a11.713,11.713,0,1,1-11.15,11.7,11.3,11.3,0,0,1,11.15-11.7" transform="translate(-1861.165 -1253.116)" fill="#fff"/>
        <path id="Trazado_914" data-name="Trazado 914" d="M1968.379,1288.442c4.322,0,6.6-3.339,6.6-7.4s-2.274-7.4-6.6-7.4-6.646,3.346-6.646,7.4,2.324,7.4,6.646,7.4m0-19.1a11.715,11.715,0,1,1-11.15,11.7,11.3,11.3,0,0,1,11.15-11.7" transform="translate(-1957.229 -1219.216)" fill="#fff"/>
        <path id="Trazado_915" data-name="Trazado 915" d="M1976.024,1297.489c4.323,0,6.371-3.346,6.371-7.4s-2.048-7.4-6.371-7.4c-3.871,0-6.37,3.34-6.37,7.4s2.5,7.4,6.37,7.4m-10.467-32,.457-.479h3.64l.454.479v15.284l.229.238.228-.238a7.952,7.952,0,0,1,5.684-2.388c5.917,0,10.693,4.773,10.693,11.7s-4.776,11.7-10.693,11.7a7.873,7.873,0,0,1-5.684-2.382l-.228-.241-.229.241-.454,1.433-.458.475h-3.182l-.457-.475Z" transform="translate(-1939.828 -1228.259)" fill="#fff"/>
      </g>
      <path id="Trazado_916" data-name="Trazado 916" d="M1980.862,1266.093l-.454.479v5.731l.454.482h5l.457-.482v-5.731l-.457-.479Zm-5.008,10.51-.451.479v3.34l.451.479h5.008v13.85h-6.828l-.454.475v3.343l.454.481h17.752l.451-.481v-3.343l-.451-.475h-6.377v-17.669l-.458-.479Z" transform="translate(-1837.466 -1212.626)" fill="#fff"/>
      <g id="Grupo_326" data-name="Grupo 326" transform="translate(158.191 63.498)">
        <path id="Trazado_917" data-name="Trazado 917" d="M1985.505,1278.028h11.379c-.229-2.481-2.505-4.39-5.459-4.39a5.663,5.663,0,0,0-5.92,4.39m-.225,4.2a6.125,6.125,0,0,0,6.37,6.207,5.705,5.705,0,0,0,5.459-3.578h.457l3.139,2.144v.485a10.422,10.422,0,0,1-9.055,5.252c-5.687,0-10.924-4.776-10.924-11.7s4.779-11.7,10.7-11.7c5.459,0,10.465,4.535,10.239,11.455l-.458,1.434Z" transform="translate(-1980.726 -1269.338)" fill="#fff"/>
        <path id="Trazado_918" data-name="Trazado 918" d="M1988.615,1270.295l.452-.479h3.188l.457.479.455,1.433.228.238.228-.238a7.24,7.24,0,0,1,5.228-2.389c5.465,0,8.422,3.343,8.422,8.6l-.455.475-3.639.479-.457-.479c0-3.339-1.82-4.773-4.55-4.773a5.16,5.16,0,0,0-5,5.057v13.09l-.455.476h-3.645l-.452-.476Z" transform="translate(-1964.242 -1269.34)" fill="#fff"/>
        <path id="Trazado_919" data-name="Trazado 919" d="M1996.218,1269.819h3.414l.451.479.232,1.433.226.238.228-.238a7.362,7.362,0,0,1,5.459-2.391c5.466,0,9.1,3.1,9.1,9.55v12.9l-.458.476h-3.639l-.454-.476v-12.417c0-3.819-1.82-5.731-5.008-5.731a5.422,5.422,0,0,0-5.459,5.064v13.084l-.458.476h-3.639l-.451-.476V1270.3Z" transform="translate(-1949.298 -1269.34)" fill="#fff"/>
        <path id="Trazado_920" data-name="Trazado 920" d="M2014.353,1288.442c4.323,0,6.6-3.339,6.6-7.4s-2.28-7.4-6.6-7.4-6.646,3.346-6.646,7.4,2.324,7.4,6.646,7.4m0-19.1a11.715,11.715,0,1,1-11.15,11.7,11.3,11.3,0,0,1,11.15-11.7" transform="translate(-1933.758 -1269.34)" fill="#fff"/>
      </g>
      <path id="Trazado_921" data-name="Trazado 921" d="M1929.974,1275.908l-.439.467-.012.022v2.623l.451.472h32.048l.457-.482v-2.623l-.457-.479Z" transform="translate(-1929.521 -1192.116)" fill="#fff"/>
      <path id="Trazado_922" data-name="Trazado 922" d="M1978.76,1285.628l-4.026-4.226-16.831,0-.451.479v3.809l.451.479,16.467.009c-.457,6.448-5.509,10.983-12.154,10.983-7.505,0-12.238-5.731-12.238-13.563,0-7.931,4.733-13.662,12.238-13.662a11.826,11.826,0,0,1,9.9,4.869l.661.049,2.577-2.7.009-.751a16.529,16.529,0,0,0-12.914-6.238c-10.013,0-17.3,8.119-17.3,18.385s7.282,18.385,17.064,18.385a17.039,17.039,0,0,0,16.822-15.692Z" transform="translate(-1896.866 -1214.561)" fill="#fff"/>
    </g>
  </g>
</svg>
