<svg id="Logo-Laboratorio-de-Gobierno-01" xmlns="http://www.w3.org/2000/svg" width="261.244" height="87.081" viewBox="0 0 261.244 87.081">
  <path id="Trazado_5" data-name="Trazado 5" d="M34.059,191.9c-3.246,0-4.822,2.387-4.822,5.3s1.528,5.3,4.822,5.3c2.912,0,4.822-2.387,4.822-5.3-.048-2.912-1.91-5.3-4.822-5.3m7.877,13.034-.334.334H39.215l-.334-.334-.334-1.05-.191-.191-.191.191a6.057,6.057,0,0,1-4.3,1.719,8.41,8.41,0,0,1,0-16.805,6.142,6.142,0,0,1,4.3,1.719l.191.191.191-.191V179.534l.334-.334H41.6l.334.334Z" transform="translate(-25.8 -128.784)" fill="#747474"/>
  <path id="Trazado_6" data-name="Trazado 6" d="M68.581,205.5h8.594a3.883,3.883,0,0,0-4.106-3.151,4.249,4.249,0,0,0-4.488,3.151m-.191,3.008a4.53,4.53,0,0,0,4.822,4.44,4.3,4.3,0,0,0,4.106-2.578h.334l2.387,1.528v.334a7.885,7.885,0,0,1-6.827,3.772A8.253,8.253,0,0,1,65,207.6a8.023,8.023,0,0,1,8.068-8.4,7.737,7.737,0,0,1,7.734,8.212l-.334,1.05H68.39Z" transform="translate(-46.285 -139.236)" fill="#747474"/>
  <path id="Trazado_7" data-name="Trazado 7" d="M25.8,77.077l.477-.477h4.058l.477.477v29.5H46.281l.477.477v3.819l-.477.43h-20l-.477-.43Z" transform="translate(-25.8 -75.168)" fill="#747474"/>
  <path id="Trazado_8" data-name="Trazado 8" d="M93.337,113.87s-.382.1-7.352.764c-2.817.286-4.249,1.194-4.249,3.1s1.719,3.008,4.01,3.008c3.581,0,7.114-2.053,7.591-5.395Zm-15.182-4.679-.477-.477c.477-3.819,4.3-7.114,9.978-7.114,4.774,0,9.978,2.626,9.978,8.546v13.8l-.477.477H93.814l-.477-.477-.239-1.671-.239-.239-.239.239a11.3,11.3,0,0,1-7.114,2.626c-4.583,0-8.307-2.387-8.307-7.114,0-4.3,3.246-6.493,8.307-6.875,7.4-.621,7.543-.716,7.543-.716v-.477c0-2.865-2.578-4.058-5.443-4.058s-5.013,1.432-5.252,3.1l-.477.477H78.155Z" transform="translate(-52.661 -88.232)" fill="#747474"/>
  <path id="Trazado_9" data-name="Trazado 9" d="M138.433,105.969c4.536,0,6.636-3.342,6.636-7.352,0-4.058-2.148-7.352-6.636-7.352-4.058,0-6.636,3.342-6.636,7.352-.048,4.01,2.578,7.352,6.636,7.352M127.5,74.077l.477-.477H131.8l.477.477v15.23l.239.239.239-.239a8.565,8.565,0,0,1,5.968-2.387c6.206,0,11.172,4.774,11.172,11.649s-5.013,11.649-11.172,11.649a8.478,8.478,0,0,1-5.968-2.387l-.239-.239-.239.239-.477,1.432-.477.477h-3.342l-.477-.477Z" transform="translate(-78.946 -73.6)" fill="#747474"/>
  <path id="Trazado_10" data-name="Trazado 10" d="M193.449,120.549c4.536,0,6.875-3.342,6.875-7.352,0-4.058-2.387-7.352-6.875-7.352-4.535,0-6.923,3.342-6.923,7.352s2.435,7.352,6.923,7.352m0-19.049A11.649,11.649,0,1,1,181.8,113.149,11.541,11.541,0,0,1,193.449,101.5" transform="translate(-107.322 -88.18)" fill="#747474"/>
  <path id="Trazado_11" data-name="Trazado 11" d="M238.048,102.455l.477-.477h3.342l.477.477.477,1.432.239.239.239-.239a7.771,7.771,0,0,1,5.49-2.387c5.729,0,8.785,3.342,8.785,8.546l-.477.477-3.819.477-.477-.477c0-3.342-1.91-4.774-4.774-4.774a5.3,5.3,0,0,0-5.252,5.061v13.034l-.477.477h-3.819l-.477-.477V102.455Z" transform="translate(-136.691 -88.18)" fill="#747474"/>
  <path id="Trazado_12" data-name="Trazado 12" d="M302.684,113.87s-.382.1-7.352.764c-2.817.286-4.249,1.194-4.249,3.1s1.719,3.008,4.01,3.008c3.581,0,7.113-2.053,7.591-5.395Zm-15.23-4.679-.477-.477c.477-3.819,4.3-7.114,9.978-7.114,4.774,0,9.978,2.626,9.978,8.546v13.8l-.477.477h-3.342l-.477-.477-.239-1.671-.239-.239-.239.239a11.3,11.3,0,0,1-7.114,2.626c-4.583,0-8.307-2.387-8.307-7.114,0-4.3,3.246-6.493,8.307-6.875,7.4-.621,7.543-.716,7.543-.716v-.477c0-2.865-2.578-4.058-5.443-4.058s-5.013,1.432-5.252,3.1l-.477.477h-3.724Z" transform="translate(-162.037 -88.232)" fill="#747474"/>
  <path id="Trazado_13" data-name="Trazado 13" d="M336.8,81.374l3.819-4.774h.955V88.965h7.591l.477.477v3.342l-.477.477h-7.591v11.41a2.255,2.255,0,0,0,2.387,2.387l2.865-.477.477.477V110.4l-.477.477-2.626.477c-4.774,0-7.352-2.865-7.352-7.114V81.374Z" transform="translate(-188.322 -75.168)" fill="#747474"/>
  <path id="Trazado_14" data-name="Trazado 14" d="M382.849,120.549c4.535,0,6.875-3.342,6.875-7.352,0-4.058-2.387-7.352-6.875-7.352-4.535,0-6.923,3.342-6.923,7.352s2.387,7.352,6.923,7.352m0-19.049A11.649,11.649,0,1,1,371.2,113.149,11.54,11.54,0,0,1,382.849,101.5" transform="translate(-206.299 -88.18)" fill="#747474"/>
  <path id="Trazado_15" data-name="Trazado 15" d="M427.448,102.455l.478-.477h3.342l.477.477.477,1.432.239.239.239-.239a7.771,7.771,0,0,1,5.49-2.387c5.729,0,8.784,3.342,8.784,8.546l-.477.477-3.819.477-.477-.477c0-3.342-1.91-4.774-4.774-4.774a5.3,5.3,0,0,0-5.252,5.061v13.034l-.477.477h-3.819l-.477-.477V102.455Z" transform="translate(-235.668 -88.18)" fill="#747474"/>
  <path id="Trazado_16" data-name="Trazado 16" d="M482.909,86.806l.477.477h5.252l.477-.477V81.077l-.477-.477h-5.252l-.477.477ZM475.8,109.627l.477-.477h7.114v-13.8h-5.252l-.477-.477V91.533l.477-.477h9.5l.477.477V109.15h6.636l.477.477v3.342l-.477.477H476.177l-.477-.477v-3.342Z" transform="translate(-260.909 -77.258)" fill="#747474"/>
  <path id="Trazado_17" data-name="Trazado 17" d="M535.849,120.549c4.535,0,6.875-3.342,6.875-7.352,0-4.058-2.387-7.352-6.875-7.352-4.535,0-6.923,3.342-6.923,7.352s2.387,7.352,6.923,7.352m0-19.049A11.649,11.649,0,1,1,524.2,113.149,11.511,11.511,0,0,1,535.849,101.5" transform="translate(-286.254 -88.18)" fill="#747474"/>
  <path id="Trazado_18" data-name="Trazado 18" d="M224.849,225.1c4.535,0,6.875-3.342,6.875-7.352,0-4.058-2.387-7.352-6.875-7.352-4.535,0-6.923,3.342-6.923,7.352,0,4.058,2.435,7.352,6.923,7.352m0-19A11.649,11.649,0,1,1,213.2,217.749,11.512,11.512,0,0,1,224.849,206.1" transform="translate(-123.731 -142.842)" fill="#747474"/>
  <path id="Trazado_19" data-name="Trazado 19" d="M280.533,210.521c4.535,0,6.636-3.342,6.636-7.352,0-4.058-2.148-7.352-6.636-7.352-4.058,0-6.636,3.342-6.636,7.352-.048,4.058,2.578,7.352,6.636,7.352M269.6,178.677l.477-.477H273.9l.477.477v15.23l.239.239.239-.239a8.565,8.565,0,0,1,5.968-2.387c6.206,0,11.172,4.774,11.172,11.649s-5.013,11.649-11.172,11.649a8.478,8.478,0,0,1-5.968-2.387l-.239-.239-.239.239-.477,1.432-.477.477h-3.342l-.477-.477Z" transform="translate(-153.205 -128.262)" fill="#747474"/>
  <path id="Trazado_20" data-name="Trazado 20" d="M330.857,191.306l.477.477h5.252l.477-.477v-5.729l-.477-.477h-5.252l-.477.477ZM323.7,214.127l.477-.477h7.114v-13.8h-5.252l-.477-.477v-3.342l.477-.477h9.5l.477.477V213.7h6.636l.477.477v3.342l-.477.477H324.077l-.477-.477v-3.39Z" transform="translate(-181.424 -131.868)" fill="#747474"/>
  <path id="Trazado_21" data-name="Trazado 21" d="M377.165,214.794h11.888c-.239-2.483-2.626-4.392-5.729-4.392-3.533.048-5.443,1.91-6.159,4.392m-.239,4.2a6.273,6.273,0,0,0,6.636,6.206,6,6,0,0,0,5.729-3.581h.477l3.294,2.148v.477a11.015,11.015,0,0,1-9.453,5.252,11.461,11.461,0,0,1-11.41-11.649c0-6.875,5.013-11.649,11.172-11.649a10.688,10.688,0,0,1,10.694,11.41l-.477,1.432H376.926Z" transform="translate(-206.822 -142.894)" fill="#747474"/>
  <path id="Trazado_22" data-name="Trazado 22" d="M425.448,207.055l.478-.477h3.342l.477.477.477,1.432.239.239.239-.239a7.771,7.771,0,0,1,5.49-2.387c5.729,0,8.785,3.342,8.785,8.546l-.478.477-3.819.477-.477-.477c0-3.342-1.91-4.774-4.774-4.774a5.3,5.3,0,0,0-5.252,5.061v13.034l-.477.477h-3.819l-.477-.477V207.055Z" transform="translate(-234.623 -142.842)" fill="#747474"/>
  <path id="Trazado_23" data-name="Trazado 23" d="M474.325,206.577h3.581l.478.477.239,1.432.239.239.239-.239a7.906,7.906,0,0,1,5.729-2.387c5.729,0,9.5,3.1,9.5,9.5v12.843l-.477.477h-3.819l-.477-.477V216.078c0-3.819-1.91-5.729-5.252-5.729a5.579,5.579,0,0,0-5.729,5.061v13.034l-.477.477h-3.819l-.477-.477V207.055Z" transform="translate(-259.916 -142.842)" fill="#747474"/>
  <path id="Trazado_24" data-name="Trazado 24" d="M535.849,225.1c4.535,0,6.875-3.342,6.875-7.352,0-4.058-2.387-7.352-6.875-7.352-4.535,0-6.923,3.342-6.923,7.352,0,4.058,2.387,7.352,6.923,7.352m0-19A11.649,11.649,0,1,1,524.2,217.749,11.511,11.511,0,0,1,535.849,206.1" transform="translate(-286.254 -142.842)" fill="#747474"/>
  <path id="Trazado_25" data-name="Trazado 25" d="M59.792,248.4H26.277l-.43.477H25.8V251.5l.477.477H59.792l.477-.477h0v-2.626Z" transform="translate(-25.8 -164.947)" fill="#747474"/>
  <path id="Trazado_26" data-name="Trazado 26" d="M166.638,199.586l-4.2-4.2H144.868l-.477.477v3.772l.477.477H162.1c-.477,6.4-5.777,10.933-12.7,10.933-7.83,0-12.795-5.729-12.795-13.511,0-7.877,4.965-13.606,12.795-13.606a12.608,12.608,0,0,1,10.36,4.87l.668.048,2.674-2.674v-.764a17.538,17.538,0,0,0-13.511-6.206c-10.456,0-18.094,8.068-18.094,18.333,0,10.217,7.591,18.333,17.855,18.333,9.405,0,16.948-7.209,17.569-15.612Z" transform="translate(-81.037 -128.784)" fill="#747474"/>
</svg>
