<svg xmlns="http://www.w3.org/2000/svg" xmlns:xlink="http://www.w3.org/1999/xlink" width="196" height="179" viewBox="0 0 196 179">
  <defs>
    <clipPath id="clip-Footer_segpres">
      <rect width="196" height="179"/>
    </clipPath>
  </defs>
  <g id="Footer_segpres" data-name="Footer segpres" clip-path="url(#clip-Footer_segpres)">
    <rect width="196" height="179" fill="transparent"/>
    <g id="Grupo_372" data-name="Grupo 372" transform="translate(2.783 3)">
      <g id="Grupo_370" data-name="Grupo 370" transform="translate(0 0)">
        <g id="Grupo_364" data-name="Grupo 364">
          <path id="Trazado_925" data-name="Trazado 925" d="M275.215,404.339a6.817,6.817,0,0,1-3.052.752c-2.447,0-3.6-1.719-3.6-4.31,0-2.482,1.232-4.164,3.79-4.164a4.583,4.583,0,0,1,2.686.726l-.678,1.2a3.649,3.649,0,0,0-2-.522c-1.465,0-2.131,1.113-2.131,2.735,0,1.927.7,2.98,2.082,2.98a3.455,3.455,0,0,0,1.428-.29v-1.5h-1.126l-.085-1.178h2.678Z" transform="translate(-182.464 -243.347)" fill="#fff"/>
          <path id="Trazado_926" data-name="Trazado 926" d="M287.181,403.594c0,2.02-1.02,3.1-2.787,3.1s-2.786-1.066-2.786-3.1c0-1.745.97-3.077,2.786-3.077a2.767,2.767,0,0,1,2.787,3.077m-1.626,0c0-1.429-.423-1.928-1.161-1.928s-1.15.509-1.15,1.928c0,1.38.374,1.934,1.15,1.934s1.161-.518,1.161-1.934" transform="translate(-187.815 -244.947)" fill="#fff"/>
          <path id="Trazado_927" data-name="Trazado 927" d="M294.53,399.643a2.091,2.091,0,0,1,1.572-.726c1.394,0,2.4.994,2.4,3.077,0,2.045-1.21,3.1-2.591,3.1a1.952,1.952,0,0,1-1.719-.837l-.29.715h-.846v-8.352h1.585v2.069Zm.109,3.682a1.43,1.43,0,0,0,1.077.6c.689,0,1.2-.506,1.2-1.935s-.449-1.915-1.175-1.915a1.676,1.676,0,0,0-1.1.473Z" transform="translate(-192.511 -243.347)" fill="#fff"/>
          <path id="Trazado_928" data-name="Trazado 928" d="M304.674,404.97V400.2l-.678-.144v-1.017h2.251v5.931Zm-.048-8.352h1.6v1.439h-1.6Z" transform="translate(-197.001 -243.347)" fill="#fff"/>
          <path id="Trazado_929" data-name="Trazado 929" d="M311.448,404.029a1.346,1.346,0,0,0,1.527,1.465,4.052,4.052,0,0,0,1.731-.509l.3,1.115a4.769,4.769,0,0,1-2.227.593c-1.853,0-2.931-1.139-2.931-3.1,0-1.829.873-3.076,2.772-3.076,1.793,0,2.507,1.331,2.507,2.823v.689Zm1.1-2.35c-.785,0-1.1.714-1.1,1.416h2.167c0-.761-.24-1.416-1.066-1.416" transform="translate(-199.403 -244.947)" fill="#fff"/>
          <path id="Trazado_930" data-name="Trazado 930" d="M324.2,401.966a2.639,2.639,0,0,0-.74-.095,1.705,1.705,0,0,0-1.065.4v4.307h-1.574v-5.931h1.1c.06.277.122.534.171.8h.048a1.584,1.584,0,0,1,1.414-.907,2.5,2.5,0,0,1,.679.086c-.013.448-.013.9-.035,1.342" transform="translate(-203.903 -244.956)" fill="#fff"/>
          <path id="Trazado_931" data-name="Trazado 931" d="M331.845,406.57v-3.523c0-.9-.342-1.318-1.065-1.318a1.929,1.929,0,0,0-1.043.363v4.478h-1.586v-5.931h1.09l.242.677a2.459,2.459,0,0,1,1.878-.8c1.5,0,2.092.884,2.092,2.386v3.666Z" transform="translate(-206.912 -244.947)" fill="#fff"/>
          <path id="Trazado_932" data-name="Trazado 932" d="M344.5,403.594c0,2.02-1.019,3.1-2.788,3.1s-2.784-1.066-2.784-3.1c0-1.745.971-3.077,2.784-3.077a2.766,2.766,0,0,1,2.788,3.077m-1.622,0c0-1.429-.427-1.928-1.166-1.928s-1.146.509-1.146,1.928c0,1.38.374,1.934,1.146,1.934s1.166-.518,1.166-1.934" transform="translate(-211.336 -244.947)" fill="#fff"/>
          <path id="Trazado_933" data-name="Trazado 933" d="M358.621,399.5a3.524,3.524,0,0,1-.15-1.09v-1.791h1.577v8.351h-1.285l-.182-.652a1.925,1.925,0,0,1-1.574.775c-1.345,0-2.422-.968-2.422-3.087,0-1.961,1.114-3.088,2.556-3.088a1.932,1.932,0,0,1,1.479.582m-.15.9a2.1,2.1,0,0,0-1.076-.291c-.75,0-1.224.511-1.224,1.891,0,1.416.451,1.947,1.2,1.947a1.549,1.549,0,0,0,1.1-.508Z" transform="translate(-217.759 -243.347)" fill="#fff"/>
          <path id="Trazado_934" data-name="Trazado 934" d="M367.483,404.029a1.345,1.345,0,0,0,1.524,1.465,4.08,4.08,0,0,0,1.735-.509l.3,1.115a4.772,4.772,0,0,1-2.227.593c-1.853,0-2.93-1.139-2.93-3.1,0-1.829.87-3.076,2.772-3.076,1.792,0,2.506,1.331,2.506,2.823v.689Zm1.1-2.35c-.787,0-1.1.714-1.1,1.416h2.166c0-.761-.241-1.416-1.066-1.416" transform="translate(-222.395 -244.947)" fill="#fff"/>
          <path id="Trazado_935" data-name="Trazado 935" d="M384.608,405.092c-2.3,0-3.523-1.549-3.523-4.272,0-2.509,1.211-4.2,3.523-4.2a5.126,5.126,0,0,1,2.784.689l-.606,1.258a3.523,3.523,0,0,0-2.01-.557c-1.356,0-2.032,1.006-2.032,2.8,0,1.889.676,2.894,2.006,2.894a3.8,3.8,0,0,0,2.159-.75l.507,1.273a4.828,4.828,0,0,1-2.807.87" transform="translate(-228.631 -243.347)" fill="#fff"/>
          <path id="Trazado_936" data-name="Trazado 936" d="M393.672,404.97v-8.352h1.586v2.192a3.6,3.6,0,0,1-.155.917,2.045,2.045,0,0,1,1.678-.81c1.711,0,2.194.885,2.194,2.386v3.666h-1.608v-3.523a.606.606,0,0,0-.087-.362.89.89,0,0,0-.978-.956,1.935,1.935,0,0,0-1.044.363v4.478Z" transform="translate(-233.796 -243.347)" fill="#fff"/>
          <path id="Trazado_937" data-name="Trazado 937" d="M405.2,404.97V400.2l-.679-.144v-1.017h2.251v5.931Zm-.05-8.352h1.6v1.439h-1.6Z" transform="translate(-238.245 -243.347)" fill="#fff"/>
          <path id="Trazado_938" data-name="Trazado 938" d="M410.784,403.4v-6.779h1.56v6.694c0,.5.3.571.955.571V405a5.008,5.008,0,0,1-.87.1c-1.211,0-1.645-.641-1.645-1.7" transform="translate(-240.817 -243.347)" fill="#fff"/>
          <path id="Trazado_939" data-name="Trazado 939" d="M418.009,404.029a1.345,1.345,0,0,0,1.524,1.465,4.055,4.055,0,0,0,1.732-.509l.3,1.115a4.761,4.761,0,0,1-2.225.593c-1.853,0-2.931-1.139-2.931-3.1,0-1.829.873-3.076,2.774-3.076,1.792,0,2.506,1.331,2.506,2.823v.689Zm1.1-2.35c-.788,0-1.1.714-1.1,1.416h2.167c0-.761-.244-1.416-1.066-1.416" transform="translate(-243.126 -244.947)" fill="#fff"/>
          <path id="Trazado_940" data-name="Trazado 940" d="M309.373,136.7H122.553v2.948l0,167.2v2.948H312.325v-2.948l0-167.2V136.7ZM125.5,139.648h73.853l0,167.2H125.5Zm183.875,167.2H202.307l0-167.2H309.373Z" transform="translate(-122.553 -136.7)" fill="#fff"/>
        </g>
        <g id="Grupo_369" data-name="Grupo 369" transform="translate(11.282 11.346)">
          <g id="Grupo_368" data-name="Grupo 368">
            <g id="Grupo_367" data-name="Grupo 367">
              <path id="Trazado_941" data-name="Trazado 941" d="M185.313,170.468a.734.734,0,0,0,.233-1c-.134-.266-.487-.291-.334-.324,1.889-.443,2.9-3.2,2.84-4.257a3.758,3.758,0,0,0,4.729-.193c1.021-.983,1.513-3.566-.233-4.86a3.079,3.079,0,0,0-3.466.048,1.756,1.756,0,0,0-1.44-.906,3.49,3.49,0,0,0-.714-2.235c-.945-1.03-3.6-1.107-4.562.019-1.908-.478-4.384.4-4.246,3.388a5.55,5.55,0,0,0-2.815-.474,3.3,3.3,0,0,0-1.864,1.067,4.764,4.764,0,0,0-.415.659,3.118,3.118,0,0,0,1.071,4,5,5,0,0,0,2.895.427,2.146,2.146,0,0,0,1.186-.655c.123-.126.213-.327.393-.33a2.337,2.337,0,0,0,1.5,2.381c.007.068.03.134.046.237a2.16,2.16,0,0,0,1.852,1.863.761.761,0,0,0-.2,1.139,5.174,5.174,0,0,1,3.547,0Z" transform="translate(-154.407 -155.941)" fill="#fff"/>
              <g id="Grupo_366" data-name="Grupo 366" transform="translate(0 6.009)">
                <path id="Trazado_942" data-name="Trazado 942" d="M186.947,183.939l-1.193,3.943h-4.249l.013,0,3.443,2.464-1.316,3.9,3.3-2.507,3.305,2.507-1.318-3.9,3.444-2.467.008,0H188.14Z" transform="translate(-158.023 -173.438)" fill="none"/>
                <path id="Trazado_943" data-name="Trazado 943" d="M191.949,186.723a5.9,5.9,0,0,1,1.344-3.522.537.537,0,0,0,.151-.423.434.434,0,0,0-.2-.31c-.38-.257-1.235-.781-1.235-.781l-.068-.06h-.073c-.093,0-.163.055-.281.144a2.205,2.205,0,0,1-1.445.522,3.165,3.165,0,0,1-.423-.032,4.686,4.686,0,0,1-1.074-.4c-.221-.115-.494-.235-.606-.285l-.049-.019a5.6,5.6,0,0,0-4.6,0l-.051.019-.276.126-.671.318a3.122,3.122,0,0,1-.733.24,3.049,3.049,0,0,1-.422.032,2.22,2.22,0,0,1-1.446-.522c-.117-.088-.19-.144-.278-.144l-.067.007-.04.027s-.877.54-1.24.79a.462.462,0,0,0-.225.33.518.518,0,0,0,.151.421,5.935,5.935,0,0,1,1.344,3.552,5.2,5.2,0,0,1-.882,3.168,3.716,3.716,0,0,0,3.645,5.6c.218,0,2.188.036,2.867,1.3.029.05.346.553.471.8l.154.3.149-.3c.129-.245.44-.745.486-.814.667-1.247,2.637-1.283,2.856-1.283a3.714,3.714,0,0,0,3.643-5.6A5.236,5.236,0,0,1,191.949,186.723Zm-1.034-.019-3.444,2.467,1.318,3.9-3.306-2.507-3.3,2.507,1.316-3.9-3.443-2.464-.013,0h4.249l1.192-3.943,1.193,3.943h4.246Z" transform="translate(-156.56 -172.258)" fill="#fff"/>
                <g id="Grupo_365" data-name="Grupo 365">
                  <path id="Trazado_944" data-name="Trazado 944" d="M171.191,221.138c1.873,1.927,4.6.858,4.6.858.433-.064.659-1.4.771-2.435a39.441,39.441,0,0,1-4.726-.889A10.443,10.443,0,0,0,171.191,221.138Z" transform="translate(-153.791 -187.689)" fill="none"/>
                  <path id="Trazado_945" data-name="Trazado 945" d="M163.962,205.7a.514.514,0,0,0-.208-.13c-.238-.042-.4.161-.678.1a27.96,27.96,0,0,1-2.3-1.62,5.788,5.788,0,0,1-1.395-1.089c-.206-.287-.043-.653-.085-1.006a1.441,1.441,0,0,0-.863-1.04,4.507,4.507,0,0,1-3.532,3.309,8.382,8.382,0,0,0,.52,4.456,1.456,1.456,0,0,1,.664.324,2.822,2.822,0,0,1,.17-.893,2.118,2.118,0,0,1,2.43-1.02,1.059,1.059,0,0,1,.722.71c.231,1.174-.742,1.274-.742,1.274-.7.035-.713-.531-.713-.531-.086-.548.692-.576.692-.576-.656-1.15-2.722.737-1.369,2.4.139.167.267.056.267.056,4.069-2.015,4.73-2.872,4.73-2.872a17.647,17.647,0,0,1,2.02-1.577A2.8,2.8,0,0,1,163.962,205.7Z" transform="translate(-147.062 -180.407)" fill="none"/>
                  <path id="Trazado_946" data-name="Trazado 946" d="M203.009,181.476l.245.2C203.163,181.6,203.077,181.531,203.009,181.476Z" transform="translate(-166.847 -172.427)" fill="none"/>
                  <path id="Trazado_947" data-name="Trazado 947" d="M204.926,182.967c-.135-.1-.287-.216-.439-.334.158.122.3.231.439.334Z" transform="translate(-167.453 -172.902)" fill="none"/>
                  <path id="Trazado_948" data-name="Trazado 948" d="M203.665,182c.136.107.259.2.408.317Z" transform="translate(-167.116 -172.64)" fill="none"/>
                  <path id="Trazado_949" data-name="Trazado 949" d="M169.394,220.022a3.858,3.858,0,0,0,.295-.87,6.826,6.826,0,0,1,.387-1.071c-.443-.124-.869-.277-1.3-.417A5.736,5.736,0,0,0,169.394,220.022Z" transform="translate(-152.8 -187.276)" fill="none"/>
                  <path id="Trazado_950" data-name="Trazado 950" d="M202.386,219.567c.111,1.035.337,2.368.77,2.432,0,0,2.722,1.068,4.594-.858a10.44,10.44,0,0,0-.638-2.461A39.551,39.551,0,0,1,202.386,219.567Z" transform="translate(-166.591 -187.692)" fill="none"/>
                  <path id="Trazado_951" data-name="Trazado 951" d="M212.078,219.158a3.912,3.912,0,0,0,.3.87,5.719,5.719,0,0,0,.617-2.349c-.432.14-.857.29-1.3.413A7.084,7.084,0,0,1,212.078,219.158Z" transform="translate(-170.41 -187.281)" fill="none"/>
                  <path id="Trazado_952" data-name="Trazado 952" d="M176.525,213.863a3.07,3.07,0,0,0-2.107.866c1.022.236,2.22.453,3.543.64A1.531,1.531,0,0,0,176.525,213.863Z" transform="translate(-155.116 -185.716)" fill="none"/>
                  <path id="Trazado_953" data-name="Trazado 953" d="M206.142,212.97c.817-.2,1.553-.407,2.131-.59a4.128,4.128,0,0,0-.422-.688,5.654,5.654,0,0,0-6.447-1.225c-.086.028.183.7,1.321.947A6.065,6.065,0,0,1,206.142,212.97Z" transform="translate(-166.182 -184.126)" fill="none"/>
                  <path id="Trazado_954" data-name="Trazado 954" d="M203.686,213.863a1.532,1.532,0,0,0-1.44,1.508c1.325-.186,2.526-.4,3.549-.637A3.065,3.065,0,0,0,203.686,213.863Z" transform="translate(-166.534 -185.716)" fill="none"/>
                  <path id="Trazado_955" data-name="Trazado 955" d="M183.86,211.935a1.011,1.011,0,0,0-.727-.418c-.6-.006-.721,1.386-.895,3.036,1.268.146,2.682.233,4.18.273C185.778,213.518,184.377,212.655,183.86,211.935Z" transform="translate(-158.325 -184.754)" fill="none"/>
                  <path id="Trazado_956" data-name="Trazado 956" d="M170.034,211.692a4.135,4.135,0,0,0-.419.682c.577.182,1.314.386,2.132.592a6.066,6.066,0,0,1,3.415-1.553c1.139-.251,1.4-.919,1.32-.947A5.658,5.658,0,0,0,170.034,211.692Z" transform="translate(-153.145 -184.126)" fill="none"/>
                  <path id="Trazado_957" data-name="Trazado 957" d="M196.632,211.518a1.008,1.008,0,0,0-.725.418c-.521.719-1.922,1.582-2.561,2.891,1.5-.038,2.911-.125,4.181-.272C197.354,212.906,197.232,211.512,196.632,211.518Z" transform="translate(-162.882 -184.754)" fill="none"/>
                  <path id="Trazado_958" data-name="Trazado 958" d="M200.107,196.959c-.432-.524-1.576-.263-1.576-.263a1.694,1.694,0,0,0-1.077-2.319,1.479,1.479,0,0,0-1.263.13.146.146,0,0,0-.018.013c-.005.005-.011.007-.011.013a.752.752,0,0,0-.121.1.881.881,0,0,0,1.14,1.331.876.876,0,0,0,.349-.522.857.857,0,0,1,.324.411c.494,1.56-1.262,2.121-1.262,2.121a6.86,6.86,0,0,1-6.246-.837l.678-.362a1.517,1.517,0,0,1,.614-.133.594.594,0,0,0-.013.115.769.769,0,0,0,1.538,0,.71.71,0,0,0-.156-.471c-.452-.683-2.017-.231-2.017-.231a2.818,2.818,0,0,0,.055-2.208,2.119,2.119,0,0,0-2.431-1.02,1.053,1.053,0,0,0-.719.71c-.231,1.174.742,1.274.742,1.274.7.035.708-.531.708-.531.09-.548-.685-.576-.685-.576.653-1.15,2.716.737,1.367,2.4-.14.167-.269.056-.269.056a27.343,27.343,0,0,1-4.2-2.418c-.057-.657-.632-.99-.522-1.165.095-.039.436.132.626-.153.07-.1.228-1.144.356-1.881a6.809,6.809,0,0,0,4.325.561.5.5,0,0,0,.341-.491c.034-.813-2.073-5.6-2.132-7.284,1,.493,1.61-1.043,1.79-1.512,1.338.61,1.8,13.023,2.828,13.441.515.209.718-.636.765-.793a40.742,40.742,0,0,0,1.6-12.727,34.693,34.693,0,0,0-1.077-7.695c-.419-1.434-1.23-4.363-3.124-4.762a1.346,1.346,0,0,0-1.543,1.38c.014.643.458.954.261,1.585a5.407,5.407,0,0,0-.59,1.325c-.114.461.3.65.163,1.139-.6-.09-.9.435-1.84.195.614-.285.622-2.034-.13-2.334-.113-.047-.24-.063-.261-.165a2.408,2.408,0,0,0,.364-.509,2.342,2.342,0,0,0,.086-2.254c.311.027.636-.545.679-1l.007,0c0-.005,0-.027,0-.037v0a2.133,2.133,0,0,1,.167-.893.245.245,0,0,0-.1-.317.241.241,0,0,0-.311.12c-.186.392-.629.174-.441-.219a.24.24,0,0,0-.107-.314.233.233,0,0,0-.307.115c-.178.377-.609.166-.431-.211a.228.228,0,1,0-.411-.2c-.183.387-.631.173-.446-.213a.245.245,0,0,0-.1-.32.239.239,0,0,0-.306.117,1.851,1.851,0,0,1-.541.747c-.419.074-.308.555-.258.882a1.132,1.132,0,0,0-1.4.963h-.088c-.647.015-1.267.351-1.218.947a1.045,1.045,0,0,0,.571.765c.07-.022-.035-.359.3-.38a.882.882,0,0,1,.82.536c.067.332-.206,1.133.852,1.251,0,0-.008.163-.024.334a2.918,2.918,0,0,0-.854.012c-.668.107-1.583.482-1.806,1.145a1.3,1.3,0,0,0-.043.5c.014.136.139.3.123.471a.869.869,0,0,1-.208.3,2.058,2.058,0,0,1-1.251.593,1.526,1.526,0,0,1-1.194-.572c-.672-.9.2-2.465.185-3.048-.039-1.55-2-.627-2.772-.223a7.618,7.618,0,0,0-2.28,2.035,6.561,6.561,0,0,0-.912,1.4c-.034.083-.108.1-.19.094a4.742,4.742,0,0,0,1.65.447,2.644,2.644,0,0,0,1.856-.5.44.44,0,0,1,.267-.1.432.432,0,0,1,.3.127c.008.011.107.09.223.183.068.055.154.123.245.2l.142.111.408.317.077.059c.152.117.3.233.439.334h0c.159.12.311.232.4.292l.007.007a.2.2,0,0,1,.068.109.3.3,0,0,1-.075.193s-.085.094-.209.251a8.09,8.09,0,0,0-1.032,1.764,2.386,2.386,0,0,0,1.86,1.4.973.973,0,0,0,1.1-.8c.012.01.05.057.055.059.085-.076.472,2.023.984,2.592-.479.222-1.221.975-.818,3.046a18.8,18.8,0,0,1-1.469-1.225,2.227,2.227,0,0,0-1.787-1.539,9.069,9.069,0,0,0,.792,1.755,5.027,5.027,0,0,1,.5,2.826c.491-.5.416-1.885.416-1.885a.435.435,0,0,1,.108-.046c.1-.007.593.952,1.442,1.153a10.97,10.97,0,0,0,3.553,3.853c-.022.458.034,1.549-.261,1.549-.947.21-1.82-.428-2.654-.385-.071-.034-.144-.068-.144-.068-3.589-1.728-8.319,1.982-9.108,2.7-.416.383-.9-.139-.9-.139a1.324,1.324,0,0,0-2.035,0s-.482.522-.9.139c-.746-.682-5.034-4-8.539-2.869-.009-.192-.481-.289-.614-.338a3.635,3.635,0,0,1-.7-.386,4.827,4.827,0,0,0-1.437-.124,1.76,1.76,0,0,1-.557-.2,5.391,5.391,0,0,1-1.559-1.274c-.057-.083-.2-.274-.225-.306a2.275,2.275,0,0,1-.394-.743,5.347,5.347,0,0,1,.208-2.135c.075-.519.058-.553.1-1.109A6.591,6.591,0,0,0,159,181c.05-.07.188-.353.188-.353.1.014.2.022.3.027.89.006,1.488-.491,2.462-.373,0,.054.131.463.762.722a3.9,3.9,0,0,0,.307,1.661c.054.086.12.159.169.231a6.687,6.687,0,0,0,.538-2.307.465.465,0,0,1-.074-.192,2.078,2.078,0,0,0-1.189-1.655,5.7,5.7,0,0,1-.718-.33,2.614,2.614,0,0,1-.942-.937,2.6,2.6,0,0,0,.235-.26,5.463,5.463,0,0,0,1.16-2.657c.476-.65,1.8-.4,2.3-.3a1.085,1.085,0,0,1,.451.143c.142.1.174.323.372.407a1.528,1.528,0,0,0,.7,0,1.792,1.792,0,0,1,.209.384,1.474,1.474,0,0,0,.2.261,5.031,5.031,0,0,0,1.8-.515.318.318,0,0,1-.1-.081,2.08,2.08,0,0,0-1.084-.806c-.492-.081-.595-.521-1.066-.615a1.843,1.843,0,0,0-.679-.044,12.094,12.094,0,0,1-2.752-.329c-.926-.065-.955.567-1.293,1.089a3.269,3.269,0,0,1-.427.574c-.255.246-.552.256-.862.49l-.143-.385a3.181,3.181,0,0,0-.415-.967,3.316,3.316,0,0,0-2.2-1.658,1.128,1.128,0,0,1-.387-.213.19.19,0,0,1,0-.327c.318-.183.868-.119,1.23-.285.891-.415.576-1.171.228-1.232a8.2,8.2,0,0,1-1.418-.391c-.215-.136-.591-.816-.945-.982-.39-.106-.256-.745-.617-.885a1.2,1.2,0,0,0-.638.179c-.015-.133-.111-.86-.511-1.1-.3-.171-.408.095-.395.269.017.154.439.368.518,1.054-.072.047-.142.086-.215.138a1.371,1.371,0,0,0-.476-.895c-.3-.172-.408.095-.393.267.014.148.385.341.5.92-.09.073-.172.147-.255.223-.6-.165-.76-.571-.91-.6-.168-.037-.442.049-.3.364a1.4,1.4,0,0,0,.869.57c-.061.066-.112.131-.166.2-.694-.139-.864-.592-1.019-.627-.17-.031-.446.054-.3.366.2.442.988.612,1.063.627a.765.765,0,0,0-.158.484c-.54-.063-1.5.228-1.318.866.179.129.817-.392,1.4-.1a2.143,2.143,0,0,0,1.149.738c.216.172.251.481.35.761a6.283,6.283,0,0,0,.84,1.4c.332.5.679,1.035,1.027,1.476a.873.873,0,0,1,.059.432,13.34,13.34,0,0,1-2.072,1.825c-.492.463-5.142,4-5.726,5.545a3.267,3.267,0,0,0-.185,1.25c-.284.151-.907.4-1.1.119-.36-.5.341-.877.188-1.359a.369.369,0,0,0-.515-.186,1.565,1.565,0,0,0,.172,2.636c.805.334.922-.533,1.546-.182.149.085,1.625,1.4,1.376,2.445a1.255,1.255,0,0,1-.1.244c-.324.4-.863.711-1.231,1.089-.768.486.729,3.547.6,5.117-.087.6.5.527.853,1.462a1.082,1.082,0,0,0-.9.373.688.688,0,0,0-.153.471.766.766,0,0,0,1.533,0,.619.619,0,0,0-.008-.115,1.519,1.519,0,0,1,.616.133l.676.362a6.856,6.856,0,0,1-6.243.837s-1.757-.56-1.265-2.121a.852.852,0,0,1,.325-.411.878.878,0,0,0,.348.522.894.894,0,0,0,.506.159.882.882,0,0,0,.635-1.49.757.757,0,0,0-.121-.1.008.008,0,0,0,0-.008l-.018-.014a1.479,1.479,0,0,0-1.27-.134,1.7,1.7,0,0,0-1.077,2.319s-1.142-.261-1.573.263a.642.642,0,0,0-.136.433v.018a.935.935,0,0,0,.123.374.667.667,0,0,0,.544.285.676.676,0,0,0,.517-.246c0-.007,0-.007,0-.007.047-.059.187-.14.393.074,2.568,2.678,6.757,1.573,9.08-.221a14.1,14.1,0,0,1,2.722-2.09c.559.241,1.152.419,1.729.627a5.571,5.571,0,0,0,1.06,3.414,1.255,1.255,0,0,1-1.761.546.914.914,0,0,1-.121-1.388s.465-.387.666.1a.454.454,0,0,0-.429.451.448.448,0,0,0,.895.025,1.1,1.1,0,0,0-.367-.984,1.158,1.158,0,0,0-1.018-.276c-.975.152-1.526,2.191.4,3.036,0,0,1.513.689,2.293-.44,0,0-.012-.163.281.117,1.6,1.553,5.177,1.1,6.6.046a8.217,8.217,0,0,1,.753-.414,1.113,1.113,0,1,0,1.306-1.127,2.345,2.345,0,0,0-1.771.419,7.764,7.764,0,0,1-1.033.582,6.412,6.412,0,0,0,.757-2.2c1.559.172,3.16.285,4.817.321a4.7,4.7,0,0,1-.272,1.521s-.585.242-.6.655c0,0-.065.3.455.719a2.854,2.854,0,0,1,.489.745s.03.453.655.453a.531.531,0,0,0,.118-.013.629.629,0,0,0,.121.013c.624,0,.655-.453.655-.453a2.89,2.89,0,0,1,.489-.745c.519-.417.454-.719.454-.719-.01-.413-.6-.655-.6-.655a4.73,4.73,0,0,1-.271-1.52c1.658-.035,3.259-.148,4.817-.318a6.379,6.379,0,0,0,.757,2.2,7.9,7.9,0,0,1-1.03-.582,2.361,2.361,0,0,0-1.778-.419,1.115,1.115,0,1,0,1.308,1.127,8.077,8.077,0,0,1,.755.414c1.415,1.056,5,1.507,6.6-.046.292-.281.279-.117.279-.117.781,1.129,2.3.44,2.3.44,1.921-.845,1.369-2.884.4-3.036a1.172,1.172,0,0,0-1.024.276,1.1,1.1,0,0,0-.364.984.448.448,0,0,0,.895-.025.454.454,0,0,0-.428-.451c.2-.485.665-.1.665-.1a.913.913,0,0,1-.124,1.388,1.255,1.255,0,0,1-1.76-.546,5.57,5.57,0,0,0,1.062-3.407c.58-.208,1.175-.389,1.735-.63a14.1,14.1,0,0,1,2.715,2.086c2.322,1.794,6.51,2.9,9.081.221.206-.215.346-.133.391-.074a.006.006,0,0,1,.006.007.664.664,0,0,0,1.061-.04,1,1,0,0,0,.123-.374v-.018A.651.651,0,0,0,200.107,196.959Zm-47.941-.806s-.127.111-.267-.056c-1.353-1.661.712-3.547,1.369-2.4,0,0-.777.028-.692.576,0,0,.014.566.713.531,0,0,.973-.1.742-1.274a1.059,1.059,0,0,0-.722-.71,2.118,2.118,0,0,0-2.43,1.02,2.822,2.822,0,0,0-.17.893,1.456,1.456,0,0,0-.664-.324,8.382,8.382,0,0,1-.52-4.456,4.507,4.507,0,0,0,3.532-3.309,1.441,1.441,0,0,1,.863,1.04c.042.353-.121.719.085,1.006a5.787,5.787,0,0,0,1.395,1.089,27.966,27.966,0,0,0,2.3,1.62c.274.057.44-.146.678-.1a.513.513,0,0,1,.208.13,2.8,2.8,0,0,0,.332.277,17.648,17.648,0,0,0-2.02,1.577S156.236,194.138,152.167,196.153Zm6.407,1.854a3.859,3.859,0,0,1-.295.87,5.736,5.736,0,0,1-.619-2.358c.432.14.858.293,1.3.417A6.821,6.821,0,0,0,158.574,198.007Zm5.106,2.431s-2.723,1.069-4.6-.858a10.443,10.443,0,0,1,.64-2.466,39.437,39.437,0,0,0,4.726.889C164.339,199.039,164.113,200.374,163.68,200.438Zm-2.693-5.294a3.07,3.07,0,0,1,2.107-.866,1.531,1.531,0,0,1,1.437,1.506C163.207,195.6,162.009,195.38,160.987,195.144Zm2.715-1.725a6.066,6.066,0,0,0-3.415,1.553c-.818-.206-1.556-.41-2.132-.592a4.137,4.137,0,0,1,.419-.682,5.658,5.658,0,0,1,6.449-1.225C165.1,192.5,164.841,193.169,163.7,193.419Zm1.9,2.512c.174-1.649.3-3.042.895-3.036a1.011,1.011,0,0,1,.727.417c.517.719,1.918,1.582,2.559,2.891C168.282,196.165,166.868,196.077,165.6,195.931Zm6.55.273c.639-1.309,2.04-2.172,2.561-2.891a1.008,1.008,0,0,1,.725-.417c.6-.006.722,1.388.895,3.037C175.06,196.079,173.647,196.166,172.149,196.2Zm4.757-3.732a5.654,5.654,0,0,1,6.447,1.225,4.131,4.131,0,0,1,.422.688c-.577.182-1.314.385-2.131.59a6.065,6.065,0,0,0-3.418-1.556C177.089,193.169,176.82,192.5,176.906,192.472Zm1.931,1.806a3.065,3.065,0,0,1,2.109.871c-1.024.235-2.224.452-3.549.637A1.532,1.532,0,0,1,178.837,194.278Zm-.587,6.16c-.433-.064-.659-1.4-.77-2.432a39.547,39.547,0,0,0,4.726-.887,10.44,10.44,0,0,1,.638,2.461C180.972,201.507,178.25,200.438,178.25,200.438Zm5.4-1.561a3.911,3.911,0,0,1-.3-.87,7.088,7.088,0,0,0-.384-1.067c.441-.123.867-.272,1.3-.413A5.72,5.72,0,0,1,183.65,198.877Z" transform="translate(-141.685 -166.131)" fill="#fff"/>
                </g>
              </g>
            </g>
          </g>
        </g>
      </g>
      <g id="Grupo_371" data-name="Grupo 371" transform="translate(86.332 11.328)">
        <path id="Trazado_959" data-name="Trazado 959" d="M278.477,166.65l-.214-8.74H278.2c-.184,1.1-.368,1.9-.507,2.5l-1.471,6.24h-2.959l-1.411-6.24c-.137-.6-.321-1.4-.521-2.5h-.061l-.139,8.74h-1.84l.4-10.35h3.45s1.134,5.213,1.733,8.556h.046c.69-3.328,2.039-8.556,2.039-8.556h3.389l.4,10.35Z" transform="translate(-269.094 -156.07)" fill="#fff"/>
        <path id="Trazado_960" data-name="Trazado 960" d="M292.085,166.49v-6.071l-.874-.185v-1.257h2.867v7.513Zm-.061-10.58h2.024v1.825h-2.024Z" transform="translate(-278.087 -155.91)" fill="#fff"/>
        <path id="Trazado_961" data-name="Trazado 961" d="M303.817,168.517v-4.462c0-1.135-.429-1.671-1.35-1.671a2.429,2.429,0,0,0-1.319.461v5.673h-2.008V161h1.38l.306.859a3.119,3.119,0,0,1,2.377-1.012c1.9,0,2.652,1.119,2.652,3.021v4.646Z" transform="translate(-281.341 -157.937)" fill="#fff"/>
        <path id="Trazado_962" data-name="Trazado 962" d="M313.742,166.49v-6.071l-.874-.185v-1.257h2.867v7.513Zm-.061-10.58H315.7v1.825h-2.024Z" transform="translate(-286.973 -155.91)" fill="#fff"/>
        <path id="Trazado_963" data-name="Trazado 963" d="M322.4,162.981c0,1.165,3.25.813,3.25,3.266,0,1.365-1.012,2.422-2.959,2.422a4.771,4.771,0,0,1-2.254-.551l.414-1.4a3.493,3.493,0,0,0,1.779.521c.659,0,1.1-.368,1.1-.828,0-1.349-3.2-.9-3.2-3.465,0-1.1.843-2.1,2.866-2.1a6,6,0,0,1,2.116.369l-.276,1.456a4.49,4.49,0,0,0-1.809-.383C322.734,162.291,322.4,162.552,322.4,162.981Z" transform="translate(-290.077 -157.937)" fill="#fff"/>
        <path id="Trazado_964" data-name="Trazado 964" d="M334.342,167.421c-1.333,0-2.208-.628-2.208-2.514v-3.726h-1.119v-1.426h1.119v-1.3l1.978-.644v1.947h2.008v1.426h-2.008v3.68a.752.752,0,0,0,.8.859,2.706,2.706,0,0,0,1.151-.276l.307,1.472A4.317,4.317,0,0,1,334.342,167.421Z" transform="translate(-294.419 -156.689)" fill="#fff"/>
        <path id="Trazado_965" data-name="Trazado 965" d="M343.138,165.3a1.7,1.7,0,0,0,1.932,1.855,5.031,5.031,0,0,0,2.208-.628l.383,1.41a6.154,6.154,0,0,1-2.836.736c-2.315,0-3.7-1.441-3.7-3.925,0-2.315,1.12-3.894,3.527-3.894,2.269,0,3.158,1.687,3.158,3.572v.875Zm1.411-2.975c-1,0-1.411.9-1.411,1.794h2.745C345.882,163.15,345.591,162.322,344.549,162.322Z" transform="translate(-298.569 -157.937)" fill="#fff"/>
        <path id="Trazado_966" data-name="Trazado 966" d="M359.292,162.685a3.4,3.4,0,0,0-.935-.123,2.165,2.165,0,0,0-1.349.506v5.459h-1.993v-7.513h1.395l.215,1.012h.047a2.011,2.011,0,0,1,1.794-1.15,3.394,3.394,0,0,1,.874.108Z" transform="translate(-304.266 -157.948)" fill="#fff"/>
        <path id="Trazado_967" data-name="Trazado 967" d="M364.754,166.49v-6.071l-.875-.185v-1.257h2.867v7.513Zm-.062-10.58h2.024v1.825h-2.024Z" transform="translate(-307.903 -155.91)" fill="#fff"/>
        <path id="Trazado_968" data-name="Trazado 968" d="M378.368,164.744c0,2.561-1.288,3.925-3.527,3.925-2.254,0-3.526-1.349-3.526-3.925,0-2.208,1.226-3.894,3.526-3.894C377.111,160.85,378.368,162.537,378.368,164.744Zm-2.055,0c0-1.809-.537-2.438-1.472-2.438s-1.457.644-1.457,2.438c0,1.748.475,2.453,1.457,2.453S376.313,166.538,376.313,164.744Z" transform="translate(-310.954 -157.937)" fill="#fff"/>
        <path id="Trazado_969" data-name="Trazado 969" d="M272.329,193.2a5.681,5.681,0,0,1-3.374-1.1l.767-1.579a4.439,4.439,0,0,0,2.638,1,1.433,1.433,0,0,0,1.594-1.364c0-2.192-4.784-1.1-4.784-4.753,0-1.564,1.227-2.852,3.649-2.852a6.542,6.542,0,0,1,3.082.705l-.675,1.61a5.074,5.074,0,0,0-2.438-.567c-.935,0-1.548.307-1.548,1.073,0,1.856,4.815,1.135,4.815,4.661C276.054,191.663,274.69,193.2,272.329,193.2Z" transform="translate(-268.955 -166.837)" fill="#fff"/>
        <path id="Trazado_970" data-name="Trazado 970" d="M285.107,191.8a1.7,1.7,0,0,0,1.932,1.855,5.03,5.03,0,0,0,2.208-.628l.383,1.41a6.155,6.155,0,0,1-2.837.736c-2.315,0-3.694-1.441-3.694-3.925,0-2.315,1.119-3.894,3.526-3.894,2.269,0,3.158,1.686,3.158,3.572v.875Zm1.411-2.975c-1,0-1.411.9-1.411,1.794h2.744C287.852,189.65,287.561,188.822,286.518,188.822Z" transform="translate(-274.758 -168.81)" fill="#fff"/>
        <path id="Trazado_971" data-name="Trazado 971" d="M302.86,194.51a5.812,5.812,0,0,1-2.576.659c-2.238,0-3.588-1.273-3.588-3.909,0-2.454,1.349-3.91,3.572-3.91a5.084,5.084,0,0,1,2.576.614l-.521,1.364a3.737,3.737,0,0,0-1.886-.46c-1.043,0-1.7.705-1.7,2.392s.629,2.391,1.717,2.391a4.377,4.377,0,0,0,2.039-.567Z" transform="translate(-280.338 -168.81)" fill="#fff"/>
        <path id="Trazado_972" data-name="Trazado 972" d="M313.663,189.185a3.4,3.4,0,0,0-.935-.123,2.165,2.165,0,0,0-1.349.506v5.459h-1.993v-7.513h1.395l.215,1.012h.047a2.011,2.011,0,0,1,1.794-1.15,3.392,3.392,0,0,1,.874.108Z" transform="translate(-285.544 -168.821)" fill="#fff"/>
        <path id="Trazado_973" data-name="Trazado 973" d="M319.556,191.8a1.7,1.7,0,0,0,1.932,1.855,5.031,5.031,0,0,0,2.208-.628l.383,1.41a6.155,6.155,0,0,1-2.836.736c-2.315,0-3.7-1.441-3.7-3.925,0-2.315,1.12-3.894,3.527-3.894,2.269,0,3.158,1.686,3.158,3.572v.875Zm1.411-2.975c-1,0-1.411.9-1.411,1.794H322.3C322.3,189.65,322.01,188.822,320.968,188.822Z" transform="translate(-288.893 -168.81)" fill="#fff"/>
        <path id="Trazado_974" data-name="Trazado 974" d="M333.849,193.921c-1.333,0-2.208-.628-2.208-2.514v-3.726h-1.119v-1.426h1.119v-1.3l1.978-.644v1.947h2.008v1.426H333.62v3.68a.752.752,0,0,0,.8.859,2.7,2.7,0,0,0,1.15-.276l.307,1.472A4.317,4.317,0,0,1,333.849,193.921Z" transform="translate(-294.217 -167.562)" fill="#fff"/>
        <path id="Trazado_975" data-name="Trazado 975" d="M345.775,195.017l-.275-.889a2.7,2.7,0,0,1-2.193,1.042,2.331,2.331,0,0,1-2.514-2.407c0-1.4,1.027-2.223,2.836-2.223h1.58v-.383c0-.966-.553-1.273-1.319-1.273a5.422,5.422,0,0,0-2.254.507l-.506-1.426a7.571,7.571,0,0,1,2.959-.614c2.131,0,3.052.981,3.052,2.9v4.768Zm-.567-3.282h-1.242c-.828,0-1.211.4-1.211.966a1,1,0,0,0,1.119,1.1,2.247,2.247,0,0,0,1.334-.506Z" transform="translate(-298.43 -168.81)" fill="#fff"/>
        <path id="Trazado_976" data-name="Trazado 976" d="M358.772,189.185a3.393,3.393,0,0,0-.935-.123,2.166,2.166,0,0,0-1.349.506v5.459h-1.993v-7.513h1.4l.215,1.012h.046a2.012,2.012,0,0,1,1.794-1.15,3.389,3.389,0,0,1,.874.108Z" transform="translate(-304.053 -168.821)" fill="#fff"/>
        <path id="Trazado_977" data-name="Trazado 977" d="M362.856,184.076l-.2-1.15,3.88-1.089.261,1.472Zm1.089,8.678v-6.071l-.874-.185v-1.257h2.867v7.513Z" transform="translate(-307.402 -166.549)" fill="#fff"/>
        <path id="Trazado_978" data-name="Trazado 978" d="M375.752,195.017l-.276-.889a2.692,2.692,0,0,1-2.192,1.042,2.331,2.331,0,0,1-2.514-2.407c0-1.4,1.027-2.223,2.836-2.223h1.579v-.383c0-.966-.551-1.273-1.318-1.273a5.423,5.423,0,0,0-2.254.507l-.506-1.426a7.574,7.574,0,0,1,2.96-.614c2.131,0,3.051.981,3.051,2.9v4.768Zm-.567-3.282h-1.241c-.829,0-1.212.4-1.212.966a1,1,0,0,0,1.119,1.1,2.244,2.244,0,0,0,1.334-.506Z" transform="translate(-310.73 -168.81)" fill="#fff"/>
        <path id="Trazado_979" data-name="Trazado 979" d="M277.461,218.776a8.606,8.606,0,0,1-3.741.919c-3.082,0-4.662-2.146-4.662-5.427,0-3.143,1.58-5.228,4.8-5.228a5.974,5.974,0,0,1,3.4.9l-.843,1.533a4.592,4.592,0,0,0-2.53-.659c-1.871,0-2.714,1.365-2.714,3.42,0,2.437.9,3.74,2.683,3.74a4.139,4.139,0,0,0,1.748-.321v-1.917H274.2l-.123-1.488h3.388Z" transform="translate(-268.998 -177.71)" fill="#fff"/>
        <path id="Trazado_980" data-name="Trazado 980" d="M287.6,218.3a1.7,1.7,0,0,0,1.932,1.855,5.033,5.033,0,0,0,2.208-.628l.383,1.41a6.154,6.154,0,0,1-2.836.736c-2.315,0-3.7-1.441-3.7-3.925,0-2.315,1.119-3.894,3.526-3.894,2.27,0,3.159,1.687,3.159,3.572v.875Zm1.411-2.975c-1,0-1.411.9-1.411,1.794h2.745C290.348,216.15,290.057,215.322,289.015,215.322Z" transform="translate(-275.783 -179.683)" fill="#fff"/>
        <path id="Trazado_981" data-name="Trazado 981" d="M304.155,221.517v-4.462c0-1.135-.429-1.671-1.349-1.671a2.426,2.426,0,0,0-1.319.461v5.673h-2.008V214h1.38l.307.859a3.116,3.116,0,0,1,2.376-1.012c1.9,0,2.652,1.119,2.652,3.021v4.646Z" transform="translate(-281.479 -179.683)" fill="#fff"/>
        <path id="Trazado_982" data-name="Trazado 982" d="M315.164,218.3a1.7,1.7,0,0,0,1.931,1.855,5.025,5.025,0,0,0,2.208-.628l.384,1.41a6.157,6.157,0,0,1-2.837.736c-2.315,0-3.694-1.441-3.694-3.925,0-2.315,1.119-3.894,3.526-3.894,2.269,0,3.158,1.687,3.158,3.572v.875Zm1.41-2.975c-1,0-1.41.9-1.41,1.794h2.744C317.908,216.15,317.617,215.322,316.573,215.322Z" transform="translate(-287.091 -179.683)" fill="#fff"/>
        <path id="Trazado_983" data-name="Trazado 983" d="M331.316,215.685a3.393,3.393,0,0,0-.935-.123,2.165,2.165,0,0,0-1.349.506v5.459h-1.993v-7.513h1.4l.215,1.012h.046a2.011,2.011,0,0,1,1.794-1.15,3.384,3.384,0,0,1,.873.108Z" transform="translate(-292.787 -179.694)" fill="#fff"/>
        <path id="Trazado_984" data-name="Trazado 984" d="M340.472,221.517l-.276-.889A2.694,2.694,0,0,1,338,221.669a2.33,2.33,0,0,1-2.514-2.407c0-1.4,1.027-2.223,2.836-2.223h1.58v-.383c0-.966-.553-1.273-1.319-1.273a5.425,5.425,0,0,0-2.254.507l-.505-1.426a7.566,7.566,0,0,1,2.958-.614c2.132,0,3.052.981,3.052,2.9v4.768Zm-.567-3.282h-1.243c-.828,0-1.211.4-1.211.967a1,1,0,0,0,1.119,1.1,2.244,2.244,0,0,0,1.335-.506Z" transform="translate(-296.255 -179.683)" fill="#fff"/>
        <path id="Trazado_985" data-name="Trazado 985" d="M349.242,217.5V208.91h1.978v8.479c0,.629.383.721,1.212.721v1.411a6.32,6.32,0,0,1-1.1.122C349.794,219.642,349.242,218.83,349.242,217.5Z" transform="translate(-301.898 -177.656)" fill="#fff"/>
        <path id="Trazado_986" data-name="Trazado 986" d="M367.269,212.559a4.629,4.629,0,0,1-.184-1.38V208.91h1.993v10.58h-1.625l-.231-.829a2.43,2.43,0,0,1-1.993.981c-1.7,0-3.067-1.227-3.067-3.909,0-2.484,1.411-3.91,3.236-3.91A2.443,2.443,0,0,1,367.269,212.559Zm-.184,1.135a2.677,2.677,0,0,0-1.365-.369c-.951,0-1.549.644-1.549,2.392,0,1.794.567,2.469,1.518,2.469a1.981,1.981,0,0,0,1.4-.644Z" transform="translate(-307.199 -177.656)" fill="#fff"/>
        <path id="Trazado_987" data-name="Trazado 987" d="M378.471,218.3a1.7,1.7,0,0,0,1.932,1.855,5.03,5.03,0,0,0,2.208-.628l.383,1.41a6.154,6.154,0,0,1-2.836.736c-2.315,0-3.7-1.441-3.7-3.925,0-2.315,1.12-3.894,3.527-3.894,2.269,0,3.158,1.687,3.158,3.572v.875Zm1.411-2.975c-1,0-1.411.9-1.411,1.794h2.745C381.216,216.15,380.925,215.322,379.883,215.322Z" transform="translate(-313.067 -179.683)" fill="#fff"/>
        <path id="Trazado_988" data-name="Trazado 988" d="M396.118,217.5V208.91H398.1v8.479c0,.629.383.721,1.211.721v1.411a6.312,6.312,0,0,1-1.1.122C396.671,219.642,396.118,218.83,396.118,217.5Z" transform="translate(-321.131 -177.656)" fill="#fff"/>
        <path id="Trazado_989" data-name="Trazado 989" d="M408.121,221.517l-.276-.889a2.691,2.691,0,0,1-2.192,1.042,2.331,2.331,0,0,1-2.515-2.407c0-1.4,1.027-2.223,2.836-2.223h1.579v-.383c0-.966-.551-1.273-1.318-1.273a5.42,5.42,0,0,0-2.254.507l-.507-1.426a7.577,7.577,0,0,1,2.96-.614c2.131,0,3.051.981,3.051,2.9v4.768Zm-.567-3.282h-1.241c-.829,0-1.212.4-1.212.967a1,1,0,0,0,1.119,1.1,2.243,2.243,0,0,0,1.334-.506Z" transform="translate(-324.012 -179.683)" fill="#fff"/>
        <path id="Trazado_990" data-name="Trazado 990" d="M272.671,243.046h-1.135v3.6h-2.008V236.3h3.143c2.116,0,3.94,1.012,3.94,3.235C276.611,241.528,275.108,243.046,272.671,243.046ZM272.625,238h-1.089v3.466h1.089a1.709,1.709,0,0,0,1.855-1.856C274.48,238.554,273.775,238,272.625,238Z" transform="translate(-269.19 -188.895)" fill="#fff"/>
        <path id="Trazado_991" data-name="Trazado 991" d="M287.819,242.685a3.394,3.394,0,0,0-.935-.123,2.165,2.165,0,0,0-1.349.506v5.459h-1.993v-7.513h1.4l.215,1.012h.046a2.01,2.01,0,0,1,1.794-1.15,3.384,3.384,0,0,1,.873.108Z" transform="translate(-274.94 -190.772)" fill="#fff"/>
        <path id="Trazado_992" data-name="Trazado 992" d="M293.714,245.3a1.7,1.7,0,0,0,1.931,1.855,5.026,5.026,0,0,0,2.208-.628l.383,1.41a6.152,6.152,0,0,1-2.836.736c-2.315,0-3.7-1.441-3.7-3.925,0-2.315,1.119-3.894,3.527-3.894,2.268,0,3.158,1.686,3.158,3.572v.875Zm1.41-2.975c-1,0-1.41.9-1.41,1.794h2.744C296.458,243.15,296.167,242.322,295.124,242.322Z" transform="translate(-278.29 -190.762)" fill="#fff"/>
        <path id="Trazado_993" data-name="Trazado 993" d="M307.187,242.981c0,1.165,3.25.813,3.25,3.266,0,1.365-1.012,2.422-2.959,2.422a4.771,4.771,0,0,1-2.254-.551l.414-1.4a3.493,3.493,0,0,0,1.778.521c.659,0,1.1-.368,1.1-.828,0-1.349-3.2-.9-3.2-3.465,0-1.1.843-2.1,2.866-2.1a6,6,0,0,1,2.116.369l-.276,1.456a4.49,4.49,0,0,0-1.809-.383C307.525,242.291,307.187,242.552,307.187,242.981Z" transform="translate(-283.837 -190.762)" fill="#fff"/>
        <path id="Trazado_994" data-name="Trazado 994" d="M317.174,246.49v-6.071l-.873-.185v-1.257h2.866v7.513Zm-.061-10.58h2.024v1.824h-2.024Z" transform="translate(-288.382 -188.735)" fill="#fff"/>
        <path id="Trazado_995" data-name="Trazado 995" d="M328.946,239.559a4.628,4.628,0,0,1-.183-1.38V235.91h1.993v10.58H329.13l-.231-.828a2.43,2.43,0,0,1-1.993.981c-1.7,0-3.066-1.227-3.066-3.909,0-2.484,1.411-3.91,3.235-3.91A2.442,2.442,0,0,1,328.946,239.559Zm-.183,1.135a2.677,2.677,0,0,0-1.365-.369c-.951,0-1.549.644-1.549,2.392,0,1.794.567,2.469,1.518,2.469a1.981,1.981,0,0,0,1.4-.644Z" transform="translate(-291.475 -188.735)" fill="#fff"/>
        <path id="Trazado_996" data-name="Trazado 996" d="M340.148,245.3a1.7,1.7,0,0,0,1.932,1.855,5.035,5.035,0,0,0,2.208-.628l.383,1.41a6.157,6.157,0,0,1-2.837.736c-2.315,0-3.695-1.441-3.695-3.925,0-2.315,1.119-3.894,3.526-3.894,2.27,0,3.159,1.686,3.159,3.572v.875Zm1.411-2.975c-1,0-1.411.9-1.411,1.794h2.744C342.893,243.15,342.6,242.322,341.56,242.322Z" transform="translate(-297.342 -190.762)" fill="#fff"/>
        <path id="Trazado_997" data-name="Trazado 997" d="M356.7,248.517v-4.462c0-1.135-.429-1.671-1.349-1.671a2.428,2.428,0,0,0-1.319.461v5.673h-2.008V241H353.4l.307.859a3.118,3.118,0,0,1,2.376-1.012c1.9,0,2.652,1.119,2.652,3.021v4.646Z" transform="translate(-303.039 -190.762)" fill="#fff"/>
        <path id="Trazado_998" data-name="Trazado 998" d="M372.045,248.01a5.811,5.811,0,0,1-2.576.659c-2.238,0-3.588-1.273-3.588-3.909,0-2.454,1.349-3.91,3.572-3.91a5.084,5.084,0,0,1,2.576.614l-.521,1.364a3.738,3.738,0,0,0-1.886-.46c-1.043,0-1.7.705-1.7,2.392s.629,2.391,1.717,2.391a4.376,4.376,0,0,0,2.039-.567Z" transform="translate(-308.725 -190.762)" fill="#fff"/>
        <path id="Trazado_999" data-name="Trazado 999" d="M379.028,246.49v-6.071l-.874-.185v-1.257h2.867v7.513Zm-.062-10.58h2.024v1.824h-2.024Z" transform="translate(-313.76 -188.735)" fill="#fff"/>
        <path id="Trazado_1000" data-name="Trazado 1000" d="M390.494,248.517l-.276-.889a2.691,2.691,0,0,1-2.192,1.042,2.331,2.331,0,0,1-2.515-2.407c0-1.4,1.027-2.223,2.837-2.223h1.579v-.383c0-.966-.551-1.273-1.318-1.273a5.42,5.42,0,0,0-2.254.507l-.507-1.426a7.577,7.577,0,0,1,2.96-.614c2.131,0,3.051.981,3.051,2.9v4.768Zm-.567-3.282h-1.241c-.829,0-1.212.4-1.212.966a1,1,0,0,0,1.12,1.1,2.243,2.243,0,0,0,1.333-.506Z" transform="translate(-316.779 -190.762)" fill="#fff"/>
      </g>
    </g>
  </g>
</svg>
