<svg xmlns="http://www.w3.org/2000/svg" width="153.721" height="140.205" viewBox="0 0 153.721 140.205">
  <g id="Isologos_Gobierno-01-1" transform="translate(0 -0.001)" style="isolation: isolate">
    <g id="Grupo_42" data-name="Grupo 42" transform="translate(0 0.001)">
      <g id="Grupo_36" data-name="Grupo 36">
        <path id="Trazado_27" data-name="Trazado 27" d="M174.4,285.858a5.454,5.454,0,0,1-2.484.621c-1.959,0-2.914-1.385-2.914-3.487,0-2.006,1-3.392,3.057-3.392a3.9,3.9,0,0,1,2.2.573l-.525.955a2.994,2.994,0,0,0-1.624-.43c-1.194,0-1.72.908-1.72,2.2,0,1.576.573,2.436,1.672,2.436a2.715,2.715,0,0,0,1.146-.239V283.9H172.3l-.048-.956h2.15Z" transform="translate(-99.257 -155.446)" fill="#777"/>
        <path id="Trazado_28" data-name="Trazado 28" d="M186.59,285.984c0,1.624-.812,2.532-2.245,2.532s-2.245-.86-2.245-2.532a2.2,2.2,0,0,1,2.245-2.484,2.249,2.249,0,0,1,2.245,2.484m-1.29,0c0-1.146-.334-1.576-.955-1.576s-.908.43-.908,1.576c0,1.1.287,1.576.908,1.576s.955-.43.955-1.576" transform="translate(-106.099 -157.483)" fill="#777"/>
        <path id="Trazado_29" data-name="Trazado 29" d="M194.746,282.036a1.729,1.729,0,0,1,1.29-.573c1.146,0,1.959.812,1.959,2.484s-1,2.532-2.1,2.532a1.631,1.631,0,0,1-1.385-.669l-.239.573H193.6V279.6h1.29v1.672Zm.1,3.009a1.067,1.067,0,0,0,.86.478c.573,0,.955-.43.955-1.576s-.382-1.529-.955-1.529a1.556,1.556,0,0,0-.908.382v2.245Z" transform="translate(-112.106 -155.446)" fill="#777"/>
        <path id="Trazado_30" data-name="Trazado 30" d="M205.025,286.383v-3.869l-.525-.1v-.812h1.815v4.825h-1.29Zm-.048-6.783h1.29v1.147h-1.29Z" transform="translate(-117.799 -155.446)" fill="#777"/>
        <path id="Trazado_31" data-name="Trazado 31" d="M211.538,286.366a1.1,1.1,0,0,0,1.242,1.194,2.782,2.782,0,0,0,1.385-.43l.239.908a4.15,4.15,0,0,1-1.815.478,2.252,2.252,0,0,1-2.388-2.532c0-1.481.717-2.484,2.245-2.484a2.044,2.044,0,0,1,2.054,2.293v.573Zm.908-1.911c-.621,0-.908.573-.908,1.146h1.767c0-.621-.191-1.146-.86-1.146" transform="translate(-120.776 -157.483)" fill="#777"/>
        <path id="Trazado_32" data-name="Trazado 32" d="M223.971,284.746a2.121,2.121,0,0,0-.621-.1,1.273,1.273,0,0,0-.86.334v3.487H221.2v-4.825h.908c.048.239.1.43.143.669h.048a1.276,1.276,0,0,1,1.146-.716c.239,0,.43.048.573.048a8.1,8.1,0,0,0-.048,1.1" transform="translate(-126.522 -157.535)" fill="#777"/>
        <path id="Trazado_33" data-name="Trazado 33" d="M231.609,288.368V285.5c0-.717-.287-1.051-.86-1.051a1.677,1.677,0,0,0-.86.287v3.631H228.6v-4.825h.86l.191.525a2,2,0,0,1,1.529-.669c1.194,0,1.672.717,1.672,1.911v2.962h-1.242Z" transform="translate(-130.387 -157.43)" fill="#777"/>
        <path id="Trazado_34" data-name="Trazado 34" d="M243.89,285.984c0,1.624-.812,2.532-2.245,2.532s-2.245-.86-2.245-2.532a2.2,2.2,0,0,1,2.245-2.484,2.249,2.249,0,0,1,2.245,2.484m-1.29,0c0-1.146-.334-1.576-.955-1.576-.573,0-.908.43-.908,1.576,0,1.1.287,1.576.908,1.576s.955-.43.955-1.576" transform="translate(-136.028 -157.483)" fill="#777"/>
        <path id="Trazado_35" data-name="Trazado 35" d="M258.3,281.993a2.5,2.5,0,0,1-.143-.86V279.7h1.29v6.783h-1.051l-.143-.525a1.593,1.593,0,0,1-1.29.621c-1.1,0-1.959-.764-1.959-2.484,0-1.576.908-2.484,2.054-2.484a1.327,1.327,0,0,1,1.242.382m-.143.717a1.848,1.848,0,0,0-.86-.239c-.621,0-1,.43-1,1.529,0,1.147.382,1.576.955,1.576a1.177,1.177,0,0,0,.908-.43Z" transform="translate(-144.176 -155.498)" fill="#777"/>
        <path id="Trazado_36" data-name="Trazado 36" d="M267.538,286.366a1.1,1.1,0,0,0,1.242,1.194,2.782,2.782,0,0,0,1.385-.43l.239.908a4.15,4.15,0,0,1-1.815.478,2.252,2.252,0,0,1-2.388-2.532c0-1.481.717-2.484,2.245-2.484,1.433,0,2.006,1.1,2.006,2.293v.573Zm.908-1.911c-.621,0-.908.573-.908,1.146H269.3c0-.621-.191-1.146-.86-1.146" transform="translate(-150.026 -157.483)" fill="#777"/>
        <path id="Trazado_37" data-name="Trazado 37" d="M284.366,286.531c-1.863,0-2.866-1.242-2.866-3.439,0-2.054,1-3.392,2.866-3.392a3.908,3.908,0,0,1,2.245.573l-.478,1a2.994,2.994,0,0,0-1.624-.43c-1.1,0-1.624.812-1.624,2.245,0,1.529.525,2.341,1.624,2.341a3.156,3.156,0,0,0,1.767-.621l.43,1.051a4.449,4.449,0,0,1-2.341.669" transform="translate(-158.017 -155.498)" fill="#777"/>
        <path id="Trazado_38" data-name="Trazado 38" d="M294.1,286.383V279.6h1.29v1.768a2.132,2.132,0,0,1-.143.764,1.661,1.661,0,0,1,1.337-.669c1.385,0,1.767.717,1.767,1.911v2.962h-1.29v-2.866c0-.143,0-.239-.048-.287a.739.739,0,0,0-.812-.764,1.677,1.677,0,0,0-.86.287v3.631H294.1Z" transform="translate(-164.598 -155.446)" fill="#777"/>
        <path id="Trazado_39" data-name="Trazado 39" d="M305.473,286.383v-3.869l-.573-.1v-.812h1.815v4.825h-1.242Zm-.048-6.783h1.29v1.147h-1.29Z" transform="translate(-170.239 -155.446)" fill="#777"/>
        <path id="Trazado_40" data-name="Trazado 40" d="M311.2,285.094V279.6h1.242v5.446c0,.382.239.478.764.478v.908a3.486,3.486,0,0,1-.716.1,1.246,1.246,0,0,1-1.29-1.433" transform="translate(-173.53 -155.446)" fill="#777"/>
        <path id="Trazado_41" data-name="Trazado 41" d="M318.138,286.366a1.1,1.1,0,0,0,1.242,1.194,2.782,2.782,0,0,0,1.385-.43l.239.908a4.15,4.15,0,0,1-1.815.478,2.252,2.252,0,0,1-2.388-2.532c0-1.481.716-2.484,2.245-2.484,1.433,0,2.006,1.1,2.006,2.293v.573Zm.86-1.911c-.621,0-.908.573-.908,1.146h1.767c0-.621-.191-1.146-.86-1.146" transform="translate(-176.455 -157.483)" fill="#777"/>
        <path id="Trazado_42" data-name="Trazado 42" d="M174.332,19.7H23V159.905H176.721V19.7h-2.388ZM25.388,22.089H85.2V157.517H25.388ZM174.332,157.517h-86.7V22.089H174.38Z" transform="translate(-23 -19.7)" fill="#777"/>
      </g>
      <g id="Grupo_41" data-name="Grupo 41" transform="translate(9.114 9.291)">
        <g id="Grupo_40" data-name="Grupo 40">
          <g id="Grupo_39" data-name="Grupo 39">
            <path id="Trazado_43" data-name="Trazado 43" d="M83.289,50.829a.568.568,0,0,0,.191-.812c-.1-.239-.382-.239-.287-.239,1.529-.382,2.341-2.58,2.293-3.439a3.025,3.025,0,0,0,3.822-.143,2.709,2.709,0,0,0-.191-3.917,2.527,2.527,0,0,0-2.818.048,1.394,1.394,0,0,0-1.146-.717,2.975,2.975,0,0,0-.573-1.815,2.945,2.945,0,0,0-3.678,0,2.607,2.607,0,0,0-3.439,2.723,4.585,4.585,0,0,0-2.293-.382,2.861,2.861,0,0,0-1.529.86,5.038,5.038,0,0,0-.334.525,1.916,1.916,0,0,0-.239,1.29,2.424,2.424,0,0,0,1.146,1.911,3.712,3.712,0,0,0,2.341.334,1.755,1.755,0,0,0,.955-.525c.1-.1.191-.287.334-.287a1.836,1.836,0,0,0,1.194,1.911c0,.048.048.1.048.191.43,1.576,1.481,1.385,1.481,1.529a.576.576,0,0,0-.143.908,4.358,4.358,0,0,1,1.433-.239A5.006,5.006,0,0,1,83.289,50.829Z" transform="translate(-58.249 -39.149)" fill="#777"/>
            <g id="Grupo_38" data-name="Grupo 38" transform="translate(0 4.735)">
              <path id="Trazado_44" data-name="Trazado 44" d="M86.395,66.9l-.955,3.2H82l2.771,2.006L83.72,75.26l2.675-2.006L89.07,75.26l-1.051-3.153L90.79,70.1H87.35Z" transform="translate(-62.93 -58.378)" fill="none"/>
              <path id="Trazado_45" data-name="Trazado 45" d="M89.721,68.686a5.172,5.172,0,0,1,1.1-2.866.635.635,0,0,0,.143-.334.329.329,0,0,0-.143-.239c-.287-.191-1-.621-1-.621l-.048-.048h-.1c-.1,0-.143.048-.239.1a1.729,1.729,0,0,1-1.146.43.813.813,0,0,1-.334-.048,3.452,3.452,0,0,1-.86-.334l-.478-.239h-.048a4.791,4.791,0,0,0-1.863-.382,6,6,0,0,0-1.863.382h-.048a.807.807,0,0,0-.239.1l-.525.239a1.612,1.612,0,0,1-.573.191c-.1,0-.239.048-.334.048a2.016,2.016,0,0,1-1.194-.43c-.1-.048-.143-.1-.239-.1h-.1s-.717.43-1,.621c-.048,0-.143.1-.191.287a.4.4,0,0,0,.143.334,4.817,4.817,0,0,1,1.1,2.866,4.174,4.174,0,0,1-.717,2.58,3.118,3.118,0,0,0,.048,3.153,3.25,3.25,0,0,0,2.914,1.385c.191,0,1.767.048,2.341,1.051,0,.048.287.43.382.669l.143.239.143-.239a6.544,6.544,0,0,1,.382-.669c.525-1,2.15-1.051,2.293-1.051a3,3,0,0,0,2.962-4.538A4.1,4.1,0,0,1,89.721,68.686Zm-.812-.048-2.771,2.006L87.19,73.8l-2.675-2.054L81.839,73.8l1.051-3.153L80.12,68.638h3.439l.955-3.2.955,3.2Z" transform="translate(-61.05 -56.916)" fill="#777"/>
              <g id="Grupo_37" data-name="Grupo 37">
                <path id="Trazado_46" data-name="Trazado 46" d="M71.6,103.759a3.628,3.628,0,0,0,3.726.717c.334-.048.525-1.146.621-1.959a31.823,31.823,0,0,1-3.822-.717A9.7,9.7,0,0,0,71.6,103.759Z" transform="translate(-57.498 -76.606)" fill="none"/>
                <path id="Trazado_47" data-name="Trazado 47" d="M62.6,87.822a.248.248,0,0,0-.191-.1c-.191-.048-.334.143-.573.1-.191-.048-1.767-1.242-1.863-1.29a6.533,6.533,0,0,1-1.146-.86c-.191-.239-.048-.525-.048-.812a1.2,1.2,0,0,0-.717-.86A3.678,3.678,0,0,1,55.2,86.675a6.605,6.605,0,0,0,.43,3.631,1.766,1.766,0,0,1,.525.239,1.739,1.739,0,0,1,.143-.717,1.7,1.7,0,0,1,1.959-.812.834.834,0,0,1,.573.573c.191.955-.621,1.051-.621,1.051-.573.048-.573-.43-.573-.43-.048-.43.573-.478.573-.478-.525-.908-2.2.573-1.1,1.959a.169.169,0,0,0,.239.048c3.3-1.624,3.822-2.341,3.822-2.341.717-.621,1.242-1,1.624-1.29Z" transform="translate(-48.881 -67.309)" fill="none"/>
                <path id="Trazado_48" data-name="Trazado 48" d="M103.5,64.5c.048.048.143.1.191.143A.659.659,0,0,1,103.5,64.5Z" transform="translate(-74.16 -57.125)" fill="none"/>
                <path id="Trazado_49" data-name="Trazado 49" d="M105.334,65.887c-.1-.1-.239-.191-.334-.287a2.077,2.077,0,0,0,.334.287Z" transform="translate(-74.944 -57.699)" fill="none"/>
                <path id="Trazado_50" data-name="Trazado 50" d="M104.1,65a2.022,2.022,0,0,0,.334.239C104.339,65.143,104.2,65.1,104.1,65Z" transform="translate(-74.473 -57.386)" fill="none"/>
                <path id="Trazado_51" data-name="Trazado 51" d="M69.778,102.611a4.092,4.092,0,0,0,.239-.717,4.6,4.6,0,0,1,.334-.86c-.382-.1-.717-.239-1.051-.334A4.373,4.373,0,0,0,69.778,102.611Z" transform="translate(-56.297 -76.032)" fill="none"/>
                <path id="Trazado_52" data-name="Trazado 52" d="M102.8,102.364c.1.86.287,1.911.621,1.959a3.628,3.628,0,0,0,3.726-.717,8.034,8.034,0,0,0-.525-2.006A30.041,30.041,0,0,1,102.8,102.364Z" transform="translate(-73.794 -76.502)" fill="none"/>
                <path id="Trazado_53" data-name="Trazado 53" d="M112.434,101.894a4.091,4.091,0,0,0,.239.717,4.123,4.123,0,0,0,.478-1.911c-.334.1-.717.239-1.051.334A3.588,3.588,0,0,1,112.434,101.894Z" transform="translate(-78.652 -76.032)" fill="none"/>
                <path id="Trazado_54" data-name="Trazado 54" d="M76.52,96.9a2.373,2.373,0,0,0-1.72.717c.812.191,1.815.382,2.866.525C77.523,96.852,76.52,96.9,76.52,96.9Z" transform="translate(-59.17 -74.047)" fill="none"/>
                <path id="Trazado_55" data-name="Trazado 55" d="M105.714,95.345c.669-.143,1.242-.334,1.72-.478a3.565,3.565,0,0,0-.334-.573,4.611,4.611,0,0,0-5.207-1c-.048,0,.143.573,1.051.764A6.029,6.029,0,0,1,105.714,95.345Z" transform="translate(-73.317 -71.966)" fill="none"/>
                <path id="Trazado_56" data-name="Trazado 56" d="M103.846,96.9a1.23,1.23,0,0,0-1.146,1.242c1.051-.143,2.054-.334,2.866-.525A2.373,2.373,0,0,0,103.846,96.9Z" transform="translate(-73.742 -74.047)" fill="none"/>
                <path id="Trazado_57" data-name="Trazado 57" d="M83.99,94.834a.76.76,0,0,0-.573-.334c-.478,0-.573,1.146-.717,2.436,1.051.1,2.15.191,3.392.239C85.566,96.124,84.42,95.408,83.99,94.834Z" transform="translate(-63.296 -72.794)" fill="none"/>
                <path id="Trazado_58" data-name="Trazado 58" d="M70.434,94.4a3.562,3.562,0,0,0-.334.573c.478.143,1.051.334,1.72.478a4.513,4.513,0,0,1,2.771-1.242c.908-.191,1.146-.764,1.051-.764A4.469,4.469,0,0,0,70.434,94.4Z" transform="translate(-56.715 -72.022)" fill="none"/>
                <path id="Trazado_59" data-name="Trazado 59" d="M96.527,94.5a.76.76,0,0,0-.573.334c-.43.573-1.576,1.29-2.054,2.341,1.194-.048,2.341-.1,3.392-.239C97.1,95.646,97,94.5,96.527,94.5Z" transform="translate(-69.146 -72.794)" fill="none"/>
                <path id="Trazado_60" data-name="Trazado 60" d="M89.428,74.063c-.334-.43-1.29-.191-1.29-.191a1.365,1.365,0,0,0-.86-1.863,1.106,1.106,0,0,0-1,.1h0l-.1.1a.613.613,0,0,0-.191.478.735.735,0,0,0,.717.717.77.77,0,0,0,.43-.143.7.7,0,0,0,.287-.43,1.065,1.065,0,0,1,.287.334c.382,1.242-1,1.72-1,1.72a5.523,5.523,0,0,1-5.064-.669l.525-.287a1.039,1.039,0,0,1,.478-.1v.1a.621.621,0,1,0,1.242,0,.572.572,0,0,0-.143-.382c-.382-.573-1.624-.191-1.624-.191a2.181,2.181,0,0,0,.048-1.767,1.7,1.7,0,0,0-1.959-.812.834.834,0,0,0-.573.573c-.191.955.621,1.051.621,1.051.573.048.573-.43.573-.43.1-.43-.573-.478-.573-.478.525-.908,2.2.573,1.1,1.959a.169.169,0,0,1-.239.048,19.107,19.107,0,0,1-3.392-1.959c-.048-.525-.525-.812-.43-.955.1-.048.334.1.525-.143a15.136,15.136,0,0,0,.287-1.529,5.389,5.389,0,0,0,3.487.478A.416.416,0,0,0,81.881,69c.048-.669-1.672-4.538-1.72-5.923.812.382,1.29-.86,1.433-1.242,1.1.478,1.433,10.557,2.293,10.892.43.191.573-.525.621-.621A32.8,32.8,0,0,0,85.8,61.786a29.966,29.966,0,0,0-.86-6.21c-.334-1.146-1-3.535-2.532-3.869a1.1,1.1,0,0,0-1.242,1.1c0,.525.382.764.191,1.29a5.12,5.12,0,0,0-.478,1.051c-.1.382.239.525.143.908-.478-.1-.717.334-1.481.143.478-.239.525-1.672-.1-1.911-.1-.048-.191-.048-.191-.143a1.468,1.468,0,0,0,.287-.43,1.887,1.887,0,0,0,.048-1.815c.239,0,.525-.43.573-.812h0v-.048h0a1.664,1.664,0,0,1,.143-.717.182.182,0,1,0-.334-.143c-.143.334-.525.143-.334-.191a.182.182,0,0,0-.334-.143c-.143.287-.478.143-.334-.191a.182.182,0,1,0-.334-.143c-.143.334-.525.143-.382-.191.048-.1,0-.239-.1-.239a.174.174,0,0,0-.239.1,1.727,1.727,0,0,1-.43.621c-.334.048-.239.43-.191.717a.941.941,0,0,0-1.146.764h-.191c-.525,0-1,.287-1,.764a.753.753,0,0,0,.478.621c.048,0-.048-.287.239-.287.239,0,.621.191.669.43.048.287-.143.908.669,1V54.1a3.13,3.13,0,0,0-.669,0c-.525.1-1.29.382-1.481.908a1.186,1.186,0,0,0-.048.43c0,.1.1.239.1.382,0,.048-.143.191-.191.239a1.536,1.536,0,0,1-1,.478,1.166,1.166,0,0,1-.955-.478c-.525-.717.143-2.006.143-2.484-.048-1.242-1.624-.525-2.245-.191a5.672,5.672,0,0,0-1.863,1.672,4.176,4.176,0,0,0-.717,1.146c-.048.048-.1.1-.143.1a5.477,5.477,0,0,0,1.338.382,2.293,2.293,0,0,0,1.481-.382.346.346,0,0,1,.478,0,.891.891,0,0,0,.191.143c.048.048.143.1.191.143s.1.048.1.1a1.452,1.452,0,0,0,.334.239l.048.048a2.077,2.077,0,0,1,.334.287h0c.143.1.239.191.334.239h0a.167.167,0,0,1,.048.1.176.176,0,0,1-.048.143.572.572,0,0,1-.191.191,7.209,7.209,0,0,0-.812,1.433A1.921,1.921,0,0,0,73.283,60.5a.83.83,0,0,0,.908-.621l.048.048a9.72,9.72,0,0,0,.812,2.1c-.382.191-1,.812-.669,2.484a12.06,12.06,0,0,1-1.194-1,1.846,1.846,0,0,0-1.433-1.242,8.672,8.672,0,0,0,.621,1.433,4.135,4.135,0,0,1,.382,2.293,2.791,2.791,0,0,0,.334-1.529.167.167,0,0,1,.1-.048c.1,0,.478.764,1.146.955A9.156,9.156,0,0,0,77.2,68.474c0,.382.048,1.242-.191,1.242-.764.191-1.481-.334-2.15-.334a.148.148,0,0,0-.1-.048c-2.914-1.385-6.735,1.624-7.356,2.2-.334.287-.717-.1-.717-.1a1.054,1.054,0,0,0-1.624,0s-.382.43-.717.1c-.621-.573-4.06-3.248-6.927-2.341,0-.143-.382-.239-.478-.287a1.652,1.652,0,0,1-.573-.334,4.464,4.464,0,0,0-1.146-.1,1.141,1.141,0,0,1-.43-.143,3.831,3.831,0,0,1-1.242-1.051c-.048-.048-.143-.239-.191-.239a2.41,2.41,0,0,1-.334-.621,4.248,4.248,0,0,1,.191-1.72c.048-.43.048-.43.1-.908a5.337,5.337,0,0,0,2.962-2.675,1.571,1.571,0,0,0,.143-.287h.239c.717,0,1.194-.382,2.006-.287,0,.048.1.382.621.573a2.915,2.915,0,0,0,.239,1.338c.048.048.1.143.143.191a5.164,5.164,0,0,0,.43-1.863.175.175,0,0,1-.048-.143A1.79,1.79,0,0,0,59.1,59.3a3.212,3.212,0,0,1-.573-.287,1.956,1.956,0,0,1-.764-.764l.191-.191a4.25,4.25,0,0,0,.955-2.15c.382-.525,1.433-.334,1.863-.239a1.124,1.124,0,0,1,.382.1c.1.1.143.239.287.334a2.3,2.3,0,0,0,.573,0c.1.1.1.191.191.334a.825.825,0,0,0,.143.191,3.631,3.631,0,0,0,1.433-.43c-.191,0-.239,0-.239-.048a1.847,1.847,0,0,0-.86-.669c-.382-.048-.478-.43-.86-.478a1.128,1.128,0,0,0-.573-.048A8.767,8.767,0,0,1,59,54.669c-.764-.048-.764.478-1.051.86-.1.143-.239.334-.334.478-.191.191-.43.191-.717.382l-.1-.334a1.787,1.787,0,0,0-.334-.764A2.709,2.709,0,0,0,54.7,53.952c-.191-.048-.191-.1-.334-.191s-.048-.239,0-.287c.239-.143.717-.1,1-.239.717-.334.478-.955.191-1a4.161,4.161,0,0,1-1.146-.334c-.191-.1-.478-.669-.764-.812-.334-.1-.191-.621-.478-.717a1.245,1.245,0,0,0-.525.143c0-.1-.1-.717-.43-.908-.239-.143-.334.1-.334.239s.334.287.43.86c-.048.048-.1.048-.191.1a1.069,1.069,0,0,0-.382-.717c-.239-.143-.334.1-.334.239s.334.287.43.764a.373.373,0,0,0-.191.191c-.478-.143-.621-.478-.717-.478-.143-.048-.334.048-.239.287s.478.382.717.478l-.143.143a1.317,1.317,0,0,1-.812-.525c-.143-.048-.382.048-.239.287.143.334.812.478.86.525a.762.762,0,0,0-.143.382c-.43-.048-1.194.191-1.051.717.143.1.669-.334,1.146-.1a2.1,2.1,0,0,0,.908.621c.191.143.191.382.287.621a5.529,5.529,0,0,0,.669,1.146c.287.43.573.86.812,1.194a.708.708,0,0,1,.048.334,11.987,11.987,0,0,1-1.672,1.481c-.382.382-4.156,3.248-4.634,4.49a3.176,3.176,0,0,0-.143,1c-.239.143-.717.334-.908.1-.287-.382.287-.717.143-1.1a.315.315,0,0,0-.43-.143,1.263,1.263,0,0,0,.143,2.15c.669.287.764-.43,1.242-.143.143.048,1.338,1.146,1.1,1.959a.362.362,0,0,1-.1.191,8.65,8.65,0,0,1-1,.86c-.621.382.573,2.866.478,4.156-.048.478.382.43.669,1.194a.9.9,0,0,0-.717.287.572.572,0,0,0-.143.382.621.621,0,1,0,1.242,0v-.1a2.1,2.1,0,0,1,.478.1l.525.287a5.523,5.523,0,0,1-5.064.669s-1.433-.43-1-1.72a.61.61,0,0,1,.287-.334.7.7,0,0,0,.287.43.584.584,0,0,0,.43.143.71.71,0,0,0,.525-1.194l-.1-.1h0a1.185,1.185,0,0,0-1.051-.1,1.337,1.337,0,0,0-.86,1.863s-.908-.191-1.29.191a.378.378,0,0,0-.1.334h0a.679.679,0,0,0,.1.287.5.5,0,0,0,.43.239.606.606,0,0,0,.43-.191h0c.048-.048.143-.1.334.048,2.1,2.15,5.493,1.29,7.356-.191a11.2,11.2,0,0,1,2.2-1.672c.43.191.955.334,1.385.525a4.408,4.408,0,0,0,.86,2.771.994.994,0,0,1-1.433.43.758.758,0,0,1-.1-1.146s.382-.334.525.1a.369.369,0,0,0-.334.382.377.377,0,0,0,.382.382.405.405,0,0,0,.382-.334.936.936,0,0,0-.287-.812,1.051,1.051,0,0,0-.812-.239c-.812.143-1.242,1.767.334,2.436,0,0,1.242.573,1.863-.334,0,0,0-.143.239.1,1.29,1.242,4.2.908,5.35.048a4.372,4.372,0,0,1,.621-.334.9.9,0,0,0,.908.86.94.94,0,0,0,.908-.908.964.964,0,0,0-.764-.908,1.834,1.834,0,0,0-1.433.334s-.908.573-.86.478a5.913,5.913,0,0,0,.621-1.767,34.506,34.506,0,0,0,3.917.239,2.876,2.876,0,0,1-.239,1.242s-.478.191-.478.525c0,0-.048.239.382.573a2.354,2.354,0,0,1,.382.621.476.476,0,0,0,.525.382h.191c.525,0,.525-.382.525-.382a2.354,2.354,0,0,1,.382-.621c.43-.334.382-.573.382-.573,0-.334-.478-.525-.478-.525a5.7,5.7,0,0,1-.239-1.242c1.338-.048,2.627-.143,3.917-.239a5.913,5.913,0,0,0,.621,1.767c.048.1-.812-.478-.812-.478a1.834,1.834,0,0,0-1.433-.334.924.924,0,0,0-.764.908.908.908,0,0,0,1.815.048,4.373,4.373,0,0,1,.621.334c1.146.86,4.06,1.242,5.35-.048.239-.239.239-.1.239-.1.621.908,1.863.334,1.863.334,1.576-.669,1.1-2.341.334-2.436a.881.881,0,0,0-.812.239.814.814,0,0,0-.287.812.341.341,0,0,0,.382.334.377.377,0,0,0,.382-.382.405.405,0,0,0-.334-.382c.143-.382.525-.1.525-.1a.758.758,0,0,1-.1,1.146,1.029,1.029,0,0,1-1.433-.43,4.334,4.334,0,0,0,.86-2.771c.478-.191.955-.334,1.385-.525a11.2,11.2,0,0,1,2.2,1.672c1.863,1.433,5.255,2.341,7.356.191a.2.2,0,0,1,.334-.048h0a.466.466,0,0,0,.43.191.5.5,0,0,0,.43-.239.991.991,0,0,0,.1-.287h0A.9.9,0,0,1,89.428,74.063Zm-38.836-.669s-.1.1-.239-.048c-1.1-1.338.573-2.866,1.1-1.959,0,0-.621,0-.573.478,0,0,0,.478.573.43,0,0,.812-.1.621-1.051a.834.834,0,0,0-.573-.573,1.7,1.7,0,0,0-1.959.812,1.739,1.739,0,0,0-.143.717.767.767,0,0,0-.525-.239,7.086,7.086,0,0,1-.43-3.631,3.678,3.678,0,0,0,2.866-2.675,1.23,1.23,0,0,1,.717.86c.048.287-.1.573.048.812a4.013,4.013,0,0,0,1.146.86,12.9,12.9,0,0,0,1.863,1.29c.239.048.334-.1.573-.1.048,0,.1.048.191.1a2.923,2.923,0,0,0,.287.239,12.415,12.415,0,0,0-1.624,1.29C54.414,71.1,53.888,71.77,50.592,73.394ZM55.8,74.923a4.091,4.091,0,0,1-.239.717,4.523,4.523,0,0,1-.525-1.911c.334.1.717.239,1.051.334A3.626,3.626,0,0,0,55.8,74.923Zm4.108,1.959a3.628,3.628,0,0,1-3.726-.717,8.034,8.034,0,0,1,.525-2.006,24.567,24.567,0,0,0,3.822.717C60.48,75.735,60.289,76.834,59.907,76.882Zm-2.15-4.3a2.58,2.58,0,0,1,1.72-.717,1.23,1.23,0,0,1,1.146,1.242A28.568,28.568,0,0,1,57.758,72.582Zm2.2-1.385a5.249,5.249,0,0,0-2.771,1.242c-.669-.143-1.242-.334-1.72-.478a3.563,3.563,0,0,1,.334-.573,4.611,4.611,0,0,1,5.207-1C61.054,70.433,60.863,71.006,59.955,71.2Zm1.529,2.054c.143-1.338.239-2.484.717-2.436a.76.76,0,0,1,.573.334c.43.573,1.576,1.29,2.054,2.341C63.633,73.442,62.487,73.347,61.484,73.251Zm5.3.191c.525-1.051,1.672-1.767,2.054-2.341a.76.76,0,0,1,.573-.334c.478,0,.573,1.146.717,2.484C69.127,73.347,67.98,73.442,66.786,73.442Zm3.869-3.009a4.525,4.525,0,0,1,5.207,1,3.562,3.562,0,0,1,.334.573c-.478.143-1.051.334-1.72.478a4.513,4.513,0,0,0-2.771-1.242C70.8,71.006,70.56,70.433,70.655,70.433Zm1.529,1.481a2.373,2.373,0,0,1,1.72.717c-.812.191-1.815.382-2.866.525C71.228,71.866,72.184,71.914,72.184,71.914Zm-.478,4.968c-.334-.048-.525-1.146-.621-1.959a31.821,31.821,0,0,0,3.822-.717,7.556,7.556,0,0,1,.525,2.006A3.683,3.683,0,0,1,71.706,76.882ZM76.1,75.64a4.091,4.091,0,0,1-.239-.717,4.6,4.6,0,0,0-.334-.86c.334-.1.717-.239,1.051-.334A4.373,4.373,0,0,1,76.1,75.64Z" transform="translate(-42.08 -49.061)" fill="#777"/>
              </g>
            </g>
          </g>
        </g>
      </g>
    </g>
    <g id="Grupo_43" data-name="Grupo 43" transform="translate(69.934 9.173)">
      <path id="Trazado_61" data-name="Trazado 61" d="M177.2,47.655l-.143-7.118h-.048a15.237,15.237,0,0,1-.43,2.006l-1.194,5.064H173l-1.146-5.064q-.143-.717-.43-2.006h-.048l-.1,7.07H169.8l.334-8.408h2.818s.908,4.2,1.385,6.927h.048c.573-2.675,1.672-6.927,1.672-6.927h2.723l.334,8.408H177.2Z" transform="translate(-169.609 -39.057)" fill="#777"/>
      <path id="Trazado_62" data-name="Trazado 62" d="M192.317,47.5v-4.92l-.717-.143v-1h2.341V47.5Zm-.048-8.6h1.624v1.481h-1.624Z" transform="translate(-180.995 -38.9)" fill="#777"/>
      <path id="Trazado_63" data-name="Trazado 63" d="M203.374,50.11V46.48c0-.908-.334-1.338-1.1-1.338a1.863,1.863,0,0,0-1.051.382V50.11H199.6V44h1.1l.239.717a2.4,2.4,0,0,1,1.911-.812c1.529,0,2.15.908,2.15,2.436V50.11Z" transform="translate(-185.174 -41.512)" fill="#777"/>
      <path id="Trazado_64" data-name="Trazado 64" d="M214.017,47.5v-4.92l-.717-.143v-1h2.341V47.5Zm-.048-8.6h1.624v1.481h-1.624Z" transform="translate(-192.329 -38.9)" fill="#777"/>
      <path id="Trazado_65" data-name="Trazado 65" d="M222.476,45.567c0,.955,2.627.669,2.627,2.627,0,1.1-.812,1.959-2.388,1.959a3.763,3.763,0,0,1-1.815-.43l.334-1.146a2.829,2.829,0,0,0,1.433.43c.525,0,.908-.287.908-.669,0-1.1-2.58-.717-2.58-2.818,0-.908.669-1.72,2.341-1.72a5.867,5.867,0,0,1,1.72.287l-.239,1.194a3.558,3.558,0,0,0-1.481-.334C222.763,44.994,222.476,45.185,222.476,45.567Z" transform="translate(-196.299 -41.459)" fill="#777"/>
      <path id="Trazado_66" data-name="Trazado 66" d="M234.175,48.587c-1.1,0-1.767-.525-1.767-2.054v-3.01H231.5V42.376h.908V41.325l1.624-.525v1.576h1.624v1.146h-1.624v2.962c0,.43.191.717.669.717a2.174,2.174,0,0,0,.955-.239l.239,1.194A3.652,3.652,0,0,1,234.175,48.587Z" transform="translate(-201.835 -39.892)" fill="#777"/>
      <path id="Trazado_67" data-name="Trazado 67" d="M243.224,47.378c0,.955.525,1.481,1.576,1.481a3.81,3.81,0,0,0,1.767-.525l.334,1.146a4.884,4.884,0,0,1-2.293.573c-1.863,0-3.009-1.146-3.009-3.2,0-1.863.908-3.153,2.866-3.153,1.815,0,2.58,1.385,2.58,2.914v.717h-3.822Zm1.146-2.436c-.812,0-1.146.717-1.146,1.433h2.245C245.422,45.659,245.183,44.942,244.371,44.942Z" transform="translate(-207.111 -41.407)" fill="#777"/>
      <path id="Trazado_68" data-name="Trazado 68" d="M258.887,45.281a3.324,3.324,0,0,0-.764-.1,1.739,1.739,0,0,0-1.1.43v4.443H255.4V43.943h1.146l.191.812h.048a1.635,1.635,0,0,1,1.433-.955,2.327,2.327,0,0,1,.717.1Z" transform="translate(-214.319 -41.459)" fill="#777"/>
      <path id="Trazado_69" data-name="Trazado 69" d="M265.017,47.5v-4.92l-.716-.143v-1h2.341V47.5Zm-.048-8.6h1.624v1.481h-1.624Z" transform="translate(-218.967 -38.9)" fill="#777"/>
      <path id="Trazado_70" data-name="Trazado 70" d="M277.432,47.052c0,2.054-1.051,3.2-2.866,3.2s-2.866-1.1-2.866-3.2a2.838,2.838,0,0,1,2.866-3.153C276.429,43.851,277.432,45.236,277.432,47.052Zm-1.672,0c0-1.481-.43-1.959-1.194-1.959s-1.194.525-1.194,1.959.382,2.006,1.194,2.006C275.378,49.01,275.76,48.485,275.76,47.052Z" transform="translate(-222.832 -41.51)" fill="#777"/>
      <path id="Trazado_71" data-name="Trazado 71" d="M172.123,74.146a4.431,4.431,0,0,1-2.723-.908l.621-1.29a3.585,3.585,0,0,0,2.15.812,1.165,1.165,0,0,0,1.29-1.1c0-1.767-3.869-.908-3.869-3.869,0-1.29,1-2.293,2.962-2.293a4.9,4.9,0,0,1,2.484.573l-.525,1.29a3.953,3.953,0,0,0-1.959-.478c-.764,0-1.242.239-1.242.86,0,1.481,3.917.908,3.917,3.774A2.877,2.877,0,0,1,172.123,74.146Z" transform="translate(-169.4 -52.793)" fill="#777"/>
      <path id="Trazado_72" data-name="Trazado 72" d="M185.224,73.878c0,.955.525,1.481,1.576,1.481a3.81,3.81,0,0,0,1.767-.525l.334,1.146a4.884,4.884,0,0,1-2.293.573c-1.863,0-3.009-1.146-3.009-3.2,0-1.863.908-3.153,2.866-3.153,1.815,0,2.58,1.385,2.58,2.914v.717h-3.822Zm1.1-2.436c-.812,0-1.146.717-1.146,1.433h2.245C187.421,72.159,187.183,71.442,186.323,71.442Z" transform="translate(-176.817 -55.248)" fill="#777"/>
      <path id="Trazado_73" data-name="Trazado 73" d="M202.116,76.18a4.552,4.552,0,0,1-2.1.525c-1.815,0-2.914-1.051-2.914-3.153,0-2.006,1.1-3.153,2.914-3.153a4.266,4.266,0,0,1,2.1.478l-.43,1.1a3.293,3.293,0,0,0-1.529-.382c-.86,0-1.385.573-1.385,1.959s.525,1.959,1.385,1.959a3.616,3.616,0,0,0,1.672-.478Z" transform="translate(-183.868 -55.352)" fill="#777"/>
      <path id="Trazado_74" data-name="Trazado 74" d="M213.287,71.781a3.324,3.324,0,0,0-.764-.1,1.74,1.74,0,0,0-1.1.43v4.443H209.8V70.443h1.146l.191.812h.048a1.635,1.635,0,0,1,1.433-.955,2.327,2.327,0,0,1,.717.1Z" transform="translate(-190.501 -55.3)" fill="#777"/>
      <path id="Trazado_75" data-name="Trazado 75" d="M219.624,73.878c0,.955.525,1.481,1.576,1.481a3.81,3.81,0,0,0,1.767-.525l.334,1.146a4.884,4.884,0,0,1-2.293.573c-1.863,0-3.009-1.146-3.009-3.2,0-1.863.908-3.153,2.866-3.153,1.815,0,2.58,1.385,2.58,2.914v.717h-3.822Zm1.146-2.436c-.812,0-1.146.717-1.146,1.433h2.245C221.869,72.159,221.63,71.442,220.771,71.442Z" transform="translate(-194.784 -55.248)" fill="#777"/>
      <path id="Trazado_76" data-name="Trazado 76" d="M233.675,75.087c-1.1,0-1.767-.525-1.767-2.054v-3.01H231V68.876h.908V67.825l1.624-.525v1.576h1.624v1.146h-1.624v2.962c0,.43.191.717.669.717a2.174,2.174,0,0,0,.955-.239l.239,1.194A3.651,3.651,0,0,1,233.675,75.087Z" transform="translate(-201.574 -53.733)" fill="#777"/>
      <path id="Trazado_77" data-name="Trazado 77" d="M245.26,76.662l-.239-.717a2.182,2.182,0,0,1-1.767.86,1.907,1.907,0,0,1-2.054-1.959c0-1.146.812-1.815,2.293-1.815h1.29v-.287a.934.934,0,0,0-1.051-1.051,4.069,4.069,0,0,0-1.815.43l-.43-1.146a6.6,6.6,0,0,1,2.388-.478c1.72,0,2.484.812,2.484,2.341V76.71h-1.1Zm-.478-2.675h-1c-.669,0-1,.334-1,.764a.808.808,0,0,0,.908.908,1.978,1.978,0,0,0,1.1-.43Z" transform="translate(-206.902 -55.405)" fill="#777"/>
      <path id="Trazado_78" data-name="Trazado 78" d="M258.387,71.781a3.323,3.323,0,0,0-.764-.1,1.74,1.74,0,0,0-1.1.43v4.443H254.9V70.443h1.146l.191.812h.048a1.635,1.635,0,0,1,1.433-.955,2.326,2.326,0,0,1,.716.1Z" transform="translate(-214.058 -55.3)" fill="#777"/>
      <path id="Trazado_79" data-name="Trazado 79" d="M263.243,66.615l-.143-.955,3.153-.86.191,1.194Zm.908,7.07v-4.92l-.717-.143v-1h2.341v6.067Z" transform="translate(-218.34 -52.428)" fill="#777"/>
      <path id="Trazado_80" data-name="Trazado 80" d="M275.26,76.662l-.239-.717a2.112,2.112,0,0,1-1.767.86,1.907,1.907,0,0,1-2.054-1.959c0-1.146.812-1.815,2.293-1.815h1.29v-.287a.934.934,0,0,0-1.051-1.051,4.069,4.069,0,0,0-1.815.43l-.43-1.146a6.6,6.6,0,0,1,2.388-.478c1.72,0,2.484.812,2.484,2.341V76.71h-1.1Zm-.478-2.675h-1c-.669,0-1,.334-1,.764a.809.809,0,0,0,.908.908,1.978,1.978,0,0,0,1.1-.43Z" transform="translate(-222.571 -55.405)" fill="#777"/>
      <path id="Trazado_81" data-name="Trazado 81" d="M176.383,99.982a6.84,6.84,0,0,1-3.009.764c-2.484,0-3.774-1.72-3.774-4.395,0-2.532,1.29-4.252,3.869-4.252a4.806,4.806,0,0,1,2.771.717l-.669,1.242a3.622,3.622,0,0,0-2.054-.525c-1.529,0-2.2,1.1-2.2,2.771,0,1.959.717,3.01,2.15,3.01a4.5,4.5,0,0,0,1.433-.239V97.546h-1.146l-.1-1.194h2.723v3.631Z" transform="translate(-169.504 -66.686)" fill="#777"/>
      <path id="Trazado_82" data-name="Trazado 82" d="M187.724,100.378c0,.955.525,1.481,1.576,1.481a3.81,3.81,0,0,0,1.767-.525l.334,1.146a4.884,4.884,0,0,1-2.293.573c-1.863,0-3.009-1.146-3.009-3.2,0-1.863.908-3.153,2.866-3.153,1.815,0,2.58,1.385,2.58,2.914v.717h-3.822Zm1.1-2.436c-.812,0-1.146.717-1.146,1.433h2.245C189.922,98.659,189.683,97.942,188.823,97.942Z" transform="translate(-178.123 -69.089)" fill="#777"/>
      <path id="Trazado_83" data-name="Trazado 83" d="M203.774,103.11V99.48c0-.908-.334-1.338-1.1-1.338a1.863,1.863,0,0,0-1.051.382v4.586H200V97h1.1l.239.717a2.4,2.4,0,0,1,1.911-.812c1.529,0,2.15.908,2.15,2.436v3.774Z" transform="translate(-185.383 -69.193)" fill="#777"/>
      <path id="Trazado_84" data-name="Trazado 84" d="M215.224,100.378c0,.955.525,1.481,1.576,1.481a3.81,3.81,0,0,0,1.767-.525l.334,1.146a4.884,4.884,0,0,1-2.293.573c-1.863,0-3.009-1.146-3.009-3.2,0-1.863.908-3.153,2.866-3.153,1.815,0,2.58,1.385,2.58,2.914v.717h-3.822Zm1.146-2.436c-.812,0-1.146.717-1.146,1.433h2.245C217.469,98.659,217.23,97.942,216.371,97.942Z" transform="translate(-192.486 -69.089)" fill="#777"/>
      <path id="Trazado_85" data-name="Trazado 85" d="M230.887,98.281a3.325,3.325,0,0,0-.764-.1,1.74,1.74,0,0,0-1.1.43v4.443H227.4V96.943h1.146l.191.812h.048a1.635,1.635,0,0,1,1.433-.955,2.327,2.327,0,0,1,.717.1Z" transform="translate(-199.694 -69.141)" fill="#777"/>
      <path id="Trazado_86" data-name="Trazado 86" d="M239.96,103.162l-.239-.717a2.182,2.182,0,0,1-1.767.86,1.907,1.907,0,0,1-2.054-1.959c0-1.146.812-1.815,2.293-1.815h1.29v-.287a.934.934,0,0,0-1.051-1.051,4.069,4.069,0,0,0-1.815.43l-.43-1.146A6.6,6.6,0,0,1,238.575,97c1.72,0,2.484.812,2.484,2.341v3.869h-1.1Zm-.478-2.675h-1c-.669,0-1,.334-1,.764a.809.809,0,0,0,.908.908,1.978,1.978,0,0,0,1.1-.43Z" transform="translate(-204.134 -69.246)" fill="#777"/>
      <path id="Trazado_87" data-name="Trazado 87" d="M249.7,98.874V91.9h1.624v6.879c0,.525.334.573,1,.573V100.5a5.419,5.419,0,0,1-.908.1A1.5,1.5,0,0,1,249.7,98.874Z" transform="translate(-211.341 -66.582)" fill="#777"/>
      <path id="Trazado_88" data-name="Trazado 88" d="M266.756,94.914a3.828,3.828,0,0,1-.143-1.1V92h1.624v8.551H266.9l-.191-.669a1.917,1.917,0,0,1-1.624.812c-1.385,0-2.484-1-2.484-3.153,0-2.006,1.147-3.153,2.627-3.153A1.652,1.652,0,0,1,266.756,94.914Zm-.143.908a2.163,2.163,0,0,0-1.1-.287c-.764,0-1.242.525-1.242,1.959s.478,2.006,1.242,2.006a1.605,1.605,0,0,0,1.146-.525V95.822Z" transform="translate(-218.079 -66.634)" fill="#777"/>
      <path id="Trazado_89" data-name="Trazado 89" d="M278.524,100.378c0,.955.525,1.481,1.576,1.481a3.81,3.81,0,0,0,1.767-.525l.334,1.146a4.884,4.884,0,0,1-2.293.573c-1.863,0-3.009-1.146-3.009-3.2,0-1.863.908-3.153,2.866-3.153,1.815,0,2.579,1.385,2.579,2.914v.717h-3.822Zm1.147-2.436c-.812,0-1.147.717-1.147,1.433h2.245C280.769,98.659,280.531,97.942,279.671,97.942Z" transform="translate(-225.548 -69.089)" fill="#777"/>
      <path id="Trazado_90" data-name="Trazado 90" d="M296.6,98.874V91.9h1.624v6.879c0,.525.334.573,1,.573V100.5a5.416,5.416,0,0,1-.908.1A1.5,1.5,0,0,1,296.6,98.874Z" transform="translate(-235.838 -66.582)" fill="#777"/>
      <path id="Trazado_91" data-name="Trazado 91" d="M307.56,103.162l-.239-.717a2.112,2.112,0,0,1-1.767.86,1.907,1.907,0,0,1-2.054-1.959c0-1.146.812-1.815,2.293-1.815h1.29v-.287a.934.934,0,0,0-1.051-1.051,4.069,4.069,0,0,0-1.815.43l-.43-1.146A6.6,6.6,0,0,1,306.175,97c1.72,0,2.484.812,2.484,2.341v3.869h-1.1Zm-.43-2.675h-1c-.669,0-1,.334-1,.764a.809.809,0,0,0,.908.908,1.978,1.978,0,0,0,1.1-.43Z" transform="translate(-239.442 -69.246)" fill="#777"/>
      <path id="Trazado_92" data-name="Trazado 92" d="M172.532,124.694h-.908v2.914H170V119.2h2.532c1.72,0,3.2.812,3.2,2.627A2.884,2.884,0,0,1,172.532,124.694Zm-.048-4.06h-.86v2.818h.86a1.357,1.357,0,0,0,1.481-1.481C174.013,121.063,173.439,120.633,172.484,120.633Z" transform="translate(-169.713 -80.841)" fill="#777"/>
      <path id="Trazado_93" data-name="Trazado 93" d="M187.439,125.333a3.321,3.321,0,0,0-.764-.1,1.739,1.739,0,0,0-1.1.43v4.443H184v-6.067h1.146l.191.812h.048a1.635,1.635,0,0,1,1.433-.955,2.327,2.327,0,0,1,.717.1Z" transform="translate(-177.026 -83.295)" fill="#777"/>
      <path id="Trazado_94" data-name="Trazado 94" d="M193.824,127.378c0,.955.525,1.481,1.576,1.481a3.81,3.81,0,0,0,1.767-.525l.334,1.146a4.884,4.884,0,0,1-2.293.573c-1.863,0-3.009-1.146-3.009-3.2,0-1.863.908-3.153,2.866-3.153,1.815,0,2.58,1.385,2.58,2.914v.717h-3.822Zm1.146-2.436c-.812,0-1.146.717-1.146,1.433h2.245C196.022,125.659,195.783,124.942,194.971,124.942Z" transform="translate(-181.309 -83.191)" fill="#777"/>
      <path id="Trazado_95" data-name="Trazado 95" d="M207.276,125.567c0,.955,2.627.669,2.627,2.627,0,1.1-.812,1.959-2.388,1.959a3.763,3.763,0,0,1-1.815-.43l.334-1.146a2.829,2.829,0,0,0,1.433.43c.525,0,.908-.287.908-.669,0-1.1-2.58-.717-2.58-2.818,0-.908.669-1.72,2.341-1.72a5.868,5.868,0,0,1,1.72.287l-.239,1.194a3.558,3.558,0,0,0-1.481-.334C207.563,124.994,207.276,125.185,207.276,125.567Z" transform="translate(-188.36 -83.243)" fill="#777"/>
      <path id="Trazado_96" data-name="Trazado 96" d="M217.417,127.5v-4.92l-.717-.143v-1h2.341V127.5Zm-.048-8.6h1.624v1.481h-1.624Z" transform="translate(-194.105 -80.684)" fill="#777"/>
      <path id="Trazado_97" data-name="Trazado 97" d="M228.356,121.914a3.829,3.829,0,0,1-.143-1.1V119h1.624v8.551H228.5l-.191-.669a1.917,1.917,0,0,1-1.624.812c-1.385,0-2.484-1-2.484-3.153,0-2.006,1.146-3.153,2.627-3.153A1.608,1.608,0,0,1,228.356,121.914Zm-.143.908a2.163,2.163,0,0,0-1.1-.287c-.764,0-1.242.525-1.242,1.959s.478,2.006,1.242,2.006a1.605,1.605,0,0,0,1.146-.525v-3.153Z" transform="translate(-198.023 -80.736)" fill="#777"/>
      <path id="Trazado_98" data-name="Trazado 98" d="M240.224,127.378c0,.955.525,1.481,1.576,1.481a3.81,3.81,0,0,0,1.767-.525l.334,1.146a4.884,4.884,0,0,1-2.293.573c-1.863,0-3.009-1.146-3.009-3.2,0-1.863.908-3.153,2.866-3.153,1.815,0,2.58,1.385,2.58,2.914v.717h-3.822Zm1.146-2.436c-.812,0-1.146.717-1.146,1.433h2.245C242.422,125.659,242.23,124.942,241.371,124.942Z" transform="translate(-205.544 -83.191)" fill="#777"/>
      <path id="Trazado_99" data-name="Trazado 99" d="M256.274,130.162v-3.631c0-.908-.334-1.338-1.1-1.338a1.863,1.863,0,0,0-1.051.382v4.586H252.5V124.1h1.1l.239.717a2.4,2.4,0,0,1,1.911-.812c1.529,0,2.15.908,2.15,2.436v3.774h-1.624Z" transform="translate(-212.804 -83.348)" fill="#777"/>
      <path id="Trazado_100" data-name="Trazado 100" d="M271.316,129.68a4.552,4.552,0,0,1-2.1.525c-1.815,0-2.914-1.051-2.914-3.153,0-2.006,1.1-3.153,2.914-3.153a4.266,4.266,0,0,1,2.1.478l-.43,1.1a3.294,3.294,0,0,0-1.529-.382c-.86,0-1.385.573-1.385,1.959s.525,1.959,1.385,1.959a3.615,3.615,0,0,0,1.672-.478Z" transform="translate(-220.012 -83.295)" fill="#777"/>
      <path id="Trazado_101" data-name="Trazado 101" d="M279.317,127.5v-4.92l-.717-.143v-1h2.341V127.5Zm-.048-8.6h1.624v1.481h-1.624Z" transform="translate(-226.436 -80.684)" fill="#777"/>
      <path id="Trazado_102" data-name="Trazado 102" d="M289.96,130.162l-.239-.717a2.112,2.112,0,0,1-1.768.86,1.907,1.907,0,0,1-2.054-1.959c0-1.146.812-1.815,2.293-1.815h1.29v-.287a.934.934,0,0,0-1.051-1.051,4.069,4.069,0,0,0-1.815.43l-.43-1.146a6.6,6.6,0,0,1,2.388-.478c1.72,0,2.484.812,2.484,2.341v3.869h-1.1Zm-.478-2.675h-1c-.669,0-1,.334-1,.764a.809.809,0,0,0,.908.908,1.978,1.978,0,0,0,1.1-.43Z" transform="translate(-230.249 -83.348)" fill="#777"/>
    </g>
  </g>
</svg>
