<svg xmlns="http://www.w3.org/2000/svg" width="357.793" height="578.001" viewBox="0 0 357.793 578.001">
  <g id="Grupo_2443" data-name="Grupo 2443" transform="translate(-28 -3585.999)">
    <g id="Grupo_2411" data-name="Grupo 2411" transform="translate(0 1631)">
      <line id="Línea_508" data-name="Línea 508" x2="62" transform="translate(99 2525.234)" fill="none" stroke="#333" stroke-linecap="square" stroke-width="3" stroke-dasharray="6 8"/>
      <text id="Máx._puntaje_posible" data-name="Máx. puntaje posible" transform="translate(173.633 2529)" fill="#aaa" font-size="14" font-family="SegoeUI, Segoe UI"><tspan x="0" y="0">Máx. puntaje posible</tspan></text>
      <g id="Grupo_2400" data-name="Grupo 2400" transform="translate(-85.465 -18)">
        <g id="Trazado_2768" data-name="Trazado 2768" transform="translate(137.633 2480)" fill="#9372fc" style="mix-blend-mode: multiply;isolation: isolate">
          <path d="M 15 28.5 C 11.39402008056641 28.5 8.003870010375977 27.09575080871582 5.454060077667236 24.54594039916992 C 2.904249906539917 21.99612998962402 1.5 18.60597991943359 1.5 15 C 1.5 11.39402008056641 2.904249906539917 8.003870010375977 5.454060077667236 5.454060077667236 C 8.003870010375977 2.904249906539917 11.39402008056641 1.5 15 1.5 C 18.60597991943359 1.5 21.99612998962402 2.904249906539917 24.54594039916992 5.454060077667236 C 27.09575080871582 8.003870010375977 28.5 11.39402008056641 28.5 15 C 28.5 18.60597991943359 27.09575080871582 21.99612998962402 24.54594039916992 24.54594039916992 C 21.99612998962402 27.09575080871582 18.60597991943359 28.5 15 28.5 Z" stroke="none"/>
          <path d="M 15 3 C 11.79467964172363 3 8.781219482421875 4.248220443725586 6.514720916748047 6.514720916748047 C 4.248220443725586 8.781219482421875 3 11.79467964172363 3 15 C 3 18.20532035827637 4.248220443725586 21.21878051757813 6.514720916748047 23.48527908325195 C 8.781219482421875 25.75177955627441 11.79467964172363 27 15 27 C 18.20532035827637 27 21.21878051757813 25.75177955627441 23.48527908325195 23.48527908325195 C 25.75177955627441 21.21878051757813 27 18.20532035827637 27 15 C 27 11.79467964172363 25.75177955627441 8.781219482421875 23.48527908325195 6.514720916748047 C 21.21878051757813 4.248220443725586 18.20532035827637 3 15 3 M 15 0 C 23.28426933288574 0 30 6.715730667114258 30 15 C 30 23.28426933288574 23.28426933288574 30 15 30 C 6.715730667114258 30 0 23.28426933288574 0 15 C 0 6.715730667114258 6.715730667114258 0 15 0 Z" stroke="none" fill="#fff"/>
        </g>
        <text id="Pilares" transform="translate(173.633 2500)" fill="#aaa" font-size="14" font-family="SegoeUI, Segoe UI"><tspan x="0" y="0">Pilares</tspan></text>
      </g>
      <g id="Grupo_2399" data-name="Grupo 2399" transform="translate(5.199 -57.963)">
        <g id="Trazado_2890" data-name="Trazado 2890" transform="translate(137.633 2519.963)" fill="#28bac5" style="mix-blend-mode: multiply;isolation: isolate">
          <path d="M 15 28.5 C 11.39402008056641 28.5 8.003870010375977 27.09575080871582 5.454060077667236 24.54594039916992 C 2.904249906539917 21.99612998962402 1.5 18.60597991943359 1.5 15 C 1.5 11.39402008056641 2.904249906539917 8.003870010375977 5.454060077667236 5.454060077667236 C 8.003870010375977 2.904249906539917 11.39402008056641 1.5 15 1.5 C 18.60597991943359 1.5 21.99612998962402 2.904249906539917 24.54594039916992 5.454060077667236 C 27.09575080871582 8.003870010375977 28.5 11.39402008056641 28.5 15 C 28.5 18.60597991943359 27.09575080871582 21.99612998962402 24.54594039916992 24.54594039916992 C 21.99612998962402 27.09575080871582 18.60597991943359 28.5 15 28.5 Z" stroke="none"/>
          <path d="M 15 3 C 11.79467964172363 3 8.781219482421875 4.248220443725586 6.514720916748047 6.514720916748047 C 4.248220443725586 8.781219482421875 3 11.79467964172363 3 15 C 3 18.20532035827637 4.248220443725586 21.21878051757813 6.514720916748047 23.48527908325195 C 8.781219482421875 25.75177955627441 11.79467964172363 27 15 27 C 18.20532035827637 27 21.21878051757813 25.75177955627441 23.48527908325195 23.48527908325195 C 25.75177955627441 21.21878051757813 27 18.20532035827637 27 15 C 27 11.79467964172363 25.75177955627441 8.781219482421875 23.48527908325195 6.514720916748047 C 21.21878051757813 4.248220443725586 18.20532035827637 3 15 3 M 15 0 C 23.28426933288574 0 30 6.715730667114258 30 15 C 30 23.28426933288574 23.28426933288574 30 15 30 C 6.715730667114258 30 0 23.28426933288574 0 15 C 0 6.715730667114258 6.715730667114258 0 15 0 Z" stroke="none" fill="#fff"/>
        </g>
        <text id="Centralizadas" transform="translate(173.633 2539.963)" fill="#aaa" font-size="14" font-family="SegoeUI, Segoe UI"><tspan x="0" y="0">Centralizadas</tspan></text>
      </g>
      <g id="Grupo_2398" data-name="Grupo 2398" transform="translate(143.863 -97.926)">
        <g id="Trazado_2891" data-name="Trazado 2891" transform="translate(137.633 2559.926)" fill="#fb5154" style="mix-blend-mode: multiply;isolation: isolate">
          <path d="M 15 28.5 C 11.39402008056641 28.5 8.003870010375977 27.09575080871582 5.454060077667236 24.54594039916992 C 2.904249906539917 21.99612998962402 1.5 18.60597991943359 1.5 15 C 1.5 11.39402008056641 2.904249906539917 8.003870010375977 5.454060077667236 5.454060077667236 C 8.003870010375977 2.904249906539917 11.39402008056641 1.5 15 1.5 C 18.60597991943359 1.5 21.99612998962402 2.904249906539917 24.54594039916992 5.454060077667236 C 27.09575080871582 8.003870010375977 28.5 11.39402008056641 28.5 15 C 28.5 18.60597991943359 27.09575080871582 21.99612998962402 24.54594039916992 24.54594039916992 C 21.99612998962402 27.09575080871582 18.60597991943359 28.5 15 28.5 Z" stroke="none"/>
          <path d="M 15 3 C 11.79467964172363 3 8.781219482421875 4.248220443725586 6.514720916748047 6.514720916748047 C 4.248220443725586 8.781219482421875 3 11.79467964172363 3 15 C 3 18.20532035827637 4.248220443725586 21.21878051757813 6.514720916748047 23.48527908325195 C 8.781219482421875 25.75177955627441 11.79467964172363 27 15 27 C 18.20532035827637 27 21.21878051757813 25.75177955627441 23.48527908325195 23.48527908325195 C 25.75177955627441 21.21878051757813 27 18.20532035827637 27 15 C 27 11.79467964172363 25.75177955627441 8.781219482421875 23.48527908325195 6.514720916748047 C 21.21878051757813 4.248220443725586 18.20532035827637 3 15 3 M 15 0 C 23.28426933288574 0 30 6.715730667114258 30 15 C 30 23.28426933288574 23.28426933288574 30 15 30 C 6.715730667114258 30 0 23.28426933288574 0 15 C 0 6.715730667114258 6.715730667114258 0 15 0 Z" stroke="none" fill="#fff"/>
        </g>
        <text id="Nuevas" transform="translate(173.633 2579.926)" fill="#aaa" font-size="14" font-family="SegoeUI, Segoe UI"><tspan x="0" y="0">Nuevas</tspan></text>
      </g>
    </g>
    <g id="Grupo_2408" data-name="Grupo 2408" transform="translate(16624 -545.898)">
      <line id="Línea_578" data-name="Línea 578" x2="307.26" transform="translate(-16545.967 4141)" fill="none" stroke="#989898" stroke-linecap="round" stroke-width="1"/>
      <line id="Línea_579" data-name="Línea 579" x2="307.26" transform="translate(-16545.967 4439.989)" fill="none" stroke="#989898" stroke-linecap="round" stroke-width="1"/>
      <line id="Línea_580" data-name="Línea 580" x2="307.26" transform="translate(-16545.967 4339.961)" fill="none" stroke="#989898" stroke-linecap="round" stroke-width="1"/>
      <line id="Línea_581" data-name="Línea 581" x2="307.26" transform="translate(-16545.967 4240.119)" fill="none" stroke="#989898" stroke-linecap="round" stroke-width="1"/>
      <text id="_20" data-name="20" transform="translate(-16596 4131.897)" fill="#333" font-size="18" font-family="SegoeUI-Bold, Segoe UI" font-weight="700"><tspan x="5.293" y="19">20</tspan></text>
      <text id="_10" data-name="10" transform="translate(-16596 4335.897)" fill="#333" font-size="18" font-family="SegoeUI-Bold, Segoe UI" font-weight="700"><tspan x="5.293" y="19">10</tspan></text>
      <text id="_5" data-name="5" transform="translate(-16596 4433.897)" fill="#333" font-size="18" font-family="SegoeUI-Bold, Segoe UI" font-weight="700"><tspan x="15.646" y="19">5</tspan></text>
      <text id="_15" data-name="15" transform="translate(-16596 4234.897)" fill="#333" font-size="18" font-family="SegoeUI-Bold, Segoe UI" font-weight="700"><tspan x="5.293" y="19">15</tspan></text>
      <text id="_0" data-name="0" transform="translate(-16596 4528.897)" fill="#333" font-size="18" font-family="SegoeUI-Bold, Segoe UI" font-weight="700"><tspan x="15.646" y="19">0</tspan></text>
      <line id="Línea_582" data-name="Línea 582" x1="307.26" transform="translate(-16553.16 4538.826)" fill="none" stroke="#717171" stroke-width="4"/>
      <g id="Grupo_2405" data-name="Grupo 2405" transform="translate(-328)">
        <rect id="Rectángulo_795" data-name="Rectángulo 795" width="77" height="77" transform="translate(-16190 4459.897)" fill="#9372fc"/>
        <rect id="Rectángulo_794" data-name="Rectángulo 794" width="76" height="70" transform="translate(-16109 4466.897)" fill="#16bac5"/>
        <rect id="Rectángulo_793" data-name="Rectángulo 793" width="76" height="64" transform="translate(-16029 4472.897)" fill="#ff5154"/>
        <text id="Coordinación_interinstitucional" data-name="Coordinación interinstitucional" transform="translate(-16202 4563.897)" fill="#333" font-size="14" font-family="SegoeUI-Bold, Segoe UI" font-weight="700"><tspan x="71.384" y="15">COORDINACIÓN </tspan><tspan x="52.773" y="33">INTERINSTITUCIONAL</tspan></text>
        <text id="_4" data-name="4" transform="translate(-16194 4433.897)" fill="#333" font-size="22" font-family="SegoeUI-Bold, Segoe UI" font-weight="700"><tspan x="33.673" y="24">4</tspan></text>
        <text id="_3_6" data-name="3,6" transform="translate(-16109 4437.897)" fill="#333" font-size="22" font-family="SegoeUI-Bold, Segoe UI" font-weight="700"><tspan x="24.365" y="24">3,6</tspan></text>
        <text id="_3_3" data-name="3,3" transform="translate(-16033 4446.897)" fill="#333" font-size="22" font-family="SegoeUI-Bold, Segoe UI" font-weight="700"><tspan x="24.365" y="24">3,3</tspan></text>
        <text id="_14_5" data-name="14,5" transform="translate(-16104.88 4227.52)" fill="#333" font-size="22" font-family="SegoeUI-Bold, Segoe UI" font-weight="700"><tspan x="18.491" y="24">14,5</tspan></text>
        <line id="Línea_584" data-name="Línea 584" x2="252" transform="translate(-16189.464 4255.712)" fill="none" stroke="#333" stroke-linecap="square" stroke-width="2" stroke-dasharray="6 6"/>
      </g>
    </g>
  </g>
</svg>
