<?xml version="1.0" encoding="utf-8"?>
<!-- Generator: Adobe Illustrator 25.2.0, SVG Export Plug-In . SVG Version: 6.00 Build 0)  -->
<svg version="1.1" id="Capa_1" xmlns="http://www.w3.org/2000/svg" xmlns:xlink="http://www.w3.org/1999/xlink" x="0px" y="0px"
	 viewBox="0 0 1639 798.7" style="enable-background:new 0 0 1639 798.7;" xml:space="preserve">
<style type="text/css">
	.st0{enable-background:new    ;}
	.st1{fill:#333333;}
	.st2{fill:#DADADA;}
	.st3{fill:#FC9DC4;}
	.st4{fill:#FFFFFF;}
	.st5{fill:#33BC39;}
	.st6{fill:#43D2FE;}
	.st7{fill:none;stroke:#43D2FE;stroke-width:5;}
	.st8{fill:#100000;}
	.st9{fill:none;stroke:#777777;stroke-width:4;stroke-linecap:round;stroke-dasharray:0,8;}
	.st10{fill:none;stroke:#FC9DC4;stroke-width:5;}
	.st11{fill:none;stroke:#33BC39;stroke-width:5;}
</style>
<g id="Grupo_2153" transform="translate(-148 -3526)">
	<g class="st0">
		<path class="st1" d="M795.4,3541.9v7.1h-3.4v-17.5h6.6c2.2,0,3.6,0.5,4.5,1.6c0.9,0.9,1.4,2.2,1.4,3.6s-0.5,2.7-1.4,3.6
			c-0.9,1-2.3,1.5-4.5,1.5H795.4z M798.5,3538.9c1.1,0,1.7-0.3,2.1-0.7c0.4-0.4,0.6-0.9,0.6-1.5s-0.2-1.1-0.6-1.5
			c-0.4-0.4-1-0.7-2.1-0.7h-3v4.4H798.5z"/>
		<path class="st1" d="M810.4,3541.3v7.7h-3.4v-17.5h6.4c1.8,0,2.9,0.5,3.8,1.3c0.9,0.9,1.5,2.2,1.5,3.6s-0.6,2.7-1.5,3.6
			c-0.5,0.5-1,0.8-1.8,1l6.5,8h-4.2l-6.2-7.7H810.4z M813.2,3538.3c1,0,1.4-0.2,1.7-0.5s0.5-0.8,0.5-1.3c0-0.5-0.2-1-0.5-1.3
			c-0.3-0.3-0.7-0.5-1.7-0.5h-2.8v3.7H813.2z"/>
		<path class="st1" d="M822.9,3549l7.5-17.5h2.4l7.5,17.5h-3.5l-1.6-3.9h-7l-1.6,3.9H822.9z M829.4,3542.1h4.4l-2.2-5.2
			L829.4,3542.1z M835.7,3526l-3,4h-2.2l1.7-4H835.7z"/>
		<path class="st1" d="M843.8,3540.3c0,3.4,2.6,6,6,6c2.3,0,3.9-1.1,4.9-2.4l2.3,2.1c-1.5,2-4.1,3.3-7.3,3.3c-5.4,0-9.3-4-9.3-9
			c0-5,3.8-9,9.2-9c2.6,0,4.8,1,6.4,2.5l-2.2,2.3c-1-1-2.5-1.8-4.2-1.8C846.3,3534.3,843.8,3536.9,843.8,3540.3z"/>
		<path class="st1" d="M870.8,3531.5v3h-4.6v14.5h-3.4v-14.5h-4.6v-3H870.8z"/>
		<path class="st1" d="M873.4,3531.5h3.4v17.5h-3.4V3531.5z"/>
		<path class="st1" d="M882.9,3540.3c0,3.4,2.6,6,6,6c2.3,0,3.9-1.1,4.9-2.4l2.3,2.1c-1.5,2-4.1,3.3-7.3,3.3c-5.4,0-9.3-4-9.3-9
			c0-5,3.8-9,9.2-9c2.6,0,4.8,1,6.4,2.5l-2.2,2.3c-1-1-2.5-1.8-4.2-1.8C885.4,3534.3,882.9,3536.9,882.9,3540.3z"/>
		<path class="st1" d="M897.2,3549l7.5-17.5h2.4l7.5,17.5H911l-1.6-3.9h-7l-1.6,3.9H897.2z M903.6,3542.1h4.4l-2.2-5.2L903.6,3542.1
			z"/>
		<path class="st1" d="M917.8,3544.3c1,1.1,2.5,1.9,4.1,1.9c1.5,0,2.5-0.9,2.5-2.2c0-2.2-3.2-2.5-5.6-3.9c-1.4-0.8-2.5-2-2.5-4
			c0-3.1,2.9-4.9,5.8-4.9c1.8,0,3.4,0.4,5.1,1.7l-1.7,2.5c-0.7-0.6-1.9-1.1-3-1.1c-1.3,0-2.7,0.5-2.7,1.9c0,2.8,8.1,1.9,8.1,7.8
			c0,3.1-2.8,5.2-5.9,5.2c-2.3,0-4.5-1-6.3-2.6L917.8,3544.3z"/>
		<path class="st1" d="M944.4,3541.1v7.9h-3.4v-7.9l-6-9.6h3.8l3.8,6.1l3.8-6.1h3.8L944.4,3541.1z"/>
		<path class="st1" d="M962.2,3541.9v7.1h-3.4v-17.5h6.6c2.2,0,3.6,0.5,4.5,1.6c0.9,0.9,1.4,2.2,1.4,3.6s-0.5,2.7-1.4,3.6
			c-1,1-2.3,1.5-4.5,1.5H962.2z M965.2,3538.9c1.1,0,1.7-0.3,2.1-0.7c0.4-0.4,0.6-0.9,0.6-1.5s-0.2-1.1-0.6-1.5
			c-0.4-0.4-1-0.7-2.1-0.7h-3v4.4H965.2z"/>
		<path class="st1" d="M977.2,3541.3v7.7h-3.4v-17.5h6.4c1.8,0,2.9,0.5,3.8,1.3c1,0.9,1.5,2.2,1.5,3.6s-0.6,2.7-1.5,3.6
			c-0.5,0.5-1,0.8-1.8,1l6.5,8h-4.2l-6.2-7.7H977.2z M980,3538.3c1,0,1.4-0.2,1.7-0.5s0.5-0.8,0.5-1.3c0-0.5-0.2-1-0.5-1.3
			c-0.3-0.3-0.7-0.5-1.7-0.5h-2.8v3.7H980z"/>
		<path class="st1" d="M997.4,3531.3c5.4,0,9.1,4,9.1,9s-3.7,9-9.1,9c-5.4,0-9.1-4-9.1-9S992,3531.3,997.4,3531.3z M997.4,3546.3
			c3.3,0,5.7-2.7,5.7-6c0-3.3-2.4-6-5.7-6c-3.3,0-5.7,2.7-5.7,6C991.7,3543.6,994.1,3546.3,997.4,3546.3z"/>
		<path class="st1" d="M1012.3,3540.3c0,3.4,2.6,6,6,6c2.3,0,3.9-1.1,4.9-2.4l2.3,2.1c-1.5,2-4.1,3.3-7.3,3.3c-5.4,0-9.3-4-9.3-9
			c0-5,3.8-9,9.2-9c2.6,0,4.8,1,6.4,2.5l-2.2,2.3c-1-1-2.5-1.8-4.2-1.8C1014.8,3534.3,1012.3,3536.9,1012.3,3540.3z"/>
		<path class="st1" d="M1031.4,3534.5v3.6h5.4v3h-5.4v4.9h7.4v3h-10.7v-17.5h10.5v3H1031.4z"/>
		<path class="st1" d="M1042.6,3544.3c1,1.1,2.5,1.9,4.1,1.9c1.5,0,2.5-0.9,2.5-2.2c0-2.2-3.2-2.5-5.6-3.9c-1.4-0.8-2.5-2-2.5-4
			c0-3.1,2.9-4.9,5.8-4.9c1.8,0,3.4,0.4,5.1,1.7l-1.7,2.5c-0.7-0.6-1.9-1.1-3-1.1c-1.3,0-2.7,0.5-2.7,1.9c0,2.8,8.1,1.9,8.1,7.8
			c0,3.1-2.8,5.2-5.9,5.2c-2.3,0-4.5-1-6.3-2.6L1042.6,3544.3z"/>
		<path class="st1" d="M1063.7,3531.3c5.4,0,9.1,4,9.1,9s-3.7,9-9.1,9c-5.4,0-9.1-4-9.1-9S1058.3,3531.3,1063.7,3531.3z
			 M1063.7,3546.3c3.3,0,5.7-2.7,5.7-6c0-3.3-2.4-6-5.7-6s-5.7,2.7-5.7,6C1057.9,3543.6,1060.4,3546.3,1063.7,3546.3z"/>
		<path class="st1" d="M1076,3544.3c1,1.1,2.5,1.9,4.1,1.9c1.5,0,2.5-0.9,2.5-2.2c0-2.2-3.2-2.5-5.6-3.9c-1.4-0.8-2.5-2-2.5-4
			c0-3.1,2.9-4.9,5.8-4.9c1.8,0,3.4,0.4,5.1,1.7l-1.8,2.5c-0.7-0.6-1.9-1.1-3-1.1c-1.3,0-2.7,0.5-2.7,1.9c0,2.8,8.1,1.9,8.1,7.8
			c0,3.1-2.8,5.2-5.9,5.2c-2.3,0-4.5-1-6.3-2.6L1076,3544.3z"/>
	</g>
	<g class="st0">
		<path class="st1" d="M832.9,4245.4v5.6h-1.8v-12.6h4.8c1.2,0,2,0.3,2.6,0.8c0.8,0.6,1.2,1.6,1.2,2.7s-0.5,2-1.2,2.7
			c-0.6,0.5-1.4,0.8-2.6,0.8H832.9z M835.8,4243.7c0.9,0,1.3-0.2,1.7-0.6c0.3-0.3,0.5-0.8,0.5-1.2s-0.2-0.9-0.5-1.2
			c-0.3-0.3-0.8-0.6-1.7-0.6h-2.9v3.6H835.8z"/>
		<path class="st1" d="M846.5,4244c-0.2-0.1-0.4-0.1-0.7-0.1c-0.9,0-1.8,0.6-2.3,1.4v5.6h-1.7v-8.5h1.7v1c0.4-0.6,1.3-1.2,2.5-1.2
			c0.2,0,0.5,0,0.7,0.1L846.5,4244z"/>
		<path class="st1" d="M852,4242.4c2.5,0,4.4,1.9,4.4,4.4s-1.9,4.4-4.4,4.4s-4.4-1.9-4.4-4.4S849.5,4242.4,852,4242.4z M852,4249.6
			c1.6,0,2.7-1.2,2.7-2.8c0-1.5-1.1-2.8-2.7-2.8s-2.7,1.2-2.7,2.8C849.3,4248.3,850.4,4249.6,852,4249.6z"/>
		<path class="st1" d="M860.4,4242.5v0.8c0.3-0.4,1.3-1,2.5-1c1.2,0,2.3,0.6,3,1.4c0.8-0.8,1.7-1.4,3.2-1.4c1.2,0,2.3,0.5,3,1.4
			c0.5,0.6,0.8,1.5,0.8,2.9v4.3h-1.7v-4.6c0-0.9-0.2-1.3-0.5-1.7c-0.4-0.5-1-0.7-1.6-0.7c-1.2,0-2,0.6-2.6,1.2
			c0.1,0.4,0.1,0.9,0.1,1.5v4.3h-1.7v-4.6c0-0.9-0.2-1.3-0.5-1.7c-0.4-0.5-1-0.7-1.6-0.7c-1,0-1.9,0.6-2.4,1.2v5.8h-1.7v-8.5H860.4z
			"/>
		<path class="st1" d="M876.7,4247.1c0.1,1.4,1.3,2.6,2.7,2.6c1.3,0,1.9-0.6,2.4-1.2l1.1,1.1c-0.6,0.8-1.8,1.6-3.6,1.6
			c-2.5,0-4.4-1.9-4.4-4.4c0-2.5,1.7-4.4,4.1-4.4c2.4,0,4.1,1.9,4.1,4.4c0,0.1,0,0.2,0,0.4H876.7z M876.8,4245.7h4.6
			c-0.3-1.1-1.2-1.8-2.2-1.8C878.1,4243.9,877.1,4244.6,876.8,4245.7z"/>
		<path class="st1" d="M891.7,4250.2c-0.7,0.6-1.6,1-2.6,1c-0.8,0-1.5-0.2-2.1-0.6c-1.3-0.8-2.2-2.2-2.2-3.9s0.9-3.1,2.2-3.9
			c0.6-0.3,1.3-0.5,2.1-0.5c0.9,0,1.8,0.3,2.6,0.9v-5.1h1.7v12.8h-1.7V4250.2z M891.7,4245.2c-0.5-0.7-1.4-1.2-2.4-1.2
			c-1.6,0-2.7,1.3-2.7,2.8c0,1.5,1.2,2.8,2.8,2.8c0.9,0,1.7-0.4,2.3-1.2V4245.2z"/>
		<path class="st1" d="M897.3,4238.4c0.6,0,1.1,0.5,1.1,1.1c0,0.6-0.5,1.1-1.1,1.1c-0.6,0-1.1-0.5-1.1-1.1
			C896.2,4238.9,896.7,4238.4,897.3,4238.4z M896.4,4242.5h1.7v8.5h-1.7V4242.5z"/>
		<path class="st1" d="M904.9,4242.4c2.5,0,4.4,1.9,4.4,4.4s-1.9,4.4-4.4,4.4s-4.4-1.9-4.4-4.4S902.4,4242.4,904.9,4242.4z
			 M904.9,4249.6c1.6,0,2.7-1.2,2.7-2.8c0-1.5-1.1-2.8-2.7-2.8s-2.7,1.2-2.7,2.8C902.2,4248.3,903.3,4249.6,904.9,4249.6z"/>
		<path class="st1" d="M920,4251.2c-0.8,0-1.5-0.2-2.1-0.6c-1.3-0.8-2.2-2.2-2.2-3.9s0.9-3.1,2.2-3.9c0.6-0.3,1.3-0.5,2.1-0.5
			c1,0,1.9,0.3,2.6,1v-0.8h1.7v8.1c0,1.3-0.2,2.1-0.5,2.8c-0.7,1.3-2,2.1-3.7,2.1c-2.2,0-3.6-1.1-4.1-2l1.3-1.2
			c0.6,0.8,1.4,1.5,2.8,1.5c0.9,0,1.6-0.3,2.1-1c0.3-0.5,0.5-1.1,0.5-2.2v-0.5C921.9,4250.9,921,4251.2,920,4251.2z M922.6,4245.2
			c-0.5-0.7-1.4-1.2-2.4-1.2c-1.6,0-2.7,1.3-2.7,2.8c0,1.5,1.2,2.8,2.8,2.8c0.9,0,1.7-0.4,2.3-1.2V4245.2z"/>
		<path class="st1" d="M928.3,4247.1c0.1,1.4,1.3,2.6,2.7,2.6c1.3,0,1.9-0.6,2.4-1.2l1.1,1.1c-0.6,0.8-1.8,1.6-3.6,1.6
			c-2.5,0-4.4-1.9-4.4-4.4c0-2.5,1.7-4.4,4.1-4.4c2.4,0,4.1,1.9,4.1,4.4c0,0.1,0,0.2,0,0.4H928.3z M928.4,4245.7h4.6
			c-0.3-1.1-1.2-1.8-2.2-1.8C929.7,4243.9,928.7,4244.6,928.4,4245.7z"/>
		<path class="st1" d="M938.8,4243.3c0.5-0.4,1.3-1,2.5-1c1.2,0,2.4,0.6,3.1,1.5c0.5,0.7,0.8,1.5,0.8,3v4.1h-1.7v-4.2
			c0-1.1-0.2-1.6-0.5-2c-0.4-0.5-1-0.8-1.7-0.8c-1.1,0-1.9,0.6-2.4,1.2v5.8h-1.7v-8.5h1.7V4243.3z"/>
		<path class="st1" d="M949.1,4247.1c0.1,1.4,1.3,2.6,2.7,2.6c1.3,0,1.9-0.6,2.4-1.2l1.1,1.1c-0.6,0.8-1.8,1.6-3.6,1.6
			c-2.5,0-4.4-1.9-4.4-4.4c0-2.5,1.7-4.4,4.1-4.4c2.4,0,4.1,1.9,4.1,4.4c0,0.1,0,0.2,0,0.4H949.1z M949.2,4245.7h4.6
			c-0.3-1.1-1.2-1.8-2.2-1.8C950.5,4243.9,949.5,4244.6,949.2,4245.7z"/>
		<path class="st1" d="M962.6,4244c-0.2-0.1-0.4-0.1-0.7-0.1c-0.9,0-1.8,0.6-2.3,1.4v5.6h-1.7v-8.5h1.7v1c0.4-0.6,1.3-1.2,2.5-1.2
			c0.2,0,0.5,0,0.7,0.1L962.6,4244z"/>
		<path class="st1" d="M970.7,4250.2c-0.7,0.6-1.6,1-2.6,1c-0.8,0-1.5-0.2-2.1-0.6c-1.3-0.8-2.2-2.2-2.2-3.9s0.9-3.1,2.2-3.9
			c0.6-0.3,1.3-0.5,2.1-0.5c1,0,1.9,0.3,2.6,1v-0.8h1.7v8.5h-1.7V4250.2z M970.6,4245.2c-0.5-0.7-1.4-1.2-2.4-1.2
			c-1.6,0-2.7,1.3-2.7,2.8c0,1.5,1.2,2.8,2.8,2.8c0.9,0,1.7-0.4,2.3-1.2V4245.2z"/>
		<path class="st1" d="M975.4,4238.2h1.7v12.8h-1.7V4238.2z"/>
		<path class="st1" d="M981.9,4242.4c0.7,0,1.3,0.6,1.3,1.3s-0.6,1.3-1.3,1.3s-1.3-0.6-1.3-1.3S981.2,4242.4,981.9,4242.4z
			 M981.9,4248.7c0.7,0,1.3,0.6,1.3,1.3s-0.6,1.3-1.3,1.3s-1.3-0.6-1.3-1.3S981.2,4248.7,981.9,4248.7z"/>
	</g>
	<g class="st0">
		<path class="st1" d="M989.7,4240.2l3.1-1.8h1.7v12.6H992v-9.8l-2.3,1.3V4240.2z"/>
		<path class="st1" d="M1001.8,4238.2c3.2,0,4.4,2.9,4.4,6.5s-1.2,6.5-4.4,6.5c-3.2,0-4.4-2.9-4.4-6.5S998.5,4238.2,1001.8,4238.2z
			 M1001.8,4240.4c-1.5,0-2,1.9-2,4.3s0.5,4.3,2,4.3c1.5,0,2-1.9,2-4.3S1003.2,4240.4,1001.8,4240.4z"/>
	</g>
	<rect id="Rectángulo_475" x="699" y="3652" class="st2" width="480" height="72"/>
	<rect id="Rectángulo_476" x="699" y="3652" class="st3" width="144" height="72"/>
	<g class="st0">
		<path class="st4" d="M737,3695.2v3.8h-13.8v-3.8h4.6V3683l-3.6,2.1l-1.8-3.4l6.7-3.9h3.3v17.4H737z"/>
		<path class="st4" d="M754.5,3695.2v3.8H740v-3.5l7-7.5c1.5-1.6,2.2-3,2.2-4.3c0-1.7-1-2.5-2.9-2.5c-0.9,0-1.8,0.2-2.8,0.5
			c-1,0.4-1.9,0.9-2.8,1.5l-1.5-3.3c0.8-0.7,1.9-1.3,3.2-1.7c1.3-0.4,2.7-0.6,4-0.6c2.2,0,4,0.5,5.3,1.6c1.3,1.1,2,2.5,2,4.3
			c0,1.2-0.3,2.4-0.8,3.4c-0.5,1-1.4,2.2-2.6,3.5l-4.7,5H754.5z"/>
	</g>
	<rect id="Rectángulo_475-2" x="699" y="3899.6" class="st2" width="480" height="72"/>
	<rect id="Rectángulo_476-2" x="699" y="3899.6" class="st3" width="99" height="72"/>
	<g class="st0">
		<path class="st4" d="M736.1,3937.6c0.7,0.9,1,2,1,3.3c0,1.9-0.7,3.3-2.2,4.4c-1.4,1.1-3.4,1.6-6,1.6c-2.5,0-4.5-0.5-6-1.6
			c-1.4-1.1-2.2-2.5-2.2-4.4c0-1.3,0.3-2.4,1-3.3c0.7-0.9,1.6-1.5,2.9-1.8c-1-0.4-1.9-1-2.4-1.9s-0.9-1.8-0.9-2.9
			c0-1.8,0.7-3.2,2-4.2c1.4-1,3.2-1.5,5.5-1.5c2.4,0,4.2,0.5,5.6,1.5c1.4,1,2,2.4,2,4.2c0,1.1-0.3,2.1-0.9,3
			c-0.6,0.9-1.4,1.5-2.4,1.8C734.5,3936.1,735.5,3936.7,736.1,3937.6z M732.8,3940.5c0-1.9-1.3-2.8-3.8-2.8s-3.8,0.9-3.8,2.8
			s1.3,2.8,3.8,2.8S732.8,3942.3,732.8,3940.5z M725.8,3931.4c0,1.8,1.1,2.7,3.2,2.7c2.1,0,3.2-0.9,3.2-2.7c0-1.8-1.1-2.7-3.2-2.7
			C726.9,3928.7,725.8,3929.6,725.8,3931.4z"/>
		<path class="st4" d="M744.3,3941.8v3.1c0,1.1-0.2,2.2-0.6,3.1c-0.4,1-1.1,1.9-2.1,2.9l-1.8-1.4c1-1,1.6-2,1.8-2.9h-2.2v-4.8H744.3
			z"/>
		<path class="st4" d="M761.2,3937.6c0.7,0.9,1,2,1,3.3c0,1.9-0.7,3.3-2.1,4.4c-1.4,1.1-3.3,1.6-5.8,1.6c-1.5,0-2.9-0.2-4.2-0.6
			c-1.3-0.4-2.4-1-3.3-1.7l1.5-3.3c1.9,1.4,3.8,2,5.8,2c1.3,0,2.2-0.2,2.8-0.7s0.9-1.2,0.9-2.1c0-0.9-0.3-1.6-0.9-2
			s-1.5-0.6-2.8-0.6h-3v-3.6h2.5c1.2,0,2.1-0.2,2.7-0.6s0.9-1.1,0.9-2c0-0.9-0.3-1.5-0.8-2c-0.5-0.5-1.3-0.7-2.2-0.7
			c-0.9,0-1.8,0.2-2.8,0.5c-1,0.4-1.9,0.9-2.8,1.5l-1.5-3.3c0.8-0.7,1.9-1.3,3.3-1.7c1.3-0.4,2.7-0.6,4.1-0.6c1.4,0,2.7,0.2,3.8,0.7
			c1.1,0.5,1.9,1.1,2.5,2c0.6,0.9,0.9,1.9,0.9,3c0,1.1-0.3,2.1-0.9,3c-0.6,0.9-1.4,1.5-2.4,1.8
			C759.5,3936.1,760.5,3936.7,761.2,3937.6z"/>
	</g>
	<g class="st0">
		<path class="st3" d="M1175.2,4277.2v12.6h3.4v3.6h-3.4v4.8h-4v-4.8h-9.8v-2.4l10.9-13.8H1175.2z M1171.1,4289.8v-4.9l-3.9,4.9
			H1171.1z"/>
		<path class="st3" d="M1188.2,4276.9c5.4,0,7.3,4.8,7.3,10.8s-2,10.8-7.3,10.8s-7.3-4.8-7.3-10.8S1182.9,4276.9,1188.2,4276.9z
			 M1188.2,4280.5c-2.4,0-3.3,3.2-3.3,7.2c0,4,0.9,7.2,3.3,7.2s3.3-3.2,3.3-7.2C1191.5,4283.7,1190.7,4280.5,1188.2,4280.5z"/>
	</g>
	<rect id="Rectángulo_475-3" x="699" y="4147.2" class="st2" width="480" height="72"/>
	<rect id="Rectángulo_476-3" x="699" y="4147.2" class="st3" width="105" height="72"/>
	<g class="st0">
		<path class="st4" d="M736.1,4185.2c0.7,0.9,1,2,1,3.3c0,1.9-0.7,3.3-2.2,4.4c-1.4,1.1-3.4,1.6-6,1.6c-2.5,0-4.5-0.5-6-1.6
			c-1.4-1.1-2.2-2.5-2.2-4.4c0-1.3,0.3-2.4,1-3.3c0.7-0.9,1.6-1.5,2.9-1.8c-1-0.4-1.9-1-2.4-1.9s-0.9-1.8-0.9-2.9
			c0-1.8,0.7-3.2,2-4.2c1.4-1,3.2-1.5,5.5-1.5c2.4,0,4.2,0.5,5.6,1.5c1.4,1,2,2.4,2,4.2c0,1.1-0.3,2.1-0.9,3
			c-0.6,0.9-1.4,1.5-2.4,1.8C734.5,4183.6,735.5,4184.3,736.1,4185.2z M732.8,4188c0-1.9-1.3-2.8-3.8-2.8s-3.8,0.9-3.8,2.8
			s1.3,2.8,3.8,2.8S732.8,4189.9,732.8,4188z M725.8,4179c0,1.8,1.1,2.7,3.2,2.7c2.1,0,3.2-0.9,3.2-2.7c0-1.8-1.1-2.7-3.2-2.7
			C726.9,4176.3,725.8,4177.2,725.8,4179z"/>
		<path class="st4" d="M744.3,4189.4v3.1c0,1.1-0.2,2.2-0.6,3.1c-0.4,1-1.1,1.9-2.1,2.9l-1.8-1.4c1-1,1.6-2,1.8-2.9h-2.2v-4.8H744.3
			z"/>
		<path class="st4" d="M761.9,4185.2c0.7,0.9,1,2,1,3.3c0,1.9-0.7,3.3-2.2,4.4c-1.4,1.1-3.4,1.6-6,1.6c-2.5,0-4.5-0.5-6-1.6
			c-1.4-1.1-2.2-2.5-2.2-4.4c0-1.3,0.3-2.4,1-3.3c0.7-0.9,1.6-1.5,2.9-1.8c-1-0.4-1.9-1-2.4-1.9s-0.9-1.8-0.9-2.9
			c0-1.8,0.7-3.2,2-4.2c1.4-1,3.2-1.5,5.5-1.5c2.4,0,4.2,0.5,5.6,1.5c1.4,1,2,2.4,2,4.2c0,1.1-0.3,2.1-0.9,3
			c-0.6,0.9-1.4,1.5-2.4,1.8C760.3,4183.6,761.3,4184.3,761.9,4185.2z M758.6,4188c0-1.9-1.3-2.8-3.8-2.8s-3.8,0.9-3.8,2.8
			s1.3,2.8,3.8,2.8S758.6,4189.9,758.6,4188z M751.6,4179c0,1.8,1.1,2.7,3.2,2.7c2.1,0,3.2-0.9,3.2-2.7c0-1.8-1.1-2.7-3.2-2.7
			C752.7,4176.3,751.6,4177.2,751.6,4179z"/>
	</g>
	<g class="st0">
		<path class="st1" d="M1329.9,3540.3c0,3.4,2.6,6,6,6c2.3,0,3.9-1.1,4.9-2.4l2.3,2.1c-1.5,2-4.1,3.3-7.3,3.3c-5.4,0-9.3-4-9.3-9
			c0-5,3.8-9,9.2-9c2.6,0,4.8,1,6.4,2.5l-2.2,2.3c-1-1-2.5-1.8-4.2-1.8C1332.4,3534.3,1329.9,3536.9,1329.9,3540.3z"/>
		<path class="st1" d="M1353.4,3531.3c5.4,0,9.1,4,9.1,9s-3.7,9-9.1,9s-9.1-4-9.1-9S1348,3531.3,1353.4,3531.3z M1353.4,3546.3
			c3.3,0,5.7-2.7,5.7-6c0-3.3-2.4-6-5.7-6s-5.7,2.7-5.7,6C1347.7,3543.6,1350.1,3546.3,1353.4,3546.3z"/>
		<path class="st1" d="M1365.3,3531.5h3.4v14.5h7.4v3h-10.7V3531.5z"/>
		<path class="st1" d="M1377.8,3549l7.5-17.5h2.4l7.5,17.5h-3.5l-1.6-3.9h-7l-1.7,3.9H1377.8z M1384.3,3542.1h4.4l-2.2-5.2
			L1384.3,3542.1z"/>
		<path class="st1" d="M1403.1,3531.5c2,0,3.1,0.5,3.9,1.2c1,0.9,1.6,2.1,1.6,3.5c0,1.1-0.5,2.3-1.1,2.9c1.5,0.8,2.6,2.5,2.6,4.5
			c0,1.5-0.6,2.8-1.6,3.8c-1,1-2.3,1.6-4.6,1.6h-6.8v-17.5H1403.1z M1400.6,3538.3h2.4c1,0,1.5-0.2,1.9-0.6c0.3-0.3,0.5-0.8,0.5-1.2
			s-0.2-0.9-0.5-1.2c-0.3-0.4-0.8-0.6-1.9-0.6h-2.4V3538.3z M1403.9,3546c1.2,0,1.8-0.3,2.2-0.8c0.4-0.4,0.6-1,0.6-1.6
			c0-0.6-0.2-1.2-0.6-1.6c-0.4-0.5-1.1-0.8-2.2-0.8h-3.4v4.7H1403.9z"/>
		<path class="st1" d="M1421.1,3531.3c5.4,0,9.1,4,9.1,9s-3.7,9-9.1,9s-9.1-4-9.1-9S1415.7,3531.3,1421.1,3531.3z M1421.1,3546.3
			c3.3,0,5.7-2.7,5.7-6c0-3.3-2.4-6-5.7-6c-3.3,0-5.7,2.7-5.7,6C1415.3,3543.6,1417.8,3546.3,1421.1,3546.3z"/>
		<path class="st1" d="M1436.3,3541.3v7.7h-3.4v-17.5h6.4c1.8,0,2.9,0.5,3.8,1.3c0.9,0.9,1.5,2.2,1.5,3.6s-0.6,2.7-1.5,3.6
			c-0.5,0.5-1,0.8-1.8,1l6.5,8h-4.2l-6.2-7.7H1436.3z M1439.1,3538.3c1,0,1.4-0.2,1.7-0.5c0.3-0.3,0.5-0.8,0.5-1.3
			c0-0.5-0.2-1-0.5-1.3c-0.3-0.3-0.7-0.5-1.7-0.5h-2.8v3.7H1439.1z"/>
		<path class="st1" d="M1448.8,3549l7.5-17.5h2.4l7.5,17.5h-3.5l-1.6-3.9h-7l-1.7,3.9H1448.8z M1455.3,3542.1h4.4l-2.2-5.2
			L1455.3,3542.1z"/>
		<path class="st1" d="M1469.7,3540.3c0,3.4,2.6,6,6,6c2.3,0,3.9-1.1,4.9-2.4l2.3,2.1c-1.5,2-4.1,3.3-7.3,3.3c-5.4,0-9.3-4-9.3-9
			c0-5,3.8-9,9.2-9c2.6,0,4.8,1,6.4,2.5l-2.2,2.3c-1-1-2.5-1.8-4.2-1.8C1472.2,3534.3,1469.7,3536.9,1469.7,3540.3z"/>
		<path class="st1" d="M1485.4,3531.5h3.4v17.5h-3.4V3531.5z"/>
		<path class="st1" d="M1500.7,3531.3c5.4,0,9.1,4,9.1,9s-3.7,9-9.1,9c-5.4,0-9.1-4-9.1-9S1495.3,3531.3,1500.7,3531.3z
			 M1500.7,3546.3c3.3,0,5.7-2.7,5.7-6c0-3.3-2.4-6-5.7-6s-5.7,2.7-5.7,6C1494.9,3543.6,1497.4,3546.3,1500.7,3546.3z M1504.8,3526
			l-3,4h-2.2l1.7-4H1504.8z"/>
		<path class="st1" d="M1512.6,3531.5h2.4l9.7,11.4v-11.4h3.4v17.5h-2.4l-9.7-11.4v11.4h-3.4V3531.5z"/>
		<path class="st1" d="M1545.8,3541.1v7.9h-3.4v-7.9l-6-9.6h3.8l3.8,6.1l3.8-6.1h3.8L1545.8,3541.1z"/>
		<path class="st1" d="M1557.7,3549l7.5-17.5h2.4l7.5,17.5h-3.5l-1.6-3.9h-7l-1.7,3.9H1557.7z M1564.1,3542.1h4.4l-2.2-5.2
			L1564.1,3542.1z"/>
		<path class="st1" d="M1580.4,3541.9v7.1h-3.4v-17.5h6.6c2.2,0,3.6,0.5,4.5,1.6c0.9,0.9,1.4,2.2,1.4,3.6s-0.5,2.7-1.4,3.6
			c-0.9,1-2.3,1.5-4.5,1.5H1580.4z M1583.5,3538.9c1.2,0,1.7-0.3,2.1-0.7c0.4-0.4,0.6-0.9,0.6-1.5s-0.2-1.1-0.6-1.5
			c-0.4-0.4-1-0.7-2.1-0.7h-3v4.4H1583.5z"/>
		<path class="st1" d="M1595.4,3534.5v3.6h5.4v3h-5.4v4.9h7.4v3h-10.7v-17.5h10.5v3H1595.4z"/>
		<path class="st1" d="M1609.2,3541.3v7.7h-3.4v-17.5h6.4c1.8,0,2.9,0.5,3.8,1.3c1,0.9,1.6,2.2,1.6,3.6s-0.6,2.7-1.6,3.6
			c-0.5,0.5-1,0.8-1.7,1l6.5,8h-4.2l-6.2-7.7H1609.2z M1612,3538.3c1,0,1.4-0.2,1.7-0.5c0.3-0.3,0.5-0.8,0.5-1.3
			c0-0.5-0.2-1-0.5-1.3c-0.3-0.3-0.7-0.5-1.7-0.5h-2.8v3.7H1612z"/>
		<path class="st1" d="M1632.6,3531.5v3h-4.6v14.5h-3.4v-14.5h-4.6v-3H1632.6z"/>
		<path class="st1" d="M1637.3,3547.5c-1.4-1.3-2.2-3.1-2.2-5.8v-10.1h3.4v10.4c0,1.6,0.4,2.6,1.1,3.2c0.8,0.7,1.8,1.1,3,1.1
			c1.2,0,2.2-0.4,3-1.1c0.7-0.7,1.2-1.6,1.2-3.2v-10.4h3.4v10.1c0,2.7-0.8,4.5-2.2,5.8c-1.3,1.2-3.3,1.8-5.2,1.8
			S1638.7,3548.7,1637.3,3547.5z"/>
		<path class="st1" d="M1657.3,3541.3v7.7h-3.4v-17.5h6.4c1.8,0,2.9,0.5,3.8,1.3c0.9,0.9,1.6,2.2,1.6,3.6s-0.6,2.7-1.6,3.6
			c-0.5,0.5-1,0.8-1.8,1l6.5,8h-4.2l-6.2-7.7H1657.3z M1660.1,3538.3c1,0,1.4-0.2,1.7-0.5s0.5-0.8,0.5-1.3c0-0.5-0.2-1-0.5-1.3
			c-0.3-0.3-0.7-0.5-1.7-0.5h-2.8v3.7H1660.1z"/>
		<path class="st1" d="M1669.8,3549l7.5-17.5h2.4l7.5,17.5h-3.5l-1.7-3.9h-7l-1.6,3.9H1669.8z M1676.3,3542.1h4.4l-2.2-5.2
			L1676.3,3542.1z"/>
	</g>
	<g class="st0">
		<path class="st1" d="M1409.4,4245.4v5.6h-1.8v-12.6h4.8c1.2,0,2,0.3,2.6,0.8c0.8,0.6,1.2,1.6,1.2,2.7s-0.5,2-1.2,2.7
			c-0.6,0.5-1.4,0.8-2.6,0.8H1409.4z M1412.3,4243.7c0.9,0,1.3-0.2,1.7-0.6c0.3-0.3,0.5-0.8,0.5-1.2s-0.2-0.9-0.5-1.2
			c-0.3-0.3-0.8-0.6-1.7-0.6h-2.9v3.6H1412.3z"/>
		<path class="st1" d="M1423,4244c-0.2-0.1-0.4-0.1-0.7-0.1c-0.9,0-1.8,0.6-2.3,1.4v5.6h-1.7v-8.5h1.7v1c0.4-0.6,1.3-1.2,2.5-1.2
			c0.2,0,0.5,0,0.7,0.1L1423,4244z"/>
		<path class="st1" d="M1428.6,4242.4c2.5,0,4.4,1.9,4.4,4.4s-1.9,4.4-4.4,4.4s-4.4-1.9-4.4-4.4S1426.1,4242.4,1428.6,4242.4z
			 M1428.6,4249.6c1.6,0,2.7-1.2,2.7-2.8c0-1.5-1.1-2.8-2.7-2.8s-2.7,1.2-2.7,2.8C1425.9,4248.3,1427,4249.6,1428.6,4249.6z"/>
		<path class="st1" d="M1436.9,4242.5v0.8c0.3-0.4,1.3-1,2.5-1c1.2,0,2.3,0.6,3,1.4c0.8-0.8,1.7-1.4,3.2-1.4c1.2,0,2.3,0.5,3,1.4
			c0.5,0.6,0.8,1.5,0.8,2.9v4.3h-1.7v-4.6c0-0.9-0.2-1.3-0.5-1.7c-0.4-0.5-1-0.7-1.6-0.7c-1.2,0-2,0.6-2.6,1.2
			c0.1,0.4,0.1,0.9,0.1,1.5v4.3h-1.7v-4.6c0-0.9-0.2-1.3-0.5-1.7c-0.4-0.5-1-0.7-1.6-0.7c-1,0-1.9,0.6-2.4,1.2v5.8h-1.7v-8.5H1436.9
			z"/>
		<path class="st1" d="M1453.2,4247.1c0.1,1.4,1.3,2.6,2.7,2.6c1.3,0,1.9-0.6,2.4-1.2l1.1,1.1c-0.6,0.8-1.8,1.6-3.6,1.6
			c-2.5,0-4.4-1.9-4.4-4.4c0-2.5,1.7-4.4,4.1-4.4c2.4,0,4.1,1.9,4.1,4.4c0,0.1,0,0.2,0,0.4H1453.2z M1453.4,4245.7h4.6
			c-0.3-1.1-1.2-1.8-2.2-1.8C1454.6,4243.9,1453.6,4244.6,1453.4,4245.7z"/>
		<path class="st1" d="M1468.3,4250.2c-0.7,0.6-1.6,1-2.6,1c-0.8,0-1.5-0.2-2.1-0.6c-1.3-0.8-2.2-2.2-2.2-3.9s0.9-3.1,2.2-3.9
			c0.6-0.3,1.3-0.5,2.1-0.5c0.9,0,1.8,0.3,2.6,0.9v-5.1h1.7v12.8h-1.7V4250.2z M1468.2,4245.2c-0.5-0.7-1.4-1.2-2.4-1.2
			c-1.6,0-2.7,1.3-2.7,2.8c0,1.5,1.2,2.8,2.8,2.8c0.9,0,1.7-0.4,2.3-1.2V4245.2z"/>
		<path class="st1" d="M1473.8,4238.4c0.6,0,1.1,0.5,1.1,1.1c0,0.6-0.5,1.1-1.1,1.1c-0.6,0-1.1-0.5-1.1-1.1
			C1472.7,4238.9,1473.2,4238.4,1473.8,4238.4z M1473,4242.5h1.7v8.5h-1.7V4242.5z"/>
		<path class="st1" d="M1481.4,4242.4c2.5,0,4.4,1.9,4.4,4.4s-1.9,4.4-4.4,4.4c-2.5,0-4.4-1.9-4.4-4.4S1478.9,4242.4,1481.4,4242.4z
			 M1481.4,4249.6c1.6,0,2.7-1.2,2.7-2.8c0-1.5-1.1-2.8-2.7-2.8s-2.7,1.2-2.7,2.8C1478.7,4248.3,1479.8,4249.6,1481.4,4249.6z"/>
		<path class="st1" d="M1496.5,4251.2c-0.8,0-1.5-0.2-2.1-0.6c-1.3-0.8-2.2-2.2-2.2-3.9s0.9-3.1,2.2-3.9c0.6-0.3,1.3-0.5,2.1-0.5
			c1,0,1.9,0.3,2.6,1v-0.8h1.7v8.1c0,1.3-0.2,2.1-0.5,2.8c-0.7,1.3-2,2.1-3.7,2.1c-2.2,0-3.6-1.1-4.1-2l1.3-1.2
			c0.6,0.8,1.4,1.5,2.8,1.5c0.9,0,1.6-0.3,2.1-1c0.3-0.5,0.5-1.1,0.5-2.2v-0.5C1498.4,4250.9,1497.5,4251.2,1496.5,4251.2z
			 M1499.1,4245.2c-0.5-0.7-1.4-1.2-2.4-1.2c-1.6,0-2.7,1.3-2.7,2.8c0,1.5,1.2,2.8,2.8,2.8c0.9,0,1.7-0.4,2.3-1.2V4245.2z"/>
		<path class="st1" d="M1504.8,4247.1c0.1,1.4,1.3,2.6,2.7,2.6c1.3,0,1.9-0.6,2.4-1.2l1.1,1.1c-0.6,0.8-1.8,1.6-3.6,1.6
			c-2.5,0-4.4-1.9-4.4-4.4c0-2.5,1.7-4.4,4.1-4.4c2.4,0,4.1,1.9,4.1,4.4c0,0.1,0,0.2,0,0.4H1504.8z M1504.9,4245.7h4.6
			c-0.3-1.1-1.2-1.8-2.2-1.8C1506.2,4243.9,1505.2,4244.6,1504.9,4245.7z"/>
		<path class="st1" d="M1515.3,4243.3c0.5-0.4,1.3-1,2.5-1c1.2,0,2.4,0.6,3.1,1.5c0.5,0.7,0.8,1.5,0.8,3v4.1h-1.7v-4.2
			c0-1.1-0.2-1.6-0.5-2c-0.4-0.5-1-0.8-1.7-0.8c-1.1,0-1.9,0.6-2.4,1.2v5.8h-1.7v-8.5h1.7V4243.3z"/>
		<path class="st1" d="M1525.6,4247.1c0.1,1.4,1.3,2.6,2.7,2.6c1.3,0,1.9-0.6,2.4-1.2l1.1,1.1c-0.6,0.8-1.8,1.6-3.6,1.6
			c-2.5,0-4.4-1.9-4.4-4.4c0-2.5,1.7-4.4,4.1-4.4c2.4,0,4.1,1.9,4.1,4.4c0,0.1,0,0.2,0,0.4H1525.6z M1525.7,4245.7h4.6
			c-0.3-1.1-1.2-1.8-2.2-1.8C1527,4243.9,1526,4244.6,1525.7,4245.7z"/>
		<path class="st1" d="M1539.1,4244c-0.2-0.1-0.4-0.1-0.7-0.1c-0.9,0-1.8,0.6-2.3,1.4v5.6h-1.7v-8.5h1.7v1c0.4-0.6,1.3-1.2,2.5-1.2
			c0.2,0,0.5,0,0.7,0.1L1539.1,4244z"/>
		<path class="st1" d="M1547.2,4250.2c-0.7,0.6-1.6,1-2.6,1c-0.8,0-1.5-0.2-2.1-0.6c-1.3-0.8-2.2-2.2-2.2-3.9s0.9-3.1,2.2-3.9
			c0.6-0.3,1.3-0.5,2.1-0.5c1,0,1.9,0.3,2.6,1v-0.8h1.7v8.5h-1.7V4250.2z M1547.2,4245.2c-0.5-0.7-1.4-1.2-2.4-1.2
			c-1.6,0-2.7,1.3-2.7,2.8c0,1.5,1.2,2.8,2.8,2.8c0.9,0,1.7-0.4,2.3-1.2V4245.2z"/>
		<path class="st1" d="M1551.9,4238.2h1.7v12.8h-1.7V4238.2z"/>
		<path class="st1" d="M1558.4,4242.4c0.7,0,1.3,0.6,1.3,1.3s-0.6,1.3-1.3,1.3s-1.3-0.6-1.3-1.3S1557.7,4242.4,1558.4,4242.4z
			 M1558.4,4248.7c0.7,0,1.3,0.6,1.3,1.3s-0.6,1.3-1.3,1.3s-1.3-0.6-1.3-1.3S1557.7,4248.7,1558.4,4248.7z"/>
	</g>
	<g class="st0">
		<path class="st1" d="M1566.2,4240.2l3.1-1.8h1.7v12.6h-2.4v-9.8l-2.3,1.3V4240.2z"/>
		<path class="st1" d="M1574,4240.2l3.1-1.8h1.7v12.6h-2.4v-9.8l-2.3,1.3V4240.2z"/>
		<path class="st1" d="M1585.4,4248.2l-2.2,5.3h-1.7l1.4-5.3H1585.4z"/>
		<path class="st1" d="M1589.9,4247.8c0.5,0.7,1.4,1.3,2.3,1.3c1.2,0,2.4-0.9,2.4-2.3c0-1.3-1.1-2.3-2.5-2.3c-0.5,0-1,0.1-1.5,0.4
			v-1.4l2.4-2.8h-4.2v-2.2h7.7v1.4l-2.3,2.8c1.7,0.7,2.9,2.2,2.9,4.1c0,2.7-2.1,4.4-4.7,4.4c-1.6,0-3.1-0.7-4.2-2L1589.9,4247.8z"/>
	</g>
	<rect id="Rectángulo_722" x="1266" y="3652" class="st2" width="480" height="72"/>
	<rect id="Rectángulo_723" x="1266" y="3652" class="st5" width="160" height="72"/>
	<g class="st0">
		<path class="st4" d="M1304,3695.2v3.8h-13.8v-3.8h4.6V3683l-3.6,2.1l-1.8-3.4l6.7-3.9h3.3v17.4H1304z"/>
		<path class="st4" d="M1320.4,3690c0.7,0.9,1,2,1,3.3c0,1.9-0.7,3.3-2.1,4.4c-1.4,1.1-3.3,1.6-5.8,1.6c-1.5,0-2.9-0.2-4.2-0.6
			s-2.4-1-3.3-1.7l1.5-3.3c1.9,1.4,3.8,2,5.8,2c1.3,0,2.2-0.2,2.8-0.7s0.9-1.2,0.9-2.1c0-0.9-0.3-1.6-0.9-2s-1.5-0.6-2.8-0.6h-3
			v-3.6h2.5c1.2,0,2.1-0.2,2.7-0.6s0.9-1.1,0.9-2c0-0.9-0.3-1.5-0.8-2c-0.5-0.5-1.3-0.7-2.2-0.7c-0.9,0-1.8,0.2-2.8,0.5
			c-1,0.4-1.9,0.9-2.8,1.5l-1.5-3.3c0.8-0.7,1.9-1.3,3.3-1.7c1.3-0.4,2.7-0.6,4.1-0.6c1.4,0,2.7,0.2,3.8,0.7s1.9,1.1,2.5,2
			c0.6,0.9,0.9,1.9,0.9,3c0,1.1-0.3,2.1-0.9,3c-0.6,0.9-1.4,1.5-2.4,1.8C1318.8,3688.5,1319.7,3689.1,1320.4,3690z"/>
		<path class="st4" d="M1329.3,3694.2v3.1c0,1.1-0.2,2.2-0.6,3.1c-0.4,1-1.1,1.9-2.1,2.9l-1.8-1.4c1-1,1.6-2,1.8-2.9h-2.2v-4.8
			H1329.3z"/>
		<path class="st4" d="M1348.2,3695.1h-2.9v3.9h-4.6v-3.9h-8.9v-3.5l9.7-13.8h3.8v13.7h2.9V3695.1z M1340.7,3691.6v-6.6l-4.6,6.6
			H1340.7z"/>
	</g>
	<rect id="Rectángulo_722-2" x="1266" y="3899.6" class="st2" width="480" height="72"/>
	<rect id="Rectángulo_723-2" x="1266" y="3899.6" class="st5" width="115" height="72"/>
	<g class="st0">
		<path class="st4" d="M1301.6,3927.9c1.5,1.8,2.2,4.4,2.2,7.8c0,2.3-0.4,4.3-1.1,6c-0.7,1.7-1.7,3-3.1,3.8
			c-1.3,0.9-2.9,1.3-4.8,1.3c-1.3,0-2.6-0.2-3.8-0.6c-1.2-0.4-2.3-1-3.1-1.8l1.5-3.3c1.8,1.4,3.6,2,5.2,2c1.4,0,2.4-0.5,3.2-1.7
			c0.8-1.1,1.2-2.7,1.3-4.9c-0.5,0.8-1.1,1.4-2,1.8s-1.8,0.7-2.8,0.7c-1.2,0-2.3-0.3-3.3-0.9c-1-0.6-1.7-1.4-2.3-2.4
			c-0.6-1-0.8-2.2-0.8-3.5c0-1.4,0.3-2.6,0.9-3.7c0.6-1.1,1.5-1.9,2.6-2.5c1.1-0.6,2.3-0.9,3.7-0.9
			C1298,3925.2,1300.1,3926.1,1301.6,3927.9z M1297.8,3934.6c0.6-0.6,0.9-1.4,0.9-2.4c0-1-0.3-1.8-0.9-2.4s-1.3-0.9-2.3-0.9
			s-1.7,0.3-2.3,0.9c-0.6,0.6-0.9,1.4-0.9,2.5c0,1,0.3,1.8,0.9,2.4s1.3,0.9,2.3,0.9S1297.2,3935.2,1297.8,3934.6z"/>
		<path class="st4" d="M1311.3,3941.8v3.1c0,1.1-0.2,2.2-0.6,3.1c-0.4,1-1.1,1.9-2.1,2.9l-1.8-1.4c1-1,1.6-2,1.8-2.9h-2.2v-4.8
			H1311.3z"/>
		<path class="st4" d="M1326.6,3933.7c1,0.6,1.7,1.4,2.3,2.4c0.5,1,0.8,2.2,0.8,3.5c0,1.4-0.3,2.6-0.9,3.7c-0.6,1.1-1.5,1.9-2.6,2.6
			c-1.1,0.6-2.3,0.9-3.7,0.9c-2.7,0-4.9-0.9-6.4-2.7c-1.5-1.8-2.2-4.4-2.2-7.8c0-2.3,0.4-4.3,1.1-6c0.7-1.7,1.8-3,3.1-3.8
			s2.9-1.3,4.8-1.3c1.3,0,2.6,0.2,3.8,0.6s2.3,1,3.1,1.8l-1.5,3.3c-1.8-1.4-3.6-2-5.2-2c-1.4,0-2.4,0.6-3.2,1.7
			c-0.8,1.1-1.2,2.7-1.3,4.8c0.5-0.8,1.1-1.4,2-1.8c0.8-0.4,1.8-0.7,2.8-0.7C1324.6,3932.8,1325.7,3933.1,1326.6,3933.7z
			 M1324.5,3942.3c0.6-0.6,0.9-1.4,0.9-2.5c0-1-0.3-1.8-0.9-2.4c-0.6-0.6-1.3-0.9-2.3-0.9c-0.9,0-1.7,0.3-2.3,0.9s-0.9,1.4-0.9,2.4
			s0.3,1.8,0.9,2.4s1.3,0.9,2.3,0.9C1323.2,3943.2,1323.9,3942.9,1324.5,3942.3z"/>
	</g>
	<g class="st0">
		<path class="st5" d="M1735.2,4277.2v12.6h3.4v3.6h-3.4v4.8h-4v-4.8h-9.8v-2.4l10.9-13.8H1735.2z M1731.2,4289.8v-4.9l-3.9,4.9
			H1731.2z"/>
		<path class="st5" d="M1748.3,4276.9c5.4,0,7.3,4.8,7.3,10.8s-2,10.8-7.3,10.8s-7.3-4.8-7.3-10.8S1742.9,4276.9,1748.3,4276.9z
			 M1748.3,4280.5c-2.4,0-3.3,3.2-3.3,7.2c0,4,0.9,7.2,3.3,7.2s3.3-3.2,3.3-7.2C1751.6,4283.7,1750.7,4280.5,1748.3,4280.5z"/>
	</g>
	<rect id="Rectángulo_722-3" x="1266" y="4147.2" class="st2" width="480" height="72"/>
	<rect id="Rectángulo_723-3" x="1266" y="4147.2" class="st5" width="121" height="72"/>
	<g class="st0">
		<path class="st4" d="M1304,4190.4v3.8h-13.8v-3.8h4.6v-12.2l-3.6,2.1l-1.8-3.4l6.7-3.9h3.3v17.4H1304z"/>
		<path class="st4" d="M1308.1,4191.6c-1.3-1.9-2-4.5-2-8.1c0-3.5,0.7-6.1,2-8c1.4-1.8,3.3-2.8,5.9-2.8c2.5,0,4.5,0.9,5.8,2.8
			c1.4,1.9,2,4.5,2,8c0,3.5-0.7,6.2-2,8.1c-1.4,1.9-3.3,2.8-5.9,2.8C1311.4,4194.4,1309.5,4193.5,1308.1,4191.6z M1316.5,4189.1
			c0.5-1.2,0.8-3,0.8-5.5c0-2.5-0.3-4.4-0.8-5.5c-0.5-1.1-1.4-1.7-2.5-1.7c-1.2,0-2,0.6-2.5,1.7c-0.5,1.1-0.8,3-0.8,5.5
			c0,2.5,0.3,4.4,0.8,5.5c0.5,1.2,1.4,1.7,2.5,1.7C1315.2,4190.9,1316,4190.3,1316.5,4189.1z"/>
		<path class="st4" d="M1329.3,4189.4v3.1c0,1.1-0.2,2.2-0.6,3.1c-0.4,1-1.1,1.9-2.1,2.9l-1.8-1.4c1-1,1.6-2,1.8-2.9h-2.2v-4.8
			H1329.3z"/>
		<path class="st4" d="M1347.8,4190.4v3.8h-13.8v-3.8h4.6v-12.2l-3.6,2.1l-1.8-3.4l6.7-3.9h3.3v17.4H1347.8z"/>
	</g>
	<g class="st0">
		<path class="st1" d="M240.1,3541.3v7.7h-3.4v-17.5h6.4c1.8,0,2.9,0.5,3.8,1.3c0.9,0.9,1.5,2.2,1.5,3.6s-0.6,2.7-1.5,3.6
			c-0.5,0.5-1,0.8-1.8,1l6.5,8h-4.2l-6.2-7.7H240.1z M242.9,3538.3c1,0,1.4-0.2,1.7-0.5s0.5-0.8,0.5-1.3c0-0.5-0.2-1-0.5-1.3
			c-0.3-0.3-0.7-0.5-1.7-0.5h-2.8v3.7H242.9z"/>
		<path class="st1" d="M256.9,3534.5v3.6h5.4v3h-5.4v4.9h7.4v3h-10.7v-17.5H264v3H256.9z"/>
		<path class="st1" d="M269,3540.3c0,3.4,2.6,6,6,6c2.3,0,3.9-1.1,4.9-2.4l2.3,2.1c-1.5,2-4.1,3.3-7.3,3.3c-5.4,0-9.3-4-9.3-9
			c0-5,3.8-9,9.2-9c2.6,0,4.8,1,6.4,2.5l-2.2,2.3c-1-1-2.5-1.8-4.2-1.8C271.5,3534.3,269,3536.9,269,3540.3z"/>
		<path class="st1" d="M286.6,3547.5c-1.4-1.3-2.2-3.1-2.2-5.8v-10.1h3.4v10.4c0,1.6,0.4,2.6,1.1,3.2c0.8,0.7,1.8,1.1,3,1.1
			s2.2-0.4,3-1.1c0.7-0.7,1.1-1.6,1.1-3.2v-10.4h3.4v10.1c0,2.7-0.8,4.5-2.2,5.8c-1.3,1.2-3.3,1.8-5.2,1.8S288,3548.7,286.6,3547.5z
			"/>
		<path class="st1" d="M306.6,3541.3v7.7h-3.4v-17.5h6.4c1.8,0,2.9,0.5,3.8,1.3c1,0.9,1.5,2.2,1.5,3.6s-0.6,2.7-1.5,3.6
			c-0.5,0.5-1,0.8-1.7,1l6.5,8h-4.2l-6.2-7.7H306.6z M309.4,3538.3c1,0,1.4-0.2,1.7-0.5s0.5-0.8,0.5-1.3c0-0.5-0.2-1-0.5-1.3
			c-0.3-0.3-0.7-0.5-1.7-0.5h-2.8v3.7H309.4z"/>
		<path class="st1" d="M320.8,3544.3c1,1.1,2.5,1.9,4.1,1.9c1.5,0,2.5-0.9,2.5-2.2c0-2.2-3.2-2.5-5.6-3.9c-1.4-0.8-2.5-2-2.5-4
			c0-3.1,2.9-4.9,5.8-4.9c1.8,0,3.4,0.4,5.1,1.7l-1.7,2.5c-0.7-0.6-1.9-1.1-3-1.1c-1.3,0-2.7,0.5-2.7,1.9c0,2.8,8.1,1.9,8.1,7.8
			c0,3.1-2.8,5.2-5.9,5.2c-2.3,0-4.5-1-6.3-2.6L320.8,3544.3z"/>
		<path class="st1" d="M341.9,3531.3c5.4,0,9.1,4,9.1,9s-3.7,9-9.1,9c-5.4,0-9.1-4-9.1-9S336.5,3531.3,341.9,3531.3z M341.9,3546.3
			c3.3,0,5.7-2.7,5.7-6c0-3.3-2.4-6-5.7-6s-5.7,2.7-5.7,6C336.1,3543.6,338.6,3546.3,341.9,3546.3z"/>
		<path class="st1" d="M354.2,3544.3c1,1.1,2.5,1.9,4.1,1.9c1.5,0,2.5-0.9,2.5-2.2c0-2.2-3.2-2.5-5.6-3.9c-1.4-0.8-2.5-2-2.5-4
			c0-3.1,2.9-4.9,5.8-4.9c1.8,0,3.4,0.4,5.1,1.7l-1.7,2.5c-0.7-0.6-1.9-1.1-3-1.1c-1.3,0-2.7,0.5-2.7,1.9c0,2.8,8.1,1.9,8.1,7.8
			c0,3.1-2.8,5.2-5.9,5.2c-2.3,0-4.5-1-6.3-2.6L354.2,3544.3z"/>
		<path class="st1" d="M373.9,3531.5h3.4v17.5h-3.4V3531.5z"/>
		<path class="st1" d="M381.2,3531.5h2.4l9.7,11.4v-11.4h3.4v17.5h-2.4l-9.7-11.4v11.4h-3.4V3531.5z"/>
		<path class="st1" d="M401.2,3544.3c1,1.1,2.5,1.9,4.1,1.9c1.5,0,2.5-0.9,2.5-2.2c0-2.2-3.2-2.5-5.6-3.9c-1.4-0.8-2.5-2-2.5-4
			c0-3.1,2.9-4.9,5.8-4.9c1.8,0,3.4,0.4,5.1,1.7l-1.7,2.5c-0.7-0.6-1.9-1.1-3-1.1c-1.3,0-2.7,0.5-2.7,1.9c0,2.8,8.1,1.9,8.1,7.8
			c0,3.1-2.8,5.2-5.9,5.2c-2.3,0-4.5-1-6.3-2.6L401.2,3544.3z"/>
		<path class="st1" d="M424.7,3531.5v3h-4.6v14.5h-3.4v-14.5h-4.6v-3H424.7z"/>
		<path class="st1" d="M427.4,3531.5h3.4v17.5h-3.4V3531.5z"/>
		<path class="st1" d="M446,3531.5v3h-4.6v14.5H438v-14.5h-4.6v-3H446z"/>
		<path class="st1" d="M450.7,3547.5c-1.4-1.3-2.2-3.1-2.2-5.8v-10.1h3.4v10.4c0,1.6,0.4,2.6,1.1,3.2c0.8,0.7,1.8,1.1,3,1.1
			c1.2,0,2.2-0.4,3-1.1c0.7-0.7,1.1-1.6,1.1-3.2v-10.4h3.4v10.1c0,2.7-0.8,4.5-2.2,5.8c-1.3,1.2-3.3,1.8-5.2,1.8
			C454,3549.2,452.1,3548.7,450.7,3547.5z"/>
		<path class="st1" d="M469.6,3540.3c0,3.4,2.6,6,6,6c2.3,0,3.9-1.1,4.9-2.4l2.3,2.1c-1.5,2-4.1,3.3-7.3,3.3c-5.4,0-9.3-4-9.3-9
			c0-5,3.8-9,9.2-9c2.6,0,4.8,1,6.4,2.5l-2.2,2.3c-1-1-2.5-1.8-4.2-1.8C472.1,3534.3,469.6,3536.9,469.6,3540.3z"/>
		<path class="st1" d="M485.4,3531.5h3.4v17.5h-3.4V3531.5z"/>
		<path class="st1" d="M500.6,3531.3c5.4,0,9.1,4,9.1,9s-3.7,9-9.1,9c-5.4,0-9.1-4-9.1-9S495.2,3531.3,500.6,3531.3z M500.6,3546.3
			c3.3,0,5.7-2.7,5.7-6c0-3.3-2.4-6-5.7-6s-5.7,2.7-5.7,6C494.9,3543.6,497.3,3546.3,500.6,3546.3z"/>
		<path class="st1" d="M512.5,3531.5h2.4l9.7,11.4v-11.4h3.4v17.5h-2.4l-9.7-11.4v11.4h-3.4V3531.5z"/>
		<path class="st1" d="M530,3549l7.5-17.5h2.4l7.5,17.5h-3.5l-1.6-3.9h-7l-1.6,3.9H530z M536.4,3542.1h4.4l-2.2-5.2L536.4,3542.1z"
			/>
		<path class="st1" d="M549.4,3531.5h3.4v14.5h7.4v3h-10.7V3531.5z"/>
		<path class="st1" d="M566.1,3534.5v3.6h5.4v3h-5.4v4.9h7.4v3h-10.7v-17.5h10.5v3H566.1z"/>
		<path class="st1" d="M577.3,3544.3c1,1.1,2.5,1.9,4.1,1.9c1.5,0,2.5-0.9,2.5-2.2c0-2.2-3.2-2.5-5.6-3.9c-1.4-0.8-2.5-2-2.5-4
			c0-3.1,2.9-4.9,5.8-4.9c1.8,0,3.4,0.4,5.1,1.7l-1.8,2.5c-0.7-0.6-1.9-1.1-3-1.1c-1.3,0-2.7,0.5-2.7,1.9c0,2.8,8.1,1.9,8.1,7.8
			c0,3.1-2.8,5.2-5.9,5.2c-2.3,0-4.5-1-6.3-2.6L577.3,3544.3z"/>
	</g>
	<rect id="Rectángulo_475-4" x="212" y="3652" class="st2" width="398" height="72"/>
	<rect id="Rectángulo_476-4" x="212" y="3652" class="st6" width="165" height="72"/>
	<g class="st0">
		<path class="st4" d="M249.1,3690c0.7,0.9,1,2,1,3.3c0,1.9-0.7,3.3-2.2,4.4c-1.4,1.1-3.4,1.6-6,1.6c-2.5,0-4.5-0.5-6-1.6
			c-1.4-1.1-2.2-2.5-2.2-4.4c0-1.3,0.3-2.4,1-3.3c0.7-0.9,1.6-1.5,2.9-1.8c-1-0.4-1.9-1-2.4-1.9s-0.9-1.8-0.9-2.9
			c0-1.8,0.7-3.2,2-4.2c1.4-1,3.2-1.5,5.5-1.5c2.4,0,4.2,0.5,5.6,1.5c1.4,1,2,2.4,2,4.2c0,1.1-0.3,2.1-0.9,3
			c-0.6,0.9-1.4,1.5-2.4,1.8C247.5,3688.5,248.5,3689.1,249.1,3690z M245.8,3692.9c0-1.9-1.3-2.8-3.8-2.8s-3.8,0.9-3.8,2.8
			s1.3,2.8,3.8,2.8S245.8,3694.7,245.8,3692.9z M238.8,3683.8c0,1.8,1.1,2.7,3.2,2.7c2.1,0,3.2-0.9,3.2-2.7c0-1.8-1.1-2.7-3.2-2.7
			C239.9,3681.2,238.8,3682,238.8,3683.8z"/>
		<path class="st4" d="M257.3,3694.2v3.1c0,1.1-0.2,2.2-0.6,3.1c-0.4,1-1.1,1.9-2.1,2.9l-1.8-1.4c1-1,1.6-2,1.8-2.9h-2.2v-4.8H257.3
			z"/>
		<path class="st4" d="M274.2,3690c0.7,0.9,1,2,1,3.3c0,1.9-0.7,3.3-2.1,4.4c-1.4,1.1-3.3,1.6-5.8,1.6c-1.5,0-2.9-0.2-4.2-0.6
			c-1.3-0.4-2.4-1-3.3-1.7l1.5-3.3c1.9,1.4,3.8,2,5.8,2c1.3,0,2.2-0.2,2.8-0.7s0.9-1.2,0.9-2.1c0-0.9-0.3-1.6-0.9-2
			s-1.5-0.6-2.8-0.6h-3v-3.6h2.5c1.2,0,2.1-0.2,2.7-0.6s0.9-1.1,0.9-2c0-0.9-0.3-1.5-0.8-2c-0.5-0.5-1.3-0.7-2.2-0.7
			c-0.9,0-1.8,0.2-2.8,0.5c-1,0.4-1.9,0.9-2.8,1.5l-1.5-3.3c0.8-0.7,1.9-1.3,3.3-1.7c1.3-0.4,2.7-0.6,4.1-0.6c1.4,0,2.7,0.2,3.8,0.7
			c1.1,0.5,1.9,1.1,2.5,2c0.6,0.9,0.9,1.9,0.9,3c0,1.1-0.3,2.1-0.9,3c-0.6,0.9-1.4,1.5-2.4,1.8
			C272.5,3688.5,273.5,3689.1,274.2,3690z"/>
	</g>
	<line id="Línea_261" class="st7" x1="612" y1="3611.5" x2="612" y2="4259.5"/>
	<rect id="Rectángulo_475-5" x="212" y="3899.6" class="st2" width="398" height="72"/>
	<rect id="Rectángulo_476-5" x="212" y="3899.6" class="st6" width="135" height="72"/>
	<g class="st0">
		<path class="st4" d="M246.8,3933.7c1,0.6,1.7,1.4,2.3,2.4c0.5,1,0.8,2.2,0.8,3.5c0,1.4-0.3,2.6-0.9,3.7c-0.6,1.1-1.5,1.9-2.6,2.6
			c-1.1,0.6-2.3,0.9-3.7,0.9c-2.7,0-4.9-0.9-6.4-2.7c-1.5-1.8-2.2-4.4-2.2-7.8c0-2.3,0.4-4.3,1.1-6c0.7-1.7,1.8-3,3.1-3.8
			s2.9-1.3,4.8-1.3c1.3,0,2.6,0.2,3.8,0.6c1.2,0.4,2.3,1,3.1,1.8l-1.5,3.3c-1.8-1.4-3.6-2-5.2-2c-1.4,0-2.4,0.6-3.2,1.7
			c-0.8,1.1-1.2,2.7-1.3,4.8c0.5-0.8,1.1-1.4,2-1.8c0.8-0.4,1.8-0.7,2.8-0.7C244.8,3932.8,245.9,3933.1,246.8,3933.7z M244.7,3942.3
			c0.6-0.6,0.9-1.4,0.9-2.5c0-1-0.3-1.8-0.9-2.4c-0.6-0.6-1.3-0.9-2.3-0.9c-0.9,0-1.7,0.3-2.3,0.9s-0.9,1.4-0.9,2.4s0.3,1.8,0.9,2.4
			s1.3,0.9,2.3,0.9C243.4,3943.2,244.1,3942.9,244.7,3942.3z"/>
		<path class="st4" d="M257.3,3941.8v3.1c0,1.1-0.2,2.2-0.6,3.1c-0.4,1-1.1,1.9-2.1,2.9l-1.8-1.4c1-1,1.6-2,1.8-2.9h-2.2v-4.8H257.3
			z"/>
		<path class="st4" d="M274.9,3937.6c0.7,0.9,1,2,1,3.3c0,1.9-0.7,3.3-2.2,4.4c-1.4,1.1-3.4,1.6-6,1.6c-2.5,0-4.5-0.5-6-1.6
			c-1.4-1.1-2.2-2.5-2.2-4.4c0-1.3,0.3-2.4,1-3.3c0.7-0.9,1.6-1.5,2.9-1.8c-1-0.4-1.9-1-2.4-1.9s-0.9-1.8-0.9-2.9
			c0-1.8,0.7-3.2,2-4.2c1.4-1,3.2-1.5,5.5-1.5c2.4,0,4.2,0.5,5.6,1.5c1.4,1,2,2.4,2,4.2c0,1.1-0.3,2.1-0.9,3
			c-0.6,0.9-1.4,1.5-2.4,1.8C273.3,3936.1,274.3,3936.7,274.9,3937.6z M271.6,3940.5c0-1.9-1.3-2.8-3.8-2.8s-3.8,0.9-3.8,2.8
			s1.3,2.8,3.8,2.8S271.6,3942.3,271.6,3940.5z M264.6,3931.4c0,1.8,1.1,2.7,3.2,2.7c2.1,0,3.2-0.9,3.2-2.7c0-1.8-1.1-2.7-3.2-2.7
			C265.7,3928.7,264.6,3929.6,264.6,3931.4z"/>
	</g>
	<g class="st0">
		<path class="st6" d="M595.8,4281.7c0.9-2.9,3.5-4.9,6.6-4.9c3.6,0,6.7,2.7,6.7,6.5c0,2.5-1.3,4.4-2.7,6l-4.5,5.2h7.3v3.6h-13.6
			v-2.4l7.4-8.4c1.6-1.8,2.1-3,2.1-4.1c0-1.5-1.1-2.8-2.7-2.8c-1.4,0-2.4,1-2.9,2.4L595.8,4281.7z"/>
		<path class="st6" d="M619.6,4276.9c5.4,0,7.3,4.8,7.3,10.8s-2,10.8-7.3,10.8c-5.4,0-7.3-4.8-7.3-10.8S614.2,4276.9,619.6,4276.9z
			 M619.6,4280.5c-2.4,0-3.3,3.2-3.3,7.2c0,4,0.9,7.2,3.3,7.2c2.4,0,3.3-3.2,3.3-7.2C622.9,4283.7,622,4280.5,619.6,4280.5z"/>
	</g>
	<g class="st0">
		<path class="st1" d="M383.4,4245.4v5.6h-1.8v-12.6h4.8c1.2,0,2,0.3,2.6,0.8c0.8,0.6,1.2,1.6,1.2,2.7s-0.5,2-1.2,2.7
			c-0.6,0.5-1.4,0.8-2.6,0.8H383.4z M386.3,4243.7c0.9,0,1.3-0.2,1.7-0.6c0.3-0.3,0.5-0.8,0.5-1.2s-0.2-0.9-0.5-1.2
			c-0.3-0.3-0.8-0.6-1.7-0.6h-2.9v3.6H386.3z"/>
		<path class="st1" d="M397,4244c-0.2-0.1-0.4-0.1-0.7-0.1c-0.9,0-1.8,0.6-2.3,1.4v5.6h-1.7v-8.5h1.7v1c0.4-0.6,1.3-1.2,2.5-1.2
			c0.2,0,0.5,0,0.7,0.1L397,4244z"/>
		<path class="st1" d="M402.6,4242.4c2.5,0,4.4,1.9,4.4,4.4s-1.9,4.4-4.4,4.4s-4.4-1.9-4.4-4.4S400.1,4242.4,402.6,4242.4z
			 M402.6,4249.6c1.6,0,2.7-1.2,2.7-2.8c0-1.5-1.1-2.8-2.7-2.8s-2.7,1.2-2.7,2.8C399.9,4248.3,401,4249.6,402.6,4249.6z"/>
		<path class="st1" d="M410.9,4242.5v0.8c0.3-0.4,1.3-1,2.5-1c1.2,0,2.3,0.6,3,1.4c0.8-0.8,1.7-1.4,3.2-1.4c1.2,0,2.3,0.5,3,1.4
			c0.5,0.6,0.8,1.5,0.8,2.9v4.3h-1.7v-4.6c0-0.9-0.2-1.3-0.5-1.7c-0.4-0.5-1-0.7-1.6-0.7c-1.2,0-2,0.6-2.6,1.2
			c0.1,0.4,0.1,0.9,0.1,1.5v4.3h-1.7v-4.6c0-0.9-0.2-1.3-0.5-1.7c-0.4-0.5-1-0.7-1.6-0.7c-1,0-1.9,0.6-2.4,1.2v5.8h-1.7v-8.5H410.9z
			"/>
		<path class="st1" d="M427.2,4247.1c0.1,1.4,1.3,2.6,2.7,2.6c1.3,0,1.9-0.6,2.4-1.2l1.1,1.1c-0.6,0.8-1.8,1.6-3.6,1.6
			c-2.5,0-4.4-1.9-4.4-4.4c0-2.5,1.7-4.4,4.1-4.4c2.4,0,4.1,1.9,4.1,4.4c0,0.1,0,0.2,0,0.4H427.2z M427.4,4245.7h4.6
			c-0.3-1.1-1.2-1.8-2.2-1.8C428.6,4243.9,427.6,4244.6,427.4,4245.7z"/>
		<path class="st1" d="M442.3,4250.2c-0.7,0.6-1.6,1-2.6,1c-0.8,0-1.5-0.2-2.1-0.6c-1.3-0.8-2.2-2.2-2.2-3.9s0.9-3.1,2.2-3.9
			c0.6-0.3,1.3-0.5,2.1-0.5c0.9,0,1.8,0.3,2.6,0.9v-5.1h1.7v12.8h-1.7V4250.2z M442.2,4245.2c-0.5-0.7-1.4-1.2-2.4-1.2
			c-1.6,0-2.7,1.3-2.7,2.8c0,1.5,1.2,2.8,2.8,2.8c0.9,0,1.7-0.4,2.3-1.2V4245.2z"/>
		<path class="st1" d="M447.8,4238.4c0.6,0,1.1,0.5,1.1,1.1c0,0.6-0.5,1.1-1.1,1.1c-0.6,0-1.1-0.5-1.1-1.1
			C446.7,4238.9,447.2,4238.4,447.8,4238.4z M447,4242.5h1.7v8.5H447V4242.5z"/>
		<path class="st1" d="M455.4,4242.4c2.5,0,4.4,1.9,4.4,4.4s-1.9,4.4-4.4,4.4s-4.4-1.9-4.4-4.4S452.9,4242.4,455.4,4242.4z
			 M455.4,4249.6c1.6,0,2.7-1.2,2.7-2.8c0-1.5-1.1-2.8-2.7-2.8s-2.7,1.2-2.7,2.8C452.7,4248.3,453.8,4249.6,455.4,4249.6z"/>
		<path class="st1" d="M470.5,4251.2c-0.8,0-1.5-0.2-2.1-0.6c-1.3-0.8-2.2-2.2-2.2-3.9s0.9-3.1,2.2-3.9c0.6-0.3,1.3-0.5,2.1-0.5
			c1,0,1.9,0.3,2.6,1v-0.8h1.7v8.1c0,1.3-0.2,2.1-0.5,2.8c-0.7,1.3-2,2.1-3.7,2.1c-2.2,0-3.6-1.1-4.1-2l1.3-1.2
			c0.6,0.8,1.4,1.5,2.8,1.5c0.9,0,1.6-0.3,2.1-1c0.3-0.5,0.5-1.1,0.5-2.2v-0.5C472.4,4250.9,471.5,4251.2,470.5,4251.2z
			 M473.1,4245.2c-0.5-0.7-1.4-1.2-2.4-1.2c-1.6,0-2.7,1.3-2.7,2.8c0,1.5,1.2,2.8,2.8,2.8c0.9,0,1.7-0.4,2.3-1.2V4245.2z"/>
		<path class="st1" d="M478.8,4247.1c0.1,1.4,1.3,2.6,2.7,2.6c1.3,0,1.9-0.6,2.4-1.2l1.1,1.1c-0.6,0.8-1.8,1.6-3.6,1.6
			c-2.5,0-4.4-1.9-4.4-4.4c0-2.5,1.7-4.4,4.1-4.4c2.4,0,4.1,1.9,4.1,4.4c0,0.1,0,0.2,0,0.4H478.8z M478.9,4245.7h4.6
			c-0.3-1.1-1.2-1.8-2.2-1.8C480.2,4243.9,479.2,4244.6,478.9,4245.7z"/>
		<path class="st1" d="M489.3,4243.3c0.5-0.4,1.3-1,2.5-1c1.2,0,2.4,0.6,3.1,1.5c0.5,0.7,0.8,1.5,0.8,3v4.1h-1.7v-4.2
			c0-1.1-0.2-1.6-0.5-2c-0.4-0.5-1-0.8-1.7-0.8c-1.1,0-1.9,0.6-2.4,1.2v5.8h-1.7v-8.5h1.7V4243.3z"/>
		<path class="st1" d="M499.6,4247.1c0.1,1.4,1.3,2.6,2.7,2.6c1.3,0,1.9-0.6,2.4-1.2l1.1,1.1c-0.6,0.8-1.8,1.6-3.6,1.6
			c-2.5,0-4.4-1.9-4.4-4.4c0-2.5,1.7-4.4,4.1-4.4c2.4,0,4.1,1.9,4.1,4.4c0,0.1,0,0.2,0,0.4H499.6z M499.7,4245.7h4.6
			c-0.3-1.1-1.2-1.8-2.2-1.8C501,4243.9,500,4244.6,499.7,4245.7z"/>
		<path class="st1" d="M513.1,4244c-0.2-0.1-0.4-0.1-0.7-0.1c-0.9,0-1.8,0.6-2.3,1.4v5.6h-1.7v-8.5h1.7v1c0.4-0.6,1.3-1.2,2.5-1.2
			c0.2,0,0.5,0,0.7,0.1L513.1,4244z"/>
		<path class="st1" d="M521.2,4250.2c-0.7,0.6-1.6,1-2.6,1c-0.8,0-1.5-0.2-2.1-0.6c-1.3-0.8-2.2-2.2-2.2-3.9s0.9-3.1,2.2-3.9
			c0.6-0.3,1.3-0.5,2.1-0.5c1,0,1.9,0.3,2.6,1v-0.8h1.7v8.5h-1.7V4250.2z M521.2,4245.2c-0.5-0.7-1.4-1.2-2.4-1.2
			c-1.6,0-2.7,1.3-2.7,2.8c0,1.5,1.2,2.8,2.8,2.8c0.9,0,1.7-0.4,2.3-1.2V4245.2z"/>
		<path class="st1" d="M525.9,4238.2h1.7v12.8h-1.7V4238.2z"/>
		<path class="st1" d="M532.4,4242.4c0.7,0,1.3,0.6,1.3,1.3s-0.6,1.3-1.3,1.3c-0.7,0-1.3-0.6-1.3-1.3S531.7,4242.4,532.4,4242.4z
			 M532.4,4248.7c0.7,0,1.3,0.6,1.3,1.3s-0.6,1.3-1.3,1.3c-0.7,0-1.3-0.6-1.3-1.3S531.7,4248.7,532.4,4248.7z"/>
	</g>
	<g class="st0">
		<path class="st1" d="M540.1,4238.4h8.3v1.4l-5.4,11.2h-2.6l5.1-10.4h-5.4V4238.4z"/>
		<path class="st1" d="M552,4248.2l-2.2,5.3h-1.7l1.4-5.3H552z"/>
		<path class="st1" d="M554.9,4247.1c0-1.5,0.8-2.5,1.8-3.2c-0.5-0.5-1-1.2-1-2.2c0-1.9,1.6-3.5,3.7-3.5c2.1,0,3.7,1.5,3.7,3.5
			c0,1-0.5,1.7-1,2.2c1,0.7,1.8,1.7,1.8,3.2c0,2.3-2,4.1-4.5,4.1C556.9,4251.2,554.9,4249.4,554.9,4247.1z M561.5,4247.1
			c0-1.1-0.9-1.9-2.1-1.9c-1.2,0-2.1,0.9-2.1,1.9s0.9,1.9,2.1,1.9C560.6,4249,561.5,4248.2,561.5,4247.1z M560.7,4241.7
			c0-0.7-0.5-1.3-1.3-1.3c-0.8,0-1.3,0.6-1.3,1.3c0,0.7,0.5,1.3,1.3,1.3C560.2,4243,560.7,4242.4,560.7,4241.7z"/>
	</g>
	<rect id="Rectángulo_475-6" x="212" y="4147.2" class="st2" width="398" height="72"/>
	<rect id="Rectángulo_476-6" x="212" y="4147.2" class="st6" width="155" height="72"/>
	<g class="st0">
		<path class="st4" d="M249.6,4173v3.5l-9.4,17.7h-5l9.4-17.4h-10.2v-3.8H249.6z"/>
		<path class="st4" d="M257.3,4189.4v3.1c0,1.1-0.2,2.2-0.6,3.1c-0.4,1-1.1,1.9-2.1,2.9l-1.8-1.4c1-1,1.6-2,1.8-2.9h-2.2v-4.8H257.3
			z"/>
		<path class="st4" d="M274.9,4185.2c0.7,0.9,1,2,1,3.3c0,1.9-0.7,3.3-2.2,4.4c-1.4,1.1-3.4,1.6-6,1.6c-2.5,0-4.5-0.5-6-1.6
			c-1.4-1.1-2.2-2.5-2.2-4.4c0-1.3,0.3-2.4,1-3.3c0.7-0.9,1.6-1.5,2.9-1.8c-1-0.4-1.9-1-2.4-1.9s-0.9-1.8-0.9-2.9
			c0-1.8,0.7-3.2,2-4.2c1.4-1,3.2-1.5,5.5-1.5c2.4,0,4.2,0.5,5.6,1.5c1.4,1,2,2.4,2,4.2c0,1.1-0.3,2.1-0.9,3
			c-0.6,0.9-1.4,1.5-2.4,1.8C273.3,4183.6,274.3,4184.3,274.9,4185.2z M271.6,4188c0-1.9-1.3-2.8-3.8-2.8s-3.8,0.9-3.8,2.8
			s1.3,2.8,3.8,2.8S271.6,4189.9,271.6,4188z M264.6,4179c0,1.8,1.1,2.7,3.2,2.7c2.1,0,3.2-0.9,3.2-2.7c0-1.8-1.1-2.7-3.2-2.7
			C265.7,4176.3,264.6,4177.2,264.6,4179z"/>
	</g>
	<g class="st0">
		<path class="st1" d="M567.3,4324.3h-1.4v-10.6h1.4v0.6c0.6-0.6,1.4-0.8,2.2-0.8c0.7,0,1.2,0.2,1.7,0.4c1.1,0.6,1.8,1.8,1.8,3.2
			c0,1.4-0.7,2.6-1.8,3.2c-0.5,0.3-1.1,0.5-1.8,0.5c-0.8,0-1.6-0.3-2.1-0.8V4324.3z M567.3,4318.5c0.5,0.6,1.2,1,1.9,1
			c1.4,0,2.3-1.1,2.3-2.3c0-1.2-0.9-2.3-2.3-2.3c-0.9,0-1.6,0.4-2,1V4318.5z"/>
		<path class="st1" d="M575.4,4319.6c-0.4-0.5-0.6-1.2-0.6-2.4v-3.6h1.4v3.8c0,0.7,0.1,1.1,0.4,1.4c0.3,0.4,0.8,0.6,1.4,0.6
			c0.9,0,1.6-0.5,2-1v-4.8h1.4v7H580v-0.6c-0.3,0.3-1.1,0.8-2.1,0.8C576.9,4320.8,576,4320.4,575.4,4319.6z"/>
		<path class="st1" d="M585.3,4314.3c0.4-0.4,1.1-0.8,2.1-0.8c1,0,2,0.5,2.6,1.2c0.5,0.6,0.7,1.3,0.7,2.5v3.5h-1.4v-3.5
			c0-0.9-0.2-1.3-0.4-1.6c-0.3-0.4-0.9-0.7-1.5-0.7c-0.9,0-1.6,0.5-2,1v4.8h-1.4v-7h1.4V4314.3z"/>
		<path class="st1" d="M597.4,4320.7c-0.3,0.1-0.7,0.2-1.1,0.2c-0.9,0-1.5-0.3-2-0.8c-0.4-0.5-0.6-1.1-0.6-1.9v-3.2h-1.8v-1.3h1.8
			v-2h1.4v2h2.2v1.3h-2.2v3.3c0,0.4,0,0.7,0.2,0.9c0.2,0.2,0.6,0.4,1,0.4c0.2,0,0.6,0,0.8-0.1L597.4,4320.7z"/>
		<path class="st1" d="M604.2,4320c-0.6,0.5-1.3,0.8-2.2,0.8c-0.6,0-1.3-0.2-1.8-0.5c-1.1-0.6-1.8-1.8-1.8-3.2
			c0-1.4,0.8-2.6,1.8-3.2c0.5-0.3,1.1-0.4,1.7-0.4c0.8,0,1.6,0.2,2.2,0.8v-0.6h1.4v7h-1.4V4320z M604.2,4315.8c-0.4-0.6-1.2-1-2-1
			c-1.4,0-2.3,1.1-2.3,2.3c0,1.3,1,2.3,2.3,2.3c0.7,0,1.5-0.4,1.9-1V4315.8z"/>
		<path class="st1" d="M608.5,4313.6h1.4v7.6c0,0.9-0.1,1.5-0.5,2c-0.5,0.7-1.3,1.2-2.3,1.2c-0.3,0-0.6,0-0.8-0.1l0.3-1.3
			c0.1,0,0.3,0.1,0.5,0.1c0.4,0,0.8-0.2,1.1-0.5c0.2-0.3,0.3-0.6,0.3-1.3V4313.6z M609.2,4310.2c0.5,0,0.9,0.4,0.9,0.9
			s-0.4,0.9-0.9,0.9s-0.9-0.4-0.9-0.9S608.7,4310.2,609.2,4310.2z"/>
		<path class="st1" d="M613.2,4317.4c0.1,1.2,1.1,2.1,2.3,2.1c1,0,1.6-0.5,2-1l0.9,0.9c-0.5,0.7-1.5,1.3-3,1.3
			c-2.1,0-3.6-1.6-3.6-3.7c0-2.1,1.4-3.7,3.4-3.7c2,0,3.4,1.6,3.4,3.7c0,0.1,0,0.2,0,0.3H613.2z M613.3,4316.2h3.8
			c-0.2-0.9-1-1.5-1.9-1.5C614.4,4314.7,613.6,4315.3,613.3,4316.2z"/>
		<path class="st1" d="M626.1,4313.6v0.7c0.3-0.3,1.1-0.8,2.1-0.8c1,0,1.9,0.5,2.5,1.2c0.6-0.6,1.4-1.2,2.7-1.2c1,0,1.9,0.4,2.5,1.2
			c0.4,0.5,0.6,1.2,0.6,2.4v3.6H635v-3.8c0-0.7-0.1-1.1-0.4-1.4c-0.3-0.4-0.8-0.6-1.3-0.6c-1,0-1.7,0.5-2.1,1
			c0.1,0.3,0.1,0.8,0.1,1.2v3.6h-1.4v-3.8c0-0.7-0.1-1.1-0.4-1.4c-0.3-0.4-0.8-0.6-1.4-0.6c-0.9,0-1.6,0.5-2,1v4.8h-1.4v-7H626.1z"
			/>
		<path class="st1" d="M644,4320c-0.6,0.5-1.3,0.8-2.2,0.8c-0.6,0-1.3-0.2-1.8-0.5c-1.1-0.6-1.8-1.8-1.8-3.2c0-1.4,0.8-2.6,1.8-3.2
			c0.5-0.3,1.1-0.4,1.7-0.4c0.8,0,1.6,0.2,2.2,0.8v-0.6h1.4v7H644V4320z M643.9,4315.8c-0.4-0.6-1.2-1-2-1c-1.4,0-2.3,1.1-2.3,2.3
			c0,1.3,1,2.3,2.3,2.3c0.7,0,1.5-0.4,1.9-1V4315.8z M641.4,4312.4l1-2.2h1.6l-1.6,2.2H641.4z"/>
		<path class="st1" d="M650.5,4318l-1.9,2.6h-1.7l2.7-3.7l-2.4-3.3h1.7l1.7,2.3l1.7-2.3h1.7l-2.4,3.3l2.7,3.7h-1.7L650.5,4318z"/>
		<path class="st1" d="M657,4318.7c0.6,0,1.1,0.5,1.1,1s-0.5,1.1-1.1,1.1s-1-0.5-1-1.1S656.4,4318.7,657,4318.7z"/>
	</g>
	<g class="st0">
		<path class="st1" d="M1139.3,4324.3h-1.4v-10.6h1.4v0.6c0.6-0.6,1.4-0.8,2.2-0.8c0.7,0,1.2,0.2,1.7,0.4c1.1,0.6,1.8,1.8,1.8,3.2
			c0,1.4-0.7,2.6-1.8,3.2c-0.5,0.3-1.1,0.5-1.8,0.5c-0.8,0-1.6-0.3-2.1-0.8V4324.3z M1139.3,4318.5c0.5,0.6,1.2,1,1.9,1
			c1.4,0,2.3-1.1,2.3-2.3c0-1.2-0.9-2.3-2.3-2.3c-0.9,0-1.6,0.4-2,1V4318.5z"/>
		<path class="st1" d="M1147.4,4319.6c-0.4-0.5-0.6-1.2-0.6-2.4v-3.6h1.4v3.8c0,0.7,0.1,1.1,0.4,1.4c0.3,0.4,0.8,0.6,1.4,0.6
			c0.9,0,1.6-0.5,2-1v-4.8h1.4v7h-1.4v-0.6c-0.3,0.3-1.1,0.8-2.1,0.8C1148.9,4320.8,1148,4320.4,1147.4,4319.6z"/>
		<path class="st1" d="M1157.3,4314.3c0.4-0.4,1.1-0.8,2.1-0.8c1,0,2,0.5,2.6,1.2c0.5,0.6,0.7,1.3,0.7,2.5v3.5h-1.4v-3.5
			c0-0.9-0.2-1.3-0.4-1.6c-0.3-0.4-0.9-0.7-1.5-0.7c-0.9,0-1.6,0.5-2,1v4.8h-1.4v-7h1.4V4314.3z"/>
		<path class="st1" d="M1169.4,4320.7c-0.3,0.1-0.7,0.2-1.1,0.2c-0.9,0-1.5-0.3-2-0.8c-0.4-0.5-0.6-1.1-0.6-1.9v-3.2h-1.8v-1.3h1.8
			v-2h1.4v2h2.2v1.3h-2.2v3.3c0,0.4,0,0.7,0.2,0.9c0.2,0.2,0.6,0.4,1,0.4c0.2,0,0.6,0,0.8-0.1L1169.4,4320.7z"/>
		<path class="st1" d="M1176.2,4320c-0.6,0.5-1.3,0.8-2.2,0.8c-0.6,0-1.3-0.2-1.8-0.5c-1.1-0.6-1.8-1.8-1.8-3.2
			c0-1.4,0.8-2.6,1.8-3.2c0.5-0.3,1.1-0.4,1.7-0.4c0.8,0,1.6,0.2,2.2,0.8v-0.6h1.4v7h-1.4V4320z M1176.2,4315.8c-0.4-0.6-1.2-1-2-1
			c-1.4,0-2.3,1.1-2.3,2.3c0,1.3,1,2.3,2.3,2.3c0.7,0,1.5-0.4,1.9-1V4315.8z"/>
		<path class="st1" d="M1180.5,4313.6h1.4v7.6c0,0.9-0.1,1.5-0.5,2c-0.5,0.7-1.3,1.2-2.3,1.2c-0.3,0-0.6,0-0.8-0.1l0.3-1.3
			c0.1,0,0.3,0.1,0.5,0.1c0.4,0,0.8-0.2,1.1-0.5c0.2-0.3,0.3-0.6,0.3-1.3V4313.6z M1181.2,4310.2c0.5,0,0.9,0.4,0.9,0.9
			s-0.4,0.9-0.9,0.9c-0.5,0-0.9-0.4-0.9-0.9S1180.7,4310.2,1181.2,4310.2z"/>
		<path class="st1" d="M1185.2,4317.4c0.1,1.2,1,2.1,2.3,2.1c1,0,1.6-0.5,2-1l0.9,0.9c-0.5,0.7-1.5,1.3-3,1.3
			c-2.1,0-3.6-1.6-3.6-3.7c0-2.1,1.4-3.7,3.4-3.7c2,0,3.4,1.6,3.4,3.7c0,0.1,0,0.2,0,0.3H1185.2z M1185.3,4316.2h3.8
			c-0.2-0.9-1-1.5-1.9-1.5C1186.4,4314.7,1185.6,4315.3,1185.3,4316.2z"/>
		<path class="st1" d="M1198.1,4313.6v0.7c0.3-0.3,1.1-0.8,2.1-0.8c1,0,1.9,0.5,2.5,1.2c0.6-0.6,1.4-1.2,2.7-1.2
			c1,0,1.9,0.4,2.5,1.2c0.4,0.5,0.6,1.2,0.6,2.4v3.6h-1.4v-3.8c0-0.7-0.1-1.1-0.4-1.4c-0.3-0.4-0.8-0.6-1.3-0.6c-1,0-1.7,0.5-2.1,1
			c0.1,0.3,0.1,0.8,0.1,1.2v3.6h-1.4v-3.8c0-0.7-0.1-1.1-0.4-1.4c-0.3-0.4-0.8-0.6-1.4-0.6c-0.9,0-1.6,0.5-2,1v4.8h-1.4v-7H1198.1z"
			/>
		<path class="st1" d="M1216,4320c-0.6,0.5-1.3,0.8-2.2,0.8c-0.6,0-1.3-0.2-1.8-0.5c-1.1-0.6-1.8-1.8-1.8-3.2c0-1.4,0.8-2.6,1.8-3.2
			c0.5-0.3,1.1-0.4,1.7-0.4c0.8,0,1.6,0.2,2.2,0.8v-0.6h1.4v7h-1.4V4320z M1215.9,4315.8c-0.4-0.6-1.2-1-2-1c-1.4,0-2.3,1.1-2.3,2.3
			c0,1.3,1,2.3,2.3,2.3c0.7,0,1.5-0.4,1.9-1V4315.8z M1213.4,4312.4l1-2.2h1.6l-1.6,2.2H1213.4z"/>
		<path class="st1" d="M1222.5,4318l-1.9,2.6h-1.7l2.7-3.7l-2.4-3.3h1.7l1.7,2.3l1.7-2.3h1.7l-2.4,3.3l2.7,3.7h-1.7L1222.5,4318z"/>
		<path class="st1" d="M1229,4318.7c0.6,0,1,0.5,1,1s-0.5,1.1-1,1.1s-1-0.5-1-1.1S1228.4,4318.7,1229,4318.7z"/>
	</g>
	<g class="st0">
		<path class="st1" d="M1694.3,4324.3h-1.4v-10.6h1.4v0.6c0.6-0.6,1.4-0.8,2.2-0.8c0.7,0,1.2,0.2,1.7,0.4c1.1,0.6,1.8,1.8,1.8,3.2
			c0,1.4-0.7,2.6-1.8,3.2c-0.5,0.3-1.1,0.5-1.8,0.5c-0.8,0-1.6-0.3-2.1-0.8V4324.3z M1694.3,4318.5c0.5,0.6,1.2,1,1.9,1
			c1.4,0,2.3-1.1,2.3-2.3c0-1.2-0.9-2.3-2.3-2.3c-0.9,0-1.6,0.4-2,1V4318.5z"/>
		<path class="st1" d="M1702.5,4319.6c-0.4-0.5-0.6-1.2-0.6-2.4v-3.6h1.4v3.8c0,0.7,0.1,1.1,0.4,1.4c0.3,0.4,0.8,0.6,1.4,0.6
			c0.9,0,1.6-0.5,2-1v-4.8h1.4v7h-1.4v-0.6c-0.3,0.3-1.1,0.8-2.1,0.8C1704,4320.8,1703.1,4320.4,1702.5,4319.6z"/>
		<path class="st1" d="M1712.4,4314.3c0.4-0.4,1.1-0.8,2.1-0.8c1,0,2,0.5,2.6,1.2c0.5,0.6,0.7,1.3,0.7,2.5v3.5h-1.4v-3.5
			c0-0.9-0.2-1.3-0.4-1.6c-0.3-0.4-0.9-0.7-1.5-0.7c-0.9,0-1.6,0.5-2,1v4.8h-1.4v-7h1.4V4314.3z"/>
		<path class="st1" d="M1724.4,4320.7c-0.3,0.1-0.7,0.2-1.1,0.2c-0.9,0-1.5-0.3-2-0.8c-0.4-0.5-0.6-1.1-0.6-1.9v-3.2h-1.8v-1.3h1.8
			v-2h1.4v2h2.2v1.3h-2.2v3.3c0,0.4,0,0.7,0.2,0.9c0.2,0.2,0.6,0.4,1,0.4c0.2,0,0.6,0,0.8-0.1L1724.4,4320.7z"/>
		<path class="st1" d="M1731.3,4320c-0.6,0.5-1.3,0.8-2.2,0.8c-0.6,0-1.3-0.2-1.8-0.5c-1.1-0.6-1.8-1.8-1.8-3.2
			c0-1.4,0.8-2.6,1.8-3.2c0.5-0.3,1.1-0.4,1.7-0.4c0.8,0,1.6,0.2,2.2,0.8v-0.6h1.4v7h-1.4V4320z M1731.2,4315.8c-0.4-0.6-1.2-1-2-1
			c-1.4,0-2.3,1.1-2.3,2.3c0,1.3,1,2.3,2.3,2.3c0.7,0,1.5-0.4,1.9-1V4315.8z"/>
		<path class="st1" d="M1735.5,4313.6h1.4v7.6c0,0.9-0.1,1.5-0.5,2c-0.5,0.7-1.3,1.2-2.3,1.2c-0.3,0-0.6,0-0.8-0.1l0.3-1.3
			c0.1,0,0.3,0.1,0.5,0.1c0.4,0,0.8-0.2,1.1-0.5c0.2-0.3,0.3-0.6,0.3-1.3V4313.6z M1736.2,4310.2c0.5,0,0.9,0.4,0.9,0.9
			s-0.4,0.9-0.9,0.9c-0.5,0-0.9-0.4-0.9-0.9S1735.7,4310.2,1736.2,4310.2z"/>
		<path class="st1" d="M1740.3,4317.4c0.1,1.2,1,2.1,2.3,2.1c1,0,1.6-0.5,2-1l0.9,0.9c-0.5,0.7-1.5,1.3-3,1.3
			c-2.1,0-3.6-1.6-3.6-3.7c0-2.1,1.4-3.7,3.4-3.7c2,0,3.4,1.6,3.4,3.7c0,0.1,0,0.2,0,0.3H1740.3z M1740.4,4316.2h3.8
			c-0.2-0.9-1-1.5-1.9-1.5C1741.5,4314.7,1740.6,4315.3,1740.4,4316.2z"/>
		<path class="st1" d="M1753.1,4313.6v0.7c0.3-0.3,1.1-0.8,2.1-0.8c1,0,1.9,0.5,2.5,1.2c0.6-0.6,1.4-1.2,2.7-1.2
			c1,0,1.9,0.4,2.5,1.2c0.4,0.5,0.6,1.2,0.6,2.4v3.6h-1.4v-3.8c0-0.7-0.1-1.1-0.4-1.4c-0.3-0.4-0.8-0.6-1.3-0.6c-1,0-1.7,0.5-2.1,1
			c0.1,0.3,0.1,0.8,0.1,1.2v3.6h-1.4v-3.8c0-0.7-0.1-1.1-0.4-1.4c-0.3-0.4-0.8-0.6-1.4-0.6c-0.9,0-1.6,0.5-2,1v4.8h-1.4v-7H1753.1z"
			/>
		<path class="st1" d="M1771,4320c-0.6,0.5-1.3,0.8-2.2,0.8c-0.6,0-1.3-0.2-1.8-0.5c-1.1-0.6-1.8-1.8-1.8-3.2c0-1.4,0.8-2.6,1.8-3.2
			c0.5-0.3,1.1-0.4,1.7-0.4c0.8,0,1.6,0.2,2.2,0.8v-0.6h1.4v7h-1.4V4320z M1771,4315.8c-0.4-0.6-1.2-1-2-1c-1.4,0-2.3,1.1-2.3,2.3
			c0,1.3,1,2.3,2.3,2.3c0.7,0,1.5-0.4,1.9-1V4315.8z M1768.4,4312.4l1-2.2h1.6l-1.6,2.2H1768.4z"/>
		<path class="st1" d="M1777.5,4318l-1.9,2.6h-1.7l2.7-3.7l-2.4-3.3h1.7l1.7,2.3l1.7-2.3h1.7l-2.4,3.3l2.7,3.7h-1.7L1777.5,4318z"/>
		<path class="st1" d="M1784,4318.7c0.6,0,1,0.5,1,1s-0.5,1.1-1,1.1s-1-0.5-1-1.1S1783.5,4318.7,1784,4318.7z"/>
	</g>
	<g class="st0">
		<path class="st8" d="M156.8,3719.5h6.2v2h-14v-5.3c0-1.4,0.3-2.2,0.9-2.9c0.7-0.8,1.8-1.4,3-1.4s2.3,0.5,3,1.4
			c0.6,0.7,0.9,1.6,0.9,2.9V3719.5z M154.9,3716.3c0-1-0.2-1.5-0.6-1.8c-0.4-0.3-0.8-0.6-1.4-0.6s-1,0.2-1.4,0.6
			c-0.4,0.4-0.6,0.9-0.6,1.8v3.2h4V3716.3z"/>
		<path class="st8" d="M149,3709.5v-2h14v2H149z"/>
		<path class="st8" d="M161.1,3701.9v-6.2h1.9v8.2h-14v-2H161.1z"/>
		<path class="st8" d="M159.4,3684.8v5.9l3.6,1.5v2.1l-14-5.8v-1.4l14-5.8v2.1L159.4,3684.8z M157.5,3689.9v-4.3l-5.2,2.2
			L157.5,3689.9z"/>
		<path class="st8" d="M156.4,3677.3h6.6v2h-14v-4.9c0-1.3,0.3-2.1,0.8-2.7c0.7-0.8,1.7-1.4,2.9-1.4c1.2,0,2.2,0.5,2.9,1.4
			c0.4,0.4,0.6,0.9,0.7,1.6l6.7-5v2.4l-6.6,5V3677.3z M154.5,3674.5c0-0.9-0.2-1.4-0.5-1.7c-0.3-0.3-0.8-0.5-1.3-0.5
			c-0.5,0-1,0.2-1.3,0.5c-0.3,0.3-0.5,0.8-0.5,1.7v2.8h3.6V3674.5z"/>
		<path class="st8" d="M154.5,3659.9h1.9v4.6h4.7v-6.2h1.9v8.2h-14v-8h1.9v6h3.6V3659.9z"/>
		<path class="st8" d="M159.5,3655.5c1-0.8,1.8-2,1.8-3.4c0-1.3-0.8-2.4-2.1-2.4c-2.1,0-2.4,3-3.6,4.8c-0.7,1-1.6,1.8-3.1,1.8
			c-2,0-3.7-1.8-3.7-4.2c0-1.8,0.8-3,1.4-3.8l1.5,1.2c-0.6,0.8-1,1.6-1,2.5c0,1.2,0.7,2.3,1.9,2.3c1.8,0,2.2-3,3.4-4.8
			c0.6-0.9,1.6-1.8,3.2-1.8c2.5,0,4.1,1.9,4.1,4.3c0,1.9-0.8,3.7-2.3,4.9L159.5,3655.5z"/>
	</g>
	<g class="st0">
		<path class="st8" d="M148.8,3991.9c0-2,0.8-3.9,2.2-5.1l1.3,1.3c-0.9,0.8-1.6,2.3-1.6,3.8c0,2.9,2.3,5.1,5.3,5.1
			c3.2,0,5.3-2.3,5.3-5.3c0-1.9-1-3.2-2-4l1.3-1.4c1.5,1.2,2.6,3.3,2.6,5.4c0,4.2-3.1,7.3-7.2,7.3
			C152,3999,148.8,3995.9,148.8,3991.9z"/>
		<path class="st8" d="M154.5,3977.5h1.9v4.6h4.7v-6.2h1.9v8.2h-14v-8h1.9v6h3.6V3977.5z"/>
		<path class="st8" d="M152.7,3971.3H163v2h-14v-1.4l10.3-8.4H149v-2h14v1.4L152.7,3971.3z"/>
		<path class="st8" d="M149,3959.4v-9.6h1.9v3.8H163v2h-12.1v3.8H149z"/>
		<path class="st8" d="M156.4,3945.7h6.6v2h-14v-4.9c0-1.3,0.3-2.1,0.8-2.7c0.7-0.8,1.7-1.4,2.9-1.4c1.2,0,2.2,0.5,2.9,1.4
			c0.4,0.4,0.6,0.9,0.7,1.6l6.7-5v2.4l-6.6,5V3945.7z M154.5,3942.9c0-0.9-0.2-1.4-0.5-1.7c-0.3-0.3-0.8-0.5-1.3-0.5
			c-0.5,0-1,0.2-1.3,0.5c-0.3,0.3-0.5,0.8-0.5,1.7v2.8h3.6V3942.9z"/>
		<path class="st8" d="M159.4,3926.8v5.9l3.6,1.5v2.1l-14-5.8v-1.4l14-5.8v2.1L159.4,3926.8z M157.5,3931.9v-4.3l-5.2,2.2
			L157.5,3931.9z"/>
		<path class="st8" d="M161.1,3919.4v-6.2h1.9v8.2h-14v-2H161.1z"/>
		<path class="st8" d="M149,3911v-2h14v2H149z"/>
		<path class="st8" d="M149,3905.8v-9.4h1.3l10.8,7.3v-7.7h1.9v10.4h-1.3l-10.8-7.3v6.7H149z"/>
		<path class="st8" d="M159.4,3885.8v5.9l3.6,1.5v2.1l-14-5.8v-1.4l14-5.8v2.1L159.4,3885.8z M157.5,3890.9v-4.3l-5.2,2.2
			L157.5,3890.9z"/>
		<path class="st8" d="M163,3880.4h-14v-4.2c0-2.2,0.5-3.7,1.3-4.8c1.3-1.7,3.4-2.8,5.7-2.8c2.3,0,4.4,1.1,5.7,2.8
			c0.8,1.1,1.3,2.6,1.3,4.8V3880.4z M152.1,3872.3c-0.8,0.9-1.2,2-1.2,4v2.1h10.2v-2.1c0-2-0.4-3.1-1.2-4c-0.9-1.1-2.4-1.7-3.9-1.7
			C154.4,3870.6,153,3871.2,152.1,3872.3z"/>
		<path class="st8" d="M159.4,3858.6v5.9l3.6,1.5v2.1l-14-5.8v-1.4l14-5.8v2.1L159.4,3858.6z M157.5,3863.7v-4.3l-5.2,2.2
			L157.5,3863.7z"/>
		<path class="st8" d="M159.5,3852.7c1-0.8,1.8-2,1.8-3.4c0-1.3-0.8-2.4-2.1-2.4c-2.1,0-2.4,3-3.6,4.8c-0.7,1-1.6,1.8-3.1,1.8
			c-2,0-3.7-1.8-3.7-4.2c0-1.8,0.8-3,1.4-3.8l1.5,1.2c-0.6,0.8-1,1.6-1,2.5c0,1.2,0.7,2.3,1.9,2.3c1.8,0,2.2-3,3.4-4.8
			c0.6-0.9,1.6-1.8,3.2-1.8c2.5,0,4.1,1.9,4.1,4.3c0,1.9-0.8,3.7-2.3,4.9L159.5,3852.7z"/>
	</g>
	<g class="st0">
		<path class="st8" d="M152.7,4221.4H163v2h-14v-1.4l10.3-8.4H149v-2h14v1.4L152.7,4221.4z"/>
		<path class="st8" d="M161.4,4206.8c-1,0.9-2.3,1.5-4.2,1.5H149v-2h8.3c1.3,0,2.1-0.3,2.8-0.9c0.8-0.7,1.2-1.7,1.2-2.9
			c0-1.2-0.5-2.2-1.2-2.9c-0.6-0.6-1.4-0.9-2.8-0.9H149v-2h8.2c1.9,0,3.2,0.6,4.2,1.5c1.1,1.1,1.8,2.6,1.8,4.3
			C163.2,4204.2,162.5,4205.7,161.4,4206.8z"/>
		<path class="st8" d="M154.5,4186.6h1.9v4.6h4.7v-6.2h1.9v8.2h-14v-8h1.9v6h3.6V4186.6z"/>
		<path class="st8" d="M163,4177.1v1.4l-14,5.5v-2.1l10.6-4.1l-10.6-4.1v-2.1L163,4177.1z"/>
		<path class="st8" d="M159.4,4163.1v5.9l3.6,1.5v2.1l-14-5.8v-1.4l14-5.8v2.1L159.4,4163.1z M157.5,4168.2v-4.3l-5.2,2.2
			L157.5,4168.2z"/>
		<path class="st8" d="M159.5,4157.2c1-0.8,1.8-2,1.8-3.4c0-1.3-0.8-2.4-2.1-2.4c-2.1,0-2.4,3-3.6,4.8c-0.7,1-1.6,1.8-3.1,1.8
			c-2,0-3.7-1.8-3.7-4.2c0-1.8,0.8-3,1.4-3.8l1.5,1.2c-0.6,0.8-1,1.6-1,2.5c0,1.2,0.7,2.3,1.9,2.3c1.8,0,2.2-3,3.4-4.8
			c0.6-0.9,1.6-1.8,3.2-1.8c2.5,0,4.1,1.9,4.1,4.3c0,1.9-0.8,3.7-2.3,4.9L159.5,4157.2z"/>
	</g>
	<line id="Línea_259" class="st9" x1="367" y1="3610.5" x2="367" y2="4259.5"/>
	<line id="Línea_261-2" class="st10" x1="1179" y1="3611.5" x2="1179" y2="4259.5"/>
	<line id="Línea_490" class="st11" x1="1746" y1="3611.5" x2="1746" y2="4259.5"/>
	<line id="Línea_259-2" class="st9" x1="815.5" y1="3610.5" x2="815.5" y2="4259.5"/>
	<line id="Línea_491" class="st9" x1="1394.1" y1="3610.5" x2="1394.1" y2="4259.5"/>
</g>
</svg>
