<?xml version="1.0" encoding="utf-8"?>
<!-- Generator: Adobe Illustrator 25.2.0, SVG Export Plug-In . SVG Version: 6.00 Build 0)  -->
<svg version="1.1" id="Capa_1" xmlns="http://www.w3.org/2000/svg" xmlns:xlink="http://www.w3.org/1999/xlink" x="0px" y="0px"
	 viewBox="0 0 1004 830.3" style="enable-background:new 0 0 1004 830.3;" xml:space="preserve">
<style type="text/css">
	.st0{enable-background:new    ;}
	.st1{fill:#333333;}
	.st2{fill:#FF7043;stroke:#FF7043;}
	.st3{fill:#EAEAEA;stroke:#EAEAEA;}
	.st4{fill:#FDC6B3;stroke:#FDC6B3;}
	.st5{fill:#FEE2D9;stroke:#FEE2D9;}
	.st6{fill:#FC8C68;stroke:#FC8C68;}
	.st7{fill:none;stroke:#B4B4B4;stroke-width:4;stroke-linecap:round;}
</style>
<g class="st0">
	<path class="st1" d="M286.7,137.9c-0.3-0.1-0.6-0.1-0.9-0.1c-0.8,0-1.4,0.2-1.8,0.7c-0.3,0.3-0.4,0.8-0.4,1.8v0.4h3.6v2.6h-3.6v9
		h-3.1v-9h-3v-2.6h3v-0.5c0-1.9,0.4-3,1.2-3.8s2-1.4,3.6-1.4c0.6,0,1.2,0,1.8,0.2L286.7,137.9z"/>
	<path class="st1" d="M300.6,140.7v11.6h-3v-0.9c-0.9,0.8-2,1.2-3.1,1.2c-1.6,0-3-0.7-4-1.9c-0.7-0.9-1.2-2.1-1.2-3.8v-6.2h3.1v6.3
		c0,1.1,0.2,1.6,0.6,2c0.5,0.5,1.2,0.7,1.8,0.7c1.3,0,2.3-0.9,2.7-1.4v-7.6L300.6,140.7L300.6,140.7z"/>
	<path class="st1" d="M314.2,150.5c-1.1,1.3-3,2.1-4.8,2.1c-3.5,0-6.1-2.4-6.1-6c0-3.2,2.2-6.1,5.7-6.1c3.2,0,5.5,2.7,5.5,6
		c0,0.3,0,0.6-0.1,0.9h-8.1c0.2,1.6,1.5,2.8,3.1,2.8c1.3,0,2.4-0.7,2.9-1.3L314.2,150.5z M311.2,145c-0.1-1-1-2-2.3-2s-2.4,1-2.5,2
		H311.2z"/>
	<path class="st1" d="M324.2,143.4c-0.2-0.1-0.7-0.1-1.1-0.1c-1.4,0-2.4,1-2.8,1.7v7.3h-3.1v-11.6h3v1.2c0.7-0.9,2-1.4,3.4-1.4
		c0.5,0,0.7,0,1.1,0.1L324.2,143.4z"/>
	<path class="st1" d="M331.8,140.4c3.5,0,6.2,2.7,6.2,6.1s-2.7,6-6.2,6s-6.2-2.7-6.2-6S328.3,140.4,331.8,140.4z M331.8,149.7
		c1.8,0,3.1-1.4,3.1-3.2s-1.2-3.2-3.1-3.2s-3.1,1.4-3.1,3.2S330,149.7,331.8,149.7z"/>
	<path class="st1" d="M340.6,152.3v-11.6h3v0.9c0.9-0.7,2-1.2,3.3-1.2c1.6,0,3.1,0.7,4,1.9c0.8,0.9,1.2,2.1,1.2,4.1v5.9H349v-6.2
		c0-1.2-0.3-1.8-0.7-2.2c-0.4-0.4-1-0.6-1.8-0.6c-1.3,0-2.4,0.8-2.8,1.4v7.6L340.6,152.3L340.6,152.3z"/>
</g>
<g class="st0">
	<path class="st1" d="M287,179.3v-0.9c-1,0.8-2.1,1.2-3.2,1.2c-1.7,0-3.4-0.8-4.4-2c-0.9-1.1-1.5-2.5-1.5-4.1c0-3.4,2.5-6.1,5.7-6.1
		c1.3,0,2.4,0.4,3.3,1.1v-6.2h3.1v17H287z M286.8,171.8c-0.6-0.9-1.7-1.4-2.9-1.4c-1.8,0-3,1.5-3,3.2c0,1.8,1.3,3.2,3.1,3.2
		c1.2,0,2.2-0.6,2.8-1.4L286.8,171.8L286.8,171.8z"/>
	<path class="st1" d="M295.1,161.6c1.1,0,2,0.9,2,2s-0.9,2-2,2s-2-0.9-2-2S294,161.6,295.1,161.6z M296.7,179.3h-3.1v-11.6h3.1
		V179.3z"/>
	<path class="st1" d="M300.6,175.8c0.8,0.7,2,1.2,3.2,1.2c0.8,0,1.5-0.4,1.5-1c0-1.8-5.6-1.1-5.6-4.9c0-2.2,2.2-3.6,4.5-3.6
		c1.5,0,3.2,0.6,3.9,1.2l-1.5,2.3c-0.6-0.4-1.4-0.8-2.2-0.8c-0.9,0-1.6,0.3-1.6,0.9c0,1.5,5.6,0.9,5.6,4.9c0,2.2-2.2,3.6-4.6,3.6
		c-1.6,0-3.3-0.6-4.7-1.6L300.6,175.8z"/>
	<path class="st1" d="M321.2,177.5c-1.1,1.3-3,2.1-4.8,2.1c-3.5,0-6.1-2.4-6.1-6c0-3.2,2.2-6.1,5.7-6.1c3.2,0,5.5,2.7,5.5,6
		c0,0.3,0,0.6-0.1,0.9h-8.1c0.2,1.6,1.5,2.8,3.1,2.8c1.3,0,2.4-0.7,2.9-1.3L321.2,177.5z M318.3,172c-0.1-1-1-2-2.3-2s-2.4,1-2.5,2
		H318.3z"/>
	<path class="st1" d="M324.2,179.3v-11.6h3v0.9c0.9-0.7,2-1.2,3.3-1.2c1.6,0,3.1,0.7,4,1.9c0.8,0.9,1.2,2.1,1.2,4.1v5.9h-3.1v-6.2
		c0-1.2-0.3-1.8-0.7-2.2c-0.4-0.4-1-0.6-1.8-0.6c-1.3,0-2.4,0.8-2.8,1.4v7.6L324.2,179.3L324.2,179.3z M334.4,162.4
		c0,1.7-0.9,3.2-2.7,3.2c-1.4,0-2.5-1.2-3.6-1.2c-0.6,0-0.9,0.5-1,1.2l-1.9-0.4c0-1.7,0.9-3.2,2.7-3.2c1.4,0,2.5,1.2,3.6,1.2
		c0.6,0,0.9-0.5,1-1.2L334.4,162.4z"/>
	<path class="st1" d="M350.2,179.3h-3v-0.9c-1,0.8-2.1,1.2-3.2,1.2c-1.7,0-3.4-0.8-4.4-2c-0.9-1.1-1.5-2.5-1.5-4.1
		c0-3.4,2.5-6.1,5.7-6.1c1.3,0,2.5,0.4,3.4,1.2v-0.9h3V179.3z M347.1,171.8c-0.6-0.9-1.7-1.4-2.9-1.4c-1.8,0-3,1.5-3,3.2
		c0,1.8,1.3,3.2,3.1,3.2c1.2,0,2.2-0.6,2.8-1.4V171.8z"/>
	<path class="st1" d="M362,179.3v-0.9c-1,0.8-2.1,1.2-3.2,1.2c-1.7,0-3.4-0.8-4.4-2c-0.9-1.1-1.5-2.5-1.5-4.1c0-3.4,2.5-6.1,5.7-6.1
		c1.3,0,2.4,0.4,3.3,1.1v-6.2h3.1v17H362z M361.8,171.8c-0.6-0.9-1.7-1.4-2.9-1.4c-1.8,0-3,1.5-3,3.2c0,1.8,1.3,3.2,3.1,3.2
		c1.2,0,2.2-0.6,2.8-1.4V171.8z"/>
	<path class="st1" d="M379.7,179.3h-3v-0.9c-1,0.8-2.1,1.2-3.2,1.2c-1.7,0-3.4-0.8-4.4-2c-0.9-1.1-1.5-2.5-1.5-4.1
		c0-3.4,2.5-6.1,5.7-6.1c1.3,0,2.5,0.4,3.4,1.2v-0.9h3V179.3z M376.6,171.8c-0.6-0.9-1.7-1.4-2.9-1.4c-1.8,0-3,1.5-3,3.2
		c0,1.8,1.3,3.2,3.1,3.2c1.2,0,2.2-0.6,2.8-1.4V171.8z"/>
	<path class="st1" d="M383.7,175.8c0.8,0.7,2,1.2,3.2,1.2c0.8,0,1.5-0.4,1.5-1c0-1.8-5.6-1.1-5.6-4.9c0-2.2,2.2-3.6,4.5-3.6
		c1.5,0,3.2,0.6,3.9,1.2l-1.5,2.3c-0.6-0.4-1.4-0.8-2.2-0.8c-0.9,0-1.6,0.3-1.6,0.9c0,1.5,5.6,0.9,5.6,4.9c0,2.2-2.2,3.6-4.6,3.6
		c-1.6,0-3.3-0.6-4.7-1.6L383.7,175.8z"/>
</g>
<g class="st0">
	<path class="st1" d="M817.7,137.9c-0.3-0.1-0.6-0.1-0.9-0.1c-0.8,0-1.4,0.2-1.8,0.7c-0.3,0.3-0.4,0.8-0.4,1.8v0.4h3.6v2.6h-3.6v9
		h-3.1v-9h-3v-2.6h3v-0.5c0-1.9,0.4-3,1.2-3.8c0.8-0.8,2-1.4,3.6-1.4c0.6,0,1.2,0,1.8,0.2L817.7,137.9z"/>
	<path class="st1" d="M831.6,140.7v11.6h-3v-0.9c-0.9,0.8-2,1.2-3.1,1.2c-1.6,0-3-0.7-4-1.9c-0.7-0.9-1.2-2.1-1.2-3.8v-6.2h3.1v6.3
		c0,1.1,0.2,1.6,0.6,2c0.5,0.5,1.2,0.7,1.8,0.7c1.3,0,2.3-0.9,2.7-1.4v-7.6L831.6,140.7L831.6,140.7z"/>
	<path class="st1" d="M845.2,150.5c-1.1,1.3-3,2.1-4.8,2.1c-3.5,0-6.1-2.4-6.1-6c0-3.2,2.2-6.1,5.7-6.1c3.2,0,5.5,2.7,5.5,6
		c0,0.3,0,0.6-0.1,0.9h-8.1c0.2,1.6,1.5,2.8,3.1,2.8c1.3,0,2.4-0.7,2.9-1.3L845.2,150.5z M842.2,145c-0.1-1-1-2-2.3-2s-2.4,1-2.5,2
		H842.2z"/>
	<path class="st1" d="M855.2,143.4c-0.2-0.1-0.7-0.1-1.1-0.1c-1.4,0-2.4,1-2.8,1.7v7.3h-3.1v-11.6h3v1.2c0.7-0.9,2-1.4,3.4-1.4
		c0.5,0,0.7,0,1.1,0.1L855.2,143.4z"/>
	<path class="st1" d="M862.8,140.4c3.5,0,6.2,2.7,6.2,6.1s-2.7,6-6.2,6s-6.2-2.7-6.2-6S859.3,140.4,862.8,140.4z M862.8,149.7
		c1.8,0,3.1-1.4,3.1-3.2s-1.2-3.2-3.1-3.2s-3.1,1.4-3.1,3.2S861,149.7,862.8,149.7z"/>
	<path class="st1" d="M871.6,152.3v-11.6h3v0.9c0.9-0.7,2-1.2,3.3-1.2c1.6,0,3.1,0.7,4,1.9c0.8,0.9,1.2,2.1,1.2,4.1v5.9H880v-6.2
		c0-1.2-0.3-1.8-0.7-2.2c-0.4-0.4-1-0.6-1.8-0.6c-1.3,0-2.4,0.8-2.8,1.4v7.6L871.6,152.3L871.6,152.3z"/>
</g>
<g class="st0">
	<path class="st1" d="M809.8,167.7h3v0.9c0.9-0.7,2.1-1.2,3.4-1.2c3.2,0,5.7,2.6,5.7,6.1c0,1.6-0.6,3-1.5,4.1c-1,1.2-2.7,2-4.4,2
		c-1.2,0-2.2-0.3-3.1-1.1v6.6h-3.1V167.7z M812.9,175.3c0.6,0.9,1.6,1.4,2.8,1.4c1.8,0,3.1-1.3,3.1-3.2c0-1.7-1.2-3.2-3-3.2
		c-1.2,0-2.2,0.6-2.9,1.4V175.3z"/>
	<path class="st1" d="M826.1,161.6c1.1,0,2,0.9,2,2s-0.9,2-2,2s-2-0.9-2-2S825,161.6,826.1,161.6z M827.7,179.3h-3.1v-11.6h3.1
		V179.3z"/>
	<path class="st1" d="M834.4,179.3h-3.1v-17h3.1V179.3z"/>
	<path class="st1" d="M843.2,167.4c3.5,0,6.2,2.7,6.2,6.1s-2.7,6-6.2,6s-6.2-2.7-6.2-6S839.7,167.4,843.2,167.4z M843.2,176.7
		c1.8,0,3.1-1.4,3.1-3.2s-1.2-3.2-3.1-3.2s-3.1,1.4-3.1,3.2S841.4,176.7,843.2,176.7z"/>
	<path class="st1" d="M860.6,179.3c-0.4,0.1-1.3,0.2-1.9,0.2c-1.9,0-3.2-0.6-4-1.7c-0.6-0.8-0.9-1.8-0.9-3.5v-4.1h-3.2v-2.6h3.2
		v-3.2h3.1v3.2h3.8v2.6h-3.8v4.4c0,0.7,0.1,1.2,0.4,1.5c0.3,0.4,0.8,0.6,1.6,0.6c0.5,0,1.1-0.1,1.3-0.1L860.6,179.3z"/>
	<path class="st1" d="M873.3,177.5c-1.1,1.3-3,2.1-4.8,2.1c-3.5,0-6.1-2.4-6.1-6c0-3.2,2.2-6.1,5.7-6.1c3.2,0,5.5,2.7,5.5,6
		c0,0.3,0,0.6-0.1,0.9h-8.1c0.2,1.6,1.5,2.8,3.1,2.8c1.3,0,2.4-0.7,2.9-1.3L873.3,177.5z M870.4,172c-0.1-1-1-2-2.3-2s-2.4,1-2.5,2
		H870.4z"/>
	<path class="st1" d="M887.6,179.3h-3v-0.9c-1,0.8-2.1,1.2-3.2,1.2c-1.7,0-3.4-0.8-4.4-2c-0.9-1.1-1.5-2.5-1.5-4.1
		c0-3.4,2.5-6.1,5.7-6.1c1.3,0,2.5,0.4,3.4,1.2v-0.9h3V179.3z M884.5,171.8c-0.6-0.9-1.7-1.4-2.9-1.4c-1.8,0-3,1.5-3,3.2
		c0,1.8,1.3,3.2,3.1,3.2c1.2,0,2.2-0.6,2.8-1.4V171.8z"/>
	<path class="st1" d="M899.3,179.3v-0.9c-1,0.8-2.1,1.2-3.2,1.2c-1.7,0-3.4-0.8-4.4-2c-0.9-1.1-1.5-2.5-1.5-4.1
		c0-3.4,2.5-6.1,5.7-6.1c1.3,0,2.4,0.4,3.3,1.1v-6.2h3.1v17H899.3z M899.2,171.8c-0.6-0.9-1.7-1.4-2.9-1.4c-1.8,0-3,1.5-3,3.2
		c0,1.8,1.3,3.2,3.1,3.2c1.2,0,2.2-0.6,2.8-1.4V171.8z"/>
	<path class="st1" d="M917.1,179.3h-3v-0.9c-1,0.8-2.1,1.2-3.2,1.2c-1.7,0-3.4-0.8-4.4-2c-0.9-1.1-1.5-2.5-1.5-4.1
		c0-3.4,2.5-6.1,5.7-6.1c1.3,0,2.5,0.4,3.4,1.2v-0.9h3V179.3z M914,171.8c-0.6-0.9-1.7-1.4-2.9-1.4c-1.8,0-3,1.5-3,3.2
		c0,1.8,1.3,3.2,3.1,3.2c1.2,0,2.2-0.6,2.8-1.4V171.8z"/>
	<path class="st1" d="M921.1,175.8c0.8,0.7,2,1.2,3.2,1.2c0.8,0,1.5-0.4,1.5-1c0-1.8-5.6-1.1-5.6-4.9c0-2.2,2.2-3.6,4.5-3.6
		c1.5,0,3.2,0.6,3.9,1.2l-1.5,2.3c-0.6-0.4-1.4-0.8-2.2-0.8c-0.9,0-1.6,0.3-1.6,0.9c0,1.5,5.6,0.9,5.6,4.9c0,2.2-2.2,3.6-4.6,3.6
		c-1.6,0-3.3-0.6-4.7-1.6L921.1,175.8z"/>
</g>
<g class="st0">
	<path class="st1" d="M286.7,430.9c-0.3-0.1-0.6-0.1-0.9-0.1c-0.8,0-1.4,0.2-1.8,0.7c-0.3,0.3-0.4,0.8-0.4,1.8v0.4h3.6v2.6h-3.6v9
		h-3.1v-9h-3v-2.6h3v-0.5c0-1.9,0.4-3,1.2-3.8s2-1.4,3.6-1.4c0.6,0,1.2,0,1.8,0.2L286.7,430.9z"/>
	<path class="st1" d="M300.6,433.7v11.6h-3v-0.9c-0.9,0.8-2,1.2-3.1,1.2c-1.6,0-3-0.7-4-1.9c-0.7-0.9-1.2-2.1-1.2-3.8v-6.2h3.1v6.3
		c0,1.1,0.2,1.6,0.6,2c0.5,0.5,1.2,0.7,1.8,0.7c1.3,0,2.3-0.9,2.7-1.4v-7.6L300.6,433.7L300.6,433.7z"/>
	<path class="st1" d="M314.2,443.5c-1.1,1.3-3,2.1-4.8,2.1c-3.5,0-6.1-2.4-6.1-6c0-3.2,2.2-6.1,5.7-6.1c3.2,0,5.5,2.7,5.5,6
		c0,0.3,0,0.6-0.1,0.9h-8.1c0.2,1.6,1.5,2.8,3.1,2.8c1.3,0,2.4-0.7,2.9-1.3L314.2,443.5z M311.2,438c-0.1-1-1-2-2.3-2s-2.4,1-2.5,2
		H311.2z"/>
	<path class="st1" d="M324.2,436.4c-0.2-0.1-0.7-0.1-1.1-0.1c-1.4,0-2.4,1-2.8,1.7v7.3h-3.1v-11.6h3v1.2c0.7-0.9,2-1.4,3.4-1.4
		c0.5,0,0.7,0,1.1,0.1L324.2,436.4z"/>
	<path class="st1" d="M331.8,433.4c3.5,0,6.2,2.7,6.2,6.1s-2.7,6-6.2,6s-6.2-2.7-6.2-6S328.3,433.4,331.8,433.4z M331.8,442.7
		c1.8,0,3.1-1.4,3.1-3.2s-1.2-3.2-3.1-3.2s-3.1,1.4-3.1,3.2S330,442.7,331.8,442.7z"/>
	<path class="st1" d="M340.6,445.3v-11.6h3v0.9c0.9-0.7,2-1.2,3.3-1.2c1.6,0,3.1,0.7,4,1.9c0.8,0.9,1.2,2.1,1.2,4.1v5.9H349v-6.2
		c0-1.2-0.3-1.8-0.7-2.2c-0.4-0.4-1-0.6-1.8-0.6c-1.3,0-2.4,0.8-2.8,1.4v7.6L340.6,445.3L340.6,445.3z"/>
</g>
<g class="st0">
	<path class="st1" d="M278.8,460.7h3v0.9c0.9-0.7,2.1-1.2,3.4-1.2c3.2,0,5.7,2.6,5.7,6.1c0,1.6-0.6,3-1.5,4.1c-1,1.2-2.7,2-4.4,2
		c-1.2,0-2.2-0.3-3.1-1.1v6.6h-3.1L278.8,460.7L278.8,460.7z M281.9,468.3c0.6,0.9,1.6,1.4,2.8,1.4c1.8,0,3.1-1.3,3.1-3.2
		c0-1.7-1.2-3.2-3-3.2c-1.2,0-2.2,0.6-2.9,1.4L281.9,468.3L281.9,468.3z"/>
	<path class="st1" d="M300.6,463.4c-0.2-0.1-0.7-0.1-1.1-0.1c-1.4,0-2.4,1-2.8,1.7v7.3h-3.1v-11.6h3v1.2c0.7-0.9,2-1.4,3.4-1.4
		c0.5,0,0.7,0,1.1,0.1L300.6,463.4z"/>
	<path class="st1" d="M308.3,460.4c3.5,0,6.2,2.7,6.2,6.1s-2.7,6-6.2,6s-6.2-2.7-6.2-6S304.7,460.4,308.3,460.4z M308.3,469.7
		c1.8,0,3.1-1.4,3.1-3.2s-1.2-3.2-3.1-3.2s-3.1,1.4-3.1,3.2S306.4,469.7,308.3,469.7z"/>
	<path class="st1" d="M325.6,472.3c-0.4,0.1-1.3,0.2-1.9,0.2c-1.9,0-3.2-0.6-4-1.7c-0.6-0.8-0.9-1.8-0.9-3.5v-4.1h-3.2v-2.6h3.2
		v-3.2h3.1v3.2h3.8v2.6h-3.8v4.4c0,0.7,0.1,1.2,0.4,1.5c0.3,0.4,0.8,0.6,1.6,0.6c0.5,0,1.1-0.1,1.3-0.1L325.6,472.3z"/>
	<path class="st1" d="M333.6,460.4c3.5,0,6.2,2.7,6.2,6.1s-2.7,6-6.2,6s-6.2-2.7-6.2-6S330.1,460.4,333.6,460.4z M333.6,469.7
		c1.8,0,3.1-1.4,3.1-3.2s-1.2-3.2-3.1-3.2s-3.1,1.4-3.1,3.2S331.8,469.7,333.6,469.7z"/>
	<path class="st1" d="M351,472.3c-0.4,0.1-1.3,0.2-1.9,0.2c-1.9,0-3.2-0.6-4-1.7c-0.6-0.8-0.9-1.8-0.9-3.5v-4.1H341v-2.6h3.2v-3.2
		h3.1v3.2h3.8v2.6h-3.8v4.4c0,0.7,0.1,1.2,0.4,1.5c0.3,0.4,0.8,0.6,1.6,0.6c0.5,0,1.1-0.1,1.3-0.1L351,472.3z"/>
	<path class="st1" d="M355.6,454.6c1.1,0,2,0.9,2,2s-0.9,2-2,2s-2-0.9-2-2S354.5,454.6,355.6,454.6z M357.2,472.3h-3.1v-11.6h3.1
		V472.3z"/>
	<path class="st1" d="M360.8,460.7h3v0.9c0.9-0.7,2.1-1.2,3.4-1.2c3.2,0,5.7,2.6,5.7,6.1c0,1.6-0.6,3-1.5,4.1c-1,1.2-2.7,2-4.4,2
		c-1.2,0-2.2-0.3-3.1-1.1v6.6h-3.1V460.7z M363.9,468.3c0.6,0.9,1.6,1.4,2.8,1.4c1.8,0,3.1-1.3,3.1-3.2c0-1.7-1.2-3.2-3-3.2
		c-1.2,0-2.2,0.6-2.9,1.4V468.3z"/>
	<path class="st1" d="M387,472.3h-3v-0.9c-1,0.8-2.1,1.2-3.2,1.2c-1.7,0-3.4-0.8-4.4-2c-0.9-1.1-1.5-2.5-1.5-4.1
		c0-3.4,2.5-6.1,5.7-6.1c1.3,0,2.5,0.4,3.4,1.2v-0.9h3V472.3z M383.8,464.8c-0.6-0.9-1.7-1.4-2.9-1.4c-1.8,0-3,1.5-3,3.2
		c0,1.8,1.3,3.2,3.1,3.2c1.2,0,2.2-0.6,2.8-1.4V464.8z"/>
	<path class="st1" d="M398.7,472.3v-0.9c-1,0.8-2.1,1.2-3.2,1.2c-1.7,0-3.4-0.8-4.4-2c-0.9-1.1-1.5-2.5-1.5-4.1
		c0-3.4,2.5-6.1,5.7-6.1c1.3,0,2.4,0.4,3.3,1.1v-6.2h3.1v17H398.7z M398.6,464.8c-0.6-0.9-1.7-1.4-2.9-1.4c-1.8,0-3,1.5-3,3.2
		c0,1.8,1.3,3.2,3.1,3.2c1.2,0,2.2-0.6,2.8-1.4V464.8z"/>
	<path class="st1" d="M416.5,472.3h-3v-0.9c-1,0.8-2.1,1.2-3.2,1.2c-1.7,0-3.4-0.8-4.4-2c-0.9-1.1-1.5-2.5-1.5-4.1
		c0-3.4,2.5-6.1,5.7-6.1c1.3,0,2.5,0.4,3.4,1.2v-0.9h3V472.3z M413.4,464.8c-0.6-0.9-1.7-1.4-2.9-1.4c-1.8,0-3,1.5-3,3.2
		c0,1.8,1.3,3.2,3.1,3.2c1.2,0,2.2-0.6,2.8-1.4V464.8z"/>
	<path class="st1" d="M420.4,468.8c0.8,0.7,2,1.2,3.2,1.2c0.8,0,1.5-0.4,1.5-1c0-1.8-5.6-1.1-5.6-4.9c0-2.2,2.2-3.6,4.5-3.6
		c1.5,0,3.2,0.6,3.9,1.2l-1.5,2.3c-0.6-0.4-1.4-0.8-2.2-0.8c-0.9,0-1.6,0.3-1.6,0.9c0,1.5,5.6,0.9,5.6,4.9c0,2.2-2.2,3.6-4.6,3.6
		c-1.6,0-3.3-0.6-4.7-1.6L420.4,468.8z"/>
</g>
<g class="st0">
	<path class="st1" d="M817.7,430.9c-0.3-0.1-0.6-0.1-0.9-0.1c-0.8,0-1.4,0.2-1.8,0.7c-0.3,0.3-0.4,0.8-0.4,1.8v0.4h3.6v2.6h-3.6v9
		h-3.1v-9h-3v-2.6h3v-0.5c0-1.9,0.4-3,1.2-3.8c0.8-0.8,2-1.4,3.6-1.4c0.6,0,1.2,0,1.8,0.2L817.7,430.9z"/>
	<path class="st1" d="M831.6,433.7v11.6h-3v-0.9c-0.9,0.8-2,1.2-3.1,1.2c-1.6,0-3-0.7-4-1.9c-0.7-0.9-1.2-2.1-1.2-3.8v-6.2h3.1v6.3
		c0,1.1,0.2,1.6,0.6,2c0.5,0.5,1.2,0.7,1.8,0.7c1.3,0,2.3-0.9,2.7-1.4v-7.6L831.6,433.7L831.6,433.7z"/>
	<path class="st1" d="M845.2,443.5c-1.1,1.3-3,2.1-4.8,2.1c-3.5,0-6.1-2.4-6.1-6c0-3.2,2.2-6.1,5.7-6.1c3.2,0,5.5,2.7,5.5,6
		c0,0.3,0,0.6-0.1,0.9h-8.1c0.2,1.6,1.5,2.8,3.1,2.8c1.3,0,2.4-0.7,2.9-1.3L845.2,443.5z M842.2,438c-0.1-1-1-2-2.3-2s-2.4,1-2.5,2
		H842.2z"/>
	<path class="st1" d="M855.2,436.4c-0.2-0.1-0.7-0.1-1.1-0.1c-1.4,0-2.4,1-2.8,1.7v7.3h-3.1v-11.6h3v1.2c0.7-0.9,2-1.4,3.4-1.4
		c0.5,0,0.7,0,1.1,0.1L855.2,436.4z"/>
	<path class="st1" d="M862.8,433.4c3.5,0,6.2,2.7,6.2,6.1s-2.7,6-6.2,6s-6.2-2.7-6.2-6S859.3,433.4,862.8,433.4z M862.8,442.7
		c1.8,0,3.1-1.4,3.1-3.2s-1.2-3.2-3.1-3.2s-3.1,1.4-3.1,3.2S861,442.7,862.8,442.7z"/>
	<path class="st1" d="M871.6,445.3v-11.6h3v0.9c0.9-0.7,2-1.2,3.3-1.2c1.6,0,3.1,0.7,4,1.9c0.8,0.9,1.2,2.1,1.2,4.1v5.9H880v-6.2
		c0-1.2-0.3-1.8-0.7-2.2c-0.4-0.4-1-0.6-1.8-0.6c-1.3,0-2.4,0.8-2.8,1.4v7.6L871.6,445.3L871.6,445.3z"/>
</g>
<g class="st0">
	<path class="st1" d="M811.4,454.6c1.1,0,2,0.9,2,2s-0.9,2-2,2s-2-0.9-2-2S810.2,454.6,811.4,454.6z M812.9,472.3h-3.1v-11.6h3.1
		V472.3z"/>
	<path class="st1" d="M816.5,472.3v-11.6h3v0.9c0.9-0.8,2-1.2,3.1-1.2c1.6,0,3,0.7,3.9,1.8c0.9-1,2.4-1.8,4.1-1.8
		c1.6,0,3.1,0.7,4.1,1.9c0.7,0.9,1.2,2.1,1.2,3.8v6.2h-3.1V466c0-1.1-0.2-1.6-0.6-2c-0.5-0.5-1.2-0.7-1.8-0.7
		c-1.3,0-2.4,0.9-2.8,1.5c0,0.4,0.1,0.8,0.1,1.3v6.2h-3.1V466c0-1.1-0.2-1.6-0.6-2c-0.5-0.5-1.2-0.7-1.8-0.7c-1.3,0-2.3,0.9-2.7,1.4
		v7.6L816.5,472.3L816.5,472.3z"/>
	<path class="st1" d="M839.3,460.7h3v0.9c0.9-0.7,2.1-1.2,3.4-1.2c3.2,0,5.7,2.6,5.7,6.1c0,1.6-0.6,3-1.5,4.1c-1,1.2-2.7,2-4.4,2
		c-1.2,0-2.2-0.3-3.1-1.1v6.6h-3.1V460.7z M842.4,468.3c0.6,0.9,1.6,1.4,2.8,1.4c1.8,0,3.1-1.3,3.1-3.2c0-1.7-1.2-3.2-3-3.2
		c-1.2,0-2.2,0.6-2.9,1.4V468.3z"/>
	<path class="st1" d="M857.2,472.3h-3.1v-17h3.1V472.3z"/>
	<path class="st1" d="M870.7,470.5c-1.1,1.3-3,2.1-4.8,2.1c-3.5,0-6.1-2.4-6.1-6c0-3.2,2.2-6.1,5.7-6.1c3.2,0,5.5,2.7,5.5,6
		c0,0.3,0,0.6-0.1,0.9h-8.1c0.2,1.6,1.5,2.8,3.1,2.8c1.3,0,2.4-0.7,2.9-1.3L870.7,470.5z M867.8,465c-0.1-1-1-2-2.3-2s-2.4,1-2.5,2
		H867.8z"/>
	<path class="st1" d="M873.6,472.3v-11.6h3v0.9c0.9-0.8,2-1.2,3.1-1.2c1.6,0,3,0.7,3.9,1.8c0.9-1,2.4-1.8,4.1-1.8
		c1.6,0,3.1,0.7,4.1,1.9c0.7,0.9,1.2,2.1,1.2,3.8v6.2h-3.1V466c0-1.1-0.2-1.6-0.6-2c-0.5-0.5-1.2-0.7-1.8-0.7
		c-1.3,0-2.4,0.9-2.8,1.5c0,0.4,0.1,0.8,0.1,1.3v6.2h-3.1V466c0-1.1-0.2-1.6-0.6-2c-0.5-0.5-1.2-0.7-1.8-0.7c-1.3,0-2.3,0.9-2.7,1.4
		v7.6L873.6,472.3L873.6,472.3z"/>
	<path class="st1" d="M906.4,470.5c-1.1,1.3-3,2.1-4.8,2.1c-3.5,0-6.1-2.4-6.1-6c0-3.2,2.2-6.1,5.7-6.1c3.2,0,5.5,2.7,5.5,6
		c0,0.3,0,0.6-0.1,0.9h-8.1c0.2,1.6,1.5,2.8,3.1,2.8c1.3,0,2.4-0.7,2.9-1.3L906.4,470.5z M903.4,465c-0.1-1-1-2-2.3-2s-2.4,1-2.5,2
		H903.4z"/>
	<path class="st1" d="M909.3,472.3v-11.6h3v0.9c0.9-0.7,2-1.2,3.3-1.2c1.6,0,3.1,0.7,4,1.9c0.8,0.9,1.2,2.1,1.2,4.1v5.9h-3.1v-6.2
		c0-1.2-0.3-1.8-0.7-2.2c-0.4-0.4-1-0.6-1.8-0.6c-1.3,0-2.4,0.8-2.8,1.4v7.6L909.3,472.3L909.3,472.3z"/>
	<path class="st1" d="M932.4,472.3c-0.4,0.1-1.3,0.2-1.9,0.2c-1.9,0-3.2-0.6-4-1.7c-0.6-0.8-0.9-1.8-0.9-3.5v-4.1h-3.2v-2.6h3.2
		v-3.2h3.1v3.2h3.8v2.6h-3.8v4.4c0,0.7,0.1,1.2,0.4,1.5c0.3,0.4,0.8,0.6,1.6,0.6c0.5,0,1.1-0.1,1.3-0.1L932.4,472.3z"/>
	<path class="st1" d="M946.4,472.3h-3v-0.9c-1,0.8-2.1,1.2-3.2,1.2c-1.7,0-3.4-0.8-4.4-2c-0.9-1.1-1.5-2.5-1.5-4.1
		c0-3.4,2.5-6.1,5.7-6.1c1.3,0,2.5,0.4,3.4,1.2v-0.9h3V472.3z M943.2,464.8c-0.6-0.9-1.7-1.4-2.9-1.4c-1.8,0-3,1.5-3,3.2
		c0,1.8,1.3,3.2,3.1,3.2c1.2,0,2.2-0.6,2.8-1.4V464.8z"/>
	<path class="st1" d="M958.1,472.3v-0.9c-1,0.8-2.1,1.2-3.2,1.2c-1.7,0-3.4-0.8-4.4-2c-0.9-1.1-1.5-2.5-1.5-4.1
		c0-3.4,2.5-6.1,5.7-6.1c1.3,0,2.4,0.4,3.3,1.1v-6.2h3.1v17H958.1z M958,464.8c-0.6-0.9-1.7-1.4-2.9-1.4c-1.8,0-3,1.5-3,3.2
		c0,1.8,1.3,3.2,3.1,3.2c1.2,0,2.2-0.6,2.8-1.4V464.8z"/>
	<path class="st1" d="M975.9,472.3h-3v-0.9c-1,0.8-2.1,1.2-3.2,1.2c-1.7,0-3.4-0.8-4.4-2c-0.9-1.1-1.5-2.5-1.5-4.1
		c0-3.4,2.5-6.1,5.7-6.1c1.3,0,2.5,0.4,3.4,1.2v-0.9h3V472.3z M972.8,464.8c-0.6-0.9-1.7-1.4-2.9-1.4c-1.8,0-3,1.5-3,3.2
		c0,1.8,1.3,3.2,3.1,3.2c1.2,0,2.2-0.6,2.8-1.4V464.8z"/>
	<path class="st1" d="M979.8,468.8c0.8,0.7,2,1.2,3.2,1.2c0.8,0,1.5-0.4,1.5-1c0-1.8-5.6-1.1-5.6-4.9c0-2.2,2.2-3.6,4.5-3.6
		c1.5,0,3.2,0.6,3.9,1.2l-1.5,2.3c-0.6-0.4-1.4-0.8-2.2-0.8c-0.9,0-1.6,0.3-1.6,0.9c0,1.5,5.6,0.9,5.6,4.9c0,2.2-2.2,3.6-4.6,3.6
		c-1.6,0-3.3-0.6-4.7-1.6L979.8,468.8z"/>
</g>
<g class="st0">
	<path class="st1" d="M286.7,712.9c-0.3-0.1-0.6-0.1-0.9-0.1c-0.8,0-1.4,0.2-1.8,0.7c-0.3,0.3-0.4,0.8-0.4,1.8v0.4h3.6v2.6h-3.6v9
		h-3.1v-9h-3v-2.6h3v-0.5c0-1.9,0.4-3,1.2-3.8s2-1.4,3.6-1.4c0.6,0,1.2,0,1.8,0.2L286.7,712.9z"/>
	<path class="st1" d="M300.6,715.7v11.6h-3v-0.9c-0.9,0.8-2,1.2-3.1,1.2c-1.6,0-3-0.7-4-1.9c-0.7-0.9-1.2-2.1-1.2-3.8v-6.2h3.1v6.3
		c0,1.1,0.2,1.6,0.6,2c0.5,0.5,1.2,0.7,1.8,0.7c1.3,0,2.3-0.9,2.7-1.4v-7.6L300.6,715.7L300.6,715.7z"/>
	<path class="st1" d="M314.2,725.5c-1.1,1.3-3,2.1-4.8,2.1c-3.5,0-6.1-2.4-6.1-6c0-3.2,2.2-6.1,5.7-6.1c3.2,0,5.5,2.7,5.5,6
		c0,0.3,0,0.6-0.1,0.9h-8.1c0.2,1.6,1.5,2.8,3.1,2.8c1.3,0,2.4-0.7,2.9-1.3L314.2,725.5z M311.2,720c-0.1-1-1-2-2.3-2s-2.4,1-2.5,2
		H311.2z"/>
	<path class="st1" d="M324.2,718.4c-0.2-0.1-0.7-0.1-1.1-0.1c-1.4,0-2.4,1-2.8,1.7v7.3h-3.1v-11.6h3v1.2c0.7-0.9,2-1.4,3.4-1.4
		c0.5,0,0.7,0,1.1,0.1L324.2,718.4z"/>
	<path class="st1" d="M331.8,715.4c3.5,0,6.2,2.7,6.2,6.1s-2.7,6-6.2,6s-6.2-2.7-6.2-6S328.3,715.4,331.8,715.4z M331.8,724.7
		c1.8,0,3.1-1.4,3.1-3.2s-1.2-3.2-3.1-3.2s-3.1,1.4-3.1,3.2S330,724.7,331.8,724.7z"/>
	<path class="st1" d="M340.6,727.3v-11.6h3v0.9c0.9-0.7,2-1.2,3.3-1.2c1.6,0,3.1,0.7,4,1.9c0.8,0.9,1.2,2.1,1.2,4.1v5.9H349v-6.2
		c0-1.2-0.3-1.8-0.7-2.2c-0.4-0.4-1-0.6-1.8-0.6c-1.3,0-2.4,0.8-2.8,1.4v7.6L340.6,727.3L340.6,727.3z"/>
</g>
<g class="st0">
	<path class="st1" d="M287.6,754.3c-0.4,0.1-1.3,0.2-1.9,0.2c-1.9,0-3.2-0.6-4-1.7c-0.6-0.8-0.9-1.8-0.9-3.5v-4.1h-3.2v-2.6h3.2
		v-3.2h3.1v3.2h3.8v2.6h-3.8v4.4c0,0.7,0.1,1.2,0.4,1.5c0.3,0.4,0.8,0.6,1.6,0.6c0.5,0,1.1-0.1,1.3-0.1L287.6,754.3z"/>
	<path class="st1" d="M300.2,752.5c-1.1,1.3-3,2.1-4.8,2.1c-3.5,0-6.1-2.4-6.1-6c0-3.2,2.2-6.1,5.7-6.1c3.2,0,5.5,2.7,5.5,6
		c0,0.3,0,0.6-0.1,0.9h-8.1c0.2,1.6,1.5,2.8,3.1,2.8c1.3,0,2.4-0.7,2.9-1.3L300.2,752.5z M297.3,747c-0.1-1-1-2-2.3-2s-2.4,1-2.5,2
		H297.3z"/>
	<path class="st1" d="M303.6,750.8c0.8,0.7,2,1.2,3.2,1.2c0.8,0,1.5-0.4,1.5-1c0-1.8-5.6-1.1-5.6-4.9c0-2.2,2.2-3.6,4.5-3.6
		c1.5,0,3.2,0.6,3.9,1.2l-1.5,2.3c-0.6-0.4-1.4-0.8-2.2-0.8c-0.9,0-1.6,0.3-1.6,0.9c0,1.5,5.6,0.9,5.6,4.9c0,2.2-2.2,3.6-4.6,3.6
		c-1.6,0-3.3-0.6-4.7-1.6L303.6,750.8z"/>
	<path class="st1" d="M322.6,754.3c-0.4,0.1-1.3,0.2-1.9,0.2c-1.9,0-3.2-0.6-4-1.7c-0.6-0.8-0.9-1.8-0.9-3.5v-4.1h-3.2v-2.6h3.2
		v-3.2h3.1v3.2h3.8v2.6h-3.8v4.4c0,0.7,0.1,1.2,0.4,1.5c0.3,0.4,0.8,0.6,1.6,0.6c0.5,0,1.1-0.1,1.3-0.1L322.6,754.3z"/>
	<path class="st1" d="M335.3,752.5c-1.1,1.3-3,2.1-4.8,2.1c-3.5,0-6.1-2.4-6.1-6c0-3.2,2.2-6.1,5.7-6.1c3.2,0,5.5,2.7,5.5,6
		c0,0.3,0,0.6-0.1,0.9h-8.1c0.2,1.6,1.5,2.8,3.1,2.8c1.3,0,2.4-0.7,2.9-1.3L335.3,752.5z M332.4,747c-0.1-1-1-2-2.3-2s-2.4,1-2.5,2
		H332.4z"/>
	<path class="st1" d="M349.6,754.3h-3v-0.9c-1,0.8-2.1,1.2-3.2,1.2c-1.7,0-3.4-0.8-4.4-2c-0.9-1.1-1.5-2.5-1.5-4.1
		c0-3.4,2.5-6.1,5.7-6.1c1.3,0,2.5,0.4,3.4,1.2v-0.9h3V754.3z M346.5,746.8c-0.6-0.9-1.7-1.4-2.9-1.4c-1.8,0-3,1.5-3,3.2
		c0,1.8,1.3,3.2,3.1,3.2c1.2,0,2.2-0.6,2.8-1.4V746.8z"/>
	<path class="st1" d="M361.4,754.3v-0.9c-1,0.8-2.1,1.2-3.2,1.2c-1.7,0-3.4-0.8-4.4-2c-0.9-1.1-1.5-2.5-1.5-4.1
		c0-3.4,2.5-6.1,5.7-6.1c1.3,0,2.4,0.4,3.3,1.1v-6.2h3.1v17H361.4z M361.2,746.8c-0.6-0.9-1.7-1.4-2.9-1.4c-1.8,0-3,1.5-3,3.2
		c0,1.8,1.3,3.2,3.1,3.2c1.2,0,2.2-0.6,2.8-1.4V746.8z"/>
	<path class="st1" d="M379.1,754.3h-3v-0.9c-1,0.8-2.1,1.2-3.2,1.2c-1.7,0-3.4-0.8-4.4-2c-0.9-1.1-1.5-2.5-1.5-4.1
		c0-3.4,2.5-6.1,5.7-6.1c1.3,0,2.5,0.4,3.4,1.2v-0.9h3V754.3z M376,746.8c-0.6-0.9-1.7-1.4-2.9-1.4c-1.8,0-3,1.5-3,3.2
		c0,1.8,1.3,3.2,3.1,3.2c1.2,0,2.2-0.6,2.8-1.4V746.8z"/>
	<path class="st1" d="M383.1,750.8c0.8,0.7,2,1.2,3.2,1.2c0.8,0,1.5-0.4,1.5-1c0-1.8-5.6-1.1-5.6-4.9c0-2.2,2.2-3.6,4.5-3.6
		c1.5,0,3.2,0.6,3.9,1.2l-1.5,2.3c-0.6-0.4-1.4-0.8-2.2-0.8c-0.9,0-1.6,0.3-1.6,0.9c0,1.5,5.6,0.9,5.6,4.9c0,2.2-2.2,3.6-4.6,3.6
		c-1.6,0-3.3-0.6-4.7-1.6L383.1,750.8z"/>
	<path class="st1" d="M400.2,760.1l3.2-6.9l-5.2-10.5h3.4l3.4,7l3.1-7h3.3l-8,17.4H400.2z"/>
</g>
<g class="st0">
	<path class="st1" d="M290,781.3h-3v-0.9c-1,0.8-2.1,1.2-3.2,1.2c-1.7,0-3.4-0.8-4.4-2c-0.9-1.1-1.5-2.5-1.5-4.1
		c0-3.4,2.5-6.1,5.7-6.1c1.3,0,2.5,0.4,3.4,1.2v-0.9h3V781.3z M286.8,773.8c-0.6-0.9-1.7-1.4-2.9-1.4c-1.8,0-3,1.5-3,3.2
		c0,1.8,1.3,3.2,3.1,3.2c1.2,0,2.2-0.6,2.8-1.4L286.8,773.8L286.8,773.8z"/>
	<path class="st1" d="M291.8,784.3c0.2,0.1,0.6,0.1,0.8,0.1c0.6,0,1.2-0.2,1.5-0.5s0.5-0.8,0.5-2v-12.2h3.1v12.2
		c0,1.8-0.2,2.8-0.8,3.7c-0.7,1-1.9,1.7-4,1.7c-0.6,0-1.2-0.1-1.6-0.2L291.8,784.3z M296.1,763.6c1.1,0,2,0.9,2,2s-0.9,2-2,2
		s-2-0.9-2-2S295,763.6,296.1,763.6z"/>
	<path class="st1" d="M312.3,769.7v11.6h-3v-0.9c-0.9,0.8-2,1.2-3.1,1.2c-1.6,0-3-0.7-4-1.9c-0.7-0.9-1.2-2.1-1.2-3.8v-6.2h3.1v6.3
		c0,1.1,0.2,1.6,0.6,2c0.5,0.5,1.2,0.7,1.8,0.7c1.3,0,2.3-0.9,2.7-1.4v-7.6L312.3,769.7L312.3,769.7z"/>
	<path class="st1" d="M316.2,777.8c0.8,0.7,2,1.2,3.2,1.2c0.8,0,1.5-0.4,1.5-1c0-1.8-5.6-1.1-5.6-4.9c0-2.2,2.2-3.6,4.5-3.6
		c1.5,0,3.2,0.6,3.9,1.2l-1.5,2.3c-0.6-0.4-1.4-0.8-2.2-0.8c-0.9,0-1.6,0.3-1.6,0.9c0,1.5,5.6,0.9,5.6,4.9c0,2.2-2.2,3.6-4.6,3.6
		c-1.6,0-3.3-0.6-4.7-1.6L316.2,777.8z"/>
	<path class="st1" d="M335.2,781.3c-0.4,0.1-1.3,0.2-1.9,0.2c-1.9,0-3.2-0.6-4-1.7c-0.6-0.8-0.9-1.8-0.9-3.5v-4.1h-3.2v-2.6h3.2
		v-3.2h3.1v3.2h3.8v2.6h-3.8v4.4c0,0.7,0.1,1.2,0.4,1.5c0.3,0.4,0.8,0.6,1.6,0.6c0.5,0,1.1-0.1,1.3-0.1L335.2,781.3z"/>
	<path class="st1" d="M349.1,781.3h-3v-0.9c-1,0.8-2.1,1.2-3.2,1.2c-1.7,0-3.4-0.8-4.4-2c-0.9-1.1-1.5-2.5-1.5-4.1
		c0-3.4,2.5-6.1,5.7-6.1c1.3,0,2.5,0.4,3.4,1.2v-0.9h3V781.3z M346,773.8c-0.6-0.9-1.7-1.4-2.9-1.4c-1.8,0-3,1.5-3,3.2
		c0,1.8,1.3,3.2,3.1,3.2c1.2,0,2.2-0.6,2.8-1.4V773.8z"/>
	<path class="st1" d="M360.9,781.3v-0.9c-1,0.8-2.1,1.2-3.2,1.2c-1.7,0-3.4-0.8-4.4-2c-0.9-1.1-1.5-2.5-1.5-4.1
		c0-3.4,2.5-6.1,5.7-6.1c1.3,0,2.4,0.4,3.3,1.1v-6.2h3.1v17H360.9z M360.8,773.8c-0.6-0.9-1.7-1.4-2.9-1.4c-1.8,0-3,1.5-3,3.2
		c0,1.8,1.3,3.2,3.1,3.2c1.2,0,2.2-0.6,2.8-1.4V773.8z"/>
	<path class="st1" d="M378.6,781.3h-3v-0.9c-1,0.8-2.1,1.2-3.2,1.2c-1.7,0-3.4-0.8-4.4-2c-0.9-1.1-1.5-2.5-1.5-4.1
		c0-3.4,2.5-6.1,5.7-6.1c1.3,0,2.5,0.4,3.4,1.2v-0.9h3V781.3z M375.5,773.8c-0.6-0.9-1.7-1.4-2.9-1.4c-1.8,0-3,1.5-3,3.2
		c0,1.8,1.3,3.2,3.1,3.2c1.2,0,2.2-0.6,2.8-1.4V773.8z"/>
	<path class="st1" d="M382.6,777.8c0.8,0.7,2,1.2,3.2,1.2c0.8,0,1.5-0.4,1.5-1c0-1.8-5.6-1.1-5.6-4.9c0-2.2,2.2-3.6,4.5-3.6
		c1.5,0,3.2,0.6,3.9,1.2l-1.5,2.3c-0.6-0.4-1.4-0.8-2.2-0.8c-0.9,0-1.6,0.3-1.6,0.9c0,1.5,5.6,0.9,5.6,4.9c0,2.2-2.2,3.6-4.6,3.6
		c-1.6,0-3.3-0.6-4.7-1.6L382.6,777.8z"/>
</g>
<g class="st0">
	<path class="st1" d="M817.7,722.9c-0.3-0.1-0.6-0.1-0.9-0.1c-0.8,0-1.4,0.2-1.8,0.7c-0.3,0.3-0.4,0.8-0.4,1.8v0.4h3.6v2.6h-3.6v9
		h-3.1v-9h-3v-2.6h3v-0.5c0-1.9,0.4-3,1.2-3.8c0.8-0.8,2-1.4,3.6-1.4c0.6,0,1.2,0,1.8,0.2L817.7,722.9z"/>
	<path class="st1" d="M831.6,725.7v11.6h-3v-0.9c-0.9,0.8-2,1.2-3.1,1.2c-1.6,0-3-0.7-4-1.9c-0.7-0.9-1.2-2.1-1.2-3.8v-6.2h3.1v6.3
		c0,1.1,0.2,1.6,0.6,2c0.5,0.5,1.2,0.7,1.8,0.7c1.3,0,2.3-0.9,2.7-1.4v-7.6L831.6,725.7L831.6,725.7z"/>
	<path class="st1" d="M845.2,735.5c-1.1,1.3-3,2.1-4.8,2.1c-3.5,0-6.1-2.4-6.1-6c0-3.2,2.2-6.1,5.7-6.1c3.2,0,5.5,2.7,5.5,6
		c0,0.3,0,0.6-0.1,0.9h-8.1c0.2,1.6,1.5,2.8,3.1,2.8c1.3,0,2.4-0.7,2.9-1.3L845.2,735.5z M842.2,730c-0.1-1-1-2-2.3-2s-2.4,1-2.5,2
		H842.2z"/>
	<path class="st1" d="M855.2,728.4c-0.2-0.1-0.7-0.1-1.1-0.1c-1.4,0-2.4,1-2.8,1.7v7.3h-3.1v-11.6h3v1.2c0.7-0.9,2-1.4,3.4-1.4
		c0.5,0,0.7,0,1.1,0.1L855.2,728.4z"/>
	<path class="st1" d="M862.8,725.4c3.5,0,6.2,2.7,6.2,6.1s-2.7,6-6.2,6s-6.2-2.7-6.2-6S859.3,725.4,862.8,725.4z M862.8,734.7
		c1.8,0,3.1-1.4,3.1-3.2s-1.2-3.2-3.1-3.2s-3.1,1.4-3.1,3.2S861,734.7,862.8,734.7z"/>
	<path class="st1" d="M871.6,737.3v-11.6h3v0.9c0.9-0.7,2-1.2,3.3-1.2c1.6,0,3.1,0.7,4,1.9c0.8,0.9,1.2,2.1,1.2,4.1v5.9H880v-6.2
		c0-1.2-0.3-1.8-0.7-2.2c-0.4-0.4-1-0.6-1.8-0.6c-1.3,0-2.4,0.8-2.8,1.4v7.6L871.6,737.3L871.6,737.3z"/>
</g>
<g class="st0">
	<path class="st1" d="M819.7,762.5c-1.1,1.3-3,2.1-4.8,2.1c-3.5,0-6.1-2.4-6.1-6c0-3.2,2.2-6.1,5.7-6.1c3.2,0,5.5,2.7,5.5,6
		c0,0.3,0,0.6-0.1,0.9h-8.1c0.2,1.6,1.5,2.8,3.1,2.8c1.3,0,2.4-0.7,2.9-1.3L819.7,762.5z M816.8,757c-0.1-1-1-2-2.3-2s-2.4,1-2.5,2
		H816.8z"/>
	<path class="st1" d="M827.3,759.8l3.2-7.1h3.2l-5.4,11.6h-2.2l-5.4-11.6h3.2L827.3,759.8z"/>
	<path class="st1" d="M846.5,764.3h-3v-0.9c-1,0.8-2.1,1.2-3.2,1.2c-1.7,0-3.4-0.8-4.4-2c-0.9-1.1-1.5-2.5-1.5-4.1
		c0-3.4,2.5-6.1,5.7-6.1c1.3,0,2.5,0.4,3.4,1.2v-0.9h3V764.3z M843.4,756.8c-0.6-0.9-1.7-1.4-2.9-1.4c-1.8,0-3,1.5-3,3.2
		c0,1.8,1.3,3.2,3.1,3.2c1.2,0,2.2-0.6,2.8-1.4V756.8z"/>
	<path class="st1" d="M853.3,764.3h-3.1v-17h3.1V764.3z"/>
	<path class="st1" d="M867.9,752.7v11.6h-3v-0.9c-0.9,0.8-2,1.2-3.1,1.2c-1.6,0-3-0.7-4-1.9c-0.7-0.9-1.2-2.1-1.2-3.8v-6.2h3.1v6.3
		c0,1.1,0.2,1.6,0.6,2c0.5,0.5,1.2,0.7,1.8,0.7c1.3,0,2.3-0.9,2.7-1.4v-7.6L867.9,752.7L867.9,752.7z"/>
	<path class="st1" d="M882.7,764.3h-3v-0.9c-1,0.8-2.1,1.2-3.2,1.2c-1.7,0-3.4-0.8-4.4-2c-0.9-1.1-1.5-2.5-1.5-4.1
		c0-3.4,2.5-6.1,5.7-6.1c1.3,0,2.5,0.4,3.4,1.2v-0.9h3V764.3z M879.5,756.8c-0.6-0.9-1.7-1.4-2.9-1.4c-1.8,0-3,1.5-3,3.2
		c0,1.8,1.3,3.2,3.1,3.2c1.2,0,2.2-0.6,2.8-1.4V756.8z"/>
	<path class="st1" d="M894.4,764.3v-0.9c-1,0.8-2.1,1.2-3.2,1.2c-1.7,0-3.4-0.8-4.4-2c-0.9-1.1-1.5-2.5-1.5-4.1
		c0-3.4,2.5-6.1,5.7-6.1c1.3,0,2.4,0.4,3.3,1.1v-6.2h3.1v17H894.4z M894.3,756.8c-0.6-0.9-1.7-1.4-2.9-1.4c-1.8,0-3,1.5-3,3.2
		c0,1.8,1.3,3.2,3.1,3.2c1.2,0,2.2-0.6,2.8-1.4V756.8z"/>
	<path class="st1" d="M912.2,764.3h-3v-0.9c-1,0.8-2.1,1.2-3.2,1.2c-1.7,0-3.4-0.8-4.4-2c-0.9-1.1-1.5-2.5-1.5-4.1
		c0-3.4,2.5-6.1,5.7-6.1c1.3,0,2.5,0.4,3.4,1.2v-0.9h3V764.3z M909.1,756.8c-0.6-0.9-1.7-1.4-2.9-1.4c-1.8,0-3,1.5-3,3.2
		c0,1.8,1.3,3.2,3.1,3.2c1.2,0,2.2-0.6,2.8-1.4V756.8z"/>
	<path class="st1" d="M916.1,760.8c0.8,0.7,2,1.2,3.2,1.2c0.8,0,1.5-0.4,1.5-1c0-1.8-5.6-1.1-5.6-4.9c0-2.2,2.2-3.6,4.5-3.6
		c1.5,0,3.2,0.6,3.9,1.2l-1.5,2.3c-0.6-0.4-1.4-0.8-2.2-0.8c-0.9,0-1.6,0.3-1.6,0.9c0,1.5,5.6,0.9,5.6,4.9c0,2.2-2.2,3.6-4.6,3.6
		c-1.6,0-3.3-0.6-4.7-1.6L916.1,760.8z"/>
</g>
<g class="st0">
	<path class="st1" d="M281.4,68.6l13.6-8h7.6v56h-10.8V73.1l-10.4,5.8L281.4,68.6L281.4,68.6z"/>
	<path class="st1" d="M314.6,72.8c2.4-7.7,9.4-13,17.7-13c9.6,0,17.9,7.2,17.9,17.3c0,6.8-3.4,11.8-7.2,16.1L331.1,107h19.5v9.6
		h-36.4v-6.4l19.7-22.3c4.3-4.9,5.5-8.1,5.5-11c0-3.9-3-7.5-7.3-7.5c-3.8,0-6.5,2.6-7.6,6.3L314.6,72.8z"/>
	<path class="st1" d="M392.2,60.6v33.6h9.2v9.6h-9.2v12.8h-10.8v-12.8h-26v-6.4l29.2-36.8L392.2,60.6L392.2,60.6z M381.4,94.2V81.1
		l-10.5,13.1H381.4z"/>
</g>
<g class="st0">
	<path class="st1" d="M846.4,60.6v33.6h9.2v9.6h-9.2v12.8h-10.8v-12.8h-26v-6.4l29.2-36.8L846.4,60.6L846.4,60.6z M835.6,94.2V81.1
		l-10.5,13.1H835.6z"/>
	<path class="st1" d="M881.2,59.8c14.3,0,19.6,12.9,19.6,28.8s-5.3,28.8-19.6,28.8s-19.6-12.9-19.6-28.8
		C861.6,72.7,866.9,59.8,881.2,59.8z M881.2,69.4c-6.5,0-8.8,8.6-8.8,19.2s2.3,19.2,8.8,19.2s8.8-8.6,8.8-19.2
		C890,78.1,887.7,69.4,881.2,69.4z"/>
</g>
<g class="st0">
	<path class="st1" d="M311.2,353.6l-10.6,17.8h0.7c10.6,0,19.6,8.1,19.6,19.3c0,10.9-9,19.7-19.9,19.7c-10.5,0-20.5-7.4-20.5-19.1
		c0-5.5,2.6-10.5,5.5-15.4l13.2-22.2h12V353.6z M291,391.3c0,5.3,4.5,9.5,9.9,9.5c5.5,0,9.4-4.4,9.4-9.8s-4-10-10-10
		c-2,0-3.9,0.4-6,1.4C292.8,384.5,291,387.6,291,391.3z"/>
	<path class="st1" d="M334,396.4c2.4,2.6,5.8,4.5,9.6,4.5c2.5,0,4.9-0.9,6.7-2.6c1.9-1.8,3.1-4.3,3.1-7.2c0-3-1.3-5.8-3.4-7.6
		c-1.8-1.5-4.2-2.2-6.8-2.2c-2.7,0-5.8,1-8.2,3l-6.7-1l3.6-29.7h29.6v9.6h-20.8l-0.9,8.8c1.1-0.2,2.8-0.4,4.3-0.4
		c4.3,0,9.1,1,13,4.2c4.4,3.5,7.1,9.2,7.1,15.2c0,11-9.4,19.4-20.6,19.4c-6.5,0-12.1-2.3-17-7.2L334,396.4z"/>
</g>
<g class="st0">
	<path class="st1" d="M812,392.3c0-6.6,3.4-11.1,8.1-14.2c-2.4-2.2-4.5-5.3-4.5-9.8c0-8.6,7-15.4,16.4-15.4s16.4,6.9,16.4,15.4
		c0,4.6-2.1,7.7-4.5,9.8c4.6,3,8.1,7.6,8.1,14.2c0,10.2-8.8,18.2-20,18.2S812,402.4,812,392.3z M841.2,392.3c0-4.8-3.9-8.6-9.2-8.6
		s-9.2,3.8-9.2,8.6s3.9,8.6,9.2,8.6S841.2,397.1,841.2,392.3z M837.6,368.3c0-3.2-2.2-5.8-5.6-5.8s-5.6,2.6-5.6,5.8s2.2,5.8,5.6,5.8
		C835.4,374,837.6,371.5,837.6,368.3z"/>
	<path class="st1" d="M858.4,361.6l13.6-8h7.6v56h-10.8v-43.5l-10.4,5.8L858.4,361.6L858.4,361.6z"/>
</g>
<g class="st0">
	<path class="st1" d="M286.8,677.2c2.3,3.3,6.2,5.6,10.4,5.6c5.3,0,10.5-4.2,10.5-10.2c0-5.8-4.8-10.2-11-10.2
		c-2.2,0-4.6,0.6-6.7,1.6v-6.4l10.5-12.4h-18.7v-9.6h34v6.4l-10.2,12.5c7.7,3,13,9.7,13,18.2c0,11.8-9.3,19.8-20.9,19.8
		c-7,0-13.6-3.1-18.6-8.7L286.8,677.2z"/>
	<path class="st1" d="M334.6,691.6l10.6-17.8h-0.7c-10.6,0-19.6-8.1-19.6-19.3c0-10.9,9-19.7,19.9-19.7c10.5,0,20.5,7.4,20.5,19.1
		c0,5.5-2.6,10.5-5.5,15.4l-13.2,22.2h-12V691.6z M354.8,654c0-5.3-4.5-9.5-9.9-9.5c-5.5,0-9.4,4.4-9.4,9.8s4,10,10,10
		c2,0,3.9-0.4,6-1.4C353,660.8,354.8,657.7,354.8,654z"/>
</g>
<g class="st0">
	<path class="st1" d="M811.6,657.8c2.4-7.7,9.4-13,17.7-13c9.6,0,17.9,7.2,17.9,17.3c0,6.8-3.4,11.8-7.2,16.1L828.1,692h19.5v9.6
		h-36.4v-6.4l19.7-22.3c4.3-4.9,5.5-8.1,5.5-11c0-3.9-3-7.5-7.3-7.5c-3.8,0-6.5,2.6-7.6,6.3L811.6,657.8z"/>
	<path class="st1" d="M855.2,657.8c2.4-7.7,9.4-13,17.7-13c9.6,0,17.9,7.2,17.9,17.3c0,6.8-3.4,11.8-7.2,16.1L871.7,692h19.5v9.6
		h-36.4v-6.4l19.7-22.3c4.3-4.9,5.5-8.1,5.5-11c0-3.9-3-7.5-7.3-7.5c-3.8,0-6.5,2.6-7.6,6.3L855.2,657.8z"/>
</g>
<g id="Grupo_2145" transform="translate(709 1867)">
	<path id="Trazado_2845" class="st2" d="M-585.1-1819.2L-585.1-1819.2v-47.3c-25.5,0-47.3,7.1-68,22.1l27.8,38.2
		C-613.6-1814.7-599.6-1819.2-585.1-1819.2z"/>
	<path id="Trazado_2846" class="st2" d="M-625.3-1806.2l-27.8-38.2c-20.7,15-34.1,33.5-42,57.8l45,14.6
		C-645.7-1785.7-637-1797.7-625.3-1806.2z"/>
	<path id="Trazado_2847" class="st2" d="M-653.5-1750.9c0-7.2,1.1-14.3,3.3-21.1l-45-14.6c-7.9,24.3-7.9,47.2,0,71.5l45-14.6
		C-652.3-1736.6-653.5-1743.7-653.5-1750.9z"/>
	<path id="Trazado_2848" class="st2" d="M-650.1-1729.7l-45,14.6c7.9,24.3,21.3,42.8,42,57.8l27.8-38.2
		C-637-1704.1-645.7-1716-650.1-1729.7z"/>
	<path id="Trazado_2849" class="st2" d="M-585.1-1682.5c-14.4,0-28.5-4.6-40.2-13.1l-27.8,38.2c20.7,15,42.4,22.1,68,22.1
		L-585.1-1682.5L-585.1-1682.5z"/>
	<path id="Trazado_2850" class="st2" d="M-585.1-1682.5v47.3c25.5,0,47.3-7.1,68-22.1l-27.8-38.3
		C-556.6-1687.1-570.7-1682.5-585.1-1682.5z"/>
	<path id="Trazado_2851" class="st2" d="M-544.9-1695.6l27.8,38.2c20.7-15,34.1-33.5,42-57.8l-45-14.6
		C-524.6-1716-533.3-1704.1-544.9-1695.6z"/>
	<path id="Trazado_2852" class="st2" d="M-475.1-1786.6l-45,14.6c2.2,6.8,3.3,14,3.3,21.1c0,7.2-1.1,14.3-3.3,21.1l45,14.6
		C-467.3-1739.4-467.3-1762.3-475.1-1786.6z"/>
	<path id="Trazado_2853" class="st2" d="M-520.1-1772l45-14.6c-7.9-24.3-21.3-42.8-42-57.8l-27.8,38.2
		C-533.3-1797.7-524.6-1785.7-520.1-1772z"/>
	<path id="Trazado_2854" class="st3" d="M-544.9-1806.2l27.8-38.2c-20.7-15-42.5-22.1-68-22.1v47.3
		C-570.7-1819.2-556.6-1814.7-544.9-1806.2z"/>
</g>
<g id="Grupo_2145_1_" transform="translate(709 1867)">
	<path id="Trazado_2845_1_" class="st4" d="M-585.1-1522.1L-585.1-1522.1v-47.3c-25.5,0-47.3,7.1-68,22.1l27.8,38.2
		C-613.6-1517.6-599.6-1522.1-585.1-1522.1z"/>
	<path id="Trazado_2846_1_" class="st4" d="M-625.3-1509.1l-27.8-38.2c-20.7,15-34.1,33.5-42,57.8l45,14.6
		C-645.7-1488.6-637-1500.6-625.3-1509.1z"/>
	<path id="Trazado_2847_1_" class="st4" d="M-653.5-1453.8c0-7.2,1.1-14.3,3.3-21.1l-45-14.6c-7.9,24.3-7.9,47.2,0,71.5l45-14.6
		C-652.3-1439.5-653.5-1446.6-653.5-1453.8z"/>
	<path id="Trazado_2848_1_" class="st4" d="M-650.1-1432.6l-45,14.6c7.9,24.3,21.3,42.8,42,57.8l27.8-38.2
		C-637-1407-645.7-1418.9-650.1-1432.6z"/>
	<path id="Trazado_2850_1_" class="st3" d="M-585.1-1385.4v47.3c25.5,0,47.3-7.1,68-22.1l-27.8-38.3
		C-556.6-1390-570.7-1385.4-585.1-1385.4z"/>
	<path id="Trazado_2851_1_" class="st3" d="M-544.9-1398.5l27.8,38.2c20.7-15,34.1-33.5,42-57.8l-45-14.6
		C-524.6-1418.9-533.3-1407-544.9-1398.5z"/>
	<path id="Trazado_2852_1_" class="st3" d="M-475.1-1489.5l-45,14.6c2.2,6.8,3.3,14,3.3,21.1c0,7.2-1.1,14.3-3.3,21.1l45,14.6
		C-467.3-1442.3-467.3-1465.2-475.1-1489.5z"/>
	<path id="Trazado_2853_1_" class="st3" d="M-520.1-1474.9l45-14.6c-7.9-24.3-21.3-42.8-42-57.8l-27.8,38.2
		C-533.3-1500.6-524.6-1488.6-520.1-1474.9z"/>
	<path id="Trazado_2854_1_" class="st3" d="M-544.9-1509.1l27.8-38.2c-20.7-15-42.5-22.1-68-22.1v47.3
		C-570.7-1522.1-556.6-1517.6-544.9-1509.1z"/>
</g>
<g id="Grupo_2141" transform="translate(709 2465)">
	<path id="Trazado_2845-2" class="st4" d="M-585.1-1819.2L-585.1-1819.2v-47.3c-25.5,0-47.3,7.1-68,22.1l27.8,38.2
		C-613.6-1814.7-599.6-1819.2-585.1-1819.2z"/>
	<path id="Trazado_2846-2" class="st4" d="M-625.3-1806.2l-27.8-38.2c-20.7,15-34.1,33.5-42,57.8l45,14.6
		C-645.7-1785.7-637-1797.7-625.3-1806.2z"/>
	<path id="Trazado_2847-2" class="st4" d="M-653.5-1750.9c0-7.2,1.1-14.3,3.3-21.1l-45-14.6c-7.9,24.3-7.9,47.2,0,71.5l45-14.6
		C-652.3-1736.6-653.5-1743.7-653.5-1750.9z"/>
	<path id="Trazado_2848-2" class="st3" d="M-650.1-1729.8l-45,14.6c7.9,24.3,21.3,42.8,42,57.8l27.8-38.2
		C-637-1704.1-645.7-1716-650.1-1729.8z"/>
	<path id="Trazado_2849-2" class="st3" d="M-585.1-1682.5c-14.4,0-28.5-4.6-40.2-13.1l-27.8,38.2c20.7,15,42.4,22.1,68,22.1
		L-585.1-1682.5L-585.1-1682.5z"/>
	<path id="Trazado_2850-2" class="st3" d="M-585.1-1682.5v47.3c25.5,0,47.3-7.1,68-22.1l-27.8-38.3
		C-556.6-1687.1-570.7-1682.5-585.1-1682.5z"/>
	<path id="Trazado_2851-2" class="st3" d="M-544.9-1695.6l27.8,38.2c20.7-15,34.1-33.5,42-57.8l-45-14.6
		C-524.6-1716-533.3-1704.1-544.9-1695.6z"/>
	<path id="Trazado_2852-2" class="st3" d="M-475.1-1786.6l-45,14.6c2.2,6.8,3.3,14,3.3,21.1c0,7.2-1.1,14.3-3.3,21.1l45,14.6
		C-467.3-1739.4-467.3-1762.3-475.1-1786.6z"/>
	<path id="Trazado_2853-2" class="st3" d="M-520.1-1772l45-14.6c-7.9-24.3-21.3-42.8-42-57.8l-27.8,38.2
		C-533.3-1797.7-524.6-1785.7-520.1-1772z"/>
	<path id="Trazado_2854-2" class="st3" d="M-544.9-1806.2l27.8-38.2c-20.7-15-42.5-22.1-68-22.1v47.3
		C-570.7-1819.2-556.6-1814.7-544.9-1806.2z"/>
</g>
<g id="Grupo_2144" transform="translate(1239 2465)">
	<path id="Trazado_2845-3" class="st5" d="M-585.1-1819.2L-585.1-1819.2v-47.3c-25.5,0-47.3,7.1-68,22.1l27.8,38.2
		C-613.6-1814.7-599.6-1819.2-585.1-1819.2z"/>
	<path id="Trazado_2846-3" class="st5" d="M-625.3-1806.2l-27.8-38.2c-20.7,15-34.1,33.5-42,57.8l45,14.6
		C-645.7-1785.7-637-1797.7-625.3-1806.2z"/>
	<path id="Trazado_2847-3" class="st3" d="M-653.5-1750.9c0-7.2,1.1-14.3,3.3-21.1l-45-14.6c-7.9,24.3-7.9,47.2,0,71.5l45-14.6
		C-652.3-1736.6-653.5-1743.7-653.5-1750.9z"/>
	<path id="Trazado_2848-3" class="st3" d="M-650.1-1729.7l-45,14.6c7.9,24.3,21.3,42.8,42,57.8l27.8-38.2
		C-637-1704.1-645.7-1716-650.1-1729.7z"/>
	<path id="Trazado_2849-3" class="st3" d="M-585.1-1682.5c-14.4,0-28.5-4.6-40.2-13.1l-27.8,38.2c20.7,15,42.4,22.1,68,22.1
		L-585.1-1682.5L-585.1-1682.5z"/>
	<path id="Trazado_2850-3" class="st3" d="M-585.1-1682.5v47.3c25.5,0,47.3-7.1,68-22.1l-27.8-38.3
		C-556.6-1687.1-570.7-1682.5-585.1-1682.5z"/>
	<path id="Trazado_2851-3" class="st3" d="M-544.9-1695.6l27.8,38.2c20.7-15,34.1-33.5,42-57.8l-45-14.6
		C-524.6-1716-533.3-1704.1-544.9-1695.6z"/>
	<path id="Trazado_2852-3" class="st3" d="M-475.1-1786.6l-45,14.6c2.2,6.8,3.3,14,3.3,21.1c0,7.2-1.1,14.3-3.3,21.1l45,14.6
		C-467.3-1739.4-467.3-1762.3-475.1-1786.6z"/>
	<path id="Trazado_2853-3" class="st3" d="M-520.1-1772l45-14.6c-7.9-24.3-21.3-42.8-42-57.8l-27.8,38.2
		C-533.3-1797.7-524.6-1785.7-520.1-1772z"/>
	<path id="Trazado_2854-3" class="st3" d="M-544.9-1806.2l27.8-38.2c-20.7-15-42.5-22.1-68-22.1v47.3
		C-570.7-1819.2-556.6-1814.7-544.9-1806.2z"/>
</g>
<g id="Grupo_2142" transform="translate(1239 1867)">
	<path id="Trazado_2845-4" class="st4" d="M-585.1-1819.2L-585.1-1819.2v-47.3c-25.5,0-47.3,7.1-68,22.1l27.8,38.2
		C-613.6-1814.7-599.6-1819.2-585.1-1819.2z"/>
	<path id="Trazado_2846-4" class="st4" d="M-625.3-1806.2l-27.8-38.2c-20.7,15-34.1,33.5-42,57.8l45,14.6
		C-645.7-1785.7-637-1797.7-625.3-1806.2z"/>
	<path id="Trazado_2847-4" class="st4" d="M-653.5-1750.9c0-7.2,1.1-14.3,3.3-21.1l-45-14.6c-7.9,24.3-7.9,47.2,0,71.5l45-14.6
		C-652.3-1736.6-653.5-1743.7-653.5-1750.9z"/>
	<path id="Trazado_2848-4" class="st3" d="M-650.1-1729.8l-45,14.6c7.9,24.3,21.3,42.8,42,57.8l27.8-38.2
		C-637-1704.1-645.7-1716-650.1-1729.8z"/>
	<path id="Trazado_2849-4" class="st3" d="M-585.1-1682.5c-14.4,0-28.5-4.6-40.2-13.1l-27.8,38.2c20.7,15,42.4,22.1,68,22.1
		L-585.1-1682.5L-585.1-1682.5z"/>
	<path id="Trazado_2850-4" class="st3" d="M-585.1-1682.5v47.3c25.5,0,47.3-7.1,68-22.1l-27.8-38.3
		C-556.6-1687.1-570.7-1682.5-585.1-1682.5z"/>
	<path id="Trazado_2851-4" class="st3" d="M-544.9-1695.6l27.8,38.2c20.7-15,34.1-33.5,42-57.8l-45-14.6
		C-524.6-1716-533.3-1704.1-544.9-1695.6z"/>
	<path id="Trazado_2852-4" class="st3" d="M-475.1-1786.6l-45,14.6c2.2,6.8,3.3,14,3.3,21.1c0,7.2-1.1,14.3-3.3,21.1l45,14.6
		C-467.3-1739.4-467.3-1762.3-475.1-1786.6z"/>
	<path id="Trazado_2853-4" class="st3" d="M-520.1-1772l45-14.6c-7.9-24.3-21.3-42.8-42-57.8l-27.8,38.2
		C-533.3-1797.7-524.6-1785.7-520.1-1772z"/>
	<path id="Trazado_2854-4" class="st3" d="M-544.9-1806.2l27.8-38.2c-20.7-15-42.5-22.1-68-22.1v47.3
		C-570.7-1819.2-556.6-1814.7-544.9-1806.2z"/>
</g>
<g id="Grupo_2143" transform="translate(1239 2163.858)">
	<path id="Trazado_2845-5" class="st6" d="M-585.1-1819.2L-585.1-1819.2v-47.3c-25.5,0-47.3,7.1-68,22.1l27.8,38.2
		C-613.6-1814.7-599.6-1819.2-585.1-1819.2z"/>
	<path id="Trazado_2846-5" class="st6" d="M-625.3-1806.2l-27.8-38.2c-20.7,15-34.1,33.5-42,57.8l45,14.6
		C-645.7-1785.7-637-1797.7-625.3-1806.2z"/>
	<path id="Trazado_2847-5" class="st6" d="M-653.5-1750.9c0-7.2,1.1-14.3,3.3-21.1l-45-14.6c-7.9,24.3-7.9,47.2,0,71.5l45-14.6
		C-652.3-1736.6-653.5-1743.7-653.5-1750.9z"/>
	<path id="Trazado_2848-5" class="st6" d="M-650.1-1729.7l-45,14.6c7.9,24.3,21.3,42.8,42,57.8l27.8-38.2
		C-637-1704.1-645.7-1716-650.1-1729.7z"/>
	<path id="Trazado_2849-5" class="st6" d="M-585.1-1682.5c-14.4,0-28.5-4.6-40.2-13.1l-27.8,38.2c20.7,15,42.4,22.1,68,22.1
		L-585.1-1682.5L-585.1-1682.5z"/>
	<path id="Trazado_2850-5" class="st6" d="M-585.1-1682.5v47.3c25.5,0,47.3-7.1,68-22.1l-27.8-38.3
		C-556.6-1687.1-570.7-1682.5-585.1-1682.5z"/>
	<path id="Trazado_2851-5" class="st6" d="M-544.9-1695.6l27.8,38.2c20.7-15,34.1-33.5,42-57.8l-45-14.6
		C-524.6-1716-533.3-1704.1-544.9-1695.6z"/>
	<path id="Trazado_2852-5" class="st3" d="M-475.1-1786.6l-45,14.6c2.2,6.8,3.3,14,3.3,21.1c0,7.2-1.1,14.3-3.3,21.1l45,14.6
		C-467.3-1739.4-467.3-1762.3-475.1-1786.6z"/>
	<path id="Trazado_2853-5" class="st3" d="M-520.1-1772l45-14.6c-7.9-24.3-21.3-42.8-42-57.8l-27.8,38.2
		C-533.3-1797.7-524.6-1785.7-520.1-1772z"/>
	<path id="Trazado_2854-5" class="st3" d="M-544.9-1806.2l27.8-38.2c-20.7-15-42.5-22.1-68-22.1v47.3
		C-570.7-1819.2-556.6-1814.7-544.9-1806.2z"/>
</g>
<line id="Línea_529" class="st7" x1="123.5" y1="239" x2="123.5" y2="288"/>
<line id="Línea_532" class="st7" x1="653.9" y1="239" x2="653.9" y2="288"/>
<line id="Línea_530" class="st7" x1="123.5" y1="538" x2="123.5" y2="587"/>
<line id="Línea_531" class="st7" x1="653.9" y1="538" x2="653.9" y2="587"/>
<path class="st4" d="M135.2,528.4l-5.2-47.1c-2,0.2-4.1,0.3-6.1,0.3c-14.4,0-28.5-4.6-40.2-13.1l-27.8,38.2
	c20.7,15,42.4,22.1,68,22.1v0.1C127.7,528.9,131.5,528.7,135.2,528.4z"/>
</svg>
