<?xml version="1.0" encoding="utf-8"?>
<!-- Generator: Adobe Illustrator 25.2.0, SVG Export Plug-In . SVG Version: 6.00 Build 0)  -->
<svg version="1.1" id="Capa_1" xmlns="http://www.w3.org/2000/svg" xmlns:xlink="http://www.w3.org/1999/xlink" x="0px" y="0px"
	 viewBox="0 0 1417.1 570.9" style="enable-background:new 0 0 1417.1 570.9;" xml:space="preserve">
<style type="text/css">
	.st0{fill:none;stroke:#989898;stroke-linecap:round;}
	.st1{enable-background:new    ;}
	.st2{fill:#333333;}
	.st3{fill:#100000;}
	.st4{fill:#FC9574;}
	.st5{fill:#FF7043;}
	.st6{fill:#FED3C6;}
	.st7{fill:#FDB9A3;}
	.st8{fill:none;stroke:#717171;stroke-width:4;}
</style>
<g id="Grupo_2158" transform="translate(-223 -924.117)">
	<line id="Línea_164" class="st0" x1="346.9" y1="964.5" x2="1639.6" y2="964.5"/>
	<line id="Línea_168" class="st0" x1="346.9" y1="1159.8" x2="1639.6" y2="1159.8"/>
	<g class="st1">
		<path class="st2" d="M297.7,969.4c0.6,0.8,1.5,1.4,2.6,1.4c1.3,0,2.6-1,2.6-2.5c0-1.5-1.2-2.6-2.8-2.6c-0.6,0-1.2,0.1-1.7,0.4
			v-1.6l2.6-3.1h-4.7V959h8.5v1.6l-2.5,3.1c1.9,0.7,3.2,2.4,3.2,4.5c0,3-2.3,4.9-5.2,4.9c-1.7,0-3.4-0.8-4.6-2.2L297.7,969.4z"/>
		<path class="st2" d="M307.2,959h9.2v1.6l-6,12.4h-2.9l5.7-11.6h-6V959z"/>
	</g>
	<g class="st1">
		<path class="st2" d="M278.8,1159l3.4-2h1.9v14h-2.7v-10.9l-2.6,1.4V1159z"/>
		<path class="st2" d="M287.2,1166.7c0-1.6,0.9-2.8,2-3.5c-0.6-0.5-1.1-1.3-1.1-2.5c0-2.1,1.7-3.9,4.1-3.9c2.4,0,4.1,1.7,4.1,3.9
			c0,1.1-0.5,1.9-1.1,2.5c1.2,0.8,2,1.9,2,3.5c0,2.5-2.2,4.5-5,4.5C289.4,1171.2,287.2,1169.2,287.2,1166.7z M294.5,1166.7
			c0-1.2-1-2.2-2.3-2.2s-2.3,1-2.3,2.2s1,2.1,2.3,2.1S294.5,1167.9,294.5,1166.7z M293.6,1160.7c0-0.8-0.6-1.5-1.4-1.5
			c-0.8,0-1.4,0.7-1.4,1.5c0,0.8,0.6,1.4,1.4,1.4C293,1162.1,293.6,1161.5,293.6,1160.7z"/>
		<path class="st2" d="M303.5,1167.9l-2.4,5.9h-1.9l1.5-5.9H303.5z"/>
		<path class="st2" d="M308.3,1167.7c0.6,0.6,1.5,1.1,2.4,1.1c0.6,0,1.2-0.2,1.7-0.6c0.5-0.4,0.8-1.1,0.8-1.8c0-0.8-0.3-1.4-0.9-1.9
			c-0.4-0.4-1-0.6-1.7-0.6c-0.7,0-1.5,0.3-2.1,0.8l-1.7-0.2l0.9-7.4h7.4v2.4H310l-0.2,2.2c0.3-0.1,0.7-0.1,1.1-0.1
			c1.1,0,2.3,0.3,3.3,1.1c1.1,0.9,1.8,2.3,1.8,3.8c0,2.8-2.3,4.8-5.2,4.8c-1.6,0-3-0.6-4.2-1.8L308.3,1167.7z"/>
	</g>
	<g class="st1">
		<path class="st2" d="M311,1343.8c3.6,0,4.9,3.2,4.9,7.2c0,4-1.3,7.2-4.9,7.2c-3.6,0-4.9-3.2-4.9-7.2
			C306.1,1347,307.4,1343.8,311,1343.8z M311,1346.2c-1.6,0-2.2,2.2-2.2,4.8c0,2.6,0.6,4.8,2.2,4.8c1.6,0,2.2-2.2,2.2-4.8
			C313.2,1348.4,312.6,1346.2,311,1346.2z"/>
	</g>
	<g class="st1">
		<path class="st3" d="M226.8,1316.9c0-2,0.8-3.9,2.2-5.1l1.3,1.3c-0.9,0.8-1.6,2.3-1.6,3.8c0,2.9,2.3,5.1,5.3,5.1
			c3.2,0,5.3-2.3,5.3-5.3c0-1.9-1-3.2-2-4l1.3-1.4c1.5,1.2,2.6,3.3,2.6,5.4c0,4.2-3.1,7.3-7.2,7.3
			C230,1324,226.8,1320.9,226.8,1316.9z"/>
		<path class="st3" d="M237.4,1301v5.9l3.6,1.5v2.1l-14-5.8v-1.4l14-5.8v2.1L237.4,1301z M235.5,1306.1v-4.3l-5.2,2.2L235.5,1306.1z
			"/>
		<path class="st3" d="M230.7,1293.6H241v2h-14v-1.4l10.3-8.4H227v-2h14v1.4L230.7,1293.6z"/>
		<path class="st3" d="M227,1281.7v-9.6h1.9v3.8H241v2h-12.1v3.8H227z"/>
		<path class="st3" d="M227,1270v-2h14v2H227z"/>
		<path class="st3" d="M241,1264.4h-14v-4.2c0-2.2,0.5-3.7,1.3-4.8c1.3-1.7,3.4-2.8,5.7-2.8c2.3,0,4.4,1.1,5.7,2.8
			c0.8,1.1,1.3,2.6,1.3,4.8V1264.4z M230.1,1256.3c-0.8,0.9-1.2,2-1.2,4v2.1h10.2v-2.1c0-2-0.4-3.1-1.2-4c-0.9-1.1-2.4-1.7-3.9-1.7
			C232.4,1254.6,231,1255.2,230.1,1256.3z"/>
		<path class="st3" d="M237.4,1242.6v5.9l3.6,1.5v2.1l-14-5.8v-1.4l14-5.8v2.1L237.4,1242.6z M235.5,1247.7v-4.3l-5.2,2.2
			L235.5,1247.7z"/>
		<path class="st3" d="M241,1237.2h-14v-4.2c0-2.2,0.5-3.7,1.3-4.8c1.3-1.7,3.4-2.8,5.7-2.8c2.3,0,4.4,1.1,5.7,2.8
			c0.8,1.1,1.3,2.6,1.3,4.8V1237.2z M230.1,1229.1c-0.8,0.9-1.2,2-1.2,4v2.1h10.2v-2.1c0-2-0.4-3.1-1.2-4c-0.9-1.1-2.4-1.7-3.9-1.7
			C232.4,1227.4,231,1228,230.1,1229.1z"/>
		<path class="st3" d="M241,1217.5h-14v-4.2c0-2.2,0.5-3.7,1.3-4.8c1.3-1.7,3.4-2.8,5.7-2.8c2.3,0,4.4,1.1,5.7,2.8
			c0.8,1.1,1.3,2.6,1.3,4.8V1217.5z M230.1,1209.4c-0.8,0.9-1.2,2-1.2,4v2.1h10.2v-2.1c0-2-0.4-3.1-1.2-4c-0.9-1.1-2.4-1.7-3.9-1.7
			C232.4,1207.7,231,1208.3,230.1,1209.4z"/>
		<path class="st3" d="M232.5,1196.6h1.9v4.6h4.7v-6.2h1.9v8.2h-14v-8h1.9v6h3.6V1196.6z"/>
		<path class="st3" d="M237.5,1187.2c1-0.8,1.8-2,1.8-3.4c0-1.3-0.8-2.4-2.1-2.4c-2.1,0-2.4,3-3.6,4.8c-0.7,1-1.6,1.8-3.1,1.8
			c-2,0-3.7-1.8-3.7-4.2c0-1.8,0.8-3,1.4-3.8l1.5,1.2c-0.6,0.8-1,1.6-1,2.5c0,1.2,0.7,2.3,1.9,2.3c1.8,0,2.2-3,3.4-4.8
			c0.6-0.9,1.6-1.8,3.2-1.8c2.5,0,4.1,1.9,4.1,4.3c0,1.9-0.8,3.7-2.3,4.9L237.5,1187.2z"/>
		<path class="st3" d="M232.5,1170.1h1.9v4.6h4.7v-6.2h1.9v8.2h-14v-8h1.9v6h3.6V1170.1z"/>
		<path class="st3" d="M234.4,1163.9h6.6v2h-14v-4.9c0-1.3,0.3-2.1,0.8-2.7c0.7-0.8,1.7-1.4,2.9-1.4c1.2,0,2.2,0.5,2.9,1.4
			c0.4,0.4,0.6,0.9,0.7,1.6l6.7-5v2.4l-6.6,5V1163.9z M232.5,1161.1c0-0.9-0.2-1.4-0.5-1.7c-0.3-0.3-0.8-0.5-1.3-0.5
			c-0.5,0-1,0.2-1.3,0.5c-0.3,0.3-0.5,0.8-0.5,1.7v2.8h3.6V1161.1z"/>
		<path class="st3" d="M241,1148.4v1.4l-14,5.5v-2.1l10.6-4.1L227,1145v-2.1L241,1148.4z"/>
		<path class="st3" d="M227,1140.9v-2h14v2H227z"/>
		<path class="st3" d="M226.8,1129.4c0-2,0.8-3.9,2.2-5.1l1.3,1.3c-0.9,0.8-1.6,2.3-1.6,3.8c0,2.9,2.3,5.1,5.3,5.1
			c3.2,0,5.3-2.3,5.3-5.3c0-1.9-1-3.2-2-4l1.3-1.4c1.5,1.2,2.6,3.3,2.6,5.4c0,4.2-3.1,7.3-7.2,7.3
			C230,1136.4,226.8,1133.4,226.8,1129.4z"/>
		<path class="st3" d="M227,1121.5v-2h14v2H227z"/>
		<path class="st3" d="M226.8,1110c0-4,3.1-7,7.2-7c4.1,0,7.2,3,7.2,7s-3.1,7-7.2,7C229.9,1117,226.8,1114,226.8,1110z M239.3,1110
			c0-2.9-2.3-5-5.3-5c-3,0-5.3,2.1-5.3,5c0,2.9,2.3,5,5.3,5C237,1115,239.3,1112.9,239.3,1110z"/>
		<path class="st3" d="M237.5,1100.5c1-0.8,1.8-2,1.8-3.4c0-1.3-0.8-2.4-2.1-2.4c-2.1,0-2.4,3-3.6,4.8c-0.7,1-1.6,1.8-3.1,1.8
			c-2,0-3.7-1.8-3.7-4.2c0-1.8,0.8-3,1.4-3.8l1.5,1.2c-0.6,0.8-1,1.6-1,2.5c0,1.2,0.7,2.3,1.9,2.3c1.8,0,2.2-3,3.4-4.8
			c0.6-0.9,1.6-1.8,3.2-1.8c2.5,0,4.1,1.9,4.1,4.3c0,1.9-0.8,3.7-2.3,4.9L237.5,1100.5z"/>
		<path class="st3" d="M234.8,1082.6h6.2v2h-14v-5.3c0-1.4,0.3-2.2,0.9-2.9c0.7-0.8,1.8-1.4,3-1.4s2.3,0.5,3,1.4
			c0.6,0.7,0.9,1.6,0.9,2.9V1082.6z M232.9,1079.4c0-1-0.2-1.5-0.6-1.8c-0.4-0.3-0.8-0.6-1.4-0.6s-1,0.2-1.4,0.6
			c-0.4,0.4-0.6,0.9-0.6,1.8v3.2h4V1079.4z"/>
		<path class="st3" d="M226,1067.7l-3-1.3v-2.1l3,2.1V1067.7z M239.4,1071.3c-1,0.9-2.3,1.5-4.2,1.5H227v-2h8.3
			c1.3,0,2.1-0.3,2.8-0.9c0.8-0.7,1.2-1.7,1.2-2.9c0-1.2-0.5-2.2-1.2-2.9c-0.6-0.6-1.4-0.9-2.8-0.9H227v-2h8.2
			c1.9,0,3.2,0.6,4.2,1.5c1.1,1.1,1.8,2.6,1.8,4.3C241.2,1068.7,240.5,1070.3,239.4,1071.3z"/>
		<path class="st3" d="M241,1057.8h-14v-4.8c0-1.4,0.4-2.2,1-2.9c0.7-0.7,1.6-1.2,2.7-1.2c1,0,1.9,0.4,2.5,1.1
			c0.7-1.3,2.1-2.3,3.7-2.3c1.3,0,2.5,0.6,3.2,1.5c0.6,0.7,0.9,1.6,0.9,3.1V1057.8z M232.5,1053.4c0-1.1-0.2-1.6-0.6-1.9
			c-0.3-0.3-0.7-0.5-1.2-0.5c-0.5,0-0.9,0.2-1.2,0.5c-0.4,0.3-0.6,0.8-0.6,1.9v2.4h3.6V1053.4z M239.1,1052.8c0-1.3-0.3-1.9-0.7-2.3
			c-0.4-0.4-1-0.7-1.6-0.7c-0.6,0-1.2,0.3-1.6,0.7c-0.4,0.4-0.7,1-0.7,2.3v3h4.7V1052.8z"/>
		<path class="st3" d="M239.1,1043.3v-6.2h1.9v8.2h-14v-2H239.1z"/>
		<path class="st3" d="M227,1034.9v-2h14v2H227z"/>
		<path class="st3" d="M226.8,1023.3c0-2,0.8-3.9,2.2-5.1l1.3,1.3c-0.9,0.8-1.6,2.3-1.6,3.8c0,2.9,2.3,5.1,5.3,5.1
			c3.2,0,5.3-2.3,5.3-5.3c0-1.9-1-3.2-2-4l1.3-1.4c1.5,1.2,2.6,3.3,2.6,5.4c0,4.2-3.1,7.3-7.2,7.3
			C230,1030.4,226.8,1027.4,226.8,1023.3z"/>
		<path class="st3" d="M226.8,1009.8c0-4,3.1-7,7.2-7c4.1,0,7.2,3,7.2,7c0,4-3.1,7-7.2,7C229.9,1016.8,226.8,1013.8,226.8,1009.8z
			 M239.3,1009.8c0-2.9-2.3-5-5.3-5c-3,0-5.3,2.1-5.3,5c0,2.9,2.3,5,5.3,5C237,1014.8,239.3,1012.7,239.3,1009.8z"/>
		<path class="st3" d="M237.5,1000.2c1-0.8,1.8-2,1.8-3.4c0-1.3-0.8-2.4-2.1-2.4c-2.1,0-2.4,3-3.6,4.8c-0.7,1-1.6,1.8-3.1,1.8
			c-2,0-3.7-1.8-3.7-4.2c0-1.8,0.8-3,1.4-3.8l1.5,1.2c-0.6,0.8-1,1.6-1,2.5c0,1.2,0.7,2.3,1.9,2.3c1.8,0,2.2-3,3.4-4.8
			c0.6-0.9,1.6-1.8,3.2-1.8c2.5,0,4.1,1.9,4.1,4.3c0,1.9-0.8,3.7-2.3,4.9L237.5,1000.2z"/>
	</g>
	<g class="st1">
		<path class="st3" d="M849.1,1465.4v6.6h-2v-14h4.9c1.3,0,2.1,0.3,2.7,0.8c0.8,0.7,1.4,1.7,1.4,2.9c0,1.2-0.5,2.2-1.4,2.9
			c-0.4,0.4-0.9,0.6-1.6,0.7l5,6.7h-2.4l-5-6.6H849.1z M851.9,1463.5c0.9,0,1.4-0.2,1.7-0.5c0.3-0.3,0.5-0.8,0.5-1.3
			c0-0.5-0.2-1-0.5-1.3c-0.3-0.3-0.8-0.5-1.7-0.5h-2.8v3.6H851.9z"/>
		<path class="st3" d="M868,1468.4h-5.9l-1.5,3.6h-2.1l5.8-14h1.4l5.8,14h-2.1L868,1468.4z M862.9,1466.5h4.3l-2.2-5.2L862.9,1466.5
			z"/>
		<path class="st3" d="M875.4,1461.7v10.3h-2v-14h1.4l8.4,10.3V1458h2v14h-1.4L875.4,1461.7z"/>
		<path class="st3" d="M900.4,1469.6c-1.2,1.5-3.3,2.6-5.4,2.6c-4.2,0-7.3-3.1-7.3-7.2c0-4,3-7.2,7.1-7.2c2,0,3.9,0.8,5.1,2.2
			l-1.3,1.3c-0.8-0.9-2.3-1.6-3.8-1.6c-2.9,0-5.1,2.3-5.1,5.3c0,3.2,2.3,5.3,5.3,5.3c1.5,0,2.7-0.6,3.4-1.3v-3.6h-4v-1.9h6V1469.6z"
			/>
		<path class="st3" d="M909.6,1457.8c4,0,7,3.1,7,7.2c0,4.1-3,7.2-7,7.2s-7-3.1-7-7.2C902.6,1460.9,905.7,1457.8,909.6,1457.8z
			 M909.6,1470.3c2.9,0,5-2.3,5-5.3c0-3-2.1-5.3-5-5.3c-2.9,0-5,2.3-5,5.3C904.6,1468,906.8,1470.3,909.6,1470.3z"/>
		<path class="st3" d="M926.5,1465.8v6.2h-2v-14h5.3c1.4,0,2.2,0.3,2.9,0.9c0.8,0.7,1.4,1.8,1.4,3s-0.5,2.3-1.4,3
			c-0.7,0.6-1.6,0.9-2.9,0.9H926.5z M929.7,1463.9c1,0,1.5-0.2,1.8-0.6c0.3-0.4,0.6-0.8,0.6-1.4s-0.2-1-0.6-1.4
			c-0.4-0.4-0.9-0.6-1.8-0.6h-3.2v4H929.7z"/>
		<path class="st3" d="M937.8,1470.4c-0.9-1-1.5-2.3-1.5-4.2v-8.2h2v8.3c0,1.3,0.3,2.1,0.9,2.8c0.7,0.8,1.7,1.2,2.9,1.2
			s2.2-0.5,2.9-1.2c0.6-0.6,0.9-1.4,0.9-2.8v-8.3h2v8.2c0,1.9-0.6,3.2-1.5,4.2c-1.1,1.1-2.6,1.8-4.3,1.8S938.8,1471.5,937.8,1470.4z
			"/>
		<path class="st3" d="M953.3,1461.7v10.3h-2v-14h1.4l8.4,10.3V1458h2v14h-1.4L953.3,1461.7z"/>
		<path class="st3" d="M965.2,1458h9.6v1.9H971v12.1h-2v-12.1h-3.8V1458z"/>
		<path class="st3" d="M983.5,1468.4h-5.9l-1.5,3.6H974l5.8-14h1.4l5.8,14H985L983.5,1468.4z M978.4,1466.5h4.3l-2.2-5.2
			L978.4,1466.5z"/>
		<path class="st3" d="M988.9,1469.2c0.3,0.7,1,1.1,1.9,1.1c0.6,0,1.2-0.3,1.6-0.8c0.2-0.3,0.4-0.7,0.4-1.6v-9.9h2v9.8
			c0,1.1-0.2,1.8-0.5,2.4c-0.7,1.2-2,2-3.5,2c-1.6,0-3-0.8-3.6-2.3L988.9,1469.2z"/>
		<path class="st3" d="M1004.7,1463.5v1.9h-4.6v4.7h6.2v1.9h-8.2v-14h8v1.9h-6v3.6H1004.7z"/>
		<path class="st3" d="M1009.1,1468.5c0.8,1,2,1.8,3.4,1.8c1.3,0,2.4-0.8,2.4-2.1c0-2.1-3-2.4-4.8-3.6c-1-0.7-1.8-1.6-1.8-3.1
			c0-2,1.8-3.7,4.2-3.7c1.8,0,3,0.8,3.8,1.4l-1.2,1.5c-0.8-0.6-1.6-1-2.5-1c-1.2,0-2.3,0.7-2.3,1.9c0,1.8,3,2.2,4.8,3.4
			c0.9,0.6,1.8,1.6,1.8,3.2c0,2.5-1.9,4.1-4.3,4.1c-1.9,0-3.7-0.8-4.9-2.3L1009.1,1468.5z"/>
		<path class="st3" d="M1025,1458h2v14h-2V1458z M1025.2,1457l1.3-3h2.1l-2.1,3H1025.2z"/>
		<path class="st3" d="M1032.6,1461.7v10.3h-2v-14h1.4l8.4,10.3V1458h2v14h-1.4L1032.6,1461.7z"/>
		<path class="st3" d="M1046,1472v-14h4.2c2.2,0,3.7,0.5,4.8,1.3c1.7,1.3,2.8,3.4,2.8,5.7c0,2.3-1.1,4.4-2.8,5.7
			c-1.1,0.8-2.6,1.3-4.8,1.3H1046z M1054.1,1461.1c-0.9-0.8-2-1.2-4-1.2h-2.1v10.2h2.1c2,0,3.1-0.4,4-1.2c1.1-0.9,1.7-2.4,1.7-3.9
			C1055.8,1463.4,1055.1,1462,1054.1,1461.1z"/>
		<path class="st3" d="M1060.3,1458h2v14h-2V1458z"/>
		<path class="st3" d="M1071.8,1457.8c2,0,3.9,0.8,5.1,2.2l-1.3,1.3c-0.8-0.9-2.3-1.6-3.8-1.6c-2.9,0-5.1,2.3-5.1,5.3
			c0,3.2,2.3,5.3,5.3,5.3c1.9,0,3.2-1,4-2l1.4,1.3c-1.2,1.5-3.3,2.6-5.4,2.6c-4.2,0-7.3-3.1-7.3-7.2
			C1064.8,1461,1067.8,1457.8,1071.8,1457.8z"/>
		<path class="st3" d="M1086.3,1463.5v1.9h-4.6v4.7h6.2v1.9h-8.2v-14h8v1.9h-6v3.6H1086.3z"/>
	</g>
	<rect id="Rectángulo_617" x="765" y="1226" class="st4" width="155" height="129"/>
	<rect id="Rectángulo_626" x="481" y="1165" class="st5" width="155" height="189"/>
	<g class="st1">
		<path class="st2" d="M463.3,1397l6.4-10.5h2.4v17.5h-3.4v-9.7l-4.2,6.9h-2.3l-4.2-6.9v9.7h-3.4v-17.5h2.4L463.3,1397z"/>
		<path class="st2" d="M486.2,1402.1c-1.2,1.4-3.1,2.2-5,2.2c-3.6,0-6.3-2.5-6.3-6.3c0-3.4,2.3-6.3,5.9-6.3c3.3,0,5.7,2.8,5.7,6.2
			c0,0.3,0,0.7-0.1,0.9h-8.4c0.2,1.7,1.5,2.9,3.3,2.9c1.4,0,2.5-0.8,3-1.4L486.2,1402.1z M483.2,1396.4c-0.1-1.1-1.1-2.1-2.4-2.1
			c-1.3,0-2.4,1-2.6,2.1H483.2z"/>
		<path class="st2" d="M489.3,1404v-12.1h3.1v1c0.9-0.8,2.1-1.2,3.4-1.2c1.7,0,3.2,0.8,4.2,1.9c0.8,1,1.2,2.2,1.2,4.2v6.2H498v-6.4
			c0-1.2-0.3-1.8-0.7-2.3c-0.4-0.4-1.1-0.7-1.8-0.7c-1.4,0-2.5,0.9-2.9,1.5v7.9H489.3z"/>
		<path class="st2" d="M510.2,1391.6c3.7,0,6.4,2.8,6.4,6.3s-2.8,6.3-6.4,6.3c-3.7,0-6.4-2.8-6.4-6.3S506.6,1391.6,510.2,1391.6z
			 M510.2,1401.3c1.9,0,3.2-1.5,3.2-3.3c0-1.8-1.3-3.3-3.2-3.3s-3.2,1.5-3.2,3.3C507,1399.8,508.3,1401.3,510.2,1401.3z"/>
		<path class="st2" d="M519.8,1400.3c0.8,0.8,2.1,1.2,3.3,1.2c0.9,0,1.5-0.4,1.5-1c0-1.8-5.9-1.2-5.9-5.1c0-2.3,2.2-3.8,4.6-3.8
			c1.6,0,3.3,0.6,4.1,1.2l-1.5,2.3c-0.6-0.5-1.4-0.8-2.3-0.8c-0.9,0-1.6,0.4-1.6,1c0,1.6,5.9,0.9,5.9,5.1c0,2.3-2.3,3.7-4.8,3.7
			c-1.7,0-3.4-0.6-4.9-1.6L519.8,1400.3z"/>
		<path class="st2" d="M546.2,1404v-1c-1,0.8-2.1,1.2-3.4,1.2c-1.8,0-3.5-0.8-4.6-2c-0.9-1.1-1.5-2.6-1.5-4.2c0-3.6,2.6-6.3,5.9-6.3
			c1.3,0,2.5,0.4,3.4,1.1v-6.5h3.2v17.7H546.2z M546.1,1396.1c-0.7-0.9-1.7-1.5-3-1.5c-1.9,0-3.1,1.6-3.1,3.3c0,1.9,1.4,3.3,3.2,3.3
			c1.2,0,2.3-0.6,2.9-1.5V1396.1z"/>
		<path class="st2" d="M563.4,1402.1c-1.2,1.4-3.1,2.2-5,2.2c-3.6,0-6.3-2.5-6.3-6.3c0-3.4,2.3-6.3,5.9-6.3c3.3,0,5.7,2.8,5.7,6.2
			c0,0.3,0,0.7-0.1,0.9h-8.4c0.2,1.7,1.5,2.9,3.3,2.9c1.4,0,2.5-0.8,3-1.4L563.4,1402.1z M560.4,1396.4c-0.1-1.1-1.1-2.1-2.4-2.1
			c-1.3,0-2.4,1-2.6,2.1H560.4z"/>
		<path class="st2" d="M571.9,1390.3c0.8-2.4,2.9-4,5.5-4c3,0,5.6,2.2,5.6,5.4c0,2.1-1.1,3.7-2.2,5l-3.7,4.3h6.1v3h-11.4v-2l6.1-7
			c1.3-1.5,1.7-2.5,1.7-3.4c0-1.2-1-2.3-2.3-2.3c-1.2,0-2,0.8-2.4,2L571.9,1390.3z"/>
		<path class="st2" d="M587.5,1399.9c0.7,0.8,1.8,1.4,3,1.4c0.8,0,1.5-0.3,2.1-0.8c0.6-0.5,1-1.3,1-2.2c0-0.9-0.4-1.8-1.1-2.4
			c-0.5-0.5-1.3-0.7-2.1-0.7c-0.8,0-1.8,0.3-2.6,1l-2.1-0.3l1.1-9.3h9.2v3h-6.5l-0.3,2.7c0.4-0.1,0.9-0.1,1.3-0.1
			c1.3,0,2.8,0.3,4.1,1.3c1.4,1.1,2.2,2.9,2.2,4.7c0,3.4-2.9,6-6.4,6c-2,0-3.8-0.7-5.3-2.2L587.5,1399.9z"/>
		<path class="st2" d="M606.9,1391.9h3.1v1c0.9-0.8,2.2-1.2,3.5-1.2c3.3,0,5.9,2.7,5.9,6.3c0,1.7-0.6,3.1-1.5,4.2
			c-1.1,1.2-2.8,2-4.6,2c-1.2,0-2.3-0.3-3.2-1.1v6.8h-3.2V1391.9z M610.2,1399.8c0.6,0.9,1.7,1.5,2.9,1.5c1.8,0,3.2-1.4,3.2-3.3
			c0-1.7-1.2-3.3-3.1-3.3c-1.2,0-2.3,0.6-3,1.5V1399.8z"/>
		<path class="st2" d="M631.2,1404c-0.4,0.2-1.4,0.2-2,0.2c-1.9,0-3.4-0.7-4.2-1.8c-0.6-0.8-0.9-1.9-0.9-3.6v-4.2h-3.4v-2.7h3.4
			v-3.4h3.2v3.4h4v2.7h-4v4.6c0,0.8,0.1,1.2,0.4,1.5c0.3,0.4,0.9,0.6,1.6,0.6c0.5,0,1.1-0.1,1.3-0.1L631.2,1404z"/>
		<path class="st2" d="M634.8,1400.3c0.8,0.8,2.1,1.2,3.3,1.2c0.9,0,1.5-0.4,1.5-1c0-1.8-5.9-1.2-5.9-5.1c0-2.3,2.2-3.8,4.6-3.8
			c1.6,0,3.3,0.6,4.1,1.2l-1.5,2.3c-0.6-0.5-1.4-0.8-2.3-0.8c-0.9,0-1.6,0.4-1.6,1c0,1.6,5.9,0.9,5.9,5.1c0,2.3-2.3,3.7-4.8,3.7
			c-1.7,0-3.4-0.6-4.9-1.6L634.8,1400.3z"/>
		<path class="st2" d="M649,1399.9c1.2,0,2.2,1,2.2,2.2s-1,2.2-2.2,2.2s-2.2-1-2.2-2.2S647.8,1399.9,649,1399.9z"/>
	</g>
	<g class="st1">
		<path class="st2" d="M743.8,1389.5v3.6h5.4v3h-5.4v4.9h7.4v3h-10.7v-17.5h10.5v3H743.8z"/>
		<path class="st2" d="M754,1404v-12.1h3.1v1c0.9-0.8,2.1-1.2,3.4-1.2c1.7,0,3.2,0.8,4.2,1.9c0.8,1,1.2,2.2,1.2,4.2v6.2h-3.2v-6.4
			c0-1.2-0.3-1.8-0.7-2.3c-0.4-0.4-1.1-0.7-1.8-0.7c-1.4,0-2.5,0.9-2.9,1.5v7.9H754z"/>
		<path class="st2" d="M778.1,1404c-0.4,0.2-1.4,0.2-2,0.2c-1.9,0-3.4-0.7-4.2-1.8c-0.6-0.8-0.9-1.9-0.9-3.6v-4.2h-3.4v-2.7h3.4
			v-3.4h3.2v3.4h4v2.7h-4v4.6c0,0.8,0.1,1.2,0.4,1.5c0.3,0.4,0.9,0.6,1.6,0.6c0.5,0,1.1-0.1,1.3-0.1L778.1,1404z"/>
		<path class="st2" d="M788.8,1394.8c-0.2-0.1-0.7-0.1-1.2-0.1c-1.4,0-2.5,1-2.9,1.8v7.6h-3.2v-12.1h3.1v1.2c0.7-0.9,2-1.5,3.5-1.5
			c0.5,0,0.8,0,1.1,0.1L788.8,1394.8z"/>
		<path class="st2" d="M801.6,1402.1c-1.2,1.4-3.1,2.2-5,2.2c-3.6,0-6.3-2.5-6.3-6.3c0-3.4,2.3-6.3,5.9-6.3c3.3,0,5.7,2.8,5.7,6.2
			c0,0.3,0,0.7-0.1,0.9h-8.4c0.2,1.7,1.5,2.9,3.3,2.9c1.4,0,2.5-0.8,3-1.4L801.6,1402.1z M798.6,1396.4c-0.1-1.1-1.1-2.1-2.4-2.1
			c-1.3,0-2.4,1-2.6,2.1H798.6z"/>
		<path class="st2" d="M810.1,1390.3c0.8-2.4,2.9-4,5.5-4c3,0,5.6,2.2,5.6,5.4c0,2.1-1.1,3.7-2.2,5l-3.7,4.3h6.1v3H810v-2l6.1-7
			c1.3-1.5,1.7-2.5,1.7-3.4c0-1.2-1-2.3-2.3-2.3c-1.2,0-2,0.8-2.4,2L810.1,1390.3z"/>
		<path class="st2" d="M825.7,1399.9c0.7,0.8,1.8,1.4,3,1.4c0.8,0,1.5-0.3,2.1-0.8c0.6-0.5,1-1.3,1-2.2c0-0.9-0.4-1.8-1.1-2.4
			c-0.5-0.5-1.3-0.7-2.1-0.7c-0.8,0-1.8,0.3-2.6,1l-2.1-0.3l1.1-9.3h9.2v3h-6.5l-0.3,2.7c0.4-0.1,0.9-0.1,1.3-0.1
			c1.3,0,2.8,0.3,4.1,1.3c1.4,1.1,2.2,2.9,2.2,4.7c0,3.4-2.9,6-6.4,6c-2,0-3.8-0.7-5.3-2.2L825.7,1399.9z"/>
		<path class="st2" d="M845.1,1410l3.3-7.2l-5.4-10.9h3.6l3.5,7.3l3.3-7.3h3.4l-8.3,18.1H845.1z"/>
		<path class="st2" d="M866.6,1399.9c0.7,0.8,1.8,1.4,3,1.4c0.8,0,1.5-0.3,2.1-0.8c0.6-0.5,1-1.3,1-2.2c0-0.9-0.4-1.8-1.1-2.4
			c-0.5-0.5-1.3-0.7-2.1-0.7c-0.8,0-1.8,0.3-2.6,1l-2.1-0.3l1.1-9.3h9.2v3h-6.5l-0.3,2.7c0.4-0.1,0.9-0.1,1.3-0.1
			c1.4,0,2.8,0.3,4.1,1.3c1.4,1.1,2.2,2.9,2.2,4.7c0,3.4-2.9,6-6.4,6c-2,0-3.8-0.7-5.3-2.2L866.6,1399.9z"/>
		<path class="st2" d="M885,1386.3c4.5,0,6.1,4,6.1,9s-1.6,9-6.1,9c-4.5,0-6.1-4-6.1-9S880.5,1386.3,885,1386.3z M885,1389.3
			c-2,0-2.7,2.7-2.7,6c0,3.3,0.7,6,2.7,6s2.7-2.7,2.7-6C887.7,1392,887,1389.3,885,1389.3z"/>
		<path class="st2" d="M901.1,1391.9h3.1v1c0.9-0.8,2.2-1.2,3.5-1.2c3.3,0,5.9,2.7,5.9,6.3c0,1.7-0.6,3.1-1.5,4.2
			c-1.1,1.2-2.8,2-4.6,2c-1.2,0-2.3-0.3-3.2-1.1v6.8h-3.2V1391.9z M904.3,1399.8c0.6,0.9,1.7,1.5,2.9,1.5c1.8,0,3.2-1.4,3.2-3.3
			c0-1.7-1.2-3.3-3.1-3.3c-1.2,0-2.3,0.6-3,1.5V1399.8z"/>
		<path class="st2" d="M925.3,1404c-0.4,0.2-1.4,0.2-2,0.2c-1.9,0-3.4-0.7-4.2-1.8c-0.6-0.8-0.9-1.9-0.9-3.6v-4.2h-3.4v-2.7h3.4
			v-3.4h3.2v3.4h4v2.7h-4v4.6c0,0.8,0.1,1.2,0.4,1.5c0.3,0.4,0.9,0.6,1.6,0.6c0.5,0,1.1-0.1,1.3-0.1L925.3,1404z"/>
		<path class="st2" d="M929,1400.3c0.8,0.8,2.1,1.2,3.3,1.2c0.9,0,1.5-0.4,1.5-1c0-1.8-5.9-1.2-5.9-5.1c0-2.3,2.2-3.8,4.6-3.8
			c1.6,0,3.3,0.6,4.1,1.2l-1.5,2.3c-0.6-0.5-1.5-0.8-2.3-0.8c-0.9,0-1.6,0.4-1.6,1c0,1.6,5.9,0.9,5.9,5.1c0,2.3-2.3,3.7-4.8,3.7
			c-1.7,0-3.4-0.6-4.9-1.6L929,1400.3z"/>
		<path class="st2" d="M943.1,1399.9c1.2,0,2.2,1,2.2,2.2s-1,2.2-2.2,2.2s-2.2-1-2.2-2.2S941.9,1399.9,943.1,1399.9z"/>
	</g>
	<g class="st1">
		<path class="st2" d="M1033.6,1389.5v3.6h5.4v3h-5.4v4.9h7.4v3h-10.7v-17.5h10.5v3H1033.6z"/>
		<path class="st2" d="M1043.9,1404v-12.1h3.1v1c0.9-0.8,2.1-1.2,3.4-1.2c1.7,0,3.2,0.8,4.2,1.9c0.8,1,1.2,2.2,1.2,4.2v6.2h-3.2
			v-6.4c0-1.2-0.3-1.8-0.7-2.3c-0.4-0.4-1.1-0.7-1.8-0.7c-1.4,0-2.5,0.9-2.9,1.5v7.9H1043.9z"/>
		<path class="st2" d="M1068,1404c-0.4,0.2-1.4,0.2-2,0.2c-1.9,0-3.4-0.7-4.2-1.8c-0.6-0.8-0.9-1.9-0.9-3.6v-4.2h-3.4v-2.7h3.4v-3.4
			h3.2v3.4h4v2.7h-4v4.6c0,0.8,0.1,1.2,0.4,1.5c0.3,0.4,0.9,0.6,1.7,0.6c0.5,0,1.1-0.1,1.3-0.1L1068,1404z"/>
		<path class="st2" d="M1078.6,1394.8c-0.2-0.1-0.7-0.1-1.2-0.1c-1.4,0-2.5,1-2.9,1.8v7.6h-3.2v-12.1h3.1v1.2c0.7-0.9,2-1.5,3.5-1.5
			c0.5,0,0.8,0,1.1,0.1L1078.6,1394.8z"/>
		<path class="st2" d="M1091.5,1402.1c-1.2,1.4-3.1,2.2-5,2.2c-3.6,0-6.3-2.5-6.3-6.3c0-3.4,2.3-6.3,5.9-6.3c3.3,0,5.7,2.8,5.7,6.2
			c0,0.3,0,0.7-0.1,0.9h-8.4c0.2,1.7,1.5,2.9,3.3,2.9c1.4,0,2.5-0.8,3-1.4L1091.5,1402.1z M1088.4,1396.4c-0.1-1.1-1.1-2.1-2.4-2.1
			c-1.3,0-2.4,1-2.6,2.1H1088.4z"/>
		<path class="st2" d="M1102.7,1399.9c0.8,0.8,1.8,1.4,3,1.4c0.8,0,1.5-0.3,2.1-0.8c0.6-0.5,1-1.3,1-2.2c0-0.9-0.4-1.8-1.1-2.4
			c-0.5-0.5-1.3-0.7-2.1-0.7c-0.8,0-1.8,0.3-2.6,1l-2.1-0.3l1.1-9.3h9.2v3h-6.5l-0.3,2.7c0.3-0.1,0.9-0.1,1.3-0.1
			c1.3,0,2.8,0.3,4.1,1.3c1.4,1.1,2.2,2.9,2.2,4.7c0,3.4-2.9,6-6.4,6c-2,0-3.8-0.7-5.3-2.2L1102.7,1399.9z"/>
		<path class="st2" d="M1121,1386.3c4.5,0,6.1,4,6.1,9s-1.6,9-6.1,9c-4.5,0-6.1-4-6.1-9S1116.5,1386.3,1121,1386.3z M1121,1389.3
			c-2,0-2.7,2.7-2.7,6c0,3.3,0.7,6,2.7,6s2.8-2.7,2.8-6C1123.8,1392,1123,1389.3,1121,1389.3z"/>
		<path class="st2" d="M1137.1,1410l3.3-7.2l-5.4-10.9h3.6l3.5,7.3l3.3-7.3h3.4l-8.3,18.1H1137.1z"/>
		<path class="st2" d="M1156.5,1386.5h11.5v2l-7.5,15.5h-3.6l7.1-14.5h-7.5V1386.5z"/>
		<path class="st2" d="M1171.8,1399.9c0.8,0.8,1.8,1.4,3,1.4c0.8,0,1.5-0.3,2.1-0.8c0.6-0.5,1-1.3,1-2.2c0-0.9-0.4-1.8-1.1-2.4
			c-0.5-0.5-1.3-0.7-2.1-0.7c-0.8,0-1.8,0.3-2.6,1l-2.1-0.3l1.1-9.3h9.2v3h-6.5l-0.3,2.7c0.3-0.1,0.9-0.1,1.3-0.1
			c1.3,0,2.8,0.3,4.1,1.3c1.4,1.1,2.2,2.9,2.2,4.7c0,3.4-2.9,6-6.4,6c-2,0-3.8-0.7-5.3-2.2L1171.8,1399.9z"/>
		<path class="st2" d="M1191.2,1391.9h3.1v1c1-0.8,2.2-1.2,3.5-1.2c3.3,0,5.9,2.7,5.9,6.3c0,1.7-0.6,3.1-1.5,4.2
			c-1.1,1.2-2.8,2-4.6,2c-1.2,0-2.3-0.3-3.2-1.1v6.8h-3.2V1391.9z M1194.5,1399.8c0.6,0.9,1.7,1.5,2.9,1.5c1.8,0,3.2-1.4,3.2-3.3
			c0-1.7-1.2-3.3-3.1-3.3c-1.2,0-2.3,0.6-3,1.5V1399.8z"/>
		<path class="st2" d="M1215.5,1404c-0.4,0.2-1.4,0.2-2,0.2c-1.9,0-3.4-0.7-4.2-1.8c-0.6-0.8-0.9-1.9-0.9-3.6v-4.2h-3.4v-2.7h3.4
			v-3.4h3.2v3.4h4v2.7h-4v4.6c0,0.8,0.1,1.2,0.4,1.5c0.3,0.4,0.9,0.6,1.7,0.6c0.5,0,1.1-0.1,1.3-0.1L1215.5,1404z"/>
		<path class="st2" d="M1219.1,1400.3c0.8,0.8,2.1,1.2,3.3,1.2c0.9,0,1.5-0.4,1.5-1c0-1.8-5.9-1.2-5.9-5.1c0-2.3,2.2-3.8,4.6-3.8
			c1.6,0,3.3,0.6,4.1,1.2l-1.5,2.3c-0.6-0.5-1.4-0.8-2.3-0.8c-0.9,0-1.6,0.4-1.6,1c0,1.6,5.9,0.9,5.9,5.1c0,2.3-2.3,3.7-4.8,3.7
			c-1.7,0-3.4-0.6-4.9-1.6L1219.1,1400.3z"/>
		<path class="st2" d="M1233.3,1399.9c1.2,0,2.2,1,2.2,2.2s-1,2.2-2.2,2.2s-2.2-1-2.2-2.2S1232,1399.9,1233.3,1399.9z"/>
	</g>
	<rect id="Rectángulo_620" x="1332" y="1344" class="st6" width="155" height="10"/>
	<rect id="Rectángulo_625" x="1051" y="1290" class="st7" width="155" height="64"/>
	<line id="Línea_441" class="st8" x1="1639.6" y1="1355.4" x2="337.5" y2="1355.4"/>
	<g class="st1">
		<path class="st2" d="M540.3,1134l5.1-3h2.9v21h-4v-16.3l-3.9,2.2V1134z"/>
		<path class="st2" d="M552.9,1145.5c0-2.5,1.3-4.2,3-5.3c-0.9-0.8-1.7-2-1.7-3.7c0-3.2,2.6-5.8,6.1-5.8c3.5,0,6.1,2.6,6.1,5.8
			c0,1.7-0.8,2.9-1.7,3.7c1.7,1.1,3,2.8,3,5.3c0,3.8-3.3,6.8-7.5,6.8C556.2,1152.3,552.9,1149.3,552.9,1145.5z M563.8,1145.5
			c0-1.8-1.5-3.2-3.5-3.2s-3.4,1.4-3.4,3.2s1.5,3.2,3.4,3.2S563.8,1147.3,563.8,1145.5z M562.5,1136.5c0-1.2-0.8-2.2-2.1-2.2
			c-1.3,0-2.1,1-2.1,2.2c0,1.2,0.8,2.2,2.1,2.2C561.6,1138.7,562.5,1137.7,562.5,1136.5z"/>
	</g>
	<g class="st1">
		<path class="st2" d="M827.1,1194l5.1-3h2.9v21h-4v-16.3l-3.9,2.2V1194z"/>
		<path class="st2" d="M839.5,1195.6c0.9-2.9,3.5-4.9,6.6-4.9c3.6,0,6.7,2.7,6.7,6.5c0,2.5-1.3,4.4-2.7,6l-4.5,5.2h7.3v3.6h-13.6
			v-2.4l7.4-8.4c1.6-1.8,2.1-3,2.1-4.1c0-1.5-1.1-2.8-2.7-2.8c-1.4,0-2.4,1-2.8,2.4L839.5,1195.6z"/>
	</g>
	<g class="st1">
		<path class="st2" d="M1130,1258l-4,6.7h0.3c4,0,7.3,3,7.3,7.2c0,4.1-3.4,7.4-7.5,7.4c-3.9,0-7.7-2.8-7.7-7.2c0-2.1,1-3.9,2.1-5.8
			l4.9-8.3H1130z M1122.4,1272.1c0,2,1.7,3.6,3.7,3.6c2.1,0,3.5-1.7,3.5-3.7s-1.5-3.8-3.7-3.8c-0.8,0-1.5,0.2-2.2,0.5
			C1123.1,1269.6,1122.4,1270.7,1122.4,1272.1z"/>
	</g>
	<g class="st1">
		<path class="st2" d="M1401.3,1311l5.1-3h2.8v21h-4v-16.3l-3.9,2.2V1311z"/>
	</g>
	<g class="st1">
		<path class="st2" d="M1313.5,1389.5v3.6h5.4v3h-5.4v4.9h7.4v3h-10.7v-17.5h10.5v3H1313.5z"/>
		<path class="st2" d="M1323.8,1404v-12.1h3.1v1c0.9-0.8,2.1-1.2,3.4-1.2c1.7,0,3.2,0.8,4.2,1.9c0.8,1,1.2,2.2,1.2,4.2v6.2h-3.2
			v-6.4c0-1.2-0.3-1.8-0.7-2.3c-0.4-0.4-1.1-0.7-1.8-0.7c-1.4,0-2.5,0.9-2.9,1.5v7.9H1323.8z"/>
		<path class="st2" d="M1347.9,1404c-0.4,0.2-1.4,0.2-2,0.2c-1.9,0-3.4-0.7-4.2-1.8c-0.6-0.8-0.9-1.9-0.9-3.6v-4.2h-3.4v-2.7h3.4
			v-3.4h3.2v3.4h4v2.7h-4v4.6c0,0.8,0.1,1.2,0.4,1.5c0.3,0.4,0.9,0.6,1.7,0.6c0.5,0,1.1-0.1,1.3-0.1L1347.9,1404z"/>
		<path class="st2" d="M1358.5,1394.8c-0.2-0.1-0.7-0.1-1.2-0.1c-1.4,0-2.5,1-2.9,1.8v7.6h-3.2v-12.1h3.1v1.2c0.7-0.9,2-1.5,3.5-1.5
			c0.5,0,0.8,0,1.1,0.1L1358.5,1394.8z"/>
		<path class="st2" d="M1371.3,1402.1c-1.2,1.4-3.1,2.2-5,2.2c-3.6,0-6.3-2.5-6.3-6.3c0-3.4,2.3-6.3,5.9-6.3c3.3,0,5.7,2.8,5.7,6.2
			c0,0.3,0,0.7-0.1,0.9h-8.4c0.2,1.7,1.5,2.9,3.3,2.9c1.4,0,2.5-0.8,3-1.4L1371.3,1402.1z M1368.3,1396.4c-0.1-1.1-1.1-2.1-2.4-2.1
			c-1.3,0-2.4,1-2.6,2.1H1368.3z"/>
		<path class="st2" d="M1380.4,1386.5h11.5v2l-7.5,15.5h-3.6l7.1-14.5h-7.5V1386.5z"/>
		<path class="st2" d="M1395.7,1399.9c0.7,0.8,1.8,1.4,3,1.4c0.8,0,1.5-0.3,2.1-0.8c0.6-0.5,1-1.3,1-2.2c0-0.9-0.4-1.8-1.1-2.4
			c-0.5-0.5-1.3-0.7-2.1-0.7c-0.8,0-1.8,0.3-2.6,1l-2.1-0.3l1.1-9.3h9.2v3h-6.5l-0.3,2.7c0.4-0.1,0.9-0.1,1.3-0.1
			c1.4,0,2.8,0.3,4.1,1.3c1.4,1.1,2.2,2.9,2.2,4.7c0,3.4-2.9,6-6.4,6c-2,0-3.8-0.7-5.3-2.2L1395.7,1399.9z"/>
		<path class="st2" d="M1415.1,1410l3.3-7.2l-5.4-10.9h3.6l3.5,7.3l3.3-7.3h3.4l-8.3,18.1H1415.1z"/>
		<path class="st2" d="M1433.5,1389l4.2-2.5h2.4v17.5h-3.4v-13.6l-3.2,1.8V1389z"/>
		<path class="st2" d="M1450.2,1386.3c4.5,0,6.1,4,6.1,9s-1.6,9-6.1,9s-6.1-4-6.1-9S1445.7,1386.3,1450.2,1386.3z M1450.2,1389.3
			c-2,0-2.7,2.7-2.7,6c0,3.3,0.7,6,2.7,6s2.7-2.7,2.7-6C1453,1392,1452.2,1389.3,1450.2,1389.3z"/>
		<path class="st2" d="M1465.2,1386.3c4.5,0,6.1,4,6.1,9s-1.6,9-6.1,9s-6.1-4-6.1-9S1460.7,1386.3,1465.2,1386.3z M1465.2,1389.3
			c-2,0-2.7,2.7-2.7,6c0,3.3,0.7,6,2.7,6s2.7-2.7,2.7-6C1468,1392,1467.2,1389.3,1465.2,1389.3z"/>
		<path class="st2" d="M1481.3,1391.9h3.1v1c1-0.8,2.2-1.2,3.5-1.2c3.3,0,5.9,2.7,5.9,6.3c0,1.7-0.6,3.1-1.5,4.2
			c-1.1,1.2-2.8,2-4.6,2c-1.2,0-2.3-0.3-3.2-1.1v6.8h-3.2V1391.9z M1484.6,1399.8c0.6,0.9,1.7,1.5,2.9,1.5c1.8,0,3.2-1.4,3.2-3.3
			c0-1.7-1.2-3.3-3.1-3.3c-1.2,0-2.3,0.6-3,1.5V1399.8z"/>
		<path class="st2" d="M1505.6,1404c-0.4,0.2-1.4,0.2-2,0.2c-1.9,0-3.4-0.7-4.2-1.8c-0.6-0.8-0.9-1.9-0.9-3.6v-4.2h-3.4v-2.7h3.4
			v-3.4h3.2v3.4h4v2.7h-4v4.6c0,0.8,0.1,1.2,0.4,1.5c0.3,0.4,0.8,0.6,1.6,0.6c0.5,0,1.1-0.1,1.3-0.1L1505.6,1404z"/>
		<path class="st2" d="M1509.2,1400.3c0.8,0.8,2.1,1.2,3.3,1.2c0.9,0,1.5-0.4,1.5-1c0-1.8-5.9-1.2-5.9-5.1c0-2.3,2.2-3.8,4.6-3.8
			c1.6,0,3.3,0.6,4.1,1.2l-1.5,2.3c-0.6-0.5-1.4-0.8-2.3-0.8c-0.9,0-1.6,0.4-1.6,1c0,1.6,5.9,0.9,5.9,5.1c0,2.3-2.3,3.7-4.8,3.7
			c-1.7,0-3.4-0.6-4.9-1.6L1509.2,1400.3z"/>
		<path class="st2" d="M1523.4,1399.9c1.2,0,2.2,1,2.2,2.2s-1,2.2-2.2,2.2s-2.2-1-2.2-2.2S1522.2,1399.9,1523.4,1399.9z"/>
	</g>
</g>
</svg>
