<svg xmlns="http://www.w3.org/2000/svg" width="225.852" height="448.881" viewBox="0 0 225.852 448.881">
  <g id="Grupo_2433" data-name="Grupo 2433" transform="translate(-84.781 -3464.119)">
    <line id="Línea_508" data-name="Línea 508" x2="62" transform="translate(89 3905.234)" fill="none" stroke="#ff7043" stroke-linecap="square" stroke-width="3" stroke-dasharray="6 8"/>
    <g id="Trazado_2768" data-name="Trazado 2768" transform="translate(127.633 3853)" fill="#333" style="mix-blend-mode: multiply;isolation: isolate">
      <path d="M 15 28.5 C 11.39402008056641 28.5 8.003870010375977 27.09575080871582 5.454060077667236 24.54594039916992 C 2.904249906539917 21.99612998962402 1.5 18.60597991943359 1.5 15 C 1.5 11.39402008056641 2.904249906539917 8.003870010375977 5.454060077667236 5.454060077667236 C 8.003870010375977 2.904249906539917 11.39402008056641 1.5 15 1.5 C 18.60597991943359 1.5 21.99612998962402 2.904249906539917 24.54594039916992 5.454060077667236 C 27.09575080871582 8.003870010375977 28.5 11.39402008056641 28.5 15 C 28.5 18.60597991943359 27.09575080871582 21.99612998962402 24.54594039916992 24.54594039916992 C 21.99612998962402 27.09575080871582 18.60597991943359 28.5 15 28.5 Z" stroke="none"/>
      <path d="M 15 3 C 11.79467964172363 3 8.781219482421875 4.248220443725586 6.514720916748047 6.514720916748047 C 4.248220443725586 8.781219482421875 3 11.79467964172363 3 15 C 3 18.20532035827637 4.248220443725586 21.21878051757813 6.514720916748047 23.48527908325195 C 8.781219482421875 25.75177955627441 11.79467964172363 27 15 27 C 18.20532035827637 27 21.21878051757813 25.75177955627441 23.48527908325195 23.48527908325195 C 25.75177955627441 21.21878051757813 27 18.20532035827637 27 15 C 27 11.79467964172363 25.75177955627441 8.781219482421875 23.48527908325195 6.514720916748047 C 21.21878051757813 4.248220443725586 18.20532035827637 3 15 3 M 15 0 C 23.28426933288574 0 30 6.715730667114258 30 15 C 30 23.28426933288574 23.28426933288574 30 15 30 C 6.715730667114258 30 0 23.28426933288574 0 15 C 0 6.715730667114258 6.715730667114258 0 15 0 Z" stroke="none" fill="#fff"/>
    </g>
    <text id="Promedio_por_categoría" data-name="Promedio por categoría" transform="translate(163.633 3909)" fill="#aaa" font-size="14" font-family="SegoeUI, Segoe UI"><tspan x="0" y="0">Promedio por categoría</tspan></text>
    <text id="Servicios_públicos" data-name="Servicios públicos" transform="translate(163.633 3873)" fill="#aaa" font-size="14" font-family="SegoeUI, Segoe UI"><tspan x="0" y="0">Servicios públicos</tspan></text>
    <path id="Trazado_2884" data-name="Trazado 2884" d="M45.5,179.5H199.974" transform="translate(105.684 3427.828)" fill="none" stroke="#989898" stroke-miterlimit="10" stroke-width="1"/>
    <g id="Grupo_2361" data-name="Grupo 2361" transform="translate(213.383 3720.443)">
      <path id="Trazado_2815" data-name="Trazado 2815" d="M453.989,311.452a7.257,7.257,0,1,1-7.257-7.257A7.257,7.257,0,0,1,453.989,311.452Z" transform="translate(-439.475 -304.195)" fill="#333"/>
    </g>
    <g id="Grupo_2362" data-name="Grupo 2362" transform="translate(213.383 3714.039)">
      <path id="Trazado_2816" data-name="Trazado 2816" d="M453.989,304.393a7.257,7.257,0,1,1-7.257-7.257A7.257,7.257,0,0,1,453.989,304.393Z" transform="translate(-439.475 -297.136)" fill="#333"/>
    </g>
    <g id="Grupo_2363" data-name="Grupo 2363" transform="translate(213.383 3690.654)">
      <path id="Trazado_2817" data-name="Trazado 2817" d="M453.989,278.613a7.257,7.257,0,1,1-7.257-7.257A7.257,7.257,0,0,1,453.989,278.613Z" transform="translate(-439.475 -271.356)" fill="#333"/>
    </g>
    <g id="Grupo_2364" data-name="Grupo 2364" transform="translate(213.383 3689.818)">
      <path id="Trazado_2818" data-name="Trazado 2818" d="M453.989,277.693a7.257,7.257,0,1,1-7.257-7.257A7.257,7.257,0,0,1,453.989,277.693Z" transform="translate(-439.475 -270.436)" fill="#333"/>
    </g>
    <g id="Grupo_2365" data-name="Grupo 2365" transform="translate(213.383 3688.148)">
      <path id="Trazado_2819" data-name="Trazado 2819" d="M453.989,275.851a7.257,7.257,0,1,1-7.257-7.257A7.257,7.257,0,0,1,453.989,275.851Z" transform="translate(-439.475 -268.594)" fill="#333"/>
    </g>
    <g id="Grupo_2366" data-name="Grupo 2366" transform="translate(213.383 3682.58)">
      <path id="Trazado_2820" data-name="Trazado 2820" d="M453.989,269.713a7.257,7.257,0,1,1-7.257-7.257A7.257,7.257,0,0,1,453.989,269.713Z" transform="translate(-439.475 -262.456)" fill="#333"/>
    </g>
    <g id="Grupo_2367" data-name="Grupo 2367" transform="translate(213.383 3678.127)">
      <path id="Trazado_2821" data-name="Trazado 2821" d="M453.989,264.8a7.257,7.257,0,1,1-7.257-7.257A7.257,7.257,0,0,1,453.989,264.8Z" transform="translate(-439.475 -257.546)" fill="#333"/>
    </g>
    <g id="Grupo_2368" data-name="Grupo 2368" transform="translate(213.383 3666.711)">
      <path id="Trazado_2822" data-name="Trazado 2822" d="M453.989,252.22a7.257,7.257,0,1,1-7.257-7.257A7.257,7.257,0,0,1,453.989,252.22Z" transform="translate(-439.475 -244.963)" fill="#333"/>
    </g>
    <g id="Grupo_2369" data-name="Grupo 2369" transform="translate(213.383 3659.475)">
      <path id="Trazado_2823" data-name="Trazado 2823" d="M453.989,244.241a7.257,7.257,0,1,1-7.257-7.257A7.257,7.257,0,0,1,453.989,244.241Z" transform="translate(-439.475 -236.984)" fill="#333"/>
    </g>
    <g id="Grupo_2370" data-name="Grupo 2370" transform="translate(213.383 3658.082)">
      <path id="Trazado_2824" data-name="Trazado 2824" d="M453.989,242.706a7.257,7.257,0,1,1-7.257-7.257A7.257,7.257,0,0,1,453.989,242.706Z" transform="translate(-439.475 -235.449)" fill="#333"/>
    </g>
    <g id="Grupo_2371" data-name="Grupo 2371" transform="translate(213.383 3653.35)">
      <path id="Trazado_2825" data-name="Trazado 2825" d="M453.989,237.489a7.257,7.257,0,1,1-7.257-7.257A7.257,7.257,0,0,1,453.989,237.489Z" transform="translate(-439.475 -230.232)" fill="#333"/>
    </g>
    <g id="Grupo_2372" data-name="Grupo 2372" transform="translate(213.383 3644.162)">
      <path id="Trazado_2826" data-name="Trazado 2826" d="M453.989,227.361a7.257,7.257,0,1,1-7.257-7.257A7.257,7.257,0,0,1,453.989,227.361Z" transform="translate(-439.475 -220.104)" fill="#333"/>
    </g>
    <g id="Grupo_2373" data-name="Grupo 2373" transform="translate(213.383 3640.82)">
      <path id="Trazado_2827" data-name="Trazado 2827" d="M453.989,223.678a7.257,7.257,0,1,1-7.257-7.257A7.257,7.257,0,0,1,453.989,223.678Z" transform="translate(-439.475 -216.421)" fill="#333"/>
    </g>
    <g id="Grupo_2374" data-name="Grupo 2374" transform="translate(213.383 3599.34)">
      <path id="Trazado_2828" data-name="Trazado 2828" d="M453.989,177.95a7.257,7.257,0,1,1-7.257-7.257A7.257,7.257,0,0,1,453.989,177.95Z" transform="translate(-439.475 -170.693)" fill="#333"/>
    </g>
    <g id="Grupo_2375" data-name="Grupo 2375" transform="translate(213.383 3583.471)">
      <path id="Trazado_2829" data-name="Trazado 2829" d="M453.989,160.457a7.257,7.257,0,1,1-7.257-7.257A7.257,7.257,0,0,1,453.989,160.457Z" transform="translate(-439.475 -153.2)" fill="#333"/>
    </g>
    <text id="_26_7" data-name="26,7" transform="translate(234.262 3649.217)" fill="#ff7043" font-size="20" font-family="SegoeUI-Bold, Segoe UI" font-weight="700"><tspan x="0" y="22">26,7</tspan></text>
    <path id="Trazado_2889" data-name="Trazado 2889" d="M30,0H88.617" transform="translate(161.734 3671.959)" fill="none" stroke="#ff7043" stroke-linecap="square" stroke-width="2" stroke-dasharray="6 6"/>
    <path id="Trazado_2888" data-name="Trazado 2888" d="M45.5,332.5H199.974" transform="translate(105.684 3413.619)" fill="none" stroke="#717171" stroke-miterlimit="10" stroke-width="4"/>
    <path id="Trazado_2886" data-name="Trazado 2886" d="M45.5,255.5H199.974" transform="translate(105.684 3420.771)" fill="none" stroke="#989898" stroke-miterlimit="10" stroke-width="1"/>
    <path id="Trazado_2882" data-name="Trazado 2882" d="M45.5,102.5H199.974" transform="translate(105.684 3434.98)" fill="none" stroke="#989898" stroke-miterlimit="10" stroke-width="1"/>
    <path id="Trazado_2883" data-name="Trazado 2883" d="M45.5,26.681H199.974" transform="translate(105.684 3442.021)" fill="none" stroke="#989898" stroke-miterlimit="10" stroke-width="1"/>
    <text id="nuevas_15_" data-name="nuevas (15)" transform="translate(188.266 3763.393)" fill="#333" font-size="14" font-family="SegoeUI-Bold, Segoe UI" font-weight="700"><tspan x="7.804" y="15">NUEVAS </tspan></text>
    <text id="mediana:_25_92_Desv._Est:_13_6" data-name="mediana: 25,92
Desv. Est: 13,6" transform="translate(177.232 3810.838)" fill="#6d6a6a" font-size="10" font-family="SegoeUI, Segoe UI"><tspan x="9.602" y="11">MEDIANA: 25,92</tspan><tspan x="12.288" y="28">DESV. EST: 13,6</tspan></text>
    <text id="_100" data-name="100" transform="translate(102.377 3464.932)" fill="#333" font-size="18" font-family="SegoeUI-Bold, Segoe UI" font-weight="700"><tspan x="3.796" y="19">100</tspan></text>
    <text id="_75" data-name="75" transform="translate(102.377 3533.381)" fill="#333" font-size="18" font-family="SegoeUI-Bold, Segoe UI" font-weight="700"><tspan x="17.946" y="19">75</tspan></text>
    <text id="_50_" data-name="50
" transform="translate(102.377 3604.014)" fill="#333" font-size="18" font-family="SegoeUI-Bold, Segoe UI" font-weight="700"><tspan x="17.946" y="19">50</tspan></text>
    <text id="_25" data-name="25" transform="translate(102.377 3674.645)" fill="#333" font-size="18" font-family="SegoeUI-Bold, Segoe UI" font-weight="700"><tspan x="17.946" y="19">25</tspan></text>
    <text id="_0" data-name="0" transform="translate(102.377 3739.936)" fill="#333" font-size="18" font-family="SegoeUI-Bold, Segoe UI" font-weight="700"><tspan x="28.3" y="19">0</tspan></text>
    <text id="puntaje_total_índice" data-name="puntaje total índice" transform="translate(84.781 3746.119) rotate(-90)" fill="#100000" font-size="12" font-family="SegoeUI, Segoe UI"><tspan x="78.095" y="13">PUNTAJE TOTAL ÍNDICE</tspan></text>
  </g>
</svg>
