<?xml version="1.0" encoding="utf-8"?>
<!-- Generator: Adobe Illustrator 25.2.0, SVG Export Plug-In . SVG Version: 6.00 Build 0)  -->
<svg version="1.1" id="Capa_1" xmlns="http://www.w3.org/2000/svg" xmlns:xlink="http://www.w3.org/1999/xlink" x="0px" y="0px"
	 viewBox="0 0 248.9 470.7" style="enable-background:new 0 0 248.9 470.7;" xml:space="preserve">
<style type="text/css">
	.st0{fill:none;stroke:#FF7043;stroke-width:3;stroke-linecap:square;stroke-dasharray:6,8;}
	.st1{fill:#333333;}
	.st2{fill:#FFFFFF;}
	.st3{enable-background:new    ;}
	.st4{fill:#AAAAAA;}
	.st5{fill:none;stroke:#989898;stroke-miterlimit:10;}
	.st6{fill:#FF7043;}
	.st7{fill:none;stroke:#717171;stroke-width:4;stroke-miterlimit:10;}
	.st8{fill:none;stroke:#FF7043;stroke-width:2;stroke-linecap:square;stroke-dasharray:6,6;}
	.st9{fill:#100000;}
	.st10{fill:#6D6A6A;}
</style>
<g id="Grupo_2431" transform="translate(-70.781 -2503.348)">
	<g id="Grupo_2381" transform="translate(-0.367 984)">
		<line id="Línea_508" class="st0" x1="89.4" y1="1982.2" x2="151.4" y2="1982.2"/>
		<g id="Trazado_2768" transform="translate(128 1930)">
			<path class="st1" d="M15,28.5c-3.6,0-7-1.4-9.5-4s-4-5.9-4-9.5s1.4-7,4-9.5s5.9-4,9.5-4s7,1.4,9.5,4s4,5.9,4,9.5s-1.4,7-4,9.5
				S18.6,28.5,15,28.5z"/>
			<path class="st2" d="M15,3c-3.2,0-6.2,1.2-8.5,3.5S3,11.8,3,15s1.2,6.2,3.5,8.5S11.8,27,15,27s6.2-1.2,8.5-3.5S27,18.2,27,15
				s-1.2-6.2-3.5-8.5S18.2,3,15,3 M15,0c8.3,0,15,6.7,15,15s-6.7,15-15,15S0,23.3,0,15S6.7,0,15,0z"/>
		</g>
		<g class="st3">
			<path class="st4" d="M166.7,1981.7v4.3h-1.4v-9.8h3.7c1,0,1.6,0.2,2,0.6c0.6,0.5,1,1.2,1,2.1c0,0.8-0.4,1.6-1,2.1
				c-0.5,0.4-1.1,0.6-2,0.6H166.7z M168.9,1980.3c0.7,0,1-0.2,1.3-0.4c0.2-0.3,0.4-0.6,0.4-1c0-0.4-0.2-0.7-0.4-1
				c-0.3-0.3-0.6-0.4-1.3-0.4h-2.2v2.8H168.9z"/>
			<path class="st4" d="M177.2,1980.6c-0.2,0-0.3-0.1-0.5-0.1c-0.7,0-1.4,0.5-1.8,1.1v4.4h-1.3v-6.6h1.3v0.8c0.3-0.4,1-0.9,2-0.9
				c0.1,0,0.4,0,0.5,0L177.2,1980.6z"/>
			<path class="st4" d="M181.5,1979.3c1.9,0,3.4,1.5,3.4,3.4s-1.5,3.4-3.4,3.4s-3.4-1.5-3.4-3.4S179.6,1979.3,181.5,1979.3z
				 M181.5,1984.9c1.2,0,2.1-1,2.1-2.2c0-1.2-0.9-2.2-2.1-2.2s-2.1,1-2.1,2.2C179.5,1983.9,180.3,1984.9,181.5,1984.9z"/>
			<path class="st4" d="M188.1,1979.4v0.6c0.3-0.3,1-0.8,1.9-0.8c1,0,1.8,0.4,2.3,1.1c0.6-0.6,1.3-1.1,2.5-1.1
				c0.9,0,1.8,0.4,2.3,1.1c0.4,0.5,0.6,1.1,0.6,2.3v3.4h-1.3v-3.6c0-0.7-0.1-1-0.4-1.3c-0.3-0.4-0.7-0.6-1.2-0.6c-1,0-1.6,0.5-2,0.9
				c0.1,0.3,0.1,0.7,0.1,1.2v3.4h-1.3v-3.6c0-0.7-0.1-1-0.4-1.3c-0.3-0.4-0.8-0.6-1.3-0.6c-0.8,0-1.5,0.5-1.8,0.9v4.5h-1.3v-6.6
				H188.1z"/>
			<path class="st4" d="M200.7,1983c0.1,1.1,1,2,2.1,2c1,0,1.5-0.5,1.9-0.9l0.9,0.8c-0.5,0.6-1.4,1.2-2.8,1.2
				c-1.9,0-3.4-1.5-3.4-3.4c0-2,1.3-3.4,3.2-3.4c1.8,0,3.2,1.5,3.2,3.4c0,0.1,0,0.2,0,0.3H200.7z M200.8,1981.9h3.6
				c-0.2-0.8-1-1.4-1.7-1.4C201.8,1980.4,201.1,1981,200.8,1981.9z"/>
			<path class="st4" d="M212.4,1985.4c-0.5,0.5-1.2,0.7-2,0.7c-0.6,0-1.2-0.2-1.7-0.4c-1-0.6-1.7-1.7-1.7-3c0-1.3,0.7-2.4,1.7-3
				c0.4-0.3,1-0.4,1.6-0.4c0.7,0,1.4,0.2,2,0.7v-3.9h1.3v9.9h-1.3V1985.4z M212.4,1981.5c-0.4-0.5-1.1-0.9-1.9-0.9
				c-1.3,0-2.1,1-2.1,2.2c0,1.2,0.9,2.2,2.2,2.2c0.7,0,1.4-0.3,1.8-0.9V1981.5z"/>
			<path class="st4" d="M216.8,1976.2c0.5,0,0.9,0.4,0.9,0.9s-0.4,0.9-0.9,0.9s-0.9-0.4-0.9-0.9S216.3,1976.2,216.8,1976.2z
				 M216.1,1979.4h1.3v6.6h-1.3V1979.4z"/>
			<path class="st4" d="M222.6,1979.3c1.9,0,3.4,1.5,3.4,3.4s-1.5,3.4-3.4,3.4s-3.4-1.5-3.4-3.4S220.7,1979.3,222.6,1979.3z
				 M222.6,1984.9c1.2,0,2.1-1,2.1-2.2c0-1.2-0.9-2.2-2.1-2.2s-2.1,1-2.1,2.2C220.6,1983.9,221.4,1984.9,222.6,1984.9z"/>
			<path class="st4" d="M233,1989.4h-1.3v-9.9h1.3v0.6c0.6-0.5,1.3-0.7,2.1-0.7c0.6,0,1.2,0.2,1.6,0.4c1,0.6,1.7,1.7,1.7,3
				c0,1.3-0.7,2.4-1.7,3c-0.4,0.3-1.1,0.4-1.7,0.4c-0.8,0-1.5-0.3-2-0.7V1989.4z M233,1983.9c0.4,0.6,1.1,0.9,1.8,0.9
				c1.3,0,2.2-1,2.2-2.2c0-1.1-0.8-2.2-2.1-2.2c-0.8,0-1.5,0.4-1.9,0.9V1983.9z"/>
			<path class="st4" d="M243,1979.3c1.9,0,3.4,1.5,3.4,3.4s-1.5,3.4-3.4,3.4s-3.4-1.5-3.4-3.4S241,1979.3,243,1979.3z M243,1984.9
				c1.2,0,2.1-1,2.1-2.2c0-1.2-0.9-2.2-2.1-2.2s-2.1,1-2.1,2.2C240.9,1983.9,241.7,1984.9,243,1984.9z"/>
			<path class="st4" d="M251.8,1980.6c-0.2,0-0.3-0.1-0.5-0.1c-0.7,0-1.4,0.5-1.8,1.1v4.4h-1.3v-6.6h1.3v0.8c0.3-0.4,1-0.9,2-0.9
				c0.1,0,0.4,0,0.5,0L251.8,1980.6z"/>
			<path class="st4" d="M263.1,1984.6c-0.5,0.9-1.7,1.5-2.9,1.5c-2,0-3.5-1.5-3.5-3.4s1.5-3.4,3.4-3.4c1.1,0,2.2,0.6,2.8,1.4l-1,0.8
				c-0.4-0.5-1-1-1.8-1c-1.2,0-2.1,0.9-2.1,2.2c0,1.3,0.9,2.2,2.2,2.2c0.9,0,1.5-0.5,1.9-1L263.1,1984.6z"/>
			<path class="st4" d="M269.4,1985.4c-0.5,0.5-1.2,0.7-2,0.7c-0.6,0-1.2-0.2-1.7-0.4c-1-0.6-1.7-1.7-1.7-3c0-1.3,0.7-2.4,1.7-3
				c0.4-0.3,1-0.4,1.6-0.4c0.7,0,1.5,0.2,2.1,0.7v-0.6h1.3v6.6h-1.3V1985.4z M269.4,1981.5c-0.4-0.5-1.1-0.9-1.9-0.9
				c-1.3,0-2.1,1-2.1,2.2c0,1.2,0.9,2.2,2.2,2.2c0.7,0,1.4-0.3,1.8-0.9V1981.5z"/>
			<path class="st4" d="M277.2,1986c-0.3,0.1-0.7,0.1-1,0.1c-0.8,0-1.4-0.3-1.9-0.8c-0.4-0.4-0.5-1-0.5-1.8v-3h-1.7v-1.2h1.7v-1.8
				h1.3v1.8h2.1v1.2h-2.1v3.1c0,0.4,0,0.6,0.2,0.8c0.2,0.2,0.6,0.3,0.9,0.3c0.2,0,0.5,0,0.7-0.1L277.2,1986z"/>
			<path class="st4" d="M279.5,1983c0.1,1.1,1,2,2.1,2c1,0,1.5-0.5,1.9-0.9l0.9,0.8c-0.5,0.6-1.4,1.2-2.8,1.2
				c-1.9,0-3.4-1.5-3.4-3.4c0-2,1.3-3.4,3.2-3.4c1.8,0,3.2,1.5,3.2,3.4c0,0.1,0,0.2,0,0.3H279.5z M279.6,1981.9h3.6
				c-0.2-0.8-1-1.4-1.7-1.4C280.6,1980.4,279.8,1981,279.6,1981.9z"/>
			<path class="st4" d="M289.2,1986.1c-0.6,0-1.2-0.2-1.7-0.4c-1-0.6-1.7-1.7-1.7-3c0-1.3,0.7-2.4,1.7-3c0.4-0.3,1-0.4,1.6-0.4
				c0.7,0,1.5,0.2,2.1,0.7v-0.6h1.3v6.3c0,1-0.1,1.6-0.4,2.2c-0.5,1-1.5,1.6-2.8,1.6c-1.7,0-2.8-0.9-3.2-1.5l1-0.9
				c0.5,0.6,1.1,1.2,2.2,1.2c0.7,0,1.3-0.3,1.6-0.8c0.2-0.4,0.4-0.9,0.4-1.7v-0.4C290.6,1985.9,290,1986.1,289.2,1986.1z
				 M291.2,1981.5c-0.4-0.5-1.1-0.9-1.9-0.9c-1.3,0-2.1,1-2.1,2.2c0,1.2,0.9,2.2,2.2,2.2c0.7,0,1.4-0.3,1.8-0.9V1981.5z"/>
			<path class="st4" d="M297.7,1979.3c1.9,0,3.4,1.5,3.4,3.4s-1.5,3.4-3.4,3.4s-3.4-1.5-3.4-3.4S295.8,1979.3,297.7,1979.3z
				 M297.7,1984.9c1.2,0,2.1-1,2.1-2.2c0-1.2-0.9-2.2-2.1-2.2s-2.1,1-2.1,2.2C295.6,1983.9,296.5,1984.9,297.7,1984.9z"/>
			<path class="st4" d="M306.6,1980.6c-0.2,0-0.3-0.1-0.5-0.1c-0.7,0-1.4,0.5-1.8,1.1v4.4h-1.3v-6.6h1.3v0.8c0.3-0.4,1-0.9,2-0.9
				c0.1,0,0.4,0,0.5,0L306.6,1980.6z"/>
			<path class="st4" d="M308.3,1978.3l0.9-2.1h1.5l-1.5,2.1H308.3z M308.3,1979.4h1.3v6.6h-1.3V1979.4z"/>
			<path class="st4" d="M316.8,1985.4c-0.5,0.5-1.2,0.7-2,0.7c-0.6,0-1.2-0.2-1.7-0.4c-1-0.6-1.7-1.7-1.7-3c0-1.3,0.7-2.4,1.7-3
				c0.4-0.3,1-0.4,1.6-0.4c0.7,0,1.5,0.2,2.1,0.7v-0.6h1.3v6.6h-1.3V1985.4z M316.8,1981.5c-0.4-0.5-1.1-0.9-1.9-0.9
				c-1.3,0-2.1,1-2.1,2.2c0,1.2,0.9,2.2,2.2,2.2c0.7,0,1.4-0.3,1.8-0.9V1981.5z"/>
		</g>
		<g class="st3">
			<path class="st4" d="M165.4,1947.5c0.6,0.7,1.4,1.3,2.4,1.3c0.9,0,1.7-0.6,1.7-1.5c0-1.5-2.1-1.7-3.4-2.5
				c-0.7-0.5-1.2-1.1-1.2-2.2c0-1.4,1.3-2.6,3-2.6c1.2,0,2.1,0.5,2.6,1l-0.8,1c-0.5-0.4-1.1-0.7-1.8-0.7c-0.8,0-1.6,0.5-1.6,1.3
				c0,1.2,2.1,1.5,3.3,2.4c0.7,0.4,1.3,1.1,1.3,2.2c0,1.7-1.3,2.8-3,2.8c-1.3,0-2.6-0.6-3.4-1.6L165.4,1947.5z"/>
			<path class="st4" d="M173.4,1947c0.1,1.1,1,2,2.1,2c1,0,1.5-0.5,1.9-0.9l0.9,0.8c-0.5,0.6-1.4,1.2-2.8,1.2
				c-1.9,0-3.4-1.5-3.4-3.4c0-2,1.3-3.4,3.2-3.4c1.8,0,3.2,1.5,3.2,3.4c0,0.1,0,0.2,0,0.3H173.4z M173.5,1945.9h3.6
				c-0.2-0.8-1-1.4-1.7-1.4C174.5,1944.4,173.7,1945,173.5,1945.9z"/>
			<path class="st4" d="M183.9,1944.6c-0.2,0-0.3-0.1-0.5-0.1c-0.7,0-1.4,0.5-1.8,1.1v4.4h-1.3v-6.6h1.3v0.8c0.3-0.4,1-0.9,2-0.9
				c0.1,0,0.4,0,0.5,0L183.9,1944.6z"/>
			<path class="st4" d="M185.2,1943.4h1.4l1.9,4.5l1.9-4.5h1.4l-2.9,6.6H188L185.2,1943.4z"/>
			<path class="st4" d="M193.8,1940.2c0.5,0,0.9,0.4,0.9,0.9s-0.4,0.9-0.9,0.9s-0.9-0.4-0.9-0.9S193.3,1940.2,193.8,1940.2z
				 M193.1,1943.4h1.3v6.6h-1.3V1943.4z"/>
			<path class="st4" d="M202.7,1948.6c-0.5,0.9-1.7,1.5-2.9,1.5c-2,0-3.5-1.5-3.5-3.4s1.5-3.4,3.4-3.4c1.1,0,2.2,0.6,2.8,1.4l-1,0.8
				c-0.4-0.5-1-1-1.8-1c-1.2,0-2.1,0.9-2.1,2.2c0,1.3,0.9,2.2,2.2,2.2c0.9,0,1.5-0.5,1.9-1L202.7,1948.6z"/>
			<path class="st4" d="M204.9,1940.2c0.5,0,0.9,0.4,0.9,0.9s-0.4,0.9-0.9,0.9s-0.9-0.4-0.9-0.9S204.4,1940.2,204.9,1940.2z
				 M204.3,1943.4h1.3v6.6h-1.3V1943.4z"/>
			<path class="st4" d="M210.8,1943.3c1.9,0,3.4,1.5,3.4,3.4s-1.5,3.4-3.4,3.4s-3.4-1.5-3.4-3.4S208.9,1943.3,210.8,1943.3z
				 M210.8,1948.9c1.2,0,2.1-1,2.1-2.2c0-1.2-0.9-2.2-2.1-2.2s-2.1,1-2.1,2.2C208.7,1947.9,209.6,1948.9,210.8,1948.9z"/>
			<path class="st4" d="M216.1,1948.2c0.6,0.5,1.3,0.7,1.9,0.7c0.6,0,1.1-0.3,1.1-0.8c0-0.8-1.1-0.8-2.1-1.1
				c-0.8-0.3-1.5-0.8-1.5-1.7c0-1.4,1.3-2.1,2.4-2.1c1,0,1.7,0.3,2.2,0.7l-0.7,1c-0.4-0.3-0.9-0.5-1.4-0.5c-0.6,0-1.2,0.3-1.2,0.8
				c0,0.4,0.5,0.6,1.2,0.8c1,0.3,2.4,0.7,2.4,2.1c0,1.2-1.2,2-2.5,2c-1,0-1.9-0.3-2.7-0.9L216.1,1948.2z"/>
			<path class="st4" d="M227.5,1953.4h-1.3v-9.9h1.3v0.6c0.6-0.5,1.3-0.7,2.1-0.7c0.6,0,1.2,0.2,1.6,0.4c1,0.6,1.7,1.7,1.7,3
				c0,1.3-0.7,2.4-1.7,3c-0.4,0.3-1.1,0.4-1.7,0.4c-0.8,0-1.5-0.3-2-0.7V1953.4z M227.5,1947.9c0.4,0.6,1.1,0.9,1.8,0.9
				c1.3,0,2.2-1,2.2-2.2c0-1.1-0.8-2.2-2.1-2.2c-0.8,0-1.5,0.4-1.9,0.9V1947.9z"/>
			<path class="st4" d="M235.1,1949c-0.4-0.5-0.6-1.1-0.6-2.3v-3.4h1.3v3.6c0,0.7,0.1,1,0.4,1.3c0.3,0.4,0.8,0.6,1.3,0.6
				c0.8,0,1.5-0.5,1.8-0.9v-4.5h1.3v6.6h-1.3v-0.6c-0.3,0.3-1,0.7-1.9,0.7C236.5,1950.1,235.7,1949.7,235.1,1949z M237.1,1942.3
				l0.9-2.1h1.5l-1.5,2.1H237.1z"/>
			<path class="st4" d="M244.3,1950h-1.3v-9.9h1.3v3.9c0.6-0.5,1.3-0.7,2-0.7c0.6,0,1.2,0.2,1.6,0.4c1,0.6,1.7,1.7,1.7,3
				c0,1.3-0.7,2.4-1.7,3c-0.4,0.3-1.1,0.4-1.7,0.4c-0.8,0-1.5-0.3-2-0.7V1950z M244.4,1947.9c0.4,0.6,1.1,0.9,1.8,0.9
				c1.3,0,2.2-1,2.2-2.2c0-1.1-0.8-2.2-2.1-2.2c-0.8,0-1.5,0.4-1.9,0.9V1947.9z"/>
			<path class="st4" d="M251.5,1940.1h1.3v9.9h-1.3V1940.1z"/>
			<path class="st4" d="M255.9,1940.2c0.5,0,0.9,0.4,0.9,0.9s-0.4,0.9-0.9,0.9c-0.5,0-0.9-0.4-0.9-0.9S255.4,1940.2,255.9,1940.2z
				 M255.2,1943.4h1.3v6.6h-1.3V1943.4z"/>
			<path class="st4" d="M264.8,1948.6c-0.5,0.9-1.7,1.5-2.9,1.5c-2,0-3.5-1.5-3.5-3.4s1.5-3.4,3.4-3.4c1.1,0,2.2,0.6,2.8,1.4l-1,0.8
				c-0.4-0.5-1-1-1.8-1c-1.2,0-2.1,0.9-2.1,2.2c0,1.3,0.9,2.2,2.2,2.2c0.9,0,1.5-0.5,1.9-1L264.8,1948.6z"/>
			<path class="st4" d="M269.2,1943.3c1.9,0,3.4,1.5,3.4,3.4s-1.5,3.4-3.4,3.4s-3.4-1.5-3.4-3.4S267.3,1943.3,269.2,1943.3z
				 M269.2,1948.9c1.2,0,2.1-1,2.1-2.2c0-1.2-0.9-2.2-2.1-2.2s-2.1,1-2.1,2.2C267.1,1947.9,268,1948.9,269.2,1948.9z"/>
			<path class="st4" d="M274.5,1948.2c0.6,0.5,1.3,0.7,1.9,0.7c0.6,0,1.1-0.3,1.1-0.8c0-0.8-1.1-0.8-2.1-1.1
				c-0.8-0.3-1.5-0.8-1.5-1.7c0-1.4,1.3-2.1,2.4-2.1c1,0,1.7,0.3,2.2,0.7l-0.7,1c-0.4-0.3-0.9-0.5-1.4-0.5c-0.6,0-1.2,0.3-1.2,0.8
				c0,0.4,0.5,0.6,1.2,0.8c1,0.3,2.4,0.7,2.4,2.1c0,1.2-1.2,2-2.5,2c-1.1,0-1.9-0.3-2.7-0.9L274.5,1948.2z"/>
		</g>
	</g>
	<g id="Grupo_2378" transform="translate(18104.301 -1529.012)">
		<path id="Trazado_2879" class="st5" d="M-17965.2,4174.7h154.3"/>
		<g class="st3">
			<path class="st6" d="M-17864.4,4230c0.6-1.9,2.4-3.2,4.4-3.2c2.4,0,4.5,1.8,4.5,4.3c0,1.7-0.9,2.9-1.8,4l-3,3.5h4.9v2.4h-9.1
				v-1.6l4.9-5.6c1.1-1.2,1.4-2,1.4-2.7c0-1-0.8-1.9-1.8-1.9c-0.9,0-1.6,0.6-1.9,1.6L-17864.4,4230z"/>
			<path class="st6" d="M-17845,4226.9v8.4h2.3v2.4h-2.3v3.2h-2.7v-3.2h-6.5v-1.6l7.3-9.2H-17845z M-17847.7,4235.3v-3.3l-2.6,3.3
				H-17847.7z"/>
			<path class="st6" d="M-17837.4,4237.8l-2.4,5.9h-1.9l1.5-5.9H-17837.4z"/>
			<path class="st6" d="M-17826.6,4226.9l-2.6,4.5h0.2c2.7,0,4.9,2,4.9,4.8c0,2.7-2.3,4.9-5,4.9c-2.6,0-5.1-1.9-5.1-4.8
				c0-1.4,0.6-2.6,1.4-3.9l3.3-5.6H-17826.6z M-17831.7,4236.3c0,1.3,1.1,2.4,2.5,2.4c1.4,0,2.4-1.1,2.4-2.4c0-1.3-1-2.5-2.5-2.5
				c-0.5,0-1,0.1-1.5,0.3C-17831.2,4234.6-17831.7,4235.4-17831.7,4236.3z"/>
		</g>
		<g class="st3">
			<path class="st1" d="M-18003.6,4034.7l3.1-1.8h1.7v12.6h-2.4v-9.8l-2.3,1.3V4034.7z"/>
			<path class="st1" d="M-17991.5,4032.7c3.2,0,4.4,2.9,4.4,6.5s-1.2,6.5-4.4,6.5s-4.4-2.9-4.4-6.5S-17994.8,4032.7-17991.5,4032.7z
				 M-17991.5,4034.9c-1.5,0-2,1.9-2,4.3s0.5,4.3,2,4.3c1.5,0,2-1.9,2-4.3S-17990.1,4034.9-17991.5,4034.9z"/>
			<path class="st1" d="M-17980.7,4032.7c3.2,0,4.4,2.9,4.4,6.5s-1.2,6.5-4.4,6.5s-4.4-2.9-4.4-6.5S-17984,4032.7-17980.7,4032.7z
				 M-17980.7,4034.9c-1.5,0-2,1.9-2,4.3s0.5,4.3,2,4.3c1.5,0,2-1.9,2-4.3S-17979.3,4034.9-17980.7,4034.9z"/>
		</g>
		<g class="st3">
			<path class="st1" d="M-17994.1,4101.3h8.3v1.4l-5.4,11.2h-2.6l5.1-10.4h-5.4V4101.3z"/>
			<path class="st1" d="M-17983.1,4110.9c0.5,0.6,1.3,1,2.2,1c0.6,0,1.1-0.2,1.5-0.6c0.4-0.4,0.7-1,0.7-1.6c0-0.7-0.3-1.3-0.8-1.7
				c-0.4-0.3-0.9-0.5-1.5-0.5c-0.6,0-1.3,0.2-1.9,0.7l-1.5-0.2l0.8-6.7h6.7v2.2h-4.7l-0.2,2c0.3-0.1,0.6-0.1,1-0.1
				c1,0,2.1,0.2,2.9,1c1,0.8,1.6,2.1,1.6,3.4c0,2.5-2.1,4.4-4.6,4.4c-1.5,0-2.7-0.5-3.8-1.6L-17983.1,4110.9z"/>
		</g>
		<g class="st3">
			<path class="st1" d="M-17993.9,4181.4c0.5,0.6,1.3,1,2.2,1c0.6,0,1.1-0.2,1.5-0.6c0.4-0.4,0.7-1,0.7-1.6c0-0.7-0.3-1.3-0.8-1.7
				c-0.4-0.3-0.9-0.5-1.5-0.5c-0.6,0-1.3,0.2-1.9,0.7l-1.5-0.2l0.8-6.7h6.7v2.2h-4.7l-0.2,2c0.3-0.1,0.6-0.1,1-0.1
				c1,0,2.1,0.2,2.9,1c1,0.8,1.6,2.1,1.6,3.4c0,2.5-2.1,4.4-4.6,4.4c-1.5,0-2.7-0.5-3.8-1.6L-17993.9,4181.4z"/>
			<path class="st1" d="M-17980.7,4171.6c3.2,0,4.4,2.9,4.4,6.5s-1.2,6.5-4.4,6.5s-4.4-2.9-4.4-6.5S-17984,4171.6-17980.7,4171.6z
				 M-17980.7,4173.8c-1.5,0-2,1.9-2,4.3s0.5,4.3,2,4.3c1.5,0,2-1.9,2-4.3S-17979.3,4173.8-17980.7,4173.8z"/>
		</g>
		<g class="st3">
			<path class="st1" d="M-17994.3,4245.1c0.5-1.7,2.1-2.9,4-2.9c2.2,0,4,1.6,4,3.9c0,1.5-0.8,2.6-1.6,3.6l-2.7,3.1h4.4v2.2h-8.2
				v-1.4l4.4-5c1-1.1,1.2-1.8,1.2-2.5c0-0.9-0.7-1.7-1.6-1.7c-0.8,0-1.5,0.6-1.7,1.4L-17994.3,4245.1z"/>
			<path class="st1" d="M-17983.1,4252c0.5,0.6,1.3,1,2.2,1c0.6,0,1.1-0.2,1.5-0.6c0.4-0.4,0.7-1,0.7-1.6c0-0.7-0.3-1.3-0.8-1.7
				c-0.4-0.3-0.9-0.5-1.5-0.5c-0.6,0-1.3,0.2-1.9,0.7l-1.5-0.2l0.8-6.7h6.7v2.2h-4.7l-0.2,2c0.3-0.1,0.6-0.1,1-0.1
				c1,0,2.1,0.2,2.9,1c1,0.8,1.6,2.1,1.6,3.4c0,2.5-2.1,4.4-4.6,4.4c-1.5,0-2.7-0.5-3.8-1.6L-17983.1,4252z"/>
		</g>
		<g class="st3">
			<path class="st1" d="M-17980.7,4307.4c3.2,0,4.4,2.9,4.4,6.5s-1.2,6.5-4.4,6.5s-4.4-2.9-4.4-6.5S-17984,4307.4-17980.7,4307.4z
				 M-17980.7,4309.6c-1.5,0-2,1.9-2,4.3s0.5,4.3,2,4.3c1.5,0,2-1.9,2-4.3S-17979.3,4309.6-17980.7,4309.6z"/>
		</g>
		<path id="Trazado_2873" class="st7" d="M-17965.2,4313.4h154.3"/>
		<path id="Trazado_2876" class="st5" d="M-17965.2,4243.6h154.3"/>
		<path id="Trazado_2880" class="st5" d="M-17965.2,4105h154.3"/>
		<g id="Grupo_2305" transform="translate(-17898.297 4288.547)">
			<path id="Trazado_2808" class="st1" d="M14.5,7.2c0,4-3.2,7.2-7.2,7.2c-4,0-7.2-3.2-7.2-7.2C0,3.2,3.2,0,7.3,0l0,0
				C11.3,0,14.5,3.2,14.5,7.2C14.5,7.2,14.5,7.2,14.5,7.2z"/>
		</g>
		<g id="Grupo_2306" transform="translate(-17898.297 4284.655)">
			<path id="Trazado_2809" class="st1" d="M14.5,7.2c0,4-3.2,7.2-7.2,7.2c-4,0-7.2-3.2-7.2-7.2C0,3.2,3.2,0,7.3,0l0,0
				C11.3,0,14.5,3.2,14.5,7.2z"/>
		</g>
		<g id="Grupo_2307" transform="translate(-17898.297 4281.317)">
			<path id="Trazado_2810" class="st1" d="M14.5,7.2c0,4-3.2,7.2-7.2,7.2c-4,0-7.2-3.2-7.2-7.2C0,3.2,3.2,0,7.3,0l0,0
				C11.3,0,14.5,3.2,14.5,7.2z"/>
		</g>
		<g id="Grupo_2326" transform="translate(-17898.297 4258.237)">
			<path id="Trazado_2811" class="st1" d="M14.5,7.2c0,4-3.2,7.2-7.2,7.2c-4,0-7.2-3.2-7.2-7.2C0,3.2,3.2,0,7.3,0l0,0
				C11.3,0,14.5,3.2,14.5,7.2z"/>
		</g>
		<g id="Grupo_2330" transform="translate(-17898.297 4205.682)">
			<path id="Trazado_2812" class="st1" d="M14.5,7.2c0,4-3.2,7.2-7.2,7.2S0,11.3,0,7.2C0,3.2,3.2,0,7.3,0l0,0
				C11.3,0,14.5,3.2,14.5,7.2z"/>
		</g>
		<g id="Grupo_2331" transform="translate(-17898.297 4204.569)">
			<path id="Trazado_2813" class="st1" d="M14.5,7.2c0,4-3.2,7.2-7.2,7.2S0,11.3,0,7.2C0,3.2,3.2,0,7.3,0l0,0
				C11.3,0,14.5,3.2,14.5,7.2z"/>
		</g>
		<g id="Grupo_2338" transform="translate(-17898.297 4140.335)">
			<path id="Trazado_2814" class="st1" d="M14.5,7.2c0,4-3.2,7.2-7.2,7.2S0,11.3,0,7.2C0,3.2,3.2,0,7.3,0l0,0
				C11.3,0,14.5,3.2,14.5,7.2z"/>
		</g>
		<path id="Trazado_2881" class="st5" d="M-17965.2,4036.3h154.3"/>
		<path id="Trazado_2877" class="st8" d="M-17920.3,4248.1h58.5"/>
		<g class="st3">
			<path class="st9" d="M-18026.2,4235.8h3.7v1.2h-8.4v-3.2c0-0.8,0.2-1.3,0.6-1.8c0.4-0.5,1.1-0.8,1.8-0.8c0.7,0,1.4,0.3,1.8,0.8
				c0.3,0.4,0.6,0.9,0.6,1.8V4235.8z M-18027.4,4233.9c0-0.6-0.1-0.9-0.4-1.1c-0.2-0.2-0.5-0.3-0.8-0.3s-0.6,0.1-0.8,0.3
				c-0.2,0.2-0.4,0.5-0.4,1.1v1.9h2.4V4233.9z"/>
			<path class="st9" d="M-18023.5,4229c-0.6,0.5-1.4,0.9-2.5,0.9h-4.9v-1.2h5c0.8,0,1.3-0.2,1.7-0.5c0.5-0.4,0.7-1,0.7-1.8
				s-0.3-1.3-0.7-1.8c-0.4-0.3-0.9-0.5-1.7-0.5h-5v-1.2h4.9c1.1,0,1.9,0.3,2.5,0.9c0.7,0.6,1.1,1.6,1.1,2.6
				C-18022.4,4227.5-18022.8,4228.4-18023.5,4229z"/>
			<path class="st9" d="M-18028.7,4219.7h6.2v1.2h-8.4v-0.8l6.2-5h-6.2v-1.2h8.4v0.8L-18028.7,4219.7z"/>
			<path class="st9" d="M-18030.9,4212.6v-5.8h1.1v2.3h7.3v1.2h-7.3v2.3H-18030.9z"/>
			<path class="st9" d="M-18024.7,4201.6v3.5l2.2,0.9v1.2l-8.4-3.5v-0.8l8.4-3.5v1.2L-18024.7,4201.6z M-18025.8,4204.7v-2.6
				l-3.1,1.3L-18025.8,4204.7z"/>
			<path class="st9" d="M-18024.2,4198.4c0.4-0.2,0.7-0.6,0.7-1.1c0-0.4-0.2-0.7-0.5-0.9c-0.2-0.1-0.4-0.2-0.9-0.2h-6v-1.2h5.9
				c0.7,0,1.1,0.1,1.4,0.3c0.7,0.4,1.2,1.2,1.2,2.1c0,1-0.5,1.8-1.4,2.2L-18024.2,4198.4z"/>
			<path class="st9" d="M-18027.6,4188.9h1.1v2.8h2.8v-3.7h1.1v4.9h-8.4v-4.8h1.1v3.6h2.2V4188.9z"/>
			<path class="st9" d="M-18030.9,4184.4v-5.8h1.1v2.3h7.3v1.2h-7.3v2.3H-18030.9z"/>
			<path class="st9" d="M-18031,4174.2c0-2.4,1.9-4.2,4.3-4.2c2.4,0,4.3,1.8,4.3,4.2c0,2.4-1.9,4.2-4.3,4.2
				C-18029.2,4178.4-18031,4176.5-18031,4174.2z M-18023.5,4174.2c0-1.7-1.4-3-3.2-3c-1.8,0-3.2,1.3-3.2,3c0,1.7,1.4,3,3.2,3
				C-18024.9,4177.2-18023.5,4175.9-18023.5,4174.2z"/>
			<path class="st9" d="M-18030.9,4169.7v-5.8h1.1v2.3h7.3v1.2h-7.3v2.3H-18030.9z"/>
			<path class="st9" d="M-18024.7,4158.8v3.5l2.2,0.9v1.2l-8.4-3.5v-0.8l8.4-3.5v1.2L-18024.7,4158.8z M-18025.8,4161.8v-2.6
				l-3.1,1.3L-18025.8,4161.8z"/>
			<path class="st9" d="M-18023.7,4154.3v-3.7h1.1v4.9h-8.4v-1.2H-18023.7z"/>
			<path class="st9" d="M-18031.5,4145.9l-1.8-0.8v-1.3l1.8,1.3V4145.9z M-18030.9,4146v-1.2h8.4v1.2H-18030.9z"/>
			<path class="st9" d="M-18028.7,4141.5h6.2v1.2h-8.4v-0.8l6.2-5h-6.2v-1.2h8.4v0.8L-18028.7,4141.5z"/>
			<path class="st9" d="M-18022.5,4133.4h-8.4v-2.5c0-1.3,0.3-2.2,0.8-2.9c0.8-1,2-1.7,3.4-1.7c1.4,0,2.6,0.6,3.4,1.7
				c0.5,0.7,0.8,1.6,0.8,2.9V4133.4z M-18029.1,4128.6c-0.5,0.5-0.7,1.2-0.7,2.4v1.3h6.1v-1.3c0-1.2-0.3-1.9-0.7-2.4
				c-0.6-0.6-1.4-1-2.3-1S-18028.5,4127.9-18029.1,4128.6z"/>
			<path class="st9" d="M-18030.9,4124.8v-1.2h8.4v1.2H-18030.9z"/>
			<path class="st9" d="M-18031,4117.9c0-1.2,0.5-2.3,1.3-3.1l0.8,0.8c-0.5,0.5-0.9,1.4-0.9,2.3c0,1.7,1.4,3,3.2,3
				c1.9,0,3.2-1.4,3.2-3.2c0-1.1-0.6-1.9-1.2-2.4l0.8-0.9c0.9,0.7,1.6,2,1.6,3.3c0,2.5-1.8,4.4-4.3,4.4
				C-18029.1,4122.1-18031,4120.3-18031,4117.9z"/>
			<path class="st9" d="M-18027.6,4109.2h1.1v2.8h2.8v-3.7h1.1v4.9h-8.4v-4.8h1.1v3.6h2.2V4109.2z"/>
		</g>
		<g class="st3">
			<path class="st10" d="M-17920.9,4387.1h-0.7l-2-3.2v4.7h-1v-7h0.7l2.7,4.3l2.7-4.3h0.7v7h-1v-4.7L-17920.9,4387.1z"/>
			<path class="st10" d="M-17912.8,4384.4v1h-2.3v2.3h3.1v0.9h-4.1v-7h4v0.9h-3v1.8H-17912.8z"/>
			<path class="st10" d="M-17910.7,4388.6v-7h2.1c1.1,0,1.8,0.2,2.4,0.7c0.9,0.6,1.4,1.7,1.4,2.8s-0.5,2.2-1.4,2.8
				c-0.6,0.4-1.3,0.7-2.4,0.7H-17910.7z M-17906.6,4383.1c-0.4-0.4-1-0.6-2-0.6h-1v5.1h1c1,0,1.6-0.2,2-0.6c0.5-0.5,0.8-1.2,0.8-2
				S-17906.1,4383.6-17906.6,4383.1z"/>
			<path class="st10" d="M-17903.5,4381.6h1v7h-1V4381.6z"/>
			<path class="st10" d="M-17896.8,4386.8h-2.9l-0.7,1.8h-1l2.9-7h0.7l2.9,7h-1L-17896.8,4386.8z M-17899.4,4385.9h2.2l-1.1-2.6
				L-17899.4,4385.9z"/>
			<path class="st10" d="M-17893.1,4383.5v5.1h-1v-7h0.7l4.2,5.1v-5.1h1v7h-0.7L-17893.1,4383.5z"/>
			<path class="st10" d="M-17882.5,4386.8h-2.9l-0.7,1.8h-1l2.9-7h0.7l2.9,7h-1L-17882.5,4386.8z M-17885.1,4385.9h2.2l-1.1-2.6
				L-17885.1,4385.9z"/>
			<path class="st10" d="M-17878.9,4383.8c0.4,0,0.7,0.3,0.7,0.7s-0.3,0.7-0.7,0.7s-0.7-0.3-0.7-0.7S-17879.3,4383.8-17878.9,4383.8
				z M-17878.9,4387.3c0.4,0,0.7,0.3,0.7,0.7s-0.3,0.7-0.7,0.7s-0.7-0.3-0.7-0.7S-17879.3,4387.3-17878.9,4387.3z"/>
			<path class="st10" d="M-17875.1,4383.5v-1l1.6-0.9h0.7v7h-1v-5.7L-17875.1,4383.5z"/>
			<path class="st10" d="M-17870.9,4388.6l3-6h-3.2v-0.9h4.4v0.6l-3.1,6.3H-17870.9z"/>
			<path class="st10" d="M-17864.9,4387.4l-1.2,2.6h-0.6l0.7-2.6H-17864.9z"/>
			<path class="st10" d="M-17863.1,4383.1c0.4-1.3,1.4-1.6,2.1-1.6c1.2,0,2.1,1,2.1,2.1c0,0.8-0.4,1.5-0.9,2l-1.8,2h2.7v0.9h-4.2
				v-0.6l2.4-2.7c0.5-0.6,0.8-1,0.8-1.6c0-0.6-0.4-1.2-1.1-1.2c-0.6,0-1,0.4-1.2,0.9L-17863.1,4383.1z"/>
			<path class="st10" d="M-17857.9,4383.1c0.4-1.3,1.4-1.6,2.1-1.6c1.2,0,2.1,1,2.1,2.1c0,0.8-0.4,1.5-0.9,2l-1.8,2h2.7v0.9h-4.2
				v-0.6l2.4-2.7c0.6-0.6,0.8-1,0.8-1.6c0-0.6-0.5-1.2-1.1-1.2c-0.6,0-1,0.4-1.2,0.9L-17857.9,4383.1z"/>
		</g>
		<g class="st3">
			<path class="st10" d="M-17922.4,4405.6v-7h2.1c1.1,0,1.8,0.2,2.4,0.7c0.9,0.6,1.4,1.7,1.4,2.8s-0.5,2.2-1.4,2.8
				c-0.6,0.4-1.3,0.7-2.4,0.7H-17922.4z M-17918.3,4400.1c-0.4-0.4-1-0.6-2-0.6h-1.1v5.1h1.1c1,0,1.6-0.2,2-0.6
				c0.5-0.5,0.8-1.2,0.8-2S-17917.8,4400.6-17918.3,4400.1z"/>
			<path class="st10" d="M-17911.9,4401.4v1h-2.3v2.3h3.1v0.9h-4.1v-7h4v0.9h-3v1.8H-17911.9z"/>
			<path class="st10" d="M-17909.7,4403.9c0.4,0.5,1,0.9,1.7,0.9c0.7,0,1.2-0.4,1.2-1c0-1.1-1.5-1.2-2.4-1.8
				c-0.5-0.3-0.9-0.8-0.9-1.5c0-1,0.9-1.9,2.1-1.9c0.9,0,1.5,0.4,1.9,0.7l-0.6,0.7c-0.4-0.3-0.8-0.5-1.2-0.5c-0.6,0-1.2,0.3-1.2,0.9
				c0,0.9,1.5,1.1,2.4,1.7c0.5,0.3,0.9,0.8,0.9,1.6c0,1.2-0.9,2-2.2,2c-1,0-1.8-0.4-2.4-1.2L-17909.7,4403.9z"/>
			<path class="st10" d="M-17902,4405.6h-0.7l-2.7-7h1l2.1,5.3l2.1-5.3h1L-17902,4405.6z"/>
			<path class="st10" d="M-17898.2,4404.3c0.4,0,0.7,0.3,0.7,0.7s-0.3,0.7-0.7,0.7c-0.4,0-0.7-0.3-0.7-0.7
				S-17898.6,4404.3-17898.2,4404.3z"/>
			<path class="st10" d="M-17890.2,4401.4v1h-2.3v2.3h3.1v0.9h-4.1v-7h4v0.9h-3v1.8H-17890.2z"/>
			<path class="st10" d="M-17888,4403.9c0.4,0.5,1,0.9,1.7,0.9c0.7,0,1.2-0.4,1.2-1c0-1.1-1.5-1.2-2.4-1.8c-0.5-0.3-0.9-0.8-0.9-1.5
				c0-1,0.9-1.9,2.1-1.9c0.9,0,1.5,0.4,1.9,0.7l-0.6,0.7c-0.4-0.3-0.8-0.5-1.2-0.5c-0.6,0-1.2,0.3-1.2,0.9c0,0.9,1.5,1.1,2.4,1.7
				c0.5,0.3,0.9,0.8,0.9,1.6c0,1.2-0.9,2-2.2,2c-1,0-1.8-0.4-2.4-1.2L-17888,4403.9z"/>
			<path class="st10" d="M-17883.8,4398.6h4.8v0.9h-1.9v6h-1v-6h-1.9V4398.6z"/>
			<path class="st10" d="M-17877.2,4400.8c0.4,0,0.7,0.3,0.7,0.7s-0.3,0.7-0.7,0.7s-0.7-0.3-0.7-0.7S-17877.6,4400.8-17877.2,4400.8
				z M-17877.2,4404.3c0.4,0,0.7,0.3,0.7,0.7s-0.3,0.7-0.7,0.7s-0.7-0.3-0.7-0.7S-17877.6,4404.3-17877.2,4404.3z"/>
			<path class="st10" d="M-17873.3,4400.1c0.4-1.3,1.4-1.6,2.1-1.6c1.2,0,2.1,1,2.1,2.1c0,0.8-0.4,1.5-0.9,2l-1.8,2h2.7v0.9h-4.2
				v-0.6l2.4-2.7c0.5-0.6,0.8-1,0.8-1.6c0-0.6-0.4-1.2-1.1-1.2c-0.6,0-1,0.4-1.2,0.9L-17873.3,4400.1z"/>
			<path class="st10" d="M-17865.5,4398.5c1.7,0,2.4,1.6,2.4,3.6s-0.7,3.6-2.4,3.6c-1.8,0-2.4-1.6-2.4-3.6
				S-17867.2,4398.5-17865.5,4398.5z M-17865.5,4399.5c-1.1,0-1.4,1.2-1.4,2.6s0.3,2.6,1.4,2.6s1.4-1.2,1.4-2.6
				S-17864.4,4399.5-17865.5,4399.5z"/>
			<path class="st10" d="M-17860.2,4404.4l-1.2,2.6h-0.7l0.8-2.6H-17860.2z"/>
			<path class="st10" d="M-17858.9,4400.5v-1l1.6-0.9h0.7v7h-1v-5.7L-17858.9,4400.5z"/>
		</g>
		<g class="st3">
			<path class="st1" d="M-17955.7,4335.7c0,1.9,1.5,3.4,3.3,3.4c1.3,0,2.2-0.6,2.8-1.4l1.3,1.2c-0.9,1.1-2.3,1.9-4.1,1.9
				c-3.1,0-5.2-2.2-5.2-5s2.1-5,5.2-5c1.5,0,2.7,0.5,3.6,1.4l-1.2,1.3c-0.6-0.6-1.4-1-2.4-1
				C-17954.3,4332.3-17955.7,4333.8-17955.7,4335.7z"/>
			<path class="st1" d="M-17945,4332.5v2h3v1.7h-3v2.7h4.1v1.7h-6v-9.8h5.9v1.7H-17945z"/>
			<path class="st1" d="M-17939.2,4330.8h1.3l5.5,6.4v-6.4h1.9v9.8h-1.3l-5.5-6.4v6.4h-1.9V4330.8z"/>
			<path class="st1" d="M-17922,4330.8v1.7h-2.6v8.1h-1.9v-8.1h-2.6v-1.7H-17922z"/>
			<path class="st1" d="M-17918.6,4336.3v4.3h-1.9v-9.8h3.6c1,0,1.7,0.3,2.1,0.7c0.5,0.5,0.9,1.2,0.9,2c0,0.8-0.3,1.5-0.9,2
				c-0.3,0.3-0.6,0.4-1,0.6l3.7,4.5h-2.3l-3.5-4.3H-17918.6z M-17917.1,4334.6c0.5,0,0.8-0.1,1-0.3c0.2-0.2,0.3-0.5,0.3-0.7
				c0-0.3-0.1-0.6-0.3-0.8c-0.2-0.2-0.4-0.3-1-0.3h-1.6v2.1H-17917.1z"/>
			<path class="st1" d="M-17911.6,4340.6l4.2-9.8h1.3l4.2,9.8h-2l-0.9-2.2h-3.9l-0.9,2.2H-17911.6z M-17908,4336.8h2.5l-1.2-2.9
				L-17908,4336.8z"/>
			<path class="st1" d="M-17900.8,4330.8h1.9v8.1h4.1v1.7h-6V4330.8z"/>
			<path class="st1" d="M-17893.3,4330.8h1.9v9.8h-1.9V4330.8z"/>
			<path class="st1" d="M-17889.7,4339.5l4.8-7h-4.3v-1.7h6.9v1.1l-4.8,7h5.1v1.7h-7.6V4339.5z"/>
			<path class="st1" d="M-17881.2,4340.6l4.2-9.8h1.3l4.2,9.8h-2l-0.9-2.2h-3.9l-0.9,2.2H-17881.2z M-17877.6,4336.8h2.5l-1.2-2.9
				L-17877.6,4336.8z"/>
			<path class="st1" d="M-17867.2,4330.8c1.6,0,2.6,0.3,3.4,0.9c1.2,0.9,1.9,2.4,1.9,4s-0.7,3.1-1.9,4c-0.8,0.6-1.8,0.9-3.4,0.9
				h-3.1v-9.8H-17867.2z M-17864.5,4333.6c-0.5-0.7-1.3-1.1-2.5-1.1h-1.4v6.4h1.4c1.2,0,2-0.4,2.5-1.1c0.4-0.6,0.7-1.3,0.7-2.1
				S-17864.1,4334.1-17864.5,4333.6z"/>
			<path class="st1" d="M-17861.9,4340.6l4.2-9.8h1.3l4.2,9.8h-2l-0.9-2.2h-3.9l-0.9,2.2H-17861.9z M-17858.2,4336.8h2.5l-1.2-2.9
				L-17858.2,4336.8z"/>
			<path class="st1" d="M-17850.3,4338c0.6,0.6,1.4,1.1,2.3,1.1c0.8,0,1.4-0.5,1.4-1.2c0-1.3-1.8-1.4-3.1-2.2
				c-0.8-0.4-1.4-1.1-1.4-2.2c0-1.8,1.6-2.8,3.2-2.8c1,0,1.9,0.2,2.8,0.9l-1,1.4c-0.4-0.4-1.1-0.6-1.7-0.6c-0.7,0-1.5,0.3-1.5,1.1
				c0,1.6,4.5,1.1,4.5,4.4c0,1.7-1.6,2.9-3.3,2.9c-1.3,0-2.5-0.5-3.5-1.5L-17850.3,4338z"/>
			<path class="st1" d="M-17835.1,4342.6l-1.4,1c-1.3-1.8-2-4.1-2-6.4s0.7-4.6,2-6.4l1.4,1c-1.1,1.5-1.7,3.5-1.7,5.5
				S-17836.2,4341.1-17835.1,4342.6z"/>
			<path class="st1" d="M-17833.4,4330.8h6.4v1.1l-4.2,8.7h-2l4-8.1h-4.2V4330.8z"/>
			<path class="st1" d="M-17825.5,4331.6l1.4-1c1.3,1.8,2,4.1,2,6.4s-0.7,4.6-2,6.4l-1.4-1c1.1-1.5,1.7-3.5,1.7-5.5
				S-17824.4,4333.1-17825.5,4331.6z"/>
		</g>
	</g>
</g>
</svg>
