<svg xmlns="http://www.w3.org/2000/svg" width="357.793" height="560.999" viewBox="0 0 357.793 560.999">
  <g id="Grupo_2444" data-name="Grupo 2444" transform="translate(-28 -4714.524)">
    <g id="Grupo_2412" data-name="Grupo 2412" transform="translate(0 2742.523)">
      <line id="Línea_508" data-name="Línea 508" x2="62" transform="translate(99 2525.234)" fill="none" stroke="#333" stroke-linecap="square" stroke-width="3" stroke-dasharray="6 8"/>
      <text id="Máx._puntaje_posible" data-name="Máx. puntaje posible" transform="translate(173.633 2529)" fill="#aaa" font-size="14" font-family="SegoeUI, Segoe UI"><tspan x="0" y="0">Máx. puntaje posible</tspan></text>
      <g id="Grupo_2400" data-name="Grupo 2400" transform="translate(-85.465 -18)">
        <g id="Trazado_2768" data-name="Trazado 2768" transform="translate(137.633 2480)" fill="#9372fc" style="mix-blend-mode: multiply;isolation: isolate">
          <path d="M 15 28.5 C 11.39402008056641 28.5 8.003870010375977 27.09575080871582 5.454060077667236 24.54594039916992 C 2.904249906539917 21.99612998962402 1.5 18.60597991943359 1.5 15 C 1.5 11.39402008056641 2.904249906539917 8.003870010375977 5.454060077667236 5.454060077667236 C 8.003870010375977 2.904249906539917 11.39402008056641 1.5 15 1.5 C 18.60597991943359 1.5 21.99612998962402 2.904249906539917 24.54594039916992 5.454060077667236 C 27.09575080871582 8.003870010375977 28.5 11.39402008056641 28.5 15 C 28.5 18.60597991943359 27.09575080871582 21.99612998962402 24.54594039916992 24.54594039916992 C 21.99612998962402 27.09575080871582 18.60597991943359 28.5 15 28.5 Z" stroke="none"/>
          <path d="M 15 3 C 11.79467964172363 3 8.781219482421875 4.248220443725586 6.514720916748047 6.514720916748047 C 4.248220443725586 8.781219482421875 3 11.79467964172363 3 15 C 3 18.20532035827637 4.248220443725586 21.21878051757813 6.514720916748047 23.48527908325195 C 8.781219482421875 25.75177955627441 11.79467964172363 27 15 27 C 18.20532035827637 27 21.21878051757813 25.75177955627441 23.48527908325195 23.48527908325195 C 25.75177955627441 21.21878051757813 27 18.20532035827637 27 15 C 27 11.79467964172363 25.75177955627441 8.781219482421875 23.48527908325195 6.514720916748047 C 21.21878051757813 4.248220443725586 18.20532035827637 3 15 3 M 15 0 C 23.28426933288574 0 30 6.715730667114258 30 15 C 30 23.28426933288574 23.28426933288574 30 15 30 C 6.715730667114258 30 0 23.28426933288574 0 15 C 0 6.715730667114258 6.715730667114258 0 15 0 Z" stroke="none" fill="#fff"/>
        </g>
        <text id="Pilares" transform="translate(173.633 2500)" fill="#aaa" font-size="14" font-family="SegoeUI, Segoe UI"><tspan x="0" y="0">Pilares</tspan></text>
      </g>
      <g id="Grupo_2399" data-name="Grupo 2399" transform="translate(5.199 -57.963)">
        <g id="Trazado_2890" data-name="Trazado 2890" transform="translate(137.633 2519.963)" fill="#28bac5" style="mix-blend-mode: multiply;isolation: isolate">
          <path d="M 15 28.5 C 11.39402008056641 28.5 8.003870010375977 27.09575080871582 5.454060077667236 24.54594039916992 C 2.904249906539917 21.99612998962402 1.5 18.60597991943359 1.5 15 C 1.5 11.39402008056641 2.904249906539917 8.003870010375977 5.454060077667236 5.454060077667236 C 8.003870010375977 2.904249906539917 11.39402008056641 1.5 15 1.5 C 18.60597991943359 1.5 21.99612998962402 2.904249906539917 24.54594039916992 5.454060077667236 C 27.09575080871582 8.003870010375977 28.5 11.39402008056641 28.5 15 C 28.5 18.60597991943359 27.09575080871582 21.99612998962402 24.54594039916992 24.54594039916992 C 21.99612998962402 27.09575080871582 18.60597991943359 28.5 15 28.5 Z" stroke="none"/>
          <path d="M 15 3 C 11.79467964172363 3 8.781219482421875 4.248220443725586 6.514720916748047 6.514720916748047 C 4.248220443725586 8.781219482421875 3 11.79467964172363 3 15 C 3 18.20532035827637 4.248220443725586 21.21878051757813 6.514720916748047 23.48527908325195 C 8.781219482421875 25.75177955627441 11.79467964172363 27 15 27 C 18.20532035827637 27 21.21878051757813 25.75177955627441 23.48527908325195 23.48527908325195 C 25.75177955627441 21.21878051757813 27 18.20532035827637 27 15 C 27 11.79467964172363 25.75177955627441 8.781219482421875 23.48527908325195 6.514720916748047 C 21.21878051757813 4.248220443725586 18.20532035827637 3 15 3 M 15 0 C 23.28426933288574 0 30 6.715730667114258 30 15 C 30 23.28426933288574 23.28426933288574 30 15 30 C 6.715730667114258 30 0 23.28426933288574 0 15 C 0 6.715730667114258 6.715730667114258 0 15 0 Z" stroke="none" fill="#fff"/>
        </g>
        <text id="Centralizadas" transform="translate(173.633 2539.963)" fill="#aaa" font-size="14" font-family="SegoeUI, Segoe UI"><tspan x="0" y="0">Centralizadas</tspan></text>
      </g>
      <g id="Grupo_2398" data-name="Grupo 2398" transform="translate(143.863 -97.926)">
        <g id="Trazado_2891" data-name="Trazado 2891" transform="translate(137.633 2559.926)" fill="#fb5154" style="mix-blend-mode: multiply;isolation: isolate">
          <path d="M 15 28.5 C 11.39402008056641 28.5 8.003870010375977 27.09575080871582 5.454060077667236 24.54594039916992 C 2.904249906539917 21.99612998962402 1.5 18.60597991943359 1.5 15 C 1.5 11.39402008056641 2.904249906539917 8.003870010375977 5.454060077667236 5.454060077667236 C 8.003870010375977 2.904249906539917 11.39402008056641 1.5 15 1.5 C 18.60597991943359 1.5 21.99612998962402 2.904249906539917 24.54594039916992 5.454060077667236 C 27.09575080871582 8.003870010375977 28.5 11.39402008056641 28.5 15 C 28.5 18.60597991943359 27.09575080871582 21.99612998962402 24.54594039916992 24.54594039916992 C 21.99612998962402 27.09575080871582 18.60597991943359 28.5 15 28.5 Z" stroke="none"/>
          <path d="M 15 3 C 11.79467964172363 3 8.781219482421875 4.248220443725586 6.514720916748047 6.514720916748047 C 4.248220443725586 8.781219482421875 3 11.79467964172363 3 15 C 3 18.20532035827637 4.248220443725586 21.21878051757813 6.514720916748047 23.48527908325195 C 8.781219482421875 25.75177955627441 11.79467964172363 27 15 27 C 18.20532035827637 27 21.21878051757813 25.75177955627441 23.48527908325195 23.48527908325195 C 25.75177955627441 21.21878051757813 27 18.20532035827637 27 15 C 27 11.79467964172363 25.75177955627441 8.781219482421875 23.48527908325195 6.514720916748047 C 21.21878051757813 4.248220443725586 18.20532035827637 3 15 3 M 15 0 C 23.28426933288574 0 30 6.715730667114258 30 15 C 30 23.28426933288574 23.28426933288574 30 15 30 C 6.715730667114258 30 0 23.28426933288574 0 15 C 0 6.715730667114258 6.715730667114258 0 15 0 Z" stroke="none" fill="#fff"/>
        </g>
        <text id="Nuevas" transform="translate(173.633 2579.926)" fill="#aaa" font-size="14" font-family="SegoeUI, Segoe UI"><tspan x="0" y="0">Nuevas</tspan></text>
      </g>
    </g>
    <g id="Grupo_2409" data-name="Grupo 2409" transform="translate(16624 33.627)">
      <line id="Línea_586" data-name="Línea 586" x2="307.26" transform="translate(-16545.967 4690)" fill="none" stroke="#989898" stroke-linecap="round" stroke-width="1"/>
      <line id="Línea_587" data-name="Línea 587" x2="307.26" transform="translate(-16545.967 4988.989)" fill="none" stroke="#989898" stroke-linecap="round" stroke-width="1"/>
      <line id="Línea_588" data-name="Línea 588" x2="307.26" transform="translate(-16545.967 4888.961)" fill="none" stroke="#989898" stroke-linecap="round" stroke-width="1"/>
      <line id="Línea_589" data-name="Línea 589" x2="307.26" transform="translate(-16545.967 4789.119)" fill="none" stroke="#989898" stroke-linecap="round" stroke-width="1"/>
      <text id="_20" data-name="20" transform="translate(-16596 4680.897)" fill="#333" font-size="18" font-family="SegoeUI-Bold, Segoe UI" font-weight="700"><tspan x="5.293" y="19">20</tspan></text>
      <text id="_10" data-name="10" transform="translate(-16596 4884.897)" fill="#333" font-size="18" font-family="SegoeUI-Bold, Segoe UI" font-weight="700"><tspan x="5.293" y="19">10</tspan></text>
      <text id="_5" data-name="5" transform="translate(-16596 4982.897)" fill="#333" font-size="18" font-family="SegoeUI-Bold, Segoe UI" font-weight="700"><tspan x="15.646" y="19">5</tspan></text>
      <text id="_15" data-name="15" transform="translate(-16596 4783.897)" fill="#333" font-size="18" font-family="SegoeUI-Bold, Segoe UI" font-weight="700"><tspan x="5.293" y="19">15</tspan></text>
      <text id="_0" data-name="0" transform="translate(-16596 5077.897)" fill="#333" font-size="18" font-family="SegoeUI-Bold, Segoe UI" font-weight="700"><tspan x="15.646" y="19">0</tspan></text>
      <line id="Línea_590" data-name="Línea 590" x1="307.26" transform="translate(-16553.16 5087.826)" fill="none" stroke="#717171" stroke-width="4"/>
      <g id="Grupo_2406" data-name="Grupo 2406" transform="translate(-670.623)">
        <rect id="Rectángulo_801" data-name="Rectángulo 801" width="77" height="59" transform="translate(-15848 5026.897)" fill="#9372fc"/>
        <rect id="Rectángulo_800" data-name="Rectángulo 800" width="75" height="44" transform="translate(-15767 5041.897)" fill="#16bac5"/>
        <rect id="Rectángulo_799" data-name="Rectángulo 799" width="77" height="37" transform="translate(-15688 5048.897)" fill="#ff5154"/>
        <text id="Gestión_del_Entorno" data-name="Gestión del Entorno" transform="translate(-15852 5112.897)" fill="#333" font-size="14" font-family="SegoeUI-Bold, Segoe UI" font-weight="700"><tspan x="46.078" y="15">GESTIÓN DEL ENTORNO</tspan></text>
        <text id="_3_1" data-name="3,1" transform="translate(-15852 4998.897)" fill="#333" font-size="22" font-family="SegoeUI-Bold, Segoe UI" font-weight="700"><tspan x="24.365" y="24">3,1</tspan></text>
        <text id="_2_3" data-name="2,3" transform="translate(-15771 5014.897)" fill="#333" font-size="22" font-family="SegoeUI-Bold, Segoe UI" font-weight="700"><tspan x="24.365" y="24">2,3</tspan></text>
        <text id="_2" data-name="2" transform="translate(-15691 5023.897)" fill="#333" font-size="22" font-family="SegoeUI-Bold, Segoe UI" font-weight="700"><tspan x="33.673" y="24">2</tspan></text>
        <text id="_9_5" data-name="9,5" transform="translate(-15773.231 4877.148)" fill="#333" font-size="22" font-family="SegoeUI-Bold, Segoe UI" font-weight="700"><tspan x="24.818" y="24">9,5</tspan></text>
        <line id="Línea_591" data-name="Línea 591" x2="252" transform="translate(-15857.815 4904.34)" fill="none" stroke="#333" stroke-linecap="square" stroke-width="2" stroke-dasharray="6 6"/>
      </g>
    </g>
  </g>
</svg>
