<?xml version="1.0" encoding="utf-8"?>
<!-- Generator: Adobe Illustrator 25.2.0, SVG Export Plug-In . SVG Version: 6.00 Build 0)  -->
<svg version="1.1" id="Capa_1" xmlns="http://www.w3.org/2000/svg" xmlns:xlink="http://www.w3.org/1999/xlink" x="0px" y="0px"
	 viewBox="0 0 1605 818" style="enable-background:new 0 0 1605 818;" xml:space="preserve">
<style type="text/css">
	.st0{fill:none;stroke:#989898;stroke-linecap:round;}
	.st1{enable-background:new    ;}
	.st2{fill:#333333;}
	.st3{fill:#9372FC;}
	.st4{fill:#16BAC5;}
	.st5{fill:#FF5154;}
	.st6{fill:none;stroke:#717171;stroke-width:4;}
	.st7{fill:none;stroke:#333333;stroke-width:3;stroke-linecap:square;stroke-dasharray:6,8;}
	.st8{fill:#FFFFFF;}
	.st9{fill:none;stroke:#FFFFFF;stroke-width:3;}
	.st10{fill:#AAAAAA;}
</style>
<g id="Grupo_2155" transform="translate(-125 -3714)">
	<g id="Grupo_2086" transform="translate(0 -40)">
		<line id="Línea_510" class="st0" x1="256.8" y1="3768.6" x2="1729.5" y2="3768.6"/>
		<line id="Línea_511" class="st0" x1="256.8" y1="4215.8" x2="1729.5" y2="4215.8"/>
		<line id="Línea_512" class="st0" x1="256.8" y1="4066.2" x2="1729.5" y2="4066.2"/>
		<line id="Línea_513" class="st0" x1="256.8" y1="3916.9" x2="1729.5" y2="3916.9"/>
		<g class="st1">
			<path class="st2" d="M199.1,3758c0.6-1.9,2.4-3.2,4.4-3.2c2.4,0,4.5,1.8,4.5,4.3c0,1.7-0.9,2.9-1.8,4l-3,3.5h4.9v2.4H199v-1.6
				l4.9-5.6c1.1-1.2,1.4-2,1.4-2.7c0-1-0.8-1.9-1.8-1.9c-0.9,0-1.6,0.6-1.9,1.6L199.1,3758z"/>
			<path class="st2" d="M215,3754.8c3.6,0,4.9,3.2,4.9,7.2c0,4-1.3,7.2-4.9,7.2c-3.6,0-4.9-3.2-4.9-7.2
				C210.1,3758,211.4,3754.8,215,3754.8z M215,3757.2c-1.6,0-2.2,2.2-2.2,4.8c0,2.6,0.6,4.8,2.2,4.8c1.6,0,2.2-2.2,2.2-4.8
				C217.2,3759.4,216.6,3757.2,215,3757.2z"/>
		</g>
		<g class="st1">
			<path class="st2" d="M201.6,4062l3.4-2h1.9v14h-2.7v-10.9l-2.6,1.4V4062z"/>
			<path class="st2" d="M215,4059.8c3.6,0,4.9,3.2,4.9,7.2c0,4-1.3,7.2-4.9,7.2c-3.6,0-4.9-3.2-4.9-7.2
				C210.1,4063,211.4,4059.8,215,4059.8z M215,4062.2c-1.6,0-2.2,2.2-2.2,4.8c0,2.6,0.6,4.8,2.2,4.8c1.6,0,2.2-2.2,2.2-4.8
				C217.2,4064.4,216.6,4062.2,215,4062.2z"/>
		</g>
		<g class="st1">
			<path class="st2" d="M212.3,4216.7c0.6,0.6,1.5,1.1,2.4,1.1c0.6,0,1.2-0.2,1.7-0.6c0.5-0.4,0.8-1.1,0.8-1.8
				c0-0.8-0.3-1.4-0.9-1.9c-0.4-0.4-1-0.6-1.7-0.6c-0.7,0-1.5,0.3-2.1,0.8l-1.7-0.2l0.9-7.4h7.4v2.4H214l-0.2,2.2
				c0.3-0.1,0.7-0.1,1.1-0.1c1.1,0,2.3,0.3,3.3,1.1c1.1,0.9,1.8,2.3,1.8,3.8c0,2.8-2.3,4.8-5.2,4.8c-1.6,0-3-0.6-4.2-1.8
				L212.3,4216.7z"/>
		</g>
		<g class="st1">
			<path class="st2" d="M202.3,3910l3.4-2h1.9v14h-2.7v-10.9l-2.6,1.4V3910z"/>
			<path class="st2" d="M212.3,3918.7c0.6,0.6,1.5,1.1,2.4,1.1c0.6,0,1.2-0.2,1.7-0.6c0.5-0.4,0.8-1.1,0.8-1.8
				c0-0.8-0.3-1.4-0.9-1.9c-0.4-0.4-1-0.6-1.7-0.6c-0.7,0-1.5,0.3-2.1,0.8l-1.7-0.2l0.9-7.4h7.4v2.4H214l-0.2,2.2
				c0.3-0.1,0.7-0.1,1.1-0.1c1.1,0,2.3,0.3,3.3,1.1c1.1,0.9,1.8,2.3,1.8,3.8c0,2.8-2.3,4.8-5.2,4.8c-1.6,0-3-0.6-4.2-1.8
				L212.3,3918.7z"/>
		</g>
		<g class="st1">
			<path class="st2" d="M215,4349.8c3.6,0,4.9,3.2,4.9,7.2c0,4-1.3,7.2-4.9,7.2c-3.6,0-4.9-3.2-4.9-7.2
				C210.1,4353,211.4,4349.8,215,4349.8z M215,4352.2c-1.6,0-2.2,2.2-2.2,4.8c0,2.6,0.6,4.8,2.2,4.8c1.6,0,2.2-2.2,2.2-4.8
				C217.2,4354.4,216.6,4352.2,215,4352.2z"/>
		</g>
		<rect id="Rectángulo_755" x="291" y="4173" class="st3" width="114" height="189"/>
		<rect id="Rectángulo_756" x="790" y="4245" class="st3" width="114" height="117"/>
		<rect id="Rectángulo_757" x="1301" y="4272" class="st3" width="114" height="90"/>
		<rect id="Rectángulo_758" x="411" y="4252" class="st4" width="114" height="110"/>
		<rect id="Rectángulo_759" x="910" y="4256" class="st4" width="114" height="106"/>
		<rect id="Rectángulo_760" x="1421" y="4295" class="st4" width="114" height="67"/>
		<rect id="Rectángulo_761" x="531" y="4219" class="st5" width="114" height="143"/>
		<rect id="Rectángulo_762" x="1030" y="4265" class="st5" width="114" height="97"/>
		<rect id="Rectángulo_763" x="1541" y="4305" class="st5" width="114" height="57"/>
		<g class="st1">
			<path class="st2" d="M317.5,4409.7v6.3h-3v-15.4h5.8c2,0,3.1,0.5,4,1.4c0.8,0.8,1.2,2,1.2,3.2c0,1.2-0.4,2.4-1.2,3.2
				c-0.8,0.9-2,1.4-4,1.4H317.5z M320.2,4407.1c1,0,1.5-0.2,1.9-0.6c0.3-0.4,0.5-0.8,0.5-1.3c0-0.5-0.2-1-0.5-1.3
				c-0.4-0.4-0.9-0.6-1.9-0.6h-2.7v3.9H320.2z"/>
			<path class="st2" d="M324.2,4416l6.6-15.4h2.1l6.6,15.4h-3.1l-1.5-3.4h-6.2l-1.5,3.4H324.2z M329.9,4409.9h3.9l-2-4.6
				L329.9,4409.9z"/>
			<path class="st2" d="M344.3,4409.2v6.8h-3v-15.4h5.6c1.6,0,2.6,0.4,3.4,1.1c0.8,0.8,1.4,1.9,1.4,3.1c0,1.2-0.5,2.4-1.4,3.1
				c-0.4,0.4-0.9,0.7-1.5,0.9l5.8,7.1h-3.7l-5.5-6.8H344.3z M346.7,4406.5c0.9,0,1.2-0.2,1.5-0.5c0.3-0.3,0.4-0.7,0.4-1.2
				c0-0.5-0.2-0.9-0.4-1.2c-0.3-0.3-0.6-0.5-1.5-0.5h-2.5v3.3H346.7z"/>
			<path class="st2" d="M364.8,4400.6v2.6h-4.1v12.8h-3v-12.8h-4.1v-2.6H364.8z"/>
			<path class="st2" d="M367.1,4400.6h3v15.4h-3V4400.6z"/>
			<path class="st2" d="M375.5,4408.3c0,3,2.3,5.3,5.3,5.3c2,0,3.5-1,4.4-2.1l2,1.8c-1.4,1.7-3.7,2.9-6.5,2.9
				c-4.8,0-8.2-3.5-8.2-7.9s3.3-7.9,8.1-7.9c2.3,0,4.2,0.9,5.6,2.2l-1.9,2c-0.9-0.9-2.2-1.6-3.7-1.6
				C377.7,4403,375.5,4405.4,375.5,4408.3z"/>
			<path class="st2" d="M389.4,4400.6h3v15.4h-3V4400.6z"/>
			<path class="st2" d="M398.8,4409.7v6.3h-3v-15.4h5.8c2,0,3.1,0.5,4,1.4c0.8,0.8,1.2,2,1.2,3.2c0,1.2-0.4,2.4-1.2,3.2
				c-0.8,0.9-2,1.4-4,1.4H398.8z M401.5,4407.1c1,0,1.5-0.2,1.9-0.6c0.3-0.4,0.5-0.8,0.5-1.3c0-0.5-0.2-1-0.5-1.3
				c-0.4-0.4-0.9-0.6-1.9-0.6h-2.7v3.9H401.5z"/>
			<path class="st2" d="M405.5,4416l6.6-15.4h2.1l6.6,15.4h-3.1l-1.5-3.4h-6.2l-1.5,3.4H405.5z M411.2,4409.9h3.9l-2-4.6
				L411.2,4409.9z"/>
			<path class="st2" d="M423.9,4408.3c0,3,2.3,5.3,5.3,5.3c2,0,3.5-1,4.4-2.1l2,1.8c-1.4,1.7-3.7,2.9-6.5,2.9
				c-4.8,0-8.2-3.5-8.2-7.9s3.3-7.9,8.1-7.9c2.3,0,4.2,0.9,5.6,2.2l-1.9,2c-0.9-0.9-2.2-1.6-3.7-1.6
				C426.1,4403,423.9,4405.4,423.9,4408.3z"/>
			<path class="st2" d="M437.8,4400.6h3v15.4h-3V4400.6z"/>
			<path class="st2" d="M451.2,4400.4c4.8,0,8,3.5,8,7.9s-3.3,7.9-8,7.9c-4.8,0-8-3.5-8-7.9S446.4,4400.4,451.2,4400.4z
				 M451.2,4413.6c2.9,0,5.1-2.4,5.1-5.3s-2.2-5.3-5.1-5.3c-2.9,0-5.1,2.4-5.1,5.3S448.3,4413.6,451.2,4413.6z M454.8,4395.8
				l-2.6,3.5h-2l1.5-3.5H454.8z"/>
			<path class="st2" d="M461.6,4400.6h2.1l8.6,10v-10h3v15.4h-2.1l-8.6-10v10h-3V4400.6z"/>
			<path class="st2" d="M489.6,4400.6c2.4,0,4,0.5,5.3,1.5c1.9,1.4,3.1,3.7,3.1,6.2s-1.2,4.8-3.1,6.2c-1.3,0.9-2.9,1.5-5.3,1.5h-4.8
				v-15.4H489.6z M493.8,4405c-0.9-1.1-2.1-1.7-3.9-1.7h-2.2v10.1h2.2c1.8,0,3.1-0.6,3.9-1.7c0.7-0.9,1.1-2.1,1.1-3.3
				S494.5,4405.8,493.8,4405z"/>
			<path class="st2" d="M503.3,4403.2v3.2h4.7v2.6h-4.7v4.3h6.5v2.6h-9.5v-15.4h9.2v2.6H503.3z"/>
			<path class="st2" d="M520.3,4414.6c-1.3-1.1-2-2.8-2-5.1v-8.9h3v9.1c0,1.4,0.4,2.3,1,2.9c0.7,0.6,1.6,1,2.6,1c1,0,2-0.4,2.6-1
				c0.6-0.6,1-1.5,1-2.9v-9.1h3v8.9c0,2.4-0.7,4-2,5.1c-1.2,1.1-2.9,1.6-4.6,1.6C523.1,4416.2,521.5,4415.7,520.3,4414.6z"/>
			<path class="st2" d="M535.3,4411.9c0.9,1,2.2,1.7,3.6,1.7c1.3,0,2.2-0.8,2.2-1.9c0-2-2.9-2.2-4.9-3.4c-1.2-0.7-2.2-1.8-2.2-3.5
				c0-2.8,2.5-4.3,5.1-4.3c1.6,0,3,0.4,4.5,1.5l-1.5,2.2c-0.6-0.6-1.6-1-2.7-1c-1.1,0-2.4,0.5-2.4,1.7c0,2.5,7.1,1.7,7.1,6.9
				c0,2.7-2.4,4.6-5.2,4.6c-2.1,0-4-0.9-5.6-2.3L535.3,4411.9z"/>
			<path class="st2" d="M548.4,4414.6c-1.3-1.1-2-2.8-2-5.1v-8.9h3v9.1c0,1.4,0.4,2.3,1,2.9c0.7,0.6,1.6,1,2.6,1c1,0,2-0.4,2.6-1
				c0.6-0.6,1-1.5,1-2.9v-9.1h3v8.9c0,2.4-0.7,4-2,5.1c-1.2,1.1-2.9,1.6-4.6,1.6C551.3,4416.2,549.6,4415.7,548.4,4414.6z"/>
			<path class="st2" d="M560.5,4416l6.6-15.4h2.1l6.6,15.4h-3.1l-1.5-3.4h-6.2l-1.5,3.4H560.5z M566.2,4409.9h3.9l-2-4.6
				L566.2,4409.9z"/>
			<path class="st2" d="M580.5,4409.2v6.8h-3v-15.4h5.6c1.6,0,2.6,0.4,3.4,1.1c0.8,0.8,1.4,1.9,1.4,3.1c0,1.2-0.5,2.4-1.4,3.1
				c-0.4,0.4-0.9,0.7-1.5,0.9l5.8,7.1h-3.7l-5.5-6.8H580.5z M583,4406.5c0.9,0,1.2-0.2,1.5-0.5c0.3-0.3,0.4-0.7,0.4-1.2
				c0-0.5-0.2-0.9-0.4-1.2c-0.3-0.3-0.6-0.5-1.5-0.5h-2.5v3.3H583z"/>
			<path class="st2" d="M592.3,4400.6h3v15.4h-3V4400.6z"/>
			<path class="st2" d="M605.7,4400.4c4.8,0,8,3.5,8,7.9s-3.3,7.9-8,7.9c-4.8,0-8-3.5-8-7.9S601,4400.4,605.7,4400.4z M605.7,4413.6
				c2.9,0,5.1-2.4,5.1-5.3s-2.2-5.3-5.1-5.3c-2.9,0-5.1,2.4-5.1,5.3S602.8,4413.6,605.7,4413.6z"/>
			<path class="st2" d="M616.6,4411.9c0.9,1,2.2,1.7,3.6,1.7c1.3,0,2.2-0.8,2.2-1.9c0-2-2.9-2.2-4.9-3.4c-1.2-0.7-2.2-1.8-2.2-3.5
				c0-2.8,2.5-4.3,5.1-4.3c1.6,0,3,0.4,4.5,1.5l-1.5,2.2c-0.6-0.6-1.7-1-2.7-1c-1.1,0-2.4,0.5-2.4,1.7c0,2.5,7.1,1.7,7.1,6.9
				c0,2.7-2.4,4.6-5.2,4.6c-2.1,0-4-0.9-5.6-2.3L616.6,4411.9z"/>
		</g>
		<g class="st1">
			<path class="st2" d="M875.8,4408.3c0,3,2.3,5.3,5.3,5.3c2,0,3.5-1,4.4-2.1l2,1.8c-1.4,1.7-3.7,2.9-6.5,2.9
				c-4.8,0-8.2-3.5-8.2-7.9s3.3-7.9,8.1-7.9c2.3,0,4.2,0.9,5.6,2.2l-1.9,2c-0.9-0.9-2.2-1.6-3.7-1.6
				C878,4403,875.8,4405.4,875.8,4408.3z"/>
			<path class="st2" d="M896.5,4400.4c4.8,0,8,3.5,8,7.9s-3.3,7.9-8,7.9c-4.8,0-8-3.5-8-7.9S891.7,4400.4,896.5,4400.4z
				 M896.5,4413.6c2.9,0,5.1-2.4,5.1-5.3s-2.2-5.3-5.1-5.3c-2.9,0-5.1,2.4-5.1,5.3S893.6,4413.6,896.5,4413.6z"/>
			<path class="st2" d="M914.6,4400.4c4.8,0,8,3.5,8,7.9s-3.3,7.9-8,7.9c-4.8,0-8-3.5-8-7.9S909.9,4400.4,914.6,4400.4z
				 M914.6,4413.6c2.9,0,5.1-2.4,5.1-5.3s-2.2-5.3-5.1-5.3c-2.9,0-5.1,2.4-5.1,5.3S911.7,4413.6,914.6,4413.6z"/>
			<path class="st2" d="M928,4409.2v6.8h-3v-15.4h5.6c1.6,0,2.6,0.4,3.4,1.1c0.8,0.8,1.4,1.9,1.4,3.1c0,1.2-0.5,2.4-1.4,3.1
				c-0.4,0.4-0.9,0.7-1.5,0.9l5.8,7.1h-3.7l-5.5-6.8H928z M930.5,4406.5c0.9,0,1.2-0.2,1.5-0.5c0.3-0.3,0.4-0.7,0.4-1.2
				c0-0.5-0.2-0.9-0.4-1.2c-0.3-0.3-0.6-0.5-1.5-0.5H928v3.3H930.5z"/>
			<path class="st2" d="M944.7,4400.6c2.4,0,4,0.5,5.3,1.5c1.9,1.4,3.1,3.7,3.1,6.2s-1.2,4.8-3.1,6.2c-1.3,0.9-2.9,1.5-5.3,1.5h-4.8
				v-15.4H944.7z M948.9,4405c-0.9-1.1-2.1-1.7-3.9-1.7h-2.2v10.1h2.2c1.8,0,3.1-0.6,3.9-1.7c0.7-0.9,1.1-2.1,1.1-3.3
				S949.6,4405.8,948.9,4405z"/>
			<path class="st2" d="M955.4,4400.6h3v15.4h-3V4400.6z"/>
			<path class="st2" d="M961.9,4400.6h2.1l8.6,10v-10h3v15.4h-2.1l-8.6-10v10h-3V4400.6z"/>
			<path class="st2" d="M977.3,4416l6.6-15.4h2.1l6.6,15.4h-3.1l-1.5-3.4h-6.2l-1.5,3.4H977.3z M983,4409.9h3.9l-2-4.6L983,4409.9z"
				/>
			<path class="st2" d="M995.7,4408.3c0,3,2.3,5.3,5.3,5.3c2,0,3.5-1,4.4-2.1l2,1.8c-1.4,1.7-3.7,2.9-6.5,2.9
				c-4.8,0-8.2-3.5-8.2-7.9s3.3-7.9,8.1-7.9c2.3,0,4.2,0.9,5.6,2.2l-1.9,2c-0.9-0.9-2.2-1.6-3.7-1.6
				C997.9,4403,995.7,4405.4,995.7,4408.3z"/>
			<path class="st2" d="M1009.6,4400.6h3v15.4h-3V4400.6z"/>
			<path class="st2" d="M1023,4400.4c4.8,0,8,3.5,8,7.9s-3.3,7.9-8,7.9s-8-3.5-8-7.9S1018.2,4400.4,1023,4400.4z M1023,4413.6
				c2.9,0,5.1-2.4,5.1-5.3s-2.2-5.3-5.1-5.3s-5.1,2.4-5.1,5.3S1020.1,4413.6,1023,4413.6z M1026.6,4395.8l-2.6,3.5h-2l1.5-3.5
				H1026.6z"/>
			<path class="st2" d="M1033.4,4400.6h2.1l8.6,10v-10h3v15.4h-2.1l-8.6-10v10h-3V4400.6z"/>
		</g>
		<g class="st1">
			<path class="st2" d="M847.8,4424.6h3v15.4h-3V4424.6z"/>
			<path class="st2" d="M854.3,4424.6h2.1l8.6,10v-10h3v15.4h-2.1l-8.6-10v10h-3V4424.6z"/>
			<path class="st2" d="M881.4,4424.6v2.6h-4.1v12.8h-3v-12.8h-4.1v-2.6H881.4z"/>
			<path class="st2" d="M886.6,4427.2v3.2h4.7v2.6h-4.7v4.3h6.5v2.6h-9.5v-15.4h9.2v2.6H886.6z"/>
			<path class="st2" d="M898.7,4433.2v6.8h-3v-15.4h5.6c1.6,0,2.6,0.4,3.4,1.1c0.8,0.8,1.4,1.9,1.4,3.1c0,1.2-0.5,2.4-1.4,3.1
				c-0.4,0.4-0.9,0.7-1.5,0.9l5.8,7.1h-3.7l-5.5-6.8H898.7z M901.2,4430.5c0.9,0,1.2-0.2,1.5-0.5c0.3-0.3,0.4-0.7,0.4-1.2
				c0-0.5-0.2-0.9-0.4-1.2c-0.3-0.3-0.6-0.5-1.5-0.5h-2.5v3.3H901.2z"/>
			<path class="st2" d="M910.5,4424.6h3v15.4h-3V4424.6z"/>
			<path class="st2" d="M917,4424.6h2.1l8.6,10v-10h3v15.4h-2.1l-8.6-10v10h-3V4424.6z"/>
			<path class="st2" d="M934.6,4435.9c0.9,1,2.2,1.7,3.6,1.7c1.3,0,2.2-0.8,2.2-1.9c0-2-2.9-2.2-4.9-3.4c-1.2-0.7-2.2-1.8-2.2-3.5
				c0-2.8,2.5-4.3,5.1-4.3c1.6,0,3,0.4,4.5,1.5l-1.5,2.2c-0.6-0.6-1.7-1-2.7-1c-1.1,0-2.4,0.5-2.4,1.7c0,2.5,7.1,1.7,7.1,6.9
				c0,2.7-2.4,4.6-5.2,4.6c-2.1,0-4-0.9-5.6-2.3L934.6,4435.9z"/>
			<path class="st2" d="M955.3,4424.6v2.6h-4.1v12.8h-3v-12.8h-4.1v-2.6H955.3z"/>
			<path class="st2" d="M957.6,4424.6h3v15.4h-3V4424.6z"/>
			<path class="st2" d="M974,4424.6v2.6h-4.1v12.8h-3v-12.8h-4.1v-2.6H974z"/>
			<path class="st2" d="M978.2,4438.6c-1.3-1.1-2-2.8-2-5.1v-8.9h3v9.1c0,1.4,0.4,2.3,1,2.9c0.7,0.6,1.6,1,2.6,1s2-0.4,2.6-1
				c0.6-0.6,1-1.5,1-2.9v-9.1h3v8.9c0,2.4-0.7,4-2,5.1c-1.2,1.1-2.9,1.6-4.6,1.6S979.3,4439.7,978.2,4438.6z"/>
			<path class="st2" d="M994.8,4432.3c0,3,2.3,5.3,5.3,5.3c2,0,3.5-1,4.4-2.1l2,1.8c-1.4,1.7-3.7,2.9-6.5,2.9
				c-4.8,0-8.2-3.5-8.2-7.9s3.3-7.9,8.1-7.9c2.3,0,4.2,0.9,5.6,2.2l-1.9,2c-0.9-0.9-2.2-1.6-3.7-1.6
				C997,4427,994.8,4429.4,994.8,4432.3z"/>
			<path class="st2" d="M1008.6,4424.6h3v15.4h-3V4424.6z"/>
			<path class="st2" d="M1022,4424.4c4.8,0,8,3.5,8,7.9s-3.3,7.9-8,7.9s-8-3.5-8-7.9S1017.3,4424.4,1022,4424.4z M1022,4437.6
				c2.9,0,5.1-2.4,5.1-5.3s-2.2-5.3-5.1-5.3s-5.1,2.4-5.1,5.3S1019.1,4437.6,1022,4437.6z"/>
			<path class="st2" d="M1032.5,4424.6h2.1l8.6,10v-10h3v15.4h-2.1l-8.6-10v10h-3V4424.6z"/>
			<path class="st2" d="M1047.9,4440l6.6-15.4h2.1l6.6,15.4h-3.1l-1.5-3.4h-6.2l-1.5,3.4H1047.9z M1053.6,4433.9h3.9l-2-4.6
				L1053.6,4433.9z"/>
			<path class="st2" d="M1064.9,4424.6h3v12.8h6.5v2.6h-9.5V4424.6z"/>
		</g>
		<g class="st1">
			<path class="st2" d="M1362,4408.3c0,3,2.3,5.3,5.3,5.3c1.4,0,2.6-0.5,3.4-1.2v-3.3h-4v-2.6h6.9v6.8c-1.4,1.7-3.7,2.9-6.5,2.9
				c-4.8,0-8.2-3.5-8.2-7.9s3.3-7.9,8.1-7.9c2.3,0,4.2,0.9,5.6,2.2l-1.9,2c-0.9-0.9-2.2-1.6-3.7-1.6
				C1364.2,4403,1362,4405.4,1362,4408.3z"/>
			<path class="st2" d="M1379.7,4403.2v3.2h4.7v2.6h-4.7v4.3h6.5v2.6h-9.5v-15.4h9.2v2.6H1379.7z"/>
			<path class="st2" d="M1389.6,4411.9c0.9,1,2.2,1.7,3.6,1.7c1.3,0,2.2-0.8,2.2-1.9c0-2-2.9-2.2-4.9-3.4c-1.2-0.7-2.2-1.8-2.2-3.5
				c0-2.8,2.5-4.3,5.1-4.3c1.6,0,3,0.4,4.5,1.5l-1.5,2.2c-0.6-0.6-1.6-1-2.7-1c-1.1,0-2.4,0.5-2.4,1.7c0,2.5,7.1,1.7,7.1,6.9
				c0,2.7-2.4,4.6-5.2,4.6c-2.1,0-4-0.9-5.6-2.3L1389.6,4411.9z"/>
			<path class="st2" d="M1410.3,4400.6v2.6h-4.1v12.8h-3v-12.8h-4.1v-2.6H1410.3z"/>
			<path class="st2" d="M1412.6,4400.6h3v15.4h-3V4400.6z"/>
			<path class="st2" d="M1426,4400.4c4.8,0,8,3.5,8,7.9s-3.3,7.9-8,7.9s-8-3.5-8-7.9S1421.3,4400.4,1426,4400.4z M1426,4413.6
				c2.9,0,5.1-2.4,5.1-5.3s-2.2-5.3-5.1-5.3s-5.1,2.4-5.1,5.3S1423.1,4413.6,1426,4413.6z M1429.7,4395.8l-2.6,3.5h-2l1.5-3.5
				H1429.7z"/>
			<path class="st2" d="M1436.5,4400.6h2.1l8.6,10v-10h3v15.4h-2.1l-8.6-10v10h-3V4400.6z"/>
			<path class="st2" d="M1464.4,4400.6c2.4,0,4,0.5,5.3,1.5c1.9,1.4,3.1,3.7,3.1,6.2s-1.2,4.8-3.1,6.2c-1.3,0.9-2.9,1.5-5.3,1.5
				h-4.8v-15.4H1464.4z M1468.7,4405c-0.9-1.1-2.1-1.7-3.9-1.7h-2.2v10.1h2.2c1.8,0,3.1-0.6,3.9-1.7c0.7-0.9,1.1-2.1,1.1-3.3
				S1469.4,4405.8,1468.7,4405z"/>
			<path class="st2" d="M1478.2,4403.2v3.2h4.7v2.6h-4.7v4.3h6.5v2.6h-9.5v-15.4h9.2v2.6H1478.2z"/>
			<path class="st2" d="M1487.3,4400.6h3v12.8h6.5v2.6h-9.5V4400.6z"/>
			<path class="st2" d="M1507.5,4403.2v3.2h4.7v2.6h-4.7v4.3h6.5v2.6h-9.5v-15.4h9.2v2.6H1507.5z"/>
			<path class="st2" d="M1516.7,4400.6h2.1l8.6,10v-10h3v15.4h-2.1l-8.6-10v10h-3V4400.6z"/>
			<path class="st2" d="M1543.7,4400.6v2.6h-4.1v12.8h-3v-12.8h-4.1v-2.6H1543.7z"/>
			<path class="st2" d="M1552.6,4400.4c4.8,0,8,3.5,8,7.9s-3.3,7.9-8,7.9s-8-3.5-8-7.9S1547.9,4400.4,1552.6,4400.4z M1552.6,4413.6
				c2.9,0,5.1-2.4,5.1-5.3s-2.2-5.3-5.1-5.3s-5.1,2.4-5.1,5.3S1549.7,4413.6,1552.6,4413.6z"/>
			<path class="st2" d="M1566.1,4409.2v6.8h-3v-15.4h5.6c1.6,0,2.6,0.4,3.4,1.1c0.8,0.8,1.4,1.9,1.4,3.1c0,1.2-0.5,2.4-1.4,3.1
				c-0.4,0.4-0.9,0.7-1.5,0.9l5.8,7.1h-3.7l-5.5-6.8H1566.1z M1568.5,4406.5c0.9,0,1.2-0.2,1.5-0.5c0.3-0.3,0.4-0.7,0.4-1.2
				c0-0.5-0.2-0.9-0.4-1.2c-0.3-0.3-0.6-0.5-1.5-0.5h-2.5v3.3H1568.5z"/>
			<path class="st2" d="M1577.8,4400.6h2.1l8.6,10v-10h3v15.4h-2.1l-8.6-10v10h-3V4400.6z"/>
			<path class="st2" d="M1601.9,4400.4c4.8,0,8,3.5,8,7.9s-3.3,7.9-8,7.9c-4.8,0-8-3.5-8-7.9S1597.2,4400.4,1601.9,4400.4z
				 M1601.9,4413.6c2.9,0,5.1-2.4,5.1-5.3s-2.2-5.3-5.1-5.3c-2.9,0-5.1,2.4-5.1,5.3S1599,4413.6,1601.9,4413.6z"/>
		</g>
		<line id="Línea_514" class="st6" x1="1729.5" y1="4363.6" x2="246.1" y2="4363.6"/>
		<g class="st1">
			<path class="st2" d="M336.6,4135l-4,6.7h0.3c4,0,7.4,3,7.4,7.2c0,4.1-3.4,7.4-7.5,7.4c-3.9,0-7.7-2.8-7.7-7.2
				c0-2.1,1-3.9,2.1-5.8l4.9-8.3H336.6z M329,4149.1c0,2,1.7,3.6,3.7,3.6c2.1,0,3.5-1.7,3.5-3.7s-1.5-3.8-3.7-3.8
				c-0.8,0-1.5,0.2-2.2,0.5C329.7,4146.6,329,4147.7,329,4149.1z"/>
			<path class="st2" d="M349.4,4151.4l-3.6,8.8H343l2.2-8.8H349.4z"/>
			<path class="st2" d="M367.1,4135v12.6h3.4v3.6h-3.4v4.8h-4v-4.8h-9.7v-2.4l10.9-13.8H367.1z M363.1,4147.6v-4.9l-3.9,4.9H363.1z"
				/>
		</g>
		<g class="st1">
			<path class="st2" d="M849.7,4210v12.6h3.4v3.6h-3.4v4.8h-4v-4.8h-9.7v-2.4l10.9-13.8H849.7z M845.6,4222.6v-4.9l-3.9,4.9H845.6z"
				/>
		</g>
		<g class="st1">
			<path class="st2" d="M1339.2,4251.6c0.9,1.2,2.3,2.1,3.9,2.1c2,0,3.9-1.6,3.9-3.8c0-2.2-1.8-3.8-4.1-3.8c-0.8,0-1.7,0.2-2.5,0.6
				v-2.4l3.9-4.7h-7v-3.6h12.7v2.4l-3.8,4.7c2.9,1.1,4.9,3.6,4.9,6.8c0,4.4-3.5,7.4-7.8,7.4c-2.6,0-5.1-1.2-7-3.3L1339.2,4251.6z"/>
			<path class="st2" d="M1360.6,4252.4l-3.6,8.8h-2.8l2.2-8.8H1360.6z"/>
			<path class="st2" d="M1364.4,4239l5.1-3h2.8v21h-4v-16.3l-3.9,2.2V4239z"/>
		</g>
		<g class="st1">
			<path class="st2" d="M446.8,4233.6c0.9,1.2,2.3,2.1,3.9,2.1c2,0,3.9-1.6,3.9-3.8c0-2.2-1.8-3.8-4.1-3.8c-0.8,0-1.7,0.2-2.5,0.6
				v-2.4l3.9-4.7h-7v-3.6h12.7v2.4l-3.8,4.7c2.9,1.1,4.9,3.6,4.9,6.8c0,4.4-3.5,7.4-7.8,7.4c-2.6,0-5.1-1.2-7-3.3L446.8,4233.6z"/>
			<path class="st2" d="M468.2,4234.4l-3.6,8.8h-2.8l2.2-8.8H468.2z"/>
			<path class="st2" d="M473.2,4218H487v2.4l-9,18.6h-4.3l8.5-17.4h-9V4218z"/>
		</g>
		<g class="st1">
			<path class="st2" d="M951.1,4237.6c0.9,1.2,2.3,2.1,3.9,2.1c2,0,3.9-1.6,3.9-3.8c0-2.2-1.8-3.8-4.1-3.8c-0.8,0-1.7,0.2-2.5,0.6
				v-2.4l3.9-4.7h-7v-3.6h12.7v2.4l-3.8,4.7c2.9,1.1,4.9,3.6,4.9,6.8c0,4.4-3.5,7.4-7.8,7.4c-2.6,0-5.1-1.2-7-3.3L951.1,4237.6z"/>
			<path class="st2" d="M972.6,4238.4l-3.6,8.8h-2.8l2.2-8.8H972.6z"/>
			<path class="st2" d="M988.7,4222l-4,6.7h0.3c4,0,7.3,3,7.3,7.2c0,4.1-3.4,7.4-7.5,7.4c-3.9,0-7.7-2.8-7.7-7.2
				c0-2.1,1-3.9,2.1-5.8l4.9-8.3H988.7z M981.1,4236.1c0,2,1.7,3.6,3.7,3.6c2.1,0,3.5-1.7,3.5-3.7s-1.5-3.8-3.7-3.8
				c-0.8,0-1.5,0.2-2.2,0.5C981.8,4233.6,981.1,4234.7,981.1,4236.1z"/>
		</g>
		<g class="st1">
			<path class="st2" d="M1454.2,4261.6c0.9-2.9,3.5-4.9,6.6-4.9c3.6,0,6.7,2.7,6.7,6.5c0,2.5-1.3,4.4-2.7,6l-4.5,5.2h7.3v3.6H1454
				v-2.4l7.4-8.4c1.6-1.8,2.1-3,2.1-4.1c0-1.5-1.1-2.8-2.7-2.8c-1.4,0-2.4,1-2.8,2.4L1454.2,4261.6z"/>
			<path class="st2" d="M1477.1,4273.4l-3.6,8.8h-2.8l2.2-8.8H1477.1z"/>
			<path class="st2" d="M1484.7,4272.6c0.9,1.2,2.3,2.1,3.9,2.1c2,0,3.9-1.6,3.9-3.8c0-2.2-1.8-3.8-4.1-3.8c-0.8,0-1.7,0.2-2.5,0.6
				v-2.4l3.9-4.7h-7v-3.6h12.8v2.4l-3.8,4.7c2.9,1.1,4.9,3.6,4.9,6.8c0,4.4-3.5,7.4-7.8,7.4c-2.6,0-5.1-1.2-7-3.3L1484.7,4272.6z"/>
		</g>
		<g class="st1">
			<path class="st2" d="M1589.7,4278.6c0.9-2.9,3.5-4.9,6.6-4.9c3.6,0,6.7,2.7,6.7,6.5c0,2.5-1.3,4.4-2.7,6l-4.5,5.2h7.3v3.6h-13.6
				v-2.4l7.4-8.4c1.6-1.8,2.1-3,2.1-4.1c0-1.5-1.1-2.8-2.7-2.8c-1.4,0-2.4,1-2.9,2.4L1589.7,4278.6z"/>
		</g>
		<g class="st1">
			<path class="st2" d="M578.3,4183v12.6h3.4v3.6h-3.4v4.8h-4v-4.8h-9.7v-2.4l10.9-13.8H578.3z M574.3,4195.6v-4.9l-3.9,4.9H574.3z"
				/>
			<path class="st2" d="M589.8,4199.4l-3.6,8.8h-2.8l2.2-8.8H589.8z"/>
			<path class="st2" d="M594.6,4197.5c0-2.5,1.3-4.2,3-5.3c-0.9-0.8-1.7-2-1.7-3.7c0-3.2,2.6-5.8,6.1-5.8c3.5,0,6.1,2.6,6.1,5.8
				c0,1.7-0.8,2.9-1.7,3.7c1.7,1.1,3,2.8,3,5.3c0,3.8-3.3,6.8-7.5,6.8C597.9,4204.3,594.6,4201.3,594.6,4197.5z M605.5,4197.5
				c0-1.8-1.5-3.2-3.5-3.2s-3.4,1.4-3.4,3.2s1.5,3.2,3.4,3.2S605.5,4199.3,605.5,4197.5z M604.1,4188.5c0-1.2-0.8-2.2-2.1-2.2
				c-1.3,0-2.1,1-2.1,2.2c0,1.2,0.8,2.2,2.1,2.2C603.3,4190.7,604.1,4189.7,604.1,4188.5z"/>
		</g>
		<g class="st1">
			<path class="st2" d="M1065,4244.6c0.9,1.2,2.3,2.1,3.9,2.1c2,0,3.9-1.6,3.9-3.8c0-2.2-1.8-3.8-4.1-3.8c-0.8,0-1.7,0.2-2.5,0.6
				v-2.4l3.9-4.7h-7v-3.6h12.7v2.4l-3.8,4.7c2.9,1.1,4.9,3.6,4.9,6.8c0,4.4-3.5,7.4-7.8,7.4c-2.6,0-5.1-1.2-7-3.3L1065,4244.6z"/>
			<path class="st2" d="M1086.5,4245.4l-3.6,8.8h-2.8l2.2-8.8H1086.5z"/>
			<path class="st2" d="M1094.1,4244.6c0.9,1.2,2.3,2.1,3.9,2.1c2,0,3.9-1.6,3.9-3.8c0-2.2-1.8-3.8-4.1-3.8c-0.8,0-1.7,0.2-2.5,0.6
				v-2.4l3.9-4.7h-7v-3.6h12.8v2.4l-3.8,4.7c2.9,1.1,4.9,3.6,4.9,6.8c0,4.4-3.5,7.4-7.8,7.4c-2.6,0-5.1-1.2-7-3.3L1094.1,4244.6z"/>
		</g>
		<g class="st1">
			<path class="st2" d="M444.9,3846l5.1-3h2.9v21h-4v-16.3l-3.9,2.2V3846z"/>
			<path class="st2" d="M468.9,3843l-4,6.7h0.3c4,0,7.4,3,7.4,7.2c0,4.1-3.4,7.4-7.5,7.4c-3.9,0-7.7-2.8-7.7-7.2
				c0-2.1,1-3.9,2.1-5.8l4.9-8.3H468.9z M461.3,3857.1c0,2,1.7,3.6,3.7,3.6c2.1,0,3.5-1.7,3.5-3.7s-1.5-3.8-3.7-3.8
				c-0.8,0-1.5,0.2-2.2,0.5C462,3854.6,461.3,3855.7,461.3,3857.1z"/>
		</g>
		<g class="st1">
			<path class="st2" d="M949.2,3904l5.1-3h2.8v21h-4v-16.3l-3.9,2.2V3904z"/>
			<path class="st2" d="M974.7,3901v12.6h3.4v3.6h-3.4v4.8h-4v-4.8h-9.8v-2.4l10.9-13.8H974.7z M970.7,3913.6v-4.9l-3.9,4.9H970.7z"
				/>
			<path class="st2" d="M986.1,3917.4l-3.6,8.8h-2.8l2.2-8.8H986.1z"/>
			<path class="st2" d="M993.4,3917c0.9,1,2.2,1.7,3.6,1.7c0.9,0,1.8-0.3,2.5-1c0.7-0.7,1.2-1.6,1.2-2.7c0-1.1-0.5-2.2-1.3-2.8
				c-0.7-0.6-1.6-0.8-2.5-0.8c-1,0-2.2,0.4-3.1,1.1l-2.5-0.4l1.4-11.1h11.1v3.6h-7.8l-0.3,3.3c0.4-0.1,1-0.1,1.6-0.1
				c1.6,0,3.4,0.4,4.9,1.6c1.6,1.3,2.7,3.4,2.7,5.7c0,4.1-3.5,7.3-7.7,7.3c-2.4,0-4.5-0.9-6.4-2.7L993.4,3917z"/>
		</g>
		<g class="st1">
			<path class="st2" d="M1455.7,4071l4-6.7h-0.3c-4,0-7.3-3-7.3-7.2c0-4.1,3.4-7.4,7.5-7.4c3.9,0,7.7,2.8,7.7,7.2
				c0,2.1-1,3.9-2.1,5.8l-4.9,8.3H1455.7z M1463.2,4056.9c0-2-1.7-3.6-3.7-3.6c-2.1,0-3.5,1.6-3.5,3.7c0,2,1.5,3.7,3.7,3.7
				c0.8,0,1.5-0.1,2.2-0.5C1462.6,4059.4,1463.2,4058.3,1463.2,4056.9z"/>
			<path class="st2" d="M1475,4066.4l-3.6,8.8h-2.8l2.2-8.8H1475z"/>
			<path class="st2" d="M1482.2,4066c0.9,1,2.2,1.7,3.6,1.7c0.9,0,1.8-0.3,2.5-1c0.7-0.7,1.2-1.6,1.2-2.7c0-1.1-0.5-2.2-1.3-2.8
				c-0.7-0.6-1.6-0.8-2.5-0.8c-1,0-2.2,0.4-3.1,1.1l-2.5-0.4l1.4-11.1h11.1v3.6h-7.8l-0.3,3.3c0.4-0.1,1-0.1,1.6-0.1
				c1.6,0,3.4,0.4,4.9,1.6c1.6,1.3,2.7,3.4,2.7,5.7c0,4.1-3.5,7.3-7.7,7.3c-2.4,0-4.5-0.9-6.4-2.7L1482.2,4066z"/>
		</g>
		<line id="Línea_515" class="st7" x1="281.5" y1="3882.2" x2="658.5" y2="3882.2"/>
		<line id="Línea_516" class="st7" x1="790" y1="3940.2" x2="1167" y2="3940.2"/>
		<line id="Línea_517" class="st7" x1="1286" y1="4089.2" x2="1663" y2="4089.2"/>
	</g>
	<g id="Grupo_2087" transform="translate(0 -60)">
		<g id="Grupo_2064" transform="translate(150 71)">
			<line id="Línea_508" class="st7" x1="905.5" y1="4503.2" x2="967.5" y2="4503.2"/>
			<g id="Trazado_2768" transform="translate(348 4479)">
				<path class="st3" d="M20,38.5c-4.9,0-9.6-1.9-13.1-5.4C3.4,29.6,1.5,24.9,1.5,20s1.9-9.6,5.4-13.1S15.1,1.5,20,1.5
					s9.6,1.9,13.1,5.4c3.5,3.5,5.4,8.1,5.4,13.1s-1.9,9.6-5.4,13.1C29.6,36.6,24.9,38.5,20,38.5z"/>
				<path class="st8" d="M20,3c-4.5,0-8.8,1.8-12,5c-3.2,3.2-5,7.5-5,12s1.8,8.8,5,12c3.2,3.2,7.5,5,12,5s8.8-1.8,12-5
					c3.2-3.2,5-7.5,5-12s-1.8-8.8-5-12C28.8,4.8,24.5,3,20,3 M20,0c11,0,20,9,20,20s-9,20-20,20S0,31,0,20S9,0,20,0z"/>
			</g>
			<g id="Elipse_364" transform="translate(735 4481)">
				<circle class="st5" cx="20" cy="20" r="20"/>
				<circle class="st9" cx="20" cy="20" r="18.5"/>
			</g>
			<g class="st1">
				<path class="st10" d="M785.8,4496.7v10.3h-2v-14h1.4l8.4,10.3V4493h2v14h-1.4L785.8,4496.7z"/>
				<path class="st10" d="M799.8,4505.6c-0.6-0.7-0.9-1.6-0.9-3.2v-4.8h1.9v5.1c0,1,0.2,1.5,0.5,1.9c0.4,0.5,1.1,0.8,1.8,0.8
					c1.2,0,2.1-0.7,2.6-1.3v-6.5h1.9v9.4h-1.8v-0.9c-0.4,0.4-1.5,1.1-2.8,1.1C801.8,4507.2,800.5,4506.6,799.8,4505.6z"/>
				<path class="st10" d="M812.1,4502.7c0.1,1.6,1.4,2.8,3,2.8c1.4,0,2.2-0.7,2.7-1.3l1.2,1.2c-0.7,0.9-2,1.8-4,1.8
					c-2.7,0-4.9-2.1-4.9-4.9s1.9-4.9,4.6-4.9c2.6,0,4.5,2.1,4.5,4.9c0,0.1,0,0.2,0,0.4H812.1z M812.3,4501.1h5.1
					c-0.3-1.2-1.4-2-2.5-2C813.7,4499.1,812.6,4499.9,812.3,4501.1z"/>
				<path class="st10" d="M820.4,4497.6h2l2.8,6.4l2.8-6.4h2l-4.1,9.4h-1.3L820.4,4497.6z"/>
				<path class="st10" d="M838.5,4506.1c-0.8,0.7-1.8,1.1-2.9,1.1c-0.8,0-1.7-0.2-2.4-0.6c-1.4-0.8-2.4-2.4-2.4-4.3
					c0-1.9,1-3.5,2.4-4.3c0.6-0.4,1.4-0.6,2.3-0.6c1.1,0,2.1,0.3,2.9,1.1v-0.9h1.8v9.4h-1.8V4506.1z M838.5,4500.5
					c-0.6-0.8-1.5-1.3-2.7-1.3c-1.8,0-3,1.5-3,3.1c0,1.7,1.3,3.1,3.1,3.1c1,0,1.9-0.5,2.6-1.3V4500.5z"/>
				<path class="st10" d="M843.9,4504.5c0.9,0.7,1.8,1,2.8,1c0.8,0,1.6-0.4,1.6-1.2c0-1.1-1.6-1.1-2.9-1.6c-1.1-0.4-2.2-1.1-2.2-2.4
					c0-2,1.8-2.9,3.5-2.9c1.4,0,2.4,0.4,3.1,1l-1,1.4c-0.6-0.4-1.3-0.7-2-0.7c-0.9,0-1.7,0.4-1.7,1.2c0,0.6,0.7,0.9,1.7,1.1
					c1.5,0.4,3.4,1,3.4,3c0,1.8-1.7,2.9-3.5,2.9c-1.5,0-2.8-0.5-3.8-1.3L843.9,4504.5z"/>
			</g>
			<g class="st1">
				<path class="st10" d="M994.3,4504h-1.4l-4.1-6.4v9.4h-2v-14h1.4l5.4,8.5l5.4-8.5h1.4v14h-2v-9.4L994.3,4504z"/>
				<path class="st10" d="M1010.8,4506.1c-0.8,0.7-1.8,1.1-2.9,1.1c-0.8,0-1.7-0.2-2.4-0.6c-1.4-0.8-2.4-2.4-2.4-4.3
					c0-1.9,1-3.5,2.4-4.3c0.6-0.4,1.4-0.6,2.3-0.6c1.1,0,2.1,0.3,2.9,1.1v-0.9h1.8v9.4h-1.8V4506.1z M1010.7,4500.5
					c-0.6-0.8-1.5-1.3-2.7-1.3c-1.8,0-3,1.5-3,3.1c0,1.7,1.3,3.1,3.1,3.1c1,0,1.9-0.5,2.6-1.3V4500.5z M1007.2,4496l1.3-3h2.1
					l-2.1,3H1007.2z"/>
				<path class="st10" d="M1019.4,4503.5l-2.5,3.5h-2.3l3.6-4.9l-3.2-4.5h2.2l2.2,3l2.2-3h2.2l-3.2,4.5l3.6,4.9h-2.3L1019.4,4503.5z
					"/>
				<path class="st10" d="M1028.1,4504.4c0.8,0,1.4,0.6,1.4,1.4s-0.6,1.4-1.4,1.4c-0.8,0-1.4-0.6-1.4-1.4
					S1027.3,4504.4,1028.1,4504.4z"/>
				<path class="st10" d="M1039.3,4511.8h-1.9v-14.2h1.8v0.9c0.9-0.7,1.9-1.1,2.9-1.1c0.9,0,1.7,0.2,2.3,0.6
					c1.4,0.8,2.4,2.4,2.4,4.3c0,1.9-1,3.4-2.4,4.3c-0.6,0.4-1.5,0.6-2.4,0.6c-1.1,0-2.1-0.4-2.8-1V4511.8z M1039.3,4504.1
					c0.6,0.9,1.6,1.3,2.6,1.3c1.8,0,3.1-1.4,3.1-3.1c0-1.6-1.2-3.1-3-3.1c-1.1,0-2.1,0.6-2.7,1.3V4504.1z"/>
				<path class="st10" d="M1050.2,4505.6c-0.6-0.7-0.9-1.6-0.9-3.2v-4.8h1.9v5.1c0,1,0.2,1.5,0.5,1.9c0.4,0.5,1.1,0.8,1.8,0.8
					c1.2,0,2.1-0.7,2.6-1.3v-6.5h1.9v9.4h-1.8v-0.9c-0.4,0.4-1.5,1.1-2.8,1.1C1052.2,4507.2,1050.9,4506.6,1050.2,4505.6z"/>
				<path class="st10" d="M1063.3,4498.5c0.5-0.5,1.5-1.1,2.8-1.1c1.4,0,2.6,0.6,3.4,1.7c0.6,0.8,0.9,1.7,0.9,3.3v4.6h-1.9v-4.7
					c0-1.2-0.2-1.8-0.6-2.2c-0.4-0.6-1.2-0.9-1.9-0.9c-1.2,0-2.1,0.7-2.7,1.3v6.5h-1.9v-9.4h1.8V4498.5z"/>
				<path class="st10" d="M1079.4,4507c-0.4,0.1-0.9,0.2-1.5,0.2c-1.2,0-2.1-0.4-2.7-1.1c-0.6-0.6-0.8-1.5-0.8-2.5v-4.3h-2.4v-1.7
					h2.4v-2.6h1.9v2.6h3v1.7h-3v4.4c0,0.5,0,0.9,0.3,1.2c0.3,0.3,0.8,0.5,1.3,0.5c0.3,0,0.8,0,1-0.1L1079.4,4507z"/>
				<path class="st10" d="M1088.6,4506.1c-0.8,0.7-1.8,1.1-2.9,1.1c-0.8,0-1.7-0.2-2.4-0.6c-1.4-0.8-2.4-2.4-2.4-4.3
					c0-1.9,1-3.5,2.4-4.3c0.6-0.4,1.4-0.6,2.3-0.6c1.1,0,2.1,0.3,2.9,1.1v-0.9h1.8v9.4h-1.8V4506.1z M1088.5,4500.5
					c-0.6-0.8-1.5-1.3-2.7-1.3c-1.8,0-3,1.5-3,3.1c0,1.7,1.3,3.1,3.1,3.1c1,0,1.9-0.5,2.6-1.3V4500.5z"/>
				<path class="st10" d="M1094.2,4497.6h1.9v10.2c0,1.3-0.2,2-0.6,2.6c-0.7,1-1.8,1.6-3.1,1.6c-0.4,0-0.9-0.1-1.1-0.1l0.4-1.7
					c0.1,0,0.4,0.1,0.7,0.1c0.5,0,1.1-0.2,1.4-0.7c0.3-0.3,0.4-0.8,0.4-1.7V4497.6z M1095.1,4493c0.7,0,1.3,0.6,1.3,1.3
					s-0.6,1.2-1.3,1.2s-1.2-0.5-1.2-1.2S1094.4,4493,1095.1,4493z"/>
				<path class="st10" d="M1100.5,4502.7c0.1,1.6,1.4,2.8,3,2.8c1.4,0,2.2-0.7,2.7-1.3l1.2,1.2c-0.7,0.9-2,1.8-4,1.8
					c-2.7,0-4.9-2.1-4.9-4.9s1.9-4.9,4.6-4.9c2.6,0,4.5,2.1,4.5,4.9c0,0.1,0,0.2,0,0.4H1100.5z M1100.7,4501.1h5.1
					c-0.3-1.2-1.4-2-2.5-2C1102.1,4499.1,1101,4499.9,1100.7,4501.1z"/>
				<path class="st10" d="M1117.7,4511.8h-1.9v-14.2h1.8v0.9c0.9-0.7,1.9-1.1,2.9-1.1c0.9,0,1.7,0.2,2.3,0.6
					c1.4,0.8,2.4,2.4,2.4,4.3c0,1.9-1,3.4-2.4,4.3c-0.6,0.4-1.5,0.6-2.4,0.6c-1.1,0-2.1-0.4-2.8-1V4511.8z M1117.7,4504.1
					c0.6,0.9,1.6,1.3,2.6,1.3c1.8,0,3.1-1.4,3.1-3.1c0-1.6-1.2-3.1-3-3.1c-1.1,0-2.1,0.6-2.7,1.3V4504.1z"/>
				<path class="st10" d="M1132,4497.4c2.8,0,4.9,2.1,4.9,4.9s-2.1,4.9-4.9,4.9c-2.8,0-4.9-2.1-4.9-4.9S1129.2,4497.4,1132,4497.4z
					 M1132,4505.4c1.7,0,3-1.4,3-3.1c0-1.7-1.2-3.1-3-3.1s-3,1.4-3,3.1C1129,4504,1130.2,4505.4,1132,4505.4z"/>
				<path class="st10" d="M1139.5,4504.5c0.9,0.7,1.8,1,2.8,1c0.8,0,1.6-0.4,1.6-1.2c0-1.1-1.6-1.1-2.9-1.6
					c-1.1-0.4-2.2-1.1-2.2-2.4c0-2,1.8-2.9,3.5-2.9c1.4,0,2.4,0.4,3.1,1l-1,1.4c-0.6-0.4-1.3-0.7-2-0.7c-0.9,0-1.7,0.4-1.7,1.2
					c0,0.6,0.7,0.9,1.7,1.1c1.5,0.4,3.4,1,3.4,3c0,1.8-1.7,2.9-3.5,2.9c-1.5,0-2.8-0.5-3.8-1.3L1139.5,4504.5z"/>
				<path class="st10" d="M1149.5,4493c0.7,0,1.3,0.6,1.3,1.3s-0.6,1.2-1.3,1.2c-0.7,0-1.2-0.5-1.2-1.2S1148.8,4493,1149.5,4493z
					 M1148.5,4497.6h1.9v9.4h-1.9V4497.6z"/>
				<path class="st10" d="M1155.7,4507h-1.8v-14.2h1.9v5.6c0.8-0.7,1.9-1,2.9-1c0.9,0,1.7,0.2,2.3,0.6c1.4,0.8,2.4,2.4,2.4,4.3
					c0,1.9-1,3.4-2.4,4.3c-0.6,0.4-1.5,0.6-2.4,0.6c-1.1,0-2.1-0.4-2.9-1.1V4507z M1155.7,4504.1c0.6,0.9,1.6,1.3,2.6,1.3
					c1.8,0,3.1-1.4,3.1-3.1c0-1.6-1.2-3.1-3-3.1c-1.1,0-2.1,0.6-2.7,1.3V4504.1z"/>
				<path class="st10" d="M1165.9,4492.8h1.9v14.2h-1.9V4492.8z"/>
				<path class="st10" d="M1172.3,4502.7c0.1,1.6,1.4,2.8,3,2.8c1.4,0,2.2-0.7,2.7-1.3l1.2,1.2c-0.7,0.9-2,1.8-4,1.8
					c-2.7,0-4.9-2.1-4.9-4.9s1.9-4.9,4.6-4.9c2.6,0,4.5,2.1,4.5,4.9c0,0.1,0,0.2,0,0.4H1172.3z M1172.4,4501.1h5.1
					c-0.3-1.2-1.4-2-2.5-2C1173.8,4499.1,1172.7,4499.9,1172.4,4501.1z"/>
			</g>
			<g class="st1">
				<path class="st10" d="M398.8,4500.8v6.2h-2v-14h5.3c1.4,0,2.2,0.3,2.9,0.9c0.8,0.7,1.4,1.8,1.4,3s-0.5,2.3-1.4,3
					c-0.7,0.6-1.6,0.9-2.9,0.9H398.8z M402,4498.9c1,0,1.5-0.2,1.8-0.6c0.3-0.4,0.6-0.8,0.6-1.4s-0.2-1-0.6-1.4
					c-0.4-0.4-0.9-0.6-1.8-0.6h-3.2v4H402z"/>
				<path class="st10" d="M409.6,4493c0.7,0,1.3,0.6,1.3,1.3s-0.6,1.2-1.3,1.2s-1.2-0.5-1.2-1.2S408.9,4493,409.6,4493z
					 M408.7,4497.6h1.9v9.4h-1.9V4497.6z"/>
				<path class="st10" d="M414,4492.8h1.9v14.2H414V4492.8z"/>
				<path class="st10" d="M426.2,4506.1c-0.8,0.7-1.8,1.1-2.9,1.1c-0.8,0-1.7-0.2-2.4-0.6c-1.4-0.8-2.4-2.4-2.4-4.3
					c0-1.9,1-3.5,2.4-4.3c0.6-0.4,1.4-0.6,2.3-0.6c1.1,0,2.1,0.3,2.9,1.1v-0.9h1.8v9.4h-1.8V4506.1z M426.1,4500.5
					c-0.6-0.8-1.5-1.3-2.7-1.3c-1.8,0-3,1.5-3,3.1c0,1.7,1.3,3.1,3.1,3.1c1,0,1.9-0.5,2.6-1.3V4500.5z"/>
				<path class="st10" d="M436.6,4499.3c-0.2-0.1-0.4-0.1-0.7-0.1c-1,0-2,0.7-2.5,1.6v6.2h-1.9v-9.4h1.8v1.1
					c0.5-0.6,1.4-1.3,2.8-1.3c0.2,0,0.5,0,0.7,0.1L436.6,4499.3z"/>
				<path class="st10" d="M439.7,4502.7c0.1,1.6,1.4,2.8,3,2.8c1.4,0,2.2-0.7,2.7-1.3l1.2,1.2c-0.7,0.9-2,1.8-4,1.8
					c-2.7,0-4.9-2.1-4.9-4.9s1.9-4.9,4.6-4.9c2.6,0,4.5,2.1,4.5,4.9c0,0.1,0,0.2,0,0.4H439.7z M439.9,4501.1h5.1
					c-0.3-1.2-1.4-2-2.5-2C441.3,4499.1,440.2,4499.9,439.9,4501.1z"/>
				<path class="st10" d="M449.7,4504.5c0.9,0.7,1.8,1,2.8,1c0.8,0,1.6-0.4,1.6-1.2c0-1.1-1.6-1.1-2.9-1.6c-1.1-0.4-2.2-1.1-2.2-2.4
					c0-2,1.8-2.9,3.5-2.9c1.4,0,2.4,0.4,3.1,1l-1,1.4c-0.6-0.4-1.3-0.7-2-0.7c-0.9,0-1.7,0.4-1.7,1.2c0,0.6,0.7,0.9,1.7,1.1
					c1.5,0.4,3.4,1,3.4,3c0,1.8-1.7,2.9-3.5,2.9c-1.5,0-2.8-0.5-3.8-1.3L449.7,4504.5z"/>
			</g>
			<g id="Elipse_365" transform="translate(510 4480)">
				<circle class="st4" cx="20" cy="20" r="20"/>
				<circle class="st9" cx="20" cy="20" r="18.5"/>
			</g>
			<g class="st1">
				<path class="st10" d="M565.8,4492.8c2,0,3.9,0.8,5.1,2.2l-1.3,1.3c-0.8-0.9-2.3-1.6-3.8-1.6c-2.9,0-5.1,2.3-5.1,5.3
					c0,3.2,2.3,5.3,5.3,5.3c1.9,0,3.2-1,4-2l1.4,1.3c-1.2,1.5-3.3,2.6-5.4,2.6c-4.2,0-7.3-3.1-7.3-7.2
					C558.7,4496,561.7,4492.8,565.8,4492.8z"/>
				<path class="st10" d="M574.5,4502.7c0.1,1.6,1.4,2.8,3,2.8c1.4,0,2.2-0.7,2.7-1.3l1.2,1.2c-0.7,0.9-2,1.8-4,1.8
					c-2.7,0-4.9-2.1-4.9-4.9s1.9-4.9,4.6-4.9c2.6,0,4.5,2.1,4.5,4.9c0,0.1,0,0.2,0,0.4H574.5z M574.7,4501.1h5.1
					c-0.3-1.2-1.4-2-2.5-2C576.1,4499.1,575,4499.9,574.7,4501.1z"/>
				<path class="st10" d="M586.2,4498.5c0.5-0.5,1.5-1.1,2.8-1.1c1.4,0,2.6,0.6,3.4,1.7c0.6,0.8,0.9,1.7,0.9,3.3v4.6h-1.9v-4.7
					c0-1.2-0.2-1.8-0.6-2.2c-0.4-0.6-1.2-0.9-1.9-0.9c-1.2,0-2.1,0.7-2.7,1.3v6.5h-1.9v-9.4h1.8V4498.5z"/>
				<path class="st10" d="M602.3,4507c-0.4,0.1-0.9,0.2-1.5,0.2c-1.2,0-2.1-0.4-2.7-1.1c-0.6-0.6-0.8-1.5-0.8-2.5v-4.3H595v-1.7h2.4
					v-2.6h1.9v2.6h3v1.7h-3v4.4c0,0.5,0,0.9,0.3,1.2c0.3,0.3,0.8,0.5,1.3,0.5c0.3,0,0.8,0,1-0.1L602.3,4507z"/>
				<path class="st10" d="M610.1,4499.3c-0.2-0.1-0.4-0.1-0.7-0.1c-1,0-2,0.7-2.5,1.6v6.2h-1.9v-9.4h1.8v1.1
					c0.5-0.6,1.4-1.3,2.8-1.3c0.2,0,0.5,0,0.7,0.1L610.1,4499.3z"/>
				<path class="st10" d="M619.1,4506.1c-0.8,0.7-1.8,1.1-2.9,1.1c-0.8,0-1.7-0.2-2.4-0.6c-1.4-0.8-2.4-2.4-2.4-4.3
					c0-1.9,1-3.5,2.4-4.3c0.6-0.4,1.4-0.6,2.3-0.6c1.1,0,2.1,0.3,2.9,1.1v-0.9h1.8v9.4h-1.8V4506.1z M619,4500.5
					c-0.6-0.8-1.5-1.3-2.7-1.3c-1.8,0-3,1.5-3,3.1c0,1.7,1.3,3.1,3.1,3.1c1,0,1.9-0.5,2.6-1.3V4500.5z"/>
				<path class="st10" d="M624.3,4492.8h1.9v14.2h-1.9V4492.8z"/>
				<path class="st10" d="M630.5,4493c0.7,0,1.3,0.6,1.3,1.3s-0.6,1.2-1.3,1.2s-1.2-0.5-1.2-1.2S629.8,4493,630.5,4493z
					 M629.6,4497.6h1.9v9.4h-1.9V4497.6z"/>
				<path class="st10" d="M639.2,4499.3h-4.9v-1.7h7.5v1.2l-5.2,6.5h5.6v1.7H634v-1.2L639.2,4499.3z"/>
				<path class="st10" d="M651.2,4506.1c-0.8,0.7-1.8,1.1-2.9,1.1c-0.8,0-1.7-0.2-2.4-0.6c-1.4-0.8-2.4-2.4-2.4-4.3
					c0-1.9,1-3.5,2.4-4.3c0.6-0.4,1.4-0.6,2.3-0.6c1.1,0,2.1,0.3,2.9,1.1v-0.9h1.8v9.4h-1.8V4506.1z M651.1,4500.5
					c-0.6-0.8-1.5-1.3-2.7-1.3c-1.8,0-3,1.5-3,3.1c0,1.7,1.3,3.1,3.1,3.1c1,0,1.9-0.5,2.6-1.3V4500.5z"/>
				<path class="st10" d="M663.3,4506.1c-0.8,0.7-1.8,1.1-2.9,1.1c-0.8,0-1.7-0.2-2.4-0.6c-1.4-0.8-2.4-2.4-2.4-4.3
					c0-1.9,1-3.5,2.4-4.3c0.6-0.4,1.4-0.6,2.3-0.6c1,0,2,0.3,2.9,1v-5.6h1.9v14.2h-1.8V4506.1z M663.2,4500.5
					c-0.6-0.8-1.5-1.3-2.7-1.3c-1.8,0-3,1.5-3,3.1c0,1.7,1.3,3.1,3.1,3.1c1,0,1.9-0.5,2.6-1.3V4500.5z"/>
				<path class="st10" d="M675.4,4506.1c-0.8,0.7-1.8,1.1-2.9,1.1c-0.8,0-1.7-0.2-2.4-0.6c-1.4-0.8-2.4-2.4-2.4-4.3
					c0-1.9,1-3.5,2.4-4.3c0.6-0.4,1.4-0.6,2.3-0.6c1.1,0,2.1,0.3,2.9,1.1v-0.9h1.8v9.4h-1.8V4506.1z M675.3,4500.5
					c-0.6-0.8-1.5-1.3-2.7-1.3c-1.8,0-3,1.5-3,3.1c0,1.7,1.3,3.1,3.1,3.1c1,0,1.9-0.5,2.6-1.3V4500.5z"/>
				<path class="st10" d="M680.7,4504.5c0.9,0.7,1.8,1,2.8,1c0.8,0,1.6-0.4,1.6-1.2c0-1.1-1.6-1.1-2.9-1.6c-1.1-0.4-2.2-1.1-2.2-2.4
					c0-2,1.8-2.9,3.5-2.9c1.4,0,2.4,0.4,3.1,1l-1,1.4c-0.6-0.4-1.3-0.7-2-0.7c-0.9,0-1.7,0.4-1.7,1.2c0,0.6,0.7,0.9,1.7,1.1
					c1.5,0.4,3.4,1,3.4,3c0,1.8-1.7,2.9-3.5,2.9c-1.5,0-2.8-0.5-3.8-1.3L680.7,4504.5z"/>
			</g>
		</g>
	</g>
</g>
</svg>
