<?xml version="1.0" encoding="utf-8"?>
<!-- Generator: Adobe Illustrator 25.2.0, SVG Export Plug-In . SVG Version: 6.00 Build 0)  -->
<svg version="1.1" id="Capa_1" xmlns="http://www.w3.org/2000/svg" xmlns:xlink="http://www.w3.org/1999/xlink" x="0px" y="0px"
	 viewBox="0 0 1328.8 911.5" style="enable-background:new 0 0 1328.8 911.5;" xml:space="preserve">
<style type="text/css">
	.st0{enable-background:new    ;}
	.st1{fill:#333333;}
	.st2{fill:#100000;}
	.st3{fill:#6D6A6A;}
	.st4{fill:none;stroke:#717171;stroke-width:4;stroke-miterlimit:10;}
	.st5{fill:none;stroke:#989898;stroke-miterlimit:10;}
	.st6{fill:#FF7043;}
	.st7{fill:none;stroke:#FF7043;stroke-width:3;stroke-linecap:square;stroke-dasharray:6,8;}
	.st8{fill:#FFFFFF;}
	.st9{fill:#AAAAAA;}
</style>
<g id="Grupo_2482" transform="translate(-235 -1828.5)">
	<g class="st0">
		<path class="st1" d="M299.6,1831.5l3.4-2h1.9v14h-2.7v-10.9l-2.6,1.4V1831.5z"/>
		<path class="st1" d="M313,1829.3c3.6,0,4.9,3.2,4.9,7.2c0,4-1.3,7.2-4.9,7.2c-3.6,0-4.9-3.2-4.9-7.2
			C308.1,1832.5,309.4,1829.3,313,1829.3z M313,1831.7c-1.6,0-2.2,2.2-2.2,4.8c0,2.6,0.6,4.8,2.2,4.8c1.6,0,2.2-2.2,2.2-4.8
			C315.2,1833.9,314.6,1831.7,313,1831.7z"/>
		<path class="st1" d="M325,1829.3c3.6,0,4.9,3.2,4.9,7.2c0,4-1.3,7.2-4.9,7.2c-3.6,0-4.9-3.2-4.9-7.2
			C320.1,1832.5,321.4,1829.3,325,1829.3z M325,1831.7c-1.6,0-2.2,2.2-2.2,4.8c0,2.6,0.6,4.8,2.2,4.8c1.6,0,2.2-2.2,2.2-4.8
			C327.2,1833.9,326.6,1831.7,325,1831.7z"/>
	</g>
	<g class="st0">
		<path class="st1" d="M310.1,1999.5h9.2v1.6l-6,12.4h-2.9l5.7-11.6h-6V1999.5z"/>
		<path class="st1" d="M322.3,2010.2c0.6,0.6,1.5,1.1,2.4,1.1c0.6,0,1.2-0.2,1.7-0.6c0.5-0.4,0.8-1.1,0.8-1.8c0-0.8-0.3-1.4-0.9-1.9
			c-0.4-0.4-1-0.6-1.7-0.6c-0.7,0-1.5,0.3-2.1,0.8l-1.7-0.2l0.9-7.4h7.4v2.4H324l-0.2,2.2c0.3-0.1,0.7-0.1,1.1-0.1
			c1.1,0,2.3,0.3,3.3,1.1c1.1,0.9,1.8,2.3,1.8,3.8c0,2.8-2.3,4.8-5.2,4.8c-1.6,0-3-0.6-4.2-1.8L322.3,2010.2z"/>
	</g>
	<g class="st0">
		<path class="st1" d="M310.3,2185.6c0.6,0.6,1.5,1.1,2.4,1.1c0.6,0,1.2-0.2,1.7-0.6c0.5-0.4,0.8-1.1,0.8-1.8c0-0.8-0.3-1.4-0.9-1.9
			c-0.4-0.4-1-0.6-1.7-0.6c-0.7,0-1.5,0.3-2.1,0.8l-1.7-0.2l0.9-7.4h7.4v2.4H312l-0.2,2.2c0.3-0.1,0.7-0.1,1.1-0.1
			c1.1,0,2.3,0.3,3.3,1.1c1.1,0.9,1.8,2.3,1.8,3.8c0,2.8-2.3,4.8-5.2,4.8c-1.6,0-3-0.6-4.2-1.8L310.3,2185.6z"/>
		<path class="st1" d="M325,2174.7c3.6,0,4.9,3.2,4.9,7.2c0,4-1.3,7.2-4.9,7.2c-3.6,0-4.9-3.2-4.9-7.2
			C320.1,2177.9,321.4,2174.7,325,2174.7z M325,2177.1c-1.6,0-2.2,2.2-2.2,4.8c0,2.6,0.6,4.8,2.2,4.8c1.6,0,2.2-2.2,2.2-4.8
			C327.2,2179.3,326.6,2177.1,325,2177.1z"/>
	</g>
	<g class="st0">
		<path class="st1" d="M309.9,2353.4c0.6-1.9,2.4-3.2,4.4-3.2c2.4,0,4.5,1.8,4.5,4.3c0,1.7-0.9,2.9-1.8,4l-3,3.5h4.9v2.4h-9.1v-1.6
			l4.9-5.6c1.1-1.2,1.4-2,1.4-2.7c0-1-0.8-1.9-1.8-1.9c-0.9,0-1.6,0.6-1.9,1.6L309.9,2353.4z"/>
		<path class="st1" d="M322.3,2361c0.6,0.6,1.5,1.1,2.4,1.1c0.6,0,1.2-0.2,1.7-0.6c0.5-0.4,0.8-1.1,0.8-1.8c0-0.8-0.3-1.4-0.9-1.9
			c-0.4-0.4-1-0.6-1.7-0.6c-0.7,0-1.5,0.3-2.1,0.8l-1.7-0.2l0.9-7.4h7.4v2.4H324l-0.2,2.2c0.3-0.1,0.7-0.1,1.1-0.1
			c1.1,0,2.3,0.3,3.3,1.1c1.1,0.9,1.8,2.3,1.8,3.8c0,2.8-2.3,4.8-5.2,4.8c-1.6,0-3-0.6-4.2-1.8L322.3,2361z"/>
	</g>
	<g class="st0">
		<path class="st1" d="M325,2512.3c3.6,0,4.9,3.2,4.9,7.2c0,4-1.3,7.2-4.9,7.2c-3.6,0-4.9-3.2-4.9-7.2
			C320.1,2515.5,321.4,2512.3,325,2512.3z M325,2514.7c-1.6,0-2.2,2.2-2.2,4.8c0,2.6,0.6,4.8,2.2,4.8c1.6,0,2.2-2.2,2.2-4.8
			C327.2,2516.9,326.6,2514.7,325,2514.7z"/>
	</g>
	<g class="st0">
		<path class="st2" d="M256.8,2324.8h6.2v2h-14v-5.3c0-1.4,0.3-2.2,0.9-2.9c0.7-0.8,1.8-1.4,3-1.4s2.3,0.5,3,1.4
			c0.6,0.7,0.9,1.6,0.9,2.9V2324.8z M254.9,2321.6c0-1-0.2-1.5-0.6-1.8c-0.4-0.3-0.8-0.6-1.4-0.6s-1,0.2-1.4,0.6
			c-0.4,0.4-0.6,0.9-0.6,1.8v3.2h4V2321.6z"/>
		<path class="st2" d="M261.4,2313.6c-1,0.9-2.3,1.5-4.2,1.5H249v-2h8.3c1.3,0,2.1-0.3,2.8-0.9c0.8-0.7,1.2-1.7,1.2-2.9
			s-0.5-2.2-1.2-2.9c-0.6-0.6-1.4-0.9-2.8-0.9H249v-2h8.2c1.9,0,3.2,0.6,4.2,1.5c1.1,1.1,1.8,2.6,1.8,4.3
			C263.2,2310.9,262.5,2312.5,261.4,2313.6z"/>
		<path class="st2" d="M252.7,2298H263v2h-14v-1.4l10.3-8.4H249v-2h14v1.4L252.7,2298z"/>
		<path class="st2" d="M249,2286.1v-9.6h1.9v3.8H263v2h-12.1v3.8H249z"/>
		<path class="st2" d="M259.4,2267.9v5.9l3.6,1.5v2.1l-14-5.8v-1.4l14-5.8v2.1L259.4,2267.9z M257.5,2273v-4.3l-5.2,2.2L257.5,2273z
			"/>
		<path class="st2" d="M260.2,2262.4c0.7-0.3,1.1-1,1.1-1.9c0-0.6-0.3-1.2-0.8-1.6c-0.3-0.2-0.7-0.4-1.6-0.4H249v-2h9.8
			c1.1,0,1.8,0.2,2.4,0.5c1.2,0.7,2,2,2,3.5c0,1.6-0.8,3-2.3,3.6L260.2,2262.4z"/>
		<path class="st2" d="M254.5,2246.6h1.9v4.6h4.7v-6.2h1.9v8.2h-14v-8h1.9v6h3.6V2246.6z"/>
		<path class="st2" d="M249,2239.1v-9.6h1.9v3.8H263v2h-12.1v3.8H249z"/>
		<path class="st2" d="M248.8,2222.1c0-4,3.1-7,7.2-7c4.1,0,7.2,3,7.2,7s-3.1,7-7.2,7C251.9,2229.1,248.8,2226.1,248.8,2222.1z
			 M261.3,2222.1c0-2.9-2.3-5-5.3-5c-3,0-5.3,2.1-5.3,5c0,2.9,2.3,5,5.3,5C259,2227.1,261.3,2225,261.3,2222.1z"/>
		<path class="st2" d="M249,2214.7v-9.6h1.9v3.8H263v2h-12.1v3.8H249z"/>
		<path class="st2" d="M259.4,2196.5v5.9l3.6,1.5v2.1l-14-5.8v-1.4l14-5.8v2.1L259.4,2196.5z M257.5,2201.6v-4.3l-5.2,2.2
			L257.5,2201.6z"/>
		<path class="st2" d="M261.1,2189v-6.2h1.9v8.2h-14v-2H261.1z"/>
		<path class="st2" d="M248,2175l-3-1.3v-2.1l3,2.1V2175z M249,2175.2v-2h14v2H249z"/>
		<path class="st2" d="M252.7,2167.6H263v2h-14v-1.4l10.3-8.4H249v-2h14v1.4L252.7,2167.6z"/>
		<path class="st2" d="M263,2154.2h-14v-4.2c0-2.2,0.5-3.7,1.3-4.8c1.3-1.7,3.4-2.8,5.7-2.8c2.3,0,4.4,1.1,5.7,2.8
			c0.8,1.1,1.3,2.6,1.3,4.8V2154.2z M252.1,2146.1c-0.8,0.9-1.2,2-1.2,4v2.1h10.2v-2.1c0-2-0.4-3.1-1.2-4c-0.9-1.1-2.4-1.7-3.9-1.7
			C254.4,2144.4,253,2145.1,252.1,2146.1z"/>
		<path class="st2" d="M249,2139.9v-2h14v2H249z"/>
		<path class="st2" d="M248.8,2128.4c0-2,0.8-3.9,2.2-5.1l1.3,1.3c-0.9,0.8-1.6,2.3-1.6,3.8c0,2.9,2.3,5.1,5.3,5.1
			c3.2,0,5.3-2.3,5.3-5.3c0-1.9-1-3.2-2-4l1.3-1.4c1.5,1.2,2.6,3.3,2.6,5.4c0,4.2-3.1,7.3-7.2,7.3
			C252,2135.4,248.8,2132.4,248.8,2128.4z"/>
		<path class="st2" d="M254.5,2113.9h1.9v4.6h4.7v-6.2h1.9v8.2h-14v-8h1.9v6h3.6V2113.9z"/>
	</g>
	<g class="st0">
		<path class="st3" d="M506.5,2614.5h-1.4l-4.1-6.4v9.4h-2v-14h1.4l5.4,8.5l5.4-8.5h1.4v14h-2v-9.4L506.5,2614.5z"/>
		<path class="st3" d="M522.8,2609v1.9h-4.6v4.7h6.2v1.9h-8.2v-14h8v1.9h-6v3.6H522.8z"/>
		<path class="st3" d="M527,2617.5v-14h4.2c2.2,0,3.7,0.5,4.8,1.3c1.7,1.3,2.8,3.4,2.8,5.7c0,2.3-1.1,4.4-2.8,5.7
			c-1.1,0.8-2.6,1.3-4.8,1.3H527z M535.1,2606.6c-0.9-0.8-2-1.2-4-1.2H529v10.2h2.1c2,0,3.1-0.4,4-1.2c1.1-0.9,1.7-2.4,1.7-3.9
			C536.8,2608.9,536.2,2607.5,535.1,2606.6z"/>
		<path class="st3" d="M541.3,2603.5h2v14h-2V2603.5z"/>
		<path class="st3" d="M554.6,2613.9h-5.9l-1.5,3.6h-2.1l5.8-14h1.4l5.8,14h-2.1L554.6,2613.9z M549.5,2612h4.3l-2.2-5.2L549.5,2612
			z"/>
		<path class="st3" d="M562.1,2607.2v10.3h-2v-14h1.4l8.4,10.3v-10.3h2v14h-1.4L562.1,2607.2z"/>
		<path class="st3" d="M583.2,2613.9h-5.9l-1.5,3.6h-2.1l5.8-14h1.4l5.8,14h-2.1L583.2,2613.9z M578.1,2612h4.3l-2.2-5.2L578.1,2612
			z"/>
		<path class="st3" d="M590.5,2607.9c0.8,0,1.4,0.6,1.4,1.4c0,0.8-0.6,1.4-1.4,1.4c-0.8,0-1.4-0.6-1.4-1.4
			C589.1,2608.5,589.7,2607.9,590.5,2607.9z M590.5,2614.9c0.8,0,1.4,0.6,1.4,1.4s-0.6,1.4-1.4,1.4c-0.8,0-1.4-0.6-1.4-1.4
			S589.7,2614.9,590.5,2614.9z"/>
		<path class="st3" d="M603.8,2606.5c0.7-2.6,2.9-3.2,4.1-3.2c2.4,0,4.3,1.9,4.3,4.2c0,1.6-0.8,2.9-1.8,4.1l-3.5,4h5.3v1.9h-8.4
			v-1.3l4.8-5.5c1.1-1.3,1.6-2,1.6-3.2c0-1.2-0.9-2.3-2.2-2.3c-1.3,0-2,0.8-2.4,1.9L603.8,2606.5z"/>
		<path class="st3" d="M618.8,2608.2c0.3,0,0.5,0,0.8,0c2.6,0,4.6,2,4.6,4.7c0,2.7-2.1,4.8-4.9,4.8c-2.8,0-4.8-2.1-4.8-4.7
			c0-0.7,0.1-1.3,0.5-2.1c0.3-0.6,0.8-1.4,1.3-2.3l3.3-5h2.3L618.8,2608.2z M616.5,2612.9c0,1.7,1.2,2.9,2.9,2.9
			c1.7,0,2.9-1.3,2.9-2.9c0-1.6-1.2-2.9-2.8-2.9c-0.9,0-1.7,0.3-2.2,0.7C616.7,2611.5,616.5,2612.1,616.5,2612.9z"/>
		<path class="st3" d="M629.7,2615.1l-2.4,5.2H626l1.5-5.2H629.7z"/>
		<path class="st3" d="M632.3,2607.4v-2l3.3-1.9h1.4v14h-2V2606L632.3,2607.4z"/>
		<path class="st3" d="M640.1,2606.5c0.7-2.6,2.9-3.2,4.1-3.2c2.4,0,4.3,1.9,4.3,4.2c0,1.6-0.8,2.9-1.8,4.1l-3.5,4h5.3v1.9h-8.4
			v-1.3l4.8-5.5c1.1-1.3,1.6-2,1.6-3.2c0-1.2-0.9-2.3-2.2-2.3c-1.3,0-2,0.8-2.4,1.9L640.1,2606.5z"/>
	</g>
	<g class="st0">
		<path class="st3" d="M505.4,2647.5v-14h4.2c2.2,0,3.7,0.5,4.8,1.3c1.7,1.3,2.8,3.4,2.8,5.7c0,2.3-1.1,4.4-2.8,5.7
			c-1.1,0.8-2.6,1.3-4.8,1.3H505.4z M513.5,2636.6c-0.9-0.8-2-1.2-4-1.2h-2.1v10.2h2.1c2,0,3.1-0.4,4-1.2c1.1-0.9,1.7-2.4,1.7-3.9
			C515.2,2638.9,514.5,2637.5,513.5,2636.6z"/>
		<path class="st3" d="M526.3,2639v1.9h-4.6v4.7h6.2v1.9h-8.2v-14h8v1.9h-6v3.6H526.3z"/>
		<path class="st3" d="M530.6,2644c0.8,1,2,1.8,3.4,1.8c1.3,0,2.4-0.8,2.4-2.1c0-2.1-3-2.4-4.8-3.6c-1-0.7-1.8-1.6-1.8-3.1
			c0-2,1.8-3.7,4.2-3.7c1.8,0,3,0.8,3.8,1.4l-1.2,1.5c-0.8-0.6-1.6-1-2.5-1c-1.2,0-2.3,0.7-2.3,1.9c0,1.8,3,2.2,4.8,3.4
			c0.9,0.6,1.8,1.6,1.8,3.2c0,2.5-1.9,4.1-4.3,4.1c-1.9,0-3.7-0.8-4.9-2.3L530.6,2644z"/>
		<path class="st3" d="M546.1,2647.5h-1.4l-5.5-14h2.1l4.1,10.6l4.1-10.6h2.1L546.1,2647.5z"/>
		<path class="st3" d="M553.6,2644.9c0.8,0,1.4,0.6,1.4,1.4s-0.6,1.4-1.4,1.4c-0.8,0-1.4-0.6-1.4-1.4S552.8,2644.9,553.6,2644.9z"/>
		<path class="st3" d="M569.6,2639v1.9H565v4.7h6.2v1.9H563v-14h8v1.9h-6v3.6H569.6z"/>
		<path class="st3" d="M574,2644c0.8,1,2,1.8,3.4,1.8c1.3,0,2.4-0.8,2.4-2.1c0-2.1-3-2.4-4.8-3.6c-1-0.7-1.8-1.6-1.8-3.1
			c0-2,1.8-3.7,4.2-3.7c1.8,0,3,0.8,3.8,1.4l-1.2,1.5c-0.8-0.6-1.6-1-2.5-1c-1.2,0-2.3,0.7-2.3,1.9c0,1.8,3,2.2,4.8,3.4
			c0.9,0.6,1.8,1.6,1.8,3.2c0,2.5-1.9,4.1-4.3,4.1c-1.9,0-3.7-0.8-4.9-2.3L574,2644z"/>
		<path class="st3" d="M582.5,2633.5h9.6v1.9h-3.8v12.1h-2v-12.1h-3.8V2633.5z"/>
		<path class="st3" d="M595.6,2637.9c0.8,0,1.4,0.6,1.4,1.4c0,0.8-0.6,1.4-1.4,1.4c-0.8,0-1.4-0.6-1.4-1.4
			C594.2,2638.5,594.9,2637.9,595.6,2637.9z M595.6,2644.9c0.8,0,1.4,0.6,1.4,1.4s-0.6,1.4-1.4,1.4c-0.8,0-1.4-0.6-1.4-1.4
			S594.9,2644.9,595.6,2644.9z"/>
		<path class="st3" d="M603.6,2636.5c0.7-2.6,2.9-3.2,4.1-3.2c2.4,0,4.3,1.9,4.3,4.2c0,1.6-0.8,2.9-1.8,4.1l-3.5,4h5.3v1.9h-8.4
			v-1.3l4.8-5.5c1.1-1.3,1.6-2,1.6-3.2c0-1.2-0.9-2.3-2.2-2.3c-1.3,0-2,0.8-2.4,1.9L603.6,2636.5z"/>
		<path class="st3" d="M619.1,2633.3c3.5,0,4.8,3.2,4.8,7.2c0,4-1.3,7.2-4.8,7.2c-3.5,0-4.8-3.2-4.8-7.2
			C614.3,2636.5,615.6,2633.3,619.1,2633.3z M619.1,2635.2c-2.2,0-2.8,2.5-2.8,5.3c0,2.8,0.6,5.3,2.8,5.3c2.2,0,2.8-2.5,2.8-5.3
			C621.9,2637.7,621.3,2635.2,619.1,2635.2z"/>
		<path class="st3" d="M629.6,2645.1l-2.4,5.2h-1.3l1.5-5.2H629.6z"/>
		<path class="st3" d="M632.8,2643.3c0-1.6,0.9-3,2.2-3.7c-0.8-0.5-1.3-1.6-1.3-2.6c0-2,1.7-3.7,3.9-3.7c2.2,0,3.9,1.7,3.9,3.7
			c0,1-0.5,2.1-1.3,2.6c1.3,0.7,2.2,2.1,2.2,3.7c0,2.5-2.1,4.4-4.8,4.4S632.8,2645.7,632.8,2643.3z M634.8,2643.3
			c0,1.4,1.2,2.5,2.8,2.5c1.6,0,2.8-1.1,2.8-2.5c0-1.4-1.2-2.6-2.8-2.6C636,2640.7,634.8,2641.8,634.8,2643.3z M635.7,2637
			c0,1,0.8,1.8,1.9,1.8s1.9-0.8,1.9-1.8c0-1-0.8-1.8-1.9-1.8S635.7,2636,635.7,2637z"/>
	</g>
	<g class="st0">
		<path class="st3" d="M877.6,2614.5h-1.4l-4.1-6.4v9.4h-2v-14h1.4l5.4,8.5l5.4-8.5h1.4v14h-2v-9.4L877.6,2614.5z"/>
		<path class="st3" d="M893.9,2609v1.9h-4.6v4.7h6.2v1.9h-8.2v-14h8v1.9h-6v3.6H893.9z"/>
		<path class="st3" d="M898.1,2617.5v-14h4.2c2.2,0,3.7,0.5,4.8,1.3c1.7,1.3,2.8,3.4,2.8,5.7c0,2.3-1.1,4.4-2.8,5.7
			c-1.1,0.8-2.6,1.3-4.8,1.3H898.1z M906.2,2606.6c-0.9-0.8-2-1.2-4-1.2h-2.1v10.2h2.1c2,0,3.1-0.4,4-1.2c1.1-0.9,1.7-2.4,1.7-3.9
			C907.9,2608.9,907.3,2607.5,906.2,2606.6z"/>
		<path class="st3" d="M912.4,2603.5h2v14h-2V2603.5z"/>
		<path class="st3" d="M925.7,2613.9h-5.9l-1.5,3.6h-2.1l5.8-14h1.4l5.8,14h-2.1L925.7,2613.9z M920.6,2612h4.3l-2.2-5.2L920.6,2612
			z"/>
		<path class="st3" d="M933.2,2607.2v10.3h-2v-14h1.4l8.4,10.3v-10.3h2v14h-1.4L933.2,2607.2z"/>
		<path class="st3" d="M954.3,2613.9h-5.9l-1.5,3.6h-2.1l5.8-14h1.4l5.8,14h-2.1L954.3,2613.9z M949.2,2612h4.3l-2.2-5.2L949.2,2612
			z"/>
		<path class="st3" d="M961.6,2607.9c0.8,0,1.4,0.6,1.4,1.4c0,0.8-0.6,1.4-1.4,1.4s-1.4-0.6-1.4-1.4
			C960.2,2608.5,960.8,2607.9,961.6,2607.9z M961.6,2614.9c0.8,0,1.4,0.6,1.4,1.4s-0.6,1.4-1.4,1.4s-1.4-0.6-1.4-1.4
			S960.8,2614.9,961.6,2614.9z"/>
		<path class="st3" d="M974.6,2607.4v-2l3.3-1.9h1.4v14h-2V2606L974.6,2607.4z"/>
		<path class="st3" d="M983,2617.5l6-12.1h-6.4v-1.9h8.8v1.3l-6.3,12.7H983z"/>
		<path class="st3" d="M995.1,2615.1l-2.4,5.2h-1.3l1.5-5.2H995.1z"/>
		<path class="st3" d="M998.6,2606.5c0.7-2.6,2.9-3.2,4.1-3.2c2.4,0,4.3,1.9,4.3,4.2c0,1.6-0.8,2.9-1.8,4.1l-3.5,4h5.3v1.9h-8.4
			v-1.3l4.8-5.5c1.1-1.3,1.6-2,1.6-3.2c0-1.2-0.9-2.3-2.2-2.3c-1.3,0-2,0.8-2.4,1.9L998.6,2606.5z"/>
		<path class="st3" d="M1009,2606.5c0.7-2.6,2.9-3.2,4.1-3.2c2.4,0,4.3,1.9,4.3,4.2c0,1.6-0.8,2.9-1.8,4.1l-3.5,4h5.3v1.9h-8.4v-1.3
			l4.8-5.5c1.1-1.3,1.6-2,1.6-3.2c0-1.2-0.9-2.3-2.2-2.3c-1.3,0-2,0.8-2.4,1.9L1009,2606.5z"/>
	</g>
	<g class="st0">
		<path class="st3" d="M877.4,2647.5v-14h4.2c2.2,0,3.7,0.5,4.8,1.3c1.7,1.3,2.8,3.4,2.8,5.7c0,2.3-1.1,4.4-2.8,5.7
			c-1.1,0.8-2.6,1.3-4.8,1.3H877.4z M885.5,2636.6c-0.9-0.8-2-1.2-4-1.2h-2.1v10.2h2.1c2,0,3.1-0.4,4-1.2c1.1-0.9,1.7-2.4,1.7-3.9
			C887.2,2638.9,886.6,2637.5,885.5,2636.6z"/>
		<path class="st3" d="M898.3,2639v1.9h-4.6v4.7h6.2v1.9h-8.2v-14h8v1.9h-6v3.6H898.3z"/>
		<path class="st3" d="M902.7,2644c0.8,1,2,1.8,3.4,1.8c1.3,0,2.4-0.8,2.4-2.1c0-2.1-3-2.4-4.8-3.6c-1-0.7-1.8-1.6-1.8-3.1
			c0-2,1.8-3.7,4.2-3.7c1.8,0,3,0.8,3.8,1.4l-1.2,1.5c-0.8-0.6-1.6-1-2.5-1c-1.2,0-2.3,0.7-2.3,1.9c0,1.8,3,2.2,4.8,3.4
			c0.9,0.6,1.8,1.6,1.8,3.2c0,2.5-1.9,4.1-4.3,4.1c-1.9,0-3.7-0.8-4.9-2.3L902.7,2644z"/>
		<path class="st3" d="M918.2,2647.5h-1.4l-5.5-14h2.1l4.1,10.6l4.1-10.6h2.1L918.2,2647.5z"/>
		<path class="st3" d="M925.7,2644.9c0.8,0,1.4,0.6,1.4,1.4s-0.6,1.4-1.4,1.4c-0.8,0-1.4-0.6-1.4-1.4S924.9,2644.9,925.7,2644.9z"/>
		<path class="st3" d="M941.7,2639v1.9h-4.6v4.7h6.2v1.9H935v-14h8v1.9h-6v3.6H941.7z"/>
		<path class="st3" d="M946,2644c0.8,1,2,1.8,3.4,1.8c1.3,0,2.4-0.8,2.4-2.1c0-2.1-3-2.4-4.8-3.6c-1-0.7-1.8-1.6-1.8-3.1
			c0-2,1.8-3.7,4.2-3.7c1.8,0,3,0.8,3.8,1.4l-1.2,1.5c-0.8-0.6-1.6-1-2.5-1c-1.2,0-2.3,0.7-2.3,1.9c0,1.8,3,2.2,4.8,3.4
			c0.9,0.6,1.8,1.6,1.8,3.2c0,2.5-1.9,4.1-4.3,4.1c-1.9,0-3.7-0.8-4.9-2.3L946,2644z"/>
		<path class="st3" d="M954.6,2633.5h9.6v1.9h-3.8v12.1h-2v-12.1h-3.8V2633.5z"/>
		<path class="st3" d="M967.7,2637.9c0.8,0,1.4,0.6,1.4,1.4c0,0.8-0.6,1.4-1.4,1.4c-0.8,0-1.4-0.6-1.4-1.4
			C966.3,2638.5,966.9,2637.9,967.7,2637.9z M967.7,2644.9c0.8,0,1.4,0.6,1.4,1.4s-0.6,1.4-1.4,1.4c-0.8,0-1.4-0.6-1.4-1.4
			S966.9,2644.9,967.7,2644.9z"/>
		<path class="st3" d="M975.6,2636.5c0.7-2.6,2.9-3.2,4.1-3.2c2.4,0,4.3,1.9,4.3,4.2c0,1.6-0.8,2.9-1.8,4.1l-3.5,4h5.3v1.9h-8.4
			v-1.3l4.8-5.5c1.1-1.3,1.6-2,1.6-3.2c0-1.2-0.9-2.3-2.2-2.3c-1.3,0-2,0.8-2.4,1.9L975.6,2636.5z"/>
		<path class="st3" d="M991.2,2633.3c3.5,0,4.8,3.2,4.8,7.2c0,4-1.3,7.2-4.8,7.2c-3.5,0-4.8-3.2-4.8-7.2
			C986.4,2636.5,987.7,2633.3,991.2,2633.3z M991.2,2635.2c-2.2,0-2.8,2.5-2.8,5.3c0,2.8,0.6,5.3,2.8,5.3c2.2,0,2.8-2.5,2.8-5.3
			C994,2637.7,993.4,2635.2,991.2,2635.2z"/>
		<path class="st3" d="M1001.7,2645.1l-2.4,5.2H998l1.5-5.2H1001.7z"/>
		<path class="st3" d="M1004.3,2637.4v-2l3.3-1.9h1.4v14h-2V2636L1004.3,2637.4z"/>
	</g>
	<g class="st0">
		<path class="st3" d="M1243.9,2614.5h-1.4l-4.1-6.4v9.4h-2v-14h1.4l5.4,8.5l5.4-8.5h1.4v14h-2v-9.4L1243.9,2614.5z"/>
		<path class="st3" d="M1260.2,2609v1.9h-4.6v4.7h6.2v1.9h-8.2v-14h8v1.9h-6v3.6H1260.2z"/>
		<path class="st3" d="M1264.4,2617.5v-14h4.2c2.2,0,3.7,0.5,4.8,1.3c1.7,1.3,2.8,3.4,2.8,5.7c0,2.3-1.1,4.4-2.8,5.7
			c-1.1,0.8-2.6,1.3-4.8,1.3H1264.4z M1272.5,2606.6c-0.9-0.8-2-1.2-4-1.2h-2.1v10.2h2.1c2,0,3.1-0.4,4-1.2c1.1-0.9,1.7-2.4,1.7-3.9
			C1274.2,2608.9,1273.6,2607.5,1272.5,2606.6z"/>
		<path class="st3" d="M1278.7,2603.5h2v14h-2V2603.5z"/>
		<path class="st3" d="M1292,2613.9h-5.9l-1.5,3.6h-2.1l5.8-14h1.4l5.8,14h-2.1L1292,2613.9z M1286.9,2612h4.3l-2.2-5.2L1286.9,2612
			z"/>
		<path class="st3" d="M1299.5,2607.2v10.3h-2v-14h1.4l8.4,10.3v-10.3h2v14h-1.4L1299.5,2607.2z"/>
		<path class="st3" d="M1320.6,2613.9h-5.9l-1.5,3.6h-2.1l5.8-14h1.4l5.8,14h-2.1L1320.6,2613.9z M1315.5,2612h4.3l-2.2-5.2
			L1315.5,2612z"/>
		<path class="st3" d="M1327.9,2607.9c0.8,0,1.4,0.6,1.4,1.4c0,0.8-0.6,1.4-1.4,1.4s-1.4-0.6-1.4-1.4
			C1326.5,2608.5,1327.1,2607.9,1327.9,2607.9z M1327.9,2614.9c0.8,0,1.4,0.6,1.4,1.4s-0.6,1.4-1.4,1.4s-1.4-0.6-1.4-1.4
			S1327.1,2614.9,1327.9,2614.9z"/>
		<path class="st3" d="M1341.2,2606.5c0.7-2.6,2.9-3.2,4.1-3.2c2.4,0,4.3,1.9,4.3,4.2c0,1.6-0.8,2.9-1.8,4.1l-3.5,4h5.3v1.9h-8.4
			v-1.3l4.8-5.5c1.1-1.3,1.6-2,1.6-3.2c0-1.2-0.9-2.3-2.2-2.3c-1.3,0-2,0.8-2.4,1.9L1341.2,2606.5z"/>
		<path class="st3" d="M1354.9,2605.4l-0.4,2.9c0.4-0.1,0.9-0.2,1.3-0.2c2.7,0,4.8,2.2,4.8,4.8c0,2.6-2,4.8-4.8,4.8
			c-1.7,0-3.2-0.8-4.1-2l1.5-1.2c0.5,0.7,1.5,1.3,2.6,1.3c1.7,0,2.8-1.3,2.8-2.9c0-1.6-1.1-2.9-2.8-2.9c-0.8,0-1.6,0.3-2.1,0.8
			l-1.4-0.2l1-7.1h6.6v1.9H1354.9z"/>
		<path class="st3" d="M1366.1,2615.1l-2.4,5.2h-1.3l1.5-5.2H1366.1z"/>
		<path class="st3" d="M1374.6,2612.8c-0.3,0-0.5,0-0.8,0c-2.6,0-4.6-2-4.6-4.7c0-2.7,2.1-4.8,4.9-4.8c2.8,0,4.8,2.1,4.8,4.7
			c0,0.7-0.1,1.3-0.5,2.1c-0.3,0.6-0.8,1.4-1.3,2.3l-3.3,5h-2.3L1374.6,2612.8z M1376.9,2608.1c0-1.7-1.2-2.9-2.9-2.9
			c-1.7,0-2.9,1.3-2.9,2.9c0,1.6,1.2,2.9,2.8,2.9c0.9,0,1.7-0.3,2.2-0.7C1376.7,2609.5,1376.9,2608.9,1376.9,2608.1z"/>
		<path class="st3" d="M1380.7,2606.5c0.7-2.6,2.9-3.2,4.1-3.2c2.4,0,4.3,1.9,4.3,4.2c0,1.6-0.8,2.9-1.8,4.1l-3.5,4h5.3v1.9h-8.4
			v-1.3l4.8-5.5c1.1-1.3,1.6-2,1.6-3.2c0-1.2-0.9-2.3-2.2-2.3c-1.3,0-2,0.8-2.4,1.9L1380.7,2606.5z"/>
	</g>
	<g class="st0">
		<path class="st3" d="M1246.5,2647.5v-14h4.2c2.2,0,3.7,0.5,4.8,1.3c1.7,1.3,2.8,3.4,2.8,5.7c0,2.3-1.1,4.4-2.8,5.7
			c-1.1,0.8-2.6,1.3-4.8,1.3H1246.5z M1254.6,2636.6c-0.9-0.8-2-1.2-4-1.2h-2.1v10.2h2.1c2,0,3.1-0.4,4-1.2c1.1-0.9,1.7-2.4,1.7-3.9
			C1256.3,2638.9,1255.6,2637.5,1254.6,2636.6z"/>
		<path class="st3" d="M1267.4,2639v1.9h-4.6v4.7h6.2v1.9h-8.2v-14h8v1.9h-6v3.6H1267.4z"/>
		<path class="st3" d="M1271.7,2644c0.8,1,2,1.8,3.4,1.8c1.3,0,2.4-0.8,2.4-2.1c0-2.1-3-2.4-4.8-3.6c-1-0.7-1.8-1.6-1.8-3.1
			c0-2,1.8-3.7,4.2-3.7c1.8,0,3,0.8,3.8,1.4l-1.2,1.5c-0.8-0.6-1.6-1-2.5-1c-1.2,0-2.3,0.7-2.3,1.9c0,1.8,3,2.2,4.8,3.4
			c0.9,0.6,1.8,1.6,1.8,3.2c0,2.5-1.9,4.1-4.3,4.1c-1.9,0-3.7-0.8-4.9-2.3L1271.7,2644z"/>
		<path class="st3" d="M1287.2,2647.5h-1.4l-5.5-14h2.1l4.1,10.6l4.1-10.6h2.1L1287.2,2647.5z"/>
		<path class="st3" d="M1294.7,2644.9c0.8,0,1.4,0.6,1.4,1.4s-0.6,1.4-1.4,1.4c-0.8,0-1.4-0.6-1.4-1.4S1293.9,2644.9,1294.7,2644.9z
			"/>
		<path class="st3" d="M1310.7,2639v1.9h-4.6v4.7h6.2v1.9h-8.2v-14h8v1.9h-6v3.6H1310.7z"/>
		<path class="st3" d="M1315.1,2644c0.8,1,2,1.8,3.4,1.8c1.3,0,2.4-0.8,2.4-2.1c0-2.1-3-2.4-4.8-3.6c-1-0.7-1.8-1.6-1.8-3.1
			c0-2,1.8-3.7,4.2-3.7c1.8,0,3,0.8,3.8,1.4l-1.2,1.5c-0.8-0.6-1.6-1-2.5-1c-1.2,0-2.3,0.7-2.3,1.9c0,1.8,3,2.2,4.8,3.4
			c0.9,0.6,1.8,1.6,1.8,3.2c0,2.5-1.9,4.1-4.3,4.1c-1.9,0-3.7-0.8-4.9-2.3L1315.1,2644z"/>
		<path class="st3" d="M1323.6,2633.5h9.6v1.9h-3.8v12.1h-2v-12.1h-3.8V2633.5z"/>
		<path class="st3" d="M1336.7,2637.9c0.8,0,1.4,0.6,1.4,1.4c0,0.8-0.6,1.4-1.4,1.4c-0.8,0-1.4-0.6-1.4-1.4
			C1335.3,2638.5,1336,2637.9,1336.7,2637.9z M1336.7,2644.9c0.8,0,1.4,0.6,1.4,1.4s-0.6,1.4-1.4,1.4c-0.8,0-1.4-0.6-1.4-1.4
			S1336,2644.9,1336.7,2644.9z"/>
		<path class="st3" d="M1344.3,2637.4v-2l3.3-1.9h1.4v14h-2V2636L1344.3,2637.4z"/>
		<path class="st3" d="M1353.6,2644.3c0.5,0.9,1.5,1.5,2.6,1.5c1.6,0,2.9-1.2,2.9-2.9c0-1.7-1.3-2.9-3-2.9c-0.8,0-1.4,0.2-1.6,0.2
			v-1.3l3-3.5h-4.8v-1.9h7.8v1.3l-3.1,3.5c2.1,0.3,3.8,2.2,3.8,4.6c0,2.8-2.2,4.8-4.8,4.8c-1.9,0-3.6-0.8-4.4-2.4L1353.6,2644.3z"/>
		<path class="st3" d="M1366.4,2645.1l-2.4,5.2h-1.3l1.5-5.2H1366.4z"/>
		<path class="st3" d="M1374,2638.2c0.3,0,0.5,0,0.8,0c2.6,0,4.6,2,4.6,4.7c0,2.7-2.1,4.8-4.9,4.8c-2.8,0-4.8-2.1-4.8-4.7
			c0-0.7,0.1-1.3,0.5-2.1c0.3-0.6,0.8-1.4,1.3-2.3l3.3-5h2.3L1374,2638.2z M1371.7,2642.9c0,1.7,1.2,2.9,2.9,2.9
			c1.7,0,2.9-1.3,2.9-2.9c0-1.6-1.2-2.9-2.8-2.9c-0.9,0-1.7,0.3-2.2,0.7C1371.9,2641.5,1371.7,2642.1,1371.7,2642.9z"/>
	</g>
	<g class="st0">
		<path class="st1" d="M505.5,2573.4v7.1h-3.4V2563h6.6c2.2,0,3.6,0.5,4.5,1.6c0.9,0.9,1.4,2.2,1.4,3.6s-0.5,2.7-1.4,3.6
			c-0.9,1-2.3,1.5-4.5,1.5H505.5z M508.5,2570.4c1.1,0,1.7-0.3,2.1-0.7c0.4-0.4,0.6-0.9,0.6-1.5s-0.2-1.1-0.6-1.5
			c-0.4-0.4-1-0.7-2.1-0.7h-3v4.4H508.5z"/>
		<path class="st1" d="M517.1,2563h3.4v17.5h-3.4V2563z"/>
		<path class="st1" d="M524.5,2563h3.4v14.5h7.4v3h-10.7V2563z"/>
		<path class="st1" d="M537,2580.5l7.5-17.5h2.4l7.5,17.5h-3.5l-1.6-3.9h-7l-1.6,3.9H537z M543.4,2573.6h4.4l-2.2-5.2L543.4,2573.6z
			"/>
		<path class="st1" d="M559.7,2572.8v7.7h-3.4V2563h6.4c1.8,0,2.9,0.5,3.8,1.3c0.9,0.9,1.5,2.2,1.5,3.6s-0.6,2.7-1.5,3.6
			c-0.5,0.5-1,0.8-1.8,1l6.5,8h-4.2l-6.2-7.7H559.7z M562.5,2569.8c1,0,1.4-0.2,1.7-0.5s0.5-0.8,0.5-1.3c0-0.5-0.2-1-0.5-1.3
			c-0.3-0.3-0.7-0.5-1.7-0.5h-2.8v3.7H562.5z"/>
		<path class="st1" d="M576.5,2566v3.6h5.4v3h-5.4v4.9h7.4v3h-10.7V2563h10.5v3H576.5z"/>
		<path class="st1" d="M587.7,2575.8c1,1.1,2.5,1.9,4.1,1.9c1.5,0,2.5-0.9,2.5-2.2c0-2.2-3.2-2.5-5.6-3.9c-1.4-0.8-2.5-2-2.5-4
			c0-3.1,2.9-4.9,5.8-4.9c1.8,0,3.4,0.4,5.1,1.7l-1.7,2.5c-0.7-0.6-1.9-1.1-3-1.1c-1.3,0-2.7,0.5-2.7,1.9c0,2.8,8.1,1.9,8.1,7.8
			c0,3.1-2.8,5.2-5.9,5.2c-2.3,0-4.5-1-6.3-2.6L587.7,2575.8z"/>
		<path class="st1" d="M614.8,2584l-2.4,1.7c-2.3-3.2-3.5-7.2-3.5-11.5c0-4.2,1.3-8.2,3.5-11.5l2.4,1.7c-1.9,2.7-3,6.2-3,9.8
			C611.9,2577.8,612.9,2581.3,614.8,2584z"/>
		<path class="st1" d="M618.1,2565.5l4.2-2.5h2.4v17.5h-3.4v-13.6l-3.2,1.8V2565.5z"/>
		<path class="st1" d="M630.7,2576.4c0.7,0.8,1.8,1.4,3,1.4c0.8,0,1.5-0.3,2.1-0.8c0.6-0.5,1-1.3,1-2.2c0-0.9-0.4-1.8-1.1-2.4
			c-0.5-0.5-1.3-0.7-2.1-0.7c-0.8,0-1.8,0.3-2.6,1l-2.1-0.3l1.1-9.3h9.2v3h-6.5l-0.3,2.7c0.4-0.1,0.9-0.1,1.3-0.1
			c1.4,0,2.8,0.3,4.1,1.3c1.4,1.1,2.2,2.9,2.2,4.7c0,3.4-2.9,6-6.4,6c-2,0-3.8-0.7-5.3-2.2L630.7,2576.4z"/>
		<path class="st1" d="M643.4,2564.5l2.4-1.7c2.3,3.2,3.5,7.2,3.5,11.5c0,4.2-1.3,8.2-3.5,11.5l-2.4-1.7c1.9-2.7,3-6.2,3-9.8
			C646.4,2570.7,645.3,2567.2,643.4,2564.5z"/>
	</g>
	<g class="st0">
		<path class="st1" d="M828.6,2571.8c0,3.4,2.6,6,6,6c2.3,0,3.9-1.1,4.9-2.4l2.3,2.1c-1.5,2-4.1,3.3-7.3,3.3c-5.4,0-9.3-4-9.3-9
			c0-5,3.8-9,9.2-9c2.6,0,4.8,1,6.4,2.5l-2.2,2.3c-1-1-2.5-1.8-4.2-1.8C831.1,2565.8,828.6,2568.4,828.6,2571.8z"/>
		<path class="st1" d="M847.7,2566v3.6h5.4v3h-5.4v4.9h7.4v3h-10.7V2563h10.5v3H847.7z"/>
		<path class="st1" d="M858.1,2563h2.4l9.7,11.4V2563h3.4v17.5h-2.4l-9.7-11.4v11.4h-3.4V2563z"/>
		<path class="st1" d="M888.8,2563v3h-4.6v14.5h-3.4V2566h-4.6v-3H888.8z"/>
		<path class="st1" d="M894.8,2572.8v7.7h-3.4V2563h6.4c1.8,0,2.9,0.5,3.8,1.3c0.9,0.9,1.5,2.2,1.5,3.6s-0.6,2.7-1.5,3.6
			c-0.5,0.5-1,0.8-1.8,1l6.5,8h-4.2l-6.2-7.7H894.8z M897.6,2569.8c1,0,1.4-0.2,1.7-0.5c0.3-0.3,0.5-0.8,0.5-1.3
			c0-0.5-0.2-1-0.5-1.3c-0.3-0.3-0.7-0.5-1.7-0.5h-2.8v3.7H897.6z"/>
		<path class="st1" d="M907.3,2580.5l7.5-17.5h2.4l7.5,17.5h-3.5l-1.6-3.9h-7l-1.7,3.9H907.3z M913.8,2573.6h4.4l-2.2-5.2
			L913.8,2573.6z"/>
		<path class="st1" d="M926.7,2563h3.4v14.5h7.4v3h-10.7V2563z"/>
		<path class="st1" d="M940.1,2563h3.4v17.5h-3.4V2563z"/>
		<path class="st1" d="M946.4,2578.5l8.5-12.5h-7.7v-3h12.2v2l-8.5,12.5h9v3h-13.5V2578.5z"/>
		<path class="st1" d="M961.7,2580.5l7.5-17.5h2.4l7.5,17.5h-3.5l-1.7-3.9h-7l-1.6,3.9H961.7z M968.1,2573.6h4.4l-2.2-5.2
			L968.1,2573.6z"/>
		<path class="st1" d="M986.6,2563c2.8,0,4.6,0.6,6,1.7c2.2,1.6,3.5,4.2,3.5,7.1s-1.3,5.5-3.5,7.1c-1.4,1-3.2,1.6-6,1.6h-5.5V2563
			H986.6z M991.4,2568c-1-1.2-2.4-1.9-4.5-1.9h-2.5v11.5h2.5c2.1,0,3.5-0.7,4.5-2c0.8-1,1.3-2.3,1.3-3.8
			C992.7,2570.3,992.2,2569,991.4,2568z"/>
		<path class="st1" d="M996.2,2580.5l7.5-17.5h2.4l7.5,17.5h-3.5l-1.7-3.9h-7l-1.6,3.9H996.2z M1002.6,2573.6h4.4l-2.2-5.2
			L1002.6,2573.6z"/>
		<path class="st1" d="M1016.8,2575.8c1,1.1,2.5,1.9,4.1,1.9c1.5,0,2.5-0.9,2.5-2.2c0-2.2-3.2-2.5-5.6-3.9c-1.4-0.8-2.5-2-2.5-4
			c0-3.1,2.9-4.9,5.8-4.9c1.8,0,3.4,0.4,5.1,1.7l-1.7,2.5c-0.7-0.6-1.9-1.1-3-1.1c-1.3,0-2.7,0.5-2.7,1.9c0,2.8,8.1,1.9,8.1,7.8
			c0,3.1-2.8,5.2-5.9,5.2c-2.3,0-4.5-1-6.3-2.6L1016.8,2575.8z"/>
		<path class="st1" d="M1043.9,2584l-2.4,1.7c-2.3-3.2-3.5-7.2-3.5-11.5c0-4.2,1.3-8.2,3.5-11.5l2.4,1.7c-1.9,2.7-3,6.2-3,9.8
			C1040.9,2577.8,1042,2581.3,1043.9,2584z"/>
		<path class="st1" d="M1046.9,2563h11.5v2l-7.5,15.5h-3.6l7.1-14.5h-7.5V2563z"/>
		<path class="st1" d="M1061.1,2564.5l2.4-1.7c2.3,3.2,3.5,7.2,3.5,11.5c0,4.2-1.3,8.2-3.5,11.5l-2.4-1.7c1.9-2.7,3-6.2,3-9.8
			C1064.1,2570.7,1063,2567.2,1061.1,2564.5z"/>
	</g>
	<g class="st0">
		<path class="st1" d="M1238.2,2563h2.4l9.7,11.4V2563h3.4v17.5h-2.4l-9.7-11.4v11.4h-3.4V2563z"/>
		<path class="st1" d="M1259.9,2579c-1.4-1.3-2.2-3.1-2.2-5.8V2563h3.4v10.4c0,1.6,0.4,2.6,1.1,3.2c0.8,0.7,1.8,1.1,3,1.1
			s2.2-0.4,3-1.1c0.7-0.7,1.1-1.6,1.1-3.2V2563h3.4v10.1c0,2.7-0.8,4.5-2.2,5.8c-1.3,1.2-3.3,1.8-5.2,1.8S1261.2,2580.2,1259.9,2579
			z"/>
		<path class="st1" d="M1279.9,2566v3.6h5.4v3h-5.4v4.9h7.4v3h-10.7V2563h10.5v3H1279.9z"/>
		<path class="st1" d="M1288.9,2563h3.5l4.8,11.9l4.8-11.9h3.5l-7.1,17.5h-2.4L1288.9,2563z"/>
		<path class="st1" d="M1304.1,2580.5l7.5-17.5h2.4l7.5,17.5h-3.5l-1.7-3.9h-7l-1.7,3.9H1304.1z M1310.6,2573.6h4.4l-2.2-5.2
			L1310.6,2573.6z"/>
		<path class="st1" d="M1324.7,2575.8c1,1.1,2.5,1.9,4.1,1.9c1.5,0,2.5-0.9,2.5-2.2c0-2.2-3.2-2.5-5.6-3.9c-1.4-0.8-2.5-2-2.5-4
			c0-3.1,2.9-4.9,5.8-4.9c1.8,0,3.4,0.4,5.1,1.7l-1.8,2.5c-0.7-0.6-1.9-1.1-3-1.1c-1.3,0-2.7,0.5-2.7,1.9c0,2.8,8.1,1.9,8.1,7.8
			c0,3.1-2.8,5.2-5.9,5.2c-2.3,0-4.5-1-6.3-2.6L1324.7,2575.8z"/>
		<path class="st1" d="M1351.9,2584l-2.4,1.7c-2.3-3.2-3.5-7.2-3.5-11.5c0-4.2,1.3-8.2,3.5-11.5l2.4,1.7c-1.9,2.7-3,6.2-3,9.8
			C1348.9,2577.8,1350,2581.3,1351.9,2584z"/>
		<path class="st1" d="M1355.1,2565.5l4.2-2.5h2.4v17.5h-3.4v-13.6l-3.2,1.8V2565.5z"/>
		<path class="st1" d="M1367.7,2576.4c0.7,0.8,1.8,1.4,3,1.4c0.8,0,1.5-0.3,2.1-0.8c0.6-0.5,1-1.3,1-2.2c0-0.9-0.4-1.8-1.1-2.4
			c-0.5-0.5-1.3-0.7-2.1-0.7c-0.8,0-1.8,0.3-2.6,1l-2.1-0.3l1.1-9.3h9.2v3h-6.5l-0.3,2.7c0.4-0.1,0.9-0.1,1.3-0.1
			c1.3,0,2.8,0.3,4.1,1.3c1.4,1.1,2.2,2.9,2.2,4.7c0,3.4-2.9,6-6.4,6c-2,0-3.8-0.7-5.3-2.2L1367.7,2576.4z"/>
		<path class="st1" d="M1380.4,2564.5l2.4-1.7c2.3,3.2,3.5,7.2,3.5,11.5c0,4.2-1.3,8.2-3.5,11.5l-2.4-1.7c1.9-2.7,3-6.2,3-9.8
			C1383.4,2570.7,1382.3,2567.2,1380.4,2564.5z"/>
	</g>
	<path id="Trazado_2789" class="st4" d="M356.2,2527.9h1207.6"/>
	<path id="Trazado_2790" class="st5" d="M356.2,2354.4h1207.6"/>
	<path id="Trazado_2791" class="st5" d="M356.2,2183.2h1207.6"/>
	<path id="Trazado_2792" class="st5" d="M356.2,2009.7h1207.6"/>
	<g id="Grupo_2100" transform="translate(560.139 1988.385)">
		<path id="Trazado_2793" class="st1" d="M36,18c0,10-8.1,18-18,18S0,28,0,18S8.1,0,18,0C28,0,36,8.1,36,18C36,18,36,18,36,18z"/>
	</g>
	<g id="Grupo_2101" transform="translate(560.139 2087.26)">
		<path id="Trazado_2794" class="st1" d="M36,18c0,10-8.1,18-18,18S0,28,0,18S8.1,0,18,0S36,8.1,36,18L36,18z"/>
	</g>
	<g id="Grupo_2102" transform="translate(560.139 2095.557)">
		<path id="Trazado_2795" class="st1" d="M36,18c0,10-8.1,18-18,18S0,28,0,18S8.1,0,18,0S36,8.1,36,18L36,18z"/>
	</g>
	<g id="Grupo_2103" transform="translate(560.139 2117.684)">
		<path id="Trazado_2796" class="st1" d="M36,18c0,10-8.1,18-18,18S0,28,0,18S8.1,0,18,0S36,8.1,36,18L36,18z"/>
	</g>
	<g id="Grupo_2104" transform="translate(560.139 2188.898)">
		<path id="Trazado_2797" class="st1" d="M36,18c0,10-8.1,18-18,18S0,28,0,18S8.1,0,18,0C28,0,36,8.1,36,18C36,18,36,18,36,18z"/>
	</g>
	<g id="Grupo_2105" transform="translate(560.139 2288.465)">
		<path id="Trazado_2798" class="st1" d="M36,18c0,10-8.1,18-18,18S0,28,0,18S8.1,0,18,0S36,8.1,36,18L36,18z"/>
	</g>
	<g id="Grupo_2106" transform="translate(560.139 2312.666)">
		<path id="Trazado_2799" class="st1" d="M36,18c0,10-8.1,18-18,18S0,28,0,18S8.1,0,18,0S36,8.1,36,18L36,18z"/>
	</g>
	<g id="Grupo_2107" transform="translate(560.139 2329.26)">
		<path id="Trazado_2800" class="st1" d="M36,18c0,10-8.1,18-18,18S0,28,0,18S8.1,0,18,0S36,8.1,36,18L36,18z"/>
	</g>
	<g id="Grupo_2108" transform="translate(560.139 2356.916)">
		<path id="Trazado_2801" class="st1" d="M36,18c0,10-8.1,18-18,18S0,28,0,18C0,8.1,8.1,0,18,0h0C28,0,36,8.1,36,18z"/>
	</g>
	<g id="Grupo_2109" transform="translate(560.139 2356.916)">
		<path id="Trazado_2802" class="st1" d="M36,18c0,10-8.1,18-18,18S0,28,0,18C0,8.1,8.1,0,18,0h0C28,0,36,8.1,36,18z"/>
	</g>
	<g id="Grupo_2110" transform="translate(560.139 2376.277)">
		<path id="Trazado_2803" class="st1" d="M36,18c0,10-8.1,18-18,18S0,28,0,18S8.1,0,18,0c0,0,0,0,0,0C28,0,36,8.1,36,18
			C36,18,36,18,36,18z"/>
	</g>
	<g id="Grupo_2111" transform="translate(560.139 2399.094)">
		<path id="Trazado_2804" class="st1" d="M36,18c0,10-8.1,18-18,18S0,28,0,18C0,8.1,8.1,0,18,0h0C28,0,36,8.1,36,18z"/>
	</g>
	<g id="Grupo_2112" transform="translate(560.139 2404.625)">
		<path id="Trazado_2805" class="st1" d="M36,18c0,10-8.1,18-18,18C8.1,36,0,28,0,18S8.1,0,18,0C28,0,36,8.1,36,18L36,18z"/>
	</g>
	<g id="Grupo_2113" transform="translate(560.139 2422.604)">
		<path id="Trazado_2806" class="st1" d="M36,18c0,10-8.1,18-18,18S0,28,0,18S8.1,0,18,0c0,0,0,0,0,0C28,0,36,8.1,36,18z"/>
	</g>
	<g id="Grupo_2114" transform="translate(560.139 2430.207)">
		<path id="Trazado_2807" class="st1" d="M36,18c0,10-8.1,18-18,18S0,28,0,18C0,8.1,8.1,0,18,0h0C28,0,36,8.1,36,18
			C36,18,36,18,36,18z"/>
	</g>
	<g id="Grupo_2115" transform="translate(926.977 2466.162)">
		<path id="Trazado_2808" class="st1" d="M36,18c0,10-8.1,18-18,18S0,28,0,18S8.1,0,18,0h0C28,0,36,8.1,36,18C36,18,36,18,36,18z"/>
	</g>
	<g id="Grupo_2116" transform="translate(926.977 2456.484)">
		<path id="Trazado_2809" class="st1" d="M36,18c0,10-8.1,18-18,18S0,28,0,18S8.1,0,18,0h0C28,0,36,8.1,36,18z"/>
	</g>
	<g id="Grupo_2117" transform="translate(926.977 2448.186)">
		<path id="Trazado_2810" class="st1" d="M36,18c0,10-8.1,18-18,18S0,28,0,18S8.1,0,18,0h0C28,0,36,8.1,36,18z"/>
	</g>
	<g id="Grupo_2118" transform="translate(926.977 2390.797)">
		<path id="Trazado_2811" class="st1" d="M36,18c0,10-8.1,18-18,18S0,28,0,18S8.1,0,18,0h0C28,0,36,8.1,36,18z"/>
	</g>
	<g id="Grupo_2119" transform="translate(926.977 2260.117)">
		<path id="Trazado_2812" class="st1" d="M36,18c0,10-8.1,18-18,18C8.1,36,0,28,0,18S8.1,0,18,0l0,0C28,0,36,8.1,36,18z"/>
	</g>
	<g id="Grupo_2120" transform="translate(926.977 2257.352)">
		<path id="Trazado_2813" class="st1" d="M36,18c0,10-8.1,18-18,18C8.1,36,0,28,0,18S8.1,0,18,0l0,0C28,0,36,8.1,36,18z"/>
	</g>
	<g id="Grupo_2121" transform="translate(926.977 2097.633)">
		<path id="Trazado_2814" class="st1" d="M36,18c0,10-8.1,18-18,18C8.1,36,0,28,0,18S8.1,0,18,0l0,0C28,0,36,8.1,36,18z"/>
	</g>
	<g id="Grupo_2122" transform="translate(1293.814 2464.09)">
		<path id="Trazado_2815" class="st1" d="M36,18c0,10-8.1,18-18,18S0,28,0,18S8.1,0,18,0c0,0,0,0,0,0C28,0,36,8.1,36,18z"/>
	</g>
	<g id="Grupo_2123" transform="translate(1293.814 2448.186)">
		<path id="Trazado_2816" class="st1" d="M36,18c0,10-8.1,18-18,18S0,28,0,18S8.1,0,18,0c0,0,0,0,0,0C28,0,36,8.1,36,18z"/>
	</g>
	<g id="Grupo_2124" transform="translate(1293.814 2390.105)">
		<path id="Trazado_2817" class="st1" d="M36,18c0,10-8.1,18-18,18S0,28,0,18S8.1,0,18,0c0,0,0,0,0,0C28,0,36,8.1,36,18
			C36,18,36,18,36,18z"/>
	</g>
	<g id="Grupo_2125" transform="translate(1293.814 2388.031)">
		<path id="Trazado_2818" class="st1" d="M36,18c0,10-8.1,18-18,18S0,28,0,18S8.1,0,18,0c0,0,0,0,0,0C28,0,36,8.1,36,18z"/>
	</g>
	<g id="Grupo_2126" transform="translate(1293.814 2383.883)">
		<path id="Trazado_2819" class="st1" d="M36,18c0,10-8.1,18-18,18S0,28,0,18S8.1,0,18,0c0,0,0,0,0,0C28,0,36,8.1,36,18z"/>
	</g>
	<g id="Grupo_2127" transform="translate(1293.814 2370.055)">
		<path id="Trazado_2820" class="st1" d="M36,18c0,10-8.1,18-18,18S0,28,0,18S8.1,0,18,0c0,0,0,0,0,0C28,0,36,8.1,36,18z"/>
	</g>
	<g id="Grupo_2128" transform="translate(1293.814 2358.992)">
		<path id="Trazado_2821" class="st1" d="M36,18c0,10-8.1,18-18,18S0,28,0,18S8.1,0,18,0c0,0,0,0,0,0C28,0,36,8.1,36,18z"/>
	</g>
	<g id="Grupo_2129" transform="translate(1293.814 2330.643)">
		<path id="Trazado_2822" class="st1" d="M36,18c0,10-8.1,18-18,18C8.1,36,0,28,0,18S8.1,0,18,0c0,0,0,0,0,0C28,0,36,8.1,36,18z"/>
	</g>
	<g id="Grupo_2130" transform="translate(1293.814 2312.666)">
		<path id="Trazado_2823" class="st1" d="M36,18c0,10-8.1,18-18,18C8.1,36,0,28,0,18S8.1,0,18,0c0,0,0,0,0,0C28,0,36,8.1,36,18z"/>
	</g>
	<g id="Grupo_2131" transform="translate(1293.814 2309.207)">
		<path id="Trazado_2824" class="st1" d="M36,18c0,10-8.1,18-18,18C8.1,36,0,28,0,18C0,8.1,8.1,0,18,0c0,0,0,0,0,0
			C28,0,36,8.1,36,18z"/>
	</g>
	<g id="Grupo_2132" transform="translate(1293.814 2297.455)">
		<path id="Trazado_2825" class="st1" d="M36,18c0,10-8.1,18-18,18C8.1,36,0,28,0,18C0,8.1,8.1,0,18,0c0,0,0,0,0,0
			C28,0,36,8.1,36,18z"/>
	</g>
	<g id="Grupo_2133" transform="translate(1293.814 2274.637)">
		<path id="Trazado_2826" class="st1" d="M36,18c0,10-8.1,18-18,18C8.1,36,0,28,0,18C0,8.1,8.1,0,18,0C28,0,36,8.1,36,18
			C36,18,36,18,36,18z"/>
	</g>
	<g id="Grupo_2134" transform="translate(1293.814 2266.34)">
		<path id="Trazado_2827" class="st1" d="M36,18c0,10-8.1,18-18,18C8.1,36,0,28,0,18S8.1,0,18,0c0,0,0,0,0,0C28,0,36,8.1,36,18z"/>
	</g>
	<g id="Grupo_2135" transform="translate(1293.814 2163.316)">
		<path id="Trazado_2828" class="st1" d="M36,18c0,10-8.1,18-18,18C8.1,36,0,28,0,18S8.1,0,18,0c0,0,0,0,0,0C28,0,36,8.1,36,18z"/>
	</g>
	<g id="Grupo_2136" transform="translate(1293.814 2123.906)">
		<path id="Trazado_2829" class="st1" d="M36,18c0,10-8.1,18-18,18C8.1,36,0,28,0,18S8.1,0,18,0c0,0,0,0,0,0C28,0,36,8.1,36,18z"/>
	</g>
	<path id="Trazado_2830" class="st5" d="M356.2,1838.9h1207.6"/>
	<g class="st0">
		<path class="st6" d="M663.5,2290.6c0.9,1.2,2.3,2.1,3.9,2.1c2,0,3.9-1.6,3.9-3.8c0-2.2-1.8-3.8-4.1-3.8c-0.8,0-1.7,0.2-2.5,0.6
			v-2.4l3.9-4.7h-7v-3.6h12.7v2.4l-3.8,4.7c2.9,1.1,4.9,3.6,4.9,6.8c0,4.4-3.5,7.4-7.8,7.4c-2.6,0-5.1-1.2-7-3.3L663.5,2290.6z"/>
		<path class="st6" d="M680.7,2290.6c0.9,1.2,2.3,2.1,3.9,2.1c2,0,3.9-1.6,3.9-3.8c0-2.2-1.8-3.8-4.1-3.8c-0.8,0-1.7,0.2-2.5,0.6
			v-2.4l3.9-4.7h-7v-3.6h12.7v2.4l-3.8,4.7c2.9,1.1,4.9,3.6,4.9,6.8c0,4.4-3.5,7.4-7.8,7.4c-2.6,0-5.1-1.2-7-3.3L680.7,2290.6z"/>
		<path class="st6" d="M702.2,2291.4l-3.6,8.8h-2.8l2.2-8.8H702.2z"/>
		<path class="st6" d="M718.3,2275l-4,6.7h0.3c4,0,7.4,3,7.4,7.2c0,4.1-3.4,7.4-7.5,7.4c-3.9,0-7.7-2.8-7.7-7.2c0-2.1,1-3.9,2.1-5.8
			l4.9-8.3H718.3z M710.7,2289.2c0,2,1.7,3.6,3.7,3.6c2.1,0,3.5-1.7,3.5-3.7s-1.5-3.8-3.7-3.8c-0.8,0-1.5,0.2-2.2,0.5
			C711.4,2286.6,710.7,2287.8,710.7,2289.2z"/>
	</g>
	<g class="st0">
		<path class="st6" d="M1029.3,2358.6c0.9-2.9,3.5-4.9,6.6-4.9c3.6,0,6.7,2.7,6.7,6.5c0,2.5-1.3,4.4-2.7,6l-4.5,5.2h7.3v3.6h-13.6
			v-2.4l7.4-8.4c1.6-1.8,2.1-3,2.1-4.1c0-1.5-1.1-2.8-2.7-2.8c-1.4,0-2.4,1-2.8,2.4L1029.3,2358.6z"/>
		<path class="st6" d="M1058.4,2354v12.6h3.5v3.6h-3.5v4.8h-4v-4.8h-9.8v-2.4l10.9-13.8H1058.4z M1054.4,2366.6v-4.9l-3.9,4.9
			H1054.4z"/>
		<path class="st6" d="M1069.8,2370.4l-3.6,8.8h-2.8l2.2-8.8H1069.8z"/>
		<path class="st6" d="M1086,2354l-4,6.7h0.3c4,0,7.4,3,7.4,7.2c0,4.1-3.4,7.4-7.5,7.4c-3.9,0-7.7-2.8-7.7-7.2c0-2.1,1-3.9,2.1-5.8
			l4.9-8.3H1086z M1078.4,2368.2c0,2,1.7,3.6,3.7,3.6c2.1,0,3.5-1.7,3.5-3.7s-1.5-3.8-3.8-3.8c-0.8,0-1.5,0.2-2.2,0.5
			C1079.1,2365.6,1078.4,2366.8,1078.4,2368.2z"/>
	</g>
	<g class="st0">
		<path class="st6" d="M1396.3,2335.6c0.9-2.9,3.5-4.9,6.6-4.9c3.6,0,6.7,2.7,6.7,6.5c0,2.5-1.3,4.4-2.7,6l-4.5,5.2h7.3v3.6h-13.6
			v-2.4l7.4-8.4c1.6-1.8,2.1-3,2.1-4.1c0-1.5-1.1-2.8-2.7-2.8c-1.4,0-2.4,1-2.8,2.4L1396.3,2335.6z"/>
		<path class="st6" d="M1423.6,2331l-4,6.7h0.3c4,0,7.3,3,7.3,7.2c0,4.1-3.4,7.4-7.5,7.4c-3.9,0-7.7-2.8-7.7-7.2
			c0-2.1,1-3.9,2.1-5.8l5-8.3H1423.6z M1416,2345.2c0,2,1.7,3.6,3.7,3.6c2.1,0,3.5-1.7,3.5-3.7s-1.5-3.8-3.8-3.8
			c-0.8,0-1.5,0.2-2.2,0.5C1416.7,2342.6,1416,2343.8,1416,2345.2z"/>
		<path class="st6" d="M1436.4,2347.4l-3.6,8.8h-2.8l2.2-8.8H1436.4z"/>
		<path class="st6" d="M1441.3,2331h13.8v2.4l-9,18.6h-4.3l8.5-17.4h-9V2331z"/>
	</g>
	<path id="Trazado_2831" class="st7" d="M505.4,2286.7H651"/>
	<path id="Trazado_2832" class="st7" d="M872.2,2365.7h145.6"/>
	<path id="Trazado_2833" class="st7" d="M1240,2343.7h145.6"/>
	<g id="Grupo_2137" transform="translate(0 -1622.961)">
		<line id="Línea_508" class="st7" x1="935.5" y1="4347.2" x2="997.5" y2="4347.2"/>
		<g id="Trazado_2768" transform="translate(707 4323)">
			<path class="st1" d="M0,38.5c-4.9,0-9.6-1.9-13.1-5.4c-3.5-3.5-5.4-8.1-5.4-13.1s1.9-9.6,5.4-13.1S-5,1.5,0,1.5s9.6,1.9,13.1,5.4
				c3.5,3.5,5.4,8.1,5.4,13.1s-1.9,9.6-5.4,13.1C9.6,36.6,4.9,38.5,0,38.5z"/>
			<path class="st8" d="M0,3c-4.5,0-8.8,1.8-12,5c-3.2,3.2-5,7.5-5,12s1.8,8.8,5,12c3.2,3.2,7.5,5,12,5s8.8-1.8,12-5
				c3.2-3.2,5-7.5,5-12s-1.8-8.8-5-12C8.8,4.8,4.5,3,0,3 M0,0c11,0,20,9,20,20S11,40,0,40s-20-9-20-20S-11.1,0,0,0z"/>
		</g>
		<g class="st0">
			<path class="st9" d="M1018.8,4344.8v6.2h-2v-14h5.3c1.4,0,2.2,0.3,2.9,0.9c0.8,0.7,1.4,1.8,1.4,3s-0.5,2.3-1.4,3
				c-0.7,0.6-1.6,0.9-2.9,0.9H1018.8z M1022,4342.9c1,0,1.5-0.2,1.8-0.6c0.3-0.4,0.6-0.8,0.6-1.4s-0.2-1-0.6-1.4
				c-0.4-0.4-0.9-0.6-1.8-0.6h-3.2v4H1022z"/>
			<path class="st9" d="M1033.9,4343.3c-0.2-0.1-0.4-0.1-0.7-0.1c-1,0-2,0.7-2.5,1.6v6.2h-1.9v-9.4h1.8v1.1c0.5-0.6,1.4-1.3,2.8-1.3
				c0.2,0,0.5,0,0.7,0.1L1033.9,4343.3z"/>
			<path class="st9" d="M1040,4341.4c2.8,0,4.9,2.1,4.9,4.9s-2.1,4.9-4.9,4.9c-2.8,0-4.9-2.1-4.9-4.9S1037.3,4341.4,1040,4341.4z
				 M1040,4349.4c1.7,0,3-1.4,3-3.1c0-1.7-1.2-3.1-3-3.1s-3,1.4-3,3.1C1037.1,4348,1038.3,4349.4,1040,4349.4z"/>
			<path class="st9" d="M1049.3,4341.6v0.9c0.4-0.4,1.5-1.1,2.8-1.1c1.4,0,2.5,0.6,3.3,1.6c0.9-0.9,1.9-1.6,3.6-1.6
				c1.3,0,2.6,0.6,3.3,1.6c0.6,0.7,0.9,1.6,0.9,3.2v4.8h-1.9v-5.1c0-1-0.2-1.5-0.5-1.9c-0.4-0.5-1.1-0.8-1.8-0.8
				c-1.4,0-2.2,0.7-2.9,1.3c0.1,0.5,0.2,1,0.2,1.7v4.8h-1.9v-5.1c0-1-0.2-1.5-0.5-1.9c-0.4-0.5-1.1-0.8-1.8-0.8
				c-1.2,0-2.1,0.7-2.6,1.3v6.5h-1.9v-9.4H1049.3z"/>
			<path class="st9" d="M1067.4,4346.7c0.1,1.6,1.4,2.8,3,2.8c1.4,0,2.2-0.7,2.7-1.3l1.2,1.2c-0.7,0.9-2,1.8-4,1.8
				c-2.7,0-4.9-2.1-4.9-4.9s1.9-4.9,4.6-4.9c2.6,0,4.5,2.1,4.5,4.9c0,0.1,0,0.2,0,0.4H1067.4z M1067.6,4345.1h5.1
				c-0.3-1.2-1.4-2-2.5-2C1069,4343.1,1067.9,4343.9,1067.6,4345.1z"/>
			<path class="st9" d="M1084.2,4350.1c-0.8,0.7-1.8,1.1-2.9,1.1c-0.8,0-1.7-0.2-2.4-0.6c-1.4-0.8-2.4-2.4-2.4-4.3
				c0-1.9,1-3.5,2.4-4.3c0.6-0.4,1.4-0.6,2.3-0.6c1,0,2,0.3,2.9,1v-5.6h1.9v14.2h-1.8V4350.1z M1084.1,4344.5
				c-0.6-0.8-1.5-1.3-2.7-1.3c-1.8,0-3,1.5-3,3.1c0,1.7,1.3,3.1,3.1,3.1c1,0,1.9-0.5,2.6-1.3V4344.5z"/>
			<path class="st9" d="M1090.3,4337c0.7,0,1.3,0.6,1.3,1.3s-0.6,1.2-1.3,1.2s-1.2-0.5-1.2-1.2S1089.6,4337,1090.3,4337z
				 M1089.4,4341.6h1.9v9.4h-1.9V4341.6z"/>
			<path class="st9" d="M1098.8,4341.4c2.8,0,4.9,2.1,4.9,4.9s-2.1,4.9-4.9,4.9c-2.8,0-4.9-2.1-4.9-4.9S1096,4341.4,1098.8,4341.4z
				 M1098.8,4349.4c1.7,0,3-1.4,3-3.1c0-1.7-1.2-3.1-3-3.1s-3,1.4-3,3.1C1095.8,4348,1097,4349.4,1098.8,4349.4z"/>
			<path class="st9" d="M1113.5,4355.8h-1.9v-14.2h1.8v0.9c0.9-0.7,1.9-1.1,2.9-1.1c0.9,0,1.7,0.2,2.3,0.6c1.4,0.8,2.4,2.4,2.4,4.3
				c0,1.9-1,3.4-2.4,4.3c-0.6,0.4-1.5,0.6-2.4,0.6c-1.1,0-2.1-0.4-2.8-1V4355.8z M1113.5,4348.1c0.6,0.9,1.6,1.3,2.6,1.3
				c1.8,0,3.1-1.4,3.1-3.1c0-1.6-1.2-3.1-3-3.1c-1.1,0-2.1,0.6-2.7,1.3V4348.1z"/>
			<path class="st9" d="M1127.8,4341.4c2.8,0,4.9,2.1,4.9,4.9s-2.1,4.9-4.9,4.9c-2.8,0-4.9-2.1-4.9-4.9S1125,4341.4,1127.8,4341.4z
				 M1127.8,4349.4c1.7,0,3-1.4,3-3.1c0-1.7-1.2-3.1-3-3.1s-3,1.4-3,3.1C1124.8,4348,1126,4349.4,1127.8,4349.4z"/>
			<path class="st9" d="M1140.4,4343.3c-0.2-0.1-0.4-0.1-0.7-0.1c-1,0-2,0.7-2.5,1.6v6.2h-1.9v-9.4h1.8v1.1c0.5-0.6,1.4-1.3,2.8-1.3
				c0.2,0,0.5,0,0.7,0.1L1140.4,4343.3z"/>
			<path class="st9" d="M1156.5,4349c-0.8,1.3-2.5,2.2-4.2,2.2c-2.9,0-5-2.1-5-4.9c0-2.8,2.1-4.9,4.9-4.9c1.6,0,3.1,0.8,4,2
				l-1.4,1.2c-0.5-0.7-1.4-1.4-2.6-1.4c-1.7,0-3,1.3-3,3.1c0,1.8,1.3,3.1,3.1,3.1c1.2,0,2.1-0.7,2.7-1.5L1156.5,4349z"/>
			<path class="st9" d="M1165.6,4350.1c-0.8,0.7-1.8,1.1-2.9,1.1c-0.8,0-1.7-0.2-2.4-0.6c-1.4-0.8-2.4-2.4-2.4-4.3
				c0-1.9,1-3.5,2.4-4.3c0.6-0.4,1.4-0.6,2.3-0.6c1.1,0,2.1,0.3,2.9,1.1v-0.9h1.8v9.4h-1.8V4350.1z M1165.5,4344.5
				c-0.6-0.8-1.5-1.3-2.7-1.3c-1.8,0-3,1.5-3,3.1c0,1.7,1.3,3.1,3.1,3.1c1,0,1.9-0.5,2.6-1.3V4344.5z"/>
			<path class="st9" d="M1176.6,4351c-0.4,0.1-0.9,0.2-1.5,0.2c-1.2,0-2.1-0.4-2.7-1.1c-0.6-0.6-0.8-1.5-0.8-2.5v-4.3h-2.4v-1.7h2.4
				v-2.6h1.9v2.6h3v1.7h-3v4.4c0,0.5,0,0.9,0.3,1.2c0.3,0.3,0.8,0.5,1.3,0.5c0.3,0,0.8,0,1-0.1L1176.6,4351z"/>
			<path class="st9" d="M1180,4346.7c0.1,1.6,1.4,2.8,3,2.8c1.4,0,2.2-0.7,2.7-1.3l1.2,1.2c-0.7,0.9-2,1.8-4,1.8
				c-2.7,0-4.9-2.1-4.9-4.9s1.9-4.9,4.6-4.9c2.6,0,4.5,2.1,4.5,4.9c0,0.1,0,0.2,0,0.4H1180z M1180.1,4345.1h5.1
				c-0.3-1.2-1.4-2-2.5-2C1181.6,4343.1,1180.5,4343.9,1180.1,4345.1z"/>
			<path class="st9" d="M1193.8,4351.2c-0.8,0-1.7-0.2-2.4-0.6c-1.4-0.8-2.4-2.4-2.4-4.3c0-1.9,1-3.5,2.4-4.3
				c0.6-0.4,1.4-0.6,2.3-0.6c1.1,0,2.1,0.3,2.9,1.1v-0.9h1.8v9c0,1.4-0.2,2.3-0.6,3.1c-0.8,1.5-2.2,2.3-4.1,2.3
				c-2.4,0-4-1.2-4.6-2.2l1.4-1.3c0.7,0.9,1.6,1.7,3.1,1.7c1,0,1.8-0.4,2.3-1.1c0.3-0.5,0.5-1.2,0.5-2.4v-0.5
				C1195.9,4350.8,1194.9,4351.2,1193.8,4351.2z M1196.6,4344.5c-0.6-0.8-1.5-1.3-2.7-1.3c-1.8,0-3,1.5-3,3.1c0,1.7,1.3,3.1,3.1,3.1
				c1,0,1.9-0.5,2.6-1.3V4344.5z"/>
			<path class="st9" d="M1206,4341.4c2.8,0,4.9,2.1,4.9,4.9s-2.1,4.9-4.9,4.9c-2.8,0-4.9-2.1-4.9-4.9S1203.2,4341.4,1206,4341.4z
				 M1206,4349.4c1.7,0,3-1.4,3-3.1c0-1.7-1.2-3.1-3-3.1s-3,1.4-3,3.1C1203,4348,1204.3,4349.4,1206,4349.4z"/>
			<path class="st9" d="M1218.6,4343.3c-0.2-0.1-0.4-0.1-0.7-0.1c-1,0-2,0.7-2.5,1.6v6.2h-1.9v-9.4h1.8v1.1c0.5-0.6,1.4-1.3,2.8-1.3
				c0.2,0,0.5,0,0.7,0.1L1218.6,4343.3z"/>
			<path class="st9" d="M1221.2,4340l1.3-3h2.1l-2.1,3H1221.2z M1221.2,4341.6h1.9v9.4h-1.9V4341.6z"/>
			<path class="st9" d="M1233.3,4350.1c-0.8,0.7-1.8,1.1-2.9,1.1c-0.8,0-1.7-0.2-2.4-0.6c-1.4-0.8-2.4-2.4-2.4-4.3
				c0-1.9,1-3.5,2.4-4.3c0.6-0.4,1.4-0.6,2.3-0.6c1.1,0,2.1,0.3,2.9,1.1v-0.9h1.8v9.4h-1.8V4350.1z M1233.3,4344.5
				c-0.6-0.8-1.5-1.3-2.7-1.3c-1.8,0-3,1.5-3,3.1c0,1.7,1.3,3.1,3.1,3.1c1,0,1.9-0.5,2.6-1.3V4344.5z"/>
		</g>
		<g class="st0">
			<path class="st9" d="M736,4347.5c0.8,1,2,1.8,3.4,1.8c1.3,0,2.4-0.8,2.4-2.1c0-2.1-3-2.4-4.8-3.6c-1-0.7-1.8-1.6-1.8-3.1
				c0-2,1.8-3.7,4.2-3.7c1.8,0,3,0.8,3.8,1.4l-1.2,1.5c-0.8-0.6-1.6-1-2.5-1c-1.2,0-2.3,0.7-2.3,1.9c0,1.8,3,2.2,4.8,3.4
				c0.9,0.6,1.8,1.6,1.8,3.2c0,2.5-1.9,4.1-4.3,4.1c-1.9,0-3.7-0.8-4.9-2.3L736,4347.5z"/>
			<path class="st9" d="M747.4,4346.7c0.1,1.6,1.4,2.8,3,2.8c1.4,0,2.2-0.7,2.7-1.3l1.2,1.2c-0.7,0.9-2,1.8-4,1.8
				c-2.7,0-4.9-2.1-4.9-4.9s1.9-4.9,4.6-4.9c2.6,0,4.5,2.1,4.5,4.9c0,0.1,0,0.2,0,0.4H747.4z M747.5,4345.1h5.1
				c-0.3-1.2-1.4-2-2.5-2C748.9,4343.1,747.8,4343.9,747.5,4345.1z"/>
			<path class="st9" d="M762.4,4343.3c-0.2-0.1-0.4-0.1-0.7-0.1c-1,0-2,0.7-2.5,1.6v6.2h-1.9v-9.4h1.8v1.1c0.5-0.6,1.4-1.3,2.8-1.3
				c0.2,0,0.5,0,0.7,0.1L762.4,4343.3z"/>
			<path class="st9" d="M764.2,4341.6h2l2.8,6.4l2.8-6.4h2l-4.1,9.4h-1.3L764.2,4341.6z"/>
			<path class="st9" d="M776.5,4337c0.7,0,1.3,0.6,1.3,1.3s-0.6,1.2-1.3,1.2s-1.2-0.5-1.2-1.2S775.8,4337,776.5,4337z M775.6,4341.6
				h1.9v9.4h-1.9V4341.6z"/>
			<path class="st9" d="M789.3,4349c-0.8,1.3-2.5,2.2-4.2,2.2c-2.9,0-5-2.1-5-4.9c0-2.8,2.1-4.9,4.9-4.9c1.6,0,3.1,0.8,4,2l-1.4,1.2
				c-0.5-0.7-1.4-1.4-2.6-1.4c-1.7,0-3,1.3-3,3.1c0,1.8,1.3,3.1,3.1,3.1c1.2,0,2.1-0.7,2.7-1.5L789.3,4349z"/>
			<path class="st9" d="M792.4,4337c0.7,0,1.3,0.6,1.3,1.3s-0.6,1.2-1.3,1.2s-1.2-0.5-1.2-1.2S791.7,4337,792.4,4337z M791.5,4341.6
				h1.9v9.4h-1.9V4341.6z"/>
			<path class="st9" d="M800.9,4341.4c2.8,0,4.9,2.1,4.9,4.9s-2.1,4.9-4.9,4.9s-4.9-2.1-4.9-4.9S798.1,4341.4,800.9,4341.4z
				 M800.9,4349.4c1.7,0,3-1.4,3-3.1c0-1.7-1.2-3.1-3-3.1s-3,1.4-3,3.1C797.9,4348,799.1,4349.4,800.9,4349.4z"/>
			<path class="st9" d="M808.4,4348.5c0.9,0.7,1.8,1,2.8,1c0.8,0,1.6-0.4,1.6-1.2c0-1.1-1.6-1.1-2.9-1.6c-1.1-0.4-2.2-1.1-2.2-2.4
				c0-2,1.8-2.9,3.5-2.9c1.4,0,2.4,0.4,3.1,1l-1,1.4c-0.6-0.4-1.3-0.7-2-0.7c-0.9,0-1.7,0.4-1.7,1.2c0,0.6,0.7,0.9,1.7,1.1
				c1.5,0.4,3.4,1,3.4,3c0,1.8-1.7,2.9-3.5,2.9c-1.5,0-2.8-0.5-3.8-1.3L808.4,4348.5z"/>
			<path class="st9" d="M824.7,4355.8h-1.9v-14.2h1.8v0.9c0.9-0.7,1.9-1.1,2.9-1.1c0.9,0,1.7,0.2,2.3,0.6c1.4,0.8,2.4,2.4,2.4,4.3
				c0,1.9-1,3.4-2.4,4.3c-0.6,0.4-1.5,0.6-2.4,0.6c-1.1,0-2.1-0.4-2.8-1V4355.8z M824.7,4348.1c0.6,0.9,1.6,1.3,2.6,1.3
				c1.8,0,3.1-1.4,3.1-3.1c0-1.6-1.2-3.1-3-3.1c-1.1,0-2.1,0.6-2.7,1.3V4348.1z"/>
			<path class="st9" d="M835.6,4349.6c-0.6-0.7-0.9-1.6-0.9-3.2v-4.8h1.9v5.1c0,1,0.2,1.5,0.5,1.9c0.4,0.5,1.1,0.8,1.8,0.8
				c1.2,0,2.1-0.7,2.6-1.3v-6.5h1.9v9.4h-1.8v-0.9c-0.4,0.4-1.5,1.1-2.8,1.1C837.6,4351.2,836.4,4350.6,835.6,4349.6z M838.4,4340
				l1.3-3h2.1l-2.1,3H838.4z"/>
			<path class="st9" d="M848.8,4351h-1.8v-14.2h1.9v5.6c0.8-0.7,1.9-1,2.9-1c0.9,0,1.7,0.2,2.3,0.6c1.4,0.8,2.4,2.4,2.4,4.3
				c0,1.9-1,3.4-2.4,4.3c-0.6,0.4-1.5,0.6-2.4,0.6c-1.1,0-2.1-0.4-2.9-1.1V4351z M848.8,4348.1c0.6,0.9,1.6,1.3,2.6,1.3
				c1.8,0,3.1-1.4,3.1-3.1c0-1.6-1.2-3.1-3-3.1c-1.1,0-2.1,0.6-2.7,1.3V4348.1z"/>
			<path class="st9" d="M859,4336.8h1.9v14.2H859V4336.8z"/>
			<path class="st9" d="M865.3,4337c0.7,0,1.3,0.6,1.3,1.3s-0.6,1.2-1.3,1.2s-1.2-0.5-1.2-1.2S864.6,4337,865.3,4337z M864.3,4341.6
				h1.9v9.4h-1.9V4341.6z"/>
			<path class="st9" d="M878,4349c-0.8,1.3-2.5,2.2-4.2,2.2c-2.9,0-5-2.1-5-4.9c0-2.8,2.1-4.9,4.9-4.9c1.6,0,3.1,0.8,4,2l-1.4,1.2
				c-0.5-0.7-1.4-1.4-2.6-1.4c-1.7,0-3,1.3-3,3.1c0,1.8,1.3,3.1,3.1,3.1c1.2,0,2.1-0.7,2.7-1.5L878,4349z"/>
			<path class="st9" d="M884.3,4341.4c2.8,0,4.9,2.1,4.9,4.9s-2.1,4.9-4.9,4.9s-4.9-2.1-4.9-4.9S881.5,4341.4,884.3,4341.4z
				 M884.3,4349.4c1.7,0,3-1.4,3-3.1c0-1.7-1.2-3.1-3-3.1s-3,1.4-3,3.1C881.3,4348,882.5,4349.4,884.3,4349.4z"/>
			<path class="st9" d="M891.8,4348.5c0.9,0.7,1.8,1,2.8,1c0.8,0,1.6-0.4,1.6-1.2c0-1.1-1.6-1.1-2.9-1.6c-1.1-0.4-2.2-1.1-2.2-2.4
				c0-2,1.8-2.9,3.5-2.9c1.4,0,2.4,0.4,3.1,1l-1,1.4c-0.6-0.4-1.3-0.7-2-0.7c-0.9,0-1.7,0.4-1.7,1.2c0,0.6,0.7,0.9,1.7,1.1
				c1.5,0.4,3.4,1,3.4,3c0,1.8-1.7,2.9-3.5,2.9c-1.5,0-2.8-0.5-3.8-1.3L891.8,4348.5z"/>
		</g>
	</g>
</g>
</svg>
