<?xml version="1.0" encoding="utf-8"?>
<!-- Generator: Adobe Illustrator 25.2.0, SVG Export Plug-In . SVG Version: 6.00 Build 0)  -->
<svg version="1.1" id="Capa_1" xmlns="http://www.w3.org/2000/svg" xmlns:xlink="http://www.w3.org/1999/xlink" x="0px" y="0px"
	 viewBox="0 0 1205.5 839" style="enable-background:new 0 0 1205.5 839;" xml:space="preserve">
<style type="text/css">
	.st0{fill:none;stroke:#989898;stroke-linecap:round;}
	.st1{enable-background:new    ;}
	.st2{fill:#333333;}
	.st3{fill:#9372FC;}
	.st4{fill:#16BAC5;}
	.st5{fill:#FF5154;}
	.st6{fill:none;stroke:#717171;stroke-width:4;}
	.st7{fill:none;stroke:#333333;stroke-width:3;stroke-linecap:square;stroke-dasharray:6,8;}
	.st8{fill:#FFFFFF;}
	.st9{fill:none;stroke:#FFFFFF;stroke-width:3;}
	.st10{fill:#AAAAAA;}
</style>
<g id="Grupo_2156" transform="translate(-276.874 -3706.043)">
	<g id="Grupo_2074" transform="translate(151.874 -194.957)">
		<line id="Línea_511" class="st0" x1="302.9" y1="4325.7" x2="1330" y2="4325.7"/>
		<line id="Línea_512" class="st0" x1="302.9" y1="4123.8" x2="1330" y2="4123.8"/>
		<line id="Línea_513" class="st0" x1="302.9" y1="3922.4" x2="1330" y2="3922.4"/>
		<g class="st1">
			<path class="st2" d="M235.6,4118l3.4-2h1.9v14h-2.7v-10.9l-2.6,1.4V4118z"/>
			<path class="st2" d="M249,4115.8c3.6,0,4.9,3.2,4.9,7.2c0,4-1.3,7.2-4.9,7.2c-3.6,0-4.9-3.2-4.9-7.2
				C244.1,4119,245.4,4115.8,249,4115.8z M249,4118.2c-1.6,0-2.2,2.2-2.2,4.8c0,2.6,0.6,4.8,2.2,4.8c1.6,0,2.2-2.2,2.2-4.8
				C251.2,4120.3,250.6,4118.2,249,4118.2z"/>
		</g>
		<g class="st1">
			<path class="st2" d="M246.3,4323.6c0.6,0.6,1.5,1.1,2.4,1.1c0.6,0,1.2-0.2,1.7-0.6c0.5-0.4,0.8-1.1,0.8-1.8
				c0-0.8-0.3-1.4-0.9-1.9c-0.4-0.4-1-0.6-1.7-0.6c-0.7,0-1.5,0.3-2.1,0.8l-1.7-0.2l0.9-7.4h7.4v2.4H248l-0.2,2.2
				c0.3-0.1,0.7-0.1,1.1-0.1c1.1,0,2.3,0.3,3.3,1.1c1.1,0.9,1.8,2.3,1.8,3.8c0,2.8-2.3,4.8-5.2,4.8c-1.6,0-3-0.6-4.2-1.8
				L246.3,4323.6z"/>
		</g>
		<g class="st1">
			<path class="st2" d="M236.3,3912l3.4-2h1.9v14h-2.7v-10.9l-2.6,1.4V3912z"/>
			<path class="st2" d="M246.3,3920.6c0.6,0.6,1.5,1.1,2.4,1.1c0.6,0,1.2-0.2,1.7-0.6c0.5-0.4,0.8-1.1,0.8-1.8
				c0-0.8-0.3-1.4-0.9-1.9c-0.4-0.4-1-0.6-1.7-0.6c-0.7,0-1.5,0.3-2.1,0.8l-1.7-0.2l0.9-7.4h7.4v2.4H248l-0.2,2.2
				c0.3-0.1,0.7-0.1,1.1-0.1c1.1,0,2.3,0.3,3.3,1.1c1.1,0.9,1.8,2.3,1.8,3.8c0,2.8-2.3,4.8-5.2,4.8c-1.6,0-3-0.6-4.2-1.8
				L246.3,3920.6z"/>
		</g>
		<g class="st1">
			<path class="st2" d="M249,4506.8c3.6,0,4.9,3.2,4.9,7.2c0,4-1.3,7.2-4.9,7.2c-3.6,0-4.9-3.2-4.9-7.2
				C244.1,4510,245.4,4506.8,249,4506.8z M249,4509.2c-1.6,0-2.2,2.2-2.2,4.8c0,2.6,0.6,4.8,2.2,4.8c1.6,0,2.2-2.2,2.2-4.8
				C251.2,4511.3,250.6,4509.2,249,4509.2z"/>
		</g>
		<rect id="Rectángulo_756" x="505" y="4365" class="st3" width="154" height="158"/>
		<rect id="Rectángulo_759" x="667" y="4380" class="st4" width="154" height="143"/>
		<rect id="Rectángulo_762" x="829" y="4392" class="st5" width="154" height="131"/>
		<line id="Línea_514" class="st6" x1="1330" y1="4525.1" x2="288.3" y2="4525.1"/>
		<g class="st1">
			<path class="st2" d="M583.7,4318v12.6h3.4v3.6h-3.4v4.8h-4v-4.8h-9.7v-2.4l10.9-13.8H583.7z M579.6,4330.6v-4.9l-3.9,4.9H579.6z"
				/>
		</g>
		<g class="st1">
			<path class="st2" d="M729.1,4349.6c0.9,1.2,2.3,2.1,3.9,2.1c2,0,3.9-1.6,3.9-3.8c0-2.2-1.8-3.8-4.1-3.8c-0.8,0-1.7,0.2-2.5,0.6
				v-2.4l3.9-4.7h-7v-3.6h12.7v2.4l-3.8,4.7c2.9,1.1,4.9,3.6,4.9,6.8c0,4.4-3.5,7.4-7.8,7.4c-2.6,0-5.1-1.2-7-3.3L729.1,4349.6z"/>
			<path class="st2" d="M750.6,4350.3l-3.6,8.8h-2.8l2.2-8.8H750.6z"/>
			<path class="st2" d="M766.7,4334l-4,6.7h0.3c4,0,7.3,3,7.3,7.2c0,4.1-3.4,7.4-7.5,7.4c-3.9,0-7.7-2.8-7.7-7.2
				c0-2.1,1-3.9,2.1-5.8l4.9-8.3H766.7z M759.1,4348.1c0,2,1.7,3.6,3.7,3.6c2.1,0,3.5-1.7,3.5-3.7s-1.5-3.8-3.7-3.8
				c-0.8,0-1.5,0.2-2.2,0.5C759.8,4345.5,759.1,4346.7,759.1,4348.1z"/>
		</g>
		<g class="st1">
			<path class="st2" d="M883,4359.6c0.9,1.2,2.3,2.1,3.9,2.1c2,0,3.9-1.6,3.9-3.8c0-2.2-1.8-3.8-4.1-3.8c-0.8,0-1.7,0.2-2.5,0.6
				v-2.4l3.9-4.7h-7v-3.6h12.7v2.4l-3.8,4.7c2.9,1.1,4.9,3.6,4.9,6.8c0,4.4-3.5,7.4-7.8,7.4c-2.6,0-5.1-1.2-7-3.3L883,4359.6z"/>
			<path class="st2" d="M904.5,4360.3l-3.6,8.8h-2.8l2.2-8.8H904.5z"/>
			<path class="st2" d="M912.1,4359.6c0.9,1.2,2.3,2.1,3.9,2.1c2,0,3.9-1.6,3.9-3.8c0-2.2-1.8-3.8-4.1-3.8c-0.8,0-1.7,0.2-2.5,0.6
				v-2.4l3.9-4.7h-7v-3.6h12.8v2.4l-3.8,4.7c2.9,1.1,4.9,3.6,4.9,6.8c0,4.4-3.5,7.4-7.8,7.4c-2.6,0-5.1-1.2-7-3.3L912.1,4359.6z"/>
		</g>
		<g class="st1">
			<path class="st2" d="M730,3904l5.1-3h2.9v21h-4v-16.3l-3.9,2.2V3904z"/>
			<path class="st2" d="M755.5,3901v12.6h3.5v3.6h-3.5v4.8h-4v-4.8h-9.7v-2.4l10.9-13.8H755.5z M751.5,3913.6v-4.9l-3.9,4.9H751.5z"
				/>
			<path class="st2" d="M766.9,3917.4l-3.6,8.8h-2.8l2.2-8.8H766.9z"/>
			<path class="st2" d="M774.2,3917c0.9,1,2.2,1.7,3.6,1.7c0.9,0,1.8-0.3,2.5-1c0.7-0.7,1.2-1.6,1.2-2.7c0-1.1-0.5-2.2-1.3-2.8
				c-0.7-0.6-1.6-0.8-2.5-0.8c-1,0-2.2,0.4-3.1,1.1l-2.5-0.4l1.3-11.1h11.1v3.6h-7.8l-0.3,3.3c0.4-0.1,1.1-0.1,1.6-0.1
				c1.6,0,3.4,0.4,4.9,1.6c1.7,1.3,2.7,3.4,2.7,5.7c0,4.1-3.5,7.3-7.7,7.3c-2.4,0-4.5-0.9-6.4-2.7L774.2,3917z"/>
		</g>
		<line id="Línea_516" class="st7" x1="505.5" y1="3953.9" x2="1014.1" y2="3953.9"/>
	</g>
	<g id="Grupo_2064" transform="translate(150 24)">
		<line id="Línea_508" class="st7" x1="905.5" y1="4503.2" x2="967.5" y2="4503.2"/>
		<g id="Trazado_2768" transform="translate(348 4479)">
			<path class="st3" d="M20,38.5c-4.9,0-9.6-1.9-13.1-5.4C3.4,29.6,1.5,24.9,1.5,20s1.9-9.6,5.4-13.1S15.1,1.5,20,1.5
				s9.6,1.9,13.1,5.4c3.5,3.5,5.4,8.1,5.4,13.1s-1.9,9.6-5.4,13.1C29.6,36.6,24.9,38.5,20,38.5z"/>
			<path class="st8" d="M20,3c-4.5,0-8.8,1.8-12,5c-3.2,3.2-5,7.5-5,12s1.8,8.8,5,12c3.2,3.2,7.5,5,12,5s8.8-1.8,12-5
				c3.2-3.2,5-7.5,5-12s-1.8-8.8-5-12C28.8,4.8,24.5,3,20,3 M20,0c11,0,20,9,20,20s-9,20-20,20S0,31,0,20S9,0,20,0z"/>
		</g>
		<g id="Elipse_364" transform="translate(735 4481)">
			<circle class="st5" cx="20" cy="20" r="20"/>
			<circle class="st9" cx="20" cy="20" r="18.5"/>
		</g>
		<g class="st1">
			<path class="st10" d="M785.8,4496.7v10.3h-2v-14h1.4l8.4,10.3V4493h2v14h-1.4L785.8,4496.7z"/>
			<path class="st10" d="M799.8,4505.6c-0.6-0.7-0.9-1.6-0.9-3.2v-4.8h1.9v5.1c0,1,0.2,1.5,0.5,1.9c0.4,0.5,1.1,0.8,1.8,0.8
				c1.2,0,2.1-0.7,2.6-1.3v-6.5h1.9v9.4h-1.8v-0.9c-0.4,0.4-1.5,1.1-2.8,1.1C801.8,4507.2,800.5,4506.6,799.8,4505.6z"/>
			<path class="st10" d="M812.1,4502.7c0.1,1.6,1.4,2.8,3,2.8c1.4,0,2.2-0.7,2.7-1.3l1.2,1.2c-0.7,0.9-2,1.8-4,1.8
				c-2.7,0-4.9-2.1-4.9-4.9s1.9-4.9,4.6-4.9c2.6,0,4.5,2.1,4.5,4.9c0,0.1,0,0.2,0,0.4H812.1z M812.3,4501.1h5.1
				c-0.3-1.2-1.4-2-2.5-2C813.7,4499.1,812.6,4499.9,812.3,4501.1z"/>
			<path class="st10" d="M820.4,4497.6h2l2.8,6.4l2.8-6.4h2l-4.1,9.4h-1.3L820.4,4497.6z"/>
			<path class="st10" d="M838.5,4506.1c-0.8,0.7-1.8,1.1-2.9,1.1c-0.8,0-1.7-0.2-2.4-0.6c-1.4-0.8-2.4-2.4-2.4-4.3
				c0-1.9,1-3.5,2.4-4.3c0.6-0.4,1.4-0.6,2.3-0.6c1.1,0,2.1,0.3,2.9,1.1v-0.9h1.8v9.4h-1.8V4506.1z M838.5,4500.5
				c-0.6-0.8-1.5-1.3-2.7-1.3c-1.8,0-3,1.5-3,3.1c0,1.7,1.3,3.1,3.1,3.1c1,0,1.9-0.5,2.6-1.3V4500.5z"/>
			<path class="st10" d="M843.9,4504.5c0.9,0.7,1.8,1,2.8,1c0.8,0,1.6-0.4,1.6-1.2c0-1.1-1.6-1.1-2.9-1.6c-1.1-0.4-2.2-1.1-2.2-2.4
				c0-2,1.8-2.9,3.5-2.9c1.4,0,2.4,0.4,3.1,1l-1,1.4c-0.6-0.4-1.3-0.7-2-0.7c-0.9,0-1.7,0.4-1.7,1.2c0,0.6,0.7,0.9,1.7,1.1
				c1.5,0.4,3.4,1,3.4,3c0,1.8-1.7,2.9-3.5,2.9c-1.5,0-2.8-0.5-3.8-1.3L843.9,4504.5z"/>
		</g>
		<g class="st1">
			<path class="st10" d="M994.3,4504h-1.4l-4.1-6.4v9.4h-2v-14h1.4l5.4,8.5l5.4-8.5h1.4v14h-2v-9.4L994.3,4504z"/>
			<path class="st10" d="M1010.8,4506.1c-0.8,0.7-1.8,1.1-2.9,1.1c-0.8,0-1.7-0.2-2.4-0.6c-1.4-0.8-2.4-2.4-2.4-4.3
				c0-1.9,1-3.5,2.4-4.3c0.6-0.4,1.4-0.6,2.3-0.6c1.1,0,2.1,0.3,2.9,1.1v-0.9h1.8v9.4h-1.8V4506.1z M1010.7,4500.5
				c-0.6-0.8-1.5-1.3-2.7-1.3c-1.8,0-3,1.5-3,3.1c0,1.7,1.3,3.1,3.1,3.1c1,0,1.9-0.5,2.6-1.3V4500.5z M1007.2,4496l1.3-3h2.1l-2.1,3
				H1007.2z"/>
			<path class="st10" d="M1019.4,4503.5l-2.5,3.5h-2.3l3.6-4.9l-3.2-4.5h2.2l2.2,3l2.2-3h2.2l-3.2,4.5l3.6,4.9h-2.3L1019.4,4503.5z"
				/>
			<path class="st10" d="M1028.1,4504.4c0.8,0,1.4,0.6,1.4,1.4s-0.6,1.4-1.4,1.4c-0.8,0-1.4-0.6-1.4-1.4
				S1027.3,4504.4,1028.1,4504.4z"/>
			<path class="st10" d="M1039.3,4511.8h-1.9v-14.2h1.8v0.9c0.9-0.7,1.9-1.1,2.9-1.1c0.9,0,1.7,0.2,2.3,0.6c1.4,0.8,2.4,2.4,2.4,4.3
				c0,1.9-1,3.4-2.4,4.3c-0.6,0.4-1.5,0.6-2.4,0.6c-1.1,0-2.1-0.4-2.8-1V4511.8z M1039.3,4504.1c0.6,0.9,1.6,1.3,2.6,1.3
				c1.8,0,3.1-1.4,3.1-3.1c0-1.6-1.2-3.1-3-3.1c-1.1,0-2.1,0.6-2.7,1.3V4504.1z"/>
			<path class="st10" d="M1050.2,4505.6c-0.6-0.7-0.9-1.6-0.9-3.2v-4.8h1.9v5.1c0,1,0.2,1.5,0.5,1.9c0.4,0.5,1.1,0.8,1.8,0.8
				c1.2,0,2.1-0.7,2.6-1.3v-6.5h1.9v9.4h-1.8v-0.9c-0.4,0.4-1.5,1.1-2.8,1.1C1052.2,4507.2,1050.9,4506.6,1050.2,4505.6z"/>
			<path class="st10" d="M1063.3,4498.5c0.5-0.5,1.5-1.1,2.8-1.1c1.4,0,2.6,0.6,3.4,1.7c0.6,0.8,0.9,1.7,0.9,3.3v4.6h-1.9v-4.7
				c0-1.2-0.2-1.8-0.6-2.2c-0.4-0.6-1.2-0.9-1.9-0.9c-1.2,0-2.1,0.7-2.7,1.3v6.5h-1.9v-9.4h1.8V4498.5z"/>
			<path class="st10" d="M1079.4,4507c-0.4,0.1-0.9,0.2-1.5,0.2c-1.2,0-2.1-0.4-2.7-1.1c-0.6-0.6-0.8-1.5-0.8-2.5v-4.3h-2.4v-1.7
				h2.4v-2.6h1.9v2.6h3v1.7h-3v4.4c0,0.5,0,0.9,0.3,1.2c0.3,0.3,0.8,0.5,1.3,0.5c0.3,0,0.8,0,1-0.1L1079.4,4507z"/>
			<path class="st10" d="M1088.6,4506.1c-0.8,0.7-1.8,1.1-2.9,1.1c-0.8,0-1.7-0.2-2.4-0.6c-1.4-0.8-2.4-2.4-2.4-4.3
				c0-1.9,1-3.5,2.4-4.3c0.6-0.4,1.4-0.6,2.3-0.6c1.1,0,2.1,0.3,2.9,1.1v-0.9h1.8v9.4h-1.8V4506.1z M1088.5,4500.5
				c-0.6-0.8-1.5-1.3-2.7-1.3c-1.8,0-3,1.5-3,3.1c0,1.7,1.3,3.1,3.1,3.1c1,0,1.9-0.5,2.6-1.3V4500.5z"/>
			<path class="st10" d="M1094.2,4497.6h1.9v10.2c0,1.3-0.2,2-0.6,2.6c-0.7,1-1.8,1.6-3.1,1.6c-0.4,0-0.9-0.1-1.1-0.1l0.4-1.7
				c0.1,0,0.4,0.1,0.7,0.1c0.5,0,1.1-0.2,1.4-0.7c0.3-0.3,0.4-0.8,0.4-1.7V4497.6z M1095.1,4493c0.7,0,1.3,0.6,1.3,1.3
				s-0.6,1.2-1.3,1.2s-1.2-0.5-1.2-1.2S1094.4,4493,1095.1,4493z"/>
			<path class="st10" d="M1100.5,4502.7c0.1,1.6,1.4,2.8,3,2.8c1.4,0,2.2-0.7,2.7-1.3l1.2,1.2c-0.7,0.9-2,1.8-4,1.8
				c-2.7,0-4.9-2.1-4.9-4.9s1.9-4.9,4.6-4.9c2.6,0,4.5,2.1,4.5,4.9c0,0.1,0,0.2,0,0.4H1100.5z M1100.7,4501.1h5.1
				c-0.3-1.2-1.4-2-2.5-2C1102.1,4499.1,1101,4499.9,1100.7,4501.1z"/>
			<path class="st10" d="M1117.7,4511.8h-1.9v-14.2h1.8v0.9c0.9-0.7,1.9-1.1,2.9-1.1c0.9,0,1.7,0.2,2.3,0.6c1.4,0.8,2.4,2.4,2.4,4.3
				c0,1.9-1,3.4-2.4,4.3c-0.6,0.4-1.5,0.6-2.4,0.6c-1.1,0-2.1-0.4-2.8-1V4511.8z M1117.7,4504.1c0.6,0.9,1.6,1.3,2.6,1.3
				c1.8,0,3.1-1.4,3.1-3.1c0-1.6-1.2-3.1-3-3.1c-1.1,0-2.1,0.6-2.7,1.3V4504.1z"/>
			<path class="st10" d="M1132,4497.4c2.8,0,4.9,2.1,4.9,4.9s-2.1,4.9-4.9,4.9c-2.8,0-4.9-2.1-4.9-4.9S1129.2,4497.4,1132,4497.4z
				 M1132,4505.4c1.7,0,3-1.4,3-3.1c0-1.7-1.2-3.1-3-3.1s-3,1.4-3,3.1C1129,4504,1130.2,4505.4,1132,4505.4z"/>
			<path class="st10" d="M1139.5,4504.5c0.9,0.7,1.8,1,2.8,1c0.8,0,1.6-0.4,1.6-1.2c0-1.1-1.6-1.1-2.9-1.6c-1.1-0.4-2.2-1.1-2.2-2.4
				c0-2,1.8-2.9,3.5-2.9c1.4,0,2.4,0.4,3.1,1l-1,1.4c-0.6-0.4-1.3-0.7-2-0.7c-0.9,0-1.7,0.4-1.7,1.2c0,0.6,0.7,0.9,1.7,1.1
				c1.5,0.4,3.4,1,3.4,3c0,1.8-1.7,2.9-3.5,2.9c-1.5,0-2.8-0.5-3.8-1.3L1139.5,4504.5z"/>
			<path class="st10" d="M1149.5,4493c0.7,0,1.3,0.6,1.3,1.3s-0.6,1.2-1.3,1.2c-0.7,0-1.2-0.5-1.2-1.2S1148.8,4493,1149.5,4493z
				 M1148.5,4497.6h1.9v9.4h-1.9V4497.6z"/>
			<path class="st10" d="M1155.7,4507h-1.8v-14.2h1.9v5.6c0.8-0.7,1.9-1,2.9-1c0.9,0,1.7,0.2,2.3,0.6c1.4,0.8,2.4,2.4,2.4,4.3
				c0,1.9-1,3.4-2.4,4.3c-0.6,0.4-1.5,0.6-2.4,0.6c-1.1,0-2.1-0.4-2.9-1.1V4507z M1155.7,4504.1c0.6,0.9,1.6,1.3,2.6,1.3
				c1.8,0,3.1-1.4,3.1-3.1c0-1.6-1.2-3.1-3-3.1c-1.1,0-2.1,0.6-2.7,1.3V4504.1z"/>
			<path class="st10" d="M1165.9,4492.8h1.9v14.2h-1.9V4492.8z"/>
			<path class="st10" d="M1172.3,4502.7c0.1,1.6,1.4,2.8,3,2.8c1.4,0,2.2-0.7,2.7-1.3l1.2,1.2c-0.7,0.9-2,1.8-4,1.8
				c-2.7,0-4.9-2.1-4.9-4.9s1.9-4.9,4.6-4.9c2.6,0,4.5,2.1,4.5,4.9c0,0.1,0,0.2,0,0.4H1172.3z M1172.4,4501.1h5.1
				c-0.3-1.2-1.4-2-2.5-2C1173.8,4499.1,1172.7,4499.9,1172.4,4501.1z"/>
		</g>
		<g class="st1">
			<path class="st10" d="M398.8,4500.8v6.2h-2v-14h5.3c1.4,0,2.2,0.3,2.9,0.9c0.8,0.7,1.4,1.8,1.4,3s-0.5,2.3-1.4,3
				c-0.7,0.6-1.6,0.9-2.9,0.9H398.8z M402,4498.9c1,0,1.5-0.2,1.8-0.6c0.3-0.4,0.6-0.8,0.6-1.4s-0.2-1-0.6-1.4
				c-0.4-0.4-0.9-0.6-1.8-0.6h-3.2v4H402z"/>
			<path class="st10" d="M409.6,4493c0.7,0,1.3,0.6,1.3,1.3s-0.6,1.2-1.3,1.2s-1.2-0.5-1.2-1.2S408.9,4493,409.6,4493z
				 M408.7,4497.6h1.9v9.4h-1.9V4497.6z"/>
			<path class="st10" d="M414,4492.8h1.9v14.2H414V4492.8z"/>
			<path class="st10" d="M426.2,4506.1c-0.8,0.7-1.8,1.1-2.9,1.1c-0.8,0-1.7-0.2-2.4-0.6c-1.4-0.8-2.4-2.4-2.4-4.3
				c0-1.9,1-3.5,2.4-4.3c0.6-0.4,1.4-0.6,2.3-0.6c1.1,0,2.1,0.3,2.9,1.1v-0.9h1.8v9.4h-1.8V4506.1z M426.1,4500.5
				c-0.6-0.8-1.5-1.3-2.7-1.3c-1.8,0-3,1.5-3,3.1c0,1.7,1.3,3.1,3.1,3.1c1,0,1.9-0.5,2.6-1.3V4500.5z"/>
			<path class="st10" d="M436.6,4499.3c-0.2-0.1-0.4-0.1-0.7-0.1c-1,0-2,0.7-2.5,1.6v6.2h-1.9v-9.4h1.8v1.1c0.5-0.6,1.4-1.3,2.8-1.3
				c0.2,0,0.5,0,0.7,0.1L436.6,4499.3z"/>
			<path class="st10" d="M439.7,4502.7c0.1,1.6,1.4,2.8,3,2.8c1.4,0,2.2-0.7,2.7-1.3l1.2,1.2c-0.7,0.9-2,1.8-4,1.8
				c-2.7,0-4.9-2.1-4.9-4.9s1.9-4.9,4.6-4.9c2.6,0,4.5,2.1,4.5,4.9c0,0.1,0,0.2,0,0.4H439.7z M439.9,4501.1h5.1
				c-0.3-1.2-1.4-2-2.5-2C441.3,4499.1,440.2,4499.9,439.9,4501.1z"/>
			<path class="st10" d="M449.7,4504.5c0.9,0.7,1.8,1,2.8,1c0.8,0,1.6-0.4,1.6-1.2c0-1.1-1.6-1.1-2.9-1.6c-1.1-0.4-2.2-1.1-2.2-2.4
				c0-2,1.8-2.9,3.5-2.9c1.4,0,2.4,0.4,3.1,1l-1,1.4c-0.6-0.4-1.3-0.7-2-0.7c-0.9,0-1.7,0.4-1.7,1.2c0,0.6,0.7,0.9,1.7,1.1
				c1.5,0.4,3.4,1,3.4,3c0,1.8-1.7,2.9-3.5,2.9c-1.5,0-2.8-0.5-3.8-1.3L449.7,4504.5z"/>
		</g>
		<g id="Elipse_365" transform="translate(510 4480)">
			<circle class="st4" cx="20" cy="20" r="20"/>
			<circle class="st9" cx="20" cy="20" r="18.5"/>
		</g>
		<g class="st1">
			<path class="st10" d="M565.8,4492.8c2,0,3.9,0.8,5.1,2.2l-1.3,1.3c-0.8-0.9-2.3-1.6-3.8-1.6c-2.9,0-5.1,2.3-5.1,5.3
				c0,3.2,2.3,5.3,5.3,5.3c1.9,0,3.2-1,4-2l1.4,1.3c-1.2,1.5-3.3,2.6-5.4,2.6c-4.2,0-7.3-3.1-7.3-7.2
				C558.7,4496,561.7,4492.8,565.8,4492.8z"/>
			<path class="st10" d="M574.5,4502.7c0.1,1.6,1.4,2.8,3,2.8c1.4,0,2.2-0.7,2.7-1.3l1.2,1.2c-0.7,0.9-2,1.8-4,1.8
				c-2.7,0-4.9-2.1-4.9-4.9s1.9-4.9,4.6-4.9c2.6,0,4.5,2.1,4.5,4.9c0,0.1,0,0.2,0,0.4H574.5z M574.7,4501.1h5.1
				c-0.3-1.2-1.4-2-2.5-2C576.1,4499.1,575,4499.9,574.7,4501.1z"/>
			<path class="st10" d="M586.2,4498.5c0.5-0.5,1.5-1.1,2.8-1.1c1.4,0,2.6,0.6,3.4,1.7c0.6,0.8,0.9,1.7,0.9,3.3v4.6h-1.9v-4.7
				c0-1.2-0.2-1.8-0.6-2.2c-0.4-0.6-1.2-0.9-1.9-0.9c-1.2,0-2.1,0.7-2.7,1.3v6.5h-1.9v-9.4h1.8V4498.5z"/>
			<path class="st10" d="M602.3,4507c-0.4,0.1-0.9,0.2-1.5,0.2c-1.2,0-2.1-0.4-2.7-1.1c-0.6-0.6-0.8-1.5-0.8-2.5v-4.3H595v-1.7h2.4
				v-2.6h1.9v2.6h3v1.7h-3v4.4c0,0.5,0,0.9,0.3,1.2c0.3,0.3,0.8,0.5,1.3,0.5c0.3,0,0.8,0,1-0.1L602.3,4507z"/>
			<path class="st10" d="M610.1,4499.3c-0.2-0.1-0.4-0.1-0.7-0.1c-1,0-2,0.7-2.5,1.6v6.2h-1.9v-9.4h1.8v1.1c0.5-0.6,1.4-1.3,2.8-1.3
				c0.2,0,0.5,0,0.7,0.1L610.1,4499.3z"/>
			<path class="st10" d="M619.1,4506.1c-0.8,0.7-1.8,1.1-2.9,1.1c-0.8,0-1.7-0.2-2.4-0.6c-1.4-0.8-2.4-2.4-2.4-4.3
				c0-1.9,1-3.5,2.4-4.3c0.6-0.4,1.4-0.6,2.3-0.6c1.1,0,2.1,0.3,2.9,1.1v-0.9h1.8v9.4h-1.8V4506.1z M619,4500.5
				c-0.6-0.8-1.5-1.3-2.7-1.3c-1.8,0-3,1.5-3,3.1c0,1.7,1.3,3.1,3.1,3.1c1,0,1.9-0.5,2.6-1.3V4500.5z"/>
			<path class="st10" d="M624.3,4492.8h1.9v14.2h-1.9V4492.8z"/>
			<path class="st10" d="M630.5,4493c0.7,0,1.3,0.6,1.3,1.3s-0.6,1.2-1.3,1.2s-1.2-0.5-1.2-1.2S629.8,4493,630.5,4493z
				 M629.6,4497.6h1.9v9.4h-1.9V4497.6z"/>
			<path class="st10" d="M639.2,4499.3h-4.9v-1.7h7.5v1.2l-5.2,6.5h5.6v1.7H634v-1.2L639.2,4499.3z"/>
			<path class="st10" d="M651.2,4506.1c-0.8,0.7-1.8,1.1-2.9,1.1c-0.8,0-1.7-0.2-2.4-0.6c-1.4-0.8-2.4-2.4-2.4-4.3
				c0-1.9,1-3.5,2.4-4.3c0.6-0.4,1.4-0.6,2.3-0.6c1.1,0,2.1,0.3,2.9,1.1v-0.9h1.8v9.4h-1.8V4506.1z M651.1,4500.5
				c-0.6-0.8-1.5-1.3-2.7-1.3c-1.8,0-3,1.5-3,3.1c0,1.7,1.3,3.1,3.1,3.1c1,0,1.9-0.5,2.6-1.3V4500.5z"/>
			<path class="st10" d="M663.3,4506.1c-0.8,0.7-1.8,1.1-2.9,1.1c-0.8,0-1.7-0.2-2.4-0.6c-1.4-0.8-2.4-2.4-2.4-4.3
				c0-1.9,1-3.5,2.4-4.3c0.6-0.4,1.4-0.6,2.3-0.6c1,0,2,0.3,2.9,1v-5.6h1.9v14.2h-1.8V4506.1z M663.2,4500.5
				c-0.6-0.8-1.5-1.3-2.7-1.3c-1.8,0-3,1.5-3,3.1c0,1.7,1.3,3.1,3.1,3.1c1,0,1.9-0.5,2.6-1.3V4500.5z"/>
			<path class="st10" d="M675.4,4506.1c-0.8,0.7-1.8,1.1-2.9,1.1c-0.8,0-1.7-0.2-2.4-0.6c-1.4-0.8-2.4-2.4-2.4-4.3
				c0-1.9,1-3.5,2.4-4.3c0.6-0.4,1.4-0.6,2.3-0.6c1.1,0,2.1,0.3,2.9,1.1v-0.9h1.8v9.4h-1.8V4506.1z M675.3,4500.5
				c-0.6-0.8-1.5-1.3-2.7-1.3c-1.8,0-3,1.5-3,3.1c0,1.7,1.3,3.1,3.1,3.1c1,0,1.9-0.5,2.6-1.3V4500.5z"/>
			<path class="st10" d="M680.7,4504.5c0.9,0.7,1.8,1,2.8,1c0.8,0,1.6-0.4,1.6-1.2c0-1.1-1.6-1.1-2.9-1.6c-1.1-0.4-2.2-1.1-2.2-2.4
				c0-2,1.8-2.9,3.5-2.9c1.4,0,2.4,0.4,3.1,1l-1,1.4c-0.6-0.4-1.3-0.7-2-0.7c-0.9,0-1.7,0.4-1.7,1.2c0,0.6,0.7,0.9,1.7,1.1
				c1.5,0.4,3.4,1,3.4,3c0,1.8-1.7,2.9-3.5,2.9c-1.5,0-2.8-0.5-3.8-1.3L680.7,4504.5z"/>
		</g>
	</g>
	<g class="st1">
		<path class="st2" d="M815.8,4381.3c0,3,2.3,5.3,5.3,5.3c2,0,3.5-1,4.4-2.1l2,1.8c-1.4,1.7-3.7,2.9-6.5,2.9c-4.8,0-8.2-3.5-8.2-7.9
			s3.3-7.9,8.1-7.9c2.3,0,4.2,0.9,5.6,2.2l-1.9,2c-0.9-0.9-2.2-1.6-3.7-1.6C818,4376,815.8,4378.4,815.8,4381.3z"/>
		<path class="st2" d="M836.5,4373.4c4.8,0,8,3.5,8,7.9s-3.3,7.9-8,7.9c-4.8,0-8-3.5-8-7.9S831.7,4373.4,836.5,4373.4z
			 M836.5,4386.6c2.9,0,5.1-2.4,5.1-5.3s-2.2-5.3-5.1-5.3c-2.9,0-5.1,2.4-5.1,5.3S833.6,4386.6,836.5,4386.6z"/>
		<path class="st2" d="M854.6,4373.4c4.8,0,8,3.5,8,7.9s-3.3,7.9-8,7.9c-4.8,0-8-3.5-8-7.9S849.9,4373.4,854.6,4373.4z
			 M854.6,4386.6c2.9,0,5.1-2.4,5.1-5.3s-2.2-5.3-5.1-5.3c-2.9,0-5.1,2.4-5.1,5.3S851.7,4386.6,854.6,4386.6z"/>
		<path class="st2" d="M868,4382.2v6.8h-3v-15.4h5.6c1.6,0,2.6,0.4,3.4,1.1c0.8,0.8,1.4,1.9,1.4,3.1c0,1.2-0.5,2.4-1.4,3.1
			c-0.4,0.4-0.9,0.7-1.5,0.9l5.8,7.1h-3.7l-5.5-6.8H868z M870.5,4379.5c0.9,0,1.2-0.2,1.5-0.5c0.3-0.3,0.4-0.7,0.4-1.2
			c0-0.5-0.2-0.9-0.4-1.2c-0.3-0.3-0.6-0.5-1.5-0.5H868v3.3H870.5z"/>
		<path class="st2" d="M884.7,4373.6c2.4,0,4,0.5,5.3,1.5c1.9,1.4,3.1,3.7,3.1,6.2s-1.2,4.8-3.1,6.2c-1.3,0.9-2.9,1.5-5.3,1.5h-4.8
			v-15.4H884.7z M888.9,4378c-0.9-1.1-2.1-1.7-3.9-1.7h-2.2v10.1h2.2c1.8,0,3.1-0.6,3.9-1.7c0.7-0.9,1.1-2.1,1.1-3.3
			S889.6,4378.8,888.9,4378z"/>
		<path class="st2" d="M895.4,4373.6h3v15.4h-3V4373.6z"/>
		<path class="st2" d="M901.9,4373.6h2.1l8.6,10v-10h3v15.4h-2.1l-8.6-10v10h-3V4373.6z"/>
		<path class="st2" d="M917.3,4389l6.6-15.4h2.1l6.6,15.4h-3.1l-1.5-3.4h-6.2l-1.5,3.4H917.3z M923,4382.9h3.9l-2-4.6L923,4382.9z"
			/>
		<path class="st2" d="M935.7,4381.3c0,3,2.3,5.3,5.3,5.3c2,0,3.5-1,4.4-2.1l2,1.8c-1.4,1.7-3.7,2.9-6.5,2.9c-4.8,0-8.2-3.5-8.2-7.9
			s3.3-7.9,8.1-7.9c2.3,0,4.2,0.9,5.6,2.2l-1.9,2c-0.9-0.9-2.2-1.6-3.7-1.6C937.9,4376,935.7,4378.4,935.7,4381.3z"/>
		<path class="st2" d="M949.6,4373.6h3v15.4h-3V4373.6z"/>
		<path class="st2" d="M963,4373.4c4.8,0,8,3.5,8,7.9s-3.3,7.9-8,7.9s-8-3.5-8-7.9S958.2,4373.4,963,4373.4z M963,4386.6
			c2.9,0,5.1-2.4,5.1-5.3s-2.2-5.3-5.1-5.3s-5.1,2.4-5.1,5.3S960.1,4386.6,963,4386.6z M966.6,4368.8l-2.6,3.5h-2l1.5-3.5H966.6z"/>
		<path class="st2" d="M973.4,4373.6h2.1l8.6,10v-10h3v15.4H985l-8.6-10v10h-3V4373.6z"/>
	</g>
	<g class="st1">
		<path class="st2" d="M787.8,4397.6h3v15.4h-3V4397.6z"/>
		<path class="st2" d="M794.3,4397.6h2.1l8.6,10v-10h3v15.4h-2.1l-8.6-10v10h-3V4397.6z"/>
		<path class="st2" d="M821.4,4397.6v2.6h-4.1v12.8h-3v-12.8h-4.1v-2.6H821.4z"/>
		<path class="st2" d="M826.6,4400.2v3.2h4.7v2.6h-4.7v4.3h6.5v2.6h-9.5v-15.4h9.2v2.6H826.6z"/>
		<path class="st2" d="M838.7,4406.2v6.8h-3v-15.4h5.6c1.6,0,2.6,0.4,3.4,1.1c0.8,0.8,1.4,1.9,1.4,3.1c0,1.2-0.5,2.4-1.4,3.1
			c-0.4,0.4-0.9,0.7-1.5,0.9l5.8,7.1h-3.7l-5.5-6.8H838.7z M841.2,4403.5c0.9,0,1.2-0.2,1.5-0.5c0.3-0.3,0.4-0.7,0.4-1.2
			c0-0.5-0.2-0.9-0.4-1.2c-0.3-0.3-0.6-0.5-1.5-0.5h-2.5v3.3H841.2z"/>
		<path class="st2" d="M850.5,4397.6h3v15.4h-3V4397.6z"/>
		<path class="st2" d="M857,4397.6h2.1l8.6,10v-10h3v15.4h-2.1l-8.6-10v10h-3V4397.6z"/>
		<path class="st2" d="M874.6,4408.9c0.9,1,2.2,1.7,3.6,1.7c1.3,0,2.2-0.8,2.2-1.9c0-2-2.9-2.2-4.9-3.4c-1.2-0.7-2.2-1.8-2.2-3.5
			c0-2.8,2.5-4.3,5.1-4.3c1.6,0,3,0.4,4.5,1.5l-1.5,2.2c-0.6-0.6-1.7-1-2.7-1c-1.1,0-2.4,0.5-2.4,1.7c0,2.5,7.1,1.7,7.1,6.9
			c0,2.7-2.4,4.6-5.2,4.6c-2.1,0-4-0.9-5.6-2.3L874.6,4408.9z"/>
		<path class="st2" d="M895.3,4397.6v2.6h-4.1v12.8h-3v-12.8h-4.1v-2.6H895.3z"/>
		<path class="st2" d="M897.6,4397.6h3v15.4h-3V4397.6z"/>
		<path class="st2" d="M914,4397.6v2.6h-4.1v12.8h-3v-12.8h-4.1v-2.6H914z"/>
		<path class="st2" d="M918.2,4411.6c-1.3-1.1-2-2.8-2-5.1v-8.9h3v9.1c0,1.4,0.4,2.3,1,2.9c0.7,0.6,1.6,1,2.6,1s2-0.4,2.6-1
			c0.6-0.6,1-1.5,1-2.9v-9.1h3v8.9c0,2.4-0.7,4-2,5.1c-1.2,1.1-2.9,1.6-4.6,1.6S919.3,4412.7,918.2,4411.6z"/>
		<path class="st2" d="M934.8,4405.3c0,3,2.3,5.3,5.3,5.3c2,0,3.5-1,4.4-2.1l2,1.8c-1.4,1.7-3.7,2.9-6.5,2.9c-4.8,0-8.2-3.5-8.2-7.9
			s3.3-7.9,8.1-7.9c2.3,0,4.2,0.9,5.6,2.2l-1.9,2c-0.9-0.9-2.2-1.6-3.7-1.6C937,4400,934.8,4402.4,934.8,4405.3z"/>
		<path class="st2" d="M948.6,4397.6h3v15.4h-3V4397.6z"/>
		<path class="st2" d="M962,4397.4c4.8,0,8,3.5,8,7.9s-3.3,7.9-8,7.9s-8-3.5-8-7.9S957.3,4397.4,962,4397.4z M962,4410.6
			c2.9,0,5.1-2.4,5.1-5.3s-2.2-5.3-5.1-5.3s-5.1,2.4-5.1,5.3S959.1,4410.6,962,4410.6z"/>
		<path class="st2" d="M972.5,4397.6h2.1l8.6,10v-10h3v15.4H984l-8.6-10v10h-3V4397.6z"/>
		<path class="st2" d="M987.9,4413l6.6-15.4h2.1l6.6,15.4h-3.1l-1.5-3.4h-6.2l-1.5,3.4H987.9z M993.6,4406.9h3.9l-2-4.6
			L993.6,4406.9z"/>
		<path class="st2" d="M1004.9,4397.6h3v12.8h6.5v2.6h-9.5V4397.6z"/>
	</g>
</g>
</svg>
