<svg xmlns="http://www.w3.org/2000/svg" width="357.793" height="561" viewBox="0 0 357.793 561">
  <g id="Grupo_2442" data-name="Grupo 2442" transform="translate(-28 -1972)">
    <g id="Grupo_2401" data-name="Grupo 2401">
      <line id="Línea_508" data-name="Línea 508" x2="62" transform="translate(99 2525.234)" fill="none" stroke="#333" stroke-linecap="square" stroke-width="3" stroke-dasharray="6 8"/>
      <text id="Máx._puntaje_posible" data-name="Máx. puntaje posible" transform="translate(173.633 2529)" fill="#aaa" font-size="14" font-family="SegoeUI, Segoe UI"><tspan x="0" y="0">Máx. puntaje posible</tspan></text>
      <g id="Grupo_2400" data-name="Grupo 2400" transform="translate(-85.465 -18)">
        <g id="Trazado_2768" data-name="Trazado 2768" transform="translate(137.633 2480)" fill="#9372fc" style="mix-blend-mode: multiply;isolation: isolate">
          <path d="M 15 28.5 C 11.39402008056641 28.5 8.003870010375977 27.09575080871582 5.454060077667236 24.54594039916992 C 2.904249906539917 21.99612998962402 1.5 18.60597991943359 1.5 15 C 1.5 11.39402008056641 2.904249906539917 8.003870010375977 5.454060077667236 5.454060077667236 C 8.003870010375977 2.904249906539917 11.39402008056641 1.5 15 1.5 C 18.60597991943359 1.5 21.99612998962402 2.904249906539917 24.54594039916992 5.454060077667236 C 27.09575080871582 8.003870010375977 28.5 11.39402008056641 28.5 15 C 28.5 18.60597991943359 27.09575080871582 21.99612998962402 24.54594039916992 24.54594039916992 C 21.99612998962402 27.09575080871582 18.60597991943359 28.5 15 28.5 Z" stroke="none"/>
          <path d="M 15 3 C 11.79467964172363 3 8.781219482421875 4.248220443725586 6.514720916748047 6.514720916748047 C 4.248220443725586 8.781219482421875 3 11.79467964172363 3 15 C 3 18.20532035827637 4.248220443725586 21.21878051757813 6.514720916748047 23.48527908325195 C 8.781219482421875 25.75177955627441 11.79467964172363 27 15 27 C 18.20532035827637 27 21.21878051757813 25.75177955627441 23.48527908325195 23.48527908325195 C 25.75177955627441 21.21878051757813 27 18.20532035827637 27 15 C 27 11.79467964172363 25.75177955627441 8.781219482421875 23.48527908325195 6.514720916748047 C 21.21878051757813 4.248220443725586 18.20532035827637 3 15 3 M 15 0 C 23.28426933288574 0 30 6.715730667114258 30 15 C 30 23.28426933288574 23.28426933288574 30 15 30 C 6.715730667114258 30 0 23.28426933288574 0 15 C 0 6.715730667114258 6.715730667114258 0 15 0 Z" stroke="none" fill="#fff"/>
        </g>
        <text id="Pilares" transform="translate(173.633 2500)" fill="#aaa" font-size="14" font-family="SegoeUI, Segoe UI"><tspan x="0" y="0">Pilares</tspan></text>
      </g>
      <g id="Grupo_2399" data-name="Grupo 2399" transform="translate(5.199 -57.963)">
        <g id="Trazado_2890" data-name="Trazado 2890" transform="translate(137.633 2519.963)" fill="#28bac5" style="mix-blend-mode: multiply;isolation: isolate">
          <path d="M 15 28.5 C 11.39402008056641 28.5 8.003870010375977 27.09575080871582 5.454060077667236 24.54594039916992 C 2.904249906539917 21.99612998962402 1.5 18.60597991943359 1.5 15 C 1.5 11.39402008056641 2.904249906539917 8.003870010375977 5.454060077667236 5.454060077667236 C 8.003870010375977 2.904249906539917 11.39402008056641 1.5 15 1.5 C 18.60597991943359 1.5 21.99612998962402 2.904249906539917 24.54594039916992 5.454060077667236 C 27.09575080871582 8.003870010375977 28.5 11.39402008056641 28.5 15 C 28.5 18.60597991943359 27.09575080871582 21.99612998962402 24.54594039916992 24.54594039916992 C 21.99612998962402 27.09575080871582 18.60597991943359 28.5 15 28.5 Z" stroke="none"/>
          <path d="M 15 3 C 11.79467964172363 3 8.781219482421875 4.248220443725586 6.514720916748047 6.514720916748047 C 4.248220443725586 8.781219482421875 3 11.79467964172363 3 15 C 3 18.20532035827637 4.248220443725586 21.21878051757813 6.514720916748047 23.48527908325195 C 8.781219482421875 25.75177955627441 11.79467964172363 27 15 27 C 18.20532035827637 27 21.21878051757813 25.75177955627441 23.48527908325195 23.48527908325195 C 25.75177955627441 21.21878051757813 27 18.20532035827637 27 15 C 27 11.79467964172363 25.75177955627441 8.781219482421875 23.48527908325195 6.514720916748047 C 21.21878051757813 4.248220443725586 18.20532035827637 3 15 3 M 15 0 C 23.28426933288574 0 30 6.715730667114258 30 15 C 30 23.28426933288574 23.28426933288574 30 15 30 C 6.715730667114258 30 0 23.28426933288574 0 15 C 0 6.715730667114258 6.715730667114258 0 15 0 Z" stroke="none" fill="#fff"/>
        </g>
        <text id="Centralizadas" transform="translate(173.633 2539.963)" fill="#aaa" font-size="14" font-family="SegoeUI, Segoe UI"><tspan x="0" y="0">Centralizadas</tspan></text>
      </g>
      <g id="Grupo_2398" data-name="Grupo 2398" transform="translate(143.863 -97.926)">
        <g id="Trazado_2891" data-name="Trazado 2891" transform="translate(137.633 2559.926)" fill="#fb5154" style="mix-blend-mode: multiply;isolation: isolate">
          <path d="M 15 28.5 C 11.39402008056641 28.5 8.003870010375977 27.09575080871582 5.454060077667236 24.54594039916992 C 2.904249906539917 21.99612998962402 1.5 18.60597991943359 1.5 15 C 1.5 11.39402008056641 2.904249906539917 8.003870010375977 5.454060077667236 5.454060077667236 C 8.003870010375977 2.904249906539917 11.39402008056641 1.5 15 1.5 C 18.60597991943359 1.5 21.99612998962402 2.904249906539917 24.54594039916992 5.454060077667236 C 27.09575080871582 8.003870010375977 28.5 11.39402008056641 28.5 15 C 28.5 18.60597991943359 27.09575080871582 21.99612998962402 24.54594039916992 24.54594039916992 C 21.99612998962402 27.09575080871582 18.60597991943359 28.5 15 28.5 Z" stroke="none"/>
          <path d="M 15 3 C 11.79467964172363 3 8.781219482421875 4.248220443725586 6.514720916748047 6.514720916748047 C 4.248220443725586 8.781219482421875 3 11.79467964172363 3 15 C 3 18.20532035827637 4.248220443725586 21.21878051757813 6.514720916748047 23.48527908325195 C 8.781219482421875 25.75177955627441 11.79467964172363 27 15 27 C 18.20532035827637 27 21.21878051757813 25.75177955627441 23.48527908325195 23.48527908325195 C 25.75177955627441 21.21878051757813 27 18.20532035827637 27 15 C 27 11.79467964172363 25.75177955627441 8.781219482421875 23.48527908325195 6.514720916748047 C 21.21878051757813 4.248220443725586 18.20532035827637 3 15 3 M 15 0 C 23.28426933288574 0 30 6.715730667114258 30 15 C 30 23.28426933288574 23.28426933288574 30 15 30 C 6.715730667114258 30 0 23.28426933288574 0 15 C 0 6.715730667114258 6.715730667114258 0 15 0 Z" stroke="none" fill="#fff"/>
        </g>
        <text id="Nuevas" transform="translate(173.633 2579.926)" fill="#aaa" font-size="14" font-family="SegoeUI, Segoe UI"><tspan x="0" y="0">Nuevas</tspan></text>
      </g>
    </g>
    <g id="Grupo_2410" data-name="Grupo 2410" transform="translate(16624 -1650)">
      <line id="Línea_510" data-name="Línea 510" x2="307.26" transform="translate(-16545.967 3631.102)" fill="none" stroke="#989898" stroke-linecap="round" stroke-width="1"/>
      <line id="Línea_511" data-name="Línea 511" x2="307.26" transform="translate(-16545.967 3930.092)" fill="none" stroke="#989898" stroke-linecap="round" stroke-width="1"/>
      <line id="Línea_512" data-name="Línea 512" x2="307.26" transform="translate(-16545.967 3830.064)" fill="none" stroke="#989898" stroke-linecap="round" stroke-width="1"/>
      <line id="Línea_513" data-name="Línea 513" x2="307.26" transform="translate(-16545.967 3730.221)" fill="none" stroke="#989898" stroke-linecap="round" stroke-width="1"/>
      <text id="_20" data-name="20" transform="translate(-16596 3622)" fill="#333" font-size="18" font-family="SegoeUI-Bold, Segoe UI" font-weight="700"><tspan x="5.293" y="19">20</tspan></text>
      <text id="_10" data-name="10" transform="translate(-16596 3826)" fill="#333" font-size="18" font-family="SegoeUI-Bold, Segoe UI" font-weight="700"><tspan x="5.293" y="19">10</tspan></text>
      <text id="_5" data-name="5" transform="translate(-16596 3924)" fill="#333" font-size="18" font-family="SegoeUI-Bold, Segoe UI" font-weight="700"><tspan x="15.646" y="19">5</tspan></text>
      <text id="_15" data-name="15" transform="translate(-16596 3725)" fill="#333" font-size="18" font-family="SegoeUI-Bold, Segoe UI" font-weight="700"><tspan x="5.293" y="19">15</tspan></text>
      <text id="_0" data-name="0" transform="translate(-16596 4019)" fill="#333" font-size="18" font-family="SegoeUI-Bold, Segoe UI" font-weight="700"><tspan x="15.646" y="19">0</tspan></text>
      <rect id="Rectángulo_755" data-name="Rectángulo 755" width="77" height="125" transform="translate(-16524 3902)" fill="#9372fc"/>
      <rect id="Rectángulo_758" data-name="Rectángulo 758" width="76" height="73" transform="translate(-16443 3954)" fill="#16bac5"/>
      <rect id="Rectángulo_761" data-name="Rectángulo 761" width="77" height="95" transform="translate(-16363 3932)" fill="#ff5154"/>
      <text id="Participación_de_usuarios" data-name="Participación de usuarios" transform="translate(-16530 4054)" fill="#333" font-size="14" font-family="SegoeUI-Bold, Segoe UI" font-weight="700"><tspan x="26.147" y="15">PARTICIPACIÓN DE USUARIOS</tspan></text>
      <line id="Línea_514" data-name="Línea 514" x1="307.26" transform="translate(-16553.16 4028.928)" fill="none" stroke="#717171" stroke-width="4"/>
      <text id="_6_4" data-name="6,4" transform="translate(-16526 3876)" fill="#333" font-size="22" font-family="SegoeUI-Bold, Segoe UI" font-weight="700"><tspan x="24.365" y="24">6,4</tspan></text>
      <text id="_3_7" data-name="3,7" transform="translate(-16447 3927)" fill="#333" font-size="22" font-family="SegoeUI-Bold, Segoe UI" font-weight="700"><tspan x="24.365" y="24">3,7</tspan></text>
      <text id="_4_8" data-name="4,8" transform="translate(-16366 3906)" fill="#333" font-size="22" font-family="SegoeUI-Bold, Segoe UI" font-weight="700"><tspan x="24.365" y="24">4,8</tspan></text>
      <text id="_16" data-name="16" transform="translate(-16451 3680)" fill="#333" font-size="22" font-family="SegoeUI-Bold, Segoe UI" font-weight="700"><tspan x="27.346" y="24">16</tspan></text>
      <line id="Línea_515" data-name="Línea 515" x2="252" transform="translate(-16526.471 3707.033)" fill="none" stroke="#333" stroke-linecap="square" stroke-width="2" stroke-dasharray="6 6"/>
    </g>
  </g>
</svg>
