<svg xmlns="http://www.w3.org/2000/svg" width="353.65" height="576.374" viewBox="0 0 353.65 576.374">
  <g id="Grupo_2440" data-name="Grupo 2440" transform="translate(-30.426 -3679.999)">
    <g id="Grupo_2411" data-name="Grupo 2411" transform="translate(0 1723.373)">
      <line id="Línea_508" data-name="Línea 508" x2="62" transform="translate(99 2525.234)" fill="none" stroke="#333" stroke-linecap="square" stroke-width="3" stroke-dasharray="6 8"/>
      <text id="Máx._puntaje_posible" data-name="Máx. puntaje posible" transform="translate(173.633 2529)" fill="#aaa" font-size="14" font-family="SegoeUI, Segoe UI"><tspan x="0" y="0">Máx. puntaje posible</tspan></text>
      <g id="Grupo_2400" data-name="Grupo 2400" transform="translate(-85.465 -18)">
        <g id="Trazado_2768" data-name="Trazado 2768" transform="translate(137.633 2480)" fill="#9372fc" style="mix-blend-mode: multiply;isolation: isolate">
          <path d="M 15 28.5 C 11.39402008056641 28.5 8.003870010375977 27.09575080871582 5.454060077667236 24.54594039916992 C 2.904249906539917 21.99612998962402 1.5 18.60597991943359 1.5 15 C 1.5 11.39402008056641 2.904249906539917 8.003870010375977 5.454060077667236 5.454060077667236 C 8.003870010375977 2.904249906539917 11.39402008056641 1.5 15 1.5 C 18.60597991943359 1.5 21.99612998962402 2.904249906539917 24.54594039916992 5.454060077667236 C 27.09575080871582 8.003870010375977 28.5 11.39402008056641 28.5 15 C 28.5 18.60597991943359 27.09575080871582 21.99612998962402 24.54594039916992 24.54594039916992 C 21.99612998962402 27.09575080871582 18.60597991943359 28.5 15 28.5 Z" stroke="none"/>
          <path d="M 15 3 C 11.79467964172363 3 8.781219482421875 4.248220443725586 6.514720916748047 6.514720916748047 C 4.248220443725586 8.781219482421875 3 11.79467964172363 3 15 C 3 18.20532035827637 4.248220443725586 21.21878051757813 6.514720916748047 23.48527908325195 C 8.781219482421875 25.75177955627441 11.79467964172363 27 15 27 C 18.20532035827637 27 21.21878051757813 25.75177955627441 23.48527908325195 23.48527908325195 C 25.75177955627441 21.21878051757813 27 18.20532035827637 27 15 C 27 11.79467964172363 25.75177955627441 8.781219482421875 23.48527908325195 6.514720916748047 C 21.21878051757813 4.248220443725586 18.20532035827637 3 15 3 M 15 0 C 23.28426933288574 0 30 6.715730667114258 30 15 C 30 23.28426933288574 23.28426933288574 30 15 30 C 6.715730667114258 30 0 23.28426933288574 0 15 C 0 6.715730667114258 6.715730667114258 0 15 0 Z" stroke="none" fill="#fff"/>
        </g>
        <text id="Pilares" transform="translate(173.633 2500)" fill="#aaa" font-size="14" font-family="SegoeUI, Segoe UI"><tspan x="0" y="0">Pilares</tspan></text>
      </g>
      <g id="Grupo_2399" data-name="Grupo 2399" transform="translate(5.199 -57.963)">
        <g id="Trazado_2890" data-name="Trazado 2890" transform="translate(137.633 2519.963)" fill="#28bac5" style="mix-blend-mode: multiply;isolation: isolate">
          <path d="M 15 28.5 C 11.39402008056641 28.5 8.003870010375977 27.09575080871582 5.454060077667236 24.54594039916992 C 2.904249906539917 21.99612998962402 1.5 18.60597991943359 1.5 15 C 1.5 11.39402008056641 2.904249906539917 8.003870010375977 5.454060077667236 5.454060077667236 C 8.003870010375977 2.904249906539917 11.39402008056641 1.5 15 1.5 C 18.60597991943359 1.5 21.99612998962402 2.904249906539917 24.54594039916992 5.454060077667236 C 27.09575080871582 8.003870010375977 28.5 11.39402008056641 28.5 15 C 28.5 18.60597991943359 27.09575080871582 21.99612998962402 24.54594039916992 24.54594039916992 C 21.99612998962402 27.09575080871582 18.60597991943359 28.5 15 28.5 Z" stroke="none"/>
          <path d="M 15 3 C 11.79467964172363 3 8.781219482421875 4.248220443725586 6.514720916748047 6.514720916748047 C 4.248220443725586 8.781219482421875 3 11.79467964172363 3 15 C 3 18.20532035827637 4.248220443725586 21.21878051757813 6.514720916748047 23.48527908325195 C 8.781219482421875 25.75177955627441 11.79467964172363 27 15 27 C 18.20532035827637 27 21.21878051757813 25.75177955627441 23.48527908325195 23.48527908325195 C 25.75177955627441 21.21878051757813 27 18.20532035827637 27 15 C 27 11.79467964172363 25.75177955627441 8.781219482421875 23.48527908325195 6.514720916748047 C 21.21878051757813 4.248220443725586 18.20532035827637 3 15 3 M 15 0 C 23.28426933288574 0 30 6.715730667114258 30 15 C 30 23.28426933288574 23.28426933288574 30 15 30 C 6.715730667114258 30 0 23.28426933288574 0 15 C 0 6.715730667114258 6.715730667114258 0 15 0 Z" stroke="none" fill="#fff"/>
        </g>
        <text id="Centralizadas" transform="translate(173.633 2539.963)" fill="#aaa" font-size="14" font-family="SegoeUI, Segoe UI"><tspan x="0" y="0">Centralizadas</tspan></text>
      </g>
      <g id="Grupo_2398" data-name="Grupo 2398" transform="translate(143.863 -97.926)">
        <g id="Trazado_2891" data-name="Trazado 2891" transform="translate(137.633 2559.926)" fill="#fb5154" style="mix-blend-mode: multiply;isolation: isolate">
          <path d="M 15 28.5 C 11.39402008056641 28.5 8.003870010375977 27.09575080871582 5.454060077667236 24.54594039916992 C 2.904249906539917 21.99612998962402 1.5 18.60597991943359 1.5 15 C 1.5 11.39402008056641 2.904249906539917 8.003870010375977 5.454060077667236 5.454060077667236 C 8.003870010375977 2.904249906539917 11.39402008056641 1.5 15 1.5 C 18.60597991943359 1.5 21.99612998962402 2.904249906539917 24.54594039916992 5.454060077667236 C 27.09575080871582 8.003870010375977 28.5 11.39402008056641 28.5 15 C 28.5 18.60597991943359 27.09575080871582 21.99612998962402 24.54594039916992 24.54594039916992 C 21.99612998962402 27.09575080871582 18.60597991943359 28.5 15 28.5 Z" stroke="none"/>
          <path d="M 15 3 C 11.79467964172363 3 8.781219482421875 4.248220443725586 6.514720916748047 6.514720916748047 C 4.248220443725586 8.781219482421875 3 11.79467964172363 3 15 C 3 18.20532035827637 4.248220443725586 21.21878051757813 6.514720916748047 23.48527908325195 C 8.781219482421875 25.75177955627441 11.79467964172363 27 15 27 C 18.20532035827637 27 21.21878051757813 25.75177955627441 23.48527908325195 23.48527908325195 C 25.75177955627441 21.21878051757813 27 18.20532035827637 27 15 C 27 11.79467964172363 25.75177955627441 8.781219482421875 23.48527908325195 6.514720916748047 C 21.21878051757813 4.248220443725586 18.20532035827637 3 15 3 M 15 0 C 23.28426933288574 0 30 6.715730667114258 30 15 C 30 23.28426933288574 23.28426933288574 30 15 30 C 6.715730667114258 30 0 23.28426933288574 0 15 C 0 6.715730667114258 6.715730667114258 0 15 0 Z" stroke="none" fill="#fff"/>
        </g>
        <text id="Nuevas" transform="translate(173.633 2579.926)" fill="#aaa" font-size="14" font-family="SegoeUI, Segoe UI"><tspan x="0" y="0">Nuevas</tspan></text>
      </g>
    </g>
    <g id="Grupo_2427" data-name="Grupo 2427" transform="translate(16253.176 -458.168)">
      <line id="Línea_621" data-name="Línea 621" x2="307.26" transform="translate(-16176.86 4147.244)" fill="none" stroke="#989898" stroke-linecap="round" stroke-width="1"/>
      <line id="Línea_622" data-name="Línea 622" x2="307.26" transform="translate(-16176.86 4445.376)" fill="none" stroke="#989898" stroke-linecap="round" stroke-width="1"/>
      <line id="Línea_623" data-name="Línea 623" x2="307.26" transform="translate(-16176.86 4345.635)" fill="none" stroke="#989898" stroke-linecap="round" stroke-width="1"/>
      <line id="Línea_624" data-name="Línea 624" x2="307.26" transform="translate(-16176.86 4246.079)" fill="none" stroke="#989898" stroke-linecap="round" stroke-width="1"/>
      <text id="_20" data-name="20" transform="translate(-16222.75 4138.167)" fill="#333" font-size="18" font-family="SegoeUI-Bold, Segoe UI" font-weight="700"><tspan x="1.295" y="19">20</tspan></text>
      <text id="_10" data-name="10" transform="translate(-16222.75 4341.52)" fill="#333" font-size="18" font-family="SegoeUI-Bold, Segoe UI" font-weight="700"><tspan x="1.295" y="19">10</tspan></text>
      <text id="_5" data-name="5" transform="translate(-16222.75 4438.863)" fill="#333" font-size="18" font-family="SegoeUI-Bold, Segoe UI" font-weight="700"><tspan x="11.649" y="19">5</tspan></text>
      <text id="_15" data-name="15" transform="translate(-16222.75 4240.177)" fill="#333" font-size="18" font-family="SegoeUI-Bold, Segoe UI" font-weight="700"><tspan x="1.295" y="19">15</tspan></text>
      <text id="_0" data-name="0" transform="translate(-16222.75 4534.873)" fill="#333" font-size="18" font-family="SegoeUI-Bold, Segoe UI" font-weight="700"><tspan x="11.649" y="19">0</tspan></text>
      <g id="Grupo_2425" data-name="Grupo 2425" transform="translate(-328.704)">
        <rect id="Rectángulo_835" data-name="Rectángulo 835" width="76.007" height="38.004" transform="translate(-15821.378 4504.87)" fill="#9372fc"/>
        <rect id="Rectángulo_836" data-name="Rectángulo 836" width="76.007" height="22.002" transform="translate(-15741.37 4520.871)" fill="#16bac5"/>
        <rect id="Rectángulo_837" data-name="Rectángulo 837" width="76.007" height="24.002" transform="translate(-15661.362 4518.871)" fill="#ff5154"/>
        <text id="PROCEDIMIENTOS" transform="translate(-15833.379 4568.209)" fill="#333" font-size="14" font-family="SegoeUI-Bold, Segoe UI" font-weight="700"><tspan x="64.849" y="15">PROCEDIMIENTOS</tspan></text>
        <text id="_2" data-name="2" transform="translate(-15825.378 4479.867)" fill="#333" font-size="22" font-family="SegoeUI-Bold, Segoe UI" font-weight="700"><tspan x="34.01" y="24">2</tspan></text>
        <text id="_1_2" data-name="1,2" transform="translate(-15744.37 4495.202)" fill="#333" font-size="22" font-family="SegoeUI-Bold, Segoe UI" font-weight="700"><tspan x="24.702" y="24">1,2</tspan></text>
        <text id="_1_3" data-name="1,3" transform="translate(-15664.362 4493.535)" fill="#333" font-size="22" font-family="SegoeUI-Bold, Segoe UI" font-weight="700"><tspan x="24.702" y="24">1,3</tspan></text>
        <text id="_7" data-name="7" transform="translate(-15737.036 4362.189)" fill="#333" font-size="22" font-family="SegoeUI-Bold, Segoe UI" font-weight="700"><tspan x="34.01" y="24">7</tspan></text>
        <line id="Línea_620" data-name="Línea 620" x2="251.358" transform="translate(-15821.378 4388.973)" fill="none" stroke="#333" stroke-linecap="square" stroke-width="2" stroke-dasharray="6 6"/>
      </g>
      <line id="Línea_625" data-name="Línea 625" x1="307.26" transform="translate(-16184.033 4543.931)" fill="none" stroke="#717171" stroke-width="4"/>
    </g>
  </g>
</svg>
