<svg xmlns="http://www.w3.org/2000/svg" width="355.825" height="567.111" viewBox="0 0 355.825 567.111">
  <g id="Grupo_2437" data-name="Grupo 2437" transform="translate(-29.338 -4848.787)">
    <g id="Grupo_2412" data-name="Grupo 2412" transform="translate(0 2882.898)">
      <line id="Línea_508" data-name="Línea 508" x2="62" transform="translate(99 2525.234)" fill="none" stroke="#333" stroke-linecap="square" stroke-width="3" stroke-dasharray="6 8"/>
      <text id="Máx._puntaje_posible" data-name="Máx. puntaje posible" transform="translate(173.633 2529)" fill="#aaa" font-size="14" font-family="SegoeUI, Segoe UI"><tspan x="0" y="0">Máx. puntaje posible</tspan></text>
      <g id="Grupo_2400" data-name="Grupo 2400" transform="translate(-85.465 -18)">
        <g id="Trazado_2768" data-name="Trazado 2768" transform="translate(137.633 2480)" fill="#9372fc" style="mix-blend-mode: multiply;isolation: isolate">
          <path d="M 15 28.5 C 11.39402008056641 28.5 8.003870010375977 27.09575080871582 5.454060077667236 24.54594039916992 C 2.904249906539917 21.99612998962402 1.5 18.60597991943359 1.5 15 C 1.5 11.39402008056641 2.904249906539917 8.003870010375977 5.454060077667236 5.454060077667236 C 8.003870010375977 2.904249906539917 11.39402008056641 1.5 15 1.5 C 18.60597991943359 1.5 21.99612998962402 2.904249906539917 24.54594039916992 5.454060077667236 C 27.09575080871582 8.003870010375977 28.5 11.39402008056641 28.5 15 C 28.5 18.60597991943359 27.09575080871582 21.99612998962402 24.54594039916992 24.54594039916992 C 21.99612998962402 27.09575080871582 18.60597991943359 28.5 15 28.5 Z" stroke="none"/>
          <path d="M 15 3 C 11.79467964172363 3 8.781219482421875 4.248220443725586 6.514720916748047 6.514720916748047 C 4.248220443725586 8.781219482421875 3 11.79467964172363 3 15 C 3 18.20532035827637 4.248220443725586 21.21878051757813 6.514720916748047 23.48527908325195 C 8.781219482421875 25.75177955627441 11.79467964172363 27 15 27 C 18.20532035827637 27 21.21878051757813 25.75177955627441 23.48527908325195 23.48527908325195 C 25.75177955627441 21.21878051757813 27 18.20532035827637 27 15 C 27 11.79467964172363 25.75177955627441 8.781219482421875 23.48527908325195 6.514720916748047 C 21.21878051757813 4.248220443725586 18.20532035827637 3 15 3 M 15 0 C 23.28426933288574 0 30 6.715730667114258 30 15 C 30 23.28426933288574 23.28426933288574 30 15 30 C 6.715730667114258 30 0 23.28426933288574 0 15 C 0 6.715730667114258 6.715730667114258 0 15 0 Z" stroke="none" fill="#fff"/>
        </g>
        <text id="Pilares" transform="translate(173.633 2500)" fill="#aaa" font-size="14" font-family="SegoeUI, Segoe UI"><tspan x="0" y="0">Pilares</tspan></text>
      </g>
      <g id="Grupo_2399" data-name="Grupo 2399" transform="translate(5.199 -57.963)">
        <g id="Trazado_2890" data-name="Trazado 2890" transform="translate(137.633 2519.963)" fill="#28bac5" style="mix-blend-mode: multiply;isolation: isolate">
          <path d="M 15 28.5 C 11.39402008056641 28.5 8.003870010375977 27.09575080871582 5.454060077667236 24.54594039916992 C 2.904249906539917 21.99612998962402 1.5 18.60597991943359 1.5 15 C 1.5 11.39402008056641 2.904249906539917 8.003870010375977 5.454060077667236 5.454060077667236 C 8.003870010375977 2.904249906539917 11.39402008056641 1.5 15 1.5 C 18.60597991943359 1.5 21.99612998962402 2.904249906539917 24.54594039916992 5.454060077667236 C 27.09575080871582 8.003870010375977 28.5 11.39402008056641 28.5 15 C 28.5 18.60597991943359 27.09575080871582 21.99612998962402 24.54594039916992 24.54594039916992 C 21.99612998962402 27.09575080871582 18.60597991943359 28.5 15 28.5 Z" stroke="none"/>
          <path d="M 15 3 C 11.79467964172363 3 8.781219482421875 4.248220443725586 6.514720916748047 6.514720916748047 C 4.248220443725586 8.781219482421875 3 11.79467964172363 3 15 C 3 18.20532035827637 4.248220443725586 21.21878051757813 6.514720916748047 23.48527908325195 C 8.781219482421875 25.75177955627441 11.79467964172363 27 15 27 C 18.20532035827637 27 21.21878051757813 25.75177955627441 23.48527908325195 23.48527908325195 C 25.75177955627441 21.21878051757813 27 18.20532035827637 27 15 C 27 11.79467964172363 25.75177955627441 8.781219482421875 23.48527908325195 6.514720916748047 C 21.21878051757813 4.248220443725586 18.20532035827637 3 15 3 M 15 0 C 23.28426933288574 0 30 6.715730667114258 30 15 C 30 23.28426933288574 23.28426933288574 30 15 30 C 6.715730667114258 30 0 23.28426933288574 0 15 C 0 6.715730667114258 6.715730667114258 0 15 0 Z" stroke="none" fill="#fff"/>
        </g>
        <text id="Centralizadas" transform="translate(173.633 2539.963)" fill="#aaa" font-size="14" font-family="SegoeUI, Segoe UI"><tspan x="0" y="0">Centralizadas</tspan></text>
      </g>
      <g id="Grupo_2398" data-name="Grupo 2398" transform="translate(143.863 -97.926)">
        <g id="Trazado_2891" data-name="Trazado 2891" transform="translate(137.633 2559.926)" fill="#fb5154" style="mix-blend-mode: multiply;isolation: isolate">
          <path d="M 15 28.5 C 11.39402008056641 28.5 8.003870010375977 27.09575080871582 5.454060077667236 24.54594039916992 C 2.904249906539917 21.99612998962402 1.5 18.60597991943359 1.5 15 C 1.5 11.39402008056641 2.904249906539917 8.003870010375977 5.454060077667236 5.454060077667236 C 8.003870010375977 2.904249906539917 11.39402008056641 1.5 15 1.5 C 18.60597991943359 1.5 21.99612998962402 2.904249906539917 24.54594039916992 5.454060077667236 C 27.09575080871582 8.003870010375977 28.5 11.39402008056641 28.5 15 C 28.5 18.60597991943359 27.09575080871582 21.99612998962402 24.54594039916992 24.54594039916992 C 21.99612998962402 27.09575080871582 18.60597991943359 28.5 15 28.5 Z" stroke="none"/>
          <path d="M 15 3 C 11.79467964172363 3 8.781219482421875 4.248220443725586 6.514720916748047 6.514720916748047 C 4.248220443725586 8.781219482421875 3 11.79467964172363 3 15 C 3 18.20532035827637 4.248220443725586 21.21878051757813 6.514720916748047 23.48527908325195 C 8.781219482421875 25.75177955627441 11.79467964172363 27 15 27 C 18.20532035827637 27 21.21878051757813 25.75177955627441 23.48527908325195 23.48527908325195 C 25.75177955627441 21.21878051757813 27 18.20532035827637 27 15 C 27 11.79467964172363 25.75177955627441 8.781219482421875 23.48527908325195 6.514720916748047 C 21.21878051757813 4.248220443725586 18.20532035827637 3 15 3 M 15 0 C 23.28426933288574 0 30 6.715730667114258 30 15 C 30 23.28426933288574 23.28426933288574 30 15 30 C 6.715730667114258 30 0 23.28426933288574 0 15 C 0 6.715730667114258 6.715730667114258 0 15 0 Z" stroke="none" fill="#fff"/>
        </g>
        <text id="Nuevas" transform="translate(173.633 2579.926)" fill="#aaa" font-size="14" font-family="SegoeUI, Segoe UI"><tspan x="0" y="0">Nuevas</tspan></text>
      </g>
    </g>
    <g id="Grupo_2420" data-name="Grupo 2420" transform="translate(16088.729 1032)">
      <line id="Línea_603" data-name="Línea 603" x2="307.26" transform="translate(-16011.325 3825.944)" fill="none" stroke="#989898" stroke-linecap="round" stroke-width="1"/>
      <line id="Línea_607" data-name="Línea 607" x2="307.26" transform="translate(-16011.325 4126.725)" fill="none" stroke="#989898" stroke-linecap="round" stroke-width="1"/>
      <line id="Línea_604" data-name="Línea 604" x2="307.26" transform="translate(-16011.325 4026.097)" fill="none" stroke="#989898" stroke-linecap="round" stroke-width="1"/>
      <line id="Línea_605" data-name="Línea 605" x2="307.26" transform="translate(-16011.325 3925.657)" fill="none" stroke="#989898" stroke-linecap="round" stroke-width="1"/>
      <text id="_20" data-name="20" transform="translate(-16059.391 3816.787)" fill="#333" font-size="18" font-family="SegoeUI-Bold, Segoe UI" font-weight="700"><tspan x="3.258" y="19">20</tspan></text>
      <text id="_10" data-name="10" transform="translate(-16059.391 4021.946)" fill="#333" font-size="18" font-family="SegoeUI-Bold, Segoe UI" font-weight="700"><tspan x="3.258" y="19">10</tspan></text>
      <text id="_5" data-name="5" transform="translate(-16059.391 4120.153)" fill="#333" font-size="18" font-family="SegoeUI-Bold, Segoe UI" font-weight="700"><tspan x="13.611" y="19">5</tspan></text>
      <text id="_15" data-name="15" transform="translate(-16059.391 3919.703)" fill="#333" font-size="18" font-family="SegoeUI-Bold, Segoe UI" font-weight="700"><tspan x="3.258" y="19">15</tspan></text>
      <text id="_0" data-name="0" transform="translate(-16059.391 4217.015)" fill="#333" font-size="18" font-family="SegoeUI-Bold, Segoe UI" font-weight="700"><tspan x="13.611" y="19">0</tspan></text>
      <text id="recursos_digitales" data-name="recursos digitales" transform="translate(-15990.354 4250.647)" fill="#333" font-size="14" font-family="SegoeUI-Bold, Segoe UI" font-weight="700"><tspan x="55.076" y="15">RECURSOS DIGITALES</tspan></text>
      <rect id="Rectángulo_814" data-name="Rectángulo 814" width="65.247" height="43.05" transform="translate(-15965.465 4182.038)" fill="#9372fc"/>
      <rect id="Rectángulo_818" data-name="Rectángulo 818" width="65.247" height="34.978" transform="translate(-15896.854 4190.109)" fill="#16bac5"/>
      <rect id="Rectángulo_819" data-name="Rectángulo 819" width="65.247" height="41.032" transform="translate(-15828.244 4184.056)" fill="#ff5154"/>
      <text id="_2_6" data-name="2,6" transform="translate(-15968.828 4155.858)" fill="#333" font-size="22" font-family="SegoeUI-Bold, Segoe UI" font-weight="700"><tspan x="19.006" y="24">2,6</tspan></text>
      <text id="_2_1" data-name="2,1" transform="translate(-15900.218 4164.603)" fill="#333" font-size="22" font-family="SegoeUI-Bold, Segoe UI" font-weight="700"><tspan x="19.006" y="24">2,1</tspan></text>
      <text id="_2_5" data-name="2,5" transform="translate(-15830.935 4158.549)" fill="#333" font-size="22" font-family="SegoeUI-Bold, Segoe UI" font-weight="700"><tspan x="19.006" y="24">2,5</tspan></text>
      <text id="_4" data-name="4" transform="translate(-15907.28 4104.718)" fill="#333" font-size="22" font-family="SegoeUI-Bold, Segoe UI" font-weight="700"><tspan x="34.368" y="24">4</tspan></text>
      <line id="Línea_609" data-name="Línea 609" x2="200.114" transform="translate(-15965.465 4135.067)" fill="none" stroke="#333" stroke-linecap="square" stroke-width="2" stroke-dasharray="6 6"/>
      <line id="Línea_610" data-name="Línea 610" x1="307.26" transform="translate(-16018.562 4226.153)" fill="none" stroke="#717171" stroke-width="4"/>
    </g>
  </g>
</svg>
