<?xml version="1.0" encoding="utf-8"?>
<!-- Generator: Adobe Illustrator 25.2.0, SVG Export Plug-In . SVG Version: 6.00 Build 0)  -->
<svg version="1.1" id="Capa_1" xmlns="http://www.w3.org/2000/svg" xmlns:xlink="http://www.w3.org/1999/xlink" x="0px" y="0px"
	 viewBox="0 0 1101.5 1033" style="enable-background:new 0 0 1101.5 1033;" xml:space="preserve">
<style type="text/css">
	.st0{fill:none;stroke:#989898;stroke-linecap:round;}
	.st1{enable-background:new    ;}
	.st2{fill:#333333;}
	.st3{fill:none;stroke:#717171;stroke-width:4;}
	.st4{fill:none;stroke:#333333;stroke-width:3;stroke-linecap:square;stroke-dasharray:6,8;}
	.st5{fill:#9372FC;}
	.st6{fill:#FFFFFF;}
	.st7{fill:#FF5154;}
	.st8{fill:none;stroke:#FFFFFF;stroke-width:3;}
	.st9{fill:#AAAAAA;}
	.st10{fill:#16BAC5;}
</style>
<g id="Grupo_2186" transform="translate(-276.874 -3713)">
	<line id="Línea_539" class="st0" x1="350.7" y1="4331.7" x2="1377.9" y2="4331.7"/>
	<line id="Línea_540" class="st0" x1="350.7" y1="4129.9" x2="1377.9" y2="4129.9"/>
	<line id="Línea_541" class="st0" x1="350.7" y1="3928.4" x2="1377.9" y2="3928.4"/>
	<line id="Línea_542" class="st0" x1="350.7" y1="3726.4" x2="1377.9" y2="3726.4"/>
	<g class="st1">
		<path class="st2" d="M283.5,4124l3.4-2h1.9v14h-2.7v-10.9l-2.6,1.4V4124z"/>
		<path class="st2" d="M296.9,4121.8c3.6,0,4.9,3.2,4.9,7.2c0,4-1.3,7.2-4.9,7.2c-3.6,0-4.9-3.2-4.9-7.2
			C292,4125,293.3,4121.8,296.9,4121.8z M296.9,4124.2c-1.6,0-2.2,2.2-2.2,4.8c0,2.6,0.6,4.8,2.2,4.8c1.6,0,2.2-2.2,2.2-4.8
			C299.1,4126.4,298.5,4124.2,296.9,4124.2z"/>
	</g>
	<g class="st1">
		<path class="st2" d="M294.2,4329.7c0.6,0.6,1.5,1.1,2.4,1.1c0.6,0,1.2-0.2,1.7-0.6c0.5-0.4,0.8-1.1,0.8-1.8c0-0.8-0.3-1.4-0.9-1.9
			c-0.4-0.4-1-0.6-1.7-0.6c-0.7,0-1.5,0.3-2.1,0.8l-1.7-0.2l0.9-7.4h7.4v2.4h-5.2l-0.2,2.2c0.3-0.1,0.7-0.1,1.1-0.1
			c1.1,0,2.3,0.3,3.3,1.1c1.1,0.9,1.8,2.3,1.8,3.8c0,2.8-2.3,4.8-5.2,4.8c-1.6,0-3-0.6-4.2-1.8L294.2,4329.7z"/>
	</g>
	<g class="st1">
		<path class="st2" d="M284.2,3918l3.4-2h1.9v14h-2.7v-10.9l-2.6,1.4V3918z"/>
		<path class="st2" d="M294.2,3926.7c0.6,0.6,1.5,1.1,2.4,1.1c0.6,0,1.2-0.2,1.7-0.6c0.5-0.4,0.8-1.1,0.8-1.8c0-0.8-0.3-1.4-0.9-1.9
			c-0.4-0.4-1-0.6-1.7-0.6c-0.7,0-1.5,0.3-2.1,0.8l-1.7-0.2l0.9-7.4h7.4v2.4h-5.2l-0.2,2.2c0.3-0.1,0.7-0.1,1.1-0.1
			c1.1,0,2.3,0.3,3.3,1.1c1.1,0.9,1.8,2.3,1.8,3.8c0,2.8-2.3,4.8-5.2,4.8c-1.6,0-3-0.6-4.2-1.8L294.2,3926.7z"/>
	</g>
	<g class="st1">
		<path class="st2" d="M281,3717c0.6-1.9,2.4-3.2,4.4-3.2c2.4,0,4.5,1.8,4.5,4.3c0,1.7-0.9,2.9-1.8,4l-3,3.5h4.9v2.4h-9.1v-1.6
			l4.9-5.6c1.1-1.2,1.4-2,1.4-2.7c0-1-0.8-1.9-1.8-1.9c-0.9,0-1.6,0.6-1.9,1.6L281,3717z"/>
		<path class="st2" d="M296.9,3713.8c3.6,0,4.9,3.2,4.9,7.2c0,4-1.3,7.2-4.9,7.2c-3.6,0-4.9-3.2-4.9-7.2
			C292,3717,293.3,3713.8,296.9,3713.8z M296.9,3716.2c-1.6,0-2.2,2.2-2.2,4.8c0,2.6,0.6,4.8,2.2,4.8c1.6,0,2.2-2.2,2.2-4.8
			C299.1,3718.4,298.5,3716.2,296.9,3716.2z"/>
	</g>
	<g class="st1">
		<path class="st2" d="M296.9,4512.8c3.6,0,4.9,3.2,4.9,7.2c0,4-1.3,7.2-4.9,7.2c-3.6,0-4.9-3.2-4.9-7.2
			C292,4516,293.3,4512.8,296.9,4512.8z M296.9,4515.2c-1.6,0-2.2,2.2-2.2,4.8c0,2.6,0.6,4.8,2.2,4.8c1.6,0,2.2-2.2,2.2-4.8
			C299.1,4517.4,298.5,4515.2,296.9,4515.2z"/>
	</g>
	<line id="Línea_543" class="st3" x1="1377.9" y1="4531.2" x2="336.2" y2="4531.2"/>
	<g id="Grupo_2168" transform="translate(150 225)">
		<line id="Línea_508" class="st4" x1="801.5" y1="4503.2" x2="863.5" y2="4503.2"/>
		<g id="Trazado_2768" transform="translate(348 4479)">
			<path class="st5" d="M-84,38.5c-4.9,0-9.6-1.9-13.1-5.4c-3.5-3.5-5.4-8.1-5.4-13.1s1.9-9.6,5.4-13.1c3.5-3.5,8.1-5.4,13.1-5.4
				s9.6,1.9,13.1,5.4c3.5,3.5,5.4,8.1,5.4,13.1s-1.9,9.6-5.4,13.1C-74.4,36.6-79.1,38.5-84,38.5z"/>
			<path class="st6" d="M-84,3c-4.5,0-8.8,1.8-12,5c-3.2,3.2-5,7.5-5,12s1.8,8.8,5,12c3.2,3.2,7.5,5,12,5s8.8-1.8,12-5
				c3.2-3.2,5-7.5,5-12s-1.8-8.8-5-12C-75.2,4.8-79.5,3-84,3 M-84,0c11,0,20,9,20,20s-9,20-20,20s-20-9-20-20S-95,0-84,0z"/>
		</g>
		<g id="Elipse_364" transform="translate(735 4481)">
			<circle class="st7" cx="-84" cy="20" r="20"/>
			<circle class="st8" cx="-84" cy="20" r="18.5"/>
		</g>
		<g class="st1">
			<path class="st9" d="M681.8,4496.7v10.3h-2v-14h1.4l8.4,10.3V4493h2v14h-1.4L681.8,4496.7z"/>
			<path class="st9" d="M695.8,4505.6c-0.6-0.7-0.9-1.6-0.9-3.2v-4.8h1.9v5.1c0,1,0.2,1.5,0.5,1.9c0.4,0.5,1.1,0.8,1.8,0.8
				c1.2,0,2.1-0.7,2.6-1.3v-6.5h1.9v9.4h-1.8v-0.9c-0.4,0.4-1.5,1.1-2.8,1.1C697.8,4507.2,696.5,4506.6,695.8,4505.6z"/>
			<path class="st9" d="M708.1,4502.7c0.1,1.6,1.4,2.8,3,2.8c1.4,0,2.2-0.7,2.7-1.3l1.2,1.2c-0.7,0.9-2,1.8-4,1.8
				c-2.7,0-4.9-2.1-4.9-4.9s1.9-4.9,4.6-4.9c2.6,0,4.5,2.1,4.5,4.9c0,0.1,0,0.2,0,0.4H708.1z M708.3,4501.1h5.1
				c-0.3-1.2-1.4-2-2.5-2C709.7,4499.1,708.6,4499.9,708.3,4501.1z"/>
			<path class="st9" d="M716.4,4497.6h2l2.8,6.4l2.8-6.4h2l-4.1,9.4h-1.3L716.4,4497.6z"/>
			<path class="st9" d="M734.5,4506.1c-0.8,0.7-1.8,1.1-2.9,1.1c-0.8,0-1.7-0.2-2.4-0.6c-1.4-0.8-2.4-2.4-2.4-4.3
				c0-1.9,1-3.5,2.4-4.3c0.6-0.4,1.4-0.6,2.3-0.6c1.1,0,2.1,0.3,2.9,1.1v-0.9h1.8v9.4h-1.8V4506.1z M734.5,4500.5
				c-0.6-0.8-1.5-1.3-2.7-1.3c-1.8,0-3,1.5-3,3.1c0,1.7,1.3,3.1,3.1,3.1c1,0,1.9-0.5,2.6-1.3V4500.5z"/>
			<path class="st9" d="M739.9,4504.5c0.9,0.7,1.8,1,2.8,1c0.8,0,1.6-0.4,1.6-1.2c0-1.1-1.6-1.1-2.9-1.6c-1.1-0.4-2.2-1.1-2.2-2.4
				c0-2,1.8-2.9,3.5-2.9c1.4,0,2.4,0.4,3.1,1l-1,1.4c-0.6-0.4-1.3-0.7-2-0.7c-0.9,0-1.7,0.4-1.7,1.2c0,0.6,0.7,0.9,1.7,1.1
				c1.5,0.4,3.4,1,3.4,3c0,1.8-1.7,2.9-3.5,2.9c-1.5,0-2.8-0.5-3.8-1.3L739.9,4504.5z"/>
		</g>
		<g class="st1">
			<path class="st9" d="M890.3,4504h-1.4l-4.1-6.4v9.4h-2v-14h1.4l5.4,8.5l5.4-8.5h1.4v14h-2v-9.4L890.3,4504z"/>
			<path class="st9" d="M906.8,4506.1c-0.8,0.7-1.8,1.1-2.9,1.1c-0.8,0-1.7-0.2-2.4-0.6c-1.4-0.8-2.4-2.4-2.4-4.3
				c0-1.9,1-3.5,2.4-4.3c0.6-0.4,1.4-0.6,2.3-0.6c1.1,0,2.1,0.3,2.9,1.1v-0.9h1.8v9.4h-1.8V4506.1z M906.7,4500.5
				c-0.6-0.8-1.5-1.3-2.7-1.3c-1.8,0-3,1.5-3,3.1c0,1.7,1.3,3.1,3.1,3.1c1,0,1.9-0.5,2.6-1.3V4500.5z M903.2,4496l1.3-3h2.1l-2.1,3
				H903.2z"/>
			<path class="st9" d="M915.4,4503.5l-2.5,3.5h-2.3l3.6-4.9l-3.2-4.5h2.2l2.2,3l2.2-3h2.2l-3.2,4.5l3.6,4.9h-2.3L915.4,4503.5z"/>
			<path class="st9" d="M924.1,4504.4c0.8,0,1.4,0.6,1.4,1.4s-0.6,1.4-1.4,1.4c-0.8,0-1.4-0.6-1.4-1.4S923.3,4504.4,924.1,4504.4z"
				/>
			<path class="st9" d="M935.3,4511.8h-1.9v-14.2h1.8v0.9c0.9-0.7,1.9-1.1,2.9-1.1c0.9,0,1.7,0.2,2.3,0.6c1.4,0.8,2.4,2.4,2.4,4.3
				c0,1.9-1,3.4-2.4,4.3c-0.6,0.4-1.5,0.6-2.4,0.6c-1.1,0-2.1-0.4-2.8-1V4511.8z M935.3,4504.1c0.6,0.9,1.6,1.3,2.6,1.3
				c1.8,0,3.1-1.4,3.1-3.1c0-1.6-1.2-3.1-3-3.1c-1.1,0-2.1,0.6-2.7,1.3V4504.1z"/>
			<path class="st9" d="M946.2,4505.6c-0.6-0.7-0.9-1.6-0.9-3.2v-4.8h1.9v5.1c0,1,0.2,1.5,0.5,1.9c0.4,0.5,1.1,0.8,1.8,0.8
				c1.2,0,2.1-0.7,2.6-1.3v-6.5h1.9v9.4h-1.8v-0.9c-0.4,0.4-1.5,1.1-2.8,1.1C948.2,4507.2,946.9,4506.6,946.2,4505.6z"/>
			<path class="st9" d="M959.3,4498.5c0.5-0.5,1.5-1.1,2.8-1.1c1.4,0,2.6,0.6,3.4,1.7c0.6,0.8,0.9,1.7,0.9,3.3v4.6h-1.9v-4.7
				c0-1.2-0.2-1.8-0.6-2.2c-0.4-0.6-1.2-0.9-1.9-0.9c-1.2,0-2.1,0.7-2.7,1.3v6.5h-1.9v-9.4h1.8V4498.5z"/>
			<path class="st9" d="M975.4,4507c-0.4,0.1-0.9,0.2-1.5,0.2c-1.2,0-2.1-0.4-2.7-1.1c-0.6-0.6-0.8-1.5-0.8-2.5v-4.3h-2.4v-1.7h2.4
				v-2.6h1.9v2.6h3v1.7h-3v4.4c0,0.5,0,0.9,0.3,1.2c0.3,0.3,0.8,0.5,1.3,0.5c0.3,0,0.8,0,1-0.1L975.4,4507z"/>
			<path class="st9" d="M984.6,4506.1c-0.8,0.7-1.8,1.1-2.9,1.1c-0.8,0-1.7-0.2-2.4-0.6c-1.4-0.8-2.4-2.4-2.4-4.3
				c0-1.9,1-3.5,2.4-4.3c0.6-0.4,1.4-0.6,2.3-0.6c1.1,0,2.1,0.3,2.9,1.1v-0.9h1.8v9.4h-1.8V4506.1z M984.5,4500.5
				c-0.6-0.8-1.5-1.3-2.7-1.3c-1.8,0-3,1.5-3,3.1c0,1.7,1.3,3.1,3.1,3.1c1,0,1.9-0.5,2.6-1.3V4500.5z"/>
			<path class="st9" d="M990.2,4497.6h1.9v10.2c0,1.3-0.2,2-0.6,2.6c-0.7,1-1.8,1.6-3.1,1.6c-0.4,0-0.9-0.1-1.1-0.1l0.4-1.7
				c0.1,0,0.4,0.1,0.7,0.1c0.5,0,1.1-0.2,1.4-0.7c0.3-0.3,0.4-0.8,0.4-1.7V4497.6z M991.1,4493c0.7,0,1.3,0.6,1.3,1.3
				s-0.6,1.2-1.3,1.2s-1.2-0.5-1.2-1.2S990.4,4493,991.1,4493z"/>
			<path class="st9" d="M996.5,4502.7c0.1,1.6,1.4,2.8,3,2.8c1.4,0,2.2-0.7,2.7-1.3l1.2,1.2c-0.7,0.9-2,1.8-4,1.8
				c-2.7,0-4.9-2.1-4.9-4.9s1.9-4.9,4.6-4.9c2.6,0,4.5,2.1,4.5,4.9c0,0.1,0,0.2,0,0.4H996.5z M996.7,4501.1h5.1
				c-0.3-1.2-1.4-2-2.5-2C998.1,4499.1,997,4499.9,996.7,4501.1z"/>
			<path class="st9" d="M1013.7,4511.8h-1.9v-14.2h1.8v0.9c0.9-0.7,1.9-1.1,2.9-1.1c0.9,0,1.7,0.2,2.3,0.6c1.4,0.8,2.4,2.4,2.4,4.3
				c0,1.9-1,3.4-2.4,4.3c-0.6,0.4-1.5,0.6-2.4,0.6c-1.1,0-2.1-0.4-2.8-1V4511.8z M1013.7,4504.1c0.6,0.9,1.6,1.3,2.6,1.3
				c1.8,0,3.1-1.4,3.1-3.1c0-1.6-1.2-3.1-3-3.1c-1.1,0-2.1,0.6-2.7,1.3V4504.1z"/>
			<path class="st9" d="M1028,4497.4c2.8,0,4.9,2.1,4.9,4.9s-2.1,4.9-4.9,4.9c-2.8,0-4.9-2.1-4.9-4.9S1025.2,4497.4,1028,4497.4z
				 M1028,4505.4c1.7,0,3-1.4,3-3.1c0-1.7-1.2-3.1-3-3.1s-3,1.4-3,3.1C1025,4504,1026.2,4505.4,1028,4505.4z"/>
			<path class="st9" d="M1035.5,4504.5c0.9,0.7,1.8,1,2.8,1c0.8,0,1.6-0.4,1.6-1.2c0-1.1-1.6-1.1-2.9-1.6c-1.1-0.4-2.2-1.1-2.2-2.4
				c0-2,1.8-2.9,3.5-2.9c1.4,0,2.4,0.4,3.1,1l-1,1.4c-0.6-0.4-1.3-0.7-2-0.7c-0.9,0-1.7,0.4-1.7,1.2c0,0.6,0.7,0.9,1.7,1.1
				c1.5,0.4,3.4,1,3.4,3c0,1.8-1.7,2.9-3.5,2.9c-1.5,0-2.8-0.5-3.8-1.3L1035.5,4504.5z"/>
			<path class="st9" d="M1045.5,4493c0.7,0,1.3,0.6,1.3,1.3s-0.6,1.2-1.3,1.2c-0.7,0-1.2-0.5-1.2-1.2S1044.8,4493,1045.5,4493z
				 M1044.5,4497.6h1.9v9.4h-1.9V4497.6z"/>
			<path class="st9" d="M1051.7,4507h-1.8v-14.2h1.9v5.6c0.8-0.7,1.9-1,2.9-1c0.9,0,1.7,0.2,2.3,0.6c1.4,0.8,2.4,2.4,2.4,4.3
				c0,1.9-1,3.4-2.4,4.3c-0.6,0.4-1.5,0.6-2.4,0.6c-1.1,0-2.1-0.4-2.9-1.1V4507z M1051.7,4504.1c0.6,0.9,1.6,1.3,2.6,1.3
				c1.8,0,3.1-1.4,3.1-3.1c0-1.6-1.2-3.1-3-3.1c-1.1,0-2.1,0.6-2.7,1.3V4504.1z"/>
			<path class="st9" d="M1061.9,4492.8h1.9v14.2h-1.9V4492.8z"/>
			<path class="st9" d="M1068.3,4502.7c0.1,1.6,1.4,2.8,3,2.8c1.4,0,2.2-0.7,2.7-1.3l1.2,1.2c-0.7,0.9-2,1.8-4,1.8
				c-2.7,0-4.9-2.1-4.9-4.9s1.9-4.9,4.6-4.9c2.6,0,4.5,2.1,4.5,4.9c0,0.1,0,0.2,0,0.4H1068.3z M1068.4,4501.1h5.1
				c-0.3-1.2-1.4-2-2.5-2C1069.8,4499.1,1068.7,4499.9,1068.4,4501.1z"/>
		</g>
		<g class="st1">
			<path class="st9" d="M294.8,4500.8v6.2h-2v-14h5.3c1.4,0,2.2,0.3,2.9,0.9c0.8,0.7,1.4,1.8,1.4,3s-0.5,2.3-1.4,3
				c-0.7,0.6-1.6,0.9-2.9,0.9H294.8z M298,4498.9c1,0,1.5-0.2,1.8-0.6c0.3-0.4,0.6-0.8,0.6-1.4s-0.2-1-0.6-1.4
				c-0.4-0.4-0.9-0.6-1.8-0.6h-3.2v4H298z"/>
			<path class="st9" d="M305.6,4493c0.7,0,1.3,0.6,1.3,1.3s-0.6,1.2-1.3,1.2s-1.2-0.5-1.2-1.2S304.9,4493,305.6,4493z M304.7,4497.6
				h1.9v9.4h-1.9V4497.6z"/>
			<path class="st9" d="M310,4492.8h1.9v14.2H310V4492.8z"/>
			<path class="st9" d="M322.2,4506.1c-0.8,0.7-1.8,1.1-2.9,1.1c-0.8,0-1.7-0.2-2.4-0.6c-1.4-0.8-2.4-2.4-2.4-4.3
				c0-1.9,1-3.5,2.4-4.3c0.6-0.4,1.4-0.6,2.3-0.6c1.1,0,2.1,0.3,2.9,1.1v-0.9h1.8v9.4h-1.8V4506.1z M322.1,4500.5
				c-0.6-0.8-1.5-1.3-2.7-1.3c-1.8,0-3,1.5-3,3.1c0,1.7,1.3,3.1,3.1,3.1c1,0,1.9-0.5,2.6-1.3V4500.5z"/>
			<path class="st9" d="M332.6,4499.3c-0.2-0.1-0.4-0.1-0.7-0.1c-1,0-2,0.7-2.5,1.6v6.2h-1.9v-9.4h1.8v1.1c0.5-0.6,1.4-1.3,2.8-1.3
				c0.2,0,0.5,0,0.7,0.1L332.6,4499.3z"/>
			<path class="st9" d="M335.7,4502.7c0.1,1.6,1.4,2.8,3,2.8c1.4,0,2.2-0.7,2.7-1.3l1.2,1.2c-0.7,0.9-2,1.8-4,1.8
				c-2.7,0-4.9-2.1-4.9-4.9s1.9-4.9,4.6-4.9c2.6,0,4.5,2.1,4.5,4.9c0,0.1,0,0.2,0,0.4H335.7z M335.9,4501.1h5.1
				c-0.3-1.2-1.4-2-2.5-2C337.3,4499.1,336.2,4499.9,335.9,4501.1z"/>
			<path class="st9" d="M345.7,4504.5c0.9,0.7,1.8,1,2.8,1c0.8,0,1.6-0.4,1.6-1.2c0-1.1-1.6-1.1-2.9-1.6c-1.1-0.4-2.2-1.1-2.2-2.4
				c0-2,1.8-2.9,3.5-2.9c1.4,0,2.4,0.4,3.1,1l-1,1.4c-0.6-0.4-1.3-0.7-2-0.7c-0.9,0-1.7,0.4-1.7,1.2c0,0.6,0.7,0.9,1.7,1.1
				c1.5,0.4,3.4,1,3.4,3c0,1.8-1.7,2.9-3.5,2.9c-1.5,0-2.8-0.5-3.8-1.3L345.7,4504.5z"/>
		</g>
		<g id="Elipse_365" transform="translate(510 4480)">
			<circle class="st10" cx="-84" cy="20" r="20"/>
			<circle class="st8" cx="-84" cy="20" r="18.5"/>
		</g>
		<g class="st1">
			<path class="st9" d="M461.8,4492.8c2,0,3.9,0.8,5.1,2.2l-1.3,1.3c-0.8-0.9-2.3-1.6-3.8-1.6c-2.9,0-5.1,2.3-5.1,5.3
				c0,3.2,2.3,5.3,5.3,5.3c1.9,0,3.2-1,4-2l1.4,1.3c-1.2,1.5-3.3,2.6-5.4,2.6c-4.2,0-7.3-3.1-7.3-7.2
				C454.7,4496,457.7,4492.8,461.8,4492.8z"/>
			<path class="st9" d="M470.5,4502.7c0.1,1.6,1.4,2.8,3,2.8c1.4,0,2.2-0.7,2.7-1.3l1.2,1.2c-0.7,0.9-2,1.8-4,1.8
				c-2.7,0-4.9-2.1-4.9-4.9s1.9-4.9,4.6-4.9c2.6,0,4.5,2.1,4.5,4.9c0,0.1,0,0.2,0,0.4H470.5z M470.7,4501.1h5.1
				c-0.3-1.2-1.4-2-2.5-2C472.1,4499.1,471,4499.9,470.7,4501.1z"/>
			<path class="st9" d="M482.2,4498.5c0.5-0.5,1.5-1.1,2.8-1.1c1.4,0,2.6,0.6,3.4,1.7c0.6,0.8,0.9,1.7,0.9,3.3v4.6h-1.9v-4.7
				c0-1.2-0.2-1.8-0.6-2.2c-0.4-0.6-1.2-0.9-1.9-0.9c-1.2,0-2.1,0.7-2.7,1.3v6.5h-1.9v-9.4h1.8V4498.5z"/>
			<path class="st9" d="M498.3,4507c-0.4,0.1-0.9,0.2-1.5,0.2c-1.2,0-2.1-0.4-2.7-1.1c-0.6-0.6-0.8-1.5-0.8-2.5v-4.3H491v-1.7h2.4
				v-2.6h1.9v2.6h3v1.7h-3v4.4c0,0.5,0,0.9,0.3,1.2c0.3,0.3,0.8,0.5,1.3,0.5c0.3,0,0.8,0,1-0.1L498.3,4507z"/>
			<path class="st9" d="M506.1,4499.3c-0.2-0.1-0.4-0.1-0.7-0.1c-1,0-2,0.7-2.5,1.6v6.2h-1.9v-9.4h1.8v1.1c0.5-0.6,1.4-1.3,2.8-1.3
				c0.2,0,0.5,0,0.7,0.1L506.1,4499.3z"/>
			<path class="st9" d="M515.1,4506.1c-0.8,0.7-1.8,1.1-2.9,1.1c-0.8,0-1.7-0.2-2.4-0.6c-1.4-0.8-2.4-2.4-2.4-4.3
				c0-1.9,1-3.5,2.4-4.3c0.6-0.4,1.4-0.6,2.3-0.6c1.1,0,2.1,0.3,2.9,1.1v-0.9h1.8v9.4h-1.8V4506.1z M515,4500.5
				c-0.6-0.8-1.5-1.3-2.7-1.3c-1.8,0-3,1.5-3,3.1c0,1.7,1.3,3.1,3.1,3.1c1,0,1.9-0.5,2.6-1.3V4500.5z"/>
			<path class="st9" d="M520.3,4492.8h1.9v14.2h-1.9V4492.8z"/>
			<path class="st9" d="M526.5,4493c0.7,0,1.3,0.6,1.3,1.3s-0.6,1.2-1.3,1.2s-1.2-0.5-1.2-1.2S525.8,4493,526.5,4493z M525.6,4497.6
				h1.9v9.4h-1.9V4497.6z"/>
			<path class="st9" d="M535.2,4499.3h-4.9v-1.7h7.5v1.2l-5.2,6.5h5.6v1.7H530v-1.2L535.2,4499.3z"/>
			<path class="st9" d="M547.2,4506.1c-0.8,0.7-1.8,1.1-2.9,1.1c-0.8,0-1.7-0.2-2.4-0.6c-1.4-0.8-2.4-2.4-2.4-4.3
				c0-1.9,1-3.5,2.4-4.3c0.6-0.4,1.4-0.6,2.3-0.6c1.1,0,2.1,0.3,2.9,1.1v-0.9h1.8v9.4h-1.8V4506.1z M547.1,4500.5
				c-0.6-0.8-1.5-1.3-2.7-1.3c-1.8,0-3,1.5-3,3.1c0,1.7,1.3,3.1,3.1,3.1c1,0,1.9-0.5,2.6-1.3V4500.5z"/>
			<path class="st9" d="M559.3,4506.1c-0.8,0.7-1.8,1.1-2.9,1.1c-0.8,0-1.7-0.2-2.4-0.6c-1.4-0.8-2.4-2.4-2.4-4.3
				c0-1.9,1-3.5,2.4-4.3c0.6-0.4,1.4-0.6,2.3-0.6c1,0,2,0.3,2.9,1v-5.6h1.9v14.2h-1.8V4506.1z M559.2,4500.5
				c-0.6-0.8-1.5-1.3-2.7-1.3c-1.8,0-3,1.5-3,3.1c0,1.7,1.3,3.1,3.1,3.1c1,0,1.9-0.5,2.6-1.3V4500.5z"/>
			<path class="st9" d="M571.4,4506.1c-0.8,0.7-1.8,1.1-2.9,1.1c-0.8,0-1.7-0.2-2.4-0.6c-1.4-0.8-2.4-2.4-2.4-4.3
				c0-1.9,1-3.5,2.4-4.3c0.6-0.4,1.4-0.6,2.3-0.6c1.1,0,2.1,0.3,2.9,1.1v-0.9h1.8v9.4h-1.8V4506.1z M571.3,4500.5
				c-0.6-0.8-1.5-1.3-2.7-1.3c-1.8,0-3,1.5-3,3.1c0,1.7,1.3,3.1,3.1,3.1c1,0,1.9-0.5,2.6-1.3V4500.5z"/>
			<path class="st9" d="M576.7,4504.5c0.9,0.7,1.8,1,2.8,1c0.8,0,1.6-0.4,1.6-1.2c0-1.1-1.6-1.1-2.9-1.6c-1.1-0.4-2.2-1.1-2.2-2.4
				c0-2,1.8-2.9,3.5-2.9c1.4,0,2.4,0.4,3.1,1l-1,1.4c-0.6-0.4-1.3-0.7-2-0.7c-0.9,0-1.7,0.4-1.7,1.2c0,0.6,0.7,0.9,1.7,1.1
				c1.5,0.4,3.4,1,3.4,3c0,1.8-1.7,2.9-3.5,2.9c-1.5,0-2.8-0.5-3.8-1.3L576.7,4504.5z"/>
		</g>
	</g>
	<g id="Grupo_2170" transform="translate(-707 201)">
		<rect id="Rectángulo_755" x="1310" y="4073.6" class="st5" width="154" height="255.3"/>
		<rect id="Rectángulo_758" x="1472" y="4180.3" class="st10" width="154" height="148.6"/>
		<rect id="Rectángulo_761" x="1634.1" y="4135.7" class="st7" width="154" height="193.2"/>
		<g class="st1">
			<path class="st2" d="M1399.1,4389.9v6.3h-3v-15.4h5.8c2,0,3.1,0.5,4,1.4c0.8,0.8,1.2,2,1.2,3.2s-0.4,2.4-1.2,3.2
				c-0.8,0.9-2,1.4-4,1.4H1399.1z M1401.8,4387.3c1,0,1.5-0.2,1.9-0.6c0.3-0.4,0.5-0.8,0.5-1.3s-0.2-1-0.5-1.3
				c-0.4-0.4-0.9-0.6-1.9-0.6h-2.7v3.8H1401.8z"/>
			<path class="st2" d="M1405.8,4396.2l6.6-15.4h2.1l6.6,15.4h-3.1l-1.5-3.4h-6.2l-1.5,3.4H1405.8z M1411.5,4390.1h3.9l-2-4.6
				L1411.5,4390.1z"/>
			<path class="st2" d="M1425.8,4389.4v6.8h-3v-15.4h5.6c1.6,0,2.6,0.4,3.4,1.1c0.8,0.8,1.4,1.9,1.4,3.1c0,1.2-0.5,2.4-1.4,3.1
				c-0.4,0.4-0.9,0.7-1.5,0.9l5.8,7.1h-3.7l-5.5-6.8H1425.8z M1428.3,4386.7c0.9,0,1.2-0.2,1.5-0.5s0.4-0.7,0.4-1.2
				c0-0.5-0.2-0.9-0.4-1.2c-0.3-0.3-0.6-0.5-1.5-0.5h-2.5v3.3H1428.3z"/>
			<path class="st2" d="M1446.4,4380.8v2.6h-4.1v12.8h-3v-12.8h-4.1v-2.6H1446.4z"/>
			<path class="st2" d="M1448.7,4380.8h3v15.4h-3V4380.8z"/>
			<path class="st2" d="M1457.1,4388.5c0,3,2.3,5.3,5.3,5.3c2,0,3.5-1,4.4-2.1l2,1.8c-1.4,1.7-3.7,2.9-6.5,2.9
				c-4.8,0-8.2-3.5-8.2-7.9c0-4.4,3.3-7.9,8.1-7.9c2.3,0,4.2,0.9,5.6,2.2l-1.9,2c-0.9-0.9-2.2-1.6-3.7-1.6
				C1459.3,4383.2,1457.1,4385.6,1457.1,4388.5z"/>
			<path class="st2" d="M1470.9,4380.8h3v15.4h-3V4380.8z"/>
			<path class="st2" d="M1480.4,4389.9v6.3h-3v-15.4h5.8c2,0,3.1,0.5,4,1.4c0.8,0.8,1.2,2,1.2,3.2s-0.4,2.4-1.2,3.2
				c-0.8,0.9-2,1.4-4,1.4H1480.4z M1483.1,4387.3c1,0,1.5-0.2,1.9-0.6c0.3-0.4,0.5-0.8,0.5-1.3s-0.2-1-0.5-1.3
				c-0.4-0.4-0.9-0.6-1.9-0.6h-2.7v3.8H1483.1z"/>
			<path class="st2" d="M1487.1,4396.2l6.6-15.4h2.1l6.6,15.4h-3.1l-1.5-3.4h-6.2l-1.5,3.4H1487.1z M1492.8,4390.1h3.9l-2-4.6
				L1492.8,4390.1z"/>
			<path class="st2" d="M1505.5,4388.5c0,3,2.3,5.3,5.3,5.3c2,0,3.5-1,4.4-2.1l2,1.8c-1.4,1.7-3.7,2.9-6.5,2.9
				c-4.8,0-8.2-3.5-8.2-7.9c0-4.4,3.3-7.9,8.1-7.9c2.3,0,4.2,0.9,5.6,2.2l-1.9,2c-0.9-0.9-2.2-1.6-3.7-1.6
				C1507.7,4383.2,1505.5,4385.6,1505.5,4388.5z"/>
			<path class="st2" d="M1519.3,4380.8h3v15.4h-3V4380.8z"/>
			<path class="st2" d="M1532.7,4380.6c4.8,0,8,3.5,8,7.9s-3.3,7.9-8,7.9s-8-3.5-8-7.9S1528,4380.6,1532.7,4380.6z M1532.7,4393.8
				c2.9,0,5.1-2.4,5.1-5.3s-2.2-5.3-5.1-5.3s-5.1,2.4-5.1,5.3S1529.8,4393.8,1532.7,4393.8z M1536.4,4375.9l-2.6,3.5h-2l1.5-3.5
				H1536.4z"/>
			<path class="st2" d="M1543.2,4380.8h2.1l8.6,10v-10h3v15.4h-2.1l-8.6-10v10h-3V4380.8z"/>
			<path class="st2" d="M1571.1,4380.8c2.4,0,4,0.5,5.3,1.5c1.9,1.4,3.1,3.7,3.1,6.2s-1.2,4.8-3.1,6.2c-1.3,0.9-2.9,1.5-5.3,1.5
				h-4.8v-15.4H1571.1z M1575.4,4385.1c-0.9-1.1-2.1-1.7-3.9-1.7h-2.2v10.1h2.2c1.8,0,3.1-0.6,3.9-1.7c0.7-0.9,1.1-2.1,1.1-3.3
				C1576.5,4387.2,1576.1,4386,1575.4,4385.1z"/>
			<path class="st2" d="M1584.9,4383.4v3.2h4.7v2.6h-4.7v4.3h6.5v2.6h-9.5v-15.4h9.2v2.6H1584.9z"/>
			<path class="st2" d="M1601.8,4394.8c-1.3-1.1-2-2.8-2-5.1v-8.9h3v9.1c0,1.4,0.4,2.3,1,2.9c0.7,0.6,1.6,1,2.6,1c1,0,2-0.4,2.6-1
				c0.6-0.6,1-1.5,1-2.9v-9.1h3v8.9c0,2.4-0.7,4-2,5.1c-1.2,1.1-2.9,1.6-4.6,1.6C1604.7,4396.4,1603,4395.9,1601.8,4394.8z"/>
			<path class="st2" d="M1616.8,4392.1c0.9,1,2.2,1.7,3.6,1.7c1.3,0,2.2-0.8,2.2-1.9c0-2-2.9-2.2-4.9-3.4c-1.2-0.7-2.2-1.8-2.2-3.5
				c0-2.8,2.5-4.3,5.1-4.3c1.6,0,3,0.4,4.5,1.5l-1.5,2.2c-0.6-0.6-1.7-1-2.7-1c-1.1,0-2.4,0.5-2.4,1.7c0,2.5,7.1,1.7,7.1,6.9
				c0,2.7-2.4,4.6-5.2,4.6c-2.1,0-4-0.9-5.6-2.3L1616.8,4392.1z"/>
			<path class="st2" d="M1630,4394.8c-1.3-1.1-2-2.8-2-5.1v-8.9h3v9.1c0,1.4,0.4,2.3,1,2.9c0.7,0.6,1.6,1,2.6,1c1,0,2-0.4,2.6-1
				c0.6-0.6,1-1.5,1-2.9v-9.1h3v8.9c0,2.4-0.7,4-2,5.1c-1.2,1.1-2.9,1.6-4.6,1.6C1632.9,4396.4,1631.2,4395.9,1630,4394.8z"/>
			<path class="st2" d="M1642.1,4396.2l6.6-15.4h2.1l6.6,15.4h-3.1l-1.5-3.4h-6.2l-1.5,3.4H1642.1z M1647.8,4390.1h3.9l-2-4.6
				L1647.8,4390.1z"/>
			<path class="st2" d="M1662.1,4389.4v6.8h-3v-15.4h5.6c1.6,0,2.6,0.4,3.4,1.1c0.8,0.8,1.4,1.9,1.4,3.1c0,1.2-0.5,2.4-1.4,3.1
				c-0.4,0.4-0.9,0.7-1.5,0.9l5.8,7.1h-3.7l-5.5-6.8H1662.1z M1664.6,4386.7c0.9,0,1.2-0.2,1.5-0.5c0.3-0.3,0.4-0.7,0.4-1.2
				c0-0.5-0.2-0.9-0.4-1.2c-0.3-0.3-0.6-0.5-1.5-0.5h-2.5v3.3H1664.6z"/>
			<path class="st2" d="M1673.9,4380.8h3v15.4h-3V4380.8z"/>
			<path class="st2" d="M1687.3,4380.6c4.8,0,8,3.5,8,7.9s-3.3,7.9-8,7.9s-8-3.5-8-7.9S1682.5,4380.6,1687.3,4380.6z M1687.3,4393.8
				c2.9,0,5.1-2.4,5.1-5.3s-2.2-5.3-5.1-5.3s-5.1,2.4-5.1,5.3S1684.4,4393.8,1687.3,4393.8z"/>
			<path class="st2" d="M1698.1,4392.1c0.9,1,2.2,1.7,3.6,1.7c1.3,0,2.2-0.8,2.2-1.9c0-2-2.9-2.2-4.9-3.4c-1.2-0.7-2.2-1.8-2.2-3.5
				c0-2.8,2.5-4.3,5.1-4.3c1.6,0,3,0.4,4.5,1.5l-1.5,2.2c-0.6-0.6-1.7-1-2.7-1c-1.1,0-2.4,0.5-2.4,1.7c0,2.5,7.1,1.7,7.1,6.9
				c0,2.7-2.4,4.6-5.2,4.6c-2.1,0-4-0.9-5.6-2.3L1698.1,4392.1z"/>
		</g>
		<g class="st1">
			<path class="st2" d="M1375.4,4022.2l-4,6.7h0.3c4,0,7.4,3,7.4,7.2c0,4.1-3.4,7.4-7.5,7.4c-3.9,0-7.7-2.8-7.7-7.2
				c0-2.1,1-3.9,2.1-5.8l4.9-8.3H1375.4z M1367.8,4036.4c0,2,1.7,3.6,3.7,3.6c2.1,0,3.5-1.7,3.5-3.7s-1.5-3.8-3.7-3.8
				c-0.8,0-1.5,0.2-2.2,0.5C1368.5,4033.8,1367.8,4035,1367.8,4036.4z"/>
			<path class="st2" d="M1388.2,4038.6l-3.6,8.8h-2.8l2.2-8.8H1388.2z"/>
			<path class="st2" d="M1405.9,4022.2v12.6h3.4v3.6h-3.4v4.8h-4v-4.8h-9.7v-2.4l10.9-13.8H1405.9z M1401.9,4034.8v-4.9l-3.9,4.9
				H1401.9z"/>
		</g>
		<g class="st1">
			<path class="st2" d="M1526.9,4149.9c0.9,1.2,2.3,2.1,3.9,2.1c2,0,3.9-1.6,3.9-3.8c0-2.2-1.8-3.8-4.1-3.8c-0.8,0-1.7,0.2-2.5,0.6
				v-2.4l3.9-4.7h-7v-3.6h12.7v2.4l-3.8,4.7c2.9,1.1,4.9,3.6,4.9,6.8c0,4.4-3.5,7.4-7.8,7.4c-2.6,0-5.1-1.2-7-3.3L1526.9,4149.9z"/>
			<path class="st2" d="M1548.4,4150.7l-3.6,8.8h-2.8l2.2-8.8H1548.4z"/>
			<path class="st2" d="M1553.4,4134.3h13.8v2.4l-9,18.6h-4.3l8.5-17.4h-9V4134.3z"/>
		</g>
		<g class="st1">
			<path class="st2" d="M1701.3,4087.1v12.6h3.4v3.6h-3.4v4.8h-4v-4.8h-9.8v-2.4l10.9-13.8H1701.3z M1697.2,4099.7v-4.9l-3.9,4.9
				H1697.2z"/>
			<path class="st2" d="M1712.7,4103.4l-3.6,8.8h-2.8l2.2-8.8H1712.7z"/>
			<path class="st2" d="M1717.5,4101.6c0-2.5,1.3-4.2,3-5.3c-0.9-0.8-1.7-2-1.7-3.7c0-3.2,2.6-5.8,6.1-5.8s6.1,2.6,6.1,5.8
				c0,1.7-0.8,2.9-1.7,3.7c1.7,1.1,3,2.8,3,5.3c0,3.8-3.3,6.8-7.5,6.8S1717.5,4105.4,1717.5,4101.6z M1728.4,4101.6
				c0-1.8-1.5-3.2-3.5-3.2c-2,0-3.5,1.4-3.5,3.2s1.5,3.2,3.5,3.2C1727,4104.8,1728.4,4103.4,1728.4,4101.6z M1727.1,4092.6
				c0-1.2-0.8-2.2-2.1-2.2s-2.1,1-2.1,2.2c0,1.2,0.8,2.2,2.1,2.2S1727.1,4093.8,1727.1,4092.6z"/>
		</g>
		<g class="st1">
			<path class="st2" d="M1522.6,3630.8l5.1-3h2.8v21h-4v-16.3l-3.9,2.2V3630.8z"/>
			<path class="st2" d="M1546.6,3627.8l-4,6.7h0.3c4,0,7.3,3,7.3,7.2c0,4.1-3.4,7.4-7.5,7.4c-3.9,0-7.7-2.8-7.7-7.2
				c0-2.1,1-3.9,2.1-5.8l4.9-8.3H1546.6z M1539,3641.9c0,2,1.7,3.6,3.7,3.6c2.1,0,3.5-1.7,3.5-3.7s-1.5-3.8-3.7-3.8
				c-0.8,0-1.5,0.2-2.2,0.5C1539.7,3639.4,1539,3640.5,1539,3641.9z"/>
		</g>
		<line id="Línea_515" class="st4" x1="1297.1" y1="3680.7" x2="1806.4" y2="3680.7"/>
	</g>
</g>
</svg>
