<?xml version="1.0" encoding="utf-8"?>
<!-- Generator: Adobe Illustrator 25.2.0, SVG Export Plug-In . SVG Version: 6.00 Build 0)  -->
<svg version="1.1" id="Capa_1" xmlns="http://www.w3.org/2000/svg" xmlns:xlink="http://www.w3.org/1999/xlink" x="0px" y="0px"
	 viewBox="0 0 1542 818" style="enable-background:new 0 0 1542 818;" xml:space="preserve">
<style type="text/css">
	.st0{fill:none;stroke:#989898;stroke-linecap:round;}
	.st1{enable-background:new    ;}
	.st2{fill:#333333;}
	.st3{fill:none;stroke:#717171;stroke-width:4;}
	.st4{fill:#9372FC;}
	.st5{fill:#16BAC5;}
	.st6{fill:#FF5154;}
	.st7{fill:none;stroke:#333333;stroke-width:3;stroke-linecap:square;stroke-dasharray:6,8;}
	.st8{fill:#FFFFFF;}
	.st9{fill:none;stroke:#FFFFFF;stroke-width:3;}
	.st10{fill:#AAAAAA;}
</style>
<g id="Grupo_2190" transform="translate(-125 -3714)">
	<line id="Línea_510" class="st0" x1="193.8" y1="3728.6" x2="1666.5" y2="3728.6"/>
	<line id="Línea_511" class="st0" x1="193.8" y1="4175.8" x2="1666.5" y2="4175.8"/>
	<line id="Línea_512" class="st0" x1="193.8" y1="4026.2" x2="1666.5" y2="4026.2"/>
	<line id="Línea_513" class="st0" x1="193.8" y1="3876.9" x2="1666.5" y2="3876.9"/>
	<g class="st1">
		<path class="st2" d="M136.1,3718c0.6-1.9,2.4-3.2,4.4-3.2c2.4,0,4.5,1.8,4.5,4.3c0,1.7-0.9,2.9-1.8,4l-3,3.5h4.9v2.4H136v-1.6
			l4.9-5.6c1.1-1.2,1.4-2,1.4-2.7c0-1-0.8-1.9-1.8-1.9c-0.9,0-1.6,0.6-1.9,1.6L136.1,3718z"/>
		<path class="st2" d="M152,3714.8c3.6,0,4.9,3.2,4.9,7.2c0,4-1.3,7.2-4.9,7.2c-3.6,0-4.9-3.2-4.9-7.2
			C147.1,3718,148.4,3714.8,152,3714.8z M152,3717.2c-1.6,0-2.2,2.2-2.2,4.8c0,2.6,0.6,4.8,2.2,4.8c1.6,0,2.2-2.2,2.2-4.8
			C154.2,3719.4,153.6,3717.2,152,3717.2z"/>
	</g>
	<g class="st1">
		<path class="st2" d="M138.6,4022l3.4-2h1.9v14h-2.7v-10.9l-2.6,1.4V4022z"/>
		<path class="st2" d="M152,4019.8c3.6,0,4.9,3.2,4.9,7.2c0,4-1.3,7.2-4.9,7.2c-3.6,0-4.9-3.2-4.9-7.2
			C147.1,4023,148.4,4019.8,152,4019.8z M152,4022.2c-1.6,0-2.2,2.2-2.2,4.8c0,2.6,0.6,4.8,2.2,4.8c1.6,0,2.2-2.2,2.2-4.8
			C154.2,4024.4,153.6,4022.2,152,4022.2z"/>
	</g>
	<g class="st1">
		<path class="st2" d="M149.3,4176.7c0.6,0.6,1.5,1.1,2.4,1.1c0.6,0,1.2-0.2,1.7-0.6c0.5-0.4,0.8-1.1,0.8-1.8c0-0.8-0.3-1.4-0.9-1.9
			c-0.4-0.4-1-0.6-1.7-0.6c-0.7,0-1.5,0.3-2.1,0.8l-1.7-0.2l0.9-7.4h7.4v2.4H151l-0.2,2.2c0.3-0.1,0.7-0.1,1.1-0.1
			c1.1,0,2.3,0.3,3.3,1.1c1.1,0.9,1.8,2.3,1.8,3.8c0,2.8-2.3,4.8-5.2,4.8c-1.6,0-3-0.6-4.2-1.8L149.3,4176.7z"/>
	</g>
	<g class="st1">
		<path class="st2" d="M139.3,3870l3.4-2h1.9v14h-2.7v-10.9l-2.6,1.4V3870z"/>
		<path class="st2" d="M149.3,3878.7c0.6,0.6,1.5,1.1,2.4,1.1c0.6,0,1.2-0.2,1.7-0.6c0.5-0.4,0.8-1.1,0.8-1.8c0-0.8-0.3-1.4-0.9-1.9
			c-0.4-0.4-1-0.6-1.7-0.6c-0.7,0-1.5,0.3-2.1,0.8l-1.7-0.2l0.9-7.4h7.4v2.4H151l-0.2,2.2c0.3-0.1,0.7-0.1,1.1-0.1
			c1.1,0,2.3,0.3,3.3,1.1c1.1,0.9,1.8,2.3,1.8,3.8c0,2.8-2.3,4.8-5.2,4.8c-1.6,0-3-0.6-4.2-1.8L149.3,3878.7z"/>
	</g>
	<g class="st1">
		<path class="st2" d="M152,4309.8c3.6,0,4.9,3.2,4.9,7.2c0,4-1.3,7.2-4.9,7.2c-3.6,0-4.9-3.2-4.9-7.2
			C147.1,4313,148.4,4309.8,152,4309.8z M152,4312.2c-1.6,0-2.2,2.2-2.2,4.8c0,2.6,0.6,4.8,2.2,4.8c1.6,0,2.2-2.2,2.2-4.8
			C154.2,4314.4,153.6,4312.2,152,4312.2z"/>
	</g>
	<g class="st1">
		<path class="st2" d="M266.7,4360.6v2.6h-4.1v12.8h-3v-12.8h-4.1v-2.6H266.7z"/>
		<path class="st2" d="M266,4376l6.6-15.4h2.1l6.6,15.4h-3.1l-1.5-3.4h-6.2l-1.5,3.4H266z M271.7,4369.9h3.9l-2-4.6L271.7,4369.9z"
			/>
		<path class="st2" d="M283.1,4360.6h3v12.8h6.5v2.6h-9.5V4360.6z"/>
		<path class="st2" d="M297.8,4363.2v3.2h4.7v2.6h-4.7v4.3h6.5v2.6h-9.5v-15.4h9.2v2.6H297.8z"/>
		<path class="st2" d="M307,4360.6h2.1l8.6,10v-10h3v15.4h-2.1l-8.6-10v10h-3V4360.6z"/>
		<path class="st2" d="M334,4360.6v2.6h-4.1v12.8h-3v-12.8h-4.1v-2.6H334z"/>
		<path class="st2" d="M342.9,4360.4c4.8,0,8,3.5,8,7.9s-3.3,7.9-8,7.9c-4.8,0-8-3.5-8-7.9S338.2,4360.4,342.9,4360.4z
			 M342.9,4373.6c2.9,0,5.1-2.4,5.1-5.3s-2.2-5.3-5.1-5.3c-2.9,0-5.1,2.4-5.1,5.3S340,4373.6,342.9,4373.6z"/>
		<path class="st2" d="M370,4369.1h-7.7v6.9h-3v-15.4h3v5.8h7.7v-5.8h3v15.4h-3V4369.1z"/>
		<path class="st2" d="M378.3,4374.6c-1.3-1.1-2-2.8-2-5.1v-8.9h3v9.1c0,1.4,0.4,2.3,1,2.9c0.7,0.6,1.6,1,2.6,1s2-0.4,2.6-1
			c0.6-0.6,1-1.5,1-2.9v-9.1h3v8.9c0,2.4-0.7,4-2,5.1c-1.2,1.1-2.9,1.6-4.6,1.6S379.5,4375.7,378.3,4374.6z"/>
		<path class="st2" d="M400.7,4369.8l5.6-9.2h2.1v15.4h-3v-8.6l-3.7,6.1h-2.1l-3.7-6.1v8.6h-3v-15.4h2.1L400.7,4369.8z"/>
		<path class="st2" d="M410.1,4376l6.6-15.4h2.1l6.6,15.4h-3.1l-1.5-3.4h-6.2l-1.5,3.4H410.1z M415.8,4369.9h3.9l-2-4.6
			L415.8,4369.9z"/>
		<path class="st2" d="M427.2,4360.6h2.1l8.6,10v-10h3v15.4h-2.1l-8.6-10v10h-3V4360.6z"/>
		<path class="st2" d="M451.3,4360.4c4.8,0,8,3.5,8,7.9s-3.3,7.9-8,7.9c-4.8,0-8-3.5-8-7.9S446.5,4360.4,451.3,4360.4z
			 M451.3,4373.6c2.9,0,5.1-2.4,5.1-5.3s-2.2-5.3-5.1-5.3c-2.9,0-5.1,2.4-5.1,5.3S448.4,4373.6,451.3,4373.6z"/>
	</g>
	<g class="st1">
		<path class="st2" d="M620.4,4369.8l5.6-9.2h2.1v15.4h-3v-8.6l-3.7,6.1h-2.1l-3.7-6.1v8.6h-3v-15.4h2.1L620.4,4369.8z"/>
		<path class="st2" d="M629.8,4376l6.6-15.4h2.1l6.6,15.4H642l-1.5-3.4h-6.2l-1.5,3.4H629.8z M635.5,4369.9h3.9l-2-4.6L635.5,4369.9
			z"/>
		<path class="st2" d="M649.8,4369.2v6.8h-3v-15.4h5.6c1.6,0,2.6,0.4,3.4,1.1c0.8,0.8,1.4,1.9,1.4,3.1c0,1.2-0.5,2.4-1.4,3.1
			c-0.4,0.4-0.9,0.7-1.5,0.9l5.8,7.1h-3.7l-5.5-6.8H649.8z M652.3,4366.5c0.9,0,1.2-0.2,1.5-0.5c0.3-0.3,0.4-0.7,0.4-1.2
			c0-0.5-0.2-0.9-0.4-1.2c-0.3-0.3-0.6-0.5-1.5-0.5h-2.5v3.3H652.3z"/>
		<path class="st2" d="M662.6,4368.3c0,3,2.3,5.3,5.3,5.3c2,0,3.5-1,4.4-2.1l2,1.8c-1.4,1.7-3.7,2.9-6.5,2.9c-4.8,0-8.2-3.5-8.2-7.9
			s3.3-7.9,8.1-7.9c2.3,0,4.2,0.9,5.6,2.2l-1.9,2c-0.9-0.9-2.2-1.6-3.7-1.6C664.8,4363,662.6,4365.4,662.6,4368.3z"/>
		<path class="st2" d="M683.3,4360.4c4.8,0,8,3.5,8,7.9s-3.3,7.9-8,7.9c-4.8,0-8-3.5-8-7.9S678.5,4360.4,683.3,4360.4z
			 M683.3,4373.6c2.9,0,5.1-2.4,5.1-5.3s-2.2-5.3-5.1-5.3c-2.9,0-5.1,2.4-5.1,5.3S680.4,4373.6,683.3,4373.6z"/>
		<path class="st2" d="M699.7,4360.6h3v15.4h-3V4360.6z"/>
		<path class="st2" d="M706.1,4360.6h2.1l8.6,10v-10h3v15.4h-2.1l-8.6-10v10h-3V4360.6z"/>
		<path class="st2" d="M723.7,4371.9c0.9,1,2.2,1.7,3.6,1.7c1.3,0,2.2-0.8,2.2-1.9c0-2-2.9-2.2-4.9-3.4c-1.2-0.7-2.2-1.8-2.2-3.5
			c0-2.8,2.5-4.3,5.1-4.3c1.6,0,3,0.4,4.5,1.5l-1.5,2.2c-0.6-0.6-1.6-1-2.7-1c-1.1,0-2.4,0.5-2.4,1.7c0,2.5,7.1,1.7,7.1,6.9
			c0,2.7-2.4,4.6-5.2,4.6c-2.1,0-4-0.9-5.6-2.3L723.7,4371.9z"/>
		<path class="st2" d="M744.4,4360.6v2.6h-4.1v12.8h-3v-12.8h-4.1v-2.6H744.4z"/>
		<path class="st2" d="M746.7,4360.6h3v15.4h-3V4360.6z"/>
		<path class="st2" d="M763.1,4360.6v2.6h-4.1v12.8h-3v-12.8H752v-2.6H763.1z"/>
		<path class="st2" d="M767.3,4374.6c-1.3-1.1-2-2.8-2-5.1v-8.9h3v9.1c0,1.4,0.4,2.3,1,2.9c0.7,0.6,1.6,1,2.6,1s2-0.4,2.6-1
			c0.6-0.6,1-1.5,1-2.9v-9.1h3v8.9c0,2.4-0.7,4-2,5.1c-1.2,1.1-2.9,1.6-4.6,1.6S768.5,4375.7,767.3,4374.6z"/>
		<path class="st2" d="M783.9,4368.3c0,3,2.3,5.3,5.3,5.3c2,0,3.5-1,4.4-2.1l2,1.8c-1.4,1.7-3.7,2.9-6.5,2.9c-4.8,0-8.2-3.5-8.2-7.9
			s3.3-7.9,8.1-7.9c2.3,0,4.2,0.9,5.6,2.2l-1.9,2c-0.9-0.9-2.2-1.6-3.7-1.6C786.1,4363,783.9,4365.4,783.9,4368.3z"/>
		<path class="st2" d="M797.8,4360.6h3v15.4h-3V4360.6z"/>
		<path class="st2" d="M811.2,4360.4c4.8,0,8,3.5,8,7.9s-3.3,7.9-8,7.9c-4.8,0-8-3.5-8-7.9S806.4,4360.4,811.2,4360.4z
			 M811.2,4373.6c2.9,0,5.1-2.4,5.1-5.3s-2.2-5.3-5.1-5.3c-2.9,0-5.1,2.4-5.1,5.3S808.3,4373.6,811.2,4373.6z"/>
		<path class="st2" d="M821.6,4360.6h2.1l8.6,10v-10h3v15.4h-2.1l-8.6-10v10h-3V4360.6z"/>
		<path class="st2" d="M837,4376l6.6-15.4h2.1l6.6,15.4h-3.1l-1.5-3.4h-6.2l-1.5,3.4H837z M842.7,4369.9h3.9l-2-4.6L842.7,4369.9z"
			/>
		<path class="st2" d="M854.1,4360.6h3v12.8h6.5v2.6h-9.5V4360.6z"/>
	</g>
	<g class="st1">
		<path class="st2" d="M997.2,4369.2v6.8h-3v-15.4h5.6c1.6,0,2.6,0.4,3.4,1.1c0.8,0.8,1.4,1.9,1.4,3.1c0,1.2-0.5,2.4-1.4,3.1
			c-0.4,0.4-0.9,0.7-1.5,0.9l5.8,7.1h-3.7l-5.5-6.8H997.2z M999.6,4366.5c0.9,0,1.2-0.2,1.5-0.5c0.3-0.3,0.4-0.7,0.4-1.2
			c0-0.5-0.2-0.9-0.4-1.2c-0.3-0.3-0.6-0.5-1.5-0.5h-2.5v3.3H999.6z"/>
		<path class="st2" d="M1011.9,4363.2v3.2h4.7v2.6h-4.7v4.3h6.5v2.6h-9.5v-15.4h9.2v2.6H1011.9z"/>
		<path class="st2" d="M1022.6,4368.3c0,3,2.3,5.3,5.3,5.3c2,0,3.5-1,4.4-2.1l2,1.8c-1.4,1.7-3.7,2.9-6.5,2.9
			c-4.8,0-8.2-3.5-8.2-7.9s3.3-7.9,8.1-7.9c2.3,0,4.2,0.9,5.6,2.2l-1.9,2c-0.9-0.9-2.2-1.6-3.7-1.6
			C1024.8,4363,1022.6,4365.4,1022.6,4368.3z"/>
		<path class="st2" d="M1038.1,4374.6c-1.3-1.1-2-2.8-2-5.1v-8.9h3v9.1c0,1.4,0.4,2.3,1,2.9c0.7,0.6,1.6,1,2.6,1s2-0.4,2.6-1
			c0.6-0.6,1-1.5,1-2.9v-9.1h3v8.9c0,2.4-0.7,4-2,5.1c-1.2,1.1-2.9,1.6-4.6,1.6S1039.3,4375.7,1038.1,4374.6z"/>
		<path class="st2" d="M1055.7,4369.2v6.8h-3v-15.4h5.6c1.6,0,2.6,0.4,3.4,1.1c0.8,0.8,1.4,1.9,1.4,3.1c0,1.2-0.5,2.4-1.4,3.1
			c-0.4,0.4-0.9,0.7-1.5,0.9l5.8,7.1h-3.7l-5.5-6.8H1055.7z M1058.1,4366.5c0.9,0,1.2-0.2,1.5-0.5c0.3-0.3,0.4-0.7,0.4-1.2
			c0-0.5-0.2-0.9-0.4-1.2c-0.3-0.3-0.6-0.5-1.5-0.5h-2.5v3.3H1058.1z"/>
		<path class="st2" d="M1068.2,4371.9c0.9,1,2.2,1.7,3.6,1.7c1.3,0,2.2-0.8,2.2-1.9c0-2-2.9-2.2-4.9-3.4c-1.2-0.7-2.2-1.8-2.2-3.5
			c0-2.8,2.5-4.3,5.1-4.3c1.6,0,3,0.4,4.5,1.5l-1.5,2.2c-0.6-0.6-1.7-1-2.7-1c-1.1,0-2.4,0.5-2.4,1.7c0,2.5,7.1,1.7,7.1,6.9
			c0,2.7-2.4,4.6-5.2,4.6c-2.1,0-4-0.9-5.6-2.3L1068.2,4371.9z"/>
		<path class="st2" d="M1086.7,4360.4c4.8,0,8,3.5,8,7.9s-3.3,7.9-8,7.9s-8-3.5-8-7.9S1081.9,4360.4,1086.7,4360.4z M1086.7,4373.6
			c2.9,0,5.1-2.4,5.1-5.3s-2.2-5.3-5.1-5.3s-5.1,2.4-5.1,5.3S1083.8,4373.6,1086.7,4373.6z"/>
		<path class="st2" d="M1097.5,4371.9c0.9,1,2.2,1.7,3.6,1.7c1.3,0,2.2-0.8,2.2-1.9c0-2-2.9-2.2-4.9-3.4c-1.2-0.7-2.2-1.8-2.2-3.5
			c0-2.8,2.5-4.3,5.1-4.3c1.6,0,3,0.4,4.5,1.5l-1.5,2.2c-0.6-0.6-1.7-1-2.7-1c-1.1,0-2.4,0.5-2.4,1.7c0,2.5,7.1,1.7,7.1,6.9
			c0,2.7-2.4,4.6-5.2,4.6c-2.1,0-4-0.9-5.6-2.3L1097.5,4371.9z"/>
		<path class="st2" d="M1119.7,4360.6c2.4,0,4,0.5,5.3,1.5c1.9,1.4,3.1,3.7,3.1,6.2s-1.2,4.8-3.1,6.2c-1.3,0.9-2.9,1.5-5.3,1.5h-4.8
			v-15.4H1119.7z M1124,4365c-0.9-1.1-2.1-1.7-3.9-1.7h-2.2v10.1h2.2c1.8,0,3.1-0.6,3.9-1.7c0.7-0.9,1.1-2.1,1.1-3.3
			S1124.7,4365.8,1124,4365z"/>
		<path class="st2" d="M1130.5,4360.6h3v15.4h-3V4360.6z"/>
		<path class="st2" d="M1138.8,4368.3c0,3,2.3,5.3,5.3,5.3c1.4,0,2.6-0.5,3.4-1.2v-3.3h-4v-2.6h6.9v6.8c-1.4,1.7-3.7,2.9-6.5,2.9
			c-4.8,0-8.2-3.5-8.2-7.9s3.3-7.9,8.1-7.9c2.3,0,4.2,0.9,5.6,2.2l-1.9,2c-0.9-0.9-2.2-1.6-3.7-1.6
			C1141,4363,1138.8,4365.4,1138.8,4368.3z"/>
		<path class="st2" d="M1153.6,4360.6h3v15.4h-3V4360.6z"/>
		<path class="st2" d="M1170,4360.6v2.6h-4.1v12.8h-3v-12.8h-4.1v-2.6H1170z"/>
		<path class="st2" d="M1169.3,4376l6.6-15.4h2.1l6.6,15.4h-3.1l-1.5-3.4h-6.2l-1.5,3.4H1169.3z M1175,4369.9h3.9l-2-4.6
			L1175,4369.9z"/>
		<path class="st2" d="M1186.4,4360.6h3v12.8h6.5v2.6h-9.5V4360.6z"/>
		<path class="st2" d="M1201.1,4363.2v3.2h4.7v2.6h-4.7v4.3h6.5v2.6h-9.5v-15.4h9.2v2.6H1201.1z"/>
		<path class="st2" d="M1211,4371.9c0.9,1,2.2,1.7,3.6,1.7c1.3,0,2.2-0.8,2.2-1.9c0-2-2.9-2.2-4.9-3.4c-1.2-0.7-2.2-1.8-2.2-3.5
			c0-2.8,2.5-4.3,5.1-4.3c1.6,0,3,0.4,4.5,1.5l-1.5,2.2c-0.6-0.6-1.6-1-2.7-1c-1.1,0-2.4,0.5-2.4,1.7c0,2.5,7.1,1.7,7.1,6.9
			c0,2.7-2.4,4.6-5.2,4.6c-2.1,0-4-0.9-5.6-2.3L1211,4371.9z"/>
	</g>
	<g class="st1">
		<path class="st2" d="M1411.8,4363.2v3.2h4.7v2.6h-4.7v4.3h6.5v2.6h-9.5v-15.4h9.2v2.6H1411.8z"/>
		<path class="st2" d="M1421.7,4371.9c0.9,1,2.2,1.7,3.6,1.7c1.3,0,2.2-0.8,2.2-1.9c0-2-2.9-2.2-4.9-3.4c-1.2-0.7-2.2-1.8-2.2-3.5
			c0-2.8,2.5-4.3,5.1-4.3c1.6,0,3,0.4,4.5,1.5l-1.5,2.2c-0.6-0.6-1.6-1-2.7-1c-1.1,0-2.4,0.5-2.4,1.7c0,2.5,7.1,1.7,7.1,6.9
			c0,2.7-2.4,4.6-5.2,4.6c-2.1,0-4-0.9-5.6-2.3L1421.7,4371.9z"/>
		<path class="st2" d="M1442.4,4360.6v2.6h-4.1v12.8h-3v-12.8h-4.1v-2.6H1442.4z"/>
		<path class="st2" d="M1447.7,4369.2v6.8h-3v-15.4h5.6c1.6,0,2.6,0.4,3.4,1.1c0.8,0.8,1.4,1.9,1.4,3.1c0,1.2-0.5,2.4-1.4,3.1
			c-0.4,0.4-0.9,0.7-1.5,0.9l5.8,7.1h-3.7l-5.5-6.8H1447.7z M1450.1,4366.5c0.9,0,1.2-0.2,1.5-0.5c0.3-0.3,0.4-0.7,0.4-1.2
			c0-0.5-0.2-0.9-0.4-1.2c-0.3-0.3-0.6-0.5-1.5-0.5h-2.5v3.3H1450.1z"/>
		<path class="st2" d="M1458.7,4376l6.6-15.4h2.1l6.6,15.4h-3.1l-1.5-3.4h-6.2l-1.5,3.4H1458.7z M1464.3,4369.9h3.9l-2-4.6
			L1464.3,4369.9z"/>
		<path class="st2" d="M1484.4,4360.6v2.6h-4.1v12.8h-3v-12.8h-4.1v-2.6H1484.4z"/>
		<path class="st2" d="M1489.7,4363.2v3.2h4.7v2.6h-4.7v4.3h6.5v2.6h-9.5v-15.4h9.2v2.6H1489.7z"/>
		<path class="st2" d="M1500.4,4368.3c0,3,2.3,5.3,5.3,5.3c1.4,0,2.6-0.5,3.4-1.2v-3.3h-4v-2.6h6.9v6.8c-1.4,1.7-3.7,2.9-6.5,2.9
			c-4.8,0-8.2-3.5-8.2-7.9s3.3-7.9,8.1-7.9c2.3,0,4.2,0.9,5.6,2.2l-1.9,2c-0.9-0.9-2.2-1.6-3.7-1.6
			C1502.6,4363,1500.4,4365.4,1500.4,4368.3z"/>
		<path class="st2" d="M1515.1,4360.6h3v15.4h-3V4360.6z"/>
		<path class="st2" d="M1519.8,4376l6.6-15.4h2.1l6.6,15.4h-3.1l-1.5-3.4h-6.2l-1.5,3.4H1519.8z M1525.5,4369.9h3.9l-2-4.6
			L1525.5,4369.9z"/>
		<path class="st2" d="M1548.5,4369v7h-3v-7l-5.3-8.4h3.4l3.4,5.4l3.4-5.4h3.4L1548.5,4369z"/>
	</g>
	<g class="st1">
		<path class="st2" d="M1407.1,4392.3c0,3,2.3,5.3,5.3,5.3c1.4,0,2.6-0.5,3.4-1.2v-3.3h-4v-2.6h6.9v6.8c-1.4,1.7-3.7,2.9-6.5,2.9
			c-4.8,0-8.2-3.5-8.2-7.9s3.3-7.9,8.1-7.9c2.3,0,4.2,0.9,5.6,2.2l-1.9,2c-0.9-0.9-2.2-1.6-3.7-1.6
			C1409.3,4387,1407.1,4389.4,1407.1,4392.3z"/>
		<path class="st2" d="M1429,4384.4c4.8,0,8,3.5,8,7.9s-3.3,7.9-8,7.9c-4.8,0-8-3.5-8-7.9S1424.3,4384.4,1429,4384.4z M1429,4397.6
			c2.9,0,5.1-2.4,5.1-5.3s-2.2-5.3-5.1-5.3c-2.9,0-5.1,2.4-5.1,5.3S1426.1,4397.6,1429,4397.6z"/>
		<path class="st2" d="M1444.7,4384.6c1.7,0,2.7,0.4,3.5,1.1c0.9,0.7,1.4,1.8,1.4,3.1c0,1-0.5,2-1,2.6c1.4,0.7,2.3,2.2,2.3,3.9
			c0,1.3-0.5,2.5-1.4,3.3c-0.9,0.9-2,1.4-4,1.4h-6v-15.4H1444.7z M1442.4,4390.5h2.1c0.9,0,1.3-0.2,1.7-0.6c0.3-0.3,0.4-0.7,0.4-1.1
			s-0.2-0.8-0.4-1.1c-0.3-0.3-0.7-0.5-1.7-0.5h-2.1V4390.5z M1445.4,4397.4c1,0,1.6-0.3,2-0.7c0.4-0.4,0.6-0.9,0.6-1.4
			c0-0.6-0.2-1-0.6-1.4c-0.4-0.4-0.9-0.7-2-0.7h-3v4.2H1445.4z"/>
		<path class="st2" d="M1456.2,4387.2v3.2h4.7v2.6h-4.7v4.3h6.5v2.6h-9.5v-15.4h9.2v2.6H1456.2z"/>
		<path class="st2" d="M1468.3,4393.2v6.8h-3v-15.4h5.6c1.6,0,2.6,0.4,3.4,1.1c0.8,0.8,1.4,1.9,1.4,3.1c0,1.2-0.5,2.4-1.4,3.1
			c-0.4,0.4-0.9,0.7-1.5,0.9l5.8,7.1h-3.7l-5.5-6.8H1468.3z M1470.8,4390.5c0.9,0,1.2-0.2,1.5-0.5c0.3-0.3,0.4-0.7,0.4-1.2
			c0-0.5-0.2-0.9-0.4-1.2c-0.3-0.3-0.6-0.5-1.5-0.5h-2.5v3.3H1470.8z"/>
		<path class="st2" d="M1480.1,4384.6h2.1l8.6,10v-10h3v15.4h-2.1l-8.6-10v10h-3V4384.6z"/>
		<path class="st2" d="M1495.5,4400l6.6-15.4h2.1l6.6,15.4h-3.1l-1.5-3.4h-6.2l-1.5,3.4H1495.5z M1501.1,4393.9h3.9l-2-4.6
			L1501.1,4393.9z"/>
		<path class="st2" d="M1512.5,4384.6h2.1l8.6,10v-10h3v15.4h-2.1l-8.6-10v10h-3V4384.6z"/>
		<path class="st2" d="M1528.8,4398.2l7.5-11h-6.8v-2.6h10.8v1.8l-7.5,11h7.9v2.6h-11.9V4398.2z"/>
		<path class="st2" d="M1542.2,4400l6.6-15.4h2.1l6.6,15.4h-3.1l-1.5-3.4h-6.2l-1.5,3.4H1542.2z M1547.9,4393.9h3.9l-2-4.6
			L1547.9,4393.9z"/>
	</g>
	<line id="Línea_514" class="st3" x1="1666.5" y1="4323.6" x2="183.1" y2="4323.6"/>
	<g id="Grupo_2160" transform="translate(1013.023 4227.523)">
		<rect id="Rectángulo_757" x="-58" y="30.5" class="st4" width="97" height="64"/>
		<rect id="Rectángulo_760" x="44" y="42.5" class="st5" width="97" height="52"/>
		<rect id="Rectángulo_763" x="146" y="33.5" class="st6" width="97" height="61"/>
		<g class="st1">
			<path class="st2" d="M-32.8,5c0.9-2.9,3.5-4.9,6.6-4.9c3.6,0,6.7,2.7,6.7,6.5c0,2.5-1.3,4.4-2.7,6l-4.5,5.2h7.3v3.6H-33v-2.4
				l7.4-8.4c1.6-1.8,2.1-3,2.1-4.1c0-1.5-1.1-2.8-2.7-2.8c-1.4,0-2.4,1-2.8,2.4L-32.8,5z"/>
			<path class="st2" d="M-9.9,16.8l-3.6,8.8h-2.8l2.2-8.8H-9.9z"/>
			<path class="st2" d="M6.3,0.5l-4,6.7h0.3c4,0,7.3,3,7.3,7.2c0,4.1-3.4,7.4-7.5,7.4c-3.9,0-7.7-2.8-7.7-7.2c0-2.1,1-3.9,2.1-5.8
				l4.9-8.3H6.3z M-1.3,14.6c0,2,1.7,3.6,3.7,3.6c2.1,0,3.5-1.7,3.5-3.7s-1.5-3.8-3.7-3.8c-0.8,0-1.5,0.2-2.2,0.5
				C-0.6,12.1-1.3,13.2-1.3,14.6z"/>
		</g>
		<g class="st1">
			<path class="st2" d="M72.3,18c0.9-2.9,3.5-4.9,6.6-4.9c3.6,0,6.7,2.7,6.7,6.5c0,2.5-1.3,4.4-2.7,6l-4.5,5.2h7.3v3.6H72.1v-2.4
				l7.4-8.4c1.6-1.8,2.1-3,2.1-4.1c0-1.5-1.1-2.8-2.7-2.8c-1.4,0-2.4,1-2.8,2.4L72.3,18z"/>
			<path class="st2" d="M95.2,29.8l-3.6,8.8h-2.8l2.2-8.8H95.2z"/>
			<path class="st2" d="M99,16.5l5.1-3h2.8v21h-4V18.2L99,20.3V16.5z"/>
		</g>
		<g class="st1">
			<path class="st2" d="M172.6,9c0.9-2.9,3.5-4.9,6.6-4.9c3.6,0,6.7,2.7,6.7,6.5c0,2.5-1.3,4.4-2.7,6l-4.5,5.2h7.3v3.6h-13.6v-2.4
				l7.4-8.4c1.6-1.8,2.1-3,2.1-4.1c0-1.5-1.1-2.8-2.7-2.8c-1.4,0-2.4,1-2.8,2.4L172.6,9z"/>
			<path class="st2" d="M195.5,20.8l-3.6,8.8h-2.8l2.2-8.8H195.5z"/>
			<path class="st2" d="M202.8,20.5c0.9,1,2.2,1.7,3.6,1.7c0.9,0,1.8-0.3,2.5-1c0.7-0.7,1.2-1.6,1.2-2.7c0-1.1-0.5-2.2-1.3-2.8
				c-0.7-0.6-1.6-0.8-2.5-0.8c-1,0-2.2,0.4-3.1,1.1l-2.5-0.4L202,4.5h11.1v3.6h-7.8l-0.3,3.3c0.4-0.1,1.1-0.1,1.6-0.1
				c1.6,0,3.4,0.4,4.9,1.6c1.7,1.3,2.7,3.4,2.7,5.7c0,4.1-3.5,7.3-7.7,7.3c-2.4,0-4.5-0.9-6.4-2.7L202.8,20.5z"/>
		</g>
	</g>
	<g id="Grupo_2162" transform="translate(267 4219.863)">
		<rect id="Rectángulo_755" x="-60" y="32.1" class="st4" width="97" height="70"/>
		<rect id="Rectángulo_758" x="43" y="57.1" class="st5" width="97" height="45"/>
		<rect id="Rectángulo_761" x="145" y="48.1" class="st6" width="97" height="54"/>
		<g class="st1">
			<path class="st2" d="M-32.9,4.7c0.9-2.9,3.5-4.9,6.6-4.9c3.6,0,6.7,2.7,6.7,6.5c0,2.5-1.3,4.4-2.7,6l-4.5,5.2h7.3v3.6h-13.6v-2.4
				l7.4-8.4c1.6-1.8,2.1-3,2.1-4.1c0-1.5-1.1-2.8-2.7-2.8c-1.4,0-2.4,1-2.9,2.4L-32.9,4.7z"/>
			<path class="st2" d="M-10,16.5l-3.6,8.8h-2.8l2.2-8.8H-10z"/>
			<path class="st2" d="M-5.2,14.6c0-2.5,1.3-4.2,3-5.3c-0.9-0.8-1.7-2-1.7-3.7c0-3.2,2.6-5.8,6.1-5.8c3.5,0,6.1,2.6,6.1,5.8
				c0,1.7-0.8,2.9-1.7,3.7c1.7,1.1,3,2.8,3,5.3c0,3.8-3.3,6.8-7.5,6.8C-1.9,21.4-5.2,18.4-5.2,14.6z M5.8,14.6
				c0-1.8-1.5-3.2-3.5-3.2s-3.4,1.4-3.4,3.2s1.5,3.2,3.4,3.2S5.8,16.4,5.8,14.6z M4.4,5.6c0-1.2-0.8-2.2-2.1-2.2
				c-1.3,0-2.1,1-2.1,2.2c0,1.2,0.8,2.2,2.1,2.2C3.6,7.8,4.4,6.8,4.4,5.6z"/>
		</g>
		<g class="st1">
			<path class="st2" d="M69.1,31.1l5.1-3h2.9v21h-4V32.8L69.1,35V31.1z"/>
			<path class="st2" d="M88.2,44.5l-3.6,8.8h-2.8l2.2-8.8H88.2z"/>
			<path class="st2" d="M93,42.6c0-2.5,1.3-4.2,3-5.3c-0.9-0.8-1.7-2-1.7-3.7c0-3.2,2.6-5.8,6.1-5.8c3.5,0,6.1,2.6,6.1,5.8
				c0,1.7-0.8,2.9-1.7,3.7c1.7,1.1,3,2.8,3,5.3c0,3.8-3.3,6.8-7.5,6.8C96.3,49.4,93,46.4,93,42.6z M103.9,42.6
				c0-1.8-1.5-3.2-3.5-3.2S97,40.8,97,42.6s1.5,3.2,3.4,3.2S103.9,44.4,103.9,42.6z M102.6,33.6c0-1.2-0.8-2.2-2.1-2.2
				c-1.3,0-2.1,1-2.1,2.2c0,1.2,0.8,2.2,2.1,2.2C101.8,35.8,102.6,34.8,102.6,33.6z"/>
		</g>
		<g class="st1">
			<path class="st2" d="M171.6,21.7c0.9-2.9,3.5-4.9,6.6-4.9c3.6,0,6.7,2.7,6.7,6.5c0,2.5-1.3,4.4-2.7,6l-4.5,5.2h7.3v3.6h-13.6
				v-2.4l7.4-8.4c1.6-1.8,2.1-3,2.1-4.1c0-1.5-1.1-2.8-2.7-2.8c-1.4,0-2.4,1-2.9,2.4L171.6,21.7z"/>
			<path class="st2" d="M194.5,33.5l-3.6,8.8h-2.8l2.2-8.8H194.5z"/>
			<path class="st2" d="M199.8,21.7c0.9-2.9,3.5-4.9,6.6-4.9c3.6,0,6.7,2.7,6.7,6.5c0,2.5-1.3,4.4-2.7,6l-4.5,5.2h7.3v3.6h-13.6
				v-2.4l7.4-8.4c1.6-1.8,2.1-3,2.1-4.1c0-1.5-1.1-2.8-2.7-2.8c-1.4,0-2.4,1-2.8,2.4L199.8,21.7z"/>
		</g>
	</g>
	<g id="Grupo_2161" transform="translate(640.16 4268.378)">
		<rect id="Rectángulo_756" x="-58.2" y="30.6" class="st4" width="97" height="23"/>
		<rect id="Rectángulo_759" x="43.8" y="41.6" class="st5" width="97" height="12"/>
		<rect id="Rectángulo_762" x="146.8" y="30.6" class="st6" width="97" height="23"/>
		<g class="st1">
			<path class="st2" d="M-16.4,3.6l5.1-3h2.9v21h-4V5.3l-3.9,2.2V3.6z"/>
		</g>
		<g class="st1">
			<path class="st2" d="M80.9,10.3c5.4,0,7.3,4.8,7.3,10.8s-2,10.8-7.3,10.8c-5.4,0-7.3-4.8-7.3-10.8S75.5,10.3,80.9,10.3z
				 M80.9,13.9c-2.4,0-3.3,3.2-3.3,7.2c0,4,0.9,7.2,3.3,7.2c2.4,0,3.3-3.2,3.3-7.2C84.2,17.2,83.3,13.9,80.9,13.9z"/>
			<path class="st2" d="M97.8,27l-3.6,8.8h-2.8l2.2-8.8H97.8z"/>
			<path class="st2" d="M114,10.6l-4,6.7h0.3c4,0,7.4,3,7.4,7.2c0,4.1-3.4,7.4-7.5,7.4c-3.9,0-7.7-2.8-7.7-7.2c0-2.1,1-3.9,2.1-5.8
				l4.9-8.3H114z M106.4,24.8c0,2,1.7,3.6,3.7,3.6c2.1,0,3.5-1.7,3.5-3.7s-1.5-3.8-3.7-3.8c-0.8,0-1.5,0.2-2.2,0.5
				C107.1,22.2,106.4,23.3,106.4,24.8z"/>
		</g>
		<g class="st1">
			<path class="st2" d="M187.6,2.6l5.1-3h2.9v21h-4V4.3l-3.9,2.2V2.6z"/>
		</g>
	</g>
	<g class="st1">
		<path class="st2" d="M366.5,4120l-4,6.7h0.3c4,0,7.4,3,7.4,7.2c0,4.1-3.4,7.4-7.5,7.4c-3.9,0-7.7-2.8-7.7-7.2c0-2.1,1-3.9,2.1-5.8
			l4.9-8.3H366.5z M358.9,4134.1c0,2,1.7,3.6,3.7,3.6c2.1,0,3.5-1.7,3.5-3.7s-1.5-3.8-3.7-3.8c-0.8,0-1.5,0.2-2.2,0.5
			C359.6,4131.6,358.9,4132.7,358.9,4134.1z"/>
	</g>
	<g class="st1">
		<path class="st2" d="M728.2,4218.6c0.9-2.9,3.5-4.9,6.6-4.9c3.6,0,6.7,2.7,6.7,6.5c0,2.5-1.3,4.4-2.7,6l-4.5,5.2h7.3v3.6H728v-2.4
			l7.4-8.4c1.6-1.8,2.1-3,2.1-4.1c0-1.5-1.1-2.8-2.7-2.8c-1.4,0-2.4,1-2.9,2.4L728.2,4218.6z"/>
	</g>
	<g class="st1">
		<path class="st2" d="M1107.2,4149v12.6h3.4v3.6h-3.4v4.8h-4v-4.8h-9.8v-2.4l10.9-13.8H1107.2z M1103.1,4161.6v-4.9l-3.9,4.9
			H1103.1z"/>
	</g>
	<g class="st1">
		<path class="st2" d="M1470.5,4037.5c0-2.5,1.3-4.2,3-5.3c-0.9-0.8-1.7-2-1.7-3.7c0-3.2,2.6-5.8,6.2-5.8c3.5,0,6.1,2.6,6.1,5.8
			c0,1.7-0.8,2.9-1.7,3.7c1.7,1.1,3,2.8,3,5.3c0,3.8-3.3,6.8-7.5,6.8C1473.8,4044.3,1470.5,4041.3,1470.5,4037.5z M1481.4,4037.5
			c0-1.8-1.5-3.2-3.4-3.2c-2,0-3.5,1.4-3.5,3.2s1.5,3.2,3.5,3.2C1480,4040.7,1481.4,4039.3,1481.4,4037.5z M1480.1,4028.5
			c0-1.2-0.8-2.2-2.1-2.2s-2.1,1-2.1,2.2c0,1.2,0.8,2.2,2.1,2.2S1480.1,4029.7,1480.1,4028.5z"/>
	</g>
	<line id="Línea_533" class="st7" x1="212.5" y1="4159.2" x2="511.5" y2="4159.2"/>
	<line id="Línea_516" class="st7" x1="588" y1="4253.2" x2="884.5" y2="4253.2"/>
	<line id="Línea_517" class="st7" x1="955" y1="4188.2" x2="1252.5" y2="4188.2"/>
	<line id="Línea_534" class="st7" x1="1324.5" y1="4062.2" x2="1632.5" y2="4062.2"/>
	<g id="Grupo_2087" transform="translate(0 -60)">
		<g id="Grupo_2064" transform="translate(150 71)">
			<line id="Línea_508" class="st7" x1="842.5" y1="4503.2" x2="904.5" y2="4503.2"/>
			<g id="Trazado_2768" transform="translate(348 4479)">
				<path class="st4" d="M-43,38.5c-4.9,0-9.6-1.9-13.1-5.4c-3.5-3.5-5.4-8.1-5.4-13.1s1.9-9.6,5.4-13.1s8.1-5.4,13.1-5.4
					s9.6,1.9,13.1,5.4c3.5,3.5,5.4,8.1,5.4,13.1s-1.9,9.6-5.4,13.1C-33.4,36.6-38.1,38.5-43,38.5z"/>
				<path class="st8" d="M-43,3c-4.5,0-8.8,1.8-12,5c-3.2,3.2-5,7.5-5,12s1.8,8.8,5,12c3.2,3.2,7.5,5,12,5s8.8-1.8,12-5
					c3.2-3.2,5-7.5,5-12s-1.8-8.8-5-12C-34.2,4.8-38.5,3-43,3 M-43,0c11,0,20,9,20,20s-9,20-20,20s-20-9-20-20S-54,0-43,0z"/>
			</g>
			<g id="Elipse_364" transform="translate(735 4481)">
				<circle class="st6" cx="-43" cy="20" r="20"/>
				<circle class="st9" cx="-43" cy="20" r="18.5"/>
			</g>
			<g class="st1">
				<path class="st10" d="M722.8,4496.7v10.3h-2v-14h1.4l8.4,10.3V4493h2v14h-1.4L722.8,4496.7z"/>
				<path class="st10" d="M736.8,4505.6c-0.6-0.7-0.9-1.6-0.9-3.2v-4.8h1.9v5.1c0,1,0.2,1.5,0.5,1.9c0.4,0.5,1.1,0.8,1.8,0.8
					c1.2,0,2.1-0.7,2.6-1.3v-6.5h1.9v9.4h-1.8v-0.9c-0.4,0.4-1.5,1.1-2.8,1.1C738.8,4507.2,737.5,4506.6,736.8,4505.6z"/>
				<path class="st10" d="M749.1,4502.7c0.1,1.6,1.4,2.8,3,2.8c1.4,0,2.2-0.7,2.7-1.3l1.2,1.2c-0.7,0.9-2,1.8-4,1.8
					c-2.7,0-4.9-2.1-4.9-4.9s1.9-4.9,4.6-4.9c2.6,0,4.5,2.1,4.5,4.9c0,0.1,0,0.2,0,0.4H749.1z M749.3,4501.1h5.1
					c-0.3-1.2-1.4-2-2.5-2C750.7,4499.1,749.6,4499.9,749.3,4501.1z"/>
				<path class="st10" d="M757.4,4497.6h2l2.8,6.4l2.8-6.4h2l-4.1,9.4h-1.3L757.4,4497.6z"/>
				<path class="st10" d="M775.5,4506.1c-0.8,0.7-1.8,1.1-2.9,1.1c-0.8,0-1.7-0.2-2.4-0.6c-1.4-0.8-2.4-2.4-2.4-4.3
					c0-1.9,1-3.5,2.4-4.3c0.6-0.4,1.4-0.6,2.3-0.6c1.1,0,2.1,0.3,2.9,1.1v-0.9h1.8v9.4h-1.8V4506.1z M775.5,4500.5
					c-0.6-0.8-1.5-1.3-2.7-1.3c-1.8,0-3,1.5-3,3.1c0,1.7,1.3,3.1,3.1,3.1c1,0,1.9-0.5,2.6-1.3V4500.5z"/>
				<path class="st10" d="M780.9,4504.5c0.9,0.7,1.8,1,2.8,1c0.8,0,1.6-0.4,1.6-1.2c0-1.1-1.6-1.1-2.9-1.6c-1.1-0.4-2.2-1.1-2.2-2.4
					c0-2,1.8-2.9,3.5-2.9c1.4,0,2.4,0.4,3.1,1l-1,1.4c-0.6-0.4-1.3-0.7-2-0.7c-0.9,0-1.7,0.4-1.7,1.2c0,0.6,0.7,0.9,1.7,1.1
					c1.5,0.4,3.4,1,3.4,3c0,1.8-1.7,2.9-3.5,2.9c-1.5,0-2.8-0.5-3.8-1.3L780.9,4504.5z"/>
			</g>
			<g class="st1">
				<path class="st10" d="M931.3,4504h-1.4l-4.1-6.4v9.4h-2v-14h1.4l5.4,8.5l5.4-8.5h1.4v14h-2v-9.4L931.3,4504z"/>
				<path class="st10" d="M947.8,4506.1c-0.8,0.7-1.8,1.1-2.9,1.1c-0.8,0-1.7-0.2-2.4-0.6c-1.4-0.8-2.4-2.4-2.4-4.3
					c0-1.9,1-3.5,2.4-4.3c0.6-0.4,1.4-0.6,2.3-0.6c1.1,0,2.1,0.3,2.9,1.1v-0.9h1.8v9.4h-1.8V4506.1z M947.7,4500.5
					c-0.6-0.8-1.5-1.3-2.7-1.3c-1.8,0-3,1.5-3,3.1c0,1.7,1.3,3.1,3.1,3.1c1,0,1.9-0.5,2.6-1.3V4500.5z M944.2,4496l1.3-3h2.1l-2.1,3
					H944.2z"/>
				<path class="st10" d="M956.4,4503.5l-2.5,3.5h-2.3l3.6-4.9l-3.2-4.5h2.2l2.2,3l2.2-3h2.2l-3.2,4.5l3.6,4.9h-2.3L956.4,4503.5z"
					/>
				<path class="st10" d="M965.1,4504.4c0.8,0,1.4,0.6,1.4,1.4s-0.6,1.4-1.4,1.4c-0.8,0-1.4-0.6-1.4-1.4S964.3,4504.4,965.1,4504.4z
					"/>
				<path class="st10" d="M976.3,4511.8h-1.9v-14.2h1.8v0.9c0.9-0.7,1.9-1.1,2.9-1.1c0.9,0,1.7,0.2,2.3,0.6c1.4,0.8,2.4,2.4,2.4,4.3
					c0,1.9-1,3.4-2.4,4.3c-0.6,0.4-1.5,0.6-2.4,0.6c-1.1,0-2.1-0.4-2.8-1V4511.8z M976.3,4504.1c0.6,0.9,1.6,1.3,2.6,1.3
					c1.8,0,3.1-1.4,3.1-3.1c0-1.6-1.2-3.1-3-3.1c-1.1,0-2.1,0.6-2.7,1.3V4504.1z"/>
				<path class="st10" d="M987.2,4505.6c-0.6-0.7-0.9-1.6-0.9-3.2v-4.8h1.9v5.1c0,1,0.2,1.5,0.5,1.9c0.4,0.5,1.1,0.8,1.8,0.8
					c1.2,0,2.1-0.7,2.6-1.3v-6.5h1.9v9.4h-1.8v-0.9c-0.4,0.4-1.5,1.1-2.8,1.1C989.2,4507.2,987.9,4506.6,987.2,4505.6z"/>
				<path class="st10" d="M1000.3,4498.5c0.5-0.5,1.5-1.1,2.8-1.1c1.4,0,2.6,0.6,3.4,1.7c0.6,0.8,0.9,1.7,0.9,3.3v4.6h-1.9v-4.7
					c0-1.2-0.2-1.8-0.6-2.2c-0.4-0.6-1.2-0.9-1.9-0.9c-1.2,0-2.1,0.7-2.7,1.3v6.5h-1.9v-9.4h1.8V4498.5z"/>
				<path class="st10" d="M1016.4,4507c-0.4,0.1-0.9,0.2-1.5,0.2c-1.2,0-2.1-0.4-2.7-1.1c-0.6-0.6-0.8-1.5-0.8-2.5v-4.3h-2.4v-1.7
					h2.4v-2.6h1.9v2.6h3v1.7h-3v4.4c0,0.5,0,0.9,0.3,1.2c0.3,0.3,0.8,0.5,1.3,0.5c0.3,0,0.8,0,1-0.1L1016.4,4507z"/>
				<path class="st10" d="M1025.6,4506.1c-0.8,0.7-1.8,1.1-2.9,1.1c-0.8,0-1.7-0.2-2.4-0.6c-1.4-0.8-2.4-2.4-2.4-4.3
					c0-1.9,1-3.5,2.4-4.3c0.6-0.4,1.4-0.6,2.3-0.6c1.1,0,2.1,0.3,2.9,1.1v-0.9h1.8v9.4h-1.8V4506.1z M1025.5,4500.5
					c-0.6-0.8-1.5-1.3-2.7-1.3c-1.8,0-3,1.5-3,3.1c0,1.7,1.3,3.1,3.1,3.1c1,0,1.9-0.5,2.6-1.3V4500.5z"/>
				<path class="st10" d="M1031.2,4497.6h1.9v10.2c0,1.3-0.2,2-0.6,2.6c-0.7,1-1.8,1.6-3.1,1.6c-0.4,0-0.9-0.1-1.1-0.1l0.4-1.7
					c0.1,0,0.4,0.1,0.7,0.1c0.5,0,1.1-0.2,1.4-0.7c0.3-0.3,0.4-0.8,0.4-1.7V4497.6z M1032.1,4493c0.7,0,1.3,0.6,1.3,1.3
					s-0.6,1.2-1.3,1.2s-1.2-0.5-1.2-1.2S1031.4,4493,1032.1,4493z"/>
				<path class="st10" d="M1037.5,4502.7c0.1,1.6,1.4,2.8,3,2.8c1.4,0,2.2-0.7,2.7-1.3l1.2,1.2c-0.7,0.9-2,1.8-4,1.8
					c-2.7,0-4.9-2.1-4.9-4.9s1.9-4.9,4.6-4.9c2.6,0,4.5,2.1,4.5,4.9c0,0.1,0,0.2,0,0.4H1037.5z M1037.7,4501.1h5.1
					c-0.3-1.2-1.4-2-2.5-2C1039.1,4499.1,1038,4499.9,1037.7,4501.1z"/>
				<path class="st10" d="M1054.7,4511.8h-1.9v-14.2h1.8v0.9c0.9-0.7,1.9-1.1,2.9-1.1c0.9,0,1.7,0.2,2.3,0.6
					c1.4,0.8,2.4,2.4,2.4,4.3c0,1.9-1,3.4-2.4,4.3c-0.6,0.4-1.5,0.6-2.4,0.6c-1.1,0-2.1-0.4-2.8-1V4511.8z M1054.7,4504.1
					c0.6,0.9,1.6,1.3,2.6,1.3c1.8,0,3.1-1.4,3.1-3.1c0-1.6-1.2-3.1-3-3.1c-1.1,0-2.1,0.6-2.7,1.3V4504.1z"/>
				<path class="st10" d="M1069,4497.4c2.8,0,4.9,2.1,4.9,4.9s-2.1,4.9-4.9,4.9c-2.8,0-4.9-2.1-4.9-4.9S1066.2,4497.4,1069,4497.4z
					 M1069,4505.4c1.7,0,3-1.4,3-3.1c0-1.7-1.2-3.1-3-3.1s-3,1.4-3,3.1C1066,4504,1067.2,4505.4,1069,4505.4z"/>
				<path class="st10" d="M1076.5,4504.5c0.9,0.7,1.8,1,2.8,1c0.8,0,1.6-0.4,1.6-1.2c0-1.1-1.6-1.1-2.9-1.6
					c-1.1-0.4-2.2-1.1-2.2-2.4c0-2,1.8-2.9,3.5-2.9c1.4,0,2.4,0.4,3.1,1l-1,1.4c-0.6-0.4-1.3-0.7-2-0.7c-0.9,0-1.7,0.4-1.7,1.2
					c0,0.6,0.7,0.9,1.7,1.1c1.5,0.4,3.4,1,3.4,3c0,1.8-1.7,2.9-3.5,2.9c-1.5,0-2.8-0.5-3.8-1.3L1076.5,4504.5z"/>
				<path class="st10" d="M1086.5,4493c0.7,0,1.3,0.6,1.3,1.3s-0.6,1.2-1.3,1.2c-0.7,0-1.2-0.5-1.2-1.2S1085.8,4493,1086.5,4493z
					 M1085.5,4497.6h1.9v9.4h-1.9V4497.6z"/>
				<path class="st10" d="M1092.7,4507h-1.8v-14.2h1.9v5.6c0.8-0.7,1.9-1,2.9-1c0.9,0,1.7,0.2,2.3,0.6c1.4,0.8,2.4,2.4,2.4,4.3
					c0,1.9-1,3.4-2.4,4.3c-0.6,0.4-1.5,0.6-2.4,0.6c-1.1,0-2.1-0.4-2.9-1.1V4507z M1092.7,4504.1c0.6,0.9,1.6,1.3,2.6,1.3
					c1.8,0,3.1-1.4,3.1-3.1c0-1.6-1.2-3.1-3-3.1c-1.1,0-2.1,0.6-2.7,1.3V4504.1z"/>
				<path class="st10" d="M1102.9,4492.8h1.9v14.2h-1.9V4492.8z"/>
				<path class="st10" d="M1109.3,4502.7c0.1,1.6,1.4,2.8,3,2.8c1.4,0,2.2-0.7,2.7-1.3l1.2,1.2c-0.7,0.9-2,1.8-4,1.8
					c-2.7,0-4.9-2.1-4.9-4.9s1.9-4.9,4.6-4.9c2.6,0,4.5,2.1,4.5,4.9c0,0.1,0,0.2,0,0.4H1109.3z M1109.4,4501.1h5.1
					c-0.3-1.2-1.4-2-2.5-2C1110.8,4499.1,1109.7,4499.9,1109.4,4501.1z"/>
			</g>
			<g class="st1">
				<path class="st10" d="M335.8,4500.8v6.2h-2v-14h5.3c1.4,0,2.2,0.3,2.9,0.9c0.8,0.7,1.4,1.8,1.4,3s-0.5,2.3-1.4,3
					c-0.7,0.6-1.6,0.9-2.9,0.9H335.8z M339,4498.9c1,0,1.5-0.2,1.8-0.6c0.3-0.4,0.6-0.8,0.6-1.4s-0.2-1-0.6-1.4
					c-0.4-0.4-0.9-0.6-1.8-0.6h-3.2v4H339z"/>
				<path class="st10" d="M346.6,4493c0.7,0,1.3,0.6,1.3,1.3s-0.6,1.2-1.3,1.2s-1.2-0.5-1.2-1.2S345.9,4493,346.6,4493z
					 M345.7,4497.6h1.9v9.4h-1.9V4497.6z"/>
				<path class="st10" d="M351,4492.8h1.9v14.2H351V4492.8z"/>
				<path class="st10" d="M363.2,4506.1c-0.8,0.7-1.8,1.1-2.9,1.1c-0.8,0-1.7-0.2-2.4-0.6c-1.4-0.8-2.4-2.4-2.4-4.3
					c0-1.9,1-3.5,2.4-4.3c0.6-0.4,1.4-0.6,2.3-0.6c1.1,0,2.1,0.3,2.9,1.1v-0.9h1.8v9.4h-1.8V4506.1z M363.1,4500.5
					c-0.6-0.8-1.5-1.3-2.7-1.3c-1.8,0-3,1.5-3,3.1c0,1.7,1.3,3.1,3.1,3.1c1,0,1.9-0.5,2.6-1.3V4500.5z"/>
				<path class="st10" d="M373.6,4499.3c-0.2-0.1-0.4-0.1-0.7-0.1c-1,0-2,0.7-2.5,1.6v6.2h-1.9v-9.4h1.8v1.1
					c0.5-0.6,1.4-1.3,2.8-1.3c0.2,0,0.5,0,0.7,0.1L373.6,4499.3z"/>
				<path class="st10" d="M376.7,4502.7c0.1,1.6,1.4,2.8,3,2.8c1.4,0,2.2-0.7,2.7-1.3l1.2,1.2c-0.7,0.9-2,1.8-4,1.8
					c-2.7,0-4.9-2.1-4.9-4.9s1.9-4.9,4.6-4.9c2.6,0,4.5,2.1,4.5,4.9c0,0.1,0,0.2,0,0.4H376.7z M376.9,4501.1h5.1
					c-0.3-1.2-1.4-2-2.5-2C378.3,4499.1,377.2,4499.9,376.9,4501.1z"/>
				<path class="st10" d="M386.7,4504.5c0.9,0.7,1.8,1,2.8,1c0.8,0,1.6-0.4,1.6-1.2c0-1.1-1.6-1.1-2.9-1.6c-1.1-0.4-2.2-1.1-2.2-2.4
					c0-2,1.8-2.9,3.5-2.9c1.4,0,2.4,0.4,3.1,1l-1,1.4c-0.6-0.4-1.3-0.7-2-0.7c-0.9,0-1.7,0.4-1.7,1.2c0,0.6,0.7,0.9,1.7,1.1
					c1.5,0.4,3.4,1,3.4,3c0,1.8-1.7,2.9-3.5,2.9c-1.5,0-2.8-0.5-3.8-1.3L386.7,4504.5z"/>
			</g>
			<g id="Elipse_365" transform="translate(510 4480)">
				<circle class="st5" cx="-43" cy="20" r="20"/>
				<circle class="st9" cx="-43" cy="20" r="18.5"/>
			</g>
			<g class="st1">
				<path class="st10" d="M502.8,4492.8c2,0,3.9,0.8,5.1,2.2l-1.3,1.3c-0.8-0.9-2.3-1.6-3.8-1.6c-2.9,0-5.1,2.3-5.1,5.3
					c0,3.2,2.3,5.3,5.3,5.3c1.9,0,3.2-1,4-2l1.4,1.3c-1.2,1.5-3.3,2.6-5.4,2.6c-4.2,0-7.3-3.1-7.3-7.2
					C495.7,4496,498.7,4492.8,502.8,4492.8z"/>
				<path class="st10" d="M511.5,4502.7c0.1,1.6,1.4,2.8,3,2.8c1.4,0,2.2-0.7,2.7-1.3l1.2,1.2c-0.7,0.9-2,1.8-4,1.8
					c-2.7,0-4.9-2.1-4.9-4.9s1.9-4.9,4.6-4.9c2.6,0,4.5,2.1,4.5,4.9c0,0.1,0,0.2,0,0.4H511.5z M511.7,4501.1h5.1
					c-0.3-1.2-1.4-2-2.5-2C513.1,4499.1,512,4499.9,511.7,4501.1z"/>
				<path class="st10" d="M523.2,4498.5c0.5-0.5,1.5-1.1,2.8-1.1c1.4,0,2.6,0.6,3.4,1.7c0.6,0.8,0.9,1.7,0.9,3.3v4.6h-1.9v-4.7
					c0-1.2-0.2-1.8-0.6-2.2c-0.4-0.6-1.2-0.9-1.9-0.9c-1.2,0-2.1,0.7-2.7,1.3v6.5h-1.9v-9.4h1.8V4498.5z"/>
				<path class="st10" d="M539.3,4507c-0.4,0.1-0.9,0.2-1.5,0.2c-1.2,0-2.1-0.4-2.7-1.1c-0.6-0.6-0.8-1.5-0.8-2.5v-4.3H532v-1.7h2.4
					v-2.6h1.9v2.6h3v1.7h-3v4.4c0,0.5,0,0.9,0.3,1.2c0.3,0.3,0.8,0.5,1.3,0.5c0.3,0,0.8,0,1-0.1L539.3,4507z"/>
				<path class="st10" d="M547.1,4499.3c-0.2-0.1-0.4-0.1-0.7-0.1c-1,0-2,0.7-2.5,1.6v6.2h-1.9v-9.4h1.8v1.1
					c0.5-0.6,1.4-1.3,2.8-1.3c0.2,0,0.5,0,0.7,0.1L547.1,4499.3z"/>
				<path class="st10" d="M556.1,4506.1c-0.8,0.7-1.8,1.1-2.9,1.1c-0.8,0-1.7-0.2-2.4-0.6c-1.4-0.8-2.4-2.4-2.4-4.3
					c0-1.9,1-3.5,2.4-4.3c0.6-0.4,1.4-0.6,2.3-0.6c1.1,0,2.1,0.3,2.9,1.1v-0.9h1.8v9.4h-1.8V4506.1z M556,4500.5
					c-0.6-0.8-1.5-1.3-2.7-1.3c-1.8,0-3,1.5-3,3.1c0,1.7,1.3,3.1,3.1,3.1c1,0,1.9-0.5,2.6-1.3V4500.5z"/>
				<path class="st10" d="M561.3,4492.8h1.9v14.2h-1.9V4492.8z"/>
				<path class="st10" d="M567.5,4493c0.7,0,1.3,0.6,1.3,1.3s-0.6,1.2-1.3,1.2s-1.2-0.5-1.2-1.2S566.8,4493,567.5,4493z
					 M566.6,4497.6h1.9v9.4h-1.9V4497.6z"/>
				<path class="st10" d="M576.2,4499.3h-4.9v-1.7h7.5v1.2l-5.2,6.5h5.6v1.7H571v-1.2L576.2,4499.3z"/>
				<path class="st10" d="M588.2,4506.1c-0.8,0.7-1.8,1.1-2.9,1.1c-0.8,0-1.7-0.2-2.4-0.6c-1.4-0.8-2.4-2.4-2.4-4.3
					c0-1.9,1-3.5,2.4-4.3c0.6-0.4,1.4-0.6,2.3-0.6c1.1,0,2.1,0.3,2.9,1.1v-0.9h1.8v9.4h-1.8V4506.1z M588.1,4500.5
					c-0.6-0.8-1.5-1.3-2.7-1.3c-1.8,0-3,1.5-3,3.1c0,1.7,1.3,3.1,3.1,3.1c1,0,1.9-0.5,2.6-1.3V4500.5z"/>
				<path class="st10" d="M600.3,4506.1c-0.8,0.7-1.8,1.1-2.9,1.1c-0.8,0-1.7-0.2-2.4-0.6c-1.4-0.8-2.4-2.4-2.4-4.3
					c0-1.9,1-3.5,2.4-4.3c0.6-0.4,1.4-0.6,2.3-0.6c1,0,2,0.3,2.9,1v-5.6h1.9v14.2h-1.8V4506.1z M600.2,4500.5
					c-0.6-0.8-1.5-1.3-2.7-1.3c-1.8,0-3,1.5-3,3.1c0,1.7,1.3,3.1,3.1,3.1c1,0,1.9-0.5,2.6-1.3V4500.5z"/>
				<path class="st10" d="M612.4,4506.1c-0.8,0.7-1.8,1.1-2.9,1.1c-0.8,0-1.7-0.2-2.4-0.6c-1.4-0.8-2.4-2.4-2.4-4.3
					c0-1.9,1-3.5,2.4-4.3c0.6-0.4,1.4-0.6,2.3-0.6c1.1,0,2.1,0.3,2.9,1.1v-0.9h1.8v9.4h-1.8V4506.1z M612.3,4500.5
					c-0.6-0.8-1.5-1.3-2.7-1.3c-1.8,0-3,1.5-3,3.1c0,1.7,1.3,3.1,3.1,3.1c1,0,1.9-0.5,2.6-1.3V4500.5z"/>
				<path class="st10" d="M617.7,4504.5c0.9,0.7,1.8,1,2.8,1c0.8,0,1.6-0.4,1.6-1.2c0-1.1-1.6-1.1-2.9-1.6c-1.1-0.4-2.2-1.1-2.2-2.4
					c0-2,1.8-2.9,3.5-2.9c1.4,0,2.4,0.4,3.1,1l-1,1.4c-0.6-0.4-1.3-0.7-2-0.7c-0.9,0-1.7,0.4-1.7,1.2c0,0.6,0.7,0.9,1.7,1.1
					c1.5,0.4,3.4,1,3.4,3c0,1.8-1.7,2.9-3.5,2.9c-1.5,0-2.8-0.5-3.8-1.3L617.7,4504.5z"/>
			</g>
		</g>
	</g>
	<g id="Grupo_2159" transform="translate(1386.886 4232.63)">
		<rect id="Rectángulo_765" x="-57.9" y="40.4" class="st4" width="97" height="49"/>
		<rect id="Rectángulo_767" x="44.1" y="34.4" class="st5" width="97" height="55"/>
		<g class="st1">
			<path class="st2" d="M-18.2,13.9c0.9-2.9,3.5-4.9,6.6-4.9c3.6,0,6.7,2.7,6.7,6.5c0,2.5-1.3,4.4-2.7,6l-4.5,5.2h7.3v3.6h-13.6V28
				l7.4-8.4c1.6-1.8,2.1-3,2.1-4.1c0-1.5-1.1-2.8-2.7-2.8c-1.4,0-2.4,1-2.9,2.4L-18.2,13.9z"/>
		</g>
		<g class="st1">
			<path class="st2" d="M69.3,4.9c0.9-2.9,3.5-4.9,6.6-4.9c3.6,0,6.7,2.7,6.7,6.5c0,2.5-1.3,4.4-2.7,6l-4.5,5.2h7.3v3.6H69.1V19
				l7.4-8.4c1.6-1.8,2.1-3,2.1-4.1c0-1.5-1.1-2.8-2.7-2.8c-1.4,0-2.4,1-2.8,2.4L69.3,4.9z"/>
			<path class="st2" d="M92.2,16.7l-3.6,8.8h-2.8l2.2-8.8H92.2z"/>
			<path class="st2" d="M99.8,16c0.9,1.2,2.3,2.1,3.9,2.1c2,0,3.9-1.6,3.9-3.8c0-2.2-1.8-3.8-4.1-3.8c-0.8,0-1.7,0.2-2.5,0.6V8.6
				l3.9-4.7h-7V0.4h12.8v2.4l-3.8,4.7c2.9,1.1,4.9,3.6,4.9,6.8c0,4.4-3.5,7.4-7.8,7.4c-2.6,0-5.1-1.2-7-3.3L99.8,16z"/>
		</g>
		<g class="st1">
			<path class="st2" d="M186.8,16.9c0.9-2.9,3.5-4.9,6.6-4.9c3.6,0,6.7,2.7,6.7,6.5c0,2.5-1.3,4.4-2.7,6l-4.5,5.2h7.3v3.6h-13.6V31
				l7.4-8.4c1.6-1.8,2.1-3,2.1-4.1c0-1.5-1.1-2.8-2.7-2.8c-1.4,0-2.4,1-2.9,2.4L186.8,16.9z"/>
		</g>
		<rect id="Rectángulo_766" x="146.1" y="40.4" class="st6" width="97" height="49"/>
	</g>
</g>
</svg>
