<?xml version="1.0" encoding="utf-8"?>
<!-- Generator: Adobe Illustrator 25.2.0, SVG Export Plug-In . SVG Version: 6.00 Build 0)  -->
<svg version="1.1" id="Capa_1" xmlns="http://www.w3.org/2000/svg" xmlns:xlink="http://www.w3.org/1999/xlink" x="0px" y="0px"
	 viewBox="0 0 1103.5 821" style="enable-background:new 0 0 1103.5 821;" xml:space="preserve">
<style type="text/css">
	.st0{fill:none;stroke:#989898;stroke-linecap:round;}
	.st1{enable-background:new    ;}
	.st2{fill:#333333;}
	.st3{fill:none;stroke:#333333;stroke-width:3;stroke-linecap:square;stroke-dasharray:6,8;}
	.st4{fill:#9372FC;}
	.st5{fill:#FFFFFF;}
	.st6{fill:#FF5154;}
	.st7{fill:none;stroke:#FFFFFF;stroke-width:3;}
	.st8{fill:#AAAAAA;}
	.st9{fill:#16BAC5;}
	.st10{fill:none;stroke:#717171;stroke-width:4;}
</style>
<g id="Grupo_2193" transform="translate(-276.874 -3721)">
	<line id="Línea_511" class="st0" x1="352.7" y1="4029.7" x2="1379.9" y2="4029.7"/>
	<line id="Línea_512" class="st0" x1="352.7" y1="3729.9" x2="1379.9" y2="3729.9"/>
	<g class="st1">
		<path class="st2" d="M285.5,3724l3.4-2h1.9v14h-2.7v-10.9l-2.6,1.4V3724z"/>
		<path class="st2" d="M298.9,3721.8c3.6,0,4.9,3.2,4.9,7.2c0,4-1.3,7.2-4.9,7.2c-3.6,0-4.9-3.2-4.9-7.2
			C294,3725,295.3,3721.8,298.9,3721.8z M298.9,3724.2c-1.6,0-2.2,2.2-2.2,4.8c0,2.6,0.6,4.8,2.2,4.8c1.6,0,2.2-2.2,2.2-4.8
			C301.1,3726.4,300.5,3724.2,298.9,3724.2z"/>
	</g>
	<g class="st1">
		<path class="st2" d="M296.2,4027.7c0.6,0.6,1.5,1.1,2.4,1.1c0.6,0,1.2-0.2,1.7-0.6c0.5-0.4,0.8-1.1,0.8-1.8c0-0.8-0.3-1.4-0.9-1.9
			c-0.4-0.4-1-0.6-1.7-0.6c-0.7,0-1.5,0.3-2.1,0.8l-1.7-0.2l0.9-7.4h7.4v2.4h-5.2l-0.2,2.2c0.3-0.1,0.7-0.1,1.1-0.1
			c1.1,0,2.3,0.3,3.3,1.1c1.1,0.9,1.8,2.3,1.8,3.8c0,2.8-2.3,4.8-5.2,4.8c-1.6,0-3-0.6-4.2-1.8L296.2,4027.7z"/>
	</g>
	<g class="st1">
		<path class="st2" d="M298.9,4308.8c3.6,0,4.9,3.2,4.9,7.2c0,4-1.3,7.2-4.9,7.2c-3.6,0-4.9-3.2-4.9-7.2
			C294,4312,295.3,4308.8,298.9,4308.8z M298.9,4311.2c-1.6,0-2.2,2.2-2.2,4.8c0,2.6,0.6,4.8,2.2,4.8c1.6,0,2.2-2.2,2.2-4.8
			C301.1,4313.4,300.5,4311.2,298.9,4311.2z"/>
	</g>
	<g id="Grupo_2064" transform="translate(150 21)">
		<line id="Línea_508" class="st3" x1="803.5" y1="4503.2" x2="865.5" y2="4503.2"/>
		<g id="Trazado_2768" transform="translate(348 4479)">
			<path class="st4" d="M-82,38.5c-4.9,0-9.6-1.9-13.1-5.4c-3.5-3.5-5.4-8.1-5.4-13.1s1.9-9.6,5.4-13.1c3.5-3.5,8.1-5.4,13.1-5.4
				s9.6,1.9,13.1,5.4c3.5,3.5,5.4,8.1,5.4,13.1s-1.9,9.6-5.4,13.1C-72.4,36.6-77.1,38.5-82,38.5z"/>
			<path class="st5" d="M-82,3c-4.5,0-8.8,1.8-12,5c-3.2,3.2-5,7.5-5,12s1.8,8.8,5,12c3.2,3.2,7.5,5,12,5s8.8-1.8,12-5
				c3.2-3.2,5-7.5,5-12s-1.8-8.8-5-12C-73.2,4.8-77.5,3-82,3 M-82,0c11,0,20,9,20,20s-9,20-20,20s-20-9-20-20S-93,0-82,0z"/>
		</g>
		<g id="Elipse_364" transform="translate(735 4481)">
			<circle class="st6" cx="-82" cy="20" r="20"/>
			<circle class="st7" cx="-82" cy="20" r="18.5"/>
		</g>
		<g class="st1">
			<path class="st8" d="M683.8,4496.7v10.3h-2v-14h1.4l8.4,10.3V4493h2v14h-1.4L683.8,4496.7z"/>
			<path class="st8" d="M697.8,4505.6c-0.6-0.7-0.9-1.6-0.9-3.2v-4.8h1.9v5.1c0,1,0.2,1.5,0.5,1.9c0.4,0.5,1.1,0.8,1.8,0.8
				c1.2,0,2.1-0.7,2.6-1.3v-6.5h1.9v9.4h-1.8v-0.9c-0.4,0.4-1.5,1.1-2.8,1.1C699.8,4507.2,698.5,4506.6,697.8,4505.6z"/>
			<path class="st8" d="M710.1,4502.7c0.1,1.6,1.4,2.8,3,2.8c1.4,0,2.2-0.7,2.7-1.3l1.2,1.2c-0.7,0.9-2,1.8-4,1.8
				c-2.7,0-4.9-2.1-4.9-4.9s1.9-4.9,4.6-4.9c2.6,0,4.5,2.1,4.5,4.9c0,0.1,0,0.2,0,0.4H710.1z M710.3,4501.1h5.1
				c-0.3-1.2-1.4-2-2.5-2C711.7,4499.1,710.6,4499.9,710.3,4501.1z"/>
			<path class="st8" d="M718.4,4497.6h2l2.8,6.4l2.8-6.4h2l-4.1,9.4h-1.3L718.4,4497.6z"/>
			<path class="st8" d="M736.5,4506.1c-0.8,0.7-1.8,1.1-2.9,1.1c-0.8,0-1.7-0.2-2.4-0.6c-1.4-0.8-2.4-2.4-2.4-4.3
				c0-1.9,1-3.5,2.4-4.3c0.6-0.4,1.4-0.6,2.3-0.6c1.1,0,2.1,0.3,2.9,1.1v-0.9h1.8v9.4h-1.8V4506.1z M736.5,4500.5
				c-0.6-0.8-1.5-1.3-2.7-1.3c-1.8,0-3,1.5-3,3.1c0,1.7,1.3,3.1,3.1,3.1c1,0,1.9-0.5,2.6-1.3V4500.5z"/>
			<path class="st8" d="M741.9,4504.5c0.9,0.7,1.8,1,2.8,1c0.8,0,1.6-0.4,1.6-1.2c0-1.1-1.6-1.1-2.9-1.6c-1.1-0.4-2.2-1.1-2.2-2.4
				c0-2,1.8-2.9,3.5-2.9c1.4,0,2.4,0.4,3.1,1l-1,1.4c-0.6-0.4-1.3-0.7-2-0.7c-0.9,0-1.7,0.4-1.7,1.2c0,0.6,0.7,0.9,1.7,1.1
				c1.5,0.4,3.4,1,3.4,3c0,1.8-1.7,2.9-3.5,2.9c-1.5,0-2.8-0.5-3.8-1.3L741.9,4504.5z"/>
		</g>
		<g class="st1">
			<path class="st8" d="M892.3,4504h-1.4l-4.1-6.4v9.4h-2v-14h1.4l5.4,8.5l5.4-8.5h1.4v14h-2v-9.4L892.3,4504z"/>
			<path class="st8" d="M908.8,4506.1c-0.8,0.7-1.8,1.1-2.9,1.1c-0.8,0-1.7-0.2-2.4-0.6c-1.4-0.8-2.4-2.4-2.4-4.3
				c0-1.9,1-3.5,2.4-4.3c0.6-0.4,1.4-0.6,2.3-0.6c1.1,0,2.1,0.3,2.9,1.1v-0.9h1.8v9.4h-1.8V4506.1z M908.7,4500.5
				c-0.6-0.8-1.5-1.3-2.7-1.3c-1.8,0-3,1.5-3,3.1c0,1.7,1.3,3.1,3.1,3.1c1,0,1.9-0.5,2.6-1.3V4500.5z M905.2,4496l1.3-3h2.1l-2.1,3
				H905.2z"/>
			<path class="st8" d="M917.4,4503.5l-2.5,3.5h-2.3l3.6-4.9l-3.2-4.5h2.2l2.2,3l2.2-3h2.2l-3.2,4.5l3.6,4.9h-2.3L917.4,4503.5z"/>
			<path class="st8" d="M926.1,4504.4c0.8,0,1.4,0.6,1.4,1.4s-0.6,1.4-1.4,1.4c-0.8,0-1.4-0.6-1.4-1.4S925.3,4504.4,926.1,4504.4z"
				/>
			<path class="st8" d="M937.3,4511.8h-1.9v-14.2h1.8v0.9c0.9-0.7,1.9-1.1,2.9-1.1c0.9,0,1.7,0.2,2.3,0.6c1.4,0.8,2.4,2.4,2.4,4.3
				c0,1.9-1,3.4-2.4,4.3c-0.6,0.4-1.5,0.6-2.4,0.6c-1.1,0-2.1-0.4-2.8-1V4511.8z M937.3,4504.1c0.6,0.9,1.6,1.3,2.6,1.3
				c1.8,0,3.1-1.4,3.1-3.1c0-1.6-1.2-3.1-3-3.1c-1.1,0-2.1,0.6-2.7,1.3V4504.1z"/>
			<path class="st8" d="M948.2,4505.6c-0.6-0.7-0.9-1.6-0.9-3.2v-4.8h1.9v5.1c0,1,0.2,1.5,0.5,1.9c0.4,0.5,1.1,0.8,1.8,0.8
				c1.2,0,2.1-0.7,2.6-1.3v-6.5h1.9v9.4h-1.8v-0.9c-0.4,0.4-1.5,1.1-2.8,1.1C950.2,4507.2,948.9,4506.6,948.2,4505.6z"/>
			<path class="st8" d="M961.3,4498.5c0.5-0.5,1.5-1.1,2.8-1.1c1.4,0,2.6,0.6,3.4,1.7c0.6,0.8,0.9,1.7,0.9,3.3v4.6h-1.9v-4.7
				c0-1.2-0.2-1.8-0.6-2.2c-0.4-0.6-1.2-0.9-1.9-0.9c-1.2,0-2.1,0.7-2.7,1.3v6.5h-1.9v-9.4h1.8V4498.5z"/>
			<path class="st8" d="M977.4,4507c-0.4,0.1-0.9,0.2-1.5,0.2c-1.2,0-2.1-0.4-2.7-1.1c-0.6-0.6-0.8-1.5-0.8-2.5v-4.3h-2.4v-1.7h2.4
				v-2.6h1.9v2.6h3v1.7h-3v4.4c0,0.5,0,0.9,0.3,1.2c0.3,0.3,0.8,0.5,1.3,0.5c0.3,0,0.8,0,1-0.1L977.4,4507z"/>
			<path class="st8" d="M986.6,4506.1c-0.8,0.7-1.8,1.1-2.9,1.1c-0.8,0-1.7-0.2-2.4-0.6c-1.4-0.8-2.4-2.4-2.4-4.3
				c0-1.9,1-3.5,2.4-4.3c0.6-0.4,1.4-0.6,2.3-0.6c1.1,0,2.1,0.3,2.9,1.1v-0.9h1.8v9.4h-1.8V4506.1z M986.5,4500.5
				c-0.6-0.8-1.5-1.3-2.7-1.3c-1.8,0-3,1.5-3,3.1c0,1.7,1.3,3.1,3.1,3.1c1,0,1.9-0.5,2.6-1.3V4500.5z"/>
			<path class="st8" d="M992.2,4497.6h1.9v10.2c0,1.3-0.2,2-0.6,2.6c-0.7,1-1.8,1.6-3.1,1.6c-0.4,0-0.9-0.1-1.1-0.1l0.4-1.7
				c0.1,0,0.4,0.1,0.7,0.1c0.5,0,1.1-0.2,1.4-0.7c0.3-0.3,0.4-0.8,0.4-1.7V4497.6z M993.1,4493c0.7,0,1.3,0.6,1.3,1.3
				s-0.6,1.2-1.3,1.2s-1.2-0.5-1.2-1.2S992.4,4493,993.1,4493z"/>
			<path class="st8" d="M998.5,4502.7c0.1,1.6,1.4,2.8,3,2.8c1.4,0,2.2-0.7,2.7-1.3l1.2,1.2c-0.7,0.9-2,1.8-4,1.8
				c-2.7,0-4.9-2.1-4.9-4.9s1.9-4.9,4.6-4.9c2.6,0,4.5,2.1,4.5,4.9c0,0.1,0,0.2,0,0.4H998.5z M998.7,4501.1h5.1
				c-0.3-1.2-1.4-2-2.5-2C1000.1,4499.1,999,4499.9,998.7,4501.1z"/>
			<path class="st8" d="M1015.7,4511.8h-1.9v-14.2h1.8v0.9c0.9-0.7,1.9-1.1,2.9-1.1c0.9,0,1.7,0.2,2.3,0.6c1.4,0.8,2.4,2.4,2.4,4.3
				c0,1.9-1,3.4-2.4,4.3c-0.6,0.4-1.5,0.6-2.4,0.6c-1.1,0-2.1-0.4-2.8-1V4511.8z M1015.7,4504.1c0.6,0.9,1.6,1.3,2.6,1.3
				c1.8,0,3.1-1.4,3.1-3.1c0-1.6-1.2-3.1-3-3.1c-1.1,0-2.1,0.6-2.7,1.3V4504.1z"/>
			<path class="st8" d="M1030,4497.4c2.8,0,4.9,2.1,4.9,4.9s-2.1,4.9-4.9,4.9c-2.8,0-4.9-2.1-4.9-4.9S1027.2,4497.4,1030,4497.4z
				 M1030,4505.4c1.7,0,3-1.4,3-3.1c0-1.7-1.2-3.1-3-3.1s-3,1.4-3,3.1C1027,4504,1028.2,4505.4,1030,4505.4z"/>
			<path class="st8" d="M1037.5,4504.5c0.9,0.7,1.8,1,2.8,1c0.8,0,1.6-0.4,1.6-1.2c0-1.1-1.6-1.1-2.9-1.6c-1.1-0.4-2.2-1.1-2.2-2.4
				c0-2,1.8-2.9,3.5-2.9c1.4,0,2.4,0.4,3.1,1l-1,1.4c-0.6-0.4-1.3-0.7-2-0.7c-0.9,0-1.7,0.4-1.7,1.2c0,0.6,0.7,0.9,1.7,1.1
				c1.5,0.4,3.4,1,3.4,3c0,1.8-1.7,2.9-3.5,2.9c-1.5,0-2.8-0.5-3.8-1.3L1037.5,4504.5z"/>
			<path class="st8" d="M1047.5,4493c0.7,0,1.3,0.6,1.3,1.3s-0.6,1.2-1.3,1.2c-0.7,0-1.2-0.5-1.2-1.2S1046.8,4493,1047.5,4493z
				 M1046.5,4497.6h1.9v9.4h-1.9V4497.6z"/>
			<path class="st8" d="M1053.7,4507h-1.8v-14.2h1.9v5.6c0.8-0.7,1.9-1,2.9-1c0.9,0,1.7,0.2,2.3,0.6c1.4,0.8,2.4,2.4,2.4,4.3
				c0,1.9-1,3.4-2.4,4.3c-0.6,0.4-1.5,0.6-2.4,0.6c-1.1,0-2.1-0.4-2.9-1.1V4507z M1053.7,4504.1c0.6,0.9,1.6,1.3,2.6,1.3
				c1.8,0,3.1-1.4,3.1-3.1c0-1.6-1.2-3.1-3-3.1c-1.1,0-2.1,0.6-2.7,1.3V4504.1z"/>
			<path class="st8" d="M1063.9,4492.8h1.9v14.2h-1.9V4492.8z"/>
			<path class="st8" d="M1070.3,4502.7c0.1,1.6,1.4,2.8,3,2.8c1.4,0,2.2-0.7,2.7-1.3l1.2,1.2c-0.7,0.9-2,1.8-4,1.8
				c-2.7,0-4.9-2.1-4.9-4.9s1.9-4.9,4.6-4.9c2.6,0,4.5,2.1,4.5,4.9c0,0.1,0,0.2,0,0.4H1070.3z M1070.4,4501.1h5.1
				c-0.3-1.2-1.4-2-2.5-2C1071.8,4499.1,1070.7,4499.9,1070.4,4501.1z"/>
		</g>
		<g class="st1">
			<path class="st8" d="M296.8,4500.8v6.2h-2v-14h5.3c1.4,0,2.2,0.3,2.9,0.9c0.8,0.7,1.4,1.8,1.4,3s-0.5,2.3-1.4,3
				c-0.7,0.6-1.6,0.9-2.9,0.9H296.8z M300,4498.9c1,0,1.5-0.2,1.8-0.6c0.3-0.4,0.6-0.8,0.6-1.4s-0.2-1-0.6-1.4
				c-0.4-0.4-0.9-0.6-1.8-0.6h-3.2v4H300z"/>
			<path class="st8" d="M307.6,4493c0.7,0,1.3,0.6,1.3,1.3s-0.6,1.2-1.3,1.2s-1.2-0.5-1.2-1.2S306.9,4493,307.6,4493z M306.7,4497.6
				h1.9v9.4h-1.9V4497.6z"/>
			<path class="st8" d="M312,4492.8h1.9v14.2H312V4492.8z"/>
			<path class="st8" d="M324.2,4506.1c-0.8,0.7-1.8,1.1-2.9,1.1c-0.8,0-1.7-0.2-2.4-0.6c-1.4-0.8-2.4-2.4-2.4-4.3
				c0-1.9,1-3.5,2.4-4.3c0.6-0.4,1.4-0.6,2.3-0.6c1.1,0,2.1,0.3,2.9,1.1v-0.9h1.8v9.4h-1.8V4506.1z M324.1,4500.5
				c-0.6-0.8-1.5-1.3-2.7-1.3c-1.8,0-3,1.5-3,3.1c0,1.7,1.3,3.1,3.1,3.1c1,0,1.9-0.5,2.6-1.3V4500.5z"/>
			<path class="st8" d="M334.6,4499.3c-0.2-0.1-0.4-0.1-0.7-0.1c-1,0-2,0.7-2.5,1.6v6.2h-1.9v-9.4h1.8v1.1c0.5-0.6,1.4-1.3,2.8-1.3
				c0.2,0,0.5,0,0.7,0.1L334.6,4499.3z"/>
			<path class="st8" d="M337.7,4502.7c0.1,1.6,1.4,2.8,3,2.8c1.4,0,2.2-0.7,2.7-1.3l1.2,1.2c-0.7,0.9-2,1.8-4,1.8
				c-2.7,0-4.9-2.1-4.9-4.9s1.9-4.9,4.6-4.9c2.6,0,4.5,2.1,4.5,4.9c0,0.1,0,0.2,0,0.4H337.7z M337.9,4501.1h5.1
				c-0.3-1.2-1.4-2-2.5-2C339.3,4499.1,338.2,4499.9,337.9,4501.1z"/>
			<path class="st8" d="M347.7,4504.5c0.9,0.7,1.8,1,2.8,1c0.8,0,1.6-0.4,1.6-1.2c0-1.1-1.6-1.1-2.9-1.6c-1.1-0.4-2.2-1.1-2.2-2.4
				c0-2,1.8-2.9,3.5-2.9c1.4,0,2.4,0.4,3.1,1l-1,1.4c-0.6-0.4-1.3-0.7-2-0.7c-0.9,0-1.7,0.4-1.7,1.2c0,0.6,0.7,0.9,1.7,1.1
				c1.5,0.4,3.4,1,3.4,3c0,1.8-1.7,2.9-3.5,2.9c-1.5,0-2.8-0.5-3.8-1.3L347.7,4504.5z"/>
		</g>
		<g id="Elipse_365" transform="translate(510 4480)">
			<circle class="st9" cx="-82" cy="20" r="20"/>
			<circle class="st7" cx="-82" cy="20" r="18.5"/>
		</g>
		<g class="st1">
			<path class="st8" d="M463.8,4492.8c2,0,3.9,0.8,5.1,2.2l-1.3,1.3c-0.8-0.9-2.3-1.6-3.8-1.6c-2.9,0-5.1,2.3-5.1,5.3
				c0,3.2,2.3,5.3,5.3,5.3c1.9,0,3.2-1,4-2l1.4,1.3c-1.2,1.5-3.3,2.6-5.4,2.6c-4.2,0-7.3-3.1-7.3-7.2
				C456.7,4496,459.7,4492.8,463.8,4492.8z"/>
			<path class="st8" d="M472.5,4502.7c0.1,1.6,1.4,2.8,3,2.8c1.4,0,2.2-0.7,2.7-1.3l1.2,1.2c-0.7,0.9-2,1.8-4,1.8
				c-2.7,0-4.9-2.1-4.9-4.9s1.9-4.9,4.6-4.9c2.6,0,4.5,2.1,4.5,4.9c0,0.1,0,0.2,0,0.4H472.5z M472.7,4501.1h5.1
				c-0.3-1.2-1.4-2-2.5-2C474.1,4499.1,473,4499.9,472.7,4501.1z"/>
			<path class="st8" d="M484.2,4498.5c0.5-0.5,1.5-1.1,2.8-1.1c1.4,0,2.6,0.6,3.4,1.7c0.6,0.8,0.9,1.7,0.9,3.3v4.6h-1.9v-4.7
				c0-1.2-0.2-1.8-0.6-2.2c-0.4-0.6-1.2-0.9-1.9-0.9c-1.2,0-2.1,0.7-2.7,1.3v6.5h-1.9v-9.4h1.8V4498.5z"/>
			<path class="st8" d="M500.3,4507c-0.4,0.1-0.9,0.2-1.5,0.2c-1.2,0-2.1-0.4-2.7-1.1c-0.6-0.6-0.8-1.5-0.8-2.5v-4.3H493v-1.7h2.4
				v-2.6h1.9v2.6h3v1.7h-3v4.4c0,0.5,0,0.9,0.3,1.2c0.3,0.3,0.8,0.5,1.3,0.5c0.3,0,0.8,0,1-0.1L500.3,4507z"/>
			<path class="st8" d="M508.1,4499.3c-0.2-0.1-0.4-0.1-0.7-0.1c-1,0-2,0.7-2.5,1.6v6.2h-1.9v-9.4h1.8v1.1c0.5-0.6,1.4-1.3,2.8-1.3
				c0.2,0,0.5,0,0.7,0.1L508.1,4499.3z"/>
			<path class="st8" d="M517.1,4506.1c-0.8,0.7-1.8,1.1-2.9,1.1c-0.8,0-1.7-0.2-2.4-0.6c-1.4-0.8-2.4-2.4-2.4-4.3
				c0-1.9,1-3.5,2.4-4.3c0.6-0.4,1.4-0.6,2.3-0.6c1.1,0,2.1,0.3,2.9,1.1v-0.9h1.8v9.4h-1.8V4506.1z M517,4500.5
				c-0.6-0.8-1.5-1.3-2.7-1.3c-1.8,0-3,1.5-3,3.1c0,1.7,1.3,3.1,3.1,3.1c1,0,1.9-0.5,2.6-1.3V4500.5z"/>
			<path class="st8" d="M522.3,4492.8h1.9v14.2h-1.9V4492.8z"/>
			<path class="st8" d="M528.5,4493c0.7,0,1.3,0.6,1.3,1.3s-0.6,1.2-1.3,1.2s-1.2-0.5-1.2-1.2S527.8,4493,528.5,4493z M527.6,4497.6
				h1.9v9.4h-1.9V4497.6z"/>
			<path class="st8" d="M537.2,4499.3h-4.9v-1.7h7.5v1.2l-5.2,6.5h5.6v1.7H532v-1.2L537.2,4499.3z"/>
			<path class="st8" d="M549.2,4506.1c-0.8,0.7-1.8,1.1-2.9,1.1c-0.8,0-1.7-0.2-2.4-0.6c-1.4-0.8-2.4-2.4-2.4-4.3
				c0-1.9,1-3.5,2.4-4.3c0.6-0.4,1.4-0.6,2.3-0.6c1.1,0,2.1,0.3,2.9,1.1v-0.9h1.8v9.4h-1.8V4506.1z M549.1,4500.5
				c-0.6-0.8-1.5-1.3-2.7-1.3c-1.8,0-3,1.5-3,3.1c0,1.7,1.3,3.1,3.1,3.1c1,0,1.9-0.5,2.6-1.3V4500.5z"/>
			<path class="st8" d="M561.3,4506.1c-0.8,0.7-1.8,1.1-2.9,1.1c-0.8,0-1.7-0.2-2.4-0.6c-1.4-0.8-2.4-2.4-2.4-4.3
				c0-1.9,1-3.5,2.4-4.3c0.6-0.4,1.4-0.6,2.3-0.6c1,0,2,0.3,2.9,1v-5.6h1.9v14.2h-1.8V4506.1z M561.2,4500.5
				c-0.6-0.8-1.5-1.3-2.7-1.3c-1.8,0-3,1.5-3,3.1c0,1.7,1.3,3.1,3.1,3.1c1,0,1.9-0.5,2.6-1.3V4500.5z"/>
			<path class="st8" d="M573.4,4506.1c-0.8,0.7-1.8,1.1-2.9,1.1c-0.8,0-1.7-0.2-2.4-0.6c-1.4-0.8-2.4-2.4-2.4-4.3
				c0-1.9,1-3.5,2.4-4.3c0.6-0.4,1.4-0.6,2.3-0.6c1.1,0,2.1,0.3,2.9,1.1v-0.9h1.8v9.4h-1.8V4506.1z M573.3,4500.5
				c-0.6-0.8-1.5-1.3-2.7-1.3c-1.8,0-3,1.5-3,3.1c0,1.7,1.3,3.1,3.1,3.1c1,0,1.9-0.5,2.6-1.3V4500.5z"/>
			<path class="st8" d="M578.7,4504.5c0.9,0.7,1.8,1,2.8,1c0.8,0,1.6-0.4,1.6-1.2c0-1.1-1.6-1.1-2.9-1.6c-1.1-0.4-2.2-1.1-2.2-2.4
				c0-2,1.8-2.9,3.5-2.9c1.4,0,2.4,0.4,3.1,1l-1,1.4c-0.6-0.4-1.3-0.7-2-0.7c-0.9,0-1.7,0.4-1.7,1.2c0,0.6,0.7,0.9,1.7,1.1
				c1.5,0.4,3.4,1,3.4,3c0,1.8-1.7,2.9-3.5,2.9c-1.5,0-2.8-0.5-3.8-1.3L578.7,4504.5z"/>
		</g>
	</g>
	<g id="Grupo_2179" transform="translate(-7923 -7526)">
		<g class="st1">
			<path class="st2" d="M8674.7,11936.7v6.8h-3v-15.4h5.6c1.6,0,2.6,0.4,3.4,1.1c0.8,0.8,1.4,1.9,1.4,3.1c0,1.2-0.5,2.4-1.4,3.1
				c-0.4,0.4-0.9,0.7-1.5,0.9l5.8,7.1h-3.7l-5.5-6.8H8674.7z M8677.1,11934c0.9,0,1.2-0.2,1.5-0.5c0.3-0.3,0.4-0.7,0.4-1.2
				c0-0.5-0.2-0.9-0.4-1.2c-0.3-0.3-0.6-0.5-1.5-0.5h-2.5v3.3H8677.1z"/>
			<path class="st2" d="M8689.4,11930.7v3.2h4.7v2.6h-4.7v4.3h6.5v2.6h-9.5v-15.4h9.2v2.6H8689.4z"/>
			<path class="st2" d="M8700.1,11935.8c0,3,2.3,5.3,5.3,5.3c2,0,3.5-1,4.4-2.1l2,1.8c-1.4,1.7-3.7,2.9-6.5,2.9
				c-4.8,0-8.2-3.5-8.2-7.9s3.3-7.9,8.1-7.9c2.3,0,4.2,0.9,5.6,2.2l-1.9,2c-0.9-0.9-2.2-1.6-3.7-1.6
				C8702.3,11930.5,8700.1,11932.9,8700.1,11935.8z"/>
			<path class="st2" d="M8715.6,11942.1c-1.3-1.1-2-2.8-2-5.1v-8.9h3v9.1c0,1.4,0.4,2.3,1,2.9c0.7,0.6,1.6,1,2.6,1s2-0.4,2.6-1
				c0.6-0.6,1-1.5,1-2.9v-9.1h3v8.9c0,2.4-0.7,4-2,5.1c-1.2,1.1-2.9,1.6-4.6,1.6S8716.8,11943.2,8715.6,11942.1z"/>
			<path class="st2" d="M8733.2,11936.7v6.8h-3v-15.4h5.6c1.6,0,2.6,0.4,3.4,1.1c0.8,0.8,1.4,1.9,1.4,3.1c0,1.2-0.5,2.4-1.4,3.1
				c-0.4,0.4-0.9,0.7-1.5,0.9l5.8,7.1h-3.7l-5.5-6.8H8733.2z M8735.6,11934c0.9,0,1.2-0.2,1.5-0.5c0.3-0.3,0.4-0.7,0.4-1.2
				c0-0.5-0.2-0.9-0.4-1.2c-0.3-0.3-0.6-0.5-1.5-0.5h-2.5v3.3H8735.6z"/>
			<path class="st2" d="M8745.7,11939.4c0.9,1,2.2,1.7,3.6,1.7c1.3,0,2.2-0.8,2.2-1.9c0-2-2.9-2.2-4.9-3.4c-1.2-0.7-2.2-1.8-2.2-3.5
				c0-2.8,2.5-4.3,5.1-4.3c1.6,0,3,0.4,4.5,1.5l-1.5,2.2c-0.6-0.6-1.7-1-2.7-1c-1.1,0-2.4,0.5-2.4,1.7c0,2.5,7.1,1.7,7.1,6.9
				c0,2.7-2.4,4.6-5.2,4.6c-2.1,0-4-0.9-5.6-2.3L8745.7,11939.4z"/>
			<path class="st2" d="M8764.2,11927.9c4.8,0,8,3.5,8,7.9s-3.3,7.9-8,7.9s-8-3.5-8-7.9S8759.4,11927.9,8764.2,11927.9z
				 M8764.2,11941.1c2.9,0,5.1-2.4,5.1-5.3s-2.2-5.3-5.1-5.3s-5.1,2.4-5.1,5.3S8761.3,11941.1,8764.2,11941.1z"/>
			<path class="st2" d="M8775,11939.4c0.9,1,2.2,1.7,3.6,1.7c1.3,0,2.2-0.8,2.2-1.9c0-2-2.9-2.2-4.9-3.4c-1.2-0.7-2.2-1.8-2.2-3.5
				c0-2.8,2.5-4.3,5.1-4.3c1.6,0,3,0.4,4.5,1.5l-1.5,2.2c-0.6-0.6-1.7-1-2.7-1c-1.1,0-2.4,0.5-2.4,1.7c0,2.5,7.1,1.7,7.1,6.9
				c0,2.7-2.4,4.6-5.2,4.6c-2.1,0-4-0.9-5.6-2.3L8775,11939.4z"/>
			<path class="st2" d="M8797.2,11928.1c2.4,0,4,0.5,5.3,1.5c1.9,1.4,3.1,3.7,3.1,6.2s-1.2,4.8-3.1,6.2c-1.3,0.9-2.9,1.5-5.3,1.5
				h-4.8v-15.4H8797.2z M8801.5,11932.5c-0.9-1.1-2.1-1.7-3.9-1.7h-2.2v10.1h2.2c1.8,0,3.1-0.6,3.9-1.7c0.7-0.9,1.1-2.1,1.1-3.3
				S8802.2,11933.3,8801.5,11932.5z"/>
			<path class="st2" d="M8808,11928.1h3v15.4h-3V11928.1z"/>
			<path class="st2" d="M8816.3,11935.8c0,3,2.3,5.3,5.3,5.3c1.4,0,2.6-0.5,3.4-1.2v-3.3h-4v-2.6h6.9v6.8c-1.4,1.7-3.7,2.9-6.5,2.9
				c-4.8,0-8.2-3.5-8.2-7.9s3.3-7.9,8.1-7.9c2.3,0,4.2,0.9,5.6,2.2l-1.9,2c-0.9-0.9-2.2-1.6-3.7-1.6
				C8818.5,11930.5,8816.3,11932.9,8816.3,11935.8z"/>
			<path class="st2" d="M8831.1,11928.1h3v15.4h-3V11928.1z"/>
			<path class="st2" d="M8847.5,11928.1v2.6h-4.1v12.8h-3v-12.8h-4.1v-2.6H8847.5z"/>
			<path class="st2" d="M8846.8,11943.5l6.6-15.4h2.1l6.6,15.4h-3.1l-1.5-3.4h-6.2l-1.5,3.4H8846.8z M8852.5,11937.4h3.9l-2-4.6
				L8852.5,11937.4z"/>
			<path class="st2" d="M8863.9,11928.1h3v12.8h6.5v2.6h-9.5V11928.1z"/>
			<path class="st2" d="M8878.6,11930.7v3.2h4.7v2.6h-4.7v4.3h6.5v2.6h-9.5v-15.4h9.2v2.6H8878.6z"/>
			<path class="st2" d="M8888.5,11939.4c0.9,1,2.2,1.7,3.6,1.7c1.3,0,2.2-0.8,2.2-1.9c0-2-2.9-2.2-4.9-3.4c-1.2-0.7-2.2-1.8-2.2-3.5
				c0-2.8,2.5-4.3,5.1-4.3c1.6,0,3,0.4,4.5,1.5l-1.5,2.2c-0.6-0.6-1.6-1-2.7-1c-1.1,0-2.4,0.5-2.4,1.7c0,2.5,7.1,1.7,7.1,6.9
				c0,2.7-2.4,4.6-5.2,4.6c-2.1,0-4-0.9-5.6-2.3L8888.5,11939.4z"/>
		</g>
		<g id="Grupo_2172" transform="translate(8572.814 11663.545)">
			<rect id="Rectángulo_757" x="-91.8" y="60" class="st4" width="194" height="128"/>
			<rect id="Rectángulo_760" x="112.2" y="85" class="st9" width="195" height="103"/>
			<rect id="Rectángulo_763" x="316.2" y="65" class="st6" width="197" height="123"/>
			<g class="st1">
				<path class="st2" d="M-19.6,4.5c0.9-2.9,3.5-4.9,6.6-4.9c3.6,0,6.7,2.7,6.7,6.5c0,2.5-1.3,4.4-2.7,6l-4.5,5.2h7.3V21h-13.6v-2.4
					l7.4-8.4c1.6-1.8,2.1-3,2.1-4.1c0-1.5-1.1-2.8-2.7-2.8c-1.4,0-2.4,1-2.9,2.4L-19.6,4.5z"/>
				<path class="st2" d="M3.3,16.3l-3.6,8.8h-2.8l2.2-8.8H3.3z"/>
				<path class="st2" d="M19.5,0l-4,6.7h0.3c4,0,7.4,3,7.4,7.2c0,4.1-3.4,7.4-7.5,7.4c-3.9,0-7.7-2.8-7.7-7.2c0-2.1,1-3.9,2.1-5.8
					L15,0H19.5z M11.9,14.1c0,2,1.7,3.6,3.7,3.6c2.1,0,3.5-1.7,3.5-3.7s-1.5-3.8-3.7-3.8c-0.8,0-1.5,0.2-2.2,0.5
					C12.6,11.5,11.9,12.7,11.9,14.1z"/>
			</g>
			<g class="st1">
				<path class="st2" d="M187.5,29.5c0.9-2.9,3.5-4.9,6.6-4.9c3.6,0,6.7,2.7,6.7,6.5c0,2.5-1.3,4.4-2.7,6l-4.5,5.2h7.3V46h-13.6
					v-2.4l7.4-8.4c1.6-1.8,2.1-3,2.1-4.1c0-1.5-1.1-2.8-2.7-2.8c-1.4,0-2.4,1-2.9,2.4L187.5,29.5z"/>
				<path class="st2" d="M210.4,41.3l-3.6,8.8H204l2.2-8.8H210.4z"/>
				<path class="st2" d="M214.2,28l5.1-3h2.9v21h-4V29.6l-3.9,2.2V28z"/>
			</g>
			<g class="st1">
				<path class="st2" d="M392.8,12.5c0.9-2.9,3.5-4.9,6.6-4.9c3.6,0,6.7,2.7,6.7,6.5c0,2.5-1.3,4.4-2.7,6l-4.5,5.2h7.3V29h-13.6
					v-2.4l7.4-8.4c1.6-1.8,2.1-3,2.1-4.1c0-1.5-1.1-2.8-2.7-2.8c-1.4,0-2.4,1-2.9,2.4L392.8,12.5z"/>
				<path class="st2" d="M415.7,24.3l-3.6,8.8h-2.8l2.2-8.8H415.7z"/>
				<path class="st2" d="M423,24c0.9,1,2.2,1.7,3.6,1.7c0.9,0,1.8-0.3,2.5-1c0.7-0.7,1.2-1.6,1.2-2.7c0-1.1-0.5-2.2-1.3-2.8
					c-0.7-0.6-1.6-0.8-2.5-0.8c-1,0-2.2,0.4-3.1,1.1l-2.5-0.4L422.2,8h11.1v3.6h-7.8l-0.3,3.3c0.4-0.1,1-0.1,1.6-0.1
					c1.6,0,3.4,0.4,4.9,1.6c1.6,1.3,2.7,3.4,2.7,5.7c0,4.1-3.5,7.3-7.7,7.3c-2.4,0-4.5-0.9-6.4-2.7L423,24z"/>
			</g>
		</g>
		<g class="st1">
			<path class="st2" d="M8780.9,11540.2v12.6h3.4v3.6h-3.4v4.8h-4v-4.8h-9.8v-2.4l10.9-13.8H8780.9z M8776.8,11552.8v-4.9l-3.9,4.9
				H8776.8z"/>
		</g>
		<line id="Línea_549" class="st3" x1="8480.7" y1="11582.7" x2="9077.7" y2="11582.7"/>
	</g>
	<line id="Línea_514" class="st10" x1="1379.9" y1="4327.2" x2="338.2" y2="4327.2"/>
</g>
</svg>
