<?xml version="1.0" encoding="utf-8"?>
<!-- Generator: Adobe Illustrator 25.2.0, SVG Export Plug-In . SVG Version: 6.00 Build 0)  -->
<svg version="1.1" id="Capa_1" xmlns="http://www.w3.org/2000/svg" xmlns:xlink="http://www.w3.org/1999/xlink" x="0px" y="0px"
	 viewBox="0 0 1102.5 831.5" style="enable-background:new 0 0 1102.5 831.5;" xml:space="preserve">
<style type="text/css">
	.st0{fill:none;stroke:#989898;stroke-linecap:round;}
	.st1{enable-background:new    ;}
	.st2{fill:#333333;}
	.st3{fill:none;stroke:#333333;stroke-width:3;stroke-linecap:square;stroke-dasharray:6,8;}
	.st4{fill:#9372FC;}
	.st5{fill:#FFFFFF;}
	.st6{fill:#FF5154;}
	.st7{fill:none;stroke:#FFFFFF;stroke-width:3;}
	.st8{fill:#AAAAAA;}
	.st9{fill:#16BAC5;}
	.st10{fill:none;stroke:#717171;stroke-width:4;}
</style>
<g id="Grupo_2194" transform="translate(-276.874 -3721)">
	<line id="Línea_511" class="st0" x1="351.7" y1="4029.7" x2="1378.9" y2="4029.7"/>
	<line id="Línea_512" class="st0" x1="351.7" y1="3729.9" x2="1378.9" y2="3729.9"/>
	<g class="st1">
		<path class="st2" d="M284.5,3724l3.4-2h1.9v14h-2.7v-10.9l-2.6,1.4V3724z"/>
		<path class="st2" d="M297.9,3721.8c3.6,0,4.9,3.2,4.9,7.2c0,4-1.3,7.2-4.9,7.2c-3.6,0-4.9-3.2-4.9-7.2
			C293,3725,294.3,3721.8,297.9,3721.8z M297.9,3724.2c-1.6,0-2.2,2.2-2.2,4.8c0,2.6,0.6,4.8,2.2,4.8c1.6,0,2.2-2.2,2.2-4.8
			C300.1,3726.4,299.5,3724.2,297.9,3724.2z"/>
	</g>
	<g class="st1">
		<path class="st2" d="M295.2,4027.7c0.6,0.6,1.5,1.1,2.4,1.1c0.6,0,1.2-0.2,1.7-0.6c0.5-0.4,0.8-1.1,0.8-1.8c0-0.8-0.3-1.4-0.9-1.9
			c-0.4-0.4-1-0.6-1.7-0.6c-0.7,0-1.5,0.3-2.1,0.8l-1.7-0.2l0.9-7.4h7.4v2.4h-5.2l-0.2,2.2c0.3-0.1,0.7-0.1,1.1-0.1
			c1.1,0,2.3,0.3,3.3,1.1c1.1,0.9,1.8,2.3,1.8,3.8c0,2.8-2.3,4.8-5.2,4.8c-1.6,0-3-0.6-4.2-1.8L295.2,4027.7z"/>
	</g>
	<g class="st1">
		<path class="st2" d="M297.9,4308.8c3.6,0,4.9,3.2,4.9,7.2c0,4-1.3,7.2-4.9,7.2c-3.6,0-4.9-3.2-4.9-7.2
			C293,4312,294.3,4308.8,297.9,4308.8z M297.9,4311.2c-1.6,0-2.2,2.2-2.2,4.8c0,2.6,0.6,4.8,2.2,4.8c1.6,0,2.2-2.2,2.2-4.8
			C300.1,4313.4,299.5,4311.2,297.9,4311.2z"/>
	</g>
	<g id="Grupo_2064" transform="translate(150 21)">
		<line id="Línea_508" class="st3" x1="802.5" y1="4503.2" x2="864.5" y2="4503.2"/>
		<g id="Trazado_2768" transform="translate(348 4479)">
			<path class="st4" d="M-83,38.5c-4.9,0-9.6-1.9-13.1-5.4c-3.5-3.5-5.4-8.1-5.4-13.1s1.9-9.6,5.4-13.1c3.5-3.5,8.1-5.4,13.1-5.4
				s9.6,1.9,13.1,5.4c3.5,3.5,5.4,8.1,5.4,13.1s-1.9,9.6-5.4,13.1C-73.4,36.6-78.1,38.5-83,38.5z"/>
			<path class="st5" d="M-83,3c-4.5,0-8.8,1.8-12,5c-3.2,3.2-5,7.5-5,12s1.8,8.8,5,12c3.2,3.2,7.5,5,12,5s8.8-1.8,12-5
				c3.2-3.2,5-7.5,5-12s-1.8-8.8-5-12C-74.2,4.8-78.5,3-83,3 M-83,0c11,0,20,9,20,20s-9,20-20,20s-20-9-20-20S-94,0-83,0z"/>
		</g>
		<g id="Elipse_364" transform="translate(735 4481)">
			<circle class="st6" cx="-83" cy="20" r="20"/>
			<circle class="st7" cx="-83" cy="20" r="18.5"/>
		</g>
		<g class="st1">
			<path class="st8" d="M682.8,4496.7v10.3h-2v-14h1.4l8.4,10.3V4493h2v14h-1.4L682.8,4496.7z"/>
			<path class="st8" d="M696.8,4505.6c-0.6-0.7-0.9-1.6-0.9-3.2v-4.8h1.9v5.1c0,1,0.2,1.5,0.5,1.9c0.4,0.5,1.1,0.8,1.8,0.8
				c1.2,0,2.1-0.7,2.6-1.3v-6.5h1.9v9.4h-1.8v-0.9c-0.4,0.4-1.5,1.1-2.8,1.1C698.8,4507.2,697.5,4506.6,696.8,4505.6z"/>
			<path class="st8" d="M709.1,4502.7c0.1,1.6,1.4,2.8,3,2.8c1.4,0,2.2-0.7,2.7-1.3l1.2,1.2c-0.7,0.9-2,1.8-4,1.8
				c-2.7,0-4.9-2.1-4.9-4.9s1.9-4.9,4.6-4.9c2.6,0,4.5,2.1,4.5,4.9c0,0.1,0,0.2,0,0.4H709.1z M709.3,4501.1h5.1
				c-0.3-1.2-1.4-2-2.5-2C710.7,4499.1,709.6,4499.9,709.3,4501.1z"/>
			<path class="st8" d="M717.4,4497.6h2l2.8,6.4l2.8-6.4h2l-4.1,9.4h-1.3L717.4,4497.6z"/>
			<path class="st8" d="M735.5,4506.1c-0.8,0.7-1.8,1.1-2.9,1.1c-0.8,0-1.7-0.2-2.4-0.6c-1.4-0.8-2.4-2.4-2.4-4.3
				c0-1.9,1-3.5,2.4-4.3c0.6-0.4,1.4-0.6,2.3-0.6c1.1,0,2.1,0.3,2.9,1.1v-0.9h1.8v9.4h-1.8V4506.1z M735.5,4500.5
				c-0.6-0.8-1.5-1.3-2.7-1.3c-1.8,0-3,1.5-3,3.1c0,1.7,1.3,3.1,3.1,3.1c1,0,1.9-0.5,2.6-1.3V4500.5z"/>
			<path class="st8" d="M740.9,4504.5c0.9,0.7,1.8,1,2.8,1c0.8,0,1.6-0.4,1.6-1.2c0-1.1-1.6-1.1-2.9-1.6c-1.1-0.4-2.2-1.1-2.2-2.4
				c0-2,1.8-2.9,3.5-2.9c1.4,0,2.4,0.4,3.1,1l-1,1.4c-0.6-0.4-1.3-0.7-2-0.7c-0.9,0-1.7,0.4-1.7,1.2c0,0.6,0.7,0.9,1.7,1.1
				c1.5,0.4,3.4,1,3.4,3c0,1.8-1.7,2.9-3.5,2.9c-1.5,0-2.8-0.5-3.8-1.3L740.9,4504.5z"/>
		</g>
		<g class="st1">
			<path class="st8" d="M891.3,4504h-1.4l-4.1-6.4v9.4h-2v-14h1.4l5.4,8.5l5.4-8.5h1.4v14h-2v-9.4L891.3,4504z"/>
			<path class="st8" d="M907.8,4506.1c-0.8,0.7-1.8,1.1-2.9,1.1c-0.8,0-1.7-0.2-2.4-0.6c-1.4-0.8-2.4-2.4-2.4-4.3
				c0-1.9,1-3.5,2.4-4.3c0.6-0.4,1.4-0.6,2.3-0.6c1.1,0,2.1,0.3,2.9,1.1v-0.9h1.8v9.4h-1.8V4506.1z M907.7,4500.5
				c-0.6-0.8-1.5-1.3-2.7-1.3c-1.8,0-3,1.5-3,3.1c0,1.7,1.3,3.1,3.1,3.1c1,0,1.9-0.5,2.6-1.3V4500.5z M904.2,4496l1.3-3h2.1l-2.1,3
				H904.2z"/>
			<path class="st8" d="M916.4,4503.5l-2.5,3.5h-2.3l3.6-4.9l-3.2-4.5h2.2l2.2,3l2.2-3h2.2l-3.2,4.5l3.6,4.9h-2.3L916.4,4503.5z"/>
			<path class="st8" d="M925.1,4504.4c0.8,0,1.4,0.6,1.4,1.4s-0.6,1.4-1.4,1.4c-0.8,0-1.4-0.6-1.4-1.4S924.3,4504.4,925.1,4504.4z"
				/>
			<path class="st8" d="M936.3,4511.8h-1.9v-14.2h1.8v0.9c0.9-0.7,1.9-1.1,2.9-1.1c0.9,0,1.7,0.2,2.3,0.6c1.4,0.8,2.4,2.4,2.4,4.3
				c0,1.9-1,3.4-2.4,4.3c-0.6,0.4-1.5,0.6-2.4,0.6c-1.1,0-2.1-0.4-2.8-1V4511.8z M936.3,4504.1c0.6,0.9,1.6,1.3,2.6,1.3
				c1.8,0,3.1-1.4,3.1-3.1c0-1.6-1.2-3.1-3-3.1c-1.1,0-2.1,0.6-2.7,1.3V4504.1z"/>
			<path class="st8" d="M947.2,4505.6c-0.6-0.7-0.9-1.6-0.9-3.2v-4.8h1.9v5.1c0,1,0.2,1.5,0.5,1.9c0.4,0.5,1.1,0.8,1.8,0.8
				c1.2,0,2.1-0.7,2.6-1.3v-6.5h1.9v9.4h-1.8v-0.9c-0.4,0.4-1.5,1.1-2.8,1.1C949.2,4507.2,947.9,4506.6,947.2,4505.6z"/>
			<path class="st8" d="M960.3,4498.5c0.5-0.5,1.5-1.1,2.8-1.1c1.4,0,2.6,0.6,3.4,1.7c0.6,0.8,0.9,1.7,0.9,3.3v4.6h-1.9v-4.7
				c0-1.2-0.2-1.8-0.6-2.2c-0.4-0.6-1.2-0.9-1.9-0.9c-1.2,0-2.1,0.7-2.7,1.3v6.5h-1.9v-9.4h1.8V4498.5z"/>
			<path class="st8" d="M976.4,4507c-0.4,0.1-0.9,0.2-1.5,0.2c-1.2,0-2.1-0.4-2.7-1.1c-0.6-0.6-0.8-1.5-0.8-2.5v-4.3h-2.4v-1.7h2.4
				v-2.6h1.9v2.6h3v1.7h-3v4.4c0,0.5,0,0.9,0.3,1.2c0.3,0.3,0.8,0.5,1.3,0.5c0.3,0,0.8,0,1-0.1L976.4,4507z"/>
			<path class="st8" d="M985.6,4506.1c-0.8,0.7-1.8,1.1-2.9,1.1c-0.8,0-1.7-0.2-2.4-0.6c-1.4-0.8-2.4-2.4-2.4-4.3
				c0-1.9,1-3.5,2.4-4.3c0.6-0.4,1.4-0.6,2.3-0.6c1.1,0,2.1,0.3,2.9,1.1v-0.9h1.8v9.4h-1.8V4506.1z M985.5,4500.5
				c-0.6-0.8-1.5-1.3-2.7-1.3c-1.8,0-3,1.5-3,3.1c0,1.7,1.3,3.1,3.1,3.1c1,0,1.9-0.5,2.6-1.3V4500.5z"/>
			<path class="st8" d="M991.2,4497.6h1.9v10.2c0,1.3-0.2,2-0.6,2.6c-0.7,1-1.8,1.6-3.1,1.6c-0.4,0-0.9-0.1-1.1-0.1l0.4-1.7
				c0.1,0,0.4,0.1,0.7,0.1c0.5,0,1.1-0.2,1.4-0.7c0.3-0.3,0.4-0.8,0.4-1.7V4497.6z M992.1,4493c0.7,0,1.3,0.6,1.3,1.3
				s-0.6,1.2-1.3,1.2s-1.2-0.5-1.2-1.2S991.4,4493,992.1,4493z"/>
			<path class="st8" d="M997.5,4502.7c0.1,1.6,1.4,2.8,3,2.8c1.4,0,2.2-0.7,2.7-1.3l1.2,1.2c-0.7,0.9-2,1.8-4,1.8
				c-2.7,0-4.9-2.1-4.9-4.9s1.9-4.9,4.6-4.9c2.6,0,4.5,2.1,4.5,4.9c0,0.1,0,0.2,0,0.4H997.5z M997.7,4501.1h5.1
				c-0.3-1.2-1.4-2-2.5-2C999.1,4499.1,998,4499.9,997.7,4501.1z"/>
			<path class="st8" d="M1014.7,4511.8h-1.9v-14.2h1.8v0.9c0.9-0.7,1.9-1.1,2.9-1.1c0.9,0,1.7,0.2,2.3,0.6c1.4,0.8,2.4,2.4,2.4,4.3
				c0,1.9-1,3.4-2.4,4.3c-0.6,0.4-1.5,0.6-2.4,0.6c-1.1,0-2.1-0.4-2.8-1V4511.8z M1014.7,4504.1c0.6,0.9,1.6,1.3,2.6,1.3
				c1.8,0,3.1-1.4,3.1-3.1c0-1.6-1.2-3.1-3-3.1c-1.1,0-2.1,0.6-2.7,1.3V4504.1z"/>
			<path class="st8" d="M1029,4497.4c2.8,0,4.9,2.1,4.9,4.9s-2.1,4.9-4.9,4.9c-2.8,0-4.9-2.1-4.9-4.9S1026.2,4497.4,1029,4497.4z
				 M1029,4505.4c1.7,0,3-1.4,3-3.1c0-1.7-1.2-3.1-3-3.1s-3,1.4-3,3.1C1026,4504,1027.2,4505.4,1029,4505.4z"/>
			<path class="st8" d="M1036.5,4504.5c0.9,0.7,1.8,1,2.8,1c0.8,0,1.6-0.4,1.6-1.2c0-1.1-1.6-1.1-2.9-1.6c-1.1-0.4-2.2-1.1-2.2-2.4
				c0-2,1.8-2.9,3.5-2.9c1.4,0,2.4,0.4,3.1,1l-1,1.4c-0.6-0.4-1.3-0.7-2-0.7c-0.9,0-1.7,0.4-1.7,1.2c0,0.6,0.7,0.9,1.7,1.1
				c1.5,0.4,3.4,1,3.4,3c0,1.8-1.7,2.9-3.5,2.9c-1.5,0-2.8-0.5-3.8-1.3L1036.5,4504.5z"/>
			<path class="st8" d="M1046.5,4493c0.7,0,1.3,0.6,1.3,1.3s-0.6,1.2-1.3,1.2c-0.7,0-1.2-0.5-1.2-1.2S1045.8,4493,1046.5,4493z
				 M1045.5,4497.6h1.9v9.4h-1.9V4497.6z"/>
			<path class="st8" d="M1052.7,4507h-1.8v-14.2h1.9v5.6c0.8-0.7,1.9-1,2.9-1c0.9,0,1.7,0.2,2.3,0.6c1.4,0.8,2.4,2.4,2.4,4.3
				c0,1.9-1,3.4-2.4,4.3c-0.6,0.4-1.5,0.6-2.4,0.6c-1.1,0-2.1-0.4-2.9-1.1V4507z M1052.7,4504.1c0.6,0.9,1.6,1.3,2.6,1.3
				c1.8,0,3.1-1.4,3.1-3.1c0-1.6-1.2-3.1-3-3.1c-1.1,0-2.1,0.6-2.7,1.3V4504.1z"/>
			<path class="st8" d="M1062.9,4492.8h1.9v14.2h-1.9V4492.8z"/>
			<path class="st8" d="M1069.3,4502.7c0.1,1.6,1.4,2.8,3,2.8c1.4,0,2.2-0.7,2.7-1.3l1.2,1.2c-0.7,0.9-2,1.8-4,1.8
				c-2.7,0-4.9-2.1-4.9-4.9s1.9-4.9,4.6-4.9c2.6,0,4.5,2.1,4.5,4.9c0,0.1,0,0.2,0,0.4H1069.3z M1069.4,4501.1h5.1
				c-0.3-1.2-1.4-2-2.5-2C1070.8,4499.1,1069.7,4499.9,1069.4,4501.1z"/>
		</g>
		<g class="st1">
			<path class="st8" d="M295.8,4500.8v6.2h-2v-14h5.3c1.4,0,2.2,0.3,2.9,0.9c0.8,0.7,1.4,1.8,1.4,3s-0.5,2.3-1.4,3
				c-0.7,0.6-1.6,0.9-2.9,0.9H295.8z M299,4498.9c1,0,1.5-0.2,1.8-0.6c0.3-0.4,0.6-0.8,0.6-1.4s-0.2-1-0.6-1.4
				c-0.4-0.4-0.9-0.6-1.8-0.6h-3.2v4H299z"/>
			<path class="st8" d="M306.6,4493c0.7,0,1.3,0.6,1.3,1.3s-0.6,1.2-1.3,1.2s-1.2-0.5-1.2-1.2S305.9,4493,306.6,4493z M305.7,4497.6
				h1.9v9.4h-1.9V4497.6z"/>
			<path class="st8" d="M311,4492.8h1.9v14.2H311V4492.8z"/>
			<path class="st8" d="M323.2,4506.1c-0.8,0.7-1.8,1.1-2.9,1.1c-0.8,0-1.7-0.2-2.4-0.6c-1.4-0.8-2.4-2.4-2.4-4.3
				c0-1.9,1-3.5,2.4-4.3c0.6-0.4,1.4-0.6,2.3-0.6c1.1,0,2.1,0.3,2.9,1.1v-0.9h1.8v9.4h-1.8V4506.1z M323.1,4500.5
				c-0.6-0.8-1.5-1.3-2.7-1.3c-1.8,0-3,1.5-3,3.1c0,1.7,1.3,3.1,3.1,3.1c1,0,1.9-0.5,2.6-1.3V4500.5z"/>
			<path class="st8" d="M333.6,4499.3c-0.2-0.1-0.4-0.1-0.7-0.1c-1,0-2,0.7-2.5,1.6v6.2h-1.9v-9.4h1.8v1.1c0.5-0.6,1.4-1.3,2.8-1.3
				c0.2,0,0.5,0,0.7,0.1L333.6,4499.3z"/>
			<path class="st8" d="M336.7,4502.7c0.1,1.6,1.4,2.8,3,2.8c1.4,0,2.2-0.7,2.7-1.3l1.2,1.2c-0.7,0.9-2,1.8-4,1.8
				c-2.7,0-4.9-2.1-4.9-4.9s1.9-4.9,4.6-4.9c2.6,0,4.5,2.1,4.5,4.9c0,0.1,0,0.2,0,0.4H336.7z M336.9,4501.1h5.1
				c-0.3-1.2-1.4-2-2.5-2C338.3,4499.1,337.2,4499.9,336.9,4501.1z"/>
			<path class="st8" d="M346.7,4504.5c0.9,0.7,1.8,1,2.8,1c0.8,0,1.6-0.4,1.6-1.2c0-1.1-1.6-1.1-2.9-1.6c-1.1-0.4-2.2-1.1-2.2-2.4
				c0-2,1.8-2.9,3.5-2.9c1.4,0,2.4,0.4,3.1,1l-1,1.4c-0.6-0.4-1.3-0.7-2-0.7c-0.9,0-1.7,0.4-1.7,1.2c0,0.6,0.7,0.9,1.7,1.1
				c1.5,0.4,3.4,1,3.4,3c0,1.8-1.7,2.9-3.5,2.9c-1.5,0-2.8-0.5-3.8-1.3L346.7,4504.5z"/>
		</g>
		<g id="Elipse_365" transform="translate(510 4480)">
			<circle class="st9" cx="-83" cy="20" r="20"/>
			<circle class="st7" cx="-83" cy="20" r="18.5"/>
		</g>
		<g class="st1">
			<path class="st8" d="M462.8,4492.8c2,0,3.9,0.8,5.1,2.2l-1.3,1.3c-0.8-0.9-2.3-1.6-3.8-1.6c-2.9,0-5.1,2.3-5.1,5.3
				c0,3.2,2.3,5.3,5.3,5.3c1.9,0,3.2-1,4-2l1.4,1.3c-1.2,1.5-3.3,2.6-5.4,2.6c-4.2,0-7.3-3.1-7.3-7.2
				C455.7,4496,458.7,4492.8,462.8,4492.8z"/>
			<path class="st8" d="M471.5,4502.7c0.1,1.6,1.4,2.8,3,2.8c1.4,0,2.2-0.7,2.7-1.3l1.2,1.2c-0.7,0.9-2,1.8-4,1.8
				c-2.7,0-4.9-2.1-4.9-4.9s1.9-4.9,4.6-4.9c2.6,0,4.5,2.1,4.5,4.9c0,0.1,0,0.2,0,0.4H471.5z M471.7,4501.1h5.1
				c-0.3-1.2-1.4-2-2.5-2C473.1,4499.1,472,4499.9,471.7,4501.1z"/>
			<path class="st8" d="M483.2,4498.5c0.5-0.5,1.5-1.1,2.8-1.1c1.4,0,2.6,0.6,3.4,1.7c0.6,0.8,0.9,1.7,0.9,3.3v4.6h-1.9v-4.7
				c0-1.2-0.2-1.8-0.6-2.2c-0.4-0.6-1.2-0.9-1.9-0.9c-1.2,0-2.1,0.7-2.7,1.3v6.5h-1.9v-9.4h1.8V4498.5z"/>
			<path class="st8" d="M499.3,4507c-0.4,0.1-0.9,0.2-1.5,0.2c-1.2,0-2.1-0.4-2.7-1.1c-0.6-0.6-0.8-1.5-0.8-2.5v-4.3H492v-1.7h2.4
				v-2.6h1.9v2.6h3v1.7h-3v4.4c0,0.5,0,0.9,0.3,1.2c0.3,0.3,0.8,0.5,1.3,0.5c0.3,0,0.8,0,1-0.1L499.3,4507z"/>
			<path class="st8" d="M507.1,4499.3c-0.2-0.1-0.4-0.1-0.7-0.1c-1,0-2,0.7-2.5,1.6v6.2h-1.9v-9.4h1.8v1.1c0.5-0.6,1.4-1.3,2.8-1.3
				c0.2,0,0.5,0,0.7,0.1L507.1,4499.3z"/>
			<path class="st8" d="M516.1,4506.1c-0.8,0.7-1.8,1.1-2.9,1.1c-0.8,0-1.7-0.2-2.4-0.6c-1.4-0.8-2.4-2.4-2.4-4.3
				c0-1.9,1-3.5,2.4-4.3c0.6-0.4,1.4-0.6,2.3-0.6c1.1,0,2.1,0.3,2.9,1.1v-0.9h1.8v9.4h-1.8V4506.1z M516,4500.5
				c-0.6-0.8-1.5-1.3-2.7-1.3c-1.8,0-3,1.5-3,3.1c0,1.7,1.3,3.1,3.1,3.1c1,0,1.9-0.5,2.6-1.3V4500.5z"/>
			<path class="st8" d="M521.3,4492.8h1.9v14.2h-1.9V4492.8z"/>
			<path class="st8" d="M527.5,4493c0.7,0,1.3,0.6,1.3,1.3s-0.6,1.2-1.3,1.2s-1.2-0.5-1.2-1.2S526.8,4493,527.5,4493z M526.6,4497.6
				h1.9v9.4h-1.9V4497.6z"/>
			<path class="st8" d="M536.2,4499.3h-4.9v-1.7h7.5v1.2l-5.2,6.5h5.6v1.7H531v-1.2L536.2,4499.3z"/>
			<path class="st8" d="M548.2,4506.1c-0.8,0.7-1.8,1.1-2.9,1.1c-0.8,0-1.7-0.2-2.4-0.6c-1.4-0.8-2.4-2.4-2.4-4.3
				c0-1.9,1-3.5,2.4-4.3c0.6-0.4,1.4-0.6,2.3-0.6c1.1,0,2.1,0.3,2.9,1.1v-0.9h1.8v9.4h-1.8V4506.1z M548.1,4500.5
				c-0.6-0.8-1.5-1.3-2.7-1.3c-1.8,0-3,1.5-3,3.1c0,1.7,1.3,3.1,3.1,3.1c1,0,1.9-0.5,2.6-1.3V4500.5z"/>
			<path class="st8" d="M560.3,4506.1c-0.8,0.7-1.8,1.1-2.9,1.1c-0.8,0-1.7-0.2-2.4-0.6c-1.4-0.8-2.4-2.4-2.4-4.3
				c0-1.9,1-3.5,2.4-4.3c0.6-0.4,1.4-0.6,2.3-0.6c1,0,2,0.3,2.9,1v-5.6h1.9v14.2h-1.8V4506.1z M560.2,4500.5
				c-0.6-0.8-1.5-1.3-2.7-1.3c-1.8,0-3,1.5-3,3.1c0,1.7,1.3,3.1,3.1,3.1c1,0,1.9-0.5,2.6-1.3V4500.5z"/>
			<path class="st8" d="M572.4,4506.1c-0.8,0.7-1.8,1.1-2.9,1.1c-0.8,0-1.7-0.2-2.4-0.6c-1.4-0.8-2.4-2.4-2.4-4.3
				c0-1.9,1-3.5,2.4-4.3c0.6-0.4,1.4-0.6,2.3-0.6c1.1,0,2.1,0.3,2.9,1.1v-0.9h1.8v9.4h-1.8V4506.1z M572.3,4500.5
				c-0.6-0.8-1.5-1.3-2.7-1.3c-1.8,0-3,1.5-3,3.1c0,1.7,1.3,3.1,3.1,3.1c1,0,1.9-0.5,2.6-1.3V4500.5z"/>
			<path class="st8" d="M577.7,4504.5c0.9,0.7,1.8,1,2.8,1c0.8,0,1.6-0.4,1.6-1.2c0-1.1-1.6-1.1-2.9-1.6c-1.1-0.4-2.2-1.1-2.2-2.4
				c0-2,1.8-2.9,3.5-2.9c1.4,0,2.4,0.4,3.1,1l-1,1.4c-0.6-0.4-1.3-0.7-2-0.7c-0.9,0-1.7,0.4-1.7,1.2c0,0.6,0.7,0.9,1.7,1.1
				c1.5,0.4,3.4,1,3.4,3c0,1.8-1.7,2.9-3.5,2.9c-1.5,0-2.8-0.5-3.8-1.3L577.7,4504.5z"/>
		</g>
	</g>
	<g id="Grupo_2180" transform="translate(-8672.683 -7526)">
		<g class="st1">
			<path class="st2" d="M9387.1,11930.7v3.2h4.7v2.6h-4.7v4.3h6.5v2.6h-9.5v-15.4h9.2v2.6H9387.1z"/>
			<path class="st2" d="M9396.9,11939.4c0.9,1,2.2,1.7,3.6,1.7c1.3,0,2.2-0.8,2.2-1.9c0-2-2.9-2.2-4.9-3.4c-1.2-0.7-2.2-1.8-2.2-3.5
				c0-2.8,2.5-4.3,5.1-4.3c1.6,0,3,0.4,4.5,1.5l-1.5,2.2c-0.6-0.6-1.6-1-2.7-1c-1.1,0-2.4,0.5-2.4,1.7c0,2.5,7.1,1.7,7.1,6.9
				c0,2.7-2.4,4.6-5.2,4.6c-2.1,0-4-0.9-5.6-2.3L9396.9,11939.4z"/>
			<path class="st2" d="M9417.6,11928.1v2.6h-4.1v12.8h-3v-12.8h-4.1v-2.6H9417.6z"/>
			<path class="st2" d="M9422.9,11936.7v6.8h-3v-15.4h5.6c1.6,0,2.6,0.4,3.4,1.1c0.8,0.8,1.4,1.9,1.4,3.1c0,1.2-0.5,2.4-1.4,3.1
				c-0.4,0.4-0.9,0.7-1.5,0.9l5.8,7.1h-3.7l-5.5-6.8H9422.9z M9425.4,11934c0.9,0,1.2-0.2,1.5-0.5c0.3-0.3,0.4-0.7,0.4-1.2
				c0-0.5-0.2-0.9-0.4-1.2c-0.3-0.3-0.6-0.5-1.5-0.5h-2.5v3.3H9425.4z"/>
			<path class="st2" d="M9433.9,11943.5l6.6-15.4h2.1l6.6,15.4h-3.1l-1.5-3.4h-6.2l-1.5,3.4H9433.9z M9439.6,11937.4h3.9l-2-4.6
				L9439.6,11937.4z"/>
			<path class="st2" d="M9459.7,11928.1v2.6h-4.1v12.8h-3v-12.8h-4.1v-2.6H9459.7z"/>
			<path class="st2" d="M9464.9,11930.7v3.2h4.7v2.6h-4.7v4.3h6.5v2.6h-9.5v-15.4h9.2v2.6H9464.9z"/>
			<path class="st2" d="M9475.6,11935.8c0,3,2.3,5.3,5.3,5.3c1.4,0,2.6-0.5,3.4-1.2v-3.3h-4v-2.6h6.9v6.8c-1.4,1.7-3.7,2.9-6.5,2.9
				c-4.8,0-8.2-3.5-8.2-7.9s3.3-7.9,8.1-7.9c2.3,0,4.2,0.9,5.6,2.2l-1.9,2c-0.9-0.9-2.2-1.6-3.7-1.6
				C9477.8,11930.5,9475.6,11932.9,9475.6,11935.8z"/>
			<path class="st2" d="M9490.3,11928.1h3v15.4h-3V11928.1z"/>
			<path class="st2" d="M9495.1,11943.5l6.6-15.4h2.1l6.6,15.4h-3.1l-1.5-3.4h-6.2l-1.5,3.4H9495.1z M9500.8,11937.4h3.9l-2-4.6
				L9500.8,11937.4z"/>
			<path class="st2" d="M9523.8,11936.5v7h-3v-7l-5.3-8.4h3.4l3.4,5.4l3.4-5.4h3.4L9523.8,11936.5z"/>
			<path class="st2" d="M9538.3,11935.8c0,3,2.3,5.3,5.3,5.3c1.4,0,2.6-0.5,3.4-1.2v-3.3h-4v-2.6h6.9v6.8c-1.4,1.7-3.7,2.9-6.5,2.9
				c-4.8,0-8.2-3.5-8.2-7.9s3.3-7.9,8.1-7.9c2.3,0,4.2,0.9,5.6,2.2l-1.9,2c-0.9-0.9-2.2-1.6-3.7-1.6
				C9540.5,11930.5,9538.3,11932.9,9538.3,11935.8z"/>
			<path class="st2" d="M9560.2,11927.9c4.8,0,8,3.5,8,7.9s-3.3,7.9-8,7.9s-8-3.5-8-7.9S9555.4,11927.9,9560.2,11927.9z
				 M9560.2,11941.1c2.9,0,5.1-2.4,5.1-5.3s-2.2-5.3-5.1-5.3s-5.1,2.4-5.1,5.3S9557.3,11941.1,9560.2,11941.1z"/>
			<path class="st2" d="M9575.9,11928.1c1.7,0,2.7,0.4,3.5,1.1c0.9,0.7,1.4,1.8,1.4,3.1c0,1-0.5,2-1,2.6c1.4,0.7,2.3,2.2,2.3,3.9
				c0,1.3-0.5,2.5-1.4,3.3c-0.9,0.9-2,1.4-4,1.4h-6v-15.4H9575.9z M9573.6,11934h2.1c0.9,0,1.3-0.2,1.7-0.6c0.3-0.3,0.4-0.7,0.4-1.1
				s-0.2-0.8-0.4-1.1c-0.3-0.3-0.7-0.5-1.7-0.5h-2.1V11934z M9576.6,11940.9c1,0,1.6-0.3,2-0.7c0.4-0.4,0.5-0.9,0.5-1.4
				c0-0.6-0.2-1-0.5-1.4c-0.4-0.4-0.9-0.7-2-0.7h-3v4.2H9576.6z"/>
			<path class="st2" d="M9587.4,11930.7v3.2h4.7v2.6h-4.7v4.3h6.5v2.6h-9.5v-15.4h9.2v2.6H9587.4z"/>
			<path class="st2" d="M9599.5,11936.7v6.8h-3v-15.4h5.6c1.6,0,2.6,0.4,3.4,1.1c0.8,0.8,1.4,1.9,1.4,3.1c0,1.2-0.5,2.4-1.4,3.1
				c-0.4,0.4-0.9,0.7-1.5,0.9l5.8,7.1h-3.7l-5.5-6.8H9599.5z M9601.9,11934c0.9,0,1.2-0.2,1.5-0.5c0.3-0.3,0.4-0.7,0.4-1.2
				c0-0.5-0.2-0.9-0.4-1.2c-0.3-0.3-0.6-0.5-1.5-0.5h-2.5v3.3H9601.9z"/>
			<path class="st2" d="M9611.2,11928.1h2.1l8.6,10v-10h3v15.4h-2.1l-8.6-10v10h-3V11928.1z"/>
			<path class="st2" d="M9626.6,11943.5l6.6-15.4h2.1l6.6,15.4h-3.1l-1.5-3.4h-6.2l-1.5,3.4H9626.6z M9632.3,11937.4h3.9l-2-4.6
				L9632.3,11937.4z"/>
			<path class="st2" d="M9643.7,11928.1h2.1l8.6,10v-10h3v15.4h-2.1l-8.6-10v10h-3V11928.1z"/>
			<path class="st2" d="M9660,11941.7l7.5-11h-6.8v-2.6h10.8v1.8l-7.5,11h7.9v2.6H9660V11941.7z"/>
			<path class="st2" d="M9673.4,11943.5l6.6-15.4h2.1l6.6,15.4h-3.1l-1.5-3.4h-6.2l-1.5,3.4H9673.4z M9679.1,11937.4h3.9l-2-4.6
				L9679.1,11937.4z"/>
		</g>
		<g class="st1">
			<path class="st2" d="M9521.8,11305.8c0-2.5,1.3-4.2,3-5.3c-0.9-0.8-1.7-2-1.7-3.7c0-3.2,2.6-5.8,6.1-5.8s6.1,2.6,6.1,5.8
				c0,1.7-0.8,2.9-1.7,3.7c1.7,1.1,3,2.8,3,5.3c0,3.8-3.3,6.8-7.5,6.8C9525.1,11312.6,9521.8,11309.6,9521.8,11305.8z
				 M9532.7,11305.8c0-1.8-1.5-3.2-3.5-3.2c-2,0-3.5,1.4-3.5,3.2s1.5,3.2,3.5,3.2C9531.3,11309,9532.7,11307.6,9532.7,11305.8z
				 M9531.4,11296.8c0-1.2-0.8-2.2-2.1-2.2s-2.1,1-2.1,2.2c0,1.2,0.8,2.2,2.1,2.2S9531.4,11298,9531.4,11296.8z"/>
		</g>
		<line id="Línea_552" class="st3" x1="9221.2" y1="11329.9" x2="9839.4" y2="11329.9"/>
		<g id="Grupo_2174" transform="translate(9322.506 11673.928)">
			<rect id="Rectángulo_765" x="-92.5" y="78.6" class="st4" width="195" height="99"/>
			<rect id="Rectángulo_767" x="111.5" y="68.6" class="st9" width="196" height="109"/>
			<g class="st1">
				<path class="st2" d="M-5.8,22.1c0.9-2.9,3.5-4.9,6.6-4.9c3.6,0,6.7,2.7,6.7,6.5c0,2.5-1.3,4.4-2.7,6L0.3,35h7.3v3.6H-6v-2.4
					l7.4-8.4c1.6-1.8,2.1-3,2.1-4.1c0-1.5-1.1-2.8-2.7-2.8c-1.4,0-2.4,1-2.9,2.4L-5.8,22.1z"/>
			</g>
			<g class="st1">
				<path class="st2" d="M184.7,4.1c0.9-2.9,3.5-4.9,6.6-4.9c3.6,0,6.7,2.7,6.7,6.5c0,2.5-1.3,4.4-2.7,6l-4.5,5.2h7.3v3.6h-13.6
					v-2.4l7.4-8.4c1.6-1.8,2.1-3,2.1-4.1c0-1.5-1.1-2.8-2.7-2.8c-1.4,0-2.4,1-2.8,2.4L184.7,4.1z"/>
				<path class="st2" d="M207.6,15.9l-3.6,8.8h-2.8l2.2-8.8H207.6z"/>
				<path class="st2" d="M215.2,15.2c0.9,1.2,2.3,2.1,3.9,2.1c2,0,3.9-1.6,3.9-3.8c0-2.2-1.8-3.8-4.1-3.8c-0.8,0-1.7,0.2-2.5,0.6
					V7.8l3.9-4.7h-7v-3.6H226V2l-3.8,4.7c2.9,1.1,4.9,3.6,4.9,6.8c0,4.4-3.5,7.4-7.8,7.4c-2.6,0-5.1-1.2-7-3.3L215.2,15.2z"/>
			</g>
			<g class="st1">
				<path class="st2" d="M406.2,28.1c0.9-2.9,3.5-4.9,6.6-4.9c3.6,0,6.7,2.7,6.7,6.5c0,2.5-1.3,4.4-2.7,6l-4.5,5.2h7.3v3.6H406v-2.4
					l7.4-8.4c1.6-1.8,2.1-3,2.1-4.1c0-1.5-1.1-2.8-2.7-2.8c-1.4,0-2.4,1-2.9,2.4L406.2,28.1z"/>
			</g>
			<rect id="Rectángulo_766" x="316.5" y="78.6" class="st6" width="196" height="99"/>
		</g>
	</g>
	<line id="Línea_514" class="st10" x1="1378.9" y1="4327.2" x2="337.2" y2="4327.2"/>
</g>
</svg>
