<?xml version="1.0" encoding="utf-8"?>
<!-- Generator: Adobe Illustrator 25.2.0, SVG Export Plug-In . SVG Version: 6.00 Build 0)  -->
<svg version="1.1" id="Capa_1" xmlns="http://www.w3.org/2000/svg" xmlns:xlink="http://www.w3.org/1999/xlink" x="0px" y="0px"
	 viewBox="0 0 1539 825" style="enable-background:new 0 0 1539 825;" xml:space="preserve">
<style type="text/css">
	.st0{fill:none;stroke:#989898;stroke-linecap:round;}
	.st1{enable-background:new    ;}
	.st2{fill:#333333;}
	.st3{fill:#9372FC;}
	.st4{fill:#16BAC5;}
	.st5{fill:#FF5154;}
	.st6{fill:none;stroke:#717171;stroke-width:4;}
	.st7{fill:none;stroke:#333333;stroke-width:3;stroke-linecap:square;stroke-dasharray:6,8;}
	.st8{fill:#FFFFFF;}
	.st9{fill:none;stroke:#FFFFFF;stroke-width:3;}
	.st10{fill:#AAAAAA;}
</style>
<g id="Grupo_2195" transform="translate(-125 -3707)">
	<line id="Línea_510" class="st0" x1="190.8" y1="3728.6" x2="1663.5" y2="3728.6"/>
	<line id="Línea_511" class="st0" x1="190.8" y1="4175.8" x2="1663.5" y2="4175.8"/>
	<line id="Línea_512" class="st0" x1="190.8" y1="4026.2" x2="1663.5" y2="4026.2"/>
	<line id="Línea_513" class="st0" x1="190.8" y1="3876.9" x2="1663.5" y2="3876.9"/>
	<g class="st1">
		<path class="st2" d="M133.1,3718c0.6-1.9,2.4-3.2,4.4-3.2c2.4,0,4.5,1.8,4.5,4.3c0,1.7-0.9,2.9-1.8,4l-3,3.5h4.9v2.4H133v-1.6
			l4.9-5.6c1.1-1.2,1.4-2,1.4-2.7c0-1-0.8-1.9-1.8-1.9c-0.9,0-1.6,0.6-1.9,1.6L133.1,3718z"/>
		<path class="st2" d="M149,3714.8c3.6,0,4.9,3.2,4.9,7.2c0,4-1.3,7.2-4.9,7.2c-3.6,0-4.9-3.2-4.9-7.2
			C144.1,3718,145.4,3714.8,149,3714.8z M149,3717.2c-1.6,0-2.2,2.2-2.2,4.8c0,2.6,0.6,4.8,2.2,4.8c1.6,0,2.2-2.2,2.2-4.8
			C151.2,3719.4,150.6,3717.2,149,3717.2z"/>
	</g>
	<g class="st1">
		<path class="st2" d="M135.6,4022l3.4-2h1.9v14h-2.7v-10.9l-2.6,1.4V4022z"/>
		<path class="st2" d="M149,4019.8c3.6,0,4.9,3.2,4.9,7.2c0,4-1.3,7.2-4.9,7.2c-3.6,0-4.9-3.2-4.9-7.2
			C144.1,4023,145.4,4019.8,149,4019.8z M149,4022.2c-1.6,0-2.2,2.2-2.2,4.8c0,2.6,0.6,4.8,2.2,4.8c1.6,0,2.2-2.2,2.2-4.8
			C151.2,4024.4,150.6,4022.2,149,4022.2z"/>
	</g>
	<g class="st1">
		<path class="st2" d="M146.3,4176.7c0.6,0.6,1.5,1.1,2.4,1.1c0.6,0,1.2-0.2,1.7-0.6c0.5-0.4,0.8-1.1,0.8-1.8c0-0.8-0.3-1.4-0.9-1.9
			c-0.4-0.4-1-0.6-1.7-0.6c-0.7,0-1.5,0.3-2.1,0.8l-1.7-0.2l0.9-7.4h7.4v2.4H148l-0.2,2.2c0.3-0.1,0.7-0.1,1.1-0.1
			c1.1,0,2.3,0.3,3.3,1.1c1.1,0.9,1.8,2.3,1.8,3.8c0,2.8-2.3,4.8-5.2,4.8c-1.6,0-3-0.6-4.2-1.8L146.3,4176.7z"/>
	</g>
	<g class="st1">
		<path class="st2" d="M136.3,3870l3.4-2h1.9v14h-2.7v-10.9l-2.6,1.4V3870z"/>
		<path class="st2" d="M146.3,3878.7c0.6,0.6,1.5,1.1,2.4,1.1c0.6,0,1.2-0.2,1.7-0.6c0.5-0.4,0.8-1.1,0.8-1.8c0-0.8-0.3-1.4-0.9-1.9
			c-0.4-0.4-1-0.6-1.7-0.6c-0.7,0-1.5,0.3-2.1,0.8l-1.7-0.2l0.9-7.4h7.4v2.4H148l-0.2,2.2c0.3-0.1,0.7-0.1,1.1-0.1
			c1.1,0,2.3,0.3,3.3,1.1c1.1,0.9,1.8,2.3,1.8,3.8c0,2.8-2.3,4.8-5.2,4.8c-1.6,0-3-0.6-4.2-1.8L146.3,3878.7z"/>
	</g>
	<g class="st1">
		<path class="st2" d="M149,4309.8c3.6,0,4.9,3.2,4.9,7.2c0,4-1.3,7.2-4.9,7.2c-3.6,0-4.9-3.2-4.9-7.2
			C144.1,4313,145.4,4309.8,149,4309.8z M149,4312.2c-1.6,0-2.2,2.2-2.2,4.8c0,2.6,0.6,4.8,2.2,4.8c1.6,0,2.2-2.2,2.2-4.8
			C151.2,4314.4,150.6,4312.2,149,4312.2z"/>
	</g>
	<rect id="Rectángulo_755" x="225" y="4193" class="st3" width="114" height="129"/>
	<rect id="Rectángulo_756" x="724" y="4265" class="st3" width="114" height="57"/>
	<rect id="Rectángulo_757" x="1235" y="4158" class="st3" width="114" height="164"/>
	<rect id="Rectángulo_758" x="345" y="4214" class="st4" width="114" height="108"/>
	<rect id="Rectángulo_759" x="844" y="4289" class="st4" width="114" height="33"/>
	<rect id="Rectángulo_760" x="1355" y="4224" class="st4" width="114" height="98"/>
	<rect id="Rectángulo_761" x="465" y="4202" class="st5" width="114" height="120"/>
	<rect id="Rectángulo_762" x="964" y="4286" class="st5" width="114" height="36"/>
	<rect id="Rectángulo_763" x="1475" y="4224" class="st5" width="114" height="98"/>
	<g class="st1">
		<path class="st2" d="M257.5,4376l6.6-15.4h2.1l6.6,15.4h-3.1l-1.5-3.4H262l-1.5,3.4H257.5z M263.1,4369.9h3.9l-2-4.6L263.1,4369.9
			z"/>
		<path class="st2" d="M275.8,4368.3c0,3,2.3,5.3,5.3,5.3c2,0,3.5-1,4.4-2.1l2,1.8c-1.4,1.7-3.7,2.9-6.5,2.9c-4.8,0-8.2-3.5-8.2-7.9
			s3.3-7.9,8.1-7.9c2.3,0,4.2,0.9,5.6,2.2l-1.9,2c-0.9-0.9-2.2-1.6-3.7-1.6C278,4363,275.8,4365.4,275.8,4368.3z"/>
		<path class="st2" d="M299.6,4360.6v2.6h-4.1v12.8h-3v-12.8h-4.1v-2.6H299.6z"/>
		<path class="st2" d="M301.9,4360.6h3v15.4h-3V4360.6z"/>
		<path class="st2" d="M306.9,4360.6h3.1l4.2,10.5l4.2-10.5h3.1l-6.2,15.4h-2.1L306.9,4360.6z"/>
		<path class="st2" d="M323.4,4360.6h3v15.4h-3V4360.6z"/>
		<path class="st2" d="M334.7,4360.6c2.4,0,4,0.5,5.3,1.5c1.9,1.4,3.1,3.7,3.1,6.2s-1.2,4.8-3.1,6.2c-1.3,0.9-2.9,1.5-5.3,1.5h-4.8
			v-15.4H334.7z M339,4365c-0.9-1.1-2.1-1.7-3.9-1.7h-2.2v10.1h2.2c1.8,0,3.1-0.6,3.9-1.7c0.7-0.9,1.1-2.1,1.1-3.3
			S339.7,4365.8,339,4365z"/>
		<path class="st2" d="M343.2,4376l6.6-15.4h2.1l6.6,15.4h-3.1l-1.5-3.4h-6.2l-1.5,3.4H343.2z M348.9,4369.9h3.9l-2-4.6
			L348.9,4369.9z"/>
		<path class="st2" d="M365.1,4360.6c2.4,0,4,0.5,5.3,1.5c1.9,1.4,3.1,3.7,3.1,6.2s-1.2,4.8-3.1,6.2c-1.3,0.9-2.9,1.5-5.3,1.5h-4.8
			v-15.4H365.1z M369.3,4365c-0.9-1.1-2.1-1.7-3.9-1.7h-2.2v10.1h2.2c1.8,0,3.1-0.6,3.9-1.7c0.7-0.9,1.1-2.1,1.1-3.3
			S370,4365.8,369.3,4365z"/>
		<path class="st2" d="M378.8,4363.2v3.2h4.7v2.6h-4.7v4.3h6.5v2.6h-9.5v-15.4h9.2v2.6H378.8z"/>
		<path class="st2" d="M388.7,4371.9c0.9,1,2.2,1.7,3.6,1.7c1.3,0,2.2-0.8,2.2-1.9c0-2-2.9-2.2-4.9-3.4c-1.2-0.7-2.2-1.8-2.2-3.5
			c0-2.8,2.5-4.3,5.1-4.3c1.6,0,3,0.4,4.5,1.5l-1.5,2.2c-0.6-0.6-1.6-1-2.7-1c-1.1,0-2.4,0.5-2.4,1.7c0,2.5,7.1,1.7,7.1,6.9
			c0,2.7-2.4,4.6-5.2,4.6c-2.1,0-4-0.9-5.6-2.3L388.7,4371.9z"/>
		<path class="st2" d="M412.9,4360.4c4.8,0,8,3.5,8,7.9s-3.3,7.9-8,7.9c-4.8,0-8-3.5-8-7.9S408.2,4360.4,412.9,4360.4z
			 M412.9,4373.6c2.9,0,5.1-2.4,5.1-5.3s-2.2-5.3-5.1-5.3c-2.9,0-5.1,2.4-5.1,5.3S410,4373.6,412.9,4373.6z"/>
		<path class="st2" d="M432.3,4369.7v6.3h-3v-15.4h5.8c2,0,3.1,0.5,4,1.4c0.8,0.8,1.2,2,1.2,3.2c0,1.2-0.4,2.4-1.2,3.2
			c-0.8,0.9-2,1.4-4,1.4H432.3z M435,4367.1c1,0,1.5-0.2,1.9-0.6c0.3-0.4,0.5-0.8,0.5-1.3c0-0.5-0.2-1-0.5-1.3
			c-0.4-0.4-0.9-0.6-1.9-0.6h-2.7v3.9H435z"/>
		<path class="st2" d="M445.5,4369.2v6.8h-3v-15.4h5.6c1.6,0,2.6,0.4,3.4,1.1c0.8,0.8,1.4,1.9,1.4,3.1c0,1.2-0.5,2.4-1.4,3.1
			c-0.4,0.4-0.9,0.7-1.5,0.9l5.8,7.1H452l-5.5-6.8H445.5z M447.9,4366.5c0.9,0,1.2-0.2,1.5-0.5c0.3-0.3,0.4-0.7,0.4-1.2
			c0-0.5-0.2-0.9-0.4-1.2c-0.3-0.3-0.6-0.5-1.5-0.5h-2.5v3.3H447.9z"/>
		<path class="st2" d="M456.5,4376l6.6-15.4h2.1l6.6,15.4h-3.1l-1.5-3.4H461l-1.5,3.4H456.5z M462.2,4369.9h3.9l-2-4.6L462.2,4369.9
			z M467.7,4355.8l-2.6,3.5h-2l1.5-3.5H467.7z"/>
		<path class="st2" d="M474.8,4368.3c0,3,2.3,5.3,5.3,5.3c2,0,3.5-1,4.4-2.1l2,1.8c-1.4,1.7-3.7,2.9-6.5,2.9c-4.8,0-8.2-3.5-8.2-7.9
			s3.3-7.9,8.1-7.9c2.3,0,4.2,0.9,5.6,2.2l-1.9,2c-0.9-0.9-2.2-1.6-3.7-1.6C477,4363,474.8,4365.4,474.8,4368.3z"/>
		<path class="st2" d="M498.6,4360.6v2.6h-4.1v12.8h-3v-12.8h-4.1v-2.6H498.6z"/>
		<path class="st2" d="M500.9,4360.6h3v15.4h-3V4360.6z"/>
		<path class="st2" d="M509.3,4368.3c0,3,2.3,5.3,5.3,5.3c2,0,3.5-1,4.4-2.1l2,1.8c-1.4,1.7-3.7,2.9-6.5,2.9c-4.8,0-8.2-3.5-8.2-7.9
			s3.3-7.9,8.1-7.9c2.3,0,4.2,0.9,5.6,2.2l-1.9,2c-0.9-0.9-2.2-1.6-3.7-1.6C511.5,4363,509.3,4365.4,509.3,4368.3z"/>
		<path class="st2" d="M521.8,4376l6.6-15.4h2.1l6.6,15.4H534l-1.5-3.4h-6.2l-1.5,3.4H521.8z M527.5,4369.9h3.9l-2-4.6L527.5,4369.9
			z"/>
		<path class="st2" d="M539.9,4371.9c0.9,1,2.2,1.7,3.6,1.7c1.3,0,2.2-0.8,2.2-1.9c0-2-2.9-2.2-4.9-3.4c-1.2-0.7-2.2-1.8-2.2-3.5
			c0-2.8,2.5-4.3,5.1-4.3c1.6,0,3,0.4,4.5,1.5l-1.5,2.2c-0.6-0.6-1.6-1-2.7-1c-1.1,0-2.4,0.5-2.4,1.7c0,2.5,7.1,1.7,7.1,6.9
			c0,2.7-2.4,4.6-5.2,4.6c-2.1,0-4-0.9-5.6-2.3L539.9,4371.9z"/>
	</g>
	<g class="st1">
		<path class="st2" d="M803.8,4369.7v6.3h-3v-15.4h5.8c2,0,3.1,0.5,4,1.4c0.8,0.8,1.2,2,1.2,3.2c0,1.2-0.4,2.4-1.2,3.2
			c-0.8,0.9-2,1.4-4,1.4H803.8z M806.5,4367.1c1,0,1.5-0.2,1.9-0.6c0.3-0.4,0.5-0.8,0.5-1.3c0-0.5-0.2-1-0.5-1.3
			c-0.4-0.4-0.9-0.6-1.9-0.6h-2.7v3.9H806.5z"/>
		<path class="st2" d="M817,4369.2v6.8h-3v-15.4h5.6c1.6,0,2.6,0.4,3.4,1.1c0.8,0.8,1.4,1.9,1.4,3.1c0,1.2-0.5,2.4-1.4,3.1
			c-0.4,0.4-0.9,0.7-1.5,0.9l5.8,7.1h-3.7l-5.5-6.8H817z M819.5,4366.5c0.9,0,1.2-0.2,1.5-0.5c0.3-0.3,0.4-0.7,0.4-1.2
			c0-0.5-0.2-0.9-0.4-1.2c-0.3-0.3-0.6-0.5-1.5-0.5H817v3.3H819.5z"/>
		<path class="st2" d="M834.8,4360.4c4.8,0,8,3.5,8,7.9s-3.3,7.9-8,7.9c-4.8,0-8-3.5-8-7.9S830.1,4360.4,834.8,4360.4z
			 M834.8,4373.6c2.9,0,5.1-2.4,5.1-5.3s-2.2-5.3-5.1-5.3c-2.9,0-5.1,2.4-5.1,5.3S831.9,4373.6,834.8,4373.6z"/>
		<path class="st2" d="M847.9,4368.3c0,3,2.3,5.3,5.3,5.3c2,0,3.5-1,4.4-2.1l2,1.8c-1.4,1.7-3.7,2.9-6.5,2.9c-4.8,0-8.2-3.5-8.2-7.9
			s3.3-7.9,8.1-7.9c2.3,0,4.2,0.9,5.6,2.2l-1.9,2c-0.9-0.9-2.2-1.6-3.7-1.6C850.1,4363,847.9,4365.4,847.9,4368.3z"/>
		<path class="st2" d="M864.7,4363.2v3.2h4.7v2.6h-4.7v4.3h6.5v2.6h-9.5v-15.4h9.2v2.6H864.7z"/>
		<path class="st2" d="M878.7,4360.6c2.4,0,4,0.5,5.3,1.5c1.9,1.4,3.1,3.7,3.1,6.2s-1.2,4.8-3.1,6.2c-1.3,0.9-2.9,1.5-5.3,1.5h-4.8
			v-15.4H878.7z M883,4365c-0.9-1.1-2.1-1.7-3.9-1.7h-2.2v10.1h2.2c1.8,0,3.1-0.6,3.9-1.7c0.7-0.9,1.1-2.1,1.1-3.3
			S883.7,4365.8,883,4365z"/>
		<path class="st2" d="M889.5,4360.6h3v15.4h-3V4360.6z"/>
		<path class="st2" d="M903.7,4369.8l5.6-9.2h2.1v15.4h-3v-8.6l-3.7,6.1h-2.1l-3.7-6.1v8.6h-3v-15.4h2.1L903.7,4369.8z"/>
		<path class="st2" d="M914.9,4360.6h3v15.4h-3V4360.6z"/>
		<path class="st2" d="M924.4,4363.2v3.2h4.7v2.6h-4.7v4.3h6.5v2.6h-9.5v-15.4h9.2v2.6H924.4z"/>
		<path class="st2" d="M933.5,4360.6h2.1l8.6,10v-10h3v15.4H945l-8.6-10v10h-3V4360.6z"/>
		<path class="st2" d="M960.6,4360.6v2.6h-4.1v12.8h-3v-12.8h-4.1v-2.6H960.6z"/>
		<path class="st2" d="M969.5,4360.4c4.8,0,8,3.5,8,7.9s-3.3,7.9-8,7.9c-4.8,0-8-3.5-8-7.9S964.7,4360.4,969.5,4360.4z
			 M969.5,4373.6c2.9,0,5.1-2.4,5.1-5.3s-2.2-5.3-5.1-5.3c-2.9,0-5.1,2.4-5.1,5.3S966.6,4373.6,969.5,4373.6z"/>
		<path class="st2" d="M980.3,4371.9c0.9,1,2.2,1.7,3.6,1.7c1.3,0,2.2-0.8,2.2-1.9c0-2-2.9-2.2-4.9-3.4c-1.2-0.7-2.2-1.8-2.2-3.5
			c0-2.8,2.5-4.3,5.1-4.3c1.6,0,3,0.4,4.5,1.5l-1.5,2.2c-0.6-0.6-1.6-1-2.7-1c-1.1,0-2.4,0.5-2.4,1.7c0,2.5,7.1,1.7,7.1,6.9
			c0,2.7-2.4,4.6-5.2,4.6c-2.1,0-4-0.9-5.6-2.3L980.3,4371.9z"/>
	</g>
	<g class="st1">
		<path class="st2" d="M1366,4369.7v6.3h-3v-15.4h5.8c2,0,3.1,0.5,4,1.4c0.8,0.8,1.2,2,1.2,3.2c0,1.2-0.4,2.4-1.2,3.2
			c-0.8,0.9-2,1.4-4,1.4H1366z M1368.7,4367.1c1,0,1.5-0.2,1.9-0.6c0.3-0.4,0.5-0.8,0.5-1.3c0-0.5-0.2-1-0.5-1.3
			c-0.4-0.4-0.9-0.6-1.9-0.6h-2.7v3.9H1368.7z"/>
		<path class="st2" d="M1379.2,4369.2v6.8h-3v-15.4h5.6c1.6,0,2.6,0.4,3.4,1.1c0.8,0.8,1.4,1.9,1.4,3.1c0,1.2-0.5,2.4-1.4,3.1
			c-0.4,0.4-0.9,0.7-1.5,0.9l5.8,7.1h-3.7l-5.5-6.8H1379.2z M1381.6,4366.5c0.9,0,1.2-0.2,1.5-0.5c0.3-0.3,0.4-0.7,0.4-1.2
			c0-0.5-0.2-0.9-0.4-1.2c-0.3-0.3-0.6-0.5-1.5-0.5h-2.5v3.3H1381.6z"/>
		<path class="st2" d="M1397,4360.4c4.8,0,8,3.5,8,7.9s-3.3,7.9-8,7.9s-8-3.5-8-7.9S1392.2,4360.4,1397,4360.4z M1397,4373.6
			c2.9,0,5.1-2.4,5.1-5.3s-2.2-5.3-5.1-5.3s-5.1,2.4-5.1,5.3S1394.1,4373.6,1397,4373.6z"/>
		<path class="st2" d="M1410.1,4368.3c0,3,2.3,5.3,5.3,5.3c2,0,3.5-1,4.4-2.1l2,1.8c-1.4,1.7-3.7,2.9-6.5,2.9
			c-4.8,0-8.2-3.5-8.2-7.9s3.3-7.9,8.1-7.9c2.3,0,4.2,0.9,5.6,2.2l-1.9,2c-0.9-0.9-2.2-1.6-3.7-1.6
			C1412.3,4363,1410.1,4365.4,1410.1,4368.3z"/>
		<path class="st2" d="M1426.9,4363.2v3.2h4.7v2.6h-4.7v4.3h6.5v2.6h-9.5v-15.4h9.2v2.6H1426.9z"/>
		<path class="st2" d="M1436.8,4371.9c0.9,1,2.2,1.7,3.6,1.7c1.3,0,2.2-0.8,2.2-1.9c0-2-2.9-2.2-4.9-3.4c-1.2-0.7-2.2-1.8-2.2-3.5
			c0-2.8,2.5-4.3,5.1-4.3c1.6,0,3,0.4,4.5,1.5l-1.5,2.2c-0.6-0.6-1.6-1-2.7-1c-1.1,0-2.4,0.5-2.4,1.7c0,2.5,7.1,1.7,7.1,6.9
			c0,2.7-2.4,4.6-5.2,4.6c-2.1,0-4-0.9-5.6-2.3L1436.8,4371.9z"/>
		<path class="st2" d="M1455.3,4360.4c4.8,0,8,3.5,8,7.9s-3.3,7.9-8,7.9s-8-3.5-8-7.9S1450.5,4360.4,1455.3,4360.4z M1455.3,4373.6
			c2.9,0,5.1-2.4,5.1-5.3s-2.2-5.3-5.1-5.3s-5.1,2.4-5.1,5.3S1452.4,4373.6,1455.3,4373.6z"/>
		<path class="st2" d="M1466.1,4371.9c0.9,1,2.2,1.7,3.6,1.7c1.3,0,2.2-0.8,2.2-1.9c0-2-2.9-2.2-4.9-3.4c-1.2-0.7-2.2-1.8-2.2-3.5
			c0-2.8,2.5-4.3,5.1-4.3c1.6,0,3,0.4,4.5,1.5l-1.5,2.2c-0.6-0.6-1.7-1-2.7-1c-1.1,0-2.4,0.5-2.4,1.7c0,2.5,7.1,1.7,7.1,6.9
			c0,2.7-2.4,4.6-5.2,4.6c-2.1,0-4-0.9-5.6-2.3L1466.1,4371.9z"/>
	</g>
	<line id="Línea_514" class="st6" x1="1663.5" y1="4323.6" x2="180.1" y2="4323.6"/>
	<g class="st1">
		<path class="st2" d="M272.1,4155v12.6h3.4v3.6h-3.4v4.8h-4v-4.8h-9.7v-2.4l10.9-13.8H272.1z M268.1,4167.6v-4.9l-3.9,4.9H268.1z"
			/>
		<path class="st2" d="M283.5,4171.4l-3.6,8.8h-2.8l2.2-8.8H283.5z"/>
		<path class="st2" d="M301.2,4155v12.6h3.4v3.6h-3.4v4.8h-4v-4.8h-9.7v-2.4l10.9-13.8H301.2z M297.2,4167.6v-4.9l-3.9,4.9H297.2z"
			/>
	</g>
	<g class="st1">
		<path class="st2" d="M771.7,4233.6c0.9-2.9,3.5-4.9,6.6-4.9c3.6,0,6.7,2.7,6.7,6.5c0,2.5-1.3,4.4-2.7,6l-4.5,5.2h7.3v3.6h-13.6
			v-2.4l7.4-8.4c1.6-1.8,2.1-3,2.1-4.1c0-1.5-1.1-2.8-2.7-2.8c-1.4,0-2.4,1-2.9,2.4L771.7,4233.6z"/>
	</g>
	<g class="st1">
		<path class="st2" d="M1270.5,4129c0.9,1,2.2,1.7,3.6,1.7c0.9,0,1.8-0.3,2.5-1c0.7-0.7,1.2-1.6,1.2-2.7c0-1.1-0.5-2.2-1.3-2.8
			c-0.7-0.6-1.6-0.8-2.5-0.8c-1,0-2.2,0.4-3.1,1.1l-2.5-0.4l1.4-11.1h11.1v3.6h-7.8l-0.3,3.3c0.4-0.1,1-0.1,1.6-0.1
			c1.6,0,3.4,0.4,4.9,1.6c1.6,1.3,2.7,3.4,2.7,5.7c0,4.1-3.5,7.3-7.7,7.3c-2.4,0-4.5-0.9-6.4-2.7L1270.5,4129z"/>
		<path class="st2" d="M1291.4,4129.4l-3.6,8.8h-2.8l2.2-8.8H1291.4z"/>
		<path class="st2" d="M1307.6,4113l-4,6.7h0.3c4,0,7.3,3,7.3,7.2c0,4.1-3.4,7.4-7.5,7.4c-3.9,0-7.7-2.8-7.7-7.2
			c0-2.1,1-3.9,2.1-5.8l4.9-8.3H1307.6z M1300,4127.1c0,2,1.7,3.6,3.7,3.6c2.1,0,3.5-1.7,3.5-3.7s-1.5-3.8-3.7-3.8
			c-0.8,0-1.5,0.2-2.2,0.5C1300.7,4124.6,1300,4125.7,1300,4127.1z"/>
	</g>
	<g class="st1">
		<path class="st2" d="M380.8,4193.6c0.9,1.2,2.3,2.1,3.9,2.1c2,0,3.9-1.6,3.9-3.8c0-2.2-1.8-3.8-4.1-3.8c-0.8,0-1.7,0.2-2.5,0.6
			v-2.4l3.9-4.7h-7v-3.6h12.7v2.4l-3.8,4.7c2.9,1.1,4.9,3.6,4.9,6.8c0,4.4-3.5,7.4-7.8,7.4c-2.6,0-5.1-1.2-7-3.3L380.8,4193.6z"/>
		<path class="st2" d="M402.2,4194.4l-3.6,8.8h-2.8l2.2-8.8H402.2z"/>
		<path class="st2" d="M407.2,4178H421v2.4l-9,18.6h-4.3l8.5-17.4h-9V4178z"/>
	</g>
	<g class="st1">
		<path class="st2" d="M885.7,4255l5.1-3h2.9v21h-4v-16.3l-3.9,2.2V4255z"/>
		<path class="st2" d="M904.7,4268.4l-3.6,8.8h-2.8l2.2-8.8H904.7z"/>
		<path class="st2" d="M910,4256.6c0.9-2.9,3.5-4.9,6.6-4.9c3.6,0,6.7,2.7,6.7,6.5c0,2.5-1.3,4.4-2.7,6l-4.5,5.2h7.3v3.6h-13.6v-2.4
			l7.4-8.4c1.6-1.8,2.1-3,2.1-4.1c0-1.5-1.1-2.8-2.7-2.8c-1.4,0-2.4,1-2.8,2.4L910,4256.6z"/>
	</g>
	<g class="st1">
		<path class="st2" d="M1389.7,4201.6c0.9,1.2,2.3,2.1,3.9,2.1c2,0,3.9-1.6,3.9-3.8c0-2.2-1.8-3.8-4.1-3.8c-0.8,0-1.7,0.2-2.5,0.6
			v-2.4l3.9-4.7h-7v-3.6h12.7v2.4l-3.8,4.7c2.9,1.1,4.9,3.6,4.9,6.8c0,4.4-3.5,7.4-7.8,7.4c-2.6,0-5.1-1.2-7-3.3L1389.7,4201.6z"/>
		<path class="st2" d="M1411.2,4202.4l-3.6,8.8h-2.8l2.2-8.8H1411.2z"/>
		<path class="st2" d="M1428.9,4186v12.6h3.4v3.6h-3.4v4.8h-4v-4.8h-9.8v-2.4l10.9-13.8H1428.9z M1424.8,4198.6v-4.9l-3.9,4.9
			H1424.8z"/>
	</g>
	<g class="st1">
		<path class="st2" d="M1510.7,4201.6c0.9,1.2,2.3,2.1,3.9,2.1c2,0,3.9-1.6,3.9-3.8c0-2.2-1.8-3.8-4.1-3.8c-0.8,0-1.7,0.2-2.5,0.6
			v-2.4l3.9-4.7h-7v-3.6h12.7v2.4l-3.8,4.7c2.9,1.1,4.9,3.6,4.9,6.8c0,4.4-3.5,7.4-7.8,7.4c-2.6,0-5.1-1.2-7-3.3L1510.7,4201.6z"/>
		<path class="st2" d="M1532.2,4202.4l-3.6,8.8h-2.8l2.2-8.8H1532.2z"/>
		<path class="st2" d="M1549.9,4186v12.6h3.4v3.6h-3.4v4.8h-4v-4.8h-9.8v-2.4l10.9-13.8H1549.9z M1545.8,4198.6v-4.9l-3.9,4.9
			H1545.8z"/>
	</g>
	<g class="st1">
		<path class="st2" d="M515.6,4164v12.6h3.4v3.6h-3.4v4.8h-4v-4.8h-9.7v-2.4l10.9-13.8H515.6z M511.5,4176.6v-4.9l-3.9,4.9H511.5z"
			/>
		<path class="st2" d="M527,4180.4l-3.6,8.8h-2.8l2.2-8.8H527z"/>
		<path class="st2" d="M530.7,4167l5.1-3h2.9v21h-4v-16.3l-3.9,2.2V4167z"/>
	</g>
	<g class="st1">
		<path class="st2" d="M999.3,4251l5.1-3h2.9v21h-4.1v-16.3l-3.9,2.2V4251z"/>
		<path class="st2" d="M1018.3,4264.4l-3.6,8.8h-2.8l2.2-8.8H1018.3z"/>
		<path class="st2" d="M1025.9,4263.6c0.9,1.2,2.3,2.1,3.9,2.1c2,0,3.9-1.6,3.9-3.8c0-2.2-1.8-3.8-4.1-3.8c-0.8,0-1.7,0.2-2.5,0.6
			v-2.4l3.9-4.7h-7v-3.6h12.8v2.4l-3.8,4.7c2.9,1.1,4.9,3.6,4.9,6.8c0,4.4-3.5,7.4-7.8,7.4c-2.6,0-5.1-1.2-7-3.3L1025.9,4263.6z"/>
	</g>
	<g class="st1">
		<path class="st2" d="M378.5,3859l5.1-3h2.9v21h-4v-16.3l-3.9,2.2V3859z"/>
		<path class="st2" d="M404,3856v12.6h3.4v3.6H404v4.8h-4v-4.8h-9.7v-2.4l10.9-13.8H404z M400,3868.6v-4.9l-3.9,4.9H400z"/>
	</g>
	<g class="st1">
		<path class="st2" d="M904.3,4057h13.8v2.4l-9,18.6h-4.3l8.5-17.4h-9V4057z"/>
	</g>
	<g class="st1">
		<path class="st2" d="M1393.4,3711l5.1-3h2.9v21h-4v-16.3l-3.9,2.2V3711z"/>
		<path class="st2" d="M1409.4,3729l4-6.7h-0.3c-4,0-7.3-3-7.3-7.2c0-4.1,3.4-7.4,7.5-7.4c3.9,0,7.7,2.8,7.7,7.2
			c0,2.1-1,3.9-2.1,5.8l-4.9,8.3H1409.4z M1417,3714.9c0-2-1.7-3.6-3.7-3.6c-2.1,0-3.5,1.6-3.5,3.7c0,2,1.5,3.7,3.7,3.7
			c0.8,0,1.5-0.1,2.2-0.5C1416.3,3717.4,1417,3716.3,1417,3714.9z"/>
	</g>
	<line id="Línea_515" class="st7" x1="215.5" y1="3893.2" x2="592.5" y2="3893.2"/>
	<line id="Línea_516" class="st7" x1="724" y1="4091.2" x2="1101" y2="4091.2"/>
	<line id="Línea_517" class="st7" x1="1220" y1="3739.7" x2="1597" y2="3739.7"/>
	<g id="Grupo_2087" transform="translate(0 -60)">
		<g id="Grupo_2064" transform="translate(150 71)">
			<line id="Línea_508" class="st7" x1="839.5" y1="4503.2" x2="901.5" y2="4503.2"/>
			<g id="Trazado_2768" transform="translate(348 4479)">
				<path class="st3" d="M-46,38.5c-4.9,0-9.6-1.9-13.1-5.4c-3.5-3.5-5.4-8.1-5.4-13.1s1.9-9.6,5.4-13.1s8.1-5.4,13.1-5.4
					s9.6,1.9,13.1,5.4c3.5,3.5,5.4,8.1,5.4,13.1s-1.9,9.6-5.4,13.1C-36.4,36.6-41.1,38.5-46,38.5z"/>
				<path class="st8" d="M-46,3c-4.5,0-8.8,1.8-12,5c-3.2,3.2-5,7.5-5,12s1.8,8.8,5,12c3.2,3.2,7.5,5,12,5s8.8-1.8,12-5
					c3.2-3.2,5-7.5,5-12s-1.8-8.8-5-12C-37.2,4.8-41.5,3-46,3 M-46,0c11,0,20,9,20,20s-9,20-20,20s-20-9-20-20S-57,0-46,0z"/>
			</g>
			<g id="Elipse_364" transform="translate(735 4481)">
				<circle class="st5" cx="-46" cy="20" r="20"/>
				<circle class="st9" cx="-46" cy="20" r="18.5"/>
			</g>
			<g class="st1">
				<path class="st10" d="M719.8,4496.7v10.3h-2v-14h1.4l8.4,10.3V4493h2v14h-1.4L719.8,4496.7z"/>
				<path class="st10" d="M733.8,4505.6c-0.6-0.7-0.9-1.6-0.9-3.2v-4.8h1.9v5.1c0,1,0.2,1.5,0.5,1.9c0.4,0.5,1.1,0.8,1.8,0.8
					c1.2,0,2.1-0.7,2.6-1.3v-6.5h1.9v9.4h-1.8v-0.9c-0.4,0.4-1.5,1.1-2.8,1.1C735.8,4507.2,734.5,4506.6,733.8,4505.6z"/>
				<path class="st10" d="M746.1,4502.7c0.1,1.6,1.4,2.8,3,2.8c1.4,0,2.2-0.7,2.7-1.3l1.2,1.2c-0.7,0.9-2,1.8-4,1.8
					c-2.7,0-4.9-2.1-4.9-4.9s1.9-4.9,4.6-4.9c2.6,0,4.5,2.1,4.5,4.9c0,0.1,0,0.2,0,0.4H746.1z M746.3,4501.1h5.1
					c-0.3-1.2-1.4-2-2.5-2C747.7,4499.1,746.6,4499.9,746.3,4501.1z"/>
				<path class="st10" d="M754.4,4497.6h2l2.8,6.4l2.8-6.4h2l-4.1,9.4h-1.3L754.4,4497.6z"/>
				<path class="st10" d="M772.5,4506.1c-0.8,0.7-1.8,1.1-2.9,1.1c-0.8,0-1.7-0.2-2.4-0.6c-1.4-0.8-2.4-2.4-2.4-4.3
					c0-1.9,1-3.5,2.4-4.3c0.6-0.4,1.4-0.6,2.3-0.6c1.1,0,2.1,0.3,2.9,1.1v-0.9h1.8v9.4h-1.8V4506.1z M772.5,4500.5
					c-0.6-0.8-1.5-1.3-2.7-1.3c-1.8,0-3,1.5-3,3.1c0,1.7,1.3,3.1,3.1,3.1c1,0,1.9-0.5,2.6-1.3V4500.5z"/>
				<path class="st10" d="M777.9,4504.5c0.9,0.7,1.8,1,2.8,1c0.8,0,1.6-0.4,1.6-1.2c0-1.1-1.6-1.1-2.9-1.6c-1.1-0.4-2.2-1.1-2.2-2.4
					c0-2,1.8-2.9,3.5-2.9c1.4,0,2.4,0.4,3.1,1l-1,1.4c-0.6-0.4-1.3-0.7-2-0.7c-0.9,0-1.7,0.4-1.7,1.2c0,0.6,0.7,0.9,1.7,1.1
					c1.5,0.4,3.4,1,3.4,3c0,1.8-1.7,2.9-3.5,2.9c-1.5,0-2.8-0.5-3.8-1.3L777.9,4504.5z"/>
			</g>
			<g class="st1">
				<path class="st10" d="M928.3,4504h-1.4l-4.1-6.4v9.4h-2v-14h1.4l5.4,8.5l5.4-8.5h1.4v14h-2v-9.4L928.3,4504z"/>
				<path class="st10" d="M944.8,4506.1c-0.8,0.7-1.8,1.1-2.9,1.1c-0.8,0-1.7-0.2-2.4-0.6c-1.4-0.8-2.4-2.4-2.4-4.3
					c0-1.9,1-3.5,2.4-4.3c0.6-0.4,1.4-0.6,2.3-0.6c1.1,0,2.1,0.3,2.9,1.1v-0.9h1.8v9.4h-1.8V4506.1z M944.7,4500.5
					c-0.6-0.8-1.5-1.3-2.7-1.3c-1.8,0-3,1.5-3,3.1c0,1.7,1.3,3.1,3.1,3.1c1,0,1.9-0.5,2.6-1.3V4500.5z M941.2,4496l1.3-3h2.1l-2.1,3
					H941.2z"/>
				<path class="st10" d="M953.4,4503.5l-2.5,3.5h-2.3l3.6-4.9l-3.2-4.5h2.2l2.2,3l2.2-3h2.2l-3.2,4.5l3.6,4.9h-2.3L953.4,4503.5z"
					/>
				<path class="st10" d="M962.1,4504.4c0.8,0,1.4,0.6,1.4,1.4s-0.6,1.4-1.4,1.4c-0.8,0-1.4-0.6-1.4-1.4S961.3,4504.4,962.1,4504.4z
					"/>
				<path class="st10" d="M973.3,4511.8h-1.9v-14.2h1.8v0.9c0.9-0.7,1.9-1.1,2.9-1.1c0.9,0,1.7,0.2,2.3,0.6c1.4,0.8,2.4,2.4,2.4,4.3
					c0,1.9-1,3.4-2.4,4.3c-0.6,0.4-1.5,0.6-2.4,0.6c-1.1,0-2.1-0.4-2.8-1V4511.8z M973.3,4504.1c0.6,0.9,1.6,1.3,2.6,1.3
					c1.8,0,3.1-1.4,3.1-3.1c0-1.6-1.2-3.1-3-3.1c-1.1,0-2.1,0.6-2.7,1.3V4504.1z"/>
				<path class="st10" d="M984.2,4505.6c-0.6-0.7-0.9-1.6-0.9-3.2v-4.8h1.9v5.1c0,1,0.2,1.5,0.5,1.9c0.4,0.5,1.1,0.8,1.8,0.8
					c1.2,0,2.1-0.7,2.6-1.3v-6.5h1.9v9.4h-1.8v-0.9c-0.4,0.4-1.5,1.1-2.8,1.1C986.2,4507.2,984.9,4506.6,984.2,4505.6z"/>
				<path class="st10" d="M997.3,4498.5c0.5-0.5,1.5-1.1,2.8-1.1c1.4,0,2.6,0.6,3.4,1.7c0.6,0.8,0.9,1.7,0.9,3.3v4.6h-1.9v-4.7
					c0-1.2-0.2-1.8-0.6-2.2c-0.4-0.6-1.2-0.9-1.9-0.9c-1.2,0-2.1,0.7-2.7,1.3v6.5h-1.9v-9.4h1.8V4498.5z"/>
				<path class="st10" d="M1013.4,4507c-0.4,0.1-0.9,0.2-1.5,0.2c-1.2,0-2.1-0.4-2.7-1.1c-0.6-0.6-0.8-1.5-0.8-2.5v-4.3h-2.4v-1.7
					h2.4v-2.6h1.9v2.6h3v1.7h-3v4.4c0,0.5,0,0.9,0.3,1.2c0.3,0.3,0.8,0.5,1.3,0.5c0.3,0,0.8,0,1-0.1L1013.4,4507z"/>
				<path class="st10" d="M1022.6,4506.1c-0.8,0.7-1.8,1.1-2.9,1.1c-0.8,0-1.7-0.2-2.4-0.6c-1.4-0.8-2.4-2.4-2.4-4.3
					c0-1.9,1-3.5,2.4-4.3c0.6-0.4,1.4-0.6,2.3-0.6c1.1,0,2.1,0.3,2.9,1.1v-0.9h1.8v9.4h-1.8V4506.1z M1022.5,4500.5
					c-0.6-0.8-1.5-1.3-2.7-1.3c-1.8,0-3,1.5-3,3.1c0,1.7,1.3,3.1,3.1,3.1c1,0,1.9-0.5,2.6-1.3V4500.5z"/>
				<path class="st10" d="M1028.2,4497.6h1.9v10.2c0,1.3-0.2,2-0.6,2.6c-0.7,1-1.8,1.6-3.1,1.6c-0.4,0-0.9-0.1-1.1-0.1l0.4-1.7
					c0.1,0,0.4,0.1,0.7,0.1c0.5,0,1.1-0.2,1.4-0.7c0.3-0.3,0.4-0.8,0.4-1.7V4497.6z M1029.1,4493c0.7,0,1.3,0.6,1.3,1.3
					s-0.6,1.2-1.3,1.2s-1.2-0.5-1.2-1.2S1028.4,4493,1029.1,4493z"/>
				<path class="st10" d="M1034.5,4502.7c0.1,1.6,1.4,2.8,3,2.8c1.4,0,2.2-0.7,2.7-1.3l1.2,1.2c-0.7,0.9-2,1.8-4,1.8
					c-2.7,0-4.9-2.1-4.9-4.9s1.9-4.9,4.6-4.9c2.6,0,4.5,2.1,4.5,4.9c0,0.1,0,0.2,0,0.4H1034.5z M1034.7,4501.1h5.1
					c-0.3-1.2-1.4-2-2.5-2C1036.1,4499.1,1035,4499.9,1034.7,4501.1z"/>
				<path class="st10" d="M1051.7,4511.8h-1.9v-14.2h1.8v0.9c0.9-0.7,1.9-1.1,2.9-1.1c0.9,0,1.7,0.2,2.3,0.6
					c1.4,0.8,2.4,2.4,2.4,4.3c0,1.9-1,3.4-2.4,4.3c-0.6,0.4-1.5,0.6-2.4,0.6c-1.1,0-2.1-0.4-2.8-1V4511.8z M1051.7,4504.1
					c0.6,0.9,1.6,1.3,2.6,1.3c1.8,0,3.1-1.4,3.1-3.1c0-1.6-1.2-3.1-3-3.1c-1.1,0-2.1,0.6-2.7,1.3V4504.1z"/>
				<path class="st10" d="M1066,4497.4c2.8,0,4.9,2.1,4.9,4.9s-2.1,4.9-4.9,4.9c-2.8,0-4.9-2.1-4.9-4.9S1063.2,4497.4,1066,4497.4z
					 M1066,4505.4c1.7,0,3-1.4,3-3.1c0-1.7-1.2-3.1-3-3.1s-3,1.4-3,3.1C1063,4504,1064.2,4505.4,1066,4505.4z"/>
				<path class="st10" d="M1073.5,4504.5c0.9,0.7,1.8,1,2.8,1c0.8,0,1.6-0.4,1.6-1.2c0-1.1-1.6-1.1-2.9-1.6
					c-1.1-0.4-2.2-1.1-2.2-2.4c0-2,1.8-2.9,3.5-2.9c1.4,0,2.4,0.4,3.1,1l-1,1.4c-0.6-0.4-1.3-0.7-2-0.7c-0.9,0-1.7,0.4-1.7,1.2
					c0,0.6,0.7,0.9,1.7,1.1c1.5,0.4,3.4,1,3.4,3c0,1.8-1.7,2.9-3.5,2.9c-1.5,0-2.8-0.5-3.8-1.3L1073.5,4504.5z"/>
				<path class="st10" d="M1083.5,4493c0.7,0,1.3,0.6,1.3,1.3s-0.6,1.2-1.3,1.2c-0.7,0-1.2-0.5-1.2-1.2S1082.8,4493,1083.5,4493z
					 M1082.5,4497.6h1.9v9.4h-1.9V4497.6z"/>
				<path class="st10" d="M1089.7,4507h-1.8v-14.2h1.9v5.6c0.8-0.7,1.9-1,2.9-1c0.9,0,1.7,0.2,2.3,0.6c1.4,0.8,2.4,2.4,2.4,4.3
					c0,1.9-1,3.4-2.4,4.3c-0.6,0.4-1.5,0.6-2.4,0.6c-1.1,0-2.1-0.4-2.9-1.1V4507z M1089.7,4504.1c0.6,0.9,1.6,1.3,2.6,1.3
					c1.8,0,3.1-1.4,3.1-3.1c0-1.6-1.2-3.1-3-3.1c-1.1,0-2.1,0.6-2.7,1.3V4504.1z"/>
				<path class="st10" d="M1099.9,4492.8h1.9v14.2h-1.9V4492.8z"/>
				<path class="st10" d="M1106.3,4502.7c0.1,1.6,1.4,2.8,3,2.8c1.4,0,2.2-0.7,2.7-1.3l1.2,1.2c-0.7,0.9-2,1.8-4,1.8
					c-2.7,0-4.9-2.1-4.9-4.9s1.9-4.9,4.6-4.9c2.6,0,4.5,2.1,4.5,4.9c0,0.1,0,0.2,0,0.4H1106.3z M1106.4,4501.1h5.1
					c-0.3-1.2-1.4-2-2.5-2C1107.8,4499.1,1106.7,4499.9,1106.4,4501.1z"/>
			</g>
			<g class="st1">
				<path class="st10" d="M332.8,4500.8v6.2h-2v-14h5.3c1.4,0,2.2,0.3,2.9,0.9c0.8,0.7,1.4,1.8,1.4,3s-0.5,2.3-1.4,3
					c-0.7,0.6-1.6,0.9-2.9,0.9H332.8z M336,4498.9c1,0,1.5-0.2,1.8-0.6c0.3-0.4,0.6-0.8,0.6-1.4s-0.2-1-0.6-1.4
					c-0.4-0.4-0.9-0.6-1.8-0.6h-3.2v4H336z"/>
				<path class="st10" d="M343.6,4493c0.7,0,1.3,0.6,1.3,1.3s-0.6,1.2-1.3,1.2s-1.2-0.5-1.2-1.2S342.9,4493,343.6,4493z
					 M342.7,4497.6h1.9v9.4h-1.9V4497.6z"/>
				<path class="st10" d="M348,4492.8h1.9v14.2H348V4492.8z"/>
				<path class="st10" d="M360.2,4506.1c-0.8,0.7-1.8,1.1-2.9,1.1c-0.8,0-1.7-0.2-2.4-0.6c-1.4-0.8-2.4-2.4-2.4-4.3
					c0-1.9,1-3.5,2.4-4.3c0.6-0.4,1.4-0.6,2.3-0.6c1.1,0,2.1,0.3,2.9,1.1v-0.9h1.8v9.4h-1.8V4506.1z M360.1,4500.5
					c-0.6-0.8-1.5-1.3-2.7-1.3c-1.8,0-3,1.5-3,3.1c0,1.7,1.3,3.1,3.1,3.1c1,0,1.9-0.5,2.6-1.3V4500.5z"/>
				<path class="st10" d="M370.6,4499.3c-0.2-0.1-0.4-0.1-0.7-0.1c-1,0-2,0.7-2.5,1.6v6.2h-1.9v-9.4h1.8v1.1
					c0.5-0.6,1.4-1.3,2.8-1.3c0.2,0,0.5,0,0.7,0.1L370.6,4499.3z"/>
				<path class="st10" d="M373.7,4502.7c0.1,1.6,1.4,2.8,3,2.8c1.4,0,2.2-0.7,2.7-1.3l1.2,1.2c-0.7,0.9-2,1.8-4,1.8
					c-2.7,0-4.9-2.1-4.9-4.9s1.9-4.9,4.6-4.9c2.6,0,4.5,2.1,4.5,4.9c0,0.1,0,0.2,0,0.4H373.7z M373.9,4501.1h5.1
					c-0.3-1.2-1.4-2-2.5-2C375.3,4499.1,374.2,4499.9,373.9,4501.1z"/>
				<path class="st10" d="M383.7,4504.5c0.9,0.7,1.8,1,2.8,1c0.8,0,1.6-0.4,1.6-1.2c0-1.1-1.6-1.1-2.9-1.6c-1.1-0.4-2.2-1.1-2.2-2.4
					c0-2,1.8-2.9,3.5-2.9c1.4,0,2.4,0.4,3.1,1l-1,1.4c-0.6-0.4-1.3-0.7-2-0.7c-0.9,0-1.7,0.4-1.7,1.2c0,0.6,0.7,0.9,1.7,1.1
					c1.5,0.4,3.4,1,3.4,3c0,1.8-1.7,2.9-3.5,2.9c-1.5,0-2.8-0.5-3.8-1.3L383.7,4504.5z"/>
			</g>
			<g id="Elipse_365" transform="translate(510 4480)">
				<circle class="st4" cx="-46" cy="20" r="20"/>
				<circle class="st9" cx="-46" cy="20" r="18.5"/>
			</g>
			<g class="st1">
				<path class="st10" d="M499.8,4492.8c2,0,3.9,0.8,5.1,2.2l-1.3,1.3c-0.8-0.9-2.3-1.6-3.8-1.6c-2.9,0-5.1,2.3-5.1,5.3
					c0,3.2,2.3,5.3,5.3,5.3c1.9,0,3.2-1,4-2l1.4,1.3c-1.2,1.5-3.3,2.6-5.4,2.6c-4.2,0-7.3-3.1-7.3-7.2
					C492.7,4496,495.7,4492.8,499.8,4492.8z"/>
				<path class="st10" d="M508.5,4502.7c0.1,1.6,1.4,2.8,3,2.8c1.4,0,2.2-0.7,2.7-1.3l1.2,1.2c-0.7,0.9-2,1.8-4,1.8
					c-2.7,0-4.9-2.1-4.9-4.9s1.9-4.9,4.6-4.9c2.6,0,4.5,2.1,4.5,4.9c0,0.1,0,0.2,0,0.4H508.5z M508.7,4501.1h5.1
					c-0.3-1.2-1.4-2-2.5-2C510.1,4499.1,509,4499.9,508.7,4501.1z"/>
				<path class="st10" d="M520.2,4498.5c0.5-0.5,1.5-1.1,2.8-1.1c1.4,0,2.6,0.6,3.4,1.7c0.6,0.8,0.9,1.7,0.9,3.3v4.6h-1.9v-4.7
					c0-1.2-0.2-1.8-0.6-2.2c-0.4-0.6-1.2-0.9-1.9-0.9c-1.2,0-2.1,0.7-2.7,1.3v6.5h-1.9v-9.4h1.8V4498.5z"/>
				<path class="st10" d="M536.3,4507c-0.4,0.1-0.9,0.2-1.5,0.2c-1.2,0-2.1-0.4-2.7-1.1c-0.6-0.6-0.8-1.5-0.8-2.5v-4.3H529v-1.7h2.4
					v-2.6h1.9v2.6h3v1.7h-3v4.4c0,0.5,0,0.9,0.3,1.2c0.3,0.3,0.8,0.5,1.3,0.5c0.3,0,0.8,0,1-0.1L536.3,4507z"/>
				<path class="st10" d="M544.1,4499.3c-0.2-0.1-0.4-0.1-0.7-0.1c-1,0-2,0.7-2.5,1.6v6.2h-1.9v-9.4h1.8v1.1
					c0.5-0.6,1.4-1.3,2.8-1.3c0.2,0,0.5,0,0.7,0.1L544.1,4499.3z"/>
				<path class="st10" d="M553.1,4506.1c-0.8,0.7-1.8,1.1-2.9,1.1c-0.8,0-1.7-0.2-2.4-0.6c-1.4-0.8-2.4-2.4-2.4-4.3
					c0-1.9,1-3.5,2.4-4.3c0.6-0.4,1.4-0.6,2.3-0.6c1.1,0,2.1,0.3,2.9,1.1v-0.9h1.8v9.4h-1.8V4506.1z M553,4500.5
					c-0.6-0.8-1.5-1.3-2.7-1.3c-1.8,0-3,1.5-3,3.1c0,1.7,1.3,3.1,3.1,3.1c1,0,1.9-0.5,2.6-1.3V4500.5z"/>
				<path class="st10" d="M558.3,4492.8h1.9v14.2h-1.9V4492.8z"/>
				<path class="st10" d="M564.5,4493c0.7,0,1.3,0.6,1.3,1.3s-0.6,1.2-1.3,1.2s-1.2-0.5-1.2-1.2S563.8,4493,564.5,4493z
					 M563.6,4497.6h1.9v9.4h-1.9V4497.6z"/>
				<path class="st10" d="M573.2,4499.3h-4.9v-1.7h7.5v1.2l-5.2,6.5h5.6v1.7H568v-1.2L573.2,4499.3z"/>
				<path class="st10" d="M585.2,4506.1c-0.8,0.7-1.8,1.1-2.9,1.1c-0.8,0-1.7-0.2-2.4-0.6c-1.4-0.8-2.4-2.4-2.4-4.3
					c0-1.9,1-3.5,2.4-4.3c0.6-0.4,1.4-0.6,2.3-0.6c1.1,0,2.1,0.3,2.9,1.1v-0.9h1.8v9.4h-1.8V4506.1z M585.1,4500.5
					c-0.6-0.8-1.5-1.3-2.7-1.3c-1.8,0-3,1.5-3,3.1c0,1.7,1.3,3.1,3.1,3.1c1,0,1.9-0.5,2.6-1.3V4500.5z"/>
				<path class="st10" d="M597.3,4506.1c-0.8,0.7-1.8,1.1-2.9,1.1c-0.8,0-1.7-0.2-2.4-0.6c-1.4-0.8-2.4-2.4-2.4-4.3
					c0-1.9,1-3.5,2.4-4.3c0.6-0.4,1.4-0.6,2.3-0.6c1,0,2,0.3,2.9,1v-5.6h1.9v14.2h-1.8V4506.1z M597.2,4500.5
					c-0.6-0.8-1.5-1.3-2.7-1.3c-1.8,0-3,1.5-3,3.1c0,1.7,1.3,3.1,3.1,3.1c1,0,1.9-0.5,2.6-1.3V4500.5z"/>
				<path class="st10" d="M609.4,4506.1c-0.8,0.7-1.8,1.1-2.9,1.1c-0.8,0-1.7-0.2-2.4-0.6c-1.4-0.8-2.4-2.4-2.4-4.3
					c0-1.9,1-3.5,2.4-4.3c0.6-0.4,1.4-0.6,2.3-0.6c1.1,0,2.1,0.3,2.9,1.1v-0.9h1.8v9.4h-1.8V4506.1z M609.3,4500.5
					c-0.6-0.8-1.5-1.3-2.7-1.3c-1.8,0-3,1.5-3,3.1c0,1.7,1.3,3.1,3.1,3.1c1,0,1.9-0.5,2.6-1.3V4500.5z"/>
				<path class="st10" d="M614.7,4504.5c0.9,0.7,1.8,1,2.8,1c0.8,0,1.6-0.4,1.6-1.2c0-1.1-1.6-1.1-2.9-1.6c-1.1-0.4-2.2-1.1-2.2-2.4
					c0-2,1.8-2.9,3.5-2.9c1.4,0,2.4,0.4,3.1,1l-1,1.4c-0.6-0.4-1.3-0.7-2-0.7c-0.9,0-1.7,0.4-1.7,1.2c0,0.6,0.7,0.9,1.7,1.1
					c1.5,0.4,3.4,1,3.4,3c0,1.8-1.7,2.9-3.5,2.9c-1.5,0-2.8-0.5-3.8-1.3L614.7,4504.5z"/>
			</g>
		</g>
	</g>
</g>
</svg>
