<?xml version="1.0" encoding="utf-8"?>
<!-- Generator: Adobe Illustrator 25.2.0, SVG Export Plug-In . SVG Version: 6.00 Build 0)  -->
<svg version="1.1" id="Capa_1" xmlns="http://www.w3.org/2000/svg" xmlns:xlink="http://www.w3.org/1999/xlink" x="0px" y="0px"
	 viewBox="0 0 1104.5 1033" style="enable-background:new 0 0 1104.5 1033;" xml:space="preserve">
<style type="text/css">
	.st0{fill:none;stroke:#989898;stroke-linecap:round;}
	.st1{enable-background:new    ;}
	.st2{fill:#333333;}
	.st3{fill:none;stroke:#333333;stroke-width:3;stroke-linecap:square;stroke-dasharray:6,8;}
	.st4{fill:#9372FC;}
	.st5{fill:#FFFFFF;}
	.st6{fill:#FF5154;}
	.st7{fill:none;stroke:#FFFFFF;stroke-width:3;}
	.st8{fill:#AAAAAA;}
	.st9{fill:#16BAC5;}
	.st10{fill:none;stroke:#717171;stroke-width:4;}
</style>
<g id="Grupo_2198" transform="translate(-276.874 -3713)">
	<line id="Línea_539" class="st0" x1="353.7" y1="4331.7" x2="1380.9" y2="4331.7"/>
	<line id="Línea_540" class="st0" x1="353.7" y1="4129.9" x2="1380.9" y2="4129.9"/>
	<line id="Línea_541" class="st0" x1="353.7" y1="3928.4" x2="1380.9" y2="3928.4"/>
	<line id="Línea_542" class="st0" x1="353.7" y1="3726.4" x2="1380.9" y2="3726.4"/>
	<g class="st1">
		<path class="st2" d="M286.5,4124l3.4-2h1.9v14h-2.7v-10.9l-2.6,1.4V4124z"/>
		<path class="st2" d="M299.9,4121.8c3.6,0,4.9,3.2,4.9,7.2c0,4-1.3,7.2-4.9,7.2c-3.6,0-4.9-3.2-4.9-7.2
			C295,4125,296.3,4121.8,299.9,4121.8z M299.9,4124.2c-1.6,0-2.2,2.2-2.2,4.8c0,2.6,0.6,4.8,2.2,4.8c1.6,0,2.2-2.2,2.2-4.8
			C302.1,4126.4,301.5,4124.2,299.9,4124.2z"/>
	</g>
	<g class="st1">
		<path class="st2" d="M297.2,4329.7c0.6,0.6,1.5,1.1,2.4,1.1c0.6,0,1.2-0.2,1.7-0.6c0.5-0.4,0.8-1.1,0.8-1.8c0-0.8-0.3-1.4-0.9-1.9
			c-0.4-0.4-1-0.6-1.7-0.6c-0.7,0-1.5,0.3-2.1,0.8l-1.7-0.2l0.9-7.4h7.4v2.4h-5.2l-0.2,2.2c0.3-0.1,0.7-0.1,1.1-0.1
			c1.1,0,2.3,0.3,3.3,1.1c1.1,0.9,1.8,2.3,1.8,3.8c0,2.8-2.3,4.8-5.2,4.8c-1.6,0-3-0.6-4.2-1.8L297.2,4329.7z"/>
	</g>
	<g class="st1">
		<path class="st2" d="M287.2,3918l3.4-2h1.9v14h-2.7v-10.9l-2.6,1.4V3918z"/>
		<path class="st2" d="M297.2,3926.7c0.6,0.6,1.5,1.1,2.4,1.1c0.6,0,1.2-0.2,1.7-0.6c0.5-0.4,0.8-1.1,0.8-1.8c0-0.8-0.3-1.4-0.9-1.9
			c-0.4-0.4-1-0.6-1.7-0.6c-0.7,0-1.5,0.3-2.1,0.8l-1.7-0.2l0.9-7.4h7.4v2.4h-5.2l-0.2,2.2c0.3-0.1,0.7-0.1,1.1-0.1
			c1.1,0,2.3,0.3,3.3,1.1c1.1,0.9,1.8,2.3,1.8,3.8c0,2.8-2.3,4.8-5.2,4.8c-1.6,0-3-0.6-4.2-1.8L297.2,3926.7z"/>
	</g>
	<g class="st1">
		<path class="st2" d="M284,3717c0.6-1.9,2.4-3.2,4.4-3.2c2.4,0,4.5,1.8,4.5,4.3c0,1.7-0.9,2.9-1.8,4l-3,3.5h4.9v2.4h-9.1v-1.6
			l4.9-5.6c1.1-1.2,1.4-2,1.4-2.7c0-1-0.8-1.9-1.8-1.9c-0.9,0-1.6,0.6-1.9,1.6L284,3717z"/>
		<path class="st2" d="M299.9,3713.8c3.6,0,4.9,3.2,4.9,7.2c0,4-1.3,7.2-4.9,7.2c-3.6,0-4.9-3.2-4.9-7.2
			C295,3717,296.3,3713.8,299.9,3713.8z M299.9,3716.2c-1.6,0-2.2,2.2-2.2,4.8c0,2.6,0.6,4.8,2.2,4.8c1.6,0,2.2-2.2,2.2-4.8
			C302.1,3718.4,301.5,3716.2,299.9,3716.2z"/>
	</g>
	<g class="st1">
		<path class="st2" d="M299.9,4512.8c3.6,0,4.9,3.2,4.9,7.2c0,4-1.3,7.2-4.9,7.2c-3.6,0-4.9-3.2-4.9-7.2
			C295,4516,296.3,4512.8,299.9,4512.8z M299.9,4515.2c-1.6,0-2.2,2.2-2.2,4.8c0,2.6,0.6,4.8,2.2,4.8c1.6,0,2.2-2.2,2.2-4.8
			C302.1,4517.4,301.5,4515.2,299.9,4515.2z"/>
	</g>
	<g id="Grupo_2168" transform="translate(150 225)">
		<line id="Línea_508" class="st3" x1="804.5" y1="4503.2" x2="866.5" y2="4503.2"/>
		<g id="Trazado_2768" transform="translate(348 4479)">
			<g>
				<path class="st4" d="M-81,38.5c-4.9,0-9.6-1.9-13.1-5.4c-3.5-3.5-5.4-8.1-5.4-13.1s1.9-9.6,5.4-13.1c3.5-3.5,8.1-5.4,13.1-5.4
					s9.6,1.9,13.1,5.4c3.5,3.5,5.4,8.1,5.4,13.1s-1.9,9.6-5.4,13.1C-71.4,36.6-76.1,38.5-81,38.5z"/>
			</g>
			<g>
				<path class="st5" d="M-81,3c-4.5,0-8.8,1.8-12,5c-3.2,3.2-5,7.5-5,12s1.8,8.8,5,12c3.2,3.2,7.5,5,12,5s8.8-1.8,12-5
					c3.2-3.2,5-7.5,5-12s-1.8-8.8-5-12C-72.2,4.8-76.5,3-81,3 M-81,0c11,0,20,9,20,20s-9,20-20,20s-20-9-20-20S-92,0-81,0z"/>
			</g>
		</g>
		<g id="Elipse_364" transform="translate(735 4481)">
			<circle class="st6" cx="-81" cy="20" r="20"/>
			<circle class="st7" cx="-81" cy="20" r="18.5"/>
		</g>
		<g class="st1">
			<path class="st8" d="M684.8,4496.7v10.3h-2v-14h1.4l8.4,10.3V4493h2v14h-1.4L684.8,4496.7z"/>
			<path class="st8" d="M698.8,4505.6c-0.6-0.7-0.9-1.6-0.9-3.2v-4.8h1.9v5.1c0,1,0.2,1.5,0.5,1.9c0.4,0.5,1.1,0.8,1.8,0.8
				c1.2,0,2.1-0.7,2.6-1.3v-6.5h1.9v9.4h-1.8v-0.9c-0.4,0.4-1.5,1.1-2.8,1.1C700.8,4507.2,699.5,4506.6,698.8,4505.6z"/>
			<path class="st8" d="M711.1,4502.7c0.1,1.6,1.4,2.8,3,2.8c1.4,0,2.2-0.7,2.7-1.3l1.2,1.2c-0.7,0.9-2,1.8-4,1.8
				c-2.7,0-4.9-2.1-4.9-4.9s1.9-4.9,4.6-4.9c2.6,0,4.5,2.1,4.5,4.9c0,0.1,0,0.2,0,0.4H711.1z M711.3,4501.1h5.1
				c-0.3-1.2-1.4-2-2.5-2C712.7,4499.1,711.6,4499.9,711.3,4501.1z"/>
			<path class="st8" d="M719.4,4497.6h2l2.8,6.4l2.8-6.4h2l-4.1,9.4h-1.3L719.4,4497.6z"/>
			<path class="st8" d="M737.5,4506.1c-0.8,0.7-1.8,1.1-2.9,1.1c-0.8,0-1.7-0.2-2.4-0.6c-1.4-0.8-2.4-2.4-2.4-4.3
				c0-1.9,1-3.5,2.4-4.3c0.6-0.4,1.4-0.6,2.3-0.6c1.1,0,2.1,0.3,2.9,1.1v-0.9h1.8v9.4h-1.8V4506.1z M737.5,4500.5
				c-0.6-0.8-1.5-1.3-2.7-1.3c-1.8,0-3,1.5-3,3.1c0,1.7,1.3,3.1,3.1,3.1c1,0,1.9-0.5,2.6-1.3V4500.5z"/>
			<path class="st8" d="M742.9,4504.5c0.9,0.7,1.8,1,2.8,1c0.8,0,1.6-0.4,1.6-1.2c0-1.1-1.6-1.1-2.9-1.6c-1.1-0.4-2.2-1.1-2.2-2.4
				c0-2,1.8-2.9,3.5-2.9c1.4,0,2.4,0.4,3.1,1l-1,1.4c-0.6-0.4-1.3-0.7-2-0.7c-0.9,0-1.7,0.4-1.7,1.2c0,0.6,0.7,0.9,1.7,1.1
				c1.5,0.4,3.4,1,3.4,3c0,1.8-1.7,2.9-3.5,2.9c-1.5,0-2.8-0.5-3.8-1.3L742.9,4504.5z"/>
		</g>
		<g class="st1">
			<path class="st8" d="M893.3,4504h-1.4l-4.1-6.4v9.4h-2v-14h1.4l5.4,8.5l5.4-8.5h1.4v14h-2v-9.4L893.3,4504z"/>
			<path class="st8" d="M909.8,4506.1c-0.8,0.7-1.8,1.1-2.9,1.1c-0.8,0-1.7-0.2-2.4-0.6c-1.4-0.8-2.4-2.4-2.4-4.3
				c0-1.9,1-3.5,2.4-4.3c0.6-0.4,1.4-0.6,2.3-0.6c1.1,0,2.1,0.3,2.9,1.1v-0.9h1.8v9.4h-1.8V4506.1z M909.7,4500.5
				c-0.6-0.8-1.5-1.3-2.7-1.3c-1.8,0-3,1.5-3,3.1c0,1.7,1.3,3.1,3.1,3.1c1,0,1.9-0.5,2.6-1.3V4500.5z M906.2,4496l1.3-3h2.1l-2.1,3
				H906.2z"/>
			<path class="st8" d="M918.4,4503.5l-2.5,3.5h-2.3l3.6-4.9l-3.2-4.5h2.2l2.2,3l2.2-3h2.2l-3.2,4.5l3.6,4.9h-2.3L918.4,4503.5z"/>
			<path class="st8" d="M927.1,4504.4c0.8,0,1.4,0.6,1.4,1.4s-0.6,1.4-1.4,1.4c-0.8,0-1.4-0.6-1.4-1.4S926.3,4504.4,927.1,4504.4z"
				/>
			<path class="st8" d="M938.3,4511.8h-1.9v-14.2h1.8v0.9c0.9-0.7,1.9-1.1,2.9-1.1c0.9,0,1.7,0.2,2.3,0.6c1.4,0.8,2.4,2.4,2.4,4.3
				c0,1.9-1,3.4-2.4,4.3c-0.6,0.4-1.5,0.6-2.4,0.6c-1.1,0-2.1-0.4-2.8-1V4511.8z M938.3,4504.1c0.6,0.9,1.6,1.3,2.6,1.3
				c1.8,0,3.1-1.4,3.1-3.1c0-1.6-1.2-3.1-3-3.1c-1.1,0-2.1,0.6-2.7,1.3V4504.1z"/>
			<path class="st8" d="M949.2,4505.6c-0.6-0.7-0.9-1.6-0.9-3.2v-4.8h1.9v5.1c0,1,0.2,1.5,0.5,1.9c0.4,0.5,1.1,0.8,1.8,0.8
				c1.2,0,2.1-0.7,2.6-1.3v-6.5h1.9v9.4h-1.8v-0.9c-0.4,0.4-1.5,1.1-2.8,1.1C951.2,4507.2,949.9,4506.6,949.2,4505.6z"/>
			<path class="st8" d="M962.3,4498.5c0.5-0.5,1.5-1.1,2.8-1.1c1.4,0,2.6,0.6,3.4,1.7c0.6,0.8,0.9,1.7,0.9,3.3v4.6h-1.9v-4.7
				c0-1.2-0.2-1.8-0.6-2.2c-0.4-0.6-1.2-0.9-1.9-0.9c-1.2,0-2.1,0.7-2.7,1.3v6.5h-1.9v-9.4h1.8V4498.5z"/>
			<path class="st8" d="M978.4,4507c-0.4,0.1-0.9,0.2-1.5,0.2c-1.2,0-2.1-0.4-2.7-1.1c-0.6-0.6-0.8-1.5-0.8-2.5v-4.3h-2.4v-1.7h2.4
				v-2.6h1.9v2.6h3v1.7h-3v4.4c0,0.5,0,0.9,0.3,1.2c0.3,0.3,0.8,0.5,1.3,0.5c0.3,0,0.8,0,1-0.1L978.4,4507z"/>
			<path class="st8" d="M987.6,4506.1c-0.8,0.7-1.8,1.1-2.9,1.1c-0.8,0-1.7-0.2-2.4-0.6c-1.4-0.8-2.4-2.4-2.4-4.3
				c0-1.9,1-3.5,2.4-4.3c0.6-0.4,1.4-0.6,2.3-0.6c1.1,0,2.1,0.3,2.9,1.1v-0.9h1.8v9.4h-1.8V4506.1z M987.5,4500.5
				c-0.6-0.8-1.5-1.3-2.7-1.3c-1.8,0-3,1.5-3,3.1c0,1.7,1.3,3.1,3.1,3.1c1,0,1.9-0.5,2.6-1.3V4500.5z"/>
			<path class="st8" d="M993.2,4497.6h1.9v10.2c0,1.3-0.2,2-0.6,2.6c-0.7,1-1.8,1.6-3.1,1.6c-0.4,0-0.9-0.1-1.1-0.1l0.4-1.7
				c0.1,0,0.4,0.1,0.7,0.1c0.5,0,1.1-0.2,1.4-0.7c0.3-0.3,0.4-0.8,0.4-1.7V4497.6z M994.1,4493c0.7,0,1.3,0.6,1.3,1.3
				s-0.6,1.2-1.3,1.2s-1.2-0.5-1.2-1.2S993.4,4493,994.1,4493z"/>
			<path class="st8" d="M999.5,4502.7c0.1,1.6,1.4,2.8,3,2.8c1.4,0,2.2-0.7,2.7-1.3l1.2,1.2c-0.7,0.9-2,1.8-4,1.8
				c-2.7,0-4.9-2.1-4.9-4.9s1.9-4.9,4.6-4.9c2.6,0,4.5,2.1,4.5,4.9c0,0.1,0,0.2,0,0.4H999.5z M999.7,4501.1h5.1
				c-0.3-1.2-1.4-2-2.5-2C1001.1,4499.1,1000,4499.9,999.7,4501.1z"/>
			<path class="st8" d="M1016.7,4511.8h-1.9v-14.2h1.8v0.9c0.9-0.7,1.9-1.1,2.9-1.1c0.9,0,1.7,0.2,2.3,0.6c1.4,0.8,2.4,2.4,2.4,4.3
				c0,1.9-1,3.4-2.4,4.3c-0.6,0.4-1.5,0.6-2.4,0.6c-1.1,0-2.1-0.4-2.8-1V4511.8z M1016.7,4504.1c0.6,0.9,1.6,1.3,2.6,1.3
				c1.8,0,3.1-1.4,3.1-3.1c0-1.6-1.2-3.1-3-3.1c-1.1,0-2.1,0.6-2.7,1.3V4504.1z"/>
			<path class="st8" d="M1031,4497.4c2.8,0,4.9,2.1,4.9,4.9s-2.1,4.9-4.9,4.9c-2.8,0-4.9-2.1-4.9-4.9S1028.2,4497.4,1031,4497.4z
				 M1031,4505.4c1.7,0,3-1.4,3-3.1c0-1.7-1.2-3.1-3-3.1s-3,1.4-3,3.1C1028,4504,1029.2,4505.4,1031,4505.4z"/>
			<path class="st8" d="M1038.5,4504.5c0.9,0.7,1.8,1,2.8,1c0.8,0,1.6-0.4,1.6-1.2c0-1.1-1.6-1.1-2.9-1.6c-1.1-0.4-2.2-1.1-2.2-2.4
				c0-2,1.8-2.9,3.5-2.9c1.4,0,2.4,0.4,3.1,1l-1,1.4c-0.6-0.4-1.3-0.7-2-0.7c-0.9,0-1.7,0.4-1.7,1.2c0,0.6,0.7,0.9,1.7,1.1
				c1.5,0.4,3.4,1,3.4,3c0,1.8-1.7,2.9-3.5,2.9c-1.5,0-2.8-0.5-3.8-1.3L1038.5,4504.5z"/>
			<path class="st8" d="M1048.5,4493c0.7,0,1.3,0.6,1.3,1.3s-0.6,1.2-1.3,1.2c-0.7,0-1.2-0.5-1.2-1.2S1047.8,4493,1048.5,4493z
				 M1047.5,4497.6h1.9v9.4h-1.9V4497.6z"/>
			<path class="st8" d="M1054.7,4507h-1.8v-14.2h1.9v5.6c0.8-0.7,1.9-1,2.9-1c0.9,0,1.7,0.2,2.3,0.6c1.4,0.8,2.4,2.4,2.4,4.3
				c0,1.9-1,3.4-2.4,4.3c-0.6,0.4-1.5,0.6-2.4,0.6c-1.1,0-2.1-0.4-2.9-1.1V4507z M1054.7,4504.1c0.6,0.9,1.6,1.3,2.6,1.3
				c1.8,0,3.1-1.4,3.1-3.1c0-1.6-1.2-3.1-3-3.1c-1.1,0-2.1,0.6-2.7,1.3V4504.1z"/>
			<path class="st8" d="M1064.9,4492.8h1.9v14.2h-1.9V4492.8z"/>
			<path class="st8" d="M1071.3,4502.7c0.1,1.6,1.4,2.8,3,2.8c1.4,0,2.2-0.7,2.7-1.3l1.2,1.2c-0.7,0.9-2,1.8-4,1.8
				c-2.7,0-4.9-2.1-4.9-4.9s1.9-4.9,4.6-4.9c2.6,0,4.5,2.1,4.5,4.9c0,0.1,0,0.2,0,0.4H1071.3z M1071.4,4501.1h5.1
				c-0.3-1.2-1.4-2-2.5-2C1072.8,4499.1,1071.7,4499.9,1071.4,4501.1z"/>
		</g>
		<g class="st1">
			<path class="st8" d="M297.8,4500.8v6.2h-2v-14h5.3c1.4,0,2.2,0.3,2.9,0.9c0.8,0.7,1.4,1.8,1.4,3s-0.5,2.3-1.4,3
				c-0.7,0.6-1.6,0.9-2.9,0.9H297.8z M301,4498.9c1,0,1.5-0.2,1.8-0.6c0.3-0.4,0.6-0.8,0.6-1.4s-0.2-1-0.6-1.4
				c-0.4-0.4-0.9-0.6-1.8-0.6h-3.2v4H301z"/>
			<path class="st8" d="M308.6,4493c0.7,0,1.3,0.6,1.3,1.3s-0.6,1.2-1.3,1.2s-1.2-0.5-1.2-1.2S307.9,4493,308.6,4493z M307.7,4497.6
				h1.9v9.4h-1.9V4497.6z"/>
			<path class="st8" d="M313,4492.8h1.9v14.2H313V4492.8z"/>
			<path class="st8" d="M325.2,4506.1c-0.8,0.7-1.8,1.1-2.9,1.1c-0.8,0-1.7-0.2-2.4-0.6c-1.4-0.8-2.4-2.4-2.4-4.3
				c0-1.9,1-3.5,2.4-4.3c0.6-0.4,1.4-0.6,2.3-0.6c1.1,0,2.1,0.3,2.9,1.1v-0.9h1.8v9.4h-1.8V4506.1z M325.1,4500.5
				c-0.6-0.8-1.5-1.3-2.7-1.3c-1.8,0-3,1.5-3,3.1c0,1.7,1.3,3.1,3.1,3.1c1,0,1.9-0.5,2.6-1.3V4500.5z"/>
			<path class="st8" d="M335.6,4499.3c-0.2-0.1-0.4-0.1-0.7-0.1c-1,0-2,0.7-2.5,1.6v6.2h-1.9v-9.4h1.8v1.1c0.5-0.6,1.4-1.3,2.8-1.3
				c0.2,0,0.5,0,0.7,0.1L335.6,4499.3z"/>
			<path class="st8" d="M338.7,4502.7c0.1,1.6,1.4,2.8,3,2.8c1.4,0,2.2-0.7,2.7-1.3l1.2,1.2c-0.7,0.9-2,1.8-4,1.8
				c-2.7,0-4.9-2.1-4.9-4.9s1.9-4.9,4.6-4.9c2.6,0,4.5,2.1,4.5,4.9c0,0.1,0,0.2,0,0.4H338.7z M338.9,4501.1h5.1
				c-0.3-1.2-1.4-2-2.5-2C340.3,4499.1,339.2,4499.9,338.9,4501.1z"/>
			<path class="st8" d="M348.7,4504.5c0.9,0.7,1.8,1,2.8,1c0.8,0,1.6-0.4,1.6-1.2c0-1.1-1.6-1.1-2.9-1.6c-1.1-0.4-2.2-1.1-2.2-2.4
				c0-2,1.8-2.9,3.5-2.9c1.4,0,2.4,0.4,3.1,1l-1,1.4c-0.6-0.4-1.3-0.7-2-0.7c-0.9,0-1.7,0.4-1.7,1.2c0,0.6,0.7,0.9,1.7,1.1
				c1.5,0.4,3.4,1,3.4,3c0,1.8-1.7,2.9-3.5,2.9c-1.5,0-2.8-0.5-3.8-1.3L348.7,4504.5z"/>
		</g>
		<g id="Elipse_365" transform="translate(510 4480)">
			<circle class="st9" cx="-81" cy="20" r="20"/>
			<circle class="st7" cx="-81" cy="20" r="18.5"/>
		</g>
		<g class="st1">
			<path class="st8" d="M464.8,4492.8c2,0,3.9,0.8,5.1,2.2l-1.3,1.3c-0.8-0.9-2.3-1.6-3.8-1.6c-2.9,0-5.1,2.3-5.1,5.3
				c0,3.2,2.3,5.3,5.3,5.3c1.9,0,3.2-1,4-2l1.4,1.3c-1.2,1.5-3.3,2.6-5.4,2.6c-4.2,0-7.3-3.1-7.3-7.2
				C457.7,4496,460.7,4492.8,464.8,4492.8z"/>
			<path class="st8" d="M473.5,4502.7c0.1,1.6,1.4,2.8,3,2.8c1.4,0,2.2-0.7,2.7-1.3l1.2,1.2c-0.7,0.9-2,1.8-4,1.8
				c-2.7,0-4.9-2.1-4.9-4.9s1.9-4.9,4.6-4.9c2.6,0,4.5,2.1,4.5,4.9c0,0.1,0,0.2,0,0.4H473.5z M473.7,4501.1h5.1
				c-0.3-1.2-1.4-2-2.5-2C475.1,4499.1,474,4499.9,473.7,4501.1z"/>
			<path class="st8" d="M485.2,4498.5c0.5-0.5,1.5-1.1,2.8-1.1c1.4,0,2.6,0.6,3.4,1.7c0.6,0.8,0.9,1.7,0.9,3.3v4.6h-1.9v-4.7
				c0-1.2-0.2-1.8-0.6-2.2c-0.4-0.6-1.2-0.9-1.9-0.9c-1.2,0-2.1,0.7-2.7,1.3v6.5h-1.9v-9.4h1.8V4498.5z"/>
			<path class="st8" d="M501.3,4507c-0.4,0.1-0.9,0.2-1.5,0.2c-1.2,0-2.1-0.4-2.7-1.1c-0.6-0.6-0.8-1.5-0.8-2.5v-4.3H494v-1.7h2.4
				v-2.6h1.9v2.6h3v1.7h-3v4.4c0,0.5,0,0.9,0.3,1.2c0.3,0.3,0.8,0.5,1.3,0.5c0.3,0,0.8,0,1-0.1L501.3,4507z"/>
			<path class="st8" d="M509.1,4499.3c-0.2-0.1-0.4-0.1-0.7-0.1c-1,0-2,0.7-2.5,1.6v6.2h-1.9v-9.4h1.8v1.1c0.5-0.6,1.4-1.3,2.8-1.3
				c0.2,0,0.5,0,0.7,0.1L509.1,4499.3z"/>
			<path class="st8" d="M518.1,4506.1c-0.8,0.7-1.8,1.1-2.9,1.1c-0.8,0-1.7-0.2-2.4-0.6c-1.4-0.8-2.4-2.4-2.4-4.3
				c0-1.9,1-3.5,2.4-4.3c0.6-0.4,1.4-0.6,2.3-0.6c1.1,0,2.1,0.3,2.9,1.1v-0.9h1.8v9.4h-1.8V4506.1z M518,4500.5
				c-0.6-0.8-1.5-1.3-2.7-1.3c-1.8,0-3,1.5-3,3.1c0,1.7,1.3,3.1,3.1,3.1c1,0,1.9-0.5,2.6-1.3V4500.5z"/>
			<path class="st8" d="M523.3,4492.8h1.9v14.2h-1.9V4492.8z"/>
			<path class="st8" d="M529.5,4493c0.7,0,1.3,0.6,1.3,1.3s-0.6,1.2-1.3,1.2s-1.2-0.5-1.2-1.2S528.8,4493,529.5,4493z M528.6,4497.6
				h1.9v9.4h-1.9V4497.6z"/>
			<path class="st8" d="M538.2,4499.3h-4.9v-1.7h7.5v1.2l-5.2,6.5h5.6v1.7H533v-1.2L538.2,4499.3z"/>
			<path class="st8" d="M550.2,4506.1c-0.8,0.7-1.8,1.1-2.9,1.1c-0.8,0-1.7-0.2-2.4-0.6c-1.4-0.8-2.4-2.4-2.4-4.3
				c0-1.9,1-3.5,2.4-4.3c0.6-0.4,1.4-0.6,2.3-0.6c1.1,0,2.1,0.3,2.9,1.1v-0.9h1.8v9.4h-1.8V4506.1z M550.1,4500.5
				c-0.6-0.8-1.5-1.3-2.7-1.3c-1.8,0-3,1.5-3,3.1c0,1.7,1.3,3.1,3.1,3.1c1,0,1.9-0.5,2.6-1.3V4500.5z"/>
			<path class="st8" d="M562.3,4506.1c-0.8,0.7-1.8,1.1-2.9,1.1c-0.8,0-1.7-0.2-2.4-0.6c-1.4-0.8-2.4-2.4-2.4-4.3
				c0-1.9,1-3.5,2.4-4.3c0.6-0.4,1.4-0.6,2.3-0.6c1,0,2,0.3,2.9,1v-5.6h1.9v14.2h-1.8V4506.1z M562.2,4500.5
				c-0.6-0.8-1.5-1.3-2.7-1.3c-1.8,0-3,1.5-3,3.1c0,1.7,1.3,3.1,3.1,3.1c1,0,1.9-0.5,2.6-1.3V4500.5z"/>
			<path class="st8" d="M574.4,4506.1c-0.8,0.7-1.8,1.1-2.9,1.1c-0.8,0-1.7-0.2-2.4-0.6c-1.4-0.8-2.4-2.4-2.4-4.3
				c0-1.9,1-3.5,2.4-4.3c0.6-0.4,1.4-0.6,2.3-0.6c1.1,0,2.1,0.3,2.9,1.1v-0.9h1.8v9.4h-1.8V4506.1z M574.3,4500.5
				c-0.6-0.8-1.5-1.3-2.7-1.3c-1.8,0-3,1.5-3,3.1c0,1.7,1.3,3.1,3.1,3.1c1,0,1.9-0.5,2.6-1.3V4500.5z"/>
			<path class="st8" d="M579.7,4504.5c0.9,0.7,1.8,1,2.8,1c0.8,0,1.6-0.4,1.6-1.2c0-1.1-1.6-1.1-2.9-1.6c-1.1-0.4-2.2-1.1-2.2-2.4
				c0-2,1.8-2.9,3.5-2.9c1.4,0,2.4,0.4,3.1,1l-1,1.4c-0.6-0.4-1.3-0.7-2-0.7c-0.9,0-1.7,0.4-1.7,1.2c0,0.6,0.7,0.9,1.7,1.1
				c1.5,0.4,3.4,1,3.4,3c0,1.8-1.7,2.9-3.5,2.9c-1.5,0-2.8-0.5-3.8-1.3L579.7,4504.5z"/>
		</g>
	</g>
	<g id="Grupo_2185" transform="translate(-7111.325 -14741.715)">
		<rect id="Rectángulo_776" x="7707.5" y="19193.5" class="st4" width="154.2" height="77.1"/>
		<rect id="Rectángulo_778" x="7869.8" y="19226" class="st9" width="154.2" height="44.6"/>
		<rect id="Rectángulo_777" x="8032.2" y="19221.9" class="st6" width="154.2" height="48.7"/>
		<g class="st1">
			<path class="st2" d="M7847.5,19331.8v6.3h-3v-15.4h5.8c2,0,3.1,0.5,4,1.4c0.8,0.8,1.2,2,1.2,3.2c0,1.2-0.4,2.4-1.2,3.2
				c-0.8,0.9-2,1.4-4,1.4H7847.5z M7850.1,19329.1c1,0,1.5-0.2,1.9-0.6c0.3-0.4,0.5-0.8,0.5-1.3c0-0.5-0.2-1-0.5-1.3
				c-0.4-0.4-0.9-0.6-1.9-0.6h-2.7v3.9H7850.1z"/>
			<path class="st2" d="M7860.7,19331.2v6.8h-3v-15.4h5.6c1.6,0,2.6,0.4,3.4,1.1c0.8,0.8,1.4,1.9,1.4,3.1s-0.5,2.4-1.4,3.1
				c-0.4,0.4-0.9,0.7-1.5,0.9l5.8,7.1h-3.7l-5.5-6.8H7860.7z M7863.1,19328.6c0.9,0,1.2-0.2,1.5-0.5c0.3-0.3,0.4-0.7,0.4-1.2
				c0-0.5-0.2-0.9-0.4-1.2c-0.3-0.3-0.6-0.5-1.5-0.5h-2.5v3.3H7863.1z"/>
			<path class="st2" d="M7878.5,19322.4c4.8,0,8,3.5,8,7.9s-3.3,7.9-8,7.9c-4.8,0-8-3.5-8-7.9S7873.7,19322.4,7878.5,19322.4z
				 M7878.5,19335.6c2.9,0,5.1-2.4,5.1-5.3s-2.2-5.3-5.1-5.3c-2.9,0-5.1,2.4-5.1,5.3S7875.6,19335.6,7878.5,19335.6z"/>
			<path class="st2" d="M7891.6,19330.3c0,3,2.3,5.3,5.3,5.3c2,0,3.5-1,4.4-2.1l2,1.8c-1.4,1.7-3.7,2.9-6.5,2.9
				c-4.8,0-8.2-3.5-8.2-7.9c0-4.4,3.3-7.9,8.1-7.9c2.3,0,4.2,0.9,5.6,2.2l-1.9,2c-0.9-0.9-2.2-1.6-3.7-1.6
				C7893.8,19325.1,7891.6,19327.4,7891.6,19330.3z"/>
			<path class="st2" d="M7908.4,19325.3v3.2h4.7v2.6h-4.7v4.3h6.5v2.6h-9.5v-15.4h9.2v2.6H7908.4z"/>
			<path class="st2" d="M7922.4,19322.6c2.4,0,4,0.5,5.3,1.5c1.9,1.4,3.1,3.7,3.1,6.2s-1.2,4.8-3.1,6.2c-1.3,0.9-2.9,1.5-5.3,1.5
				h-4.8v-15.4H7922.4z M7926.6,19327c-0.9-1.1-2.1-1.7-3.9-1.7h-2.2v10.1h2.2c1.8,0,3.1-0.6,3.9-1.7c0.7-0.9,1.1-2.1,1.1-3.3
				C7927.8,19329.1,7927.3,19327.9,7926.6,19327z"/>
			<path class="st2" d="M7933.1,19322.6h3v15.4h-3V19322.6z"/>
			<path class="st2" d="M7947.3,19331.9l5.6-9.2h2.1v15.4h-3v-8.6l-3.7,6.1h-2.1l-3.7-6.1v8.6h-3v-15.4h2.1L7947.3,19331.9z"/>
			<path class="st2" d="M7958.6,19322.6h3v15.4h-3V19322.6z"/>
			<path class="st2" d="M7968,19325.3v3.2h4.7v2.6h-4.7v4.3h6.5v2.6h-9.5v-15.4h9.2v2.6H7968z"/>
			<path class="st2" d="M7977.1,19322.6h2.1l8.6,10v-10h3v15.4h-2.1l-8.6-10v10h-3V19322.6z"/>
			<path class="st2" d="M8004.2,19322.6v2.6h-4.1v12.8h-3v-12.8h-4.1v-2.6H8004.2z"/>
			<path class="st2" d="M8013.1,19322.4c4.8,0,8,3.5,8,7.9s-3.3,7.9-8,7.9c-4.8,0-8-3.5-8-7.9S8008.4,19322.4,8013.1,19322.4z
				 M8013.1,19335.6c2.9,0,5.1-2.4,5.1-5.3s-2.2-5.3-5.1-5.3s-5.1,2.4-5.1,5.3S8010.2,19335.6,8013.1,19335.6z"/>
			<path class="st2" d="M8024,19333.9c0.9,1,2.2,1.7,3.6,1.7c1.3,0,2.2-0.8,2.2-1.9c0-2-2.9-2.2-4.9-3.4c-1.2-0.7-2.2-1.8-2.2-3.5
				c0-2.8,2.5-4.3,5.1-4.3c1.6,0,3,0.4,4.5,1.5l-1.5,2.2c-0.6-0.6-1.6-1-2.7-1c-1.1,0-2.4,0.5-2.4,1.7c0,2.5,7.1,1.7,7.1,6.9
				c0,2.7-2.4,4.6-5.2,4.6c-2.1,0-4-0.9-5.6-2.3L8024,19333.9z"/>
		</g>
		<g class="st1">
			<path class="st2" d="M7774.4,19149.4c0.9-2.9,3.5-4.9,6.6-4.9c3.6,0,6.7,2.7,6.7,6.5c0,2.5-1.3,4.4-2.7,6l-4.5,5.2h7.3v3.6h-13.6
				v-2.4l7.4-8.4c1.6-1.8,2.1-3,2.1-4.1c0-1.5-1.1-2.8-2.7-2.8c-1.4,0-2.4,1-2.9,2.4L7774.4,19149.4z"/>
		</g>
		<g class="st1">
			<path class="st2" d="M7932.9,19178.9l5.1-3h2.8v21h-4v-16.3l-3.9,2.2V19178.9z"/>
			<path class="st2" d="M7951.9,19192.3l-3.6,8.8h-2.8l2.2-8.8H7951.9z"/>
			<path class="st2" d="M7957.2,19180.5c0.9-2.9,3.5-4.9,6.6-4.9c3.6,0,6.7,2.7,6.7,6.5c0,2.5-1.3,4.4-2.7,6l-4.5,5.2h7.3v3.6H7957
				v-2.4l7.4-8.4c1.6-1.8,2.1-3,2.1-4.1c0-1.5-1.1-2.8-2.7-2.8c-1.4,0-2.4,1-2.8,2.4L7957.2,19180.5z"/>
		</g>
		<g class="st1">
			<path class="st2" d="M8086.7,19173.5l5.1-3h2.9v21h-4.1v-16.3l-3.9,2.2V19173.5z"/>
			<path class="st2" d="M8105.7,19186.9l-3.6,8.8h-2.8l2.2-8.8H8105.7z"/>
			<path class="st2" d="M8113.3,19186.1c0.9,1.2,2.3,2.1,3.9,2.1c2,0,3.9-1.6,3.9-3.8c0-2.2-1.8-3.8-4.1-3.8c-0.8,0-1.7,0.2-2.5,0.6
				v-2.4l3.9-4.7h-7v-3.6h12.8v2.4l-3.8,4.7c2.9,1.1,4.9,3.6,4.9,6.8c0,4.4-3.5,7.4-7.8,7.4c-2.6,0-5.1-1.2-7-3.3L8113.3,19186.1z"
				/>
		</g>
		<g class="st1">
			<path class="st2" d="M7953.3,18912h13.8v2.4l-9,18.6h-4.3l8.5-17.4h-9V18912z"/>
		</g>
		<line id="Línea_557" class="st3" x1="7707.5" y1="18958.3" x2="8217.5" y2="18958.3"/>
	</g>
	<line id="Línea_543" class="st10" x1="1380.9" y1="4531.2" x2="339.2" y2="4531.2"/>
</g>
</svg>
