<?xml version="1.0" encoding="utf-8"?>
<!-- Generator: Adobe Illustrator 25.2.0, SVG Export Plug-In . SVG Version: 6.00 Build 0)  -->
<svg version="1.1" id="Capa_1" xmlns="http://www.w3.org/2000/svg" xmlns:xlink="http://www.w3.org/1999/xlink" x="0px" y="0px"
	 viewBox="0 0 1107.5 1033" style="enable-background:new 0 0 1107.5 1033;" xml:space="preserve">
<style type="text/css">
	.st0{fill:none;stroke:#989898;stroke-linecap:round;}
	.st1{enable-background:new    ;}
	.st2{fill:#333333;}
	.st3{fill:none;stroke:#333333;stroke-width:3;stroke-linecap:square;stroke-dasharray:6,8;}
	.st4{fill:#9372FC;}
	.st5{fill:#FFFFFF;}
	.st6{fill:#FF5154;}
	.st7{fill:none;stroke:#FFFFFF;stroke-width:3;}
	.st8{fill:#AAAAAA;}
	.st9{fill:#16BAC5;}
	.st10{fill:none;stroke:#717171;stroke-width:4;}
</style>
<g id="Grupo_2196" transform="translate(-276.874 -3713)">
	<line id="Línea_539" class="st0" x1="356.7" y1="4331.7" x2="1383.9" y2="4331.7"/>
	<line id="Línea_540" class="st0" x1="356.7" y1="4129.9" x2="1383.9" y2="4129.9"/>
	<line id="Línea_541" class="st0" x1="356.7" y1="3928.4" x2="1383.9" y2="3928.4"/>
	<line id="Línea_542" class="st0" x1="356.7" y1="3726.4" x2="1383.9" y2="3726.4"/>
	<g class="st1">
		<path class="st2" d="M289.5,4124l3.4-2h1.9v14h-2.7v-10.9l-2.6,1.4V4124z"/>
		<path class="st2" d="M302.9,4121.8c3.6,0,4.9,3.2,4.9,7.2c0,4-1.3,7.2-4.9,7.2c-3.6,0-4.9-3.2-4.9-7.2
			C298,4125,299.3,4121.8,302.9,4121.8z M302.9,4124.2c-1.6,0-2.2,2.2-2.2,4.8c0,2.6,0.6,4.8,2.2,4.8c1.6,0,2.2-2.2,2.2-4.8
			C305.1,4126.4,304.5,4124.2,302.9,4124.2z"/>
	</g>
	<g class="st1">
		<path class="st2" d="M300.2,4329.7c0.6,0.6,1.5,1.1,2.4,1.1c0.6,0,1.2-0.2,1.7-0.6c0.5-0.4,0.8-1.1,0.8-1.8c0-0.8-0.3-1.4-0.9-1.9
			c-0.4-0.4-1-0.6-1.7-0.6c-0.7,0-1.5,0.3-2.1,0.8l-1.7-0.2l0.9-7.4h7.4v2.4h-5.2l-0.2,2.2c0.3-0.1,0.7-0.1,1.1-0.1
			c1.1,0,2.3,0.3,3.3,1.1c1.1,0.9,1.8,2.3,1.8,3.8c0,2.8-2.3,4.8-5.2,4.8c-1.6,0-3-0.6-4.2-1.8L300.2,4329.7z"/>
	</g>
	<g class="st1">
		<path class="st2" d="M290.2,3918l3.4-2h1.9v14h-2.7v-10.9l-2.6,1.4V3918z"/>
		<path class="st2" d="M300.2,3926.7c0.6,0.6,1.5,1.1,2.4,1.1c0.6,0,1.2-0.2,1.7-0.6c0.5-0.4,0.8-1.1,0.8-1.8c0-0.8-0.3-1.4-0.9-1.9
			c-0.4-0.4-1-0.6-1.7-0.6c-0.7,0-1.5,0.3-2.1,0.8l-1.7-0.2l0.9-7.4h7.4v2.4h-5.2l-0.2,2.2c0.3-0.1,0.7-0.1,1.1-0.1
			c1.1,0,2.3,0.3,3.3,1.1c1.1,0.9,1.8,2.3,1.8,3.8c0,2.8-2.3,4.8-5.2,4.8c-1.6,0-3-0.6-4.2-1.8L300.2,3926.7z"/>
	</g>
	<g class="st1">
		<path class="st2" d="M287,3717c0.6-1.9,2.4-3.2,4.4-3.2c2.4,0,4.5,1.8,4.5,4.3c0,1.7-0.9,2.9-1.8,4l-3,3.5h4.9v2.4h-9.1v-1.6
			l4.9-5.6c1.1-1.2,1.4-2,1.4-2.7c0-1-0.8-1.9-1.8-1.9c-0.9,0-1.6,0.6-1.9,1.6L287,3717z"/>
		<path class="st2" d="M302.9,3713.8c3.6,0,4.9,3.2,4.9,7.2c0,4-1.3,7.2-4.9,7.2c-3.6,0-4.9-3.2-4.9-7.2
			C298,3717,299.3,3713.8,302.9,3713.8z M302.9,3716.2c-1.6,0-2.2,2.2-2.2,4.8c0,2.6,0.6,4.8,2.2,4.8c1.6,0,2.2-2.2,2.2-4.8
			C305.1,3718.4,304.5,3716.2,302.9,3716.2z"/>
	</g>
	<g class="st1">
		<path class="st2" d="M302.9,4512.8c3.6,0,4.9,3.2,4.9,7.2c0,4-1.3,7.2-4.9,7.2c-3.6,0-4.9-3.2-4.9-7.2
			C298,4516,299.3,4512.8,302.9,4512.8z M302.9,4515.2c-1.6,0-2.2,2.2-2.2,4.8c0,2.6,0.6,4.8,2.2,4.8c1.6,0,2.2-2.2,2.2-4.8
			C305.1,4517.4,304.5,4515.2,302.9,4515.2z"/>
	</g>
	<g id="Grupo_2168" transform="translate(150 225)">
		<line id="Línea_508" class="st3" x1="807.5" y1="4503.2" x2="869.5" y2="4503.2"/>
		<g id="Trazado_2768" transform="translate(348 4479)">
			<path class="st4" d="M-78,38.5c-4.9,0-9.6-1.9-13.1-5.4c-3.5-3.5-5.4-8.1-5.4-13.1s1.9-9.6,5.4-13.1c3.5-3.5,8.1-5.4,13.1-5.4
				s9.6,1.9,13.1,5.4c3.5,3.5,5.4,8.1,5.4,13.1s-1.9,9.6-5.4,13.1C-68.4,36.6-73.1,38.5-78,38.5z"/>
			<path class="st5" d="M-78,3c-4.5,0-8.8,1.8-12,5c-3.2,3.2-5,7.5-5,12s1.8,8.8,5,12c3.2,3.2,7.5,5,12,5s8.8-1.8,12-5
				c3.2-3.2,5-7.5,5-12s-1.8-8.8-5-12C-69.2,4.8-73.5,3-78,3 M-78,0c11,0,20,9,20,20s-9,20-20,20s-20-9-20-20S-89,0-78,0z"/>
		</g>
		<g id="Elipse_364" transform="translate(735 4481)">
			<circle class="st6" cx="-78" cy="20" r="20"/>
			<circle class="st7" cx="-78" cy="20" r="18.5"/>
		</g>
		<g class="st1">
			<path class="st8" d="M687.8,4496.7v10.3h-2v-14h1.4l8.4,10.3V4493h2v14h-1.4L687.8,4496.7z"/>
			<path class="st8" d="M701.8,4505.6c-0.6-0.7-0.9-1.6-0.9-3.2v-4.8h1.9v5.1c0,1,0.2,1.5,0.5,1.9c0.4,0.5,1.1,0.8,1.8,0.8
				c1.2,0,2.1-0.7,2.6-1.3v-6.5h1.9v9.4h-1.8v-0.9c-0.4,0.4-1.5,1.1-2.8,1.1C703.8,4507.2,702.5,4506.6,701.8,4505.6z"/>
			<path class="st8" d="M714.1,4502.7c0.1,1.6,1.4,2.8,3,2.8c1.4,0,2.2-0.7,2.7-1.3l1.2,1.2c-0.7,0.9-2,1.8-4,1.8
				c-2.7,0-4.9-2.1-4.9-4.9s1.9-4.9,4.6-4.9c2.6,0,4.5,2.1,4.5,4.9c0,0.1,0,0.2,0,0.4H714.1z M714.3,4501.1h5.1
				c-0.3-1.2-1.4-2-2.5-2C715.7,4499.1,714.6,4499.9,714.3,4501.1z"/>
			<path class="st8" d="M722.4,4497.6h2l2.8,6.4l2.8-6.4h2l-4.1,9.4h-1.3L722.4,4497.6z"/>
			<path class="st8" d="M740.5,4506.1c-0.8,0.7-1.8,1.1-2.9,1.1c-0.8,0-1.7-0.2-2.4-0.6c-1.4-0.8-2.4-2.4-2.4-4.3
				c0-1.9,1-3.5,2.4-4.3c0.6-0.4,1.4-0.6,2.3-0.6c1.1,0,2.1,0.3,2.9,1.1v-0.9h1.8v9.4h-1.8V4506.1z M740.5,4500.5
				c-0.6-0.8-1.5-1.3-2.7-1.3c-1.8,0-3,1.5-3,3.1c0,1.7,1.3,3.1,3.1,3.1c1,0,1.9-0.5,2.6-1.3V4500.5z"/>
			<path class="st8" d="M745.9,4504.5c0.9,0.7,1.8,1,2.8,1c0.8,0,1.6-0.4,1.6-1.2c0-1.1-1.6-1.1-2.9-1.6c-1.1-0.4-2.2-1.1-2.2-2.4
				c0-2,1.8-2.9,3.5-2.9c1.4,0,2.4,0.4,3.1,1l-1,1.4c-0.6-0.4-1.3-0.7-2-0.7c-0.9,0-1.7,0.4-1.7,1.2c0,0.6,0.7,0.9,1.7,1.1
				c1.5,0.4,3.4,1,3.4,3c0,1.8-1.7,2.9-3.5,2.9c-1.5,0-2.8-0.5-3.8-1.3L745.9,4504.5z"/>
		</g>
		<g class="st1">
			<path class="st8" d="M896.3,4504h-1.4l-4.1-6.4v9.4h-2v-14h1.4l5.4,8.5l5.4-8.5h1.4v14h-2v-9.4L896.3,4504z"/>
			<path class="st8" d="M912.8,4506.1c-0.8,0.7-1.8,1.1-2.9,1.1c-0.8,0-1.7-0.2-2.4-0.6c-1.4-0.8-2.4-2.4-2.4-4.3
				c0-1.9,1-3.5,2.4-4.3c0.6-0.4,1.4-0.6,2.3-0.6c1.1,0,2.1,0.3,2.9,1.1v-0.9h1.8v9.4h-1.8V4506.1z M912.7,4500.5
				c-0.6-0.8-1.5-1.3-2.7-1.3c-1.8,0-3,1.5-3,3.1c0,1.7,1.3,3.1,3.1,3.1c1,0,1.9-0.5,2.6-1.3V4500.5z M909.2,4496l1.3-3h2.1l-2.1,3
				H909.2z"/>
			<path class="st8" d="M921.4,4503.5l-2.5,3.5h-2.3l3.6-4.9l-3.2-4.5h2.2l2.2,3l2.2-3h2.2l-3.2,4.5l3.6,4.9h-2.3L921.4,4503.5z"/>
			<path class="st8" d="M930.1,4504.4c0.8,0,1.4,0.6,1.4,1.4s-0.6,1.4-1.4,1.4c-0.8,0-1.4-0.6-1.4-1.4S929.3,4504.4,930.1,4504.4z"
				/>
			<path class="st8" d="M941.3,4511.8h-1.9v-14.2h1.8v0.9c0.9-0.7,1.9-1.1,2.9-1.1c0.9,0,1.7,0.2,2.3,0.6c1.4,0.8,2.4,2.4,2.4,4.3
				c0,1.9-1,3.4-2.4,4.3c-0.6,0.4-1.5,0.6-2.4,0.6c-1.1,0-2.1-0.4-2.8-1V4511.8z M941.3,4504.1c0.6,0.9,1.6,1.3,2.6,1.3
				c1.8,0,3.1-1.4,3.1-3.1c0-1.6-1.2-3.1-3-3.1c-1.1,0-2.1,0.6-2.7,1.3V4504.1z"/>
			<path class="st8" d="M952.2,4505.6c-0.6-0.7-0.9-1.6-0.9-3.2v-4.8h1.9v5.1c0,1,0.2,1.5,0.5,1.9c0.4,0.5,1.1,0.8,1.8,0.8
				c1.2,0,2.1-0.7,2.6-1.3v-6.5h1.9v9.4h-1.8v-0.9c-0.4,0.4-1.5,1.1-2.8,1.1C954.2,4507.2,952.9,4506.6,952.2,4505.6z"/>
			<path class="st8" d="M965.3,4498.5c0.5-0.5,1.5-1.1,2.8-1.1c1.4,0,2.6,0.6,3.4,1.7c0.6,0.8,0.9,1.7,0.9,3.3v4.6h-1.9v-4.7
				c0-1.2-0.2-1.8-0.6-2.2c-0.4-0.6-1.2-0.9-1.9-0.9c-1.2,0-2.1,0.7-2.7,1.3v6.5h-1.9v-9.4h1.8V4498.5z"/>
			<path class="st8" d="M981.4,4507c-0.4,0.1-0.9,0.2-1.5,0.2c-1.2,0-2.1-0.4-2.7-1.1c-0.6-0.6-0.8-1.5-0.8-2.5v-4.3h-2.4v-1.7h2.4
				v-2.6h1.9v2.6h3v1.7h-3v4.4c0,0.5,0,0.9,0.3,1.2c0.3,0.3,0.8,0.5,1.3,0.5c0.3,0,0.8,0,1-0.1L981.4,4507z"/>
			<path class="st8" d="M990.6,4506.1c-0.8,0.7-1.8,1.1-2.9,1.1c-0.8,0-1.7-0.2-2.4-0.6c-1.4-0.8-2.4-2.4-2.4-4.3
				c0-1.9,1-3.5,2.4-4.3c0.6-0.4,1.4-0.6,2.3-0.6c1.1,0,2.1,0.3,2.9,1.1v-0.9h1.8v9.4h-1.8V4506.1z M990.5,4500.5
				c-0.6-0.8-1.5-1.3-2.7-1.3c-1.8,0-3,1.5-3,3.1c0,1.7,1.3,3.1,3.1,3.1c1,0,1.9-0.5,2.6-1.3V4500.5z"/>
			<path class="st8" d="M996.2,4497.6h1.9v10.2c0,1.3-0.2,2-0.6,2.6c-0.7,1-1.8,1.6-3.1,1.6c-0.4,0-0.9-0.1-1.1-0.1l0.4-1.7
				c0.1,0,0.4,0.1,0.7,0.1c0.5,0,1.1-0.2,1.4-0.7c0.3-0.3,0.4-0.8,0.4-1.7V4497.6z M997.1,4493c0.7,0,1.3,0.6,1.3,1.3
				s-0.6,1.2-1.3,1.2s-1.2-0.5-1.2-1.2S996.4,4493,997.1,4493z"/>
			<path class="st8" d="M1002.5,4502.7c0.1,1.6,1.4,2.8,3,2.8c1.4,0,2.2-0.7,2.7-1.3l1.2,1.2c-0.7,0.9-2,1.8-4,1.8
				c-2.7,0-4.9-2.1-4.9-4.9s1.9-4.9,4.6-4.9c2.6,0,4.5,2.1,4.5,4.9c0,0.1,0,0.2,0,0.4H1002.5z M1002.7,4501.1h5.1
				c-0.3-1.2-1.4-2-2.5-2C1004.1,4499.1,1003,4499.9,1002.7,4501.1z"/>
			<path class="st8" d="M1019.7,4511.8h-1.9v-14.2h1.8v0.9c0.9-0.7,1.9-1.1,2.9-1.1c0.9,0,1.7,0.2,2.3,0.6c1.4,0.8,2.4,2.4,2.4,4.3
				c0,1.9-1,3.4-2.4,4.3c-0.6,0.4-1.5,0.6-2.4,0.6c-1.1,0-2.1-0.4-2.8-1V4511.8z M1019.7,4504.1c0.6,0.9,1.6,1.3,2.6,1.3
				c1.8,0,3.1-1.4,3.1-3.1c0-1.6-1.2-3.1-3-3.1c-1.1,0-2.1,0.6-2.7,1.3V4504.1z"/>
			<path class="st8" d="M1034,4497.4c2.8,0,4.9,2.1,4.9,4.9s-2.1,4.9-4.9,4.9c-2.8,0-4.9-2.1-4.9-4.9S1031.2,4497.4,1034,4497.4z
				 M1034,4505.4c1.7,0,3-1.4,3-3.1c0-1.7-1.2-3.1-3-3.1s-3,1.4-3,3.1C1031,4504,1032.2,4505.4,1034,4505.4z"/>
			<path class="st8" d="M1041.5,4504.5c0.9,0.7,1.8,1,2.8,1c0.8,0,1.6-0.4,1.6-1.2c0-1.1-1.6-1.1-2.9-1.6c-1.1-0.4-2.2-1.1-2.2-2.4
				c0-2,1.8-2.9,3.5-2.9c1.4,0,2.4,0.4,3.1,1l-1,1.4c-0.6-0.4-1.3-0.7-2-0.7c-0.9,0-1.7,0.4-1.7,1.2c0,0.6,0.7,0.9,1.7,1.1
				c1.5,0.4,3.4,1,3.4,3c0,1.8-1.7,2.9-3.5,2.9c-1.5,0-2.8-0.5-3.8-1.3L1041.5,4504.5z"/>
			<path class="st8" d="M1051.5,4493c0.7,0,1.3,0.6,1.3,1.3s-0.6,1.2-1.3,1.2c-0.7,0-1.2-0.5-1.2-1.2S1050.8,4493,1051.5,4493z
				 M1050.5,4497.6h1.9v9.4h-1.9V4497.6z"/>
			<path class="st8" d="M1057.7,4507h-1.8v-14.2h1.9v5.6c0.8-0.7,1.9-1,2.9-1c0.9,0,1.7,0.2,2.3,0.6c1.4,0.8,2.4,2.4,2.4,4.3
				c0,1.9-1,3.4-2.4,4.3c-0.6,0.4-1.5,0.6-2.4,0.6c-1.1,0-2.1-0.4-2.9-1.1V4507z M1057.7,4504.1c0.6,0.9,1.6,1.3,2.6,1.3
				c1.8,0,3.1-1.4,3.1-3.1c0-1.6-1.2-3.1-3-3.1c-1.1,0-2.1,0.6-2.7,1.3V4504.1z"/>
			<path class="st8" d="M1067.9,4492.8h1.9v14.2h-1.9V4492.8z"/>
			<path class="st8" d="M1074.3,4502.7c0.1,1.6,1.4,2.8,3,2.8c1.4,0,2.2-0.7,2.7-1.3l1.2,1.2c-0.7,0.9-2,1.8-4,1.8
				c-2.7,0-4.9-2.1-4.9-4.9s1.9-4.9,4.6-4.9c2.6,0,4.5,2.1,4.5,4.9c0,0.1,0,0.2,0,0.4H1074.3z M1074.4,4501.1h5.1
				c-0.3-1.2-1.4-2-2.5-2C1075.8,4499.1,1074.7,4499.9,1074.4,4501.1z"/>
		</g>
		<g class="st1">
			<path class="st8" d="M300.8,4500.8v6.2h-2v-14h5.3c1.4,0,2.2,0.3,2.9,0.9c0.8,0.7,1.4,1.8,1.4,3s-0.5,2.3-1.4,3
				c-0.7,0.6-1.6,0.9-2.9,0.9H300.8z M304,4498.9c1,0,1.5-0.2,1.8-0.6c0.3-0.4,0.6-0.8,0.6-1.4s-0.2-1-0.6-1.4
				c-0.4-0.4-0.9-0.6-1.8-0.6h-3.2v4H304z"/>
			<path class="st8" d="M311.6,4493c0.7,0,1.3,0.6,1.3,1.3s-0.6,1.2-1.3,1.2s-1.2-0.5-1.2-1.2S310.9,4493,311.6,4493z M310.7,4497.6
				h1.9v9.4h-1.9V4497.6z"/>
			<path class="st8" d="M316,4492.8h1.9v14.2H316V4492.8z"/>
			<path class="st8" d="M328.2,4506.1c-0.8,0.7-1.8,1.1-2.9,1.1c-0.8,0-1.7-0.2-2.4-0.6c-1.4-0.8-2.4-2.4-2.4-4.3
				c0-1.9,1-3.5,2.4-4.3c0.6-0.4,1.4-0.6,2.3-0.6c1.1,0,2.1,0.3,2.9,1.1v-0.9h1.8v9.4h-1.8V4506.1z M328.1,4500.5
				c-0.6-0.8-1.5-1.3-2.7-1.3c-1.8,0-3,1.5-3,3.1c0,1.7,1.3,3.1,3.1,3.1c1,0,1.9-0.5,2.6-1.3V4500.5z"/>
			<path class="st8" d="M338.6,4499.3c-0.2-0.1-0.4-0.1-0.7-0.1c-1,0-2,0.7-2.5,1.6v6.2h-1.9v-9.4h1.8v1.1c0.5-0.6,1.4-1.3,2.8-1.3
				c0.2,0,0.5,0,0.7,0.1L338.6,4499.3z"/>
			<path class="st8" d="M341.7,4502.7c0.1,1.6,1.4,2.8,3,2.8c1.4,0,2.2-0.7,2.7-1.3l1.2,1.2c-0.7,0.9-2,1.8-4,1.8
				c-2.7,0-4.9-2.1-4.9-4.9s1.9-4.9,4.6-4.9c2.6,0,4.5,2.1,4.5,4.9c0,0.1,0,0.2,0,0.4H341.7z M341.9,4501.1h5.1
				c-0.3-1.2-1.4-2-2.5-2C343.3,4499.1,342.2,4499.9,341.9,4501.1z"/>
			<path class="st8" d="M351.7,4504.5c0.9,0.7,1.8,1,2.8,1c0.8,0,1.6-0.4,1.6-1.2c0-1.1-1.6-1.1-2.9-1.6c-1.1-0.4-2.2-1.1-2.2-2.4
				c0-2,1.8-2.9,3.5-2.9c1.4,0,2.4,0.4,3.1,1l-1,1.4c-0.6-0.4-1.3-0.7-2-0.7c-0.9,0-1.7,0.4-1.7,1.2c0,0.6,0.7,0.9,1.7,1.1
				c1.5,0.4,3.4,1,3.4,3c0,1.8-1.7,2.9-3.5,2.9c-1.5,0-2.8-0.5-3.8-1.3L351.7,4504.5z"/>
		</g>
		<g id="Elipse_365" transform="translate(510 4480)">
			<circle class="st9" cx="-78" cy="20" r="20"/>
			<circle class="st7" cx="-78" cy="20" r="18.5"/>
		</g>
		<g class="st1">
			<path class="st8" d="M467.8,4492.8c2,0,3.9,0.8,5.1,2.2l-1.3,1.3c-0.8-0.9-2.3-1.6-3.8-1.6c-2.9,0-5.1,2.3-5.1,5.3
				c0,3.2,2.3,5.3,5.3,5.3c1.9,0,3.2-1,4-2l1.4,1.3c-1.2,1.5-3.3,2.6-5.4,2.6c-4.2,0-7.3-3.1-7.3-7.2
				C460.7,4496,463.7,4492.8,467.8,4492.8z"/>
			<path class="st8" d="M476.5,4502.7c0.1,1.6,1.4,2.8,3,2.8c1.4,0,2.2-0.7,2.7-1.3l1.2,1.2c-0.7,0.9-2,1.8-4,1.8
				c-2.7,0-4.9-2.1-4.9-4.9s1.9-4.9,4.6-4.9c2.6,0,4.5,2.1,4.5,4.9c0,0.1,0,0.2,0,0.4H476.5z M476.7,4501.1h5.1
				c-0.3-1.2-1.4-2-2.5-2C478.1,4499.1,477,4499.9,476.7,4501.1z"/>
			<path class="st8" d="M488.2,4498.5c0.5-0.5,1.5-1.1,2.8-1.1c1.4,0,2.6,0.6,3.4,1.7c0.6,0.8,0.9,1.7,0.9,3.3v4.6h-1.9v-4.7
				c0-1.2-0.2-1.8-0.6-2.2c-0.4-0.6-1.2-0.9-1.9-0.9c-1.2,0-2.1,0.7-2.7,1.3v6.5h-1.9v-9.4h1.8V4498.5z"/>
			<path class="st8" d="M504.3,4507c-0.4,0.1-0.9,0.2-1.5,0.2c-1.2,0-2.1-0.4-2.7-1.1c-0.6-0.6-0.8-1.5-0.8-2.5v-4.3H497v-1.7h2.4
				v-2.6h1.9v2.6h3v1.7h-3v4.4c0,0.5,0,0.9,0.3,1.2c0.3,0.3,0.8,0.5,1.3,0.5c0.3,0,0.8,0,1-0.1L504.3,4507z"/>
			<path class="st8" d="M512.1,4499.3c-0.2-0.1-0.4-0.1-0.7-0.1c-1,0-2,0.7-2.5,1.6v6.2h-1.9v-9.4h1.8v1.1c0.5-0.6,1.4-1.3,2.8-1.3
				c0.2,0,0.5,0,0.7,0.1L512.1,4499.3z"/>
			<path class="st8" d="M521.1,4506.1c-0.8,0.7-1.8,1.1-2.9,1.1c-0.8,0-1.7-0.2-2.4-0.6c-1.4-0.8-2.4-2.4-2.4-4.3
				c0-1.9,1-3.5,2.4-4.3c0.6-0.4,1.4-0.6,2.3-0.6c1.1,0,2.1,0.3,2.9,1.1v-0.9h1.8v9.4h-1.8V4506.1z M521,4500.5
				c-0.6-0.8-1.5-1.3-2.7-1.3c-1.8,0-3,1.5-3,3.1c0,1.7,1.3,3.1,3.1,3.1c1,0,1.9-0.5,2.6-1.3V4500.5z"/>
			<path class="st8" d="M526.3,4492.8h1.9v14.2h-1.9V4492.8z"/>
			<path class="st8" d="M532.5,4493c0.7,0,1.3,0.6,1.3,1.3s-0.6,1.2-1.3,1.2s-1.2-0.5-1.2-1.2S531.8,4493,532.5,4493z M531.6,4497.6
				h1.9v9.4h-1.9V4497.6z"/>
			<path class="st8" d="M541.2,4499.3h-4.9v-1.7h7.5v1.2l-5.2,6.5h5.6v1.7H536v-1.2L541.2,4499.3z"/>
			<path class="st8" d="M553.2,4506.1c-0.8,0.7-1.8,1.1-2.9,1.1c-0.8,0-1.7-0.2-2.4-0.6c-1.4-0.8-2.4-2.4-2.4-4.3
				c0-1.9,1-3.5,2.4-4.3c0.6-0.4,1.4-0.6,2.3-0.6c1.1,0,2.1,0.3,2.9,1.1v-0.9h1.8v9.4h-1.8V4506.1z M553.1,4500.5
				c-0.6-0.8-1.5-1.3-2.7-1.3c-1.8,0-3,1.5-3,3.1c0,1.7,1.3,3.1,3.1,3.1c1,0,1.9-0.5,2.6-1.3V4500.5z"/>
			<path class="st8" d="M565.3,4506.1c-0.8,0.7-1.8,1.1-2.9,1.1c-0.8,0-1.7-0.2-2.4-0.6c-1.4-0.8-2.4-2.4-2.4-4.3
				c0-1.9,1-3.5,2.4-4.3c0.6-0.4,1.4-0.6,2.3-0.6c1,0,2,0.3,2.9,1v-5.6h1.9v14.2h-1.8V4506.1z M565.2,4500.5
				c-0.6-0.8-1.5-1.3-2.7-1.3c-1.8,0-3,1.5-3,3.1c0,1.7,1.3,3.1,3.1,3.1c1,0,1.9-0.5,2.6-1.3V4500.5z"/>
			<path class="st8" d="M577.4,4506.1c-0.8,0.7-1.8,1.1-2.9,1.1c-0.8,0-1.7-0.2-2.4-0.6c-1.4-0.8-2.4-2.4-2.4-4.3
				c0-1.9,1-3.5,2.4-4.3c0.6-0.4,1.4-0.6,2.3-0.6c1.1,0,2.1,0.3,2.9,1.1v-0.9h1.8v9.4h-1.8V4506.1z M577.3,4500.5
				c-0.6-0.8-1.5-1.3-2.7-1.3c-1.8,0-3,1.5-3,3.1c0,1.7,1.3,3.1,3.1,3.1c1,0,1.9-0.5,2.6-1.3V4500.5z"/>
			<path class="st8" d="M582.7,4504.5c0.9,0.7,1.8,1,2.8,1c0.8,0,1.6-0.4,1.6-1.2c0-1.1-1.6-1.1-2.9-1.6c-1.1-0.4-2.2-1.1-2.2-2.4
				c0-2,1.8-2.9,3.5-2.9c1.4,0,2.4,0.4,3.1,1l-1,1.4c-0.6-0.4-1.3-0.7-2-0.7c-0.9,0-1.7,0.4-1.7,1.2c0,0.6,0.7,0.9,1.7,1.1
				c1.5,0.4,3.4,1,3.4,3c0,1.8-1.7,2.9-3.5,2.9c-1.5,0-2.8-0.5-3.8-1.3L582.7,4504.5z"/>
		</g>
	</g>
	<g id="Grupo_2182" transform="translate(-6437 -14741)">
		<rect id="Rectángulo_773" x="7360.1" y="19108.3" class="st6" width="154.2" height="162.4"/>
		<g class="st1">
			<path class="st2" d="M7430.6,19056.9v12.6h3.5v3.6h-3.5v4.8h-4v-4.8h-9.7v-2.4l10.9-13.8H7430.6z M7426.5,19069.5v-4.9l-3.9,4.9
				H7426.5z"/>
			<path class="st2" d="M7442,19073.2l-3.6,8.8h-2.8l2.2-8.8H7442z"/>
			<path class="st2" d="M7445.7,19059.9l5.1-3h2.8v21h-4v-16.3l-3.9,2.2V19059.9z"/>
		</g>
		<g id="Grupo_2181">
			<rect id="Rectángulo_772" x="7035.4" y="19096.1" class="st4" width="154.2" height="174.5"/>
			<rect id="Rectángulo_775" x="7197.7" y="19124.5" class="st9" width="154.2" height="146.1"/>
			<g class="st1">
				<path class="st2" d="M7130.8,19338l6.6-15.4h2.1l6.6,15.4h-3.1l-1.5-3.4h-6.2l-1.5,3.4H7130.8z M7136.5,19332h3.9l-2-4.6
					L7136.5,19332z"/>
				<path class="st2" d="M7149.2,19330.3c0,3,2.3,5.3,5.3,5.3c2,0,3.5-1,4.4-2.1l2,1.8c-1.4,1.7-3.7,2.9-6.5,2.9
					c-4.8,0-8.2-3.5-8.2-7.9s3.3-7.9,8.1-7.9c2.3,0,4.2,0.9,5.6,2.2l-1.9,2c-0.9-0.9-2.2-1.6-3.7-1.6
					C7151.4,19325.1,7149.2,19327.4,7149.2,19330.3z"/>
				<path class="st2" d="M7172.9,19322.6v2.6h-4.1v12.8h-3v-12.8h-4.1v-2.6H7172.9z"/>
				<path class="st2" d="M7175.3,19322.6h3v15.4h-3V19322.6z"/>
				<path class="st2" d="M7180.2,19322.6h3.1l4.2,10.5l4.2-10.5h3.1l-6.2,15.4h-2.1L7180.2,19322.6z"/>
				<path class="st2" d="M7196.7,19322.6h3v15.4h-3V19322.6z"/>
				<path class="st2" d="M7208.1,19322.6c2.4,0,4,0.5,5.3,1.5c1.9,1.4,3.1,3.7,3.1,6.2s-1.2,4.8-3.1,6.2c-1.3,0.9-2.9,1.5-5.3,1.5
					h-4.8v-15.4H7208.1z M7212.3,19327c-0.9-1.1-2.1-1.7-3.9-1.7h-2.2v10.1h2.2c1.8,0,3.1-0.6,3.9-1.7c0.7-0.9,1.1-2.1,1.1-3.3
					S7213,19327.9,7212.3,19327z"/>
				<path class="st2" d="M7216.5,19338l6.6-15.4h2.1l6.6,15.4h-3.1l-1.5-3.4h-6.2l-1.5,3.4H7216.5z M7222.2,19332h3.9l-2-4.6
					L7222.2,19332z"/>
				<path class="st2" d="M7238.4,19322.6c2.4,0,4,0.5,5.3,1.5c1.9,1.4,3.1,3.7,3.1,6.2s-1.2,4.8-3.1,6.2c-1.3,0.9-2.9,1.5-5.3,1.5
					h-4.8v-15.4H7238.4z M7242.7,19327c-0.9-1.1-2.1-1.7-3.9-1.7h-2.2v10.1h2.2c1.8,0,3.1-0.6,3.9-1.7c0.7-0.9,1.1-2.1,1.1-3.3
					S7243.4,19327.9,7242.7,19327z"/>
				<path class="st2" d="M7252.2,19325.3v3.2h4.7v2.6h-4.7v4.3h6.5v2.6h-9.5v-15.4h9.2v2.6H7252.2z"/>
				<path class="st2" d="M7262,19333.9c0.9,1,2.2,1.7,3.6,1.7c1.3,0,2.2-0.8,2.2-1.9c0-2-2.9-2.2-4.9-3.4c-1.2-0.7-2.2-1.8-2.2-3.5
					c0-2.8,2.5-4.3,5.1-4.3c1.6,0,3,0.4,4.5,1.5l-1.5,2.2c-0.6-0.6-1.6-1-2.7-1c-1.1,0-2.4,0.5-2.4,1.7c0,2.5,7.1,1.7,7.1,6.9
					c0,2.7-2.4,4.6-5.2,4.6c-2.1,0-4-0.9-5.6-2.3L7262,19333.9z"/>
				<path class="st2" d="M7286.3,19322.4c4.8,0,8,3.5,8,7.9s-3.3,7.9-8,7.9s-8-3.5-8-7.9S7281.5,19322.4,7286.3,19322.4z
					 M7286.3,19335.6c2.9,0,5.1-2.4,5.1-5.3s-2.2-5.3-5.1-5.3s-5.1,2.4-5.1,5.3S7283.4,19335.6,7286.3,19335.6z"/>
				<path class="st2" d="M7305.6,19331.8v6.3h-3v-15.4h5.8c2,0,3.1,0.5,4,1.4c0.8,0.8,1.2,2,1.2,3.2s-0.4,2.4-1.2,3.2
					c-0.8,0.9-2,1.4-4,1.4H7305.6z M7308.3,19329.1c1,0,1.5-0.2,1.9-0.6c0.3-0.4,0.5-0.8,0.5-1.3c0-0.5-0.2-1-0.5-1.3
					c-0.4-0.4-0.9-0.6-1.9-0.6h-2.7v3.8H7308.3z"/>
				<path class="st2" d="M7318.8,19331.2v6.8h-3v-15.4h5.6c1.6,0,2.6,0.4,3.4,1.1c0.8,0.8,1.4,1.9,1.4,3.1c0,1.2-0.5,2.4-1.4,3.1
					c-0.4,0.4-0.9,0.7-1.5,0.9l5.8,7.1h-3.7l-5.5-6.8H7318.8z M7321.3,19328.6c0.9,0,1.2-0.2,1.5-0.5s0.4-0.7,0.4-1.2
					c0-0.5-0.2-0.9-0.4-1.2c-0.3-0.3-0.6-0.5-1.5-0.5h-2.5v3.3H7321.3z"/>
				<path class="st2" d="M7329.8,19338l6.6-15.4h2.1l6.6,15.4h-3.1l-1.5-3.4h-6.2l-1.5,3.4H7329.8z M7335.5,19332h3.9l-2-4.6
					L7335.5,19332z M7341.1,19317.8l-2.6,3.5h-2l1.5-3.5H7341.1z"/>
				<path class="st2" d="M7348.2,19330.3c0,3,2.3,5.3,5.3,5.3c2,0,3.5-1,4.4-2.1l2,1.8c-1.4,1.7-3.7,2.9-6.5,2.9
					c-4.8,0-8.2-3.5-8.2-7.9s3.3-7.9,8.1-7.9c2.3,0,4.2,0.9,5.6,2.2l-1.9,2c-0.9-0.9-2.2-1.6-3.7-1.6
					C7350.4,19325.1,7348.2,19327.4,7348.2,19330.3z"/>
				<path class="st2" d="M7372,19322.6v2.6h-4.1v12.8h-3v-12.8h-4.1v-2.6H7372z"/>
				<path class="st2" d="M7374.3,19322.6h3v15.4h-3V19322.6z"/>
				<path class="st2" d="M7382.6,19330.3c0,3,2.3,5.3,5.3,5.3c2,0,3.5-1,4.4-2.1l2,1.8c-1.4,1.7-3.7,2.9-6.5,2.9
					c-4.8,0-8.2-3.5-8.2-7.9s3.3-7.9,8.1-7.9c2.3,0,4.2,0.9,5.6,2.2l-1.9,2c-0.9-0.9-2.2-1.6-3.7-1.6
					C7384.8,19325.1,7382.6,19327.4,7382.6,19330.3z"/>
				<path class="st2" d="M7395.2,19338l6.6-15.4h2.1l6.6,15.4h-3.1l-1.5-3.4h-6.2l-1.5,3.4H7395.2z M7400.8,19332h3.9l-2-4.6
					L7400.8,19332z"/>
				<path class="st2" d="M7413.3,19333.9c0.9,1,2.2,1.7,3.6,1.7c1.3,0,2.2-0.8,2.2-1.9c0-2-2.9-2.2-4.9-3.4
					c-1.2-0.7-2.2-1.8-2.2-3.5c0-2.8,2.5-4.3,5.1-4.3c1.6,0,3,0.4,4.5,1.5l-1.5,2.2c-0.6-0.6-1.6-1-2.7-1c-1.1,0-2.4,0.5-2.4,1.7
					c0,2.5,7.1,1.7,7.1,6.9c0,2.7-2.4,4.6-5.2,4.6c-2.1,0-4-0.9-5.6-2.3L7413.3,19333.9z"/>
			</g>
			<g class="st1">
				<path class="st2" d="M7102.4,19044.7v12.6h3.4v3.6h-3.4v4.8h-4v-4.8h-9.7v-2.4l10.9-13.8H7102.4z M7098.4,19057.3v-4.9l-3.9,4.9
					H7098.4z"/>
				<path class="st2" d="M7113.8,19061l-3.6,8.8h-2.8l2.2-8.8H7113.8z"/>
				<path class="st2" d="M7131.5,19044.7v12.6h3.4v3.6h-3.4v4.8h-4v-4.8h-9.7v-2.4l10.9-13.8H7131.5z M7127.5,19057.3v-4.9l-3.9,4.9
					H7127.5z"/>
			</g>
			<g class="st1">
				<path class="st2" d="M7252.7,19091.4c0.9,1.2,2.3,2.1,3.9,2.1c2,0,3.9-1.6,3.9-3.8c0-2.2-1.8-3.8-4.1-3.8
					c-0.8,0-1.7,0.2-2.5,0.6v-2.4l3.9-4.6h-7v-3.6h12.7v2.4l-3.8,4.7c2.9,1.1,4.9,3.6,4.9,6.8c0,4.4-3.5,7.4-7.8,7.4
					c-2.6,0-5.1-1.2-7-3.3L7252.7,19091.4z"/>
				<path class="st2" d="M7274.2,19092.2l-3.6,8.8h-2.8l2.2-8.8H7274.2z"/>
				<path class="st2" d="M7279.1,19075.8h13.8v2.4l-9,18.6h-4.3l8.5-17.4h-9V19075.8z"/>
			</g>
			<g class="st1">
				<path class="st2" d="M7248,18643.2l5.1-3h2.8v21h-4v-16.3l-3.9,2.2V18643.2z"/>
				<path class="st2" d="M7273.5,18640.2v12.6h3.4v3.6h-3.4v4.8h-4v-4.8h-9.8v-2.4l10.9-13.8H7273.5z M7269.5,18652.8v-4.9l-3.9,4.9
					H7269.5z"/>
			</g>
			<line id="Línea_555" class="st3" x1="7022.5" y1="18690.5" x2="7532.6" y2="18690.5"/>
		</g>
	</g>
	<line id="Línea_543" class="st10" x1="1383.9" y1="4531.2" x2="342.2" y2="4531.2"/>
</g>
</svg>
